%TF.GenerationSoftware,KiCad,Pcbnew,8.0.6-8.0.6-0~ubuntu24.04.1*%
%TF.CreationDate,2025-10-06T12:03:21-04:00*%
%TF.ProjectId,sweet-p,73776565-742d-4702-9e6b-696361645f70,rev?*%
%TF.SameCoordinates,Original*%
%TF.FileFunction,Soldermask,Bot*%
%TF.FilePolarity,Negative*%
%FSLAX46Y46*%
G04 Gerber Fmt 4.6, Leading zero omitted, Abs format (unit mm)*
G04 Created by KiCad (PCBNEW 8.0.6-8.0.6-0~ubuntu24.04.1) date 2025-10-06 12:03:21*
%MOMM*%
%LPD*%
G01*
G04 APERTURE LIST*
G04 Aperture macros list*
%AMRoundRect*
0 Rectangle with rounded corners*
0 $1 Rounding radius*
0 $2 $3 $4 $5 $6 $7 $8 $9 X,Y pos of 4 corners*
0 Add a 4 corners polygon primitive as box body*
4,1,4,$2,$3,$4,$5,$6,$7,$8,$9,$2,$3,0*
0 Add four circle primitives for the rounded corners*
1,1,$1+$1,$2,$3*
1,1,$1+$1,$4,$5*
1,1,$1+$1,$6,$7*
1,1,$1+$1,$8,$9*
0 Add four rect primitives between the rounded corners*
20,1,$1+$1,$2,$3,$4,$5,0*
20,1,$1+$1,$4,$5,$6,$7,0*
20,1,$1+$1,$6,$7,$8,$9,0*
20,1,$1+$1,$8,$9,$2,$3,0*%
G04 Aperture macros list end*
%ADD10O,1.400000X1.400000*%
%ADD11C,1.400000*%
%ADD12R,1.900000X1.900000*%
%ADD13C,1.900000*%
%ADD14R,1.700000X1.700000*%
%ADD15O,1.700000X1.700000*%
%ADD16R,1.800000X1.800000*%
%ADD17C,1.800000*%
%ADD18C,3.200000*%
%ADD19C,2.000000*%
%ADD20R,2.600000X2.600000*%
%ADD21C,2.600000*%
%ADD22RoundRect,0.102000X-0.754000X-0.754000X0.754000X-0.754000X0.754000X0.754000X-0.754000X0.754000X0*%
%ADD23C,1.712000*%
%ADD24R,1.600000X1.600000*%
%ADD25C,1.600000*%
%ADD26R,2.000000X1.905000*%
%ADD27O,2.000000X1.905000*%
%ADD28R,1.050000X1.500000*%
%ADD29O,1.050000X1.500000*%
G04 APERTURE END LIST*
D10*
%TO.C,R5*%
X104420000Y-41250000D03*
D11*
X96800000Y-41250000D03*
%TD*%
D12*
%TO.C,S2*%
X66500000Y-102400000D03*
D13*
X66500000Y-104900000D03*
X66500000Y-107400000D03*
%TD*%
D14*
%TO.C,U1*%
X81600000Y-71400000D03*
D15*
X81600000Y-73940000D03*
X81600000Y-76480000D03*
X81600000Y-79020000D03*
X81600000Y-81560000D03*
%TD*%
D11*
%TO.C,R19*%
X91100000Y-79570000D03*
D10*
X91100000Y-71950000D03*
%TD*%
D16*
%TO.C,D1*%
X159070000Y-58440000D03*
D17*
X159070000Y-55900000D03*
%TD*%
D18*
%TO.C,H5*%
X104600000Y-96650000D03*
%TD*%
%TO.C,H4*%
X162600000Y-119550000D03*
%TD*%
D19*
%TO.C,SW1*%
X157250000Y-46450000D03*
X163750000Y-46450000D03*
X157250000Y-50950000D03*
X163750000Y-50950000D03*
%TD*%
D14*
%TO.C,J4*%
X92800000Y-120900000D03*
%TD*%
D20*
%TO.C,J2*%
X76750000Y-114800000D03*
D21*
X81750000Y-114800000D03*
%TD*%
D22*
%TO.C,U8*%
X76520000Y-103800000D03*
D23*
X79060000Y-103800000D03*
X81600000Y-103800000D03*
%TD*%
D24*
%TO.C,C2*%
X81544888Y-91950000D03*
D25*
X83544888Y-91950000D03*
%TD*%
D18*
%TO.C,H2*%
X66600000Y-119550000D03*
%TD*%
D14*
%TO.C,J8*%
X130450000Y-84500000D03*
D15*
X130450000Y-87040000D03*
X130450000Y-89580000D03*
X130450000Y-92120000D03*
X130450000Y-94660000D03*
X130450000Y-97200000D03*
X130450000Y-99740000D03*
X130450000Y-102280000D03*
%TD*%
D18*
%TO.C,H1*%
X66600000Y-37550000D03*
%TD*%
D10*
%TO.C,R17*%
X96900000Y-37100000D03*
D11*
X104520000Y-37100000D03*
%TD*%
%TO.C,R13*%
X74050000Y-90844887D03*
D10*
X66430000Y-90844887D03*
%TD*%
D14*
%TO.C,J6*%
X66600000Y-72200000D03*
D15*
X66600000Y-69660000D03*
%TD*%
D14*
%TO.C,J9*%
X128400000Y-120600000D03*
%TD*%
D18*
%TO.C,H3*%
X162600000Y-37550000D03*
%TD*%
D14*
%TO.C,J3*%
X75150000Y-73000000D03*
D15*
X75150000Y-75540000D03*
X75150000Y-78080000D03*
X75150000Y-80620000D03*
%TD*%
D26*
%TO.C,Q1*%
X90350000Y-109580000D03*
D27*
X90350000Y-107040000D03*
X90350000Y-104500000D03*
%TD*%
D11*
%TO.C,R7*%
X145650000Y-57000000D03*
D10*
X153270000Y-57000000D03*
%TD*%
D11*
%TO.C,R12*%
X129030000Y-73350000D03*
D10*
X136650000Y-73350000D03*
%TD*%
D14*
%TO.C,A2*%
X66720000Y-63235000D03*
D15*
X69260000Y-63235000D03*
X71800000Y-63235000D03*
X74340000Y-63235000D03*
X76880000Y-63235000D03*
X79420000Y-63235000D03*
X81960000Y-63235000D03*
X84500000Y-63235000D03*
X87040000Y-63235000D03*
X89580000Y-63235000D03*
X92120000Y-63235000D03*
X94660000Y-63235000D03*
X97200000Y-63235000D03*
X99740000Y-63235000D03*
X99770000Y-48200000D03*
X97230000Y-48200000D03*
X94690000Y-48200000D03*
X92150000Y-48200000D03*
X89610000Y-48200000D03*
X87070000Y-48200000D03*
X84530000Y-48200000D03*
X81990000Y-48200000D03*
X79450000Y-48200000D03*
X76910000Y-48200000D03*
X74370000Y-48200000D03*
X71830000Y-48200000D03*
X69290000Y-48200000D03*
D14*
X66750000Y-48200000D03*
%TD*%
D11*
%TO.C,R2*%
X66700000Y-85220000D03*
D10*
X66700000Y-77600000D03*
%TD*%
D14*
%TO.C,J7*%
X90960000Y-41800000D03*
D15*
X88420000Y-41800000D03*
X85880000Y-41800000D03*
X83340000Y-41800000D03*
X80800000Y-41800000D03*
X78260000Y-41800000D03*
%TD*%
D14*
%TO.C,U2*%
X148800000Y-105150000D03*
D15*
X151340000Y-105150000D03*
X153880000Y-105150000D03*
X156420000Y-105150000D03*
%TD*%
D10*
%TO.C,R9*%
X136522500Y-68050000D03*
D11*
X128902500Y-68050000D03*
%TD*%
%TO.C,R21*%
X96100000Y-110910000D03*
D10*
X96100000Y-103290000D03*
%TD*%
D11*
%TO.C,R22*%
X96500000Y-89700000D03*
D10*
X88880000Y-89700000D03*
%TD*%
D14*
%TO.C,J11*%
X110050000Y-69250000D03*
D15*
X112590000Y-69250000D03*
X115130000Y-69250000D03*
%TD*%
D18*
%TO.C,H6*%
X119600000Y-96650000D03*
%TD*%
D15*
%TO.C,U4*%
X118340000Y-37937500D03*
X120880000Y-37937500D03*
X123420000Y-37937500D03*
D14*
X125960000Y-37937500D03*
%TD*%
D11*
%TO.C,R4*%
X79700000Y-58800000D03*
D10*
X87320000Y-58800000D03*
%TD*%
D20*
%TO.C,J5*%
X135220000Y-115450000D03*
D21*
X140300000Y-115450000D03*
X145380000Y-115450000D03*
X150460000Y-115450000D03*
X155540000Y-115450000D03*
%TD*%
D28*
%TO.C,Q2*%
X91260000Y-95900000D03*
D29*
X92530000Y-95900000D03*
X93800000Y-95900000D03*
%TD*%
D11*
%TO.C,R15*%
X83120000Y-54000000D03*
D10*
X75500000Y-54000000D03*
%TD*%
M02*
