%TF.GenerationSoftware,KiCad,Pcbnew,8.0.6-8.0.6-0~ubuntu24.04.1*%
%TF.CreationDate,2024-11-15T18:56:15-05:00*%
%TF.ProjectId,sweet-p,73776565-742d-4702-9e6b-696361645f70,rev?*%
%TF.SameCoordinates,Original*%
%TF.FileFunction,Legend,Bot*%
%TF.FilePolarity,Positive*%
%FSLAX46Y46*%
G04 Gerber Fmt 4.6, Leading zero omitted, Abs format (unit mm)*
G04 Created by KiCad (PCBNEW 8.0.6-8.0.6-0~ubuntu24.04.1) date 2024-11-15 18:56:15*
%MOMM*%
%LPD*%
G01*
G04 APERTURE LIST*
%ADD10C,0.300000*%
G04 APERTURE END LIST*
D10*
X155699171Y-79802632D02*
X154484885Y-79802632D01*
X154484885Y-79802632D02*
X154342028Y-79874060D01*
X154342028Y-79874060D02*
X154270600Y-79945489D01*
X154270600Y-79945489D02*
X154199171Y-80088346D01*
X154199171Y-80088346D02*
X154199171Y-80302632D01*
X154199171Y-80302632D02*
X154270600Y-80445489D01*
X154770600Y-79802632D02*
X154699171Y-79945489D01*
X154699171Y-79945489D02*
X154699171Y-80231203D01*
X154699171Y-80231203D02*
X154770600Y-80374060D01*
X154770600Y-80374060D02*
X154842028Y-80445489D01*
X154842028Y-80445489D02*
X154984885Y-80516917D01*
X154984885Y-80516917D02*
X155413457Y-80516917D01*
X155413457Y-80516917D02*
X155556314Y-80445489D01*
X155556314Y-80445489D02*
X155627742Y-80374060D01*
X155627742Y-80374060D02*
X155699171Y-80231203D01*
X155699171Y-80231203D02*
X155699171Y-79945489D01*
X155699171Y-79945489D02*
X155627742Y-79802632D01*
X154699171Y-79088346D02*
X155699171Y-79088346D01*
X156199171Y-79088346D02*
X156127742Y-79159774D01*
X156127742Y-79159774D02*
X156056314Y-79088346D01*
X156056314Y-79088346D02*
X156127742Y-79016917D01*
X156127742Y-79016917D02*
X156199171Y-79088346D01*
X156199171Y-79088346D02*
X156056314Y-79088346D01*
X155699171Y-78588345D02*
X155699171Y-78016917D01*
X156199171Y-78374060D02*
X154913457Y-78374060D01*
X154913457Y-78374060D02*
X154770600Y-78302631D01*
X154770600Y-78302631D02*
X154699171Y-78159774D01*
X154699171Y-78159774D02*
X154699171Y-78016917D01*
X154699171Y-77516917D02*
X156199171Y-77516917D01*
X154699171Y-76874060D02*
X155484885Y-76874060D01*
X155484885Y-76874060D02*
X155627742Y-76945488D01*
X155627742Y-76945488D02*
X155699171Y-77088345D01*
X155699171Y-77088345D02*
X155699171Y-77302631D01*
X155699171Y-77302631D02*
X155627742Y-77445488D01*
X155627742Y-77445488D02*
X155556314Y-77516917D01*
X155699171Y-75516917D02*
X154699171Y-75516917D01*
X155699171Y-76159774D02*
X154913457Y-76159774D01*
X154913457Y-76159774D02*
X154770600Y-76088345D01*
X154770600Y-76088345D02*
X154699171Y-75945488D01*
X154699171Y-75945488D02*
X154699171Y-75731202D01*
X154699171Y-75731202D02*
X154770600Y-75588345D01*
X154770600Y-75588345D02*
X154842028Y-75516917D01*
X154699171Y-74802631D02*
X156199171Y-74802631D01*
X155627742Y-74802631D02*
X155699171Y-74659774D01*
X155699171Y-74659774D02*
X155699171Y-74374059D01*
X155699171Y-74374059D02*
X155627742Y-74231202D01*
X155627742Y-74231202D02*
X155556314Y-74159774D01*
X155556314Y-74159774D02*
X155413457Y-74088345D01*
X155413457Y-74088345D02*
X154984885Y-74088345D01*
X154984885Y-74088345D02*
X154842028Y-74159774D01*
X154842028Y-74159774D02*
X154770600Y-74231202D01*
X154770600Y-74231202D02*
X154699171Y-74374059D01*
X154699171Y-74374059D02*
X154699171Y-74659774D01*
X154699171Y-74659774D02*
X154770600Y-74802631D01*
X154842028Y-73445488D02*
X154770600Y-73374059D01*
X154770600Y-73374059D02*
X154699171Y-73445488D01*
X154699171Y-73445488D02*
X154770600Y-73516916D01*
X154770600Y-73516916D02*
X154842028Y-73445488D01*
X154842028Y-73445488D02*
X154699171Y-73445488D01*
X154770600Y-72088345D02*
X154699171Y-72231202D01*
X154699171Y-72231202D02*
X154699171Y-72516916D01*
X154699171Y-72516916D02*
X154770600Y-72659773D01*
X154770600Y-72659773D02*
X154842028Y-72731202D01*
X154842028Y-72731202D02*
X154984885Y-72802630D01*
X154984885Y-72802630D02*
X155413457Y-72802630D01*
X155413457Y-72802630D02*
X155556314Y-72731202D01*
X155556314Y-72731202D02*
X155627742Y-72659773D01*
X155627742Y-72659773D02*
X155699171Y-72516916D01*
X155699171Y-72516916D02*
X155699171Y-72231202D01*
X155699171Y-72231202D02*
X155627742Y-72088345D01*
X154699171Y-71231202D02*
X154770600Y-71374059D01*
X154770600Y-71374059D02*
X154842028Y-71445488D01*
X154842028Y-71445488D02*
X154984885Y-71516916D01*
X154984885Y-71516916D02*
X155413457Y-71516916D01*
X155413457Y-71516916D02*
X155556314Y-71445488D01*
X155556314Y-71445488D02*
X155627742Y-71374059D01*
X155627742Y-71374059D02*
X155699171Y-71231202D01*
X155699171Y-71231202D02*
X155699171Y-71016916D01*
X155699171Y-71016916D02*
X155627742Y-70874059D01*
X155627742Y-70874059D02*
X155556314Y-70802631D01*
X155556314Y-70802631D02*
X155413457Y-70731202D01*
X155413457Y-70731202D02*
X154984885Y-70731202D01*
X154984885Y-70731202D02*
X154842028Y-70802631D01*
X154842028Y-70802631D02*
X154770600Y-70874059D01*
X154770600Y-70874059D02*
X154699171Y-71016916D01*
X154699171Y-71016916D02*
X154699171Y-71231202D01*
X154699171Y-70088345D02*
X155699171Y-70088345D01*
X155556314Y-70088345D02*
X155627742Y-70016916D01*
X155627742Y-70016916D02*
X155699171Y-69874059D01*
X155699171Y-69874059D02*
X155699171Y-69659773D01*
X155699171Y-69659773D02*
X155627742Y-69516916D01*
X155627742Y-69516916D02*
X155484885Y-69445488D01*
X155484885Y-69445488D02*
X154699171Y-69445488D01*
X155484885Y-69445488D02*
X155627742Y-69374059D01*
X155627742Y-69374059D02*
X155699171Y-69231202D01*
X155699171Y-69231202D02*
X155699171Y-69016916D01*
X155699171Y-69016916D02*
X155627742Y-68874059D01*
X155627742Y-68874059D02*
X155484885Y-68802630D01*
X155484885Y-68802630D02*
X154699171Y-68802630D01*
X156270600Y-67016916D02*
X154342028Y-68302630D01*
X154770600Y-65945487D02*
X154699171Y-66088344D01*
X154699171Y-66088344D02*
X154699171Y-66374059D01*
X154699171Y-66374059D02*
X154770600Y-66516916D01*
X154770600Y-66516916D02*
X154913457Y-66588344D01*
X154913457Y-66588344D02*
X155484885Y-66588344D01*
X155484885Y-66588344D02*
X155627742Y-66516916D01*
X155627742Y-66516916D02*
X155699171Y-66374059D01*
X155699171Y-66374059D02*
X155699171Y-66088344D01*
X155699171Y-66088344D02*
X155627742Y-65945487D01*
X155627742Y-65945487D02*
X155484885Y-65874059D01*
X155484885Y-65874059D02*
X155342028Y-65874059D01*
X155342028Y-65874059D02*
X155199171Y-66588344D01*
X154699171Y-64588345D02*
X156199171Y-64588345D01*
X154770600Y-64588345D02*
X154699171Y-64731202D01*
X154699171Y-64731202D02*
X154699171Y-65016916D01*
X154699171Y-65016916D02*
X154770600Y-65159773D01*
X154770600Y-65159773D02*
X154842028Y-65231202D01*
X154842028Y-65231202D02*
X154984885Y-65302630D01*
X154984885Y-65302630D02*
X155413457Y-65302630D01*
X155413457Y-65302630D02*
X155556314Y-65231202D01*
X155556314Y-65231202D02*
X155627742Y-65159773D01*
X155627742Y-65159773D02*
X155699171Y-65016916D01*
X155699171Y-65016916D02*
X155699171Y-64731202D01*
X155699171Y-64731202D02*
X155627742Y-64588345D01*
X155699171Y-63231202D02*
X154484885Y-63231202D01*
X154484885Y-63231202D02*
X154342028Y-63302630D01*
X154342028Y-63302630D02*
X154270600Y-63374059D01*
X154270600Y-63374059D02*
X154199171Y-63516916D01*
X154199171Y-63516916D02*
X154199171Y-63731202D01*
X154199171Y-63731202D02*
X154270600Y-63874059D01*
X154770600Y-63231202D02*
X154699171Y-63374059D01*
X154699171Y-63374059D02*
X154699171Y-63659773D01*
X154699171Y-63659773D02*
X154770600Y-63802630D01*
X154770600Y-63802630D02*
X154842028Y-63874059D01*
X154842028Y-63874059D02*
X154984885Y-63945487D01*
X154984885Y-63945487D02*
X155413457Y-63945487D01*
X155413457Y-63945487D02*
X155556314Y-63874059D01*
X155556314Y-63874059D02*
X155627742Y-63802630D01*
X155627742Y-63802630D02*
X155699171Y-63659773D01*
X155699171Y-63659773D02*
X155699171Y-63374059D01*
X155699171Y-63374059D02*
X155627742Y-63231202D01*
X154770600Y-61945487D02*
X154699171Y-62088344D01*
X154699171Y-62088344D02*
X154699171Y-62374059D01*
X154699171Y-62374059D02*
X154770600Y-62516916D01*
X154770600Y-62516916D02*
X154913457Y-62588344D01*
X154913457Y-62588344D02*
X155484885Y-62588344D01*
X155484885Y-62588344D02*
X155627742Y-62516916D01*
X155627742Y-62516916D02*
X155699171Y-62374059D01*
X155699171Y-62374059D02*
X155699171Y-62088344D01*
X155699171Y-62088344D02*
X155627742Y-61945487D01*
X155627742Y-61945487D02*
X155484885Y-61874059D01*
X155484885Y-61874059D02*
X155342028Y-61874059D01*
X155342028Y-61874059D02*
X155199171Y-62588344D01*
X154770600Y-60588345D02*
X154699171Y-60731202D01*
X154699171Y-60731202D02*
X154699171Y-61016916D01*
X154699171Y-61016916D02*
X154770600Y-61159773D01*
X154770600Y-61159773D02*
X154842028Y-61231202D01*
X154842028Y-61231202D02*
X154984885Y-61302630D01*
X154984885Y-61302630D02*
X155413457Y-61302630D01*
X155413457Y-61302630D02*
X155556314Y-61231202D01*
X155556314Y-61231202D02*
X155627742Y-61159773D01*
X155627742Y-61159773D02*
X155699171Y-61016916D01*
X155699171Y-61016916D02*
X155699171Y-60731202D01*
X155699171Y-60731202D02*
X155627742Y-60588345D01*
X154699171Y-59731202D02*
X154770600Y-59874059D01*
X154770600Y-59874059D02*
X154842028Y-59945488D01*
X154842028Y-59945488D02*
X154984885Y-60016916D01*
X154984885Y-60016916D02*
X155413457Y-60016916D01*
X155413457Y-60016916D02*
X155556314Y-59945488D01*
X155556314Y-59945488D02*
X155627742Y-59874059D01*
X155627742Y-59874059D02*
X155699171Y-59731202D01*
X155699171Y-59731202D02*
X155699171Y-59516916D01*
X155699171Y-59516916D02*
X155627742Y-59374059D01*
X155627742Y-59374059D02*
X155556314Y-59302631D01*
X155556314Y-59302631D02*
X155413457Y-59231202D01*
X155413457Y-59231202D02*
X154984885Y-59231202D01*
X154984885Y-59231202D02*
X154842028Y-59302631D01*
X154842028Y-59302631D02*
X154770600Y-59374059D01*
X154770600Y-59374059D02*
X154699171Y-59516916D01*
X154699171Y-59516916D02*
X154699171Y-59731202D01*
X154699171Y-58374059D02*
X154770600Y-58516916D01*
X154770600Y-58516916D02*
X154913457Y-58588345D01*
X154913457Y-58588345D02*
X156199171Y-58588345D01*
X154699171Y-57588345D02*
X154770600Y-57731202D01*
X154770600Y-57731202D02*
X154913457Y-57802631D01*
X154913457Y-57802631D02*
X156199171Y-57802631D01*
X154770600Y-56445488D02*
X154699171Y-56588345D01*
X154699171Y-56588345D02*
X154699171Y-56874060D01*
X154699171Y-56874060D02*
X154770600Y-57016917D01*
X154770600Y-57016917D02*
X154913457Y-57088345D01*
X154913457Y-57088345D02*
X155484885Y-57088345D01*
X155484885Y-57088345D02*
X155627742Y-57016917D01*
X155627742Y-57016917D02*
X155699171Y-56874060D01*
X155699171Y-56874060D02*
X155699171Y-56588345D01*
X155699171Y-56588345D02*
X155627742Y-56445488D01*
X155627742Y-56445488D02*
X155484885Y-56374060D01*
X155484885Y-56374060D02*
X155342028Y-56374060D01*
X155342028Y-56374060D02*
X155199171Y-57088345D01*
X154770600Y-55088346D02*
X154699171Y-55231203D01*
X154699171Y-55231203D02*
X154699171Y-55516917D01*
X154699171Y-55516917D02*
X154770600Y-55659774D01*
X154770600Y-55659774D02*
X154842028Y-55731203D01*
X154842028Y-55731203D02*
X154984885Y-55802631D01*
X154984885Y-55802631D02*
X155413457Y-55802631D01*
X155413457Y-55802631D02*
X155556314Y-55731203D01*
X155556314Y-55731203D02*
X155627742Y-55659774D01*
X155627742Y-55659774D02*
X155699171Y-55516917D01*
X155699171Y-55516917D02*
X155699171Y-55231203D01*
X155699171Y-55231203D02*
X155627742Y-55088346D01*
X155699171Y-54659774D02*
X155699171Y-54088346D01*
X156199171Y-54445489D02*
X154913457Y-54445489D01*
X154913457Y-54445489D02*
X154770600Y-54374060D01*
X154770600Y-54374060D02*
X154699171Y-54231203D01*
X154699171Y-54231203D02*
X154699171Y-54088346D01*
X154699171Y-53588346D02*
X155699171Y-53588346D01*
X156199171Y-53588346D02*
X156127742Y-53659774D01*
X156127742Y-53659774D02*
X156056314Y-53588346D01*
X156056314Y-53588346D02*
X156127742Y-53516917D01*
X156127742Y-53516917D02*
X156199171Y-53588346D01*
X156199171Y-53588346D02*
X156056314Y-53588346D01*
X155699171Y-53016917D02*
X154699171Y-52659774D01*
X154699171Y-52659774D02*
X155699171Y-52302631D01*
X154770600Y-51159774D02*
X154699171Y-51302631D01*
X154699171Y-51302631D02*
X154699171Y-51588346D01*
X154699171Y-51588346D02*
X154770600Y-51731203D01*
X154770600Y-51731203D02*
X154913457Y-51802631D01*
X154913457Y-51802631D02*
X155484885Y-51802631D01*
X155484885Y-51802631D02*
X155627742Y-51731203D01*
X155627742Y-51731203D02*
X155699171Y-51588346D01*
X155699171Y-51588346D02*
X155699171Y-51302631D01*
X155699171Y-51302631D02*
X155627742Y-51159774D01*
X155627742Y-51159774D02*
X155484885Y-51088346D01*
X155484885Y-51088346D02*
X155342028Y-51088346D01*
X155342028Y-51088346D02*
X155199171Y-51802631D01*
X156270600Y-49374060D02*
X154342028Y-50659774D01*
X154770600Y-48945488D02*
X154699171Y-48802631D01*
X154699171Y-48802631D02*
X154699171Y-48516917D01*
X154699171Y-48516917D02*
X154770600Y-48374060D01*
X154770600Y-48374060D02*
X154913457Y-48302631D01*
X154913457Y-48302631D02*
X154984885Y-48302631D01*
X154984885Y-48302631D02*
X155127742Y-48374060D01*
X155127742Y-48374060D02*
X155199171Y-48516917D01*
X155199171Y-48516917D02*
X155199171Y-48731203D01*
X155199171Y-48731203D02*
X155270600Y-48874060D01*
X155270600Y-48874060D02*
X155413457Y-48945488D01*
X155413457Y-48945488D02*
X155484885Y-48945488D01*
X155484885Y-48945488D02*
X155627742Y-48874060D01*
X155627742Y-48874060D02*
X155699171Y-48731203D01*
X155699171Y-48731203D02*
X155699171Y-48516917D01*
X155699171Y-48516917D02*
X155627742Y-48374060D01*
X155699171Y-47802631D02*
X154699171Y-47516917D01*
X154699171Y-47516917D02*
X155413457Y-47231202D01*
X155413457Y-47231202D02*
X154699171Y-46945488D01*
X154699171Y-46945488D02*
X155699171Y-46659774D01*
X154770600Y-45516916D02*
X154699171Y-45659773D01*
X154699171Y-45659773D02*
X154699171Y-45945488D01*
X154699171Y-45945488D02*
X154770600Y-46088345D01*
X154770600Y-46088345D02*
X154913457Y-46159773D01*
X154913457Y-46159773D02*
X155484885Y-46159773D01*
X155484885Y-46159773D02*
X155627742Y-46088345D01*
X155627742Y-46088345D02*
X155699171Y-45945488D01*
X155699171Y-45945488D02*
X155699171Y-45659773D01*
X155699171Y-45659773D02*
X155627742Y-45516916D01*
X155627742Y-45516916D02*
X155484885Y-45445488D01*
X155484885Y-45445488D02*
X155342028Y-45445488D01*
X155342028Y-45445488D02*
X155199171Y-46159773D01*
X154770600Y-44231202D02*
X154699171Y-44374059D01*
X154699171Y-44374059D02*
X154699171Y-44659774D01*
X154699171Y-44659774D02*
X154770600Y-44802631D01*
X154770600Y-44802631D02*
X154913457Y-44874059D01*
X154913457Y-44874059D02*
X155484885Y-44874059D01*
X155484885Y-44874059D02*
X155627742Y-44802631D01*
X155627742Y-44802631D02*
X155699171Y-44659774D01*
X155699171Y-44659774D02*
X155699171Y-44374059D01*
X155699171Y-44374059D02*
X155627742Y-44231202D01*
X155627742Y-44231202D02*
X155484885Y-44159774D01*
X155484885Y-44159774D02*
X155342028Y-44159774D01*
X155342028Y-44159774D02*
X155199171Y-44874059D01*
X155699171Y-43731202D02*
X155699171Y-43159774D01*
X156199171Y-43516917D02*
X154913457Y-43516917D01*
X154913457Y-43516917D02*
X154770600Y-43445488D01*
X154770600Y-43445488D02*
X154699171Y-43302631D01*
X154699171Y-43302631D02*
X154699171Y-43159774D01*
X155270600Y-42659774D02*
X155270600Y-41516917D01*
X155699171Y-40802631D02*
X154199171Y-40802631D01*
X155627742Y-40802631D02*
X155699171Y-40659774D01*
X155699171Y-40659774D02*
X155699171Y-40374059D01*
X155699171Y-40374059D02*
X155627742Y-40231202D01*
X155627742Y-40231202D02*
X155556314Y-40159774D01*
X155556314Y-40159774D02*
X155413457Y-40088345D01*
X155413457Y-40088345D02*
X154984885Y-40088345D01*
X154984885Y-40088345D02*
X154842028Y-40159774D01*
X154842028Y-40159774D02*
X154770600Y-40231202D01*
X154770600Y-40231202D02*
X154699171Y-40374059D01*
X154699171Y-40374059D02*
X154699171Y-40659774D01*
X154699171Y-40659774D02*
X154770600Y-40802631D01*
M02*
