%TF.GenerationSoftware,KiCad,Pcbnew,8.0.6-8.0.6-0~ubuntu24.04.1*%
%TF.CreationDate,2025-10-06T12:03:21-04:00*%
%TF.ProjectId,sweet-p,73776565-742d-4702-9e6b-696361645f70,rev?*%
%TF.SameCoordinates,Original*%
%TF.FileFunction,Legend,Top*%
%TF.FilePolarity,Positive*%
%FSLAX46Y46*%
G04 Gerber Fmt 4.6, Leading zero omitted, Abs format (unit mm)*
G04 Created by KiCad (PCBNEW 8.0.6-8.0.6-0~ubuntu24.04.1) date 2025-10-06 12:03:21*
%MOMM*%
%LPD*%
G01*
G04 APERTURE LIST*
%ADD10C,0.150000*%
%ADD11C,0.300000*%
%ADD12C,0.200000*%
%ADD13C,0.120000*%
%ADD14C,0.100000*%
%ADD15C,0.127000*%
G04 APERTURE END LIST*
D10*
X126472200Y-42360839D02*
X126519819Y-42217982D01*
X126519819Y-42217982D02*
X126519819Y-41979887D01*
X126519819Y-41979887D02*
X126472200Y-41884649D01*
X126472200Y-41884649D02*
X126424580Y-41837030D01*
X126424580Y-41837030D02*
X126329342Y-41789411D01*
X126329342Y-41789411D02*
X126234104Y-41789411D01*
X126234104Y-41789411D02*
X126138866Y-41837030D01*
X126138866Y-41837030D02*
X126091247Y-41884649D01*
X126091247Y-41884649D02*
X126043628Y-41979887D01*
X126043628Y-41979887D02*
X125996009Y-42170363D01*
X125996009Y-42170363D02*
X125948390Y-42265601D01*
X125948390Y-42265601D02*
X125900771Y-42313220D01*
X125900771Y-42313220D02*
X125805533Y-42360839D01*
X125805533Y-42360839D02*
X125710295Y-42360839D01*
X125710295Y-42360839D02*
X125615057Y-42313220D01*
X125615057Y-42313220D02*
X125567438Y-42265601D01*
X125567438Y-42265601D02*
X125519819Y-42170363D01*
X125519819Y-42170363D02*
X125519819Y-41932268D01*
X125519819Y-41932268D02*
X125567438Y-41789411D01*
X126519819Y-41360839D02*
X125519819Y-41360839D01*
X125519819Y-41360839D02*
X125519819Y-41122744D01*
X125519819Y-41122744D02*
X125567438Y-40979887D01*
X125567438Y-40979887D02*
X125662676Y-40884649D01*
X125662676Y-40884649D02*
X125757914Y-40837030D01*
X125757914Y-40837030D02*
X125948390Y-40789411D01*
X125948390Y-40789411D02*
X126091247Y-40789411D01*
X126091247Y-40789411D02*
X126281723Y-40837030D01*
X126281723Y-40837030D02*
X126376961Y-40884649D01*
X126376961Y-40884649D02*
X126472200Y-40979887D01*
X126472200Y-40979887D02*
X126519819Y-41122744D01*
X126519819Y-41122744D02*
X126519819Y-41360839D01*
X126234104Y-40408458D02*
X126234104Y-39932268D01*
X126519819Y-40503696D02*
X125519819Y-40170363D01*
X125519819Y-40170363D02*
X126519819Y-39837030D01*
X123772200Y-42460839D02*
X123819819Y-42317982D01*
X123819819Y-42317982D02*
X123819819Y-42079887D01*
X123819819Y-42079887D02*
X123772200Y-41984649D01*
X123772200Y-41984649D02*
X123724580Y-41937030D01*
X123724580Y-41937030D02*
X123629342Y-41889411D01*
X123629342Y-41889411D02*
X123534104Y-41889411D01*
X123534104Y-41889411D02*
X123438866Y-41937030D01*
X123438866Y-41937030D02*
X123391247Y-41984649D01*
X123391247Y-41984649D02*
X123343628Y-42079887D01*
X123343628Y-42079887D02*
X123296009Y-42270363D01*
X123296009Y-42270363D02*
X123248390Y-42365601D01*
X123248390Y-42365601D02*
X123200771Y-42413220D01*
X123200771Y-42413220D02*
X123105533Y-42460839D01*
X123105533Y-42460839D02*
X123010295Y-42460839D01*
X123010295Y-42460839D02*
X122915057Y-42413220D01*
X122915057Y-42413220D02*
X122867438Y-42365601D01*
X122867438Y-42365601D02*
X122819819Y-42270363D01*
X122819819Y-42270363D02*
X122819819Y-42032268D01*
X122819819Y-42032268D02*
X122867438Y-41889411D01*
X123724580Y-40889411D02*
X123772200Y-40937030D01*
X123772200Y-40937030D02*
X123819819Y-41079887D01*
X123819819Y-41079887D02*
X123819819Y-41175125D01*
X123819819Y-41175125D02*
X123772200Y-41317982D01*
X123772200Y-41317982D02*
X123676961Y-41413220D01*
X123676961Y-41413220D02*
X123581723Y-41460839D01*
X123581723Y-41460839D02*
X123391247Y-41508458D01*
X123391247Y-41508458D02*
X123248390Y-41508458D01*
X123248390Y-41508458D02*
X123057914Y-41460839D01*
X123057914Y-41460839D02*
X122962676Y-41413220D01*
X122962676Y-41413220D02*
X122867438Y-41317982D01*
X122867438Y-41317982D02*
X122819819Y-41175125D01*
X122819819Y-41175125D02*
X122819819Y-41079887D01*
X122819819Y-41079887D02*
X122867438Y-40937030D01*
X122867438Y-40937030D02*
X122915057Y-40889411D01*
X123819819Y-39984649D02*
X123819819Y-40460839D01*
X123819819Y-40460839D02*
X122819819Y-40460839D01*
X117867438Y-42389411D02*
X117819819Y-42484649D01*
X117819819Y-42484649D02*
X117819819Y-42627506D01*
X117819819Y-42627506D02*
X117867438Y-42770363D01*
X117867438Y-42770363D02*
X117962676Y-42865601D01*
X117962676Y-42865601D02*
X118057914Y-42913220D01*
X118057914Y-42913220D02*
X118248390Y-42960839D01*
X118248390Y-42960839D02*
X118391247Y-42960839D01*
X118391247Y-42960839D02*
X118581723Y-42913220D01*
X118581723Y-42913220D02*
X118676961Y-42865601D01*
X118676961Y-42865601D02*
X118772200Y-42770363D01*
X118772200Y-42770363D02*
X118819819Y-42627506D01*
X118819819Y-42627506D02*
X118819819Y-42532268D01*
X118819819Y-42532268D02*
X118772200Y-42389411D01*
X118772200Y-42389411D02*
X118724580Y-42341792D01*
X118724580Y-42341792D02*
X118391247Y-42341792D01*
X118391247Y-42341792D02*
X118391247Y-42532268D01*
X118819819Y-41913220D02*
X117819819Y-41913220D01*
X117819819Y-41913220D02*
X118819819Y-41341792D01*
X118819819Y-41341792D02*
X117819819Y-41341792D01*
X118819819Y-40865601D02*
X117819819Y-40865601D01*
X117819819Y-40865601D02*
X117819819Y-40627506D01*
X117819819Y-40627506D02*
X117867438Y-40484649D01*
X117867438Y-40484649D02*
X117962676Y-40389411D01*
X117962676Y-40389411D02*
X118057914Y-40341792D01*
X118057914Y-40341792D02*
X118248390Y-40294173D01*
X118248390Y-40294173D02*
X118391247Y-40294173D01*
X118391247Y-40294173D02*
X118581723Y-40341792D01*
X118581723Y-40341792D02*
X118676961Y-40389411D01*
X118676961Y-40389411D02*
X118772200Y-40484649D01*
X118772200Y-40484649D02*
X118819819Y-40627506D01*
X118819819Y-40627506D02*
X118819819Y-40865601D01*
X120419819Y-41658458D02*
X120419819Y-41039411D01*
X120419819Y-41039411D02*
X120800771Y-41372744D01*
X120800771Y-41372744D02*
X120800771Y-41229887D01*
X120800771Y-41229887D02*
X120848390Y-41134649D01*
X120848390Y-41134649D02*
X120896009Y-41087030D01*
X120896009Y-41087030D02*
X120991247Y-41039411D01*
X120991247Y-41039411D02*
X121229342Y-41039411D01*
X121229342Y-41039411D02*
X121324580Y-41087030D01*
X121324580Y-41087030D02*
X121372200Y-41134649D01*
X121372200Y-41134649D02*
X121419819Y-41229887D01*
X121419819Y-41229887D02*
X121419819Y-41515601D01*
X121419819Y-41515601D02*
X121372200Y-41610839D01*
X121372200Y-41610839D02*
X121324580Y-41658458D01*
X120419819Y-40753696D02*
X121419819Y-40420363D01*
X121419819Y-40420363D02*
X120419819Y-40087030D01*
X142550000Y-35350000D02*
X156550000Y-35350000D01*
X156550000Y-42800000D01*
X142550000Y-42800000D01*
X142550000Y-35350000D01*
D11*
X143695238Y-37974512D02*
X143885714Y-38069750D01*
X143885714Y-38069750D02*
X144266666Y-38069750D01*
X144266666Y-38069750D02*
X144457143Y-37974512D01*
X144457143Y-37974512D02*
X144552381Y-37784035D01*
X144552381Y-37784035D02*
X144552381Y-37688797D01*
X144552381Y-37688797D02*
X144457143Y-37498321D01*
X144457143Y-37498321D02*
X144266666Y-37403083D01*
X144266666Y-37403083D02*
X143980952Y-37403083D01*
X143980952Y-37403083D02*
X143790476Y-37307845D01*
X143790476Y-37307845D02*
X143695238Y-37117369D01*
X143695238Y-37117369D02*
X143695238Y-37022131D01*
X143695238Y-37022131D02*
X143790476Y-36831654D01*
X143790476Y-36831654D02*
X143980952Y-36736416D01*
X143980952Y-36736416D02*
X144266666Y-36736416D01*
X144266666Y-36736416D02*
X144457143Y-36831654D01*
X145219048Y-36736416D02*
X145600000Y-38069750D01*
X145600000Y-38069750D02*
X145980953Y-37117369D01*
X145980953Y-37117369D02*
X146361905Y-38069750D01*
X146361905Y-38069750D02*
X146742857Y-36736416D01*
X148266667Y-37974512D02*
X148076191Y-38069750D01*
X148076191Y-38069750D02*
X147695238Y-38069750D01*
X147695238Y-38069750D02*
X147504762Y-37974512D01*
X147504762Y-37974512D02*
X147409524Y-37784035D01*
X147409524Y-37784035D02*
X147409524Y-37022131D01*
X147409524Y-37022131D02*
X147504762Y-36831654D01*
X147504762Y-36831654D02*
X147695238Y-36736416D01*
X147695238Y-36736416D02*
X148076191Y-36736416D01*
X148076191Y-36736416D02*
X148266667Y-36831654D01*
X148266667Y-36831654D02*
X148361905Y-37022131D01*
X148361905Y-37022131D02*
X148361905Y-37212607D01*
X148361905Y-37212607D02*
X147409524Y-37403083D01*
X149980953Y-37974512D02*
X149790477Y-38069750D01*
X149790477Y-38069750D02*
X149409524Y-38069750D01*
X149409524Y-38069750D02*
X149219048Y-37974512D01*
X149219048Y-37974512D02*
X149123810Y-37784035D01*
X149123810Y-37784035D02*
X149123810Y-37022131D01*
X149123810Y-37022131D02*
X149219048Y-36831654D01*
X149219048Y-36831654D02*
X149409524Y-36736416D01*
X149409524Y-36736416D02*
X149790477Y-36736416D01*
X149790477Y-36736416D02*
X149980953Y-36831654D01*
X149980953Y-36831654D02*
X150076191Y-37022131D01*
X150076191Y-37022131D02*
X150076191Y-37212607D01*
X150076191Y-37212607D02*
X149123810Y-37403083D01*
X150647620Y-36736416D02*
X151409524Y-36736416D01*
X150933334Y-36069750D02*
X150933334Y-37784035D01*
X150933334Y-37784035D02*
X151028572Y-37974512D01*
X151028572Y-37974512D02*
X151219048Y-38069750D01*
X151219048Y-38069750D02*
X151409524Y-38069750D01*
X152076191Y-37307845D02*
X153600001Y-37307845D01*
X154552381Y-36736416D02*
X154552381Y-38736416D01*
X154552381Y-36831654D02*
X154742857Y-36736416D01*
X154742857Y-36736416D02*
X155123810Y-36736416D01*
X155123810Y-36736416D02*
X155314286Y-36831654D01*
X155314286Y-36831654D02*
X155409524Y-36926892D01*
X155409524Y-36926892D02*
X155504762Y-37117369D01*
X155504762Y-37117369D02*
X155504762Y-37688797D01*
X155504762Y-37688797D02*
X155409524Y-37879273D01*
X155409524Y-37879273D02*
X155314286Y-37974512D01*
X155314286Y-37974512D02*
X155123810Y-38069750D01*
X155123810Y-38069750D02*
X154742857Y-38069750D01*
X154742857Y-38069750D02*
X154552381Y-37974512D01*
X144504761Y-39956304D02*
X144980951Y-41289638D01*
X144980951Y-41289638D02*
X145457142Y-39956304D01*
X146980952Y-41194400D02*
X146790476Y-41289638D01*
X146790476Y-41289638D02*
X146409523Y-41289638D01*
X146409523Y-41289638D02*
X146219047Y-41194400D01*
X146219047Y-41194400D02*
X146123809Y-41003923D01*
X146123809Y-41003923D02*
X146123809Y-40242019D01*
X146123809Y-40242019D02*
X146219047Y-40051542D01*
X146219047Y-40051542D02*
X146409523Y-39956304D01*
X146409523Y-39956304D02*
X146790476Y-39956304D01*
X146790476Y-39956304D02*
X146980952Y-40051542D01*
X146980952Y-40051542D02*
X147076190Y-40242019D01*
X147076190Y-40242019D02*
X147076190Y-40432495D01*
X147076190Y-40432495D02*
X146123809Y-40622971D01*
X147933333Y-41289638D02*
X147933333Y-39956304D01*
X147933333Y-40337257D02*
X148028571Y-40146780D01*
X148028571Y-40146780D02*
X148123809Y-40051542D01*
X148123809Y-40051542D02*
X148314285Y-39956304D01*
X148314285Y-39956304D02*
X148504762Y-39956304D01*
X151742857Y-41289638D02*
X150600000Y-41289638D01*
X151171428Y-41289638D02*
X151171428Y-39289638D01*
X151171428Y-39289638D02*
X150980952Y-39575352D01*
X150980952Y-39575352D02*
X150790476Y-39765828D01*
X150790476Y-39765828D02*
X150600000Y-39861066D01*
X152600000Y-41099161D02*
X152695238Y-41194400D01*
X152695238Y-41194400D02*
X152600000Y-41289638D01*
X152600000Y-41289638D02*
X152504762Y-41194400D01*
X152504762Y-41194400D02*
X152600000Y-41099161D01*
X152600000Y-41099161D02*
X152600000Y-41289638D01*
X153933333Y-39289638D02*
X154123810Y-39289638D01*
X154123810Y-39289638D02*
X154314286Y-39384876D01*
X154314286Y-39384876D02*
X154409524Y-39480114D01*
X154409524Y-39480114D02*
X154504762Y-39670590D01*
X154504762Y-39670590D02*
X154600000Y-40051542D01*
X154600000Y-40051542D02*
X154600000Y-40527733D01*
X154600000Y-40527733D02*
X154504762Y-40908685D01*
X154504762Y-40908685D02*
X154409524Y-41099161D01*
X154409524Y-41099161D02*
X154314286Y-41194400D01*
X154314286Y-41194400D02*
X154123810Y-41289638D01*
X154123810Y-41289638D02*
X153933333Y-41289638D01*
X153933333Y-41289638D02*
X153742857Y-41194400D01*
X153742857Y-41194400D02*
X153647619Y-41099161D01*
X153647619Y-41099161D02*
X153552381Y-40908685D01*
X153552381Y-40908685D02*
X153457143Y-40527733D01*
X153457143Y-40527733D02*
X153457143Y-40051542D01*
X153457143Y-40051542D02*
X153552381Y-39670590D01*
X153552381Y-39670590D02*
X153647619Y-39480114D01*
X153647619Y-39480114D02*
X153742857Y-39384876D01*
X153742857Y-39384876D02*
X153933333Y-39289638D01*
D10*
X76019819Y-102256077D02*
X77019819Y-101922744D01*
X77019819Y-101922744D02*
X76019819Y-101589411D01*
X77019819Y-101256077D02*
X76019819Y-101256077D01*
X77019819Y-100779887D02*
X76019819Y-100779887D01*
X76019819Y-100779887D02*
X77019819Y-100208459D01*
X77019819Y-100208459D02*
X76019819Y-100208459D01*
X80969819Y-101687030D02*
X80969819Y-102163220D01*
X80969819Y-102163220D02*
X81446009Y-102210839D01*
X81446009Y-102210839D02*
X81398390Y-102163220D01*
X81398390Y-102163220D02*
X81350771Y-102067982D01*
X81350771Y-102067982D02*
X81350771Y-101829887D01*
X81350771Y-101829887D02*
X81398390Y-101734649D01*
X81398390Y-101734649D02*
X81446009Y-101687030D01*
X81446009Y-101687030D02*
X81541247Y-101639411D01*
X81541247Y-101639411D02*
X81779342Y-101639411D01*
X81779342Y-101639411D02*
X81874580Y-101687030D01*
X81874580Y-101687030D02*
X81922200Y-101734649D01*
X81922200Y-101734649D02*
X81969819Y-101829887D01*
X81969819Y-101829887D02*
X81969819Y-102067982D01*
X81969819Y-102067982D02*
X81922200Y-102163220D01*
X81922200Y-102163220D02*
X81874580Y-102210839D01*
X80969819Y-101353696D02*
X81969819Y-101020363D01*
X81969819Y-101020363D02*
X80969819Y-100687030D01*
X82065057Y-100591792D02*
X82065057Y-99829887D01*
X81969819Y-99591791D02*
X80969819Y-99591791D01*
X80969819Y-99591791D02*
X80969819Y-99353696D01*
X80969819Y-99353696D02*
X81017438Y-99210839D01*
X81017438Y-99210839D02*
X81112676Y-99115601D01*
X81112676Y-99115601D02*
X81207914Y-99067982D01*
X81207914Y-99067982D02*
X81398390Y-99020363D01*
X81398390Y-99020363D02*
X81541247Y-99020363D01*
X81541247Y-99020363D02*
X81731723Y-99067982D01*
X81731723Y-99067982D02*
X81826961Y-99115601D01*
X81826961Y-99115601D02*
X81922200Y-99210839D01*
X81922200Y-99210839D02*
X81969819Y-99353696D01*
X81969819Y-99353696D02*
X81969819Y-99591791D01*
X81874580Y-98020363D02*
X81922200Y-98067982D01*
X81922200Y-98067982D02*
X81969819Y-98210839D01*
X81969819Y-98210839D02*
X81969819Y-98306077D01*
X81969819Y-98306077D02*
X81922200Y-98448934D01*
X81922200Y-98448934D02*
X81826961Y-98544172D01*
X81826961Y-98544172D02*
X81731723Y-98591791D01*
X81731723Y-98591791D02*
X81541247Y-98639410D01*
X81541247Y-98639410D02*
X81398390Y-98639410D01*
X81398390Y-98639410D02*
X81207914Y-98591791D01*
X81207914Y-98591791D02*
X81112676Y-98544172D01*
X81112676Y-98544172D02*
X81017438Y-98448934D01*
X81017438Y-98448934D02*
X80969819Y-98306077D01*
X80969819Y-98306077D02*
X80969819Y-98210839D01*
X80969819Y-98210839D02*
X81017438Y-98067982D01*
X81017438Y-98067982D02*
X81065057Y-98020363D01*
X78467438Y-101689411D02*
X78419819Y-101784649D01*
X78419819Y-101784649D02*
X78419819Y-101927506D01*
X78419819Y-101927506D02*
X78467438Y-102070363D01*
X78467438Y-102070363D02*
X78562676Y-102165601D01*
X78562676Y-102165601D02*
X78657914Y-102213220D01*
X78657914Y-102213220D02*
X78848390Y-102260839D01*
X78848390Y-102260839D02*
X78991247Y-102260839D01*
X78991247Y-102260839D02*
X79181723Y-102213220D01*
X79181723Y-102213220D02*
X79276961Y-102165601D01*
X79276961Y-102165601D02*
X79372200Y-102070363D01*
X79372200Y-102070363D02*
X79419819Y-101927506D01*
X79419819Y-101927506D02*
X79419819Y-101832268D01*
X79419819Y-101832268D02*
X79372200Y-101689411D01*
X79372200Y-101689411D02*
X79324580Y-101641792D01*
X79324580Y-101641792D02*
X78991247Y-101641792D01*
X78991247Y-101641792D02*
X78991247Y-101832268D01*
X79419819Y-101213220D02*
X78419819Y-101213220D01*
X78419819Y-101213220D02*
X79419819Y-100641792D01*
X79419819Y-100641792D02*
X78419819Y-100641792D01*
X79419819Y-100165601D02*
X78419819Y-100165601D01*
X78419819Y-100165601D02*
X78419819Y-99927506D01*
X78419819Y-99927506D02*
X78467438Y-99784649D01*
X78467438Y-99784649D02*
X78562676Y-99689411D01*
X78562676Y-99689411D02*
X78657914Y-99641792D01*
X78657914Y-99641792D02*
X78848390Y-99594173D01*
X78848390Y-99594173D02*
X78991247Y-99594173D01*
X78991247Y-99594173D02*
X79181723Y-99641792D01*
X79181723Y-99641792D02*
X79276961Y-99689411D01*
X79276961Y-99689411D02*
X79372200Y-99784649D01*
X79372200Y-99784649D02*
X79419819Y-99927506D01*
X79419819Y-99927506D02*
X79419819Y-100165601D01*
D11*
X101492857Y-119693055D02*
X101421429Y-119764484D01*
X101421429Y-119764484D02*
X101207143Y-119835912D01*
X101207143Y-119835912D02*
X101064286Y-119835912D01*
X101064286Y-119835912D02*
X100850000Y-119764484D01*
X100850000Y-119764484D02*
X100707143Y-119621626D01*
X100707143Y-119621626D02*
X100635714Y-119478769D01*
X100635714Y-119478769D02*
X100564286Y-119193055D01*
X100564286Y-119193055D02*
X100564286Y-118978769D01*
X100564286Y-118978769D02*
X100635714Y-118693055D01*
X100635714Y-118693055D02*
X100707143Y-118550198D01*
X100707143Y-118550198D02*
X100850000Y-118407341D01*
X100850000Y-118407341D02*
X101064286Y-118335912D01*
X101064286Y-118335912D02*
X101207143Y-118335912D01*
X101207143Y-118335912D02*
X101421429Y-118407341D01*
X101421429Y-118407341D02*
X101492857Y-118478769D01*
X102350000Y-119835912D02*
X102207143Y-119764484D01*
X102207143Y-119764484D02*
X102135714Y-119693055D01*
X102135714Y-119693055D02*
X102064286Y-119550198D01*
X102064286Y-119550198D02*
X102064286Y-119121626D01*
X102064286Y-119121626D02*
X102135714Y-118978769D01*
X102135714Y-118978769D02*
X102207143Y-118907341D01*
X102207143Y-118907341D02*
X102350000Y-118835912D01*
X102350000Y-118835912D02*
X102564286Y-118835912D01*
X102564286Y-118835912D02*
X102707143Y-118907341D01*
X102707143Y-118907341D02*
X102778572Y-118978769D01*
X102778572Y-118978769D02*
X102850000Y-119121626D01*
X102850000Y-119121626D02*
X102850000Y-119550198D01*
X102850000Y-119550198D02*
X102778572Y-119693055D01*
X102778572Y-119693055D02*
X102707143Y-119764484D01*
X102707143Y-119764484D02*
X102564286Y-119835912D01*
X102564286Y-119835912D02*
X102350000Y-119835912D01*
X103492857Y-118835912D02*
X103492857Y-119835912D01*
X103492857Y-118978769D02*
X103564286Y-118907341D01*
X103564286Y-118907341D02*
X103707143Y-118835912D01*
X103707143Y-118835912D02*
X103921429Y-118835912D01*
X103921429Y-118835912D02*
X104064286Y-118907341D01*
X104064286Y-118907341D02*
X104135715Y-119050198D01*
X104135715Y-119050198D02*
X104135715Y-119835912D01*
X104707143Y-118835912D02*
X105064286Y-119835912D01*
X105064286Y-119835912D02*
X105421429Y-118835912D01*
X106564286Y-119764484D02*
X106421429Y-119835912D01*
X106421429Y-119835912D02*
X106135715Y-119835912D01*
X106135715Y-119835912D02*
X105992857Y-119764484D01*
X105992857Y-119764484D02*
X105921429Y-119621626D01*
X105921429Y-119621626D02*
X105921429Y-119050198D01*
X105921429Y-119050198D02*
X105992857Y-118907341D01*
X105992857Y-118907341D02*
X106135715Y-118835912D01*
X106135715Y-118835912D02*
X106421429Y-118835912D01*
X106421429Y-118835912D02*
X106564286Y-118907341D01*
X106564286Y-118907341D02*
X106635715Y-119050198D01*
X106635715Y-119050198D02*
X106635715Y-119193055D01*
X106635715Y-119193055D02*
X105921429Y-119335912D01*
X107278571Y-119835912D02*
X107278571Y-118835912D01*
X107278571Y-119121626D02*
X107350000Y-118978769D01*
X107350000Y-118978769D02*
X107421429Y-118907341D01*
X107421429Y-118907341D02*
X107564286Y-118835912D01*
X107564286Y-118835912D02*
X107707143Y-118835912D01*
X107992857Y-118835912D02*
X108564285Y-118835912D01*
X108207142Y-118335912D02*
X108207142Y-119621626D01*
X108207142Y-119621626D02*
X108278571Y-119764484D01*
X108278571Y-119764484D02*
X108421428Y-119835912D01*
X108421428Y-119835912D02*
X108564285Y-119835912D01*
X109635714Y-119764484D02*
X109492857Y-119835912D01*
X109492857Y-119835912D02*
X109207143Y-119835912D01*
X109207143Y-119835912D02*
X109064285Y-119764484D01*
X109064285Y-119764484D02*
X108992857Y-119621626D01*
X108992857Y-119621626D02*
X108992857Y-119050198D01*
X108992857Y-119050198D02*
X109064285Y-118907341D01*
X109064285Y-118907341D02*
X109207143Y-118835912D01*
X109207143Y-118835912D02*
X109492857Y-118835912D01*
X109492857Y-118835912D02*
X109635714Y-118907341D01*
X109635714Y-118907341D02*
X109707143Y-119050198D01*
X109707143Y-119050198D02*
X109707143Y-119193055D01*
X109707143Y-119193055D02*
X108992857Y-119335912D01*
X110349999Y-119835912D02*
X110349999Y-118835912D01*
X110349999Y-119121626D02*
X110421428Y-118978769D01*
X110421428Y-118978769D02*
X110492857Y-118907341D01*
X110492857Y-118907341D02*
X110635714Y-118835912D01*
X110635714Y-118835912D02*
X110778571Y-118835912D01*
X103528571Y-122250828D02*
X103528571Y-120750828D01*
X103528571Y-120750828D02*
X104100000Y-120750828D01*
X104100000Y-120750828D02*
X104242857Y-120822257D01*
X104242857Y-120822257D02*
X104314286Y-120893685D01*
X104314286Y-120893685D02*
X104385714Y-121036542D01*
X104385714Y-121036542D02*
X104385714Y-121250828D01*
X104385714Y-121250828D02*
X104314286Y-121393685D01*
X104314286Y-121393685D02*
X104242857Y-121465114D01*
X104242857Y-121465114D02*
X104100000Y-121536542D01*
X104100000Y-121536542D02*
X103528571Y-121536542D01*
X105242857Y-122250828D02*
X105100000Y-122179400D01*
X105100000Y-122179400D02*
X105028571Y-122036542D01*
X105028571Y-122036542D02*
X105028571Y-120750828D01*
X106457143Y-121250828D02*
X106457143Y-122250828D01*
X105814285Y-121250828D02*
X105814285Y-122036542D01*
X105814285Y-122036542D02*
X105885714Y-122179400D01*
X105885714Y-122179400D02*
X106028571Y-122250828D01*
X106028571Y-122250828D02*
X106242857Y-122250828D01*
X106242857Y-122250828D02*
X106385714Y-122179400D01*
X106385714Y-122179400D02*
X106457143Y-122107971D01*
X107100000Y-122179400D02*
X107242857Y-122250828D01*
X107242857Y-122250828D02*
X107528571Y-122250828D01*
X107528571Y-122250828D02*
X107671428Y-122179400D01*
X107671428Y-122179400D02*
X107742857Y-122036542D01*
X107742857Y-122036542D02*
X107742857Y-121965114D01*
X107742857Y-121965114D02*
X107671428Y-121822257D01*
X107671428Y-121822257D02*
X107528571Y-121750828D01*
X107528571Y-121750828D02*
X107314286Y-121750828D01*
X107314286Y-121750828D02*
X107171428Y-121679400D01*
X107171428Y-121679400D02*
X107100000Y-121536542D01*
X107100000Y-121536542D02*
X107100000Y-121465114D01*
X107100000Y-121465114D02*
X107171428Y-121322257D01*
X107171428Y-121322257D02*
X107314286Y-121250828D01*
X107314286Y-121250828D02*
X107528571Y-121250828D01*
X107528571Y-121250828D02*
X107671428Y-121322257D01*
X114342857Y-119693055D02*
X114271429Y-119764484D01*
X114271429Y-119764484D02*
X114057143Y-119835912D01*
X114057143Y-119835912D02*
X113914286Y-119835912D01*
X113914286Y-119835912D02*
X113700000Y-119764484D01*
X113700000Y-119764484D02*
X113557143Y-119621626D01*
X113557143Y-119621626D02*
X113485714Y-119478769D01*
X113485714Y-119478769D02*
X113414286Y-119193055D01*
X113414286Y-119193055D02*
X113414286Y-118978769D01*
X113414286Y-118978769D02*
X113485714Y-118693055D01*
X113485714Y-118693055D02*
X113557143Y-118550198D01*
X113557143Y-118550198D02*
X113700000Y-118407341D01*
X113700000Y-118407341D02*
X113914286Y-118335912D01*
X113914286Y-118335912D02*
X114057143Y-118335912D01*
X114057143Y-118335912D02*
X114271429Y-118407341D01*
X114271429Y-118407341D02*
X114342857Y-118478769D01*
X115200000Y-119835912D02*
X115057143Y-119764484D01*
X115057143Y-119764484D02*
X114985714Y-119693055D01*
X114985714Y-119693055D02*
X114914286Y-119550198D01*
X114914286Y-119550198D02*
X114914286Y-119121626D01*
X114914286Y-119121626D02*
X114985714Y-118978769D01*
X114985714Y-118978769D02*
X115057143Y-118907341D01*
X115057143Y-118907341D02*
X115200000Y-118835912D01*
X115200000Y-118835912D02*
X115414286Y-118835912D01*
X115414286Y-118835912D02*
X115557143Y-118907341D01*
X115557143Y-118907341D02*
X115628572Y-118978769D01*
X115628572Y-118978769D02*
X115700000Y-119121626D01*
X115700000Y-119121626D02*
X115700000Y-119550198D01*
X115700000Y-119550198D02*
X115628572Y-119693055D01*
X115628572Y-119693055D02*
X115557143Y-119764484D01*
X115557143Y-119764484D02*
X115414286Y-119835912D01*
X115414286Y-119835912D02*
X115200000Y-119835912D01*
X116342857Y-118835912D02*
X116342857Y-119835912D01*
X116342857Y-118978769D02*
X116414286Y-118907341D01*
X116414286Y-118907341D02*
X116557143Y-118835912D01*
X116557143Y-118835912D02*
X116771429Y-118835912D01*
X116771429Y-118835912D02*
X116914286Y-118907341D01*
X116914286Y-118907341D02*
X116985715Y-119050198D01*
X116985715Y-119050198D02*
X116985715Y-119835912D01*
X117557143Y-118835912D02*
X117914286Y-119835912D01*
X117914286Y-119835912D02*
X118271429Y-118835912D01*
X119414286Y-119764484D02*
X119271429Y-119835912D01*
X119271429Y-119835912D02*
X118985715Y-119835912D01*
X118985715Y-119835912D02*
X118842857Y-119764484D01*
X118842857Y-119764484D02*
X118771429Y-119621626D01*
X118771429Y-119621626D02*
X118771429Y-119050198D01*
X118771429Y-119050198D02*
X118842857Y-118907341D01*
X118842857Y-118907341D02*
X118985715Y-118835912D01*
X118985715Y-118835912D02*
X119271429Y-118835912D01*
X119271429Y-118835912D02*
X119414286Y-118907341D01*
X119414286Y-118907341D02*
X119485715Y-119050198D01*
X119485715Y-119050198D02*
X119485715Y-119193055D01*
X119485715Y-119193055D02*
X118771429Y-119335912D01*
X120128571Y-119835912D02*
X120128571Y-118835912D01*
X120128571Y-119121626D02*
X120200000Y-118978769D01*
X120200000Y-118978769D02*
X120271429Y-118907341D01*
X120271429Y-118907341D02*
X120414286Y-118835912D01*
X120414286Y-118835912D02*
X120557143Y-118835912D01*
X120842857Y-118835912D02*
X121414285Y-118835912D01*
X121057142Y-118335912D02*
X121057142Y-119621626D01*
X121057142Y-119621626D02*
X121128571Y-119764484D01*
X121128571Y-119764484D02*
X121271428Y-119835912D01*
X121271428Y-119835912D02*
X121414285Y-119835912D01*
X122485714Y-119764484D02*
X122342857Y-119835912D01*
X122342857Y-119835912D02*
X122057143Y-119835912D01*
X122057143Y-119835912D02*
X121914285Y-119764484D01*
X121914285Y-119764484D02*
X121842857Y-119621626D01*
X121842857Y-119621626D02*
X121842857Y-119050198D01*
X121842857Y-119050198D02*
X121914285Y-118907341D01*
X121914285Y-118907341D02*
X122057143Y-118835912D01*
X122057143Y-118835912D02*
X122342857Y-118835912D01*
X122342857Y-118835912D02*
X122485714Y-118907341D01*
X122485714Y-118907341D02*
X122557143Y-119050198D01*
X122557143Y-119050198D02*
X122557143Y-119193055D01*
X122557143Y-119193055D02*
X121842857Y-119335912D01*
X123199999Y-119835912D02*
X123199999Y-118835912D01*
X123199999Y-119121626D02*
X123271428Y-118978769D01*
X123271428Y-118978769D02*
X123342857Y-118907341D01*
X123342857Y-118907341D02*
X123485714Y-118835912D01*
X123485714Y-118835912D02*
X123628571Y-118835912D01*
X115628570Y-122250828D02*
X115628570Y-120750828D01*
X115628570Y-120750828D02*
X116128570Y-121822257D01*
X116128570Y-121822257D02*
X116628570Y-120750828D01*
X116628570Y-120750828D02*
X116628570Y-122250828D01*
X117342856Y-122250828D02*
X117342856Y-121250828D01*
X117342856Y-120750828D02*
X117271428Y-120822257D01*
X117271428Y-120822257D02*
X117342856Y-120893685D01*
X117342856Y-120893685D02*
X117414285Y-120822257D01*
X117414285Y-120822257D02*
X117342856Y-120750828D01*
X117342856Y-120750828D02*
X117342856Y-120893685D01*
X118057142Y-121250828D02*
X118057142Y-122250828D01*
X118057142Y-121393685D02*
X118128571Y-121322257D01*
X118128571Y-121322257D02*
X118271428Y-121250828D01*
X118271428Y-121250828D02*
X118485714Y-121250828D01*
X118485714Y-121250828D02*
X118628571Y-121322257D01*
X118628571Y-121322257D02*
X118700000Y-121465114D01*
X118700000Y-121465114D02*
X118700000Y-122250828D01*
X120057143Y-121250828D02*
X120057143Y-122250828D01*
X119414285Y-121250828D02*
X119414285Y-122036542D01*
X119414285Y-122036542D02*
X119485714Y-122179400D01*
X119485714Y-122179400D02*
X119628571Y-122250828D01*
X119628571Y-122250828D02*
X119842857Y-122250828D01*
X119842857Y-122250828D02*
X119985714Y-122179400D01*
X119985714Y-122179400D02*
X120057143Y-122107971D01*
X120700000Y-122179400D02*
X120842857Y-122250828D01*
X120842857Y-122250828D02*
X121128571Y-122250828D01*
X121128571Y-122250828D02*
X121271428Y-122179400D01*
X121271428Y-122179400D02*
X121342857Y-122036542D01*
X121342857Y-122036542D02*
X121342857Y-121965114D01*
X121342857Y-121965114D02*
X121271428Y-121822257D01*
X121271428Y-121822257D02*
X121128571Y-121750828D01*
X121128571Y-121750828D02*
X120914286Y-121750828D01*
X120914286Y-121750828D02*
X120771428Y-121679400D01*
X120771428Y-121679400D02*
X120700000Y-121536542D01*
X120700000Y-121536542D02*
X120700000Y-121465114D01*
X120700000Y-121465114D02*
X120771428Y-121322257D01*
X120771428Y-121322257D02*
X120914286Y-121250828D01*
X120914286Y-121250828D02*
X121128571Y-121250828D01*
X121128571Y-121250828D02*
X121271428Y-121322257D01*
D12*
X99600000Y-86650000D02*
X124600000Y-86650000D01*
X124600000Y-116650000D01*
X99600000Y-116650000D01*
X99600000Y-86650000D01*
D10*
X111949819Y-73258458D02*
X111949819Y-72639411D01*
X111949819Y-72639411D02*
X112330771Y-72972744D01*
X112330771Y-72972744D02*
X112330771Y-72829887D01*
X112330771Y-72829887D02*
X112378390Y-72734649D01*
X112378390Y-72734649D02*
X112426009Y-72687030D01*
X112426009Y-72687030D02*
X112521247Y-72639411D01*
X112521247Y-72639411D02*
X112759342Y-72639411D01*
X112759342Y-72639411D02*
X112854580Y-72687030D01*
X112854580Y-72687030D02*
X112902200Y-72734649D01*
X112902200Y-72734649D02*
X112949819Y-72829887D01*
X112949819Y-72829887D02*
X112949819Y-73115601D01*
X112949819Y-73115601D02*
X112902200Y-73210839D01*
X112902200Y-73210839D02*
X112854580Y-73258458D01*
X111949819Y-72353696D02*
X112949819Y-72020363D01*
X112949819Y-72020363D02*
X111949819Y-71687030D01*
X149172200Y-102460839D02*
X149219819Y-102317982D01*
X149219819Y-102317982D02*
X149219819Y-102079887D01*
X149219819Y-102079887D02*
X149172200Y-101984649D01*
X149172200Y-101984649D02*
X149124580Y-101937030D01*
X149124580Y-101937030D02*
X149029342Y-101889411D01*
X149029342Y-101889411D02*
X148934104Y-101889411D01*
X148934104Y-101889411D02*
X148838866Y-101937030D01*
X148838866Y-101937030D02*
X148791247Y-101984649D01*
X148791247Y-101984649D02*
X148743628Y-102079887D01*
X148743628Y-102079887D02*
X148696009Y-102270363D01*
X148696009Y-102270363D02*
X148648390Y-102365601D01*
X148648390Y-102365601D02*
X148600771Y-102413220D01*
X148600771Y-102413220D02*
X148505533Y-102460839D01*
X148505533Y-102460839D02*
X148410295Y-102460839D01*
X148410295Y-102460839D02*
X148315057Y-102413220D01*
X148315057Y-102413220D02*
X148267438Y-102365601D01*
X148267438Y-102365601D02*
X148219819Y-102270363D01*
X148219819Y-102270363D02*
X148219819Y-102032268D01*
X148219819Y-102032268D02*
X148267438Y-101889411D01*
X149124580Y-100889411D02*
X149172200Y-100937030D01*
X149172200Y-100937030D02*
X149219819Y-101079887D01*
X149219819Y-101079887D02*
X149219819Y-101175125D01*
X149219819Y-101175125D02*
X149172200Y-101317982D01*
X149172200Y-101317982D02*
X149076961Y-101413220D01*
X149076961Y-101413220D02*
X148981723Y-101460839D01*
X148981723Y-101460839D02*
X148791247Y-101508458D01*
X148791247Y-101508458D02*
X148648390Y-101508458D01*
X148648390Y-101508458D02*
X148457914Y-101460839D01*
X148457914Y-101460839D02*
X148362676Y-101413220D01*
X148362676Y-101413220D02*
X148267438Y-101317982D01*
X148267438Y-101317982D02*
X148219819Y-101175125D01*
X148219819Y-101175125D02*
X148219819Y-101079887D01*
X148219819Y-101079887D02*
X148267438Y-100937030D01*
X148267438Y-100937030D02*
X148315057Y-100889411D01*
X149219819Y-99984649D02*
X149219819Y-100460839D01*
X149219819Y-100460839D02*
X148219819Y-100460839D01*
X90319819Y-39558458D02*
X90319819Y-38939411D01*
X90319819Y-38939411D02*
X90700771Y-39272744D01*
X90700771Y-39272744D02*
X90700771Y-39129887D01*
X90700771Y-39129887D02*
X90748390Y-39034649D01*
X90748390Y-39034649D02*
X90796009Y-38987030D01*
X90796009Y-38987030D02*
X90891247Y-38939411D01*
X90891247Y-38939411D02*
X91129342Y-38939411D01*
X91129342Y-38939411D02*
X91224580Y-38987030D01*
X91224580Y-38987030D02*
X91272200Y-39034649D01*
X91272200Y-39034649D02*
X91319819Y-39129887D01*
X91319819Y-39129887D02*
X91319819Y-39415601D01*
X91319819Y-39415601D02*
X91272200Y-39510839D01*
X91272200Y-39510839D02*
X91224580Y-39558458D01*
X90319819Y-38653696D02*
X91319819Y-38320363D01*
X91319819Y-38320363D02*
X90319819Y-37987030D01*
X74664284Y-106758557D02*
X74664284Y-107658557D01*
X74664284Y-106801414D02*
X74749999Y-106758557D01*
X74749999Y-106758557D02*
X74921427Y-106758557D01*
X74921427Y-106758557D02*
X75007141Y-106801414D01*
X75007141Y-106801414D02*
X75049999Y-106844271D01*
X75049999Y-106844271D02*
X75092856Y-106929985D01*
X75092856Y-106929985D02*
X75092856Y-107187128D01*
X75092856Y-107187128D02*
X75049999Y-107272842D01*
X75049999Y-107272842D02*
X75007141Y-107315700D01*
X75007141Y-107315700D02*
X74921427Y-107358557D01*
X74921427Y-107358557D02*
X74749999Y-107358557D01*
X74749999Y-107358557D02*
X74664284Y-107315700D01*
X75392856Y-106458557D02*
X75992856Y-106458557D01*
X75992856Y-106458557D02*
X75607142Y-107358557D01*
X76464285Y-106844271D02*
X76378570Y-106801414D01*
X76378570Y-106801414D02*
X76335713Y-106758557D01*
X76335713Y-106758557D02*
X76292856Y-106672842D01*
X76292856Y-106672842D02*
X76292856Y-106629985D01*
X76292856Y-106629985D02*
X76335713Y-106544271D01*
X76335713Y-106544271D02*
X76378570Y-106501414D01*
X76378570Y-106501414D02*
X76464285Y-106458557D01*
X76464285Y-106458557D02*
X76635713Y-106458557D01*
X76635713Y-106458557D02*
X76721428Y-106501414D01*
X76721428Y-106501414D02*
X76764285Y-106544271D01*
X76764285Y-106544271D02*
X76807142Y-106629985D01*
X76807142Y-106629985D02*
X76807142Y-106672842D01*
X76807142Y-106672842D02*
X76764285Y-106758557D01*
X76764285Y-106758557D02*
X76721428Y-106801414D01*
X76721428Y-106801414D02*
X76635713Y-106844271D01*
X76635713Y-106844271D02*
X76464285Y-106844271D01*
X76464285Y-106844271D02*
X76378570Y-106887128D01*
X76378570Y-106887128D02*
X76335713Y-106929985D01*
X76335713Y-106929985D02*
X76292856Y-107015700D01*
X76292856Y-107015700D02*
X76292856Y-107187128D01*
X76292856Y-107187128D02*
X76335713Y-107272842D01*
X76335713Y-107272842D02*
X76378570Y-107315700D01*
X76378570Y-107315700D02*
X76464285Y-107358557D01*
X76464285Y-107358557D02*
X76635713Y-107358557D01*
X76635713Y-107358557D02*
X76721428Y-107315700D01*
X76721428Y-107315700D02*
X76764285Y-107272842D01*
X76764285Y-107272842D02*
X76807142Y-107187128D01*
X76807142Y-107187128D02*
X76807142Y-107015700D01*
X76807142Y-107015700D02*
X76764285Y-106929985D01*
X76764285Y-106929985D02*
X76721428Y-106887128D01*
X76721428Y-106887128D02*
X76635713Y-106844271D01*
X77578571Y-107358557D02*
X77578571Y-106887128D01*
X77578571Y-106887128D02*
X77535713Y-106801414D01*
X77535713Y-106801414D02*
X77449999Y-106758557D01*
X77449999Y-106758557D02*
X77278571Y-106758557D01*
X77278571Y-106758557D02*
X77192856Y-106801414D01*
X77578571Y-107315700D02*
X77492856Y-107358557D01*
X77492856Y-107358557D02*
X77278571Y-107358557D01*
X77278571Y-107358557D02*
X77192856Y-107315700D01*
X77192856Y-107315700D02*
X77149999Y-107229985D01*
X77149999Y-107229985D02*
X77149999Y-107144271D01*
X77149999Y-107144271D02*
X77192856Y-107058557D01*
X77192856Y-107058557D02*
X77278571Y-107015700D01*
X77278571Y-107015700D02*
X77492856Y-107015700D01*
X77492856Y-107015700D02*
X77578571Y-106972842D01*
X78178571Y-106458557D02*
X78264285Y-106458557D01*
X78264285Y-106458557D02*
X78349999Y-106501414D01*
X78349999Y-106501414D02*
X78392857Y-106544271D01*
X78392857Y-106544271D02*
X78435714Y-106629985D01*
X78435714Y-106629985D02*
X78478571Y-106801414D01*
X78478571Y-106801414D02*
X78478571Y-107015700D01*
X78478571Y-107015700D02*
X78435714Y-107187128D01*
X78435714Y-107187128D02*
X78392857Y-107272842D01*
X78392857Y-107272842D02*
X78349999Y-107315700D01*
X78349999Y-107315700D02*
X78264285Y-107358557D01*
X78264285Y-107358557D02*
X78178571Y-107358557D01*
X78178571Y-107358557D02*
X78092857Y-107315700D01*
X78092857Y-107315700D02*
X78049999Y-107272842D01*
X78049999Y-107272842D02*
X78007142Y-107187128D01*
X78007142Y-107187128D02*
X77964285Y-107015700D01*
X77964285Y-107015700D02*
X77964285Y-106801414D01*
X77964285Y-106801414D02*
X78007142Y-106629985D01*
X78007142Y-106629985D02*
X78049999Y-106544271D01*
X78049999Y-106544271D02*
X78092857Y-106501414D01*
X78092857Y-106501414D02*
X78178571Y-106458557D01*
X79292857Y-106458557D02*
X78864285Y-106458557D01*
X78864285Y-106458557D02*
X78821428Y-106887128D01*
X78821428Y-106887128D02*
X78864285Y-106844271D01*
X78864285Y-106844271D02*
X78950000Y-106801414D01*
X78950000Y-106801414D02*
X79164285Y-106801414D01*
X79164285Y-106801414D02*
X79250000Y-106844271D01*
X79250000Y-106844271D02*
X79292857Y-106887128D01*
X79292857Y-106887128D02*
X79335714Y-106972842D01*
X79335714Y-106972842D02*
X79335714Y-107187128D01*
X79335714Y-107187128D02*
X79292857Y-107272842D01*
X79292857Y-107272842D02*
X79250000Y-107315700D01*
X79250000Y-107315700D02*
X79164285Y-107358557D01*
X79164285Y-107358557D02*
X78950000Y-107358557D01*
X78950000Y-107358557D02*
X78864285Y-107315700D01*
X78864285Y-107315700D02*
X78821428Y-107272842D01*
X79721428Y-107015700D02*
X80407143Y-107015700D01*
X81307143Y-107358557D02*
X80792857Y-107358557D01*
X81050000Y-107358557D02*
X81050000Y-106458557D01*
X81050000Y-106458557D02*
X80964286Y-106587128D01*
X80964286Y-106587128D02*
X80878571Y-106672842D01*
X80878571Y-106672842D02*
X80792857Y-106715700D01*
X81864286Y-106458557D02*
X81950000Y-106458557D01*
X81950000Y-106458557D02*
X82035714Y-106501414D01*
X82035714Y-106501414D02*
X82078572Y-106544271D01*
X82078572Y-106544271D02*
X82121429Y-106629985D01*
X82121429Y-106629985D02*
X82164286Y-106801414D01*
X82164286Y-106801414D02*
X82164286Y-107015700D01*
X82164286Y-107015700D02*
X82121429Y-107187128D01*
X82121429Y-107187128D02*
X82078572Y-107272842D01*
X82078572Y-107272842D02*
X82035714Y-107315700D01*
X82035714Y-107315700D02*
X81950000Y-107358557D01*
X81950000Y-107358557D02*
X81864286Y-107358557D01*
X81864286Y-107358557D02*
X81778572Y-107315700D01*
X81778572Y-107315700D02*
X81735714Y-107272842D01*
X81735714Y-107272842D02*
X81692857Y-107187128D01*
X81692857Y-107187128D02*
X81650000Y-107015700D01*
X81650000Y-107015700D02*
X81650000Y-106801414D01*
X81650000Y-106801414D02*
X81692857Y-106629985D01*
X81692857Y-106629985D02*
X81735714Y-106544271D01*
X81735714Y-106544271D02*
X81778572Y-106501414D01*
X81778572Y-106501414D02*
X81864286Y-106458557D01*
X82721429Y-106458557D02*
X82807143Y-106458557D01*
X82807143Y-106458557D02*
X82892857Y-106501414D01*
X82892857Y-106501414D02*
X82935715Y-106544271D01*
X82935715Y-106544271D02*
X82978572Y-106629985D01*
X82978572Y-106629985D02*
X83021429Y-106801414D01*
X83021429Y-106801414D02*
X83021429Y-107015700D01*
X83021429Y-107015700D02*
X82978572Y-107187128D01*
X82978572Y-107187128D02*
X82935715Y-107272842D01*
X82935715Y-107272842D02*
X82892857Y-107315700D01*
X82892857Y-107315700D02*
X82807143Y-107358557D01*
X82807143Y-107358557D02*
X82721429Y-107358557D01*
X82721429Y-107358557D02*
X82635715Y-107315700D01*
X82635715Y-107315700D02*
X82592857Y-107272842D01*
X82592857Y-107272842D02*
X82550000Y-107187128D01*
X82550000Y-107187128D02*
X82507143Y-107015700D01*
X82507143Y-107015700D02*
X82507143Y-106801414D01*
X82507143Y-106801414D02*
X82550000Y-106629985D01*
X82550000Y-106629985D02*
X82592857Y-106544271D01*
X82592857Y-106544271D02*
X82635715Y-106501414D01*
X82635715Y-106501414D02*
X82721429Y-106458557D01*
X83578572Y-106458557D02*
X83664286Y-106458557D01*
X83664286Y-106458557D02*
X83750000Y-106501414D01*
X83750000Y-106501414D02*
X83792858Y-106544271D01*
X83792858Y-106544271D02*
X83835715Y-106629985D01*
X83835715Y-106629985D02*
X83878572Y-106801414D01*
X83878572Y-106801414D02*
X83878572Y-107015700D01*
X83878572Y-107015700D02*
X83835715Y-107187128D01*
X83835715Y-107187128D02*
X83792858Y-107272842D01*
X83792858Y-107272842D02*
X83750000Y-107315700D01*
X83750000Y-107315700D02*
X83664286Y-107358557D01*
X83664286Y-107358557D02*
X83578572Y-107358557D01*
X83578572Y-107358557D02*
X83492858Y-107315700D01*
X83492858Y-107315700D02*
X83450000Y-107272842D01*
X83450000Y-107272842D02*
X83407143Y-107187128D01*
X83407143Y-107187128D02*
X83364286Y-107015700D01*
X83364286Y-107015700D02*
X83364286Y-106801414D01*
X83364286Y-106801414D02*
X83407143Y-106629985D01*
X83407143Y-106629985D02*
X83450000Y-106544271D01*
X83450000Y-106544271D02*
X83492858Y-106501414D01*
X83492858Y-106501414D02*
X83578572Y-106458557D01*
X82719819Y-39606077D02*
X82719819Y-39034649D01*
X83719819Y-39320363D02*
X82719819Y-39320363D01*
X82719819Y-38796553D02*
X83719819Y-38129887D01*
X82719819Y-38129887D02*
X83719819Y-38796553D01*
X156067438Y-102089411D02*
X156019819Y-102184649D01*
X156019819Y-102184649D02*
X156019819Y-102327506D01*
X156019819Y-102327506D02*
X156067438Y-102470363D01*
X156067438Y-102470363D02*
X156162676Y-102565601D01*
X156162676Y-102565601D02*
X156257914Y-102613220D01*
X156257914Y-102613220D02*
X156448390Y-102660839D01*
X156448390Y-102660839D02*
X156591247Y-102660839D01*
X156591247Y-102660839D02*
X156781723Y-102613220D01*
X156781723Y-102613220D02*
X156876961Y-102565601D01*
X156876961Y-102565601D02*
X156972200Y-102470363D01*
X156972200Y-102470363D02*
X157019819Y-102327506D01*
X157019819Y-102327506D02*
X157019819Y-102232268D01*
X157019819Y-102232268D02*
X156972200Y-102089411D01*
X156972200Y-102089411D02*
X156924580Y-102041792D01*
X156924580Y-102041792D02*
X156591247Y-102041792D01*
X156591247Y-102041792D02*
X156591247Y-102232268D01*
X157019819Y-101613220D02*
X156019819Y-101613220D01*
X156019819Y-101613220D02*
X157019819Y-101041792D01*
X157019819Y-101041792D02*
X156019819Y-101041792D01*
X157019819Y-100565601D02*
X156019819Y-100565601D01*
X156019819Y-100565601D02*
X156019819Y-100327506D01*
X156019819Y-100327506D02*
X156067438Y-100184649D01*
X156067438Y-100184649D02*
X156162676Y-100089411D01*
X156162676Y-100089411D02*
X156257914Y-100041792D01*
X156257914Y-100041792D02*
X156448390Y-99994173D01*
X156448390Y-99994173D02*
X156591247Y-99994173D01*
X156591247Y-99994173D02*
X156781723Y-100041792D01*
X156781723Y-100041792D02*
X156876961Y-100089411D01*
X156876961Y-100089411D02*
X156972200Y-100184649D01*
X156972200Y-100184649D02*
X157019819Y-100327506D01*
X157019819Y-100327506D02*
X157019819Y-100565601D01*
X132843922Y-91769819D02*
X133177255Y-92769819D01*
X133177255Y-92769819D02*
X133510588Y-91769819D01*
X133843922Y-92246009D02*
X134177255Y-92246009D01*
X134320112Y-92769819D02*
X133843922Y-92769819D01*
X133843922Y-92769819D02*
X133843922Y-91769819D01*
X133843922Y-91769819D02*
X134320112Y-91769819D01*
X134653446Y-91769819D02*
X135320112Y-92769819D01*
X135320112Y-91769819D02*
X134653446Y-92769819D01*
X135558208Y-91769819D02*
X136129636Y-91769819D01*
X135843922Y-92769819D02*
X135843922Y-91769819D01*
D11*
X148157143Y-76935912D02*
X148157143Y-75435912D01*
X148157143Y-75435912D02*
X148514286Y-75435912D01*
X148514286Y-75435912D02*
X148728572Y-75507341D01*
X148728572Y-75507341D02*
X148871429Y-75650198D01*
X148871429Y-75650198D02*
X148942858Y-75793055D01*
X148942858Y-75793055D02*
X149014286Y-76078769D01*
X149014286Y-76078769D02*
X149014286Y-76293055D01*
X149014286Y-76293055D02*
X148942858Y-76578769D01*
X148942858Y-76578769D02*
X148871429Y-76721626D01*
X148871429Y-76721626D02*
X148728572Y-76864484D01*
X148728572Y-76864484D02*
X148514286Y-76935912D01*
X148514286Y-76935912D02*
X148157143Y-76935912D01*
X149585715Y-76864484D02*
X149800001Y-76935912D01*
X149800001Y-76935912D02*
X150157143Y-76935912D01*
X150157143Y-76935912D02*
X150300001Y-76864484D01*
X150300001Y-76864484D02*
X150371429Y-76793055D01*
X150371429Y-76793055D02*
X150442858Y-76650198D01*
X150442858Y-76650198D02*
X150442858Y-76507341D01*
X150442858Y-76507341D02*
X150371429Y-76364484D01*
X150371429Y-76364484D02*
X150300001Y-76293055D01*
X150300001Y-76293055D02*
X150157143Y-76221626D01*
X150157143Y-76221626D02*
X149871429Y-76150198D01*
X149871429Y-76150198D02*
X149728572Y-76078769D01*
X149728572Y-76078769D02*
X149657143Y-76007341D01*
X149657143Y-76007341D02*
X149585715Y-75864484D01*
X149585715Y-75864484D02*
X149585715Y-75721626D01*
X149585715Y-75721626D02*
X149657143Y-75578769D01*
X149657143Y-75578769D02*
X149728572Y-75507341D01*
X149728572Y-75507341D02*
X149871429Y-75435912D01*
X149871429Y-75435912D02*
X150228572Y-75435912D01*
X150228572Y-75435912D02*
X150442858Y-75507341D01*
X150942857Y-75435912D02*
X151871429Y-75435912D01*
X151871429Y-75435912D02*
X151371429Y-76007341D01*
X151371429Y-76007341D02*
X151585714Y-76007341D01*
X151585714Y-76007341D02*
X151728572Y-76078769D01*
X151728572Y-76078769D02*
X151800000Y-76150198D01*
X151800000Y-76150198D02*
X151871429Y-76293055D01*
X151871429Y-76293055D02*
X151871429Y-76650198D01*
X151871429Y-76650198D02*
X151800000Y-76793055D01*
X151800000Y-76793055D02*
X151728572Y-76864484D01*
X151728572Y-76864484D02*
X151585714Y-76935912D01*
X151585714Y-76935912D02*
X151157143Y-76935912D01*
X151157143Y-76935912D02*
X151014286Y-76864484D01*
X151014286Y-76864484D02*
X150942857Y-76793055D01*
X152442857Y-75578769D02*
X152514285Y-75507341D01*
X152514285Y-75507341D02*
X152657143Y-75435912D01*
X152657143Y-75435912D02*
X153014285Y-75435912D01*
X153014285Y-75435912D02*
X153157143Y-75507341D01*
X153157143Y-75507341D02*
X153228571Y-75578769D01*
X153228571Y-75578769D02*
X153300000Y-75721626D01*
X153300000Y-75721626D02*
X153300000Y-75864484D01*
X153300000Y-75864484D02*
X153228571Y-76078769D01*
X153228571Y-76078769D02*
X152371428Y-76935912D01*
X152371428Y-76935912D02*
X153300000Y-76935912D01*
X153799999Y-75435912D02*
X154728571Y-75435912D01*
X154728571Y-75435912D02*
X154228571Y-76007341D01*
X154228571Y-76007341D02*
X154442856Y-76007341D01*
X154442856Y-76007341D02*
X154585714Y-76078769D01*
X154585714Y-76078769D02*
X154657142Y-76150198D01*
X154657142Y-76150198D02*
X154728571Y-76293055D01*
X154728571Y-76293055D02*
X154728571Y-76650198D01*
X154728571Y-76650198D02*
X154657142Y-76793055D01*
X154657142Y-76793055D02*
X154585714Y-76864484D01*
X154585714Y-76864484D02*
X154442856Y-76935912D01*
X154442856Y-76935912D02*
X154014285Y-76935912D01*
X154014285Y-76935912D02*
X153871428Y-76864484D01*
X153871428Y-76864484D02*
X153799999Y-76793055D01*
X156157142Y-76935912D02*
X155299999Y-76935912D01*
X155728570Y-76935912D02*
X155728570Y-75435912D01*
X155728570Y-75435912D02*
X155585713Y-75650198D01*
X155585713Y-75650198D02*
X155442856Y-75793055D01*
X155442856Y-75793055D02*
X155299999Y-75864484D01*
X158014284Y-76935912D02*
X157942856Y-76935912D01*
X157942856Y-76935912D02*
X157799998Y-76864484D01*
X157799998Y-76864484D02*
X157585713Y-76650198D01*
X157585713Y-76650198D02*
X157228570Y-76221626D01*
X157228570Y-76221626D02*
X157085713Y-76007341D01*
X157085713Y-76007341D02*
X157014284Y-75793055D01*
X157014284Y-75793055D02*
X157014284Y-75650198D01*
X157014284Y-75650198D02*
X157085713Y-75507341D01*
X157085713Y-75507341D02*
X157228570Y-75435912D01*
X157228570Y-75435912D02*
X157299998Y-75435912D01*
X157299998Y-75435912D02*
X157442856Y-75507341D01*
X157442856Y-75507341D02*
X157514284Y-75650198D01*
X157514284Y-75650198D02*
X157514284Y-75721626D01*
X157514284Y-75721626D02*
X157442856Y-75864484D01*
X157442856Y-75864484D02*
X157371427Y-75935912D01*
X157371427Y-75935912D02*
X156942856Y-76221626D01*
X156942856Y-76221626D02*
X156871427Y-76293055D01*
X156871427Y-76293055D02*
X156799998Y-76435912D01*
X156799998Y-76435912D02*
X156799998Y-76650198D01*
X156799998Y-76650198D02*
X156871427Y-76793055D01*
X156871427Y-76793055D02*
X156942856Y-76864484D01*
X156942856Y-76864484D02*
X157085713Y-76935912D01*
X157085713Y-76935912D02*
X157299998Y-76935912D01*
X157299998Y-76935912D02*
X157442856Y-76864484D01*
X157442856Y-76864484D02*
X157514284Y-76793055D01*
X157514284Y-76793055D02*
X157728570Y-76507341D01*
X157728570Y-76507341D02*
X157799998Y-76293055D01*
X157799998Y-76293055D02*
X157799998Y-76150198D01*
X148907142Y-78565114D02*
X149407142Y-78565114D01*
X149621428Y-79350828D02*
X148907142Y-79350828D01*
X148907142Y-79350828D02*
X148907142Y-77850828D01*
X148907142Y-77850828D02*
X149621428Y-77850828D01*
X150264285Y-78565114D02*
X150764285Y-78565114D01*
X150978571Y-79350828D02*
X150264285Y-79350828D01*
X150264285Y-79350828D02*
X150264285Y-77850828D01*
X150264285Y-77850828D02*
X150978571Y-77850828D01*
X151621428Y-79350828D02*
X151621428Y-77850828D01*
X151621428Y-77850828D02*
X152192857Y-77850828D01*
X152192857Y-77850828D02*
X152335714Y-77922257D01*
X152335714Y-77922257D02*
X152407143Y-77993685D01*
X152407143Y-77993685D02*
X152478571Y-78136542D01*
X152478571Y-78136542D02*
X152478571Y-78350828D01*
X152478571Y-78350828D02*
X152407143Y-78493685D01*
X152407143Y-78493685D02*
X152335714Y-78565114D01*
X152335714Y-78565114D02*
X152192857Y-78636542D01*
X152192857Y-78636542D02*
X151621428Y-78636542D01*
X153978571Y-79350828D02*
X153478571Y-78636542D01*
X153121428Y-79350828D02*
X153121428Y-77850828D01*
X153121428Y-77850828D02*
X153692857Y-77850828D01*
X153692857Y-77850828D02*
X153835714Y-77922257D01*
X153835714Y-77922257D02*
X153907143Y-77993685D01*
X153907143Y-77993685D02*
X153978571Y-78136542D01*
X153978571Y-78136542D02*
X153978571Y-78350828D01*
X153978571Y-78350828D02*
X153907143Y-78493685D01*
X153907143Y-78493685D02*
X153835714Y-78565114D01*
X153835714Y-78565114D02*
X153692857Y-78636542D01*
X153692857Y-78636542D02*
X153121428Y-78636542D01*
X154907143Y-77850828D02*
X155192857Y-77850828D01*
X155192857Y-77850828D02*
X155335714Y-77922257D01*
X155335714Y-77922257D02*
X155478571Y-78065114D01*
X155478571Y-78065114D02*
X155550000Y-78350828D01*
X155550000Y-78350828D02*
X155550000Y-78850828D01*
X155550000Y-78850828D02*
X155478571Y-79136542D01*
X155478571Y-79136542D02*
X155335714Y-79279400D01*
X155335714Y-79279400D02*
X155192857Y-79350828D01*
X155192857Y-79350828D02*
X154907143Y-79350828D01*
X154907143Y-79350828D02*
X154764286Y-79279400D01*
X154764286Y-79279400D02*
X154621428Y-79136542D01*
X154621428Y-79136542D02*
X154550000Y-78850828D01*
X154550000Y-78850828D02*
X154550000Y-78350828D01*
X154550000Y-78350828D02*
X154621428Y-78065114D01*
X154621428Y-78065114D02*
X154764286Y-77922257D01*
X154764286Y-77922257D02*
X154907143Y-77850828D01*
X156192857Y-79350828D02*
X156192857Y-77850828D01*
X156192857Y-77850828D02*
X156692857Y-78922257D01*
X156692857Y-78922257D02*
X157192857Y-77850828D01*
X157192857Y-77850828D02*
X157192857Y-79350828D01*
D10*
X67156666Y-45739819D02*
X67156666Y-45073152D01*
X67156666Y-44739819D02*
X67109047Y-44787438D01*
X67109047Y-44787438D02*
X67156666Y-44835057D01*
X67156666Y-44835057D02*
X67204285Y-44787438D01*
X67204285Y-44787438D02*
X67156666Y-44739819D01*
X67156666Y-44739819D02*
X67156666Y-44835057D01*
X67489999Y-45073152D02*
X67870951Y-45073152D01*
X67632856Y-44739819D02*
X67632856Y-45596961D01*
X67632856Y-45596961D02*
X67680475Y-45692200D01*
X67680475Y-45692200D02*
X67775713Y-45739819D01*
X67775713Y-45739819D02*
X67870951Y-45739819D01*
X68156666Y-45692200D02*
X68251904Y-45739819D01*
X68251904Y-45739819D02*
X68442380Y-45739819D01*
X68442380Y-45739819D02*
X68537618Y-45692200D01*
X68537618Y-45692200D02*
X68585237Y-45596961D01*
X68585237Y-45596961D02*
X68585237Y-45549342D01*
X68585237Y-45549342D02*
X68537618Y-45454104D01*
X68537618Y-45454104D02*
X68442380Y-45406485D01*
X68442380Y-45406485D02*
X68299523Y-45406485D01*
X68299523Y-45406485D02*
X68204285Y-45358866D01*
X68204285Y-45358866D02*
X68156666Y-45263628D01*
X68156666Y-45263628D02*
X68156666Y-45216009D01*
X68156666Y-45216009D02*
X68204285Y-45120771D01*
X68204285Y-45120771D02*
X68299523Y-45073152D01*
X68299523Y-45073152D02*
X68442380Y-45073152D01*
X68442380Y-45073152D02*
X68537618Y-45120771D01*
X68918571Y-45073152D02*
X69156666Y-45739819D01*
X69394761Y-45073152D02*
X69156666Y-45739819D01*
X69156666Y-45739819D02*
X69061428Y-45977914D01*
X69061428Y-45977914D02*
X69013809Y-46025533D01*
X69013809Y-46025533D02*
X68918571Y-46073152D01*
X69775714Y-45739819D02*
X69775714Y-44739819D01*
X69775714Y-45120771D02*
X69870952Y-45073152D01*
X69870952Y-45073152D02*
X70061428Y-45073152D01*
X70061428Y-45073152D02*
X70156666Y-45120771D01*
X70156666Y-45120771D02*
X70204285Y-45168390D01*
X70204285Y-45168390D02*
X70251904Y-45263628D01*
X70251904Y-45263628D02*
X70251904Y-45549342D01*
X70251904Y-45549342D02*
X70204285Y-45644580D01*
X70204285Y-45644580D02*
X70156666Y-45692200D01*
X70156666Y-45692200D02*
X70061428Y-45739819D01*
X70061428Y-45739819D02*
X69870952Y-45739819D01*
X69870952Y-45739819D02*
X69775714Y-45692200D01*
X70680476Y-45739819D02*
X70680476Y-45073152D01*
X70680476Y-44739819D02*
X70632857Y-44787438D01*
X70632857Y-44787438D02*
X70680476Y-44835057D01*
X70680476Y-44835057D02*
X70728095Y-44787438D01*
X70728095Y-44787438D02*
X70680476Y-44739819D01*
X70680476Y-44739819D02*
X70680476Y-44835057D01*
X71013809Y-45073152D02*
X71394761Y-45073152D01*
X71156666Y-44739819D02*
X71156666Y-45596961D01*
X71156666Y-45596961D02*
X71204285Y-45692200D01*
X71204285Y-45692200D02*
X71299523Y-45739819D01*
X71299523Y-45739819D02*
X71394761Y-45739819D01*
X71680476Y-45692200D02*
X71775714Y-45739819D01*
X71775714Y-45739819D02*
X71966190Y-45739819D01*
X71966190Y-45739819D02*
X72061428Y-45692200D01*
X72061428Y-45692200D02*
X72109047Y-45596961D01*
X72109047Y-45596961D02*
X72109047Y-45549342D01*
X72109047Y-45549342D02*
X72061428Y-45454104D01*
X72061428Y-45454104D02*
X71966190Y-45406485D01*
X71966190Y-45406485D02*
X71823333Y-45406485D01*
X71823333Y-45406485D02*
X71728095Y-45358866D01*
X71728095Y-45358866D02*
X71680476Y-45263628D01*
X71680476Y-45263628D02*
X71680476Y-45216009D01*
X71680476Y-45216009D02*
X71728095Y-45120771D01*
X71728095Y-45120771D02*
X71823333Y-45073152D01*
X71823333Y-45073152D02*
X71966190Y-45073152D01*
X71966190Y-45073152D02*
X72061428Y-45120771D01*
X72442381Y-45073152D02*
X72680476Y-45739819D01*
X72918571Y-45073152D02*
X72680476Y-45739819D01*
X72680476Y-45739819D02*
X72585238Y-45977914D01*
X72585238Y-45977914D02*
X72537619Y-46025533D01*
X72537619Y-46025533D02*
X72442381Y-46073152D01*
X144878207Y-122769819D02*
X144544874Y-122293628D01*
X144306779Y-122769819D02*
X144306779Y-121769819D01*
X144306779Y-121769819D02*
X144687731Y-121769819D01*
X144687731Y-121769819D02*
X144782969Y-121817438D01*
X144782969Y-121817438D02*
X144830588Y-121865057D01*
X144830588Y-121865057D02*
X144878207Y-121960295D01*
X144878207Y-121960295D02*
X144878207Y-122103152D01*
X144878207Y-122103152D02*
X144830588Y-122198390D01*
X144830588Y-122198390D02*
X144782969Y-122246009D01*
X144782969Y-122246009D02*
X144687731Y-122293628D01*
X144687731Y-122293628D02*
X144306779Y-122293628D01*
X145211541Y-121769819D02*
X145878207Y-122769819D01*
X145878207Y-121769819D02*
X145211541Y-122769819D01*
X146211541Y-121865057D02*
X146259160Y-121817438D01*
X146259160Y-121817438D02*
X146354398Y-121769819D01*
X146354398Y-121769819D02*
X146592493Y-121769819D01*
X146592493Y-121769819D02*
X146687731Y-121817438D01*
X146687731Y-121817438D02*
X146735350Y-121865057D01*
X146735350Y-121865057D02*
X146782969Y-121960295D01*
X146782969Y-121960295D02*
X146782969Y-122055533D01*
X146782969Y-122055533D02*
X146735350Y-122198390D01*
X146735350Y-122198390D02*
X146163922Y-122769819D01*
X146163922Y-122769819D02*
X146782969Y-122769819D01*
X132891541Y-86569819D02*
X133510588Y-86569819D01*
X133510588Y-86569819D02*
X133177255Y-86950771D01*
X133177255Y-86950771D02*
X133320112Y-86950771D01*
X133320112Y-86950771D02*
X133415350Y-86998390D01*
X133415350Y-86998390D02*
X133462969Y-87046009D01*
X133462969Y-87046009D02*
X133510588Y-87141247D01*
X133510588Y-87141247D02*
X133510588Y-87379342D01*
X133510588Y-87379342D02*
X133462969Y-87474580D01*
X133462969Y-87474580D02*
X133415350Y-87522200D01*
X133415350Y-87522200D02*
X133320112Y-87569819D01*
X133320112Y-87569819D02*
X133034398Y-87569819D01*
X133034398Y-87569819D02*
X132939160Y-87522200D01*
X132939160Y-87522200D02*
X132891541Y-87474580D01*
X133796303Y-86569819D02*
X134129636Y-87569819D01*
X134129636Y-87569819D02*
X134462969Y-86569819D01*
X153419819Y-101708458D02*
X153419819Y-101089411D01*
X153419819Y-101089411D02*
X153800771Y-101422744D01*
X153800771Y-101422744D02*
X153800771Y-101279887D01*
X153800771Y-101279887D02*
X153848390Y-101184649D01*
X153848390Y-101184649D02*
X153896009Y-101137030D01*
X153896009Y-101137030D02*
X153991247Y-101089411D01*
X153991247Y-101089411D02*
X154229342Y-101089411D01*
X154229342Y-101089411D02*
X154324580Y-101137030D01*
X154324580Y-101137030D02*
X154372200Y-101184649D01*
X154372200Y-101184649D02*
X154419819Y-101279887D01*
X154419819Y-101279887D02*
X154419819Y-101565601D01*
X154419819Y-101565601D02*
X154372200Y-101660839D01*
X154372200Y-101660839D02*
X154324580Y-101708458D01*
X153419819Y-100803696D02*
X154419819Y-100470363D01*
X154419819Y-100470363D02*
X153419819Y-100137030D01*
D11*
X65571428Y-96078328D02*
X65857142Y-96078328D01*
X65857142Y-96078328D02*
X65999999Y-96149757D01*
X65999999Y-96149757D02*
X66142856Y-96292614D01*
X66142856Y-96292614D02*
X66214285Y-96578328D01*
X66214285Y-96578328D02*
X66214285Y-97078328D01*
X66214285Y-97078328D02*
X66142856Y-97364042D01*
X66142856Y-97364042D02*
X65999999Y-97506900D01*
X65999999Y-97506900D02*
X65857142Y-97578328D01*
X65857142Y-97578328D02*
X65571428Y-97578328D01*
X65571428Y-97578328D02*
X65428571Y-97506900D01*
X65428571Y-97506900D02*
X65285713Y-97364042D01*
X65285713Y-97364042D02*
X65214285Y-97078328D01*
X65214285Y-97078328D02*
X65214285Y-96578328D01*
X65214285Y-96578328D02*
X65285713Y-96292614D01*
X65285713Y-96292614D02*
X65428571Y-96149757D01*
X65428571Y-96149757D02*
X65571428Y-96078328D01*
X66857142Y-97578328D02*
X66857142Y-96078328D01*
X66857142Y-96078328D02*
X67714285Y-97578328D01*
X67714285Y-97578328D02*
X67714285Y-96078328D01*
D10*
X87819819Y-38937030D02*
X87819819Y-39413220D01*
X87819819Y-39413220D02*
X88296009Y-39460839D01*
X88296009Y-39460839D02*
X88248390Y-39413220D01*
X88248390Y-39413220D02*
X88200771Y-39317982D01*
X88200771Y-39317982D02*
X88200771Y-39079887D01*
X88200771Y-39079887D02*
X88248390Y-38984649D01*
X88248390Y-38984649D02*
X88296009Y-38937030D01*
X88296009Y-38937030D02*
X88391247Y-38889411D01*
X88391247Y-38889411D02*
X88629342Y-38889411D01*
X88629342Y-38889411D02*
X88724580Y-38937030D01*
X88724580Y-38937030D02*
X88772200Y-38984649D01*
X88772200Y-38984649D02*
X88819819Y-39079887D01*
X88819819Y-39079887D02*
X88819819Y-39317982D01*
X88819819Y-39317982D02*
X88772200Y-39413220D01*
X88772200Y-39413220D02*
X88724580Y-39460839D01*
X87819819Y-38603696D02*
X88819819Y-38270363D01*
X88819819Y-38270363D02*
X87819819Y-37937030D01*
D11*
X65071429Y-111578328D02*
X65357143Y-111578328D01*
X65357143Y-111578328D02*
X65500000Y-111649757D01*
X65500000Y-111649757D02*
X65642857Y-111792614D01*
X65642857Y-111792614D02*
X65714286Y-112078328D01*
X65714286Y-112078328D02*
X65714286Y-112578328D01*
X65714286Y-112578328D02*
X65642857Y-112864042D01*
X65642857Y-112864042D02*
X65500000Y-113006900D01*
X65500000Y-113006900D02*
X65357143Y-113078328D01*
X65357143Y-113078328D02*
X65071429Y-113078328D01*
X65071429Y-113078328D02*
X64928572Y-113006900D01*
X64928572Y-113006900D02*
X64785714Y-112864042D01*
X64785714Y-112864042D02*
X64714286Y-112578328D01*
X64714286Y-112578328D02*
X64714286Y-112078328D01*
X64714286Y-112078328D02*
X64785714Y-111792614D01*
X64785714Y-111792614D02*
X64928572Y-111649757D01*
X64928572Y-111649757D02*
X65071429Y-111578328D01*
X66857143Y-112292614D02*
X66357143Y-112292614D01*
X66357143Y-113078328D02*
X66357143Y-111578328D01*
X66357143Y-111578328D02*
X67071429Y-111578328D01*
X68142857Y-112292614D02*
X67642857Y-112292614D01*
X67642857Y-113078328D02*
X67642857Y-111578328D01*
X67642857Y-111578328D02*
X68357143Y-111578328D01*
D10*
X75143922Y-121069819D02*
X75477255Y-122069819D01*
X75477255Y-122069819D02*
X75810588Y-121069819D01*
X76143922Y-121546009D02*
X76477255Y-121546009D01*
X76620112Y-122069819D02*
X76143922Y-122069819D01*
X76143922Y-122069819D02*
X76143922Y-121069819D01*
X76143922Y-121069819D02*
X76620112Y-121069819D01*
X76953446Y-121069819D02*
X77620112Y-122069819D01*
X77620112Y-121069819D02*
X76953446Y-122069819D01*
X77858208Y-121069819D02*
X78429636Y-121069819D01*
X78143922Y-122069819D02*
X78143922Y-121069819D01*
X77767438Y-38939411D02*
X77719819Y-39034649D01*
X77719819Y-39034649D02*
X77719819Y-39177506D01*
X77719819Y-39177506D02*
X77767438Y-39320363D01*
X77767438Y-39320363D02*
X77862676Y-39415601D01*
X77862676Y-39415601D02*
X77957914Y-39463220D01*
X77957914Y-39463220D02*
X78148390Y-39510839D01*
X78148390Y-39510839D02*
X78291247Y-39510839D01*
X78291247Y-39510839D02*
X78481723Y-39463220D01*
X78481723Y-39463220D02*
X78576961Y-39415601D01*
X78576961Y-39415601D02*
X78672200Y-39320363D01*
X78672200Y-39320363D02*
X78719819Y-39177506D01*
X78719819Y-39177506D02*
X78719819Y-39082268D01*
X78719819Y-39082268D02*
X78672200Y-38939411D01*
X78672200Y-38939411D02*
X78624580Y-38891792D01*
X78624580Y-38891792D02*
X78291247Y-38891792D01*
X78291247Y-38891792D02*
X78291247Y-39082268D01*
X78719819Y-38463220D02*
X77719819Y-38463220D01*
X77719819Y-38463220D02*
X78719819Y-37891792D01*
X78719819Y-37891792D02*
X77719819Y-37891792D01*
X78719819Y-37415601D02*
X77719819Y-37415601D01*
X77719819Y-37415601D02*
X77719819Y-37177506D01*
X77719819Y-37177506D02*
X77767438Y-37034649D01*
X77767438Y-37034649D02*
X77862676Y-36939411D01*
X77862676Y-36939411D02*
X77957914Y-36891792D01*
X77957914Y-36891792D02*
X78148390Y-36844173D01*
X78148390Y-36844173D02*
X78291247Y-36844173D01*
X78291247Y-36844173D02*
X78481723Y-36891792D01*
X78481723Y-36891792D02*
X78576961Y-36939411D01*
X78576961Y-36939411D02*
X78672200Y-37034649D01*
X78672200Y-37034649D02*
X78719819Y-37177506D01*
X78719819Y-37177506D02*
X78719819Y-37415601D01*
X109397438Y-73989411D02*
X109349819Y-74084649D01*
X109349819Y-74084649D02*
X109349819Y-74227506D01*
X109349819Y-74227506D02*
X109397438Y-74370363D01*
X109397438Y-74370363D02*
X109492676Y-74465601D01*
X109492676Y-74465601D02*
X109587914Y-74513220D01*
X109587914Y-74513220D02*
X109778390Y-74560839D01*
X109778390Y-74560839D02*
X109921247Y-74560839D01*
X109921247Y-74560839D02*
X110111723Y-74513220D01*
X110111723Y-74513220D02*
X110206961Y-74465601D01*
X110206961Y-74465601D02*
X110302200Y-74370363D01*
X110302200Y-74370363D02*
X110349819Y-74227506D01*
X110349819Y-74227506D02*
X110349819Y-74132268D01*
X110349819Y-74132268D02*
X110302200Y-73989411D01*
X110302200Y-73989411D02*
X110254580Y-73941792D01*
X110254580Y-73941792D02*
X109921247Y-73941792D01*
X109921247Y-73941792D02*
X109921247Y-74132268D01*
X110349819Y-73513220D02*
X109349819Y-73513220D01*
X109349819Y-73513220D02*
X110349819Y-72941792D01*
X110349819Y-72941792D02*
X109349819Y-72941792D01*
X110349819Y-72465601D02*
X109349819Y-72465601D01*
X109349819Y-72465601D02*
X109349819Y-72227506D01*
X109349819Y-72227506D02*
X109397438Y-72084649D01*
X109397438Y-72084649D02*
X109492676Y-71989411D01*
X109492676Y-71989411D02*
X109587914Y-71941792D01*
X109587914Y-71941792D02*
X109778390Y-71894173D01*
X109778390Y-71894173D02*
X109921247Y-71894173D01*
X109921247Y-71894173D02*
X110111723Y-71941792D01*
X110111723Y-71941792D02*
X110206961Y-71989411D01*
X110206961Y-71989411D02*
X110302200Y-72084649D01*
X110302200Y-72084649D02*
X110349819Y-72227506D01*
X110349819Y-72227506D02*
X110349819Y-72465601D01*
X81060588Y-121117438D02*
X80965350Y-121069819D01*
X80965350Y-121069819D02*
X80822493Y-121069819D01*
X80822493Y-121069819D02*
X80679636Y-121117438D01*
X80679636Y-121117438D02*
X80584398Y-121212676D01*
X80584398Y-121212676D02*
X80536779Y-121307914D01*
X80536779Y-121307914D02*
X80489160Y-121498390D01*
X80489160Y-121498390D02*
X80489160Y-121641247D01*
X80489160Y-121641247D02*
X80536779Y-121831723D01*
X80536779Y-121831723D02*
X80584398Y-121926961D01*
X80584398Y-121926961D02*
X80679636Y-122022200D01*
X80679636Y-122022200D02*
X80822493Y-122069819D01*
X80822493Y-122069819D02*
X80917731Y-122069819D01*
X80917731Y-122069819D02*
X81060588Y-122022200D01*
X81060588Y-122022200D02*
X81108207Y-121974580D01*
X81108207Y-121974580D02*
X81108207Y-121641247D01*
X81108207Y-121641247D02*
X80917731Y-121641247D01*
X81536779Y-122069819D02*
X81536779Y-121069819D01*
X81536779Y-121069819D02*
X82108207Y-122069819D01*
X82108207Y-122069819D02*
X82108207Y-121069819D01*
X82584398Y-122069819D02*
X82584398Y-121069819D01*
X82584398Y-121069819D02*
X82822493Y-121069819D01*
X82822493Y-121069819D02*
X82965350Y-121117438D01*
X82965350Y-121117438D02*
X83060588Y-121212676D01*
X83060588Y-121212676D02*
X83108207Y-121307914D01*
X83108207Y-121307914D02*
X83155826Y-121498390D01*
X83155826Y-121498390D02*
X83155826Y-121641247D01*
X83155826Y-121641247D02*
X83108207Y-121831723D01*
X83108207Y-121831723D02*
X83060588Y-121926961D01*
X83060588Y-121926961D02*
X82965350Y-122022200D01*
X82965350Y-122022200D02*
X82822493Y-122069819D01*
X82822493Y-122069819D02*
X82584398Y-122069819D01*
X148394172Y-46957998D02*
X147894172Y-46957998D01*
X147894172Y-47743712D02*
X147894172Y-46243712D01*
X147894172Y-46243712D02*
X148608458Y-46243712D01*
X149465601Y-46243712D02*
X149751315Y-46243712D01*
X149751315Y-46243712D02*
X149894172Y-46315141D01*
X149894172Y-46315141D02*
X150037029Y-46457998D01*
X150037029Y-46457998D02*
X150108458Y-46743712D01*
X150108458Y-46743712D02*
X150108458Y-47243712D01*
X150108458Y-47243712D02*
X150037029Y-47529426D01*
X150037029Y-47529426D02*
X149894172Y-47672284D01*
X149894172Y-47672284D02*
X149751315Y-47743712D01*
X149751315Y-47743712D02*
X149465601Y-47743712D01*
X149465601Y-47743712D02*
X149322744Y-47672284D01*
X149322744Y-47672284D02*
X149179886Y-47529426D01*
X149179886Y-47529426D02*
X149108458Y-47243712D01*
X149108458Y-47243712D02*
X149108458Y-46743712D01*
X149108458Y-46743712D02*
X149179886Y-46457998D01*
X149179886Y-46457998D02*
X149322744Y-46315141D01*
X149322744Y-46315141D02*
X149465601Y-46243712D01*
X151608458Y-47743712D02*
X151108458Y-47029426D01*
X150751315Y-47743712D02*
X150751315Y-46243712D01*
X150751315Y-46243712D02*
X151322744Y-46243712D01*
X151322744Y-46243712D02*
X151465601Y-46315141D01*
X151465601Y-46315141D02*
X151537030Y-46386569D01*
X151537030Y-46386569D02*
X151608458Y-46529426D01*
X151608458Y-46529426D02*
X151608458Y-46743712D01*
X151608458Y-46743712D02*
X151537030Y-46886569D01*
X151537030Y-46886569D02*
X151465601Y-46957998D01*
X151465601Y-46957998D02*
X151322744Y-47029426D01*
X151322744Y-47029426D02*
X150751315Y-47029426D01*
X153108458Y-47600855D02*
X153037030Y-47672284D01*
X153037030Y-47672284D02*
X152822744Y-47743712D01*
X152822744Y-47743712D02*
X152679887Y-47743712D01*
X152679887Y-47743712D02*
X152465601Y-47672284D01*
X152465601Y-47672284D02*
X152322744Y-47529426D01*
X152322744Y-47529426D02*
X152251315Y-47386569D01*
X152251315Y-47386569D02*
X152179887Y-47100855D01*
X152179887Y-47100855D02*
X152179887Y-46886569D01*
X152179887Y-46886569D02*
X152251315Y-46600855D01*
X152251315Y-46600855D02*
X152322744Y-46457998D01*
X152322744Y-46457998D02*
X152465601Y-46315141D01*
X152465601Y-46315141D02*
X152679887Y-46243712D01*
X152679887Y-46243712D02*
X152822744Y-46243712D01*
X152822744Y-46243712D02*
X153037030Y-46315141D01*
X153037030Y-46315141D02*
X153108458Y-46386569D01*
X153751315Y-46957998D02*
X154251315Y-46957998D01*
X154465601Y-47743712D02*
X153751315Y-47743712D01*
X153751315Y-47743712D02*
X153751315Y-46243712D01*
X153751315Y-46243712D02*
X154465601Y-46243712D01*
X149179887Y-50087200D02*
X149394173Y-50158628D01*
X149394173Y-50158628D02*
X149751315Y-50158628D01*
X149751315Y-50158628D02*
X149894173Y-50087200D01*
X149894173Y-50087200D02*
X149965601Y-50015771D01*
X149965601Y-50015771D02*
X150037030Y-49872914D01*
X150037030Y-49872914D02*
X150037030Y-49730057D01*
X150037030Y-49730057D02*
X149965601Y-49587200D01*
X149965601Y-49587200D02*
X149894173Y-49515771D01*
X149894173Y-49515771D02*
X149751315Y-49444342D01*
X149751315Y-49444342D02*
X149465601Y-49372914D01*
X149465601Y-49372914D02*
X149322744Y-49301485D01*
X149322744Y-49301485D02*
X149251315Y-49230057D01*
X149251315Y-49230057D02*
X149179887Y-49087200D01*
X149179887Y-49087200D02*
X149179887Y-48944342D01*
X149179887Y-48944342D02*
X149251315Y-48801485D01*
X149251315Y-48801485D02*
X149322744Y-48730057D01*
X149322744Y-48730057D02*
X149465601Y-48658628D01*
X149465601Y-48658628D02*
X149822744Y-48658628D01*
X149822744Y-48658628D02*
X150037030Y-48730057D01*
X150679886Y-49372914D02*
X151179886Y-49372914D01*
X151394172Y-50158628D02*
X150679886Y-50158628D01*
X150679886Y-50158628D02*
X150679886Y-48658628D01*
X150679886Y-48658628D02*
X151394172Y-48658628D01*
X152037029Y-50158628D02*
X152037029Y-48658628D01*
X152037029Y-48658628D02*
X152894172Y-50158628D01*
X152894172Y-50158628D02*
X152894172Y-48658628D01*
X153608458Y-50158628D02*
X153608458Y-48658628D01*
X153608458Y-48658628D02*
X153965601Y-48658628D01*
X153965601Y-48658628D02*
X154179887Y-48730057D01*
X154179887Y-48730057D02*
X154322744Y-48872914D01*
X154322744Y-48872914D02*
X154394173Y-49015771D01*
X154394173Y-49015771D02*
X154465601Y-49301485D01*
X154465601Y-49301485D02*
X154465601Y-49515771D01*
X154465601Y-49515771D02*
X154394173Y-49801485D01*
X154394173Y-49801485D02*
X154322744Y-49944342D01*
X154322744Y-49944342D02*
X154179887Y-50087200D01*
X154179887Y-50087200D02*
X153965601Y-50158628D01*
X153965601Y-50158628D02*
X153608458Y-50158628D01*
X132939160Y-97722200D02*
X133082017Y-97769819D01*
X133082017Y-97769819D02*
X133320112Y-97769819D01*
X133320112Y-97769819D02*
X133415350Y-97722200D01*
X133415350Y-97722200D02*
X133462969Y-97674580D01*
X133462969Y-97674580D02*
X133510588Y-97579342D01*
X133510588Y-97579342D02*
X133510588Y-97484104D01*
X133510588Y-97484104D02*
X133462969Y-97388866D01*
X133462969Y-97388866D02*
X133415350Y-97341247D01*
X133415350Y-97341247D02*
X133320112Y-97293628D01*
X133320112Y-97293628D02*
X133129636Y-97246009D01*
X133129636Y-97246009D02*
X133034398Y-97198390D01*
X133034398Y-97198390D02*
X132986779Y-97150771D01*
X132986779Y-97150771D02*
X132939160Y-97055533D01*
X132939160Y-97055533D02*
X132939160Y-96960295D01*
X132939160Y-96960295D02*
X132986779Y-96865057D01*
X132986779Y-96865057D02*
X133034398Y-96817438D01*
X133034398Y-96817438D02*
X133129636Y-96769819D01*
X133129636Y-96769819D02*
X133367731Y-96769819D01*
X133367731Y-96769819D02*
X133510588Y-96817438D01*
X134510588Y-97674580D02*
X134462969Y-97722200D01*
X134462969Y-97722200D02*
X134320112Y-97769819D01*
X134320112Y-97769819D02*
X134224874Y-97769819D01*
X134224874Y-97769819D02*
X134082017Y-97722200D01*
X134082017Y-97722200D02*
X133986779Y-97626961D01*
X133986779Y-97626961D02*
X133939160Y-97531723D01*
X133939160Y-97531723D02*
X133891541Y-97341247D01*
X133891541Y-97341247D02*
X133891541Y-97198390D01*
X133891541Y-97198390D02*
X133939160Y-97007914D01*
X133939160Y-97007914D02*
X133986779Y-96912676D01*
X133986779Y-96912676D02*
X134082017Y-96817438D01*
X134082017Y-96817438D02*
X134224874Y-96769819D01*
X134224874Y-96769819D02*
X134320112Y-96769819D01*
X134320112Y-96769819D02*
X134462969Y-96817438D01*
X134462969Y-96817438D02*
X134510588Y-96865057D01*
X135415350Y-97769819D02*
X134939160Y-97769819D01*
X134939160Y-97769819D02*
X134939160Y-96769819D01*
X133262969Y-89209819D02*
X132786779Y-89209819D01*
X132786779Y-89209819D02*
X132739160Y-89686009D01*
X132739160Y-89686009D02*
X132786779Y-89638390D01*
X132786779Y-89638390D02*
X132882017Y-89590771D01*
X132882017Y-89590771D02*
X133120112Y-89590771D01*
X133120112Y-89590771D02*
X133215350Y-89638390D01*
X133215350Y-89638390D02*
X133262969Y-89686009D01*
X133262969Y-89686009D02*
X133310588Y-89781247D01*
X133310588Y-89781247D02*
X133310588Y-90019342D01*
X133310588Y-90019342D02*
X133262969Y-90114580D01*
X133262969Y-90114580D02*
X133215350Y-90162200D01*
X133215350Y-90162200D02*
X133120112Y-90209819D01*
X133120112Y-90209819D02*
X132882017Y-90209819D01*
X132882017Y-90209819D02*
X132786779Y-90162200D01*
X132786779Y-90162200D02*
X132739160Y-90114580D01*
X133596303Y-89209819D02*
X133929636Y-90209819D01*
X133929636Y-90209819D02*
X134262969Y-89209819D01*
X134453446Y-89209819D02*
X135024874Y-89209819D01*
X134739160Y-90209819D02*
X134739160Y-89209819D01*
X135358208Y-90209819D02*
X135358208Y-89543152D01*
X135358208Y-89209819D02*
X135310589Y-89257438D01*
X135310589Y-89257438D02*
X135358208Y-89305057D01*
X135358208Y-89305057D02*
X135405827Y-89257438D01*
X135405827Y-89257438D02*
X135358208Y-89209819D01*
X135358208Y-89209819D02*
X135358208Y-89305057D01*
X135834398Y-90209819D02*
X135834398Y-89543152D01*
X135834398Y-89638390D02*
X135882017Y-89590771D01*
X135882017Y-89590771D02*
X135977255Y-89543152D01*
X135977255Y-89543152D02*
X136120112Y-89543152D01*
X136120112Y-89543152D02*
X136215350Y-89590771D01*
X136215350Y-89590771D02*
X136262969Y-89686009D01*
X136262969Y-89686009D02*
X136262969Y-90209819D01*
X136262969Y-89686009D02*
X136310588Y-89590771D01*
X136310588Y-89590771D02*
X136405826Y-89543152D01*
X136405826Y-89543152D02*
X136548683Y-89543152D01*
X136548683Y-89543152D02*
X136643922Y-89590771D01*
X136643922Y-89590771D02*
X136691541Y-89686009D01*
X136691541Y-89686009D02*
X136691541Y-90209819D01*
X137548683Y-90162200D02*
X137453445Y-90209819D01*
X137453445Y-90209819D02*
X137262969Y-90209819D01*
X137262969Y-90209819D02*
X137167731Y-90162200D01*
X137167731Y-90162200D02*
X137120112Y-90066961D01*
X137120112Y-90066961D02*
X137120112Y-89686009D01*
X137120112Y-89686009D02*
X137167731Y-89590771D01*
X137167731Y-89590771D02*
X137262969Y-89543152D01*
X137262969Y-89543152D02*
X137453445Y-89543152D01*
X137453445Y-89543152D02*
X137548683Y-89590771D01*
X137548683Y-89590771D02*
X137596302Y-89686009D01*
X137596302Y-89686009D02*
X137596302Y-89781247D01*
X137596302Y-89781247D02*
X137120112Y-89876485D01*
X138024874Y-90209819D02*
X138024874Y-89543152D01*
X138024874Y-89733628D02*
X138072493Y-89638390D01*
X138072493Y-89638390D02*
X138120112Y-89590771D01*
X138120112Y-89590771D02*
X138215350Y-89543152D01*
X138215350Y-89543152D02*
X138310588Y-89543152D01*
X115314104Y-72960839D02*
X115314104Y-72484649D01*
X115599819Y-73056077D02*
X114599819Y-72722744D01*
X114599819Y-72722744D02*
X115599819Y-72389411D01*
X114695057Y-72103696D02*
X114647438Y-72056077D01*
X114647438Y-72056077D02*
X114599819Y-71960839D01*
X114599819Y-71960839D02*
X114599819Y-71722744D01*
X114599819Y-71722744D02*
X114647438Y-71627506D01*
X114647438Y-71627506D02*
X114695057Y-71579887D01*
X114695057Y-71579887D02*
X114790295Y-71532268D01*
X114790295Y-71532268D02*
X114885533Y-71532268D01*
X114885533Y-71532268D02*
X115028390Y-71579887D01*
X115028390Y-71579887D02*
X115599819Y-72151315D01*
X115599819Y-72151315D02*
X115599819Y-71532268D01*
X132939160Y-100084104D02*
X133415350Y-100084104D01*
X132843922Y-100369819D02*
X133177255Y-99369819D01*
X133177255Y-99369819D02*
X133510588Y-100369819D01*
X134034398Y-99369819D02*
X134129636Y-99369819D01*
X134129636Y-99369819D02*
X134224874Y-99417438D01*
X134224874Y-99417438D02*
X134272493Y-99465057D01*
X134272493Y-99465057D02*
X134320112Y-99560295D01*
X134320112Y-99560295D02*
X134367731Y-99750771D01*
X134367731Y-99750771D02*
X134367731Y-99988866D01*
X134367731Y-99988866D02*
X134320112Y-100179342D01*
X134320112Y-100179342D02*
X134272493Y-100274580D01*
X134272493Y-100274580D02*
X134224874Y-100322200D01*
X134224874Y-100322200D02*
X134129636Y-100369819D01*
X134129636Y-100369819D02*
X134034398Y-100369819D01*
X134034398Y-100369819D02*
X133939160Y-100322200D01*
X133939160Y-100322200D02*
X133891541Y-100274580D01*
X133891541Y-100274580D02*
X133843922Y-100179342D01*
X133843922Y-100179342D02*
X133796303Y-99988866D01*
X133796303Y-99988866D02*
X133796303Y-99750771D01*
X133796303Y-99750771D02*
X133843922Y-99560295D01*
X133843922Y-99560295D02*
X133891541Y-99465057D01*
X133891541Y-99465057D02*
X133939160Y-99417438D01*
X133939160Y-99417438D02*
X134034398Y-99369819D01*
X86372200Y-39360839D02*
X86419819Y-39217982D01*
X86419819Y-39217982D02*
X86419819Y-38979887D01*
X86419819Y-38979887D02*
X86372200Y-38884649D01*
X86372200Y-38884649D02*
X86324580Y-38837030D01*
X86324580Y-38837030D02*
X86229342Y-38789411D01*
X86229342Y-38789411D02*
X86134104Y-38789411D01*
X86134104Y-38789411D02*
X86038866Y-38837030D01*
X86038866Y-38837030D02*
X85991247Y-38884649D01*
X85991247Y-38884649D02*
X85943628Y-38979887D01*
X85943628Y-38979887D02*
X85896009Y-39170363D01*
X85896009Y-39170363D02*
X85848390Y-39265601D01*
X85848390Y-39265601D02*
X85800771Y-39313220D01*
X85800771Y-39313220D02*
X85705533Y-39360839D01*
X85705533Y-39360839D02*
X85610295Y-39360839D01*
X85610295Y-39360839D02*
X85515057Y-39313220D01*
X85515057Y-39313220D02*
X85467438Y-39265601D01*
X85467438Y-39265601D02*
X85419819Y-39170363D01*
X85419819Y-39170363D02*
X85419819Y-38932268D01*
X85419819Y-38932268D02*
X85467438Y-38789411D01*
X86134104Y-38408458D02*
X86134104Y-37932268D01*
X86419819Y-38503696D02*
X85419819Y-38170363D01*
X85419819Y-38170363D02*
X86419819Y-37837030D01*
X85419819Y-37646553D02*
X85419819Y-37075125D01*
X86419819Y-37360839D02*
X85419819Y-37360839D01*
X86515057Y-36979887D02*
X86515057Y-36217982D01*
X85896009Y-35979886D02*
X85896009Y-35646553D01*
X86419819Y-35503696D02*
X86419819Y-35979886D01*
X86419819Y-35979886D02*
X85419819Y-35979886D01*
X85419819Y-35979886D02*
X85419819Y-35503696D01*
X86419819Y-35075124D02*
X85419819Y-35075124D01*
X85419819Y-35075124D02*
X86419819Y-34503696D01*
X86419819Y-34503696D02*
X85419819Y-34503696D01*
X133510588Y-83717438D02*
X133415350Y-83669819D01*
X133415350Y-83669819D02*
X133272493Y-83669819D01*
X133272493Y-83669819D02*
X133129636Y-83717438D01*
X133129636Y-83717438D02*
X133034398Y-83812676D01*
X133034398Y-83812676D02*
X132986779Y-83907914D01*
X132986779Y-83907914D02*
X132939160Y-84098390D01*
X132939160Y-84098390D02*
X132939160Y-84241247D01*
X132939160Y-84241247D02*
X132986779Y-84431723D01*
X132986779Y-84431723D02*
X133034398Y-84526961D01*
X133034398Y-84526961D02*
X133129636Y-84622200D01*
X133129636Y-84622200D02*
X133272493Y-84669819D01*
X133272493Y-84669819D02*
X133367731Y-84669819D01*
X133367731Y-84669819D02*
X133510588Y-84622200D01*
X133510588Y-84622200D02*
X133558207Y-84574580D01*
X133558207Y-84574580D02*
X133558207Y-84241247D01*
X133558207Y-84241247D02*
X133367731Y-84241247D01*
X133986779Y-84669819D02*
X133986779Y-83669819D01*
X133986779Y-83669819D02*
X134558207Y-84669819D01*
X134558207Y-84669819D02*
X134558207Y-83669819D01*
X135034398Y-84669819D02*
X135034398Y-83669819D01*
X135034398Y-83669819D02*
X135272493Y-83669819D01*
X135272493Y-83669819D02*
X135415350Y-83717438D01*
X135415350Y-83717438D02*
X135510588Y-83812676D01*
X135510588Y-83812676D02*
X135558207Y-83907914D01*
X135558207Y-83907914D02*
X135605826Y-84098390D01*
X135605826Y-84098390D02*
X135605826Y-84241247D01*
X135605826Y-84241247D02*
X135558207Y-84431723D01*
X135558207Y-84431723D02*
X135510588Y-84526961D01*
X135510588Y-84526961D02*
X135415350Y-84622200D01*
X135415350Y-84622200D02*
X135272493Y-84669819D01*
X135272493Y-84669819D02*
X135034398Y-84669819D01*
X139211541Y-121769819D02*
X139830588Y-121769819D01*
X139830588Y-121769819D02*
X139497255Y-122150771D01*
X139497255Y-122150771D02*
X139640112Y-122150771D01*
X139640112Y-122150771D02*
X139735350Y-122198390D01*
X139735350Y-122198390D02*
X139782969Y-122246009D01*
X139782969Y-122246009D02*
X139830588Y-122341247D01*
X139830588Y-122341247D02*
X139830588Y-122579342D01*
X139830588Y-122579342D02*
X139782969Y-122674580D01*
X139782969Y-122674580D02*
X139735350Y-122722200D01*
X139735350Y-122722200D02*
X139640112Y-122769819D01*
X139640112Y-122769819D02*
X139354398Y-122769819D01*
X139354398Y-122769819D02*
X139259160Y-122722200D01*
X139259160Y-122722200D02*
X139211541Y-122674580D01*
X140116303Y-121769819D02*
X140449636Y-122769819D01*
X140449636Y-122769819D02*
X140782969Y-121769819D01*
X108497200Y-43033690D02*
X108544819Y-42938452D01*
X108544819Y-42938452D02*
X108544819Y-42747976D01*
X108544819Y-42747976D02*
X108497200Y-42652738D01*
X108497200Y-42652738D02*
X108401961Y-42605119D01*
X108401961Y-42605119D02*
X108354342Y-42605119D01*
X108354342Y-42605119D02*
X108259104Y-42652738D01*
X108259104Y-42652738D02*
X108211485Y-42747976D01*
X108211485Y-42747976D02*
X108211485Y-42890833D01*
X108211485Y-42890833D02*
X108163866Y-42986071D01*
X108163866Y-42986071D02*
X108068628Y-43033690D01*
X108068628Y-43033690D02*
X108021009Y-43033690D01*
X108021009Y-43033690D02*
X107925771Y-42986071D01*
X107925771Y-42986071D02*
X107878152Y-42890833D01*
X107878152Y-42890833D02*
X107878152Y-42747976D01*
X107878152Y-42747976D02*
X107925771Y-42652738D01*
X108497200Y-42224166D02*
X108544819Y-42128928D01*
X108544819Y-42128928D02*
X108544819Y-41938452D01*
X108544819Y-41938452D02*
X108497200Y-41843214D01*
X108497200Y-41843214D02*
X108401961Y-41795595D01*
X108401961Y-41795595D02*
X108354342Y-41795595D01*
X108354342Y-41795595D02*
X108259104Y-41843214D01*
X108259104Y-41843214D02*
X108211485Y-41938452D01*
X108211485Y-41938452D02*
X108211485Y-42081309D01*
X108211485Y-42081309D02*
X108163866Y-42176547D01*
X108163866Y-42176547D02*
X108068628Y-42224166D01*
X108068628Y-42224166D02*
X108021009Y-42224166D01*
X108021009Y-42224166D02*
X107925771Y-42176547D01*
X107925771Y-42176547D02*
X107878152Y-42081309D01*
X107878152Y-42081309D02*
X107878152Y-41938452D01*
X107878152Y-41938452D02*
X107925771Y-41843214D01*
X108544819Y-40938452D02*
X107544819Y-40938452D01*
X108497200Y-40938452D02*
X108544819Y-41033690D01*
X108544819Y-41033690D02*
X108544819Y-41224166D01*
X108544819Y-41224166D02*
X108497200Y-41319404D01*
X108497200Y-41319404D02*
X108449580Y-41367023D01*
X108449580Y-41367023D02*
X108354342Y-41414642D01*
X108354342Y-41414642D02*
X108068628Y-41414642D01*
X108068628Y-41414642D02*
X107973390Y-41367023D01*
X107973390Y-41367023D02*
X107925771Y-41319404D01*
X107925771Y-41319404D02*
X107878152Y-41224166D01*
X107878152Y-41224166D02*
X107878152Y-41033690D01*
X107878152Y-41033690D02*
X107925771Y-40938452D01*
X108544819Y-39938452D02*
X108544819Y-40509880D01*
X108544819Y-40224166D02*
X107544819Y-40224166D01*
X107544819Y-40224166D02*
X107687676Y-40319404D01*
X107687676Y-40319404D02*
X107782914Y-40414642D01*
X107782914Y-40414642D02*
X107830533Y-40509880D01*
X107544819Y-39605118D02*
X107544819Y-38986071D01*
X107544819Y-38986071D02*
X107925771Y-39319404D01*
X107925771Y-39319404D02*
X107925771Y-39176547D01*
X107925771Y-39176547D02*
X107973390Y-39081309D01*
X107973390Y-39081309D02*
X108021009Y-39033690D01*
X108021009Y-39033690D02*
X108116247Y-38986071D01*
X108116247Y-38986071D02*
X108354342Y-38986071D01*
X108354342Y-38986071D02*
X108449580Y-39033690D01*
X108449580Y-39033690D02*
X108497200Y-39081309D01*
X108497200Y-39081309D02*
X108544819Y-39176547D01*
X108544819Y-39176547D02*
X108544819Y-39462261D01*
X108544819Y-39462261D02*
X108497200Y-39557499D01*
X108497200Y-39557499D02*
X108449580Y-39605118D01*
X107544819Y-38367023D02*
X107544819Y-38271785D01*
X107544819Y-38271785D02*
X107592438Y-38176547D01*
X107592438Y-38176547D02*
X107640057Y-38128928D01*
X107640057Y-38128928D02*
X107735295Y-38081309D01*
X107735295Y-38081309D02*
X107925771Y-38033690D01*
X107925771Y-38033690D02*
X108163866Y-38033690D01*
X108163866Y-38033690D02*
X108354342Y-38081309D01*
X108354342Y-38081309D02*
X108449580Y-38128928D01*
X108449580Y-38128928D02*
X108497200Y-38176547D01*
X108497200Y-38176547D02*
X108544819Y-38271785D01*
X108544819Y-38271785D02*
X108544819Y-38367023D01*
X108544819Y-38367023D02*
X108497200Y-38462261D01*
X108497200Y-38462261D02*
X108449580Y-38509880D01*
X108449580Y-38509880D02*
X108354342Y-38557499D01*
X108354342Y-38557499D02*
X108163866Y-38605118D01*
X108163866Y-38605118D02*
X107925771Y-38605118D01*
X107925771Y-38605118D02*
X107735295Y-38557499D01*
X107735295Y-38557499D02*
X107640057Y-38509880D01*
X107640057Y-38509880D02*
X107592438Y-38462261D01*
X107592438Y-38462261D02*
X107544819Y-38367023D01*
X107544819Y-37176547D02*
X107544819Y-37367023D01*
X107544819Y-37367023D02*
X107592438Y-37462261D01*
X107592438Y-37462261D02*
X107640057Y-37509880D01*
X107640057Y-37509880D02*
X107782914Y-37605118D01*
X107782914Y-37605118D02*
X107973390Y-37652737D01*
X107973390Y-37652737D02*
X108354342Y-37652737D01*
X108354342Y-37652737D02*
X108449580Y-37605118D01*
X108449580Y-37605118D02*
X108497200Y-37557499D01*
X108497200Y-37557499D02*
X108544819Y-37462261D01*
X108544819Y-37462261D02*
X108544819Y-37271785D01*
X108544819Y-37271785D02*
X108497200Y-37176547D01*
X108497200Y-37176547D02*
X108449580Y-37128928D01*
X108449580Y-37128928D02*
X108354342Y-37081309D01*
X108354342Y-37081309D02*
X108116247Y-37081309D01*
X108116247Y-37081309D02*
X108021009Y-37128928D01*
X108021009Y-37128928D02*
X107973390Y-37176547D01*
X107973390Y-37176547D02*
X107925771Y-37271785D01*
X107925771Y-37271785D02*
X107925771Y-37462261D01*
X107925771Y-37462261D02*
X107973390Y-37557499D01*
X107973390Y-37557499D02*
X108021009Y-37605118D01*
X108021009Y-37605118D02*
X108116247Y-37652737D01*
X151772200Y-102460839D02*
X151819819Y-102317982D01*
X151819819Y-102317982D02*
X151819819Y-102079887D01*
X151819819Y-102079887D02*
X151772200Y-101984649D01*
X151772200Y-101984649D02*
X151724580Y-101937030D01*
X151724580Y-101937030D02*
X151629342Y-101889411D01*
X151629342Y-101889411D02*
X151534104Y-101889411D01*
X151534104Y-101889411D02*
X151438866Y-101937030D01*
X151438866Y-101937030D02*
X151391247Y-101984649D01*
X151391247Y-101984649D02*
X151343628Y-102079887D01*
X151343628Y-102079887D02*
X151296009Y-102270363D01*
X151296009Y-102270363D02*
X151248390Y-102365601D01*
X151248390Y-102365601D02*
X151200771Y-102413220D01*
X151200771Y-102413220D02*
X151105533Y-102460839D01*
X151105533Y-102460839D02*
X151010295Y-102460839D01*
X151010295Y-102460839D02*
X150915057Y-102413220D01*
X150915057Y-102413220D02*
X150867438Y-102365601D01*
X150867438Y-102365601D02*
X150819819Y-102270363D01*
X150819819Y-102270363D02*
X150819819Y-102032268D01*
X150819819Y-102032268D02*
X150867438Y-101889411D01*
X151819819Y-101460839D02*
X150819819Y-101460839D01*
X150819819Y-101460839D02*
X150819819Y-101222744D01*
X150819819Y-101222744D02*
X150867438Y-101079887D01*
X150867438Y-101079887D02*
X150962676Y-100984649D01*
X150962676Y-100984649D02*
X151057914Y-100937030D01*
X151057914Y-100937030D02*
X151248390Y-100889411D01*
X151248390Y-100889411D02*
X151391247Y-100889411D01*
X151391247Y-100889411D02*
X151581723Y-100937030D01*
X151581723Y-100937030D02*
X151676961Y-100984649D01*
X151676961Y-100984649D02*
X151772200Y-101079887D01*
X151772200Y-101079887D02*
X151819819Y-101222744D01*
X151819819Y-101222744D02*
X151819819Y-101460839D01*
X151534104Y-100508458D02*
X151534104Y-100032268D01*
X151819819Y-100603696D02*
X150819819Y-100270363D01*
X150819819Y-100270363D02*
X151819819Y-99937030D01*
D11*
X127290225Y-116672257D02*
X127147368Y-116600828D01*
X127147368Y-116600828D02*
X126933082Y-116600828D01*
X126933082Y-116600828D02*
X126718796Y-116672257D01*
X126718796Y-116672257D02*
X126575939Y-116815114D01*
X126575939Y-116815114D02*
X126504510Y-116957971D01*
X126504510Y-116957971D02*
X126433082Y-117243685D01*
X126433082Y-117243685D02*
X126433082Y-117457971D01*
X126433082Y-117457971D02*
X126504510Y-117743685D01*
X126504510Y-117743685D02*
X126575939Y-117886542D01*
X126575939Y-117886542D02*
X126718796Y-118029400D01*
X126718796Y-118029400D02*
X126933082Y-118100828D01*
X126933082Y-118100828D02*
X127075939Y-118100828D01*
X127075939Y-118100828D02*
X127290225Y-118029400D01*
X127290225Y-118029400D02*
X127361653Y-117957971D01*
X127361653Y-117957971D02*
X127361653Y-117457971D01*
X127361653Y-117457971D02*
X127075939Y-117457971D01*
X128004510Y-118100828D02*
X128004510Y-116600828D01*
X128004510Y-116600828D02*
X128861653Y-118100828D01*
X128861653Y-118100828D02*
X128861653Y-116600828D01*
X129575939Y-118100828D02*
X129575939Y-116600828D01*
X129575939Y-116600828D02*
X129933082Y-116600828D01*
X129933082Y-116600828D02*
X130147368Y-116672257D01*
X130147368Y-116672257D02*
X130290225Y-116815114D01*
X130290225Y-116815114D02*
X130361654Y-116957971D01*
X130361654Y-116957971D02*
X130433082Y-117243685D01*
X130433082Y-117243685D02*
X130433082Y-117457971D01*
X130433082Y-117457971D02*
X130361654Y-117743685D01*
X130361654Y-117743685D02*
X130290225Y-117886542D01*
X130290225Y-117886542D02*
X130147368Y-118029400D01*
X130147368Y-118029400D02*
X129933082Y-118100828D01*
X129933082Y-118100828D02*
X129575939Y-118100828D01*
D10*
X149163922Y-121769819D02*
X149735350Y-121769819D01*
X149449636Y-122769819D02*
X149449636Y-121769819D01*
X149973446Y-121769819D02*
X150640112Y-122769819D01*
X150640112Y-121769819D02*
X149973446Y-122769819D01*
X150973446Y-121865057D02*
X151021065Y-121817438D01*
X151021065Y-121817438D02*
X151116303Y-121769819D01*
X151116303Y-121769819D02*
X151354398Y-121769819D01*
X151354398Y-121769819D02*
X151449636Y-121817438D01*
X151449636Y-121817438D02*
X151497255Y-121865057D01*
X151497255Y-121865057D02*
X151544874Y-121960295D01*
X151544874Y-121960295D02*
X151544874Y-122055533D01*
X151544874Y-122055533D02*
X151497255Y-122198390D01*
X151497255Y-122198390D02*
X150925827Y-122769819D01*
X150925827Y-122769819D02*
X151544874Y-122769819D01*
X154556779Y-122769819D02*
X154556779Y-121769819D01*
X154556779Y-121769819D02*
X154794874Y-121769819D01*
X154794874Y-121769819D02*
X154937731Y-121817438D01*
X154937731Y-121817438D02*
X155032969Y-121912676D01*
X155032969Y-121912676D02*
X155080588Y-122007914D01*
X155080588Y-122007914D02*
X155128207Y-122198390D01*
X155128207Y-122198390D02*
X155128207Y-122341247D01*
X155128207Y-122341247D02*
X155080588Y-122531723D01*
X155080588Y-122531723D02*
X155032969Y-122626961D01*
X155032969Y-122626961D02*
X154937731Y-122722200D01*
X154937731Y-122722200D02*
X154794874Y-122769819D01*
X154794874Y-122769819D02*
X154556779Y-122769819D01*
X156080588Y-122769819D02*
X155509160Y-122769819D01*
X155794874Y-122769819D02*
X155794874Y-121769819D01*
X155794874Y-121769819D02*
X155699636Y-121912676D01*
X155699636Y-121912676D02*
X155604398Y-122007914D01*
X155604398Y-122007914D02*
X155509160Y-122055533D01*
X156461541Y-121865057D02*
X156509160Y-121817438D01*
X156509160Y-121817438D02*
X156604398Y-121769819D01*
X156604398Y-121769819D02*
X156842493Y-121769819D01*
X156842493Y-121769819D02*
X156937731Y-121817438D01*
X156937731Y-121817438D02*
X156985350Y-121865057D01*
X156985350Y-121865057D02*
X157032969Y-121960295D01*
X157032969Y-121960295D02*
X157032969Y-122055533D01*
X157032969Y-122055533D02*
X156985350Y-122198390D01*
X156985350Y-122198390D02*
X156413922Y-122769819D01*
X156413922Y-122769819D02*
X157032969Y-122769819D01*
X70109523Y-80919795D02*
X70109523Y-80119795D01*
X70109523Y-80119795D02*
X70299999Y-80119795D01*
X70299999Y-80119795D02*
X70414285Y-80157890D01*
X70414285Y-80157890D02*
X70490475Y-80234080D01*
X70490475Y-80234080D02*
X70528570Y-80310271D01*
X70528570Y-80310271D02*
X70566666Y-80462652D01*
X70566666Y-80462652D02*
X70566666Y-80576938D01*
X70566666Y-80576938D02*
X70528570Y-80729319D01*
X70528570Y-80729319D02*
X70490475Y-80805509D01*
X70490475Y-80805509D02*
X70414285Y-80881700D01*
X70414285Y-80881700D02*
X70299999Y-80919795D01*
X70299999Y-80919795D02*
X70109523Y-80919795D01*
X71061904Y-80119795D02*
X71214285Y-80119795D01*
X71214285Y-80119795D02*
X71290475Y-80157890D01*
X71290475Y-80157890D02*
X71366666Y-80234080D01*
X71366666Y-80234080D02*
X71404761Y-80386461D01*
X71404761Y-80386461D02*
X71404761Y-80653128D01*
X71404761Y-80653128D02*
X71366666Y-80805509D01*
X71366666Y-80805509D02*
X71290475Y-80881700D01*
X71290475Y-80881700D02*
X71214285Y-80919795D01*
X71214285Y-80919795D02*
X71061904Y-80919795D01*
X71061904Y-80919795D02*
X70985713Y-80881700D01*
X70985713Y-80881700D02*
X70909523Y-80805509D01*
X70909523Y-80805509D02*
X70871427Y-80653128D01*
X70871427Y-80653128D02*
X70871427Y-80386461D01*
X70871427Y-80386461D02*
X70909523Y-80234080D01*
X70909523Y-80234080D02*
X70985713Y-80157890D01*
X70985713Y-80157890D02*
X71061904Y-80119795D01*
X71747618Y-80919795D02*
X71747618Y-80119795D01*
X71747618Y-80119795D02*
X72204761Y-80919795D01*
X72204761Y-80919795D02*
X72204761Y-80119795D01*
X72585713Y-80500747D02*
X72852379Y-80500747D01*
X72966665Y-80919795D02*
X72585713Y-80919795D01*
X72585713Y-80919795D02*
X72585713Y-80119795D01*
X72585713Y-80119795D02*
X72966665Y-80119795D01*
X81219819Y-38891792D02*
X80743628Y-39225125D01*
X81219819Y-39463220D02*
X80219819Y-39463220D01*
X80219819Y-39463220D02*
X80219819Y-39082268D01*
X80219819Y-39082268D02*
X80267438Y-38987030D01*
X80267438Y-38987030D02*
X80315057Y-38939411D01*
X80315057Y-38939411D02*
X80410295Y-38891792D01*
X80410295Y-38891792D02*
X80553152Y-38891792D01*
X80553152Y-38891792D02*
X80648390Y-38939411D01*
X80648390Y-38939411D02*
X80696009Y-38987030D01*
X80696009Y-38987030D02*
X80743628Y-39082268D01*
X80743628Y-39082268D02*
X80743628Y-39463220D01*
X80219819Y-38558458D02*
X81219819Y-37891792D01*
X80219819Y-37891792D02*
X81219819Y-38558458D01*
X87011428Y-68176057D02*
X87354285Y-68176057D01*
X87139999Y-67876057D02*
X87139999Y-68647485D01*
X87139999Y-68647485D02*
X87182856Y-68733200D01*
X87182856Y-68733200D02*
X87268571Y-68776057D01*
X87268571Y-68776057D02*
X87354285Y-68776057D01*
X87654285Y-68176057D02*
X87654285Y-69076057D01*
X87654285Y-68218914D02*
X87740000Y-68176057D01*
X87740000Y-68176057D02*
X87911428Y-68176057D01*
X87911428Y-68176057D02*
X87997142Y-68218914D01*
X87997142Y-68218914D02*
X88040000Y-68261771D01*
X88040000Y-68261771D02*
X88082857Y-68347485D01*
X88082857Y-68347485D02*
X88082857Y-68604628D01*
X88082857Y-68604628D02*
X88040000Y-68690342D01*
X88040000Y-68690342D02*
X87997142Y-68733200D01*
X87997142Y-68733200D02*
X87911428Y-68776057D01*
X87911428Y-68776057D02*
X87740000Y-68776057D01*
X87740000Y-68776057D02*
X87654285Y-68733200D01*
X88597143Y-68776057D02*
X88511428Y-68733200D01*
X88511428Y-68733200D02*
X88468571Y-68647485D01*
X88468571Y-68647485D02*
X88468571Y-67876057D01*
X89368572Y-67876057D02*
X88940000Y-67876057D01*
X88940000Y-67876057D02*
X88897143Y-68304628D01*
X88897143Y-68304628D02*
X88940000Y-68261771D01*
X88940000Y-68261771D02*
X89025715Y-68218914D01*
X89025715Y-68218914D02*
X89240000Y-68218914D01*
X89240000Y-68218914D02*
X89325715Y-68261771D01*
X89325715Y-68261771D02*
X89368572Y-68304628D01*
X89368572Y-68304628D02*
X89411429Y-68390342D01*
X89411429Y-68390342D02*
X89411429Y-68604628D01*
X89411429Y-68604628D02*
X89368572Y-68690342D01*
X89368572Y-68690342D02*
X89325715Y-68733200D01*
X89325715Y-68733200D02*
X89240000Y-68776057D01*
X89240000Y-68776057D02*
X89025715Y-68776057D01*
X89025715Y-68776057D02*
X88940000Y-68733200D01*
X88940000Y-68733200D02*
X88897143Y-68690342D01*
X90268572Y-68776057D02*
X89754286Y-68776057D01*
X90011429Y-68776057D02*
X90011429Y-67876057D01*
X90011429Y-67876057D02*
X89925715Y-68004628D01*
X89925715Y-68004628D02*
X89840000Y-68090342D01*
X89840000Y-68090342D02*
X89754286Y-68133200D01*
X91125715Y-68776057D02*
X90611429Y-68776057D01*
X90868572Y-68776057D02*
X90868572Y-67876057D01*
X90868572Y-67876057D02*
X90782858Y-68004628D01*
X90782858Y-68004628D02*
X90697143Y-68090342D01*
X90697143Y-68090342D02*
X90611429Y-68133200D01*
X91682858Y-67876057D02*
X91768572Y-67876057D01*
X91768572Y-67876057D02*
X91854286Y-67918914D01*
X91854286Y-67918914D02*
X91897144Y-67961771D01*
X91897144Y-67961771D02*
X91940001Y-68047485D01*
X91940001Y-68047485D02*
X91982858Y-68218914D01*
X91982858Y-68218914D02*
X91982858Y-68433200D01*
X91982858Y-68433200D02*
X91940001Y-68604628D01*
X91940001Y-68604628D02*
X91897144Y-68690342D01*
X91897144Y-68690342D02*
X91854286Y-68733200D01*
X91854286Y-68733200D02*
X91768572Y-68776057D01*
X91768572Y-68776057D02*
X91682858Y-68776057D01*
X91682858Y-68776057D02*
X91597144Y-68733200D01*
X91597144Y-68733200D02*
X91554286Y-68690342D01*
X91554286Y-68690342D02*
X91511429Y-68604628D01*
X91511429Y-68604628D02*
X91468572Y-68433200D01*
X91468572Y-68433200D02*
X91468572Y-68218914D01*
X91468572Y-68218914D02*
X91511429Y-68047485D01*
X91511429Y-68047485D02*
X91554286Y-67961771D01*
X91554286Y-67961771D02*
X91597144Y-67918914D01*
X91597144Y-67918914D02*
X91682858Y-67876057D01*
D11*
X89935715Y-114335912D02*
X90435715Y-115835912D01*
X90435715Y-115835912D02*
X90935715Y-114335912D01*
X91435714Y-115050198D02*
X91935714Y-115050198D01*
X92150000Y-115835912D02*
X91435714Y-115835912D01*
X91435714Y-115835912D02*
X91435714Y-114335912D01*
X91435714Y-114335912D02*
X92150000Y-114335912D01*
X92650000Y-114335912D02*
X93650000Y-115835912D01*
X93650000Y-114335912D02*
X92650000Y-115835912D01*
X94007143Y-114335912D02*
X94864286Y-114335912D01*
X94435714Y-115835912D02*
X94435714Y-114335912D01*
X87221428Y-118179400D02*
X87435714Y-118250828D01*
X87435714Y-118250828D02*
X87792856Y-118250828D01*
X87792856Y-118250828D02*
X87935714Y-118179400D01*
X87935714Y-118179400D02*
X88007142Y-118107971D01*
X88007142Y-118107971D02*
X88078571Y-117965114D01*
X88078571Y-117965114D02*
X88078571Y-117822257D01*
X88078571Y-117822257D02*
X88007142Y-117679400D01*
X88007142Y-117679400D02*
X87935714Y-117607971D01*
X87935714Y-117607971D02*
X87792856Y-117536542D01*
X87792856Y-117536542D02*
X87507142Y-117465114D01*
X87507142Y-117465114D02*
X87364285Y-117393685D01*
X87364285Y-117393685D02*
X87292856Y-117322257D01*
X87292856Y-117322257D02*
X87221428Y-117179400D01*
X87221428Y-117179400D02*
X87221428Y-117036542D01*
X87221428Y-117036542D02*
X87292856Y-116893685D01*
X87292856Y-116893685D02*
X87364285Y-116822257D01*
X87364285Y-116822257D02*
X87507142Y-116750828D01*
X87507142Y-116750828D02*
X87864285Y-116750828D01*
X87864285Y-116750828D02*
X88078571Y-116822257D01*
X88578570Y-116750828D02*
X88935713Y-118250828D01*
X88935713Y-118250828D02*
X89221427Y-117179400D01*
X89221427Y-117179400D02*
X89507142Y-118250828D01*
X89507142Y-118250828D02*
X89864285Y-116750828D01*
X90435713Y-118250828D02*
X90435713Y-116750828D01*
X90935714Y-116750828D02*
X91792857Y-116750828D01*
X91364285Y-118250828D02*
X91364285Y-116750828D01*
X93149999Y-118107971D02*
X93078571Y-118179400D01*
X93078571Y-118179400D02*
X92864285Y-118250828D01*
X92864285Y-118250828D02*
X92721428Y-118250828D01*
X92721428Y-118250828D02*
X92507142Y-118179400D01*
X92507142Y-118179400D02*
X92364285Y-118036542D01*
X92364285Y-118036542D02*
X92292856Y-117893685D01*
X92292856Y-117893685D02*
X92221428Y-117607971D01*
X92221428Y-117607971D02*
X92221428Y-117393685D01*
X92221428Y-117393685D02*
X92292856Y-117107971D01*
X92292856Y-117107971D02*
X92364285Y-116965114D01*
X92364285Y-116965114D02*
X92507142Y-116822257D01*
X92507142Y-116822257D02*
X92721428Y-116750828D01*
X92721428Y-116750828D02*
X92864285Y-116750828D01*
X92864285Y-116750828D02*
X93078571Y-116822257D01*
X93078571Y-116822257D02*
X93149999Y-116893685D01*
X93792856Y-118250828D02*
X93792856Y-116750828D01*
X93792856Y-117465114D02*
X94649999Y-117465114D01*
X94649999Y-118250828D02*
X94649999Y-116750828D01*
X95364285Y-117465114D02*
X95864285Y-117465114D01*
X96078571Y-118250828D02*
X95364285Y-118250828D01*
X95364285Y-118250828D02*
X95364285Y-116750828D01*
X95364285Y-116750828D02*
X96078571Y-116750828D01*
X96721428Y-118250828D02*
X96721428Y-116750828D01*
X96721428Y-116750828D02*
X97078571Y-116750828D01*
X97078571Y-116750828D02*
X97292857Y-116822257D01*
X97292857Y-116822257D02*
X97435714Y-116965114D01*
X97435714Y-116965114D02*
X97507143Y-117107971D01*
X97507143Y-117107971D02*
X97578571Y-117393685D01*
X97578571Y-117393685D02*
X97578571Y-117607971D01*
X97578571Y-117607971D02*
X97507143Y-117893685D01*
X97507143Y-117893685D02*
X97435714Y-118036542D01*
X97435714Y-118036542D02*
X97292857Y-118179400D01*
X97292857Y-118179400D02*
X97078571Y-118250828D01*
X97078571Y-118250828D02*
X96721428Y-118250828D01*
X106928571Y-106378139D02*
X106857143Y-106449568D01*
X106857143Y-106449568D02*
X106642857Y-106520996D01*
X106642857Y-106520996D02*
X106500000Y-106520996D01*
X106500000Y-106520996D02*
X106285714Y-106449568D01*
X106285714Y-106449568D02*
X106142857Y-106306710D01*
X106142857Y-106306710D02*
X106071428Y-106163853D01*
X106071428Y-106163853D02*
X106000000Y-105878139D01*
X106000000Y-105878139D02*
X106000000Y-105663853D01*
X106000000Y-105663853D02*
X106071428Y-105378139D01*
X106071428Y-105378139D02*
X106142857Y-105235282D01*
X106142857Y-105235282D02*
X106285714Y-105092425D01*
X106285714Y-105092425D02*
X106500000Y-105020996D01*
X106500000Y-105020996D02*
X106642857Y-105020996D01*
X106642857Y-105020996D02*
X106857143Y-105092425D01*
X106857143Y-105092425D02*
X106928571Y-105163853D01*
X108214286Y-105520996D02*
X108214286Y-106520996D01*
X107571428Y-105520996D02*
X107571428Y-106306710D01*
X107571428Y-106306710D02*
X107642857Y-106449568D01*
X107642857Y-106449568D02*
X107785714Y-106520996D01*
X107785714Y-106520996D02*
X108000000Y-106520996D01*
X108000000Y-106520996D02*
X108142857Y-106449568D01*
X108142857Y-106449568D02*
X108214286Y-106378139D01*
X108928571Y-106520996D02*
X108928571Y-105520996D01*
X108928571Y-105806710D02*
X109000000Y-105663853D01*
X109000000Y-105663853D02*
X109071429Y-105592425D01*
X109071429Y-105592425D02*
X109214286Y-105520996D01*
X109214286Y-105520996D02*
X109357143Y-105520996D01*
X109857142Y-106520996D02*
X109857142Y-105520996D01*
X109857142Y-105806710D02*
X109928571Y-105663853D01*
X109928571Y-105663853D02*
X110000000Y-105592425D01*
X110000000Y-105592425D02*
X110142857Y-105520996D01*
X110142857Y-105520996D02*
X110285714Y-105520996D01*
X111357142Y-106449568D02*
X111214285Y-106520996D01*
X111214285Y-106520996D02*
X110928571Y-106520996D01*
X110928571Y-106520996D02*
X110785713Y-106449568D01*
X110785713Y-106449568D02*
X110714285Y-106306710D01*
X110714285Y-106306710D02*
X110714285Y-105735282D01*
X110714285Y-105735282D02*
X110785713Y-105592425D01*
X110785713Y-105592425D02*
X110928571Y-105520996D01*
X110928571Y-105520996D02*
X111214285Y-105520996D01*
X111214285Y-105520996D02*
X111357142Y-105592425D01*
X111357142Y-105592425D02*
X111428571Y-105735282D01*
X111428571Y-105735282D02*
X111428571Y-105878139D01*
X111428571Y-105878139D02*
X110714285Y-106020996D01*
X112071427Y-105520996D02*
X112071427Y-106520996D01*
X112071427Y-105663853D02*
X112142856Y-105592425D01*
X112142856Y-105592425D02*
X112285713Y-105520996D01*
X112285713Y-105520996D02*
X112499999Y-105520996D01*
X112499999Y-105520996D02*
X112642856Y-105592425D01*
X112642856Y-105592425D02*
X112714285Y-105735282D01*
X112714285Y-105735282D02*
X112714285Y-106520996D01*
X113214285Y-105520996D02*
X113785713Y-105520996D01*
X113428570Y-105020996D02*
X113428570Y-106306710D01*
X113428570Y-106306710D02*
X113499999Y-106449568D01*
X113499999Y-106449568D02*
X113642856Y-106520996D01*
X113642856Y-106520996D02*
X113785713Y-106520996D01*
X115214285Y-105520996D02*
X115785713Y-105520996D01*
X115428570Y-105020996D02*
X115428570Y-106306710D01*
X115428570Y-106306710D02*
X115499999Y-106449568D01*
X115499999Y-106449568D02*
X115642856Y-106520996D01*
X115642856Y-106520996D02*
X115785713Y-106520996D01*
X116499999Y-106520996D02*
X116357142Y-106449568D01*
X116357142Y-106449568D02*
X116285713Y-106378139D01*
X116285713Y-106378139D02*
X116214285Y-106235282D01*
X116214285Y-106235282D02*
X116214285Y-105806710D01*
X116214285Y-105806710D02*
X116285713Y-105663853D01*
X116285713Y-105663853D02*
X116357142Y-105592425D01*
X116357142Y-105592425D02*
X116499999Y-105520996D01*
X116499999Y-105520996D02*
X116714285Y-105520996D01*
X116714285Y-105520996D02*
X116857142Y-105592425D01*
X116857142Y-105592425D02*
X116928571Y-105663853D01*
X116928571Y-105663853D02*
X116999999Y-105806710D01*
X116999999Y-105806710D02*
X116999999Y-106235282D01*
X116999999Y-106235282D02*
X116928571Y-106378139D01*
X116928571Y-106378139D02*
X116857142Y-106449568D01*
X116857142Y-106449568D02*
X116714285Y-106520996D01*
X116714285Y-106520996D02*
X116499999Y-106520996D01*
X107500000Y-107435912D02*
X108000000Y-108935912D01*
X108000000Y-108935912D02*
X108500000Y-107435912D01*
X109214285Y-108935912D02*
X109071428Y-108864484D01*
X109071428Y-108864484D02*
X108999999Y-108793055D01*
X108999999Y-108793055D02*
X108928571Y-108650198D01*
X108928571Y-108650198D02*
X108928571Y-108221626D01*
X108928571Y-108221626D02*
X108999999Y-108078769D01*
X108999999Y-108078769D02*
X109071428Y-108007341D01*
X109071428Y-108007341D02*
X109214285Y-107935912D01*
X109214285Y-107935912D02*
X109428571Y-107935912D01*
X109428571Y-107935912D02*
X109571428Y-108007341D01*
X109571428Y-108007341D02*
X109642857Y-108078769D01*
X109642857Y-108078769D02*
X109714285Y-108221626D01*
X109714285Y-108221626D02*
X109714285Y-108650198D01*
X109714285Y-108650198D02*
X109642857Y-108793055D01*
X109642857Y-108793055D02*
X109571428Y-108864484D01*
X109571428Y-108864484D02*
X109428571Y-108935912D01*
X109428571Y-108935912D02*
X109214285Y-108935912D01*
X110571428Y-108935912D02*
X110428571Y-108864484D01*
X110428571Y-108864484D02*
X110357142Y-108721626D01*
X110357142Y-108721626D02*
X110357142Y-107435912D01*
X110928571Y-107935912D02*
X111499999Y-107935912D01*
X111142856Y-107435912D02*
X111142856Y-108721626D01*
X111142856Y-108721626D02*
X111214285Y-108864484D01*
X111214285Y-108864484D02*
X111357142Y-108935912D01*
X111357142Y-108935912D02*
X111499999Y-108935912D01*
X112642857Y-108935912D02*
X112642857Y-108150198D01*
X112642857Y-108150198D02*
X112571428Y-108007341D01*
X112571428Y-108007341D02*
X112428571Y-107935912D01*
X112428571Y-107935912D02*
X112142857Y-107935912D01*
X112142857Y-107935912D02*
X111999999Y-108007341D01*
X112642857Y-108864484D02*
X112499999Y-108935912D01*
X112499999Y-108935912D02*
X112142857Y-108935912D01*
X112142857Y-108935912D02*
X111999999Y-108864484D01*
X111999999Y-108864484D02*
X111928571Y-108721626D01*
X111928571Y-108721626D02*
X111928571Y-108578769D01*
X111928571Y-108578769D02*
X111999999Y-108435912D01*
X111999999Y-108435912D02*
X112142857Y-108364484D01*
X112142857Y-108364484D02*
X112499999Y-108364484D01*
X112499999Y-108364484D02*
X112642857Y-108293055D01*
X114000000Y-107935912D02*
X114000000Y-109150198D01*
X114000000Y-109150198D02*
X113928571Y-109293055D01*
X113928571Y-109293055D02*
X113857142Y-109364484D01*
X113857142Y-109364484D02*
X113714285Y-109435912D01*
X113714285Y-109435912D02*
X113500000Y-109435912D01*
X113500000Y-109435912D02*
X113357142Y-109364484D01*
X114000000Y-108864484D02*
X113857142Y-108935912D01*
X113857142Y-108935912D02*
X113571428Y-108935912D01*
X113571428Y-108935912D02*
X113428571Y-108864484D01*
X113428571Y-108864484D02*
X113357142Y-108793055D01*
X113357142Y-108793055D02*
X113285714Y-108650198D01*
X113285714Y-108650198D02*
X113285714Y-108221626D01*
X113285714Y-108221626D02*
X113357142Y-108078769D01*
X113357142Y-108078769D02*
X113428571Y-108007341D01*
X113428571Y-108007341D02*
X113571428Y-107935912D01*
X113571428Y-107935912D02*
X113857142Y-107935912D01*
X113857142Y-107935912D02*
X114000000Y-108007341D01*
X115285714Y-108864484D02*
X115142857Y-108935912D01*
X115142857Y-108935912D02*
X114857143Y-108935912D01*
X114857143Y-108935912D02*
X114714285Y-108864484D01*
X114714285Y-108864484D02*
X114642857Y-108721626D01*
X114642857Y-108721626D02*
X114642857Y-108150198D01*
X114642857Y-108150198D02*
X114714285Y-108007341D01*
X114714285Y-108007341D02*
X114857143Y-107935912D01*
X114857143Y-107935912D02*
X115142857Y-107935912D01*
X115142857Y-107935912D02*
X115285714Y-108007341D01*
X115285714Y-108007341D02*
X115357143Y-108150198D01*
X115357143Y-108150198D02*
X115357143Y-108293055D01*
X115357143Y-108293055D02*
X114642857Y-108435912D01*
X107392857Y-111207971D02*
X107321429Y-111279400D01*
X107321429Y-111279400D02*
X107107143Y-111350828D01*
X107107143Y-111350828D02*
X106964286Y-111350828D01*
X106964286Y-111350828D02*
X106750000Y-111279400D01*
X106750000Y-111279400D02*
X106607143Y-111136542D01*
X106607143Y-111136542D02*
X106535714Y-110993685D01*
X106535714Y-110993685D02*
X106464286Y-110707971D01*
X106464286Y-110707971D02*
X106464286Y-110493685D01*
X106464286Y-110493685D02*
X106535714Y-110207971D01*
X106535714Y-110207971D02*
X106607143Y-110065114D01*
X106607143Y-110065114D02*
X106750000Y-109922257D01*
X106750000Y-109922257D02*
X106964286Y-109850828D01*
X106964286Y-109850828D02*
X107107143Y-109850828D01*
X107107143Y-109850828D02*
X107321429Y-109922257D01*
X107321429Y-109922257D02*
X107392857Y-109993685D01*
X108250000Y-111350828D02*
X108107143Y-111279400D01*
X108107143Y-111279400D02*
X108035714Y-111207971D01*
X108035714Y-111207971D02*
X107964286Y-111065114D01*
X107964286Y-111065114D02*
X107964286Y-110636542D01*
X107964286Y-110636542D02*
X108035714Y-110493685D01*
X108035714Y-110493685D02*
X108107143Y-110422257D01*
X108107143Y-110422257D02*
X108250000Y-110350828D01*
X108250000Y-110350828D02*
X108464286Y-110350828D01*
X108464286Y-110350828D02*
X108607143Y-110422257D01*
X108607143Y-110422257D02*
X108678572Y-110493685D01*
X108678572Y-110493685D02*
X108750000Y-110636542D01*
X108750000Y-110636542D02*
X108750000Y-111065114D01*
X108750000Y-111065114D02*
X108678572Y-111207971D01*
X108678572Y-111207971D02*
X108607143Y-111279400D01*
X108607143Y-111279400D02*
X108464286Y-111350828D01*
X108464286Y-111350828D02*
X108250000Y-111350828D01*
X109392857Y-110350828D02*
X109392857Y-111350828D01*
X109392857Y-110493685D02*
X109464286Y-110422257D01*
X109464286Y-110422257D02*
X109607143Y-110350828D01*
X109607143Y-110350828D02*
X109821429Y-110350828D01*
X109821429Y-110350828D02*
X109964286Y-110422257D01*
X109964286Y-110422257D02*
X110035715Y-110565114D01*
X110035715Y-110565114D02*
X110035715Y-111350828D01*
X110607143Y-110350828D02*
X110964286Y-111350828D01*
X110964286Y-111350828D02*
X111321429Y-110350828D01*
X112464286Y-111279400D02*
X112321429Y-111350828D01*
X112321429Y-111350828D02*
X112035715Y-111350828D01*
X112035715Y-111350828D02*
X111892857Y-111279400D01*
X111892857Y-111279400D02*
X111821429Y-111136542D01*
X111821429Y-111136542D02*
X111821429Y-110565114D01*
X111821429Y-110565114D02*
X111892857Y-110422257D01*
X111892857Y-110422257D02*
X112035715Y-110350828D01*
X112035715Y-110350828D02*
X112321429Y-110350828D01*
X112321429Y-110350828D02*
X112464286Y-110422257D01*
X112464286Y-110422257D02*
X112535715Y-110565114D01*
X112535715Y-110565114D02*
X112535715Y-110707971D01*
X112535715Y-110707971D02*
X111821429Y-110850828D01*
X113178571Y-111350828D02*
X113178571Y-110350828D01*
X113178571Y-110636542D02*
X113250000Y-110493685D01*
X113250000Y-110493685D02*
X113321429Y-110422257D01*
X113321429Y-110422257D02*
X113464286Y-110350828D01*
X113464286Y-110350828D02*
X113607143Y-110350828D01*
X113892857Y-110350828D02*
X114464285Y-110350828D01*
X114107142Y-109850828D02*
X114107142Y-111136542D01*
X114107142Y-111136542D02*
X114178571Y-111279400D01*
X114178571Y-111279400D02*
X114321428Y-111350828D01*
X114321428Y-111350828D02*
X114464285Y-111350828D01*
X115535714Y-111279400D02*
X115392857Y-111350828D01*
X115392857Y-111350828D02*
X115107143Y-111350828D01*
X115107143Y-111350828D02*
X114964285Y-111279400D01*
X114964285Y-111279400D02*
X114892857Y-111136542D01*
X114892857Y-111136542D02*
X114892857Y-110565114D01*
X114892857Y-110565114D02*
X114964285Y-110422257D01*
X114964285Y-110422257D02*
X115107143Y-110350828D01*
X115107143Y-110350828D02*
X115392857Y-110350828D01*
X115392857Y-110350828D02*
X115535714Y-110422257D01*
X115535714Y-110422257D02*
X115607143Y-110565114D01*
X115607143Y-110565114D02*
X115607143Y-110707971D01*
X115607143Y-110707971D02*
X114892857Y-110850828D01*
X116249999Y-111350828D02*
X116249999Y-110350828D01*
X116249999Y-110636542D02*
X116321428Y-110493685D01*
X116321428Y-110493685D02*
X116392857Y-110422257D01*
X116392857Y-110422257D02*
X116535714Y-110350828D01*
X116535714Y-110350828D02*
X116678571Y-110350828D01*
D10*
X71290476Y-72600390D02*
X71214286Y-72562295D01*
X71214286Y-72562295D02*
X71100000Y-72562295D01*
X71100000Y-72562295D02*
X70985714Y-72600390D01*
X70985714Y-72600390D02*
X70909524Y-72676580D01*
X70909524Y-72676580D02*
X70871429Y-72752771D01*
X70871429Y-72752771D02*
X70833333Y-72905152D01*
X70833333Y-72905152D02*
X70833333Y-73019438D01*
X70833333Y-73019438D02*
X70871429Y-73171819D01*
X70871429Y-73171819D02*
X70909524Y-73248009D01*
X70909524Y-73248009D02*
X70985714Y-73324200D01*
X70985714Y-73324200D02*
X71100000Y-73362295D01*
X71100000Y-73362295D02*
X71176191Y-73362295D01*
X71176191Y-73362295D02*
X71290476Y-73324200D01*
X71290476Y-73324200D02*
X71328572Y-73286104D01*
X71328572Y-73286104D02*
X71328572Y-73019438D01*
X71328572Y-73019438D02*
X71176191Y-73019438D01*
X71671429Y-73362295D02*
X71671429Y-72562295D01*
X71671429Y-72562295D02*
X72128572Y-73362295D01*
X72128572Y-73362295D02*
X72128572Y-72562295D01*
X72509524Y-73362295D02*
X72509524Y-72562295D01*
X72509524Y-72562295D02*
X72700000Y-72562295D01*
X72700000Y-72562295D02*
X72814286Y-72600390D01*
X72814286Y-72600390D02*
X72890476Y-72676580D01*
X72890476Y-72676580D02*
X72928571Y-72752771D01*
X72928571Y-72752771D02*
X72966667Y-72905152D01*
X72966667Y-72905152D02*
X72966667Y-73019438D01*
X72966667Y-73019438D02*
X72928571Y-73171819D01*
X72928571Y-73171819D02*
X72890476Y-73248009D01*
X72890476Y-73248009D02*
X72814286Y-73324200D01*
X72814286Y-73324200D02*
X72700000Y-73362295D01*
X72700000Y-73362295D02*
X72509524Y-73362295D01*
X71241541Y-77669819D02*
X71860588Y-77669819D01*
X71860588Y-77669819D02*
X71527255Y-78050771D01*
X71527255Y-78050771D02*
X71670112Y-78050771D01*
X71670112Y-78050771D02*
X71765350Y-78098390D01*
X71765350Y-78098390D02*
X71812969Y-78146009D01*
X71812969Y-78146009D02*
X71860588Y-78241247D01*
X71860588Y-78241247D02*
X71860588Y-78479342D01*
X71860588Y-78479342D02*
X71812969Y-78574580D01*
X71812969Y-78574580D02*
X71765350Y-78622200D01*
X71765350Y-78622200D02*
X71670112Y-78669819D01*
X71670112Y-78669819D02*
X71384398Y-78669819D01*
X71384398Y-78669819D02*
X71289160Y-78622200D01*
X71289160Y-78622200D02*
X71241541Y-78574580D01*
X72146303Y-77669819D02*
X72479636Y-78669819D01*
X72479636Y-78669819D02*
X72812969Y-77669819D01*
X134580588Y-121817438D02*
X134485350Y-121769819D01*
X134485350Y-121769819D02*
X134342493Y-121769819D01*
X134342493Y-121769819D02*
X134199636Y-121817438D01*
X134199636Y-121817438D02*
X134104398Y-121912676D01*
X134104398Y-121912676D02*
X134056779Y-122007914D01*
X134056779Y-122007914D02*
X134009160Y-122198390D01*
X134009160Y-122198390D02*
X134009160Y-122341247D01*
X134009160Y-122341247D02*
X134056779Y-122531723D01*
X134056779Y-122531723D02*
X134104398Y-122626961D01*
X134104398Y-122626961D02*
X134199636Y-122722200D01*
X134199636Y-122722200D02*
X134342493Y-122769819D01*
X134342493Y-122769819D02*
X134437731Y-122769819D01*
X134437731Y-122769819D02*
X134580588Y-122722200D01*
X134580588Y-122722200D02*
X134628207Y-122674580D01*
X134628207Y-122674580D02*
X134628207Y-122341247D01*
X134628207Y-122341247D02*
X134437731Y-122341247D01*
X135056779Y-122769819D02*
X135056779Y-121769819D01*
X135056779Y-121769819D02*
X135628207Y-122769819D01*
X135628207Y-122769819D02*
X135628207Y-121769819D01*
X136104398Y-122769819D02*
X136104398Y-121769819D01*
X136104398Y-121769819D02*
X136342493Y-121769819D01*
X136342493Y-121769819D02*
X136485350Y-121817438D01*
X136485350Y-121817438D02*
X136580588Y-121912676D01*
X136580588Y-121912676D02*
X136628207Y-122007914D01*
X136628207Y-122007914D02*
X136675826Y-122198390D01*
X136675826Y-122198390D02*
X136675826Y-122341247D01*
X136675826Y-122341247D02*
X136628207Y-122531723D01*
X136628207Y-122531723D02*
X136580588Y-122626961D01*
X136580588Y-122626961D02*
X136485350Y-122722200D01*
X136485350Y-122722200D02*
X136342493Y-122769819D01*
X136342493Y-122769819D02*
X136104398Y-122769819D01*
X132939160Y-102584104D02*
X133415350Y-102584104D01*
X132843922Y-102869819D02*
X133177255Y-101869819D01*
X133177255Y-101869819D02*
X133510588Y-102869819D01*
X133748684Y-101869819D02*
X134367731Y-101869819D01*
X134367731Y-101869819D02*
X134034398Y-102250771D01*
X134034398Y-102250771D02*
X134177255Y-102250771D01*
X134177255Y-102250771D02*
X134272493Y-102298390D01*
X134272493Y-102298390D02*
X134320112Y-102346009D01*
X134320112Y-102346009D02*
X134367731Y-102441247D01*
X134367731Y-102441247D02*
X134367731Y-102679342D01*
X134367731Y-102679342D02*
X134320112Y-102774580D01*
X134320112Y-102774580D02*
X134272493Y-102822200D01*
X134272493Y-102822200D02*
X134177255Y-102869819D01*
X134177255Y-102869819D02*
X133891541Y-102869819D01*
X133891541Y-102869819D02*
X133796303Y-102822200D01*
X133796303Y-102822200D02*
X133748684Y-102774580D01*
X69719048Y-75862295D02*
X69719048Y-75062295D01*
X69719048Y-75062295D02*
X69909524Y-75062295D01*
X69909524Y-75062295D02*
X70023810Y-75100390D01*
X70023810Y-75100390D02*
X70100000Y-75176580D01*
X70100000Y-75176580D02*
X70138095Y-75252771D01*
X70138095Y-75252771D02*
X70176191Y-75405152D01*
X70176191Y-75405152D02*
X70176191Y-75519438D01*
X70176191Y-75519438D02*
X70138095Y-75671819D01*
X70138095Y-75671819D02*
X70100000Y-75748009D01*
X70100000Y-75748009D02*
X70023810Y-75824200D01*
X70023810Y-75824200D02*
X69909524Y-75862295D01*
X69909524Y-75862295D02*
X69719048Y-75862295D01*
X70519048Y-75443247D02*
X70785714Y-75443247D01*
X70900000Y-75862295D02*
X70519048Y-75862295D01*
X70519048Y-75862295D02*
X70519048Y-75062295D01*
X70519048Y-75062295D02*
X70900000Y-75062295D01*
X71623810Y-75862295D02*
X71242858Y-75862295D01*
X71242858Y-75862295D02*
X71242858Y-75062295D01*
X71852381Y-75633723D02*
X72233334Y-75633723D01*
X71776191Y-75862295D02*
X72042858Y-75062295D01*
X72042858Y-75062295D02*
X72309524Y-75862295D01*
X72728572Y-75481342D02*
X72728572Y-75862295D01*
X72461905Y-75062295D02*
X72728572Y-75481342D01*
X72728572Y-75481342D02*
X72995238Y-75062295D01*
X132939160Y-95322200D02*
X133082017Y-95369819D01*
X133082017Y-95369819D02*
X133320112Y-95369819D01*
X133320112Y-95369819D02*
X133415350Y-95322200D01*
X133415350Y-95322200D02*
X133462969Y-95274580D01*
X133462969Y-95274580D02*
X133510588Y-95179342D01*
X133510588Y-95179342D02*
X133510588Y-95084104D01*
X133510588Y-95084104D02*
X133462969Y-94988866D01*
X133462969Y-94988866D02*
X133415350Y-94941247D01*
X133415350Y-94941247D02*
X133320112Y-94893628D01*
X133320112Y-94893628D02*
X133129636Y-94846009D01*
X133129636Y-94846009D02*
X133034398Y-94798390D01*
X133034398Y-94798390D02*
X132986779Y-94750771D01*
X132986779Y-94750771D02*
X132939160Y-94655533D01*
X132939160Y-94655533D02*
X132939160Y-94560295D01*
X132939160Y-94560295D02*
X132986779Y-94465057D01*
X132986779Y-94465057D02*
X133034398Y-94417438D01*
X133034398Y-94417438D02*
X133129636Y-94369819D01*
X133129636Y-94369819D02*
X133367731Y-94369819D01*
X133367731Y-94369819D02*
X133510588Y-94417438D01*
X133939160Y-95369819D02*
X133939160Y-94369819D01*
X133939160Y-94369819D02*
X134177255Y-94369819D01*
X134177255Y-94369819D02*
X134320112Y-94417438D01*
X134320112Y-94417438D02*
X134415350Y-94512676D01*
X134415350Y-94512676D02*
X134462969Y-94607914D01*
X134462969Y-94607914D02*
X134510588Y-94798390D01*
X134510588Y-94798390D02*
X134510588Y-94941247D01*
X134510588Y-94941247D02*
X134462969Y-95131723D01*
X134462969Y-95131723D02*
X134415350Y-95226961D01*
X134415350Y-95226961D02*
X134320112Y-95322200D01*
X134320112Y-95322200D02*
X134177255Y-95369819D01*
X134177255Y-95369819D02*
X133939160Y-95369819D01*
X134891541Y-95084104D02*
X135367731Y-95084104D01*
X134796303Y-95369819D02*
X135129636Y-94369819D01*
X135129636Y-94369819D02*
X135462969Y-95369819D01*
X95404819Y-41516666D02*
X94928628Y-41849999D01*
X95404819Y-42088094D02*
X94404819Y-42088094D01*
X94404819Y-42088094D02*
X94404819Y-41707142D01*
X94404819Y-41707142D02*
X94452438Y-41611904D01*
X94452438Y-41611904D02*
X94500057Y-41564285D01*
X94500057Y-41564285D02*
X94595295Y-41516666D01*
X94595295Y-41516666D02*
X94738152Y-41516666D01*
X94738152Y-41516666D02*
X94833390Y-41564285D01*
X94833390Y-41564285D02*
X94881009Y-41611904D01*
X94881009Y-41611904D02*
X94928628Y-41707142D01*
X94928628Y-41707142D02*
X94928628Y-42088094D01*
X94404819Y-40611904D02*
X94404819Y-41088094D01*
X94404819Y-41088094D02*
X94881009Y-41135713D01*
X94881009Y-41135713D02*
X94833390Y-41088094D01*
X94833390Y-41088094D02*
X94785771Y-40992856D01*
X94785771Y-40992856D02*
X94785771Y-40754761D01*
X94785771Y-40754761D02*
X94833390Y-40659523D01*
X94833390Y-40659523D02*
X94881009Y-40611904D01*
X94881009Y-40611904D02*
X94976247Y-40564285D01*
X94976247Y-40564285D02*
X95214342Y-40564285D01*
X95214342Y-40564285D02*
X95309580Y-40611904D01*
X95309580Y-40611904D02*
X95357200Y-40659523D01*
X95357200Y-40659523D02*
X95404819Y-40754761D01*
X95404819Y-40754761D02*
X95404819Y-40992856D01*
X95404819Y-40992856D02*
X95357200Y-41088094D01*
X95357200Y-41088094D02*
X95309580Y-41135713D01*
X65738095Y-100807200D02*
X65880952Y-100854819D01*
X65880952Y-100854819D02*
X66119047Y-100854819D01*
X66119047Y-100854819D02*
X66214285Y-100807200D01*
X66214285Y-100807200D02*
X66261904Y-100759580D01*
X66261904Y-100759580D02*
X66309523Y-100664342D01*
X66309523Y-100664342D02*
X66309523Y-100569104D01*
X66309523Y-100569104D02*
X66261904Y-100473866D01*
X66261904Y-100473866D02*
X66214285Y-100426247D01*
X66214285Y-100426247D02*
X66119047Y-100378628D01*
X66119047Y-100378628D02*
X65928571Y-100331009D01*
X65928571Y-100331009D02*
X65833333Y-100283390D01*
X65833333Y-100283390D02*
X65785714Y-100235771D01*
X65785714Y-100235771D02*
X65738095Y-100140533D01*
X65738095Y-100140533D02*
X65738095Y-100045295D01*
X65738095Y-100045295D02*
X65785714Y-99950057D01*
X65785714Y-99950057D02*
X65833333Y-99902438D01*
X65833333Y-99902438D02*
X65928571Y-99854819D01*
X65928571Y-99854819D02*
X66166666Y-99854819D01*
X66166666Y-99854819D02*
X66309523Y-99902438D01*
X66690476Y-99950057D02*
X66738095Y-99902438D01*
X66738095Y-99902438D02*
X66833333Y-99854819D01*
X66833333Y-99854819D02*
X67071428Y-99854819D01*
X67071428Y-99854819D02*
X67166666Y-99902438D01*
X67166666Y-99902438D02*
X67214285Y-99950057D01*
X67214285Y-99950057D02*
X67261904Y-100045295D01*
X67261904Y-100045295D02*
X67261904Y-100140533D01*
X67261904Y-100140533D02*
X67214285Y-100283390D01*
X67214285Y-100283390D02*
X66642857Y-100854819D01*
X66642857Y-100854819D02*
X67261904Y-100854819D01*
X80978095Y-68022319D02*
X80978095Y-68831842D01*
X80978095Y-68831842D02*
X81025714Y-68927080D01*
X81025714Y-68927080D02*
X81073333Y-68974700D01*
X81073333Y-68974700D02*
X81168571Y-69022319D01*
X81168571Y-69022319D02*
X81359047Y-69022319D01*
X81359047Y-69022319D02*
X81454285Y-68974700D01*
X81454285Y-68974700D02*
X81501904Y-68927080D01*
X81501904Y-68927080D02*
X81549523Y-68831842D01*
X81549523Y-68831842D02*
X81549523Y-68022319D01*
X82549523Y-69022319D02*
X81978095Y-69022319D01*
X82263809Y-69022319D02*
X82263809Y-68022319D01*
X82263809Y-68022319D02*
X82168571Y-68165176D01*
X82168571Y-68165176D02*
X82073333Y-68260414D01*
X82073333Y-68260414D02*
X81978095Y-68308033D01*
X90647142Y-82272319D02*
X90313809Y-81796128D01*
X90075714Y-82272319D02*
X90075714Y-81272319D01*
X90075714Y-81272319D02*
X90456666Y-81272319D01*
X90456666Y-81272319D02*
X90551904Y-81319938D01*
X90551904Y-81319938D02*
X90599523Y-81367557D01*
X90599523Y-81367557D02*
X90647142Y-81462795D01*
X90647142Y-81462795D02*
X90647142Y-81605652D01*
X90647142Y-81605652D02*
X90599523Y-81700890D01*
X90599523Y-81700890D02*
X90551904Y-81748509D01*
X90551904Y-81748509D02*
X90456666Y-81796128D01*
X90456666Y-81796128D02*
X90075714Y-81796128D01*
X91599523Y-82272319D02*
X91028095Y-82272319D01*
X91313809Y-82272319D02*
X91313809Y-81272319D01*
X91313809Y-81272319D02*
X91218571Y-81415176D01*
X91218571Y-81415176D02*
X91123333Y-81510414D01*
X91123333Y-81510414D02*
X91028095Y-81558033D01*
X92075714Y-82272319D02*
X92266190Y-82272319D01*
X92266190Y-82272319D02*
X92361428Y-82224700D01*
X92361428Y-82224700D02*
X92409047Y-82177080D01*
X92409047Y-82177080D02*
X92504285Y-82034223D01*
X92504285Y-82034223D02*
X92551904Y-81843747D01*
X92551904Y-81843747D02*
X92551904Y-81462795D01*
X92551904Y-81462795D02*
X92504285Y-81367557D01*
X92504285Y-81367557D02*
X92456666Y-81319938D01*
X92456666Y-81319938D02*
X92361428Y-81272319D01*
X92361428Y-81272319D02*
X92170952Y-81272319D01*
X92170952Y-81272319D02*
X92075714Y-81319938D01*
X92075714Y-81319938D02*
X92028095Y-81367557D01*
X92028095Y-81367557D02*
X91980476Y-81462795D01*
X91980476Y-81462795D02*
X91980476Y-81700890D01*
X91980476Y-81700890D02*
X92028095Y-81796128D01*
X92028095Y-81796128D02*
X92075714Y-81843747D01*
X92075714Y-81843747D02*
X92170952Y-81891366D01*
X92170952Y-81891366D02*
X92361428Y-81891366D01*
X92361428Y-81891366D02*
X92456666Y-81843747D01*
X92456666Y-81843747D02*
X92504285Y-81796128D01*
X92504285Y-81796128D02*
X92551904Y-81700890D01*
X160074819Y-57988094D02*
X159074819Y-57988094D01*
X159074819Y-57988094D02*
X159074819Y-57749999D01*
X159074819Y-57749999D02*
X159122438Y-57607142D01*
X159122438Y-57607142D02*
X159217676Y-57511904D01*
X159217676Y-57511904D02*
X159312914Y-57464285D01*
X159312914Y-57464285D02*
X159503390Y-57416666D01*
X159503390Y-57416666D02*
X159646247Y-57416666D01*
X159646247Y-57416666D02*
X159836723Y-57464285D01*
X159836723Y-57464285D02*
X159931961Y-57511904D01*
X159931961Y-57511904D02*
X160027200Y-57607142D01*
X160027200Y-57607142D02*
X160074819Y-57749999D01*
X160074819Y-57749999D02*
X160074819Y-57988094D01*
X160074819Y-56464285D02*
X160074819Y-57035713D01*
X160074819Y-56749999D02*
X159074819Y-56749999D01*
X159074819Y-56749999D02*
X159217676Y-56845237D01*
X159217676Y-56845237D02*
X159312914Y-56940475D01*
X159312914Y-56940475D02*
X159360533Y-57035713D01*
X103838095Y-92904819D02*
X103838095Y-91904819D01*
X103838095Y-92381009D02*
X104409523Y-92381009D01*
X104409523Y-92904819D02*
X104409523Y-91904819D01*
X105361904Y-91904819D02*
X104885714Y-91904819D01*
X104885714Y-91904819D02*
X104838095Y-92381009D01*
X104838095Y-92381009D02*
X104885714Y-92333390D01*
X104885714Y-92333390D02*
X104980952Y-92285771D01*
X104980952Y-92285771D02*
X105219047Y-92285771D01*
X105219047Y-92285771D02*
X105314285Y-92333390D01*
X105314285Y-92333390D02*
X105361904Y-92381009D01*
X105361904Y-92381009D02*
X105409523Y-92476247D01*
X105409523Y-92476247D02*
X105409523Y-92714342D01*
X105409523Y-92714342D02*
X105361904Y-92809580D01*
X105361904Y-92809580D02*
X105314285Y-92857200D01*
X105314285Y-92857200D02*
X105219047Y-92904819D01*
X105219047Y-92904819D02*
X104980952Y-92904819D01*
X104980952Y-92904819D02*
X104885714Y-92857200D01*
X104885714Y-92857200D02*
X104838095Y-92809580D01*
X159166667Y-49107200D02*
X159309524Y-49154819D01*
X159309524Y-49154819D02*
X159547619Y-49154819D01*
X159547619Y-49154819D02*
X159642857Y-49107200D01*
X159642857Y-49107200D02*
X159690476Y-49059580D01*
X159690476Y-49059580D02*
X159738095Y-48964342D01*
X159738095Y-48964342D02*
X159738095Y-48869104D01*
X159738095Y-48869104D02*
X159690476Y-48773866D01*
X159690476Y-48773866D02*
X159642857Y-48726247D01*
X159642857Y-48726247D02*
X159547619Y-48678628D01*
X159547619Y-48678628D02*
X159357143Y-48631009D01*
X159357143Y-48631009D02*
X159261905Y-48583390D01*
X159261905Y-48583390D02*
X159214286Y-48535771D01*
X159214286Y-48535771D02*
X159166667Y-48440533D01*
X159166667Y-48440533D02*
X159166667Y-48345295D01*
X159166667Y-48345295D02*
X159214286Y-48250057D01*
X159214286Y-48250057D02*
X159261905Y-48202438D01*
X159261905Y-48202438D02*
X159357143Y-48154819D01*
X159357143Y-48154819D02*
X159595238Y-48154819D01*
X159595238Y-48154819D02*
X159738095Y-48202438D01*
X160071429Y-48154819D02*
X160309524Y-49154819D01*
X160309524Y-49154819D02*
X160500000Y-48440533D01*
X160500000Y-48440533D02*
X160690476Y-49154819D01*
X160690476Y-49154819D02*
X160928572Y-48154819D01*
X161833333Y-49154819D02*
X161261905Y-49154819D01*
X161547619Y-49154819D02*
X161547619Y-48154819D01*
X161547619Y-48154819D02*
X161452381Y-48297676D01*
X161452381Y-48297676D02*
X161357143Y-48392914D01*
X161357143Y-48392914D02*
X161261905Y-48440533D01*
X89066666Y-120554819D02*
X89066666Y-121269104D01*
X89066666Y-121269104D02*
X89019047Y-121411961D01*
X89019047Y-121411961D02*
X88923809Y-121507200D01*
X88923809Y-121507200D02*
X88780952Y-121554819D01*
X88780952Y-121554819D02*
X88685714Y-121554819D01*
X89971428Y-120888152D02*
X89971428Y-121554819D01*
X89733333Y-120507200D02*
X89495238Y-121221485D01*
X89495238Y-121221485D02*
X90114285Y-121221485D01*
X78716666Y-111279819D02*
X78716666Y-111994104D01*
X78716666Y-111994104D02*
X78669047Y-112136961D01*
X78669047Y-112136961D02*
X78573809Y-112232200D01*
X78573809Y-112232200D02*
X78430952Y-112279819D01*
X78430952Y-112279819D02*
X78335714Y-112279819D01*
X79145238Y-111375057D02*
X79192857Y-111327438D01*
X79192857Y-111327438D02*
X79288095Y-111279819D01*
X79288095Y-111279819D02*
X79526190Y-111279819D01*
X79526190Y-111279819D02*
X79621428Y-111327438D01*
X79621428Y-111327438D02*
X79669047Y-111375057D01*
X79669047Y-111375057D02*
X79716666Y-111470295D01*
X79716666Y-111470295D02*
X79716666Y-111565533D01*
X79716666Y-111565533D02*
X79669047Y-111708390D01*
X79669047Y-111708390D02*
X79097619Y-112279819D01*
X79097619Y-112279819D02*
X79716666Y-112279819D01*
X69257142Y-89499706D02*
X68923809Y-89023515D01*
X68685714Y-89499706D02*
X68685714Y-88499706D01*
X68685714Y-88499706D02*
X69066666Y-88499706D01*
X69066666Y-88499706D02*
X69161904Y-88547325D01*
X69161904Y-88547325D02*
X69209523Y-88594944D01*
X69209523Y-88594944D02*
X69257142Y-88690182D01*
X69257142Y-88690182D02*
X69257142Y-88833039D01*
X69257142Y-88833039D02*
X69209523Y-88928277D01*
X69209523Y-88928277D02*
X69161904Y-88975896D01*
X69161904Y-88975896D02*
X69066666Y-89023515D01*
X69066666Y-89023515D02*
X68685714Y-89023515D01*
X70209523Y-89499706D02*
X69638095Y-89499706D01*
X69923809Y-89499706D02*
X69923809Y-88499706D01*
X69923809Y-88499706D02*
X69828571Y-88642563D01*
X69828571Y-88642563D02*
X69733333Y-88737801D01*
X69733333Y-88737801D02*
X69638095Y-88785420D01*
X71066666Y-88833039D02*
X71066666Y-89499706D01*
X70828571Y-88452087D02*
X70590476Y-89166372D01*
X70590476Y-89166372D02*
X71209523Y-89166372D01*
X75721300Y-95551348D02*
X75721300Y-96362689D01*
X75721300Y-96362689D02*
X75769026Y-96458141D01*
X75769026Y-96458141D02*
X75816752Y-96505867D01*
X75816752Y-96505867D02*
X75912204Y-96553592D01*
X75912204Y-96553592D02*
X76103107Y-96553592D01*
X76103107Y-96553592D02*
X76198559Y-96505867D01*
X76198559Y-96505867D02*
X76246285Y-96458141D01*
X76246285Y-96458141D02*
X76294011Y-96362689D01*
X76294011Y-96362689D02*
X76294011Y-95551348D01*
X76914448Y-95980882D02*
X76818996Y-95933156D01*
X76818996Y-95933156D02*
X76771270Y-95885430D01*
X76771270Y-95885430D02*
X76723544Y-95789978D01*
X76723544Y-95789978D02*
X76723544Y-95742252D01*
X76723544Y-95742252D02*
X76771270Y-95646800D01*
X76771270Y-95646800D02*
X76818996Y-95599074D01*
X76818996Y-95599074D02*
X76914448Y-95551348D01*
X76914448Y-95551348D02*
X77105351Y-95551348D01*
X77105351Y-95551348D02*
X77200803Y-95599074D01*
X77200803Y-95599074D02*
X77248529Y-95646800D01*
X77248529Y-95646800D02*
X77296255Y-95742252D01*
X77296255Y-95742252D02*
X77296255Y-95789978D01*
X77296255Y-95789978D02*
X77248529Y-95885430D01*
X77248529Y-95885430D02*
X77200803Y-95933156D01*
X77200803Y-95933156D02*
X77105351Y-95980882D01*
X77105351Y-95980882D02*
X76914448Y-95980882D01*
X76914448Y-95980882D02*
X76818996Y-96028607D01*
X76818996Y-96028607D02*
X76771270Y-96076333D01*
X76771270Y-96076333D02*
X76723544Y-96171785D01*
X76723544Y-96171785D02*
X76723544Y-96362689D01*
X76723544Y-96362689D02*
X76771270Y-96458141D01*
X76771270Y-96458141D02*
X76818996Y-96505867D01*
X76818996Y-96505867D02*
X76914448Y-96553592D01*
X76914448Y-96553592D02*
X77105351Y-96553592D01*
X77105351Y-96553592D02*
X77200803Y-96505867D01*
X77200803Y-96505867D02*
X77248529Y-96458141D01*
X77248529Y-96458141D02*
X77296255Y-96362689D01*
X77296255Y-96362689D02*
X77296255Y-96171785D01*
X77296255Y-96171785D02*
X77248529Y-96076333D01*
X77248529Y-96076333D02*
X77200803Y-96028607D01*
X77200803Y-96028607D02*
X77105351Y-95980882D01*
X86379581Y-92816666D02*
X86427201Y-92864285D01*
X86427201Y-92864285D02*
X86474820Y-93007142D01*
X86474820Y-93007142D02*
X86474820Y-93102380D01*
X86474820Y-93102380D02*
X86427201Y-93245237D01*
X86427201Y-93245237D02*
X86331962Y-93340475D01*
X86331962Y-93340475D02*
X86236724Y-93388094D01*
X86236724Y-93388094D02*
X86046248Y-93435713D01*
X86046248Y-93435713D02*
X85903391Y-93435713D01*
X85903391Y-93435713D02*
X85712915Y-93388094D01*
X85712915Y-93388094D02*
X85617677Y-93340475D01*
X85617677Y-93340475D02*
X85522439Y-93245237D01*
X85522439Y-93245237D02*
X85474820Y-93102380D01*
X85474820Y-93102380D02*
X85474820Y-93007142D01*
X85474820Y-93007142D02*
X85522439Y-92864285D01*
X85522439Y-92864285D02*
X85570058Y-92816666D01*
X85570058Y-92435713D02*
X85522439Y-92388094D01*
X85522439Y-92388094D02*
X85474820Y-92292856D01*
X85474820Y-92292856D02*
X85474820Y-92054761D01*
X85474820Y-92054761D02*
X85522439Y-91959523D01*
X85522439Y-91959523D02*
X85570058Y-91911904D01*
X85570058Y-91911904D02*
X85665296Y-91864285D01*
X85665296Y-91864285D02*
X85760534Y-91864285D01*
X85760534Y-91864285D02*
X85903391Y-91911904D01*
X85903391Y-91911904D02*
X86474820Y-92483332D01*
X86474820Y-92483332D02*
X86474820Y-91864285D01*
X89544819Y-76610357D02*
X89068628Y-76943690D01*
X89544819Y-77181785D02*
X88544819Y-77181785D01*
X88544819Y-77181785D02*
X88544819Y-76800833D01*
X88544819Y-76800833D02*
X88592438Y-76705595D01*
X88592438Y-76705595D02*
X88640057Y-76657976D01*
X88640057Y-76657976D02*
X88735295Y-76610357D01*
X88735295Y-76610357D02*
X88878152Y-76610357D01*
X88878152Y-76610357D02*
X88973390Y-76657976D01*
X88973390Y-76657976D02*
X89021009Y-76705595D01*
X89021009Y-76705595D02*
X89068628Y-76800833D01*
X89068628Y-76800833D02*
X89068628Y-77181785D01*
X88640057Y-76229404D02*
X88592438Y-76181785D01*
X88592438Y-76181785D02*
X88544819Y-76086547D01*
X88544819Y-76086547D02*
X88544819Y-75848452D01*
X88544819Y-75848452D02*
X88592438Y-75753214D01*
X88592438Y-75753214D02*
X88640057Y-75705595D01*
X88640057Y-75705595D02*
X88735295Y-75657976D01*
X88735295Y-75657976D02*
X88830533Y-75657976D01*
X88830533Y-75657976D02*
X88973390Y-75705595D01*
X88973390Y-75705595D02*
X89544819Y-76277023D01*
X89544819Y-76277023D02*
X89544819Y-75657976D01*
X88544819Y-75038928D02*
X88544819Y-74943690D01*
X88544819Y-74943690D02*
X88592438Y-74848452D01*
X88592438Y-74848452D02*
X88640057Y-74800833D01*
X88640057Y-74800833D02*
X88735295Y-74753214D01*
X88735295Y-74753214D02*
X88925771Y-74705595D01*
X88925771Y-74705595D02*
X89163866Y-74705595D01*
X89163866Y-74705595D02*
X89354342Y-74753214D01*
X89354342Y-74753214D02*
X89449580Y-74800833D01*
X89449580Y-74800833D02*
X89497200Y-74848452D01*
X89497200Y-74848452D02*
X89544819Y-74943690D01*
X89544819Y-74943690D02*
X89544819Y-75038928D01*
X89544819Y-75038928D02*
X89497200Y-75134166D01*
X89497200Y-75134166D02*
X89449580Y-75181785D01*
X89449580Y-75181785D02*
X89354342Y-75229404D01*
X89354342Y-75229404D02*
X89163866Y-75277023D01*
X89163866Y-75277023D02*
X88925771Y-75277023D01*
X88925771Y-75277023D02*
X88735295Y-75229404D01*
X88735295Y-75229404D02*
X88640057Y-75181785D01*
X88640057Y-75181785D02*
X88592438Y-75134166D01*
X88592438Y-75134166D02*
X88544819Y-75038928D01*
X130766666Y-80854819D02*
X130766666Y-81569104D01*
X130766666Y-81569104D02*
X130719047Y-81711961D01*
X130719047Y-81711961D02*
X130623809Y-81807200D01*
X130623809Y-81807200D02*
X130480952Y-81854819D01*
X130480952Y-81854819D02*
X130385714Y-81854819D01*
X131385714Y-81283390D02*
X131290476Y-81235771D01*
X131290476Y-81235771D02*
X131242857Y-81188152D01*
X131242857Y-81188152D02*
X131195238Y-81092914D01*
X131195238Y-81092914D02*
X131195238Y-81045295D01*
X131195238Y-81045295D02*
X131242857Y-80950057D01*
X131242857Y-80950057D02*
X131290476Y-80902438D01*
X131290476Y-80902438D02*
X131385714Y-80854819D01*
X131385714Y-80854819D02*
X131576190Y-80854819D01*
X131576190Y-80854819D02*
X131671428Y-80902438D01*
X131671428Y-80902438D02*
X131719047Y-80950057D01*
X131719047Y-80950057D02*
X131766666Y-81045295D01*
X131766666Y-81045295D02*
X131766666Y-81092914D01*
X131766666Y-81092914D02*
X131719047Y-81188152D01*
X131719047Y-81188152D02*
X131671428Y-81235771D01*
X131671428Y-81235771D02*
X131576190Y-81283390D01*
X131576190Y-81283390D02*
X131385714Y-81283390D01*
X131385714Y-81283390D02*
X131290476Y-81331009D01*
X131290476Y-81331009D02*
X131242857Y-81378628D01*
X131242857Y-81378628D02*
X131195238Y-81473866D01*
X131195238Y-81473866D02*
X131195238Y-81664342D01*
X131195238Y-81664342D02*
X131242857Y-81759580D01*
X131242857Y-81759580D02*
X131290476Y-81807200D01*
X131290476Y-81807200D02*
X131385714Y-81854819D01*
X131385714Y-81854819D02*
X131576190Y-81854819D01*
X131576190Y-81854819D02*
X131671428Y-81807200D01*
X131671428Y-81807200D02*
X131719047Y-81759580D01*
X131719047Y-81759580D02*
X131766666Y-81664342D01*
X131766666Y-81664342D02*
X131766666Y-81473866D01*
X131766666Y-81473866D02*
X131719047Y-81378628D01*
X131719047Y-81378628D02*
X131671428Y-81331009D01*
X131671428Y-81331009D02*
X131576190Y-81283390D01*
X95452319Y-37892857D02*
X94976128Y-38226190D01*
X95452319Y-38464285D02*
X94452319Y-38464285D01*
X94452319Y-38464285D02*
X94452319Y-38083333D01*
X94452319Y-38083333D02*
X94499938Y-37988095D01*
X94499938Y-37988095D02*
X94547557Y-37940476D01*
X94547557Y-37940476D02*
X94642795Y-37892857D01*
X94642795Y-37892857D02*
X94785652Y-37892857D01*
X94785652Y-37892857D02*
X94880890Y-37940476D01*
X94880890Y-37940476D02*
X94928509Y-37988095D01*
X94928509Y-37988095D02*
X94976128Y-38083333D01*
X94976128Y-38083333D02*
X94976128Y-38464285D01*
X95452319Y-36940476D02*
X95452319Y-37511904D01*
X95452319Y-37226190D02*
X94452319Y-37226190D01*
X94452319Y-37226190D02*
X94595176Y-37321428D01*
X94595176Y-37321428D02*
X94690414Y-37416666D01*
X94690414Y-37416666D02*
X94738033Y-37511904D01*
X94452319Y-36607142D02*
X94452319Y-35940476D01*
X94452319Y-35940476D02*
X95452319Y-36369047D01*
X83543333Y-57454819D02*
X83210000Y-56978628D01*
X82971905Y-57454819D02*
X82971905Y-56454819D01*
X82971905Y-56454819D02*
X83352857Y-56454819D01*
X83352857Y-56454819D02*
X83448095Y-56502438D01*
X83448095Y-56502438D02*
X83495714Y-56550057D01*
X83495714Y-56550057D02*
X83543333Y-56645295D01*
X83543333Y-56645295D02*
X83543333Y-56788152D01*
X83543333Y-56788152D02*
X83495714Y-56883390D01*
X83495714Y-56883390D02*
X83448095Y-56931009D01*
X83448095Y-56931009D02*
X83352857Y-56978628D01*
X83352857Y-56978628D02*
X82971905Y-56978628D01*
X83876667Y-56454819D02*
X84495714Y-56454819D01*
X84495714Y-56454819D02*
X84162381Y-56835771D01*
X84162381Y-56835771D02*
X84305238Y-56835771D01*
X84305238Y-56835771D02*
X84400476Y-56883390D01*
X84400476Y-56883390D02*
X84448095Y-56931009D01*
X84448095Y-56931009D02*
X84495714Y-57026247D01*
X84495714Y-57026247D02*
X84495714Y-57264342D01*
X84495714Y-57264342D02*
X84448095Y-57359580D01*
X84448095Y-57359580D02*
X84400476Y-57407200D01*
X84400476Y-57407200D02*
X84305238Y-57454819D01*
X84305238Y-57454819D02*
X84019524Y-57454819D01*
X84019524Y-57454819D02*
X83924286Y-57407200D01*
X83924286Y-57407200D02*
X83876667Y-57359580D01*
X73107142Y-89299706D02*
X72773809Y-88823515D01*
X72535714Y-89299706D02*
X72535714Y-88299706D01*
X72535714Y-88299706D02*
X72916666Y-88299706D01*
X72916666Y-88299706D02*
X73011904Y-88347325D01*
X73011904Y-88347325D02*
X73059523Y-88394944D01*
X73059523Y-88394944D02*
X73107142Y-88490182D01*
X73107142Y-88490182D02*
X73107142Y-88633039D01*
X73107142Y-88633039D02*
X73059523Y-88728277D01*
X73059523Y-88728277D02*
X73011904Y-88775896D01*
X73011904Y-88775896D02*
X72916666Y-88823515D01*
X72916666Y-88823515D02*
X72535714Y-88823515D01*
X74059523Y-89299706D02*
X73488095Y-89299706D01*
X73773809Y-89299706D02*
X73773809Y-88299706D01*
X73773809Y-88299706D02*
X73678571Y-88442563D01*
X73678571Y-88442563D02*
X73583333Y-88537801D01*
X73583333Y-88537801D02*
X73488095Y-88585420D01*
X74392857Y-88299706D02*
X75011904Y-88299706D01*
X75011904Y-88299706D02*
X74678571Y-88680658D01*
X74678571Y-88680658D02*
X74821428Y-88680658D01*
X74821428Y-88680658D02*
X74916666Y-88728277D01*
X74916666Y-88728277D02*
X74964285Y-88775896D01*
X74964285Y-88775896D02*
X75011904Y-88871134D01*
X75011904Y-88871134D02*
X75011904Y-89109229D01*
X75011904Y-89109229D02*
X74964285Y-89204467D01*
X74964285Y-89204467D02*
X74916666Y-89252087D01*
X74916666Y-89252087D02*
X74821428Y-89299706D01*
X74821428Y-89299706D02*
X74535714Y-89299706D01*
X74535714Y-89299706D02*
X74440476Y-89252087D01*
X74440476Y-89252087D02*
X74392857Y-89204467D01*
X100007142Y-35604819D02*
X99673809Y-35128628D01*
X99435714Y-35604819D02*
X99435714Y-34604819D01*
X99435714Y-34604819D02*
X99816666Y-34604819D01*
X99816666Y-34604819D02*
X99911904Y-34652438D01*
X99911904Y-34652438D02*
X99959523Y-34700057D01*
X99959523Y-34700057D02*
X100007142Y-34795295D01*
X100007142Y-34795295D02*
X100007142Y-34938152D01*
X100007142Y-34938152D02*
X99959523Y-35033390D01*
X99959523Y-35033390D02*
X99911904Y-35081009D01*
X99911904Y-35081009D02*
X99816666Y-35128628D01*
X99816666Y-35128628D02*
X99435714Y-35128628D01*
X100959523Y-35604819D02*
X100388095Y-35604819D01*
X100673809Y-35604819D02*
X100673809Y-34604819D01*
X100673809Y-34604819D02*
X100578571Y-34747676D01*
X100578571Y-34747676D02*
X100483333Y-34842914D01*
X100483333Y-34842914D02*
X100388095Y-34890533D01*
X101530952Y-35033390D02*
X101435714Y-34985771D01*
X101435714Y-34985771D02*
X101388095Y-34938152D01*
X101388095Y-34938152D02*
X101340476Y-34842914D01*
X101340476Y-34842914D02*
X101340476Y-34795295D01*
X101340476Y-34795295D02*
X101388095Y-34700057D01*
X101388095Y-34700057D02*
X101435714Y-34652438D01*
X101435714Y-34652438D02*
X101530952Y-34604819D01*
X101530952Y-34604819D02*
X101721428Y-34604819D01*
X101721428Y-34604819D02*
X101816666Y-34652438D01*
X101816666Y-34652438D02*
X101864285Y-34700057D01*
X101864285Y-34700057D02*
X101911904Y-34795295D01*
X101911904Y-34795295D02*
X101911904Y-34842914D01*
X101911904Y-34842914D02*
X101864285Y-34938152D01*
X101864285Y-34938152D02*
X101816666Y-34985771D01*
X101816666Y-34985771D02*
X101721428Y-35033390D01*
X101721428Y-35033390D02*
X101530952Y-35033390D01*
X101530952Y-35033390D02*
X101435714Y-35081009D01*
X101435714Y-35081009D02*
X101388095Y-35128628D01*
X101388095Y-35128628D02*
X101340476Y-35223866D01*
X101340476Y-35223866D02*
X101340476Y-35414342D01*
X101340476Y-35414342D02*
X101388095Y-35509580D01*
X101388095Y-35509580D02*
X101435714Y-35557200D01*
X101435714Y-35557200D02*
X101530952Y-35604819D01*
X101530952Y-35604819D02*
X101721428Y-35604819D01*
X101721428Y-35604819D02*
X101816666Y-35557200D01*
X101816666Y-35557200D02*
X101864285Y-35509580D01*
X101864285Y-35509580D02*
X101911904Y-35414342D01*
X101911904Y-35414342D02*
X101911904Y-35223866D01*
X101911904Y-35223866D02*
X101864285Y-35128628D01*
X101864285Y-35128628D02*
X101816666Y-35081009D01*
X101816666Y-35081009D02*
X101721428Y-35033390D01*
X69266666Y-68064819D02*
X69266666Y-68779104D01*
X69266666Y-68779104D02*
X69219047Y-68921961D01*
X69219047Y-68921961D02*
X69123809Y-69017200D01*
X69123809Y-69017200D02*
X68980952Y-69064819D01*
X68980952Y-69064819D02*
X68885714Y-69064819D01*
X70171428Y-68064819D02*
X69980952Y-68064819D01*
X69980952Y-68064819D02*
X69885714Y-68112438D01*
X69885714Y-68112438D02*
X69838095Y-68160057D01*
X69838095Y-68160057D02*
X69742857Y-68302914D01*
X69742857Y-68302914D02*
X69695238Y-68493390D01*
X69695238Y-68493390D02*
X69695238Y-68874342D01*
X69695238Y-68874342D02*
X69742857Y-68969580D01*
X69742857Y-68969580D02*
X69790476Y-69017200D01*
X69790476Y-69017200D02*
X69885714Y-69064819D01*
X69885714Y-69064819D02*
X70076190Y-69064819D01*
X70076190Y-69064819D02*
X70171428Y-69017200D01*
X70171428Y-69017200D02*
X70219047Y-68969580D01*
X70219047Y-68969580D02*
X70266666Y-68874342D01*
X70266666Y-68874342D02*
X70266666Y-68636247D01*
X70266666Y-68636247D02*
X70219047Y-68541009D01*
X70219047Y-68541009D02*
X70171428Y-68493390D01*
X70171428Y-68493390D02*
X70076190Y-68445771D01*
X70076190Y-68445771D02*
X69885714Y-68445771D01*
X69885714Y-68445771D02*
X69790476Y-68493390D01*
X69790476Y-68493390D02*
X69742857Y-68541009D01*
X69742857Y-68541009D02*
X69695238Y-68636247D01*
X125304819Y-121083333D02*
X126019104Y-121083333D01*
X126019104Y-121083333D02*
X126161961Y-121130952D01*
X126161961Y-121130952D02*
X126257200Y-121226190D01*
X126257200Y-121226190D02*
X126304819Y-121369047D01*
X126304819Y-121369047D02*
X126304819Y-121464285D01*
X126304819Y-120559523D02*
X126304819Y-120369047D01*
X126304819Y-120369047D02*
X126257200Y-120273809D01*
X126257200Y-120273809D02*
X126209580Y-120226190D01*
X126209580Y-120226190D02*
X126066723Y-120130952D01*
X126066723Y-120130952D02*
X125876247Y-120083333D01*
X125876247Y-120083333D02*
X125495295Y-120083333D01*
X125495295Y-120083333D02*
X125400057Y-120130952D01*
X125400057Y-120130952D02*
X125352438Y-120178571D01*
X125352438Y-120178571D02*
X125304819Y-120273809D01*
X125304819Y-120273809D02*
X125304819Y-120464285D01*
X125304819Y-120464285D02*
X125352438Y-120559523D01*
X125352438Y-120559523D02*
X125400057Y-120607142D01*
X125400057Y-120607142D02*
X125495295Y-120654761D01*
X125495295Y-120654761D02*
X125733390Y-120654761D01*
X125733390Y-120654761D02*
X125828628Y-120607142D01*
X125828628Y-120607142D02*
X125876247Y-120559523D01*
X125876247Y-120559523D02*
X125923866Y-120464285D01*
X125923866Y-120464285D02*
X125923866Y-120273809D01*
X125923866Y-120273809D02*
X125876247Y-120178571D01*
X125876247Y-120178571D02*
X125828628Y-120130952D01*
X125828628Y-120130952D02*
X125733390Y-120083333D01*
X74816666Y-69684819D02*
X74816666Y-70399104D01*
X74816666Y-70399104D02*
X74769047Y-70541961D01*
X74769047Y-70541961D02*
X74673809Y-70637200D01*
X74673809Y-70637200D02*
X74530952Y-70684819D01*
X74530952Y-70684819D02*
X74435714Y-70684819D01*
X75197619Y-69684819D02*
X75816666Y-69684819D01*
X75816666Y-69684819D02*
X75483333Y-70065771D01*
X75483333Y-70065771D02*
X75626190Y-70065771D01*
X75626190Y-70065771D02*
X75721428Y-70113390D01*
X75721428Y-70113390D02*
X75769047Y-70161009D01*
X75769047Y-70161009D02*
X75816666Y-70256247D01*
X75816666Y-70256247D02*
X75816666Y-70494342D01*
X75816666Y-70494342D02*
X75769047Y-70589580D01*
X75769047Y-70589580D02*
X75721428Y-70637200D01*
X75721428Y-70637200D02*
X75626190Y-70684819D01*
X75626190Y-70684819D02*
X75340476Y-70684819D01*
X75340476Y-70684819D02*
X75245238Y-70637200D01*
X75245238Y-70637200D02*
X75197619Y-70589580D01*
X89384761Y-101080057D02*
X89289523Y-101032438D01*
X89289523Y-101032438D02*
X89194285Y-100937200D01*
X89194285Y-100937200D02*
X89051428Y-100794342D01*
X89051428Y-100794342D02*
X88956190Y-100746723D01*
X88956190Y-100746723D02*
X88860952Y-100746723D01*
X88908571Y-100984819D02*
X88813333Y-100937200D01*
X88813333Y-100937200D02*
X88718095Y-100841961D01*
X88718095Y-100841961D02*
X88670476Y-100651485D01*
X88670476Y-100651485D02*
X88670476Y-100318152D01*
X88670476Y-100318152D02*
X88718095Y-100127676D01*
X88718095Y-100127676D02*
X88813333Y-100032438D01*
X88813333Y-100032438D02*
X88908571Y-99984819D01*
X88908571Y-99984819D02*
X89099047Y-99984819D01*
X89099047Y-99984819D02*
X89194285Y-100032438D01*
X89194285Y-100032438D02*
X89289523Y-100127676D01*
X89289523Y-100127676D02*
X89337142Y-100318152D01*
X89337142Y-100318152D02*
X89337142Y-100651485D01*
X89337142Y-100651485D02*
X89289523Y-100841961D01*
X89289523Y-100841961D02*
X89194285Y-100937200D01*
X89194285Y-100937200D02*
X89099047Y-100984819D01*
X89099047Y-100984819D02*
X88908571Y-100984819D01*
X90289523Y-100984819D02*
X89718095Y-100984819D01*
X90003809Y-100984819D02*
X90003809Y-99984819D01*
X90003809Y-99984819D02*
X89908571Y-100127676D01*
X89908571Y-100127676D02*
X89813333Y-100222914D01*
X89813333Y-100222914D02*
X89718095Y-100270533D01*
X145903333Y-59954819D02*
X145570000Y-59478628D01*
X145331905Y-59954819D02*
X145331905Y-58954819D01*
X145331905Y-58954819D02*
X145712857Y-58954819D01*
X145712857Y-58954819D02*
X145808095Y-59002438D01*
X145808095Y-59002438D02*
X145855714Y-59050057D01*
X145855714Y-59050057D02*
X145903333Y-59145295D01*
X145903333Y-59145295D02*
X145903333Y-59288152D01*
X145903333Y-59288152D02*
X145855714Y-59383390D01*
X145855714Y-59383390D02*
X145808095Y-59431009D01*
X145808095Y-59431009D02*
X145712857Y-59478628D01*
X145712857Y-59478628D02*
X145331905Y-59478628D01*
X146236667Y-58954819D02*
X146903333Y-58954819D01*
X146903333Y-58954819D02*
X146474762Y-59954819D01*
X65254819Y-81584166D02*
X64778628Y-81917499D01*
X65254819Y-82155594D02*
X64254819Y-82155594D01*
X64254819Y-82155594D02*
X64254819Y-81774642D01*
X64254819Y-81774642D02*
X64302438Y-81679404D01*
X64302438Y-81679404D02*
X64350057Y-81631785D01*
X64350057Y-81631785D02*
X64445295Y-81584166D01*
X64445295Y-81584166D02*
X64588152Y-81584166D01*
X64588152Y-81584166D02*
X64683390Y-81631785D01*
X64683390Y-81631785D02*
X64731009Y-81679404D01*
X64731009Y-81679404D02*
X64778628Y-81774642D01*
X64778628Y-81774642D02*
X64778628Y-82155594D01*
X65254819Y-80631785D02*
X65254819Y-81203213D01*
X65254819Y-80917499D02*
X64254819Y-80917499D01*
X64254819Y-80917499D02*
X64397676Y-81012737D01*
X64397676Y-81012737D02*
X64492914Y-81107975D01*
X64492914Y-81107975D02*
X64540533Y-81203213D01*
X128837142Y-76004819D02*
X128503809Y-75528628D01*
X128265714Y-76004819D02*
X128265714Y-75004819D01*
X128265714Y-75004819D02*
X128646666Y-75004819D01*
X128646666Y-75004819D02*
X128741904Y-75052438D01*
X128741904Y-75052438D02*
X128789523Y-75100057D01*
X128789523Y-75100057D02*
X128837142Y-75195295D01*
X128837142Y-75195295D02*
X128837142Y-75338152D01*
X128837142Y-75338152D02*
X128789523Y-75433390D01*
X128789523Y-75433390D02*
X128741904Y-75481009D01*
X128741904Y-75481009D02*
X128646666Y-75528628D01*
X128646666Y-75528628D02*
X128265714Y-75528628D01*
X129789523Y-76004819D02*
X129218095Y-76004819D01*
X129503809Y-76004819D02*
X129503809Y-75004819D01*
X129503809Y-75004819D02*
X129408571Y-75147676D01*
X129408571Y-75147676D02*
X129313333Y-75242914D01*
X129313333Y-75242914D02*
X129218095Y-75290533D01*
X130170476Y-75100057D02*
X130218095Y-75052438D01*
X130218095Y-75052438D02*
X130313333Y-75004819D01*
X130313333Y-75004819D02*
X130551428Y-75004819D01*
X130551428Y-75004819D02*
X130646666Y-75052438D01*
X130646666Y-75052438D02*
X130694285Y-75100057D01*
X130694285Y-75100057D02*
X130741904Y-75195295D01*
X130741904Y-75195295D02*
X130741904Y-75290533D01*
X130741904Y-75290533D02*
X130694285Y-75433390D01*
X130694285Y-75433390D02*
X130122857Y-76004819D01*
X130122857Y-76004819D02*
X130741904Y-76004819D01*
X78702142Y-52479819D02*
X78368809Y-52003628D01*
X78130714Y-52479819D02*
X78130714Y-51479819D01*
X78130714Y-51479819D02*
X78511666Y-51479819D01*
X78511666Y-51479819D02*
X78606904Y-51527438D01*
X78606904Y-51527438D02*
X78654523Y-51575057D01*
X78654523Y-51575057D02*
X78702142Y-51670295D01*
X78702142Y-51670295D02*
X78702142Y-51813152D01*
X78702142Y-51813152D02*
X78654523Y-51908390D01*
X78654523Y-51908390D02*
X78606904Y-51956009D01*
X78606904Y-51956009D02*
X78511666Y-52003628D01*
X78511666Y-52003628D02*
X78130714Y-52003628D01*
X79654523Y-52479819D02*
X79083095Y-52479819D01*
X79368809Y-52479819D02*
X79368809Y-51479819D01*
X79368809Y-51479819D02*
X79273571Y-51622676D01*
X79273571Y-51622676D02*
X79178333Y-51717914D01*
X79178333Y-51717914D02*
X79083095Y-51765533D01*
X80511666Y-51479819D02*
X80321190Y-51479819D01*
X80321190Y-51479819D02*
X80225952Y-51527438D01*
X80225952Y-51527438D02*
X80178333Y-51575057D01*
X80178333Y-51575057D02*
X80083095Y-51717914D01*
X80083095Y-51717914D02*
X80035476Y-51908390D01*
X80035476Y-51908390D02*
X80035476Y-52289342D01*
X80035476Y-52289342D02*
X80083095Y-52384580D01*
X80083095Y-52384580D02*
X80130714Y-52432200D01*
X80130714Y-52432200D02*
X80225952Y-52479819D01*
X80225952Y-52479819D02*
X80416428Y-52479819D01*
X80416428Y-52479819D02*
X80511666Y-52432200D01*
X80511666Y-52432200D02*
X80559285Y-52384580D01*
X80559285Y-52384580D02*
X80606904Y-52289342D01*
X80606904Y-52289342D02*
X80606904Y-52051247D01*
X80606904Y-52051247D02*
X80559285Y-51956009D01*
X80559285Y-51956009D02*
X80511666Y-51908390D01*
X80511666Y-51908390D02*
X80416428Y-51860771D01*
X80416428Y-51860771D02*
X80225952Y-51860771D01*
X80225952Y-51860771D02*
X80130714Y-51908390D01*
X80130714Y-51908390D02*
X80083095Y-51956009D01*
X80083095Y-51956009D02*
X80035476Y-52051247D01*
X64119104Y-63949285D02*
X64119104Y-63473095D01*
X64404819Y-64044523D02*
X63404819Y-63711190D01*
X63404819Y-63711190D02*
X64404819Y-63377857D01*
X63500057Y-63092142D02*
X63452438Y-63044523D01*
X63452438Y-63044523D02*
X63404819Y-62949285D01*
X63404819Y-62949285D02*
X63404819Y-62711190D01*
X63404819Y-62711190D02*
X63452438Y-62615952D01*
X63452438Y-62615952D02*
X63500057Y-62568333D01*
X63500057Y-62568333D02*
X63595295Y-62520714D01*
X63595295Y-62520714D02*
X63690533Y-62520714D01*
X63690533Y-62520714D02*
X63833390Y-62568333D01*
X63833390Y-62568333D02*
X64404819Y-63139761D01*
X64404819Y-63139761D02*
X64404819Y-62520714D01*
X65889819Y-56998220D02*
X66699342Y-56998220D01*
X66699342Y-56998220D02*
X66794580Y-56950601D01*
X66794580Y-56950601D02*
X66842200Y-56902982D01*
X66842200Y-56902982D02*
X66889819Y-56807744D01*
X66889819Y-56807744D02*
X66889819Y-56617268D01*
X66889819Y-56617268D02*
X66842200Y-56522030D01*
X66842200Y-56522030D02*
X66794580Y-56474411D01*
X66794580Y-56474411D02*
X66699342Y-56426792D01*
X66699342Y-56426792D02*
X65889819Y-56426792D01*
X66842200Y-55998220D02*
X66889819Y-55855363D01*
X66889819Y-55855363D02*
X66889819Y-55617268D01*
X66889819Y-55617268D02*
X66842200Y-55522030D01*
X66842200Y-55522030D02*
X66794580Y-55474411D01*
X66794580Y-55474411D02*
X66699342Y-55426792D01*
X66699342Y-55426792D02*
X66604104Y-55426792D01*
X66604104Y-55426792D02*
X66508866Y-55474411D01*
X66508866Y-55474411D02*
X66461247Y-55522030D01*
X66461247Y-55522030D02*
X66413628Y-55617268D01*
X66413628Y-55617268D02*
X66366009Y-55807744D01*
X66366009Y-55807744D02*
X66318390Y-55902982D01*
X66318390Y-55902982D02*
X66270771Y-55950601D01*
X66270771Y-55950601D02*
X66175533Y-55998220D01*
X66175533Y-55998220D02*
X66080295Y-55998220D01*
X66080295Y-55998220D02*
X65985057Y-55950601D01*
X65985057Y-55950601D02*
X65937438Y-55902982D01*
X65937438Y-55902982D02*
X65889819Y-55807744D01*
X65889819Y-55807744D02*
X65889819Y-55569649D01*
X65889819Y-55569649D02*
X65937438Y-55426792D01*
X66366009Y-54664887D02*
X66413628Y-54522030D01*
X66413628Y-54522030D02*
X66461247Y-54474411D01*
X66461247Y-54474411D02*
X66556485Y-54426792D01*
X66556485Y-54426792D02*
X66699342Y-54426792D01*
X66699342Y-54426792D02*
X66794580Y-54474411D01*
X66794580Y-54474411D02*
X66842200Y-54522030D01*
X66842200Y-54522030D02*
X66889819Y-54617268D01*
X66889819Y-54617268D02*
X66889819Y-54998220D01*
X66889819Y-54998220D02*
X65889819Y-54998220D01*
X65889819Y-54998220D02*
X65889819Y-54664887D01*
X65889819Y-54664887D02*
X65937438Y-54569649D01*
X65937438Y-54569649D02*
X65985057Y-54522030D01*
X65985057Y-54522030D02*
X66080295Y-54474411D01*
X66080295Y-54474411D02*
X66175533Y-54474411D01*
X66175533Y-54474411D02*
X66270771Y-54522030D01*
X66270771Y-54522030D02*
X66318390Y-54569649D01*
X66318390Y-54569649D02*
X66366009Y-54664887D01*
X66366009Y-54664887D02*
X66366009Y-54998220D01*
X65229819Y-85491666D02*
X64753628Y-85824999D01*
X65229819Y-86063094D02*
X64229819Y-86063094D01*
X64229819Y-86063094D02*
X64229819Y-85682142D01*
X64229819Y-85682142D02*
X64277438Y-85586904D01*
X64277438Y-85586904D02*
X64325057Y-85539285D01*
X64325057Y-85539285D02*
X64420295Y-85491666D01*
X64420295Y-85491666D02*
X64563152Y-85491666D01*
X64563152Y-85491666D02*
X64658390Y-85539285D01*
X64658390Y-85539285D02*
X64706009Y-85586904D01*
X64706009Y-85586904D02*
X64753628Y-85682142D01*
X64753628Y-85682142D02*
X64753628Y-86063094D01*
X64325057Y-85110713D02*
X64277438Y-85063094D01*
X64277438Y-85063094D02*
X64229819Y-84967856D01*
X64229819Y-84967856D02*
X64229819Y-84729761D01*
X64229819Y-84729761D02*
X64277438Y-84634523D01*
X64277438Y-84634523D02*
X64325057Y-84586904D01*
X64325057Y-84586904D02*
X64420295Y-84539285D01*
X64420295Y-84539285D02*
X64515533Y-84539285D01*
X64515533Y-84539285D02*
X64658390Y-84586904D01*
X64658390Y-84586904D02*
X65229819Y-85158332D01*
X65229819Y-85158332D02*
X65229819Y-84539285D01*
X75314819Y-42133333D02*
X76029104Y-42133333D01*
X76029104Y-42133333D02*
X76171961Y-42180952D01*
X76171961Y-42180952D02*
X76267200Y-42276190D01*
X76267200Y-42276190D02*
X76314819Y-42419047D01*
X76314819Y-42419047D02*
X76314819Y-42514285D01*
X75314819Y-41752380D02*
X75314819Y-41085714D01*
X75314819Y-41085714D02*
X76314819Y-41514285D01*
X145424819Y-106211904D02*
X146234342Y-106211904D01*
X146234342Y-106211904D02*
X146329580Y-106164285D01*
X146329580Y-106164285D02*
X146377200Y-106116666D01*
X146377200Y-106116666D02*
X146424819Y-106021428D01*
X146424819Y-106021428D02*
X146424819Y-105830952D01*
X146424819Y-105830952D02*
X146377200Y-105735714D01*
X146377200Y-105735714D02*
X146329580Y-105688095D01*
X146329580Y-105688095D02*
X146234342Y-105640476D01*
X146234342Y-105640476D02*
X145424819Y-105640476D01*
X145520057Y-105211904D02*
X145472438Y-105164285D01*
X145472438Y-105164285D02*
X145424819Y-105069047D01*
X145424819Y-105069047D02*
X145424819Y-104830952D01*
X145424819Y-104830952D02*
X145472438Y-104735714D01*
X145472438Y-104735714D02*
X145520057Y-104688095D01*
X145520057Y-104688095D02*
X145615295Y-104640476D01*
X145615295Y-104640476D02*
X145710533Y-104640476D01*
X145710533Y-104640476D02*
X145853390Y-104688095D01*
X145853390Y-104688095D02*
X146424819Y-105259523D01*
X146424819Y-105259523D02*
X146424819Y-104640476D01*
X128983333Y-70704819D02*
X128650000Y-70228628D01*
X128411905Y-70704819D02*
X128411905Y-69704819D01*
X128411905Y-69704819D02*
X128792857Y-69704819D01*
X128792857Y-69704819D02*
X128888095Y-69752438D01*
X128888095Y-69752438D02*
X128935714Y-69800057D01*
X128935714Y-69800057D02*
X128983333Y-69895295D01*
X128983333Y-69895295D02*
X128983333Y-70038152D01*
X128983333Y-70038152D02*
X128935714Y-70133390D01*
X128935714Y-70133390D02*
X128888095Y-70181009D01*
X128888095Y-70181009D02*
X128792857Y-70228628D01*
X128792857Y-70228628D02*
X128411905Y-70228628D01*
X129459524Y-70704819D02*
X129650000Y-70704819D01*
X129650000Y-70704819D02*
X129745238Y-70657200D01*
X129745238Y-70657200D02*
X129792857Y-70609580D01*
X129792857Y-70609580D02*
X129888095Y-70466723D01*
X129888095Y-70466723D02*
X129935714Y-70276247D01*
X129935714Y-70276247D02*
X129935714Y-69895295D01*
X129935714Y-69895295D02*
X129888095Y-69800057D01*
X129888095Y-69800057D02*
X129840476Y-69752438D01*
X129840476Y-69752438D02*
X129745238Y-69704819D01*
X129745238Y-69704819D02*
X129554762Y-69704819D01*
X129554762Y-69704819D02*
X129459524Y-69752438D01*
X129459524Y-69752438D02*
X129411905Y-69800057D01*
X129411905Y-69800057D02*
X129364286Y-69895295D01*
X129364286Y-69895295D02*
X129364286Y-70133390D01*
X129364286Y-70133390D02*
X129411905Y-70228628D01*
X129411905Y-70228628D02*
X129459524Y-70276247D01*
X129459524Y-70276247D02*
X129554762Y-70323866D01*
X129554762Y-70323866D02*
X129745238Y-70323866D01*
X129745238Y-70323866D02*
X129840476Y-70276247D01*
X129840476Y-70276247D02*
X129888095Y-70228628D01*
X129888095Y-70228628D02*
X129935714Y-70133390D01*
X95257142Y-101394819D02*
X94923809Y-100918628D01*
X94685714Y-101394819D02*
X94685714Y-100394819D01*
X94685714Y-100394819D02*
X95066666Y-100394819D01*
X95066666Y-100394819D02*
X95161904Y-100442438D01*
X95161904Y-100442438D02*
X95209523Y-100490057D01*
X95209523Y-100490057D02*
X95257142Y-100585295D01*
X95257142Y-100585295D02*
X95257142Y-100728152D01*
X95257142Y-100728152D02*
X95209523Y-100823390D01*
X95209523Y-100823390D02*
X95161904Y-100871009D01*
X95161904Y-100871009D02*
X95066666Y-100918628D01*
X95066666Y-100918628D02*
X94685714Y-100918628D01*
X95638095Y-100490057D02*
X95685714Y-100442438D01*
X95685714Y-100442438D02*
X95780952Y-100394819D01*
X95780952Y-100394819D02*
X96019047Y-100394819D01*
X96019047Y-100394819D02*
X96114285Y-100442438D01*
X96114285Y-100442438D02*
X96161904Y-100490057D01*
X96161904Y-100490057D02*
X96209523Y-100585295D01*
X96209523Y-100585295D02*
X96209523Y-100680533D01*
X96209523Y-100680533D02*
X96161904Y-100823390D01*
X96161904Y-100823390D02*
X95590476Y-101394819D01*
X95590476Y-101394819D02*
X96209523Y-101394819D01*
X97161904Y-101394819D02*
X96590476Y-101394819D01*
X96876190Y-101394819D02*
X96876190Y-100394819D01*
X96876190Y-100394819D02*
X96780952Y-100537676D01*
X96780952Y-100537676D02*
X96685714Y-100632914D01*
X96685714Y-100632914D02*
X96590476Y-100680533D01*
X132007142Y-70854819D02*
X131673809Y-70378628D01*
X131435714Y-70854819D02*
X131435714Y-69854819D01*
X131435714Y-69854819D02*
X131816666Y-69854819D01*
X131816666Y-69854819D02*
X131911904Y-69902438D01*
X131911904Y-69902438D02*
X131959523Y-69950057D01*
X131959523Y-69950057D02*
X132007142Y-70045295D01*
X132007142Y-70045295D02*
X132007142Y-70188152D01*
X132007142Y-70188152D02*
X131959523Y-70283390D01*
X131959523Y-70283390D02*
X131911904Y-70331009D01*
X131911904Y-70331009D02*
X131816666Y-70378628D01*
X131816666Y-70378628D02*
X131435714Y-70378628D01*
X132959523Y-70854819D02*
X132388095Y-70854819D01*
X132673809Y-70854819D02*
X132673809Y-69854819D01*
X132673809Y-69854819D02*
X132578571Y-69997676D01*
X132578571Y-69997676D02*
X132483333Y-70092914D01*
X132483333Y-70092914D02*
X132388095Y-70140533D01*
X133578571Y-69854819D02*
X133673809Y-69854819D01*
X133673809Y-69854819D02*
X133769047Y-69902438D01*
X133769047Y-69902438D02*
X133816666Y-69950057D01*
X133816666Y-69950057D02*
X133864285Y-70045295D01*
X133864285Y-70045295D02*
X133911904Y-70235771D01*
X133911904Y-70235771D02*
X133911904Y-70473866D01*
X133911904Y-70473866D02*
X133864285Y-70664342D01*
X133864285Y-70664342D02*
X133816666Y-70759580D01*
X133816666Y-70759580D02*
X133769047Y-70807200D01*
X133769047Y-70807200D02*
X133673809Y-70854819D01*
X133673809Y-70854819D02*
X133578571Y-70854819D01*
X133578571Y-70854819D02*
X133483333Y-70807200D01*
X133483333Y-70807200D02*
X133435714Y-70759580D01*
X133435714Y-70759580D02*
X133388095Y-70664342D01*
X133388095Y-70664342D02*
X133340476Y-70473866D01*
X133340476Y-70473866D02*
X133340476Y-70235771D01*
X133340476Y-70235771D02*
X133388095Y-70045295D01*
X133388095Y-70045295D02*
X133435714Y-69950057D01*
X133435714Y-69950057D02*
X133483333Y-69902438D01*
X133483333Y-69902438D02*
X133578571Y-69854819D01*
X88707142Y-88004819D02*
X88373809Y-87528628D01*
X88135714Y-88004819D02*
X88135714Y-87004819D01*
X88135714Y-87004819D02*
X88516666Y-87004819D01*
X88516666Y-87004819D02*
X88611904Y-87052438D01*
X88611904Y-87052438D02*
X88659523Y-87100057D01*
X88659523Y-87100057D02*
X88707142Y-87195295D01*
X88707142Y-87195295D02*
X88707142Y-87338152D01*
X88707142Y-87338152D02*
X88659523Y-87433390D01*
X88659523Y-87433390D02*
X88611904Y-87481009D01*
X88611904Y-87481009D02*
X88516666Y-87528628D01*
X88516666Y-87528628D02*
X88135714Y-87528628D01*
X89088095Y-87100057D02*
X89135714Y-87052438D01*
X89135714Y-87052438D02*
X89230952Y-87004819D01*
X89230952Y-87004819D02*
X89469047Y-87004819D01*
X89469047Y-87004819D02*
X89564285Y-87052438D01*
X89564285Y-87052438D02*
X89611904Y-87100057D01*
X89611904Y-87100057D02*
X89659523Y-87195295D01*
X89659523Y-87195295D02*
X89659523Y-87290533D01*
X89659523Y-87290533D02*
X89611904Y-87433390D01*
X89611904Y-87433390D02*
X89040476Y-88004819D01*
X89040476Y-88004819D02*
X89659523Y-88004819D01*
X90040476Y-87100057D02*
X90088095Y-87052438D01*
X90088095Y-87052438D02*
X90183333Y-87004819D01*
X90183333Y-87004819D02*
X90421428Y-87004819D01*
X90421428Y-87004819D02*
X90516666Y-87052438D01*
X90516666Y-87052438D02*
X90564285Y-87100057D01*
X90564285Y-87100057D02*
X90611904Y-87195295D01*
X90611904Y-87195295D02*
X90611904Y-87290533D01*
X90611904Y-87290533D02*
X90564285Y-87433390D01*
X90564285Y-87433390D02*
X89992857Y-88004819D01*
X89992857Y-88004819D02*
X90611904Y-88004819D01*
X117184819Y-70059523D02*
X117899104Y-70059523D01*
X117899104Y-70059523D02*
X118041961Y-70107142D01*
X118041961Y-70107142D02*
X118137200Y-70202380D01*
X118137200Y-70202380D02*
X118184819Y-70345237D01*
X118184819Y-70345237D02*
X118184819Y-70440475D01*
X118184819Y-69059523D02*
X118184819Y-69630951D01*
X118184819Y-69345237D02*
X117184819Y-69345237D01*
X117184819Y-69345237D02*
X117327676Y-69440475D01*
X117327676Y-69440475D02*
X117422914Y-69535713D01*
X117422914Y-69535713D02*
X117470533Y-69630951D01*
X118184819Y-68107142D02*
X118184819Y-68678570D01*
X118184819Y-68392856D02*
X117184819Y-68392856D01*
X117184819Y-68392856D02*
X117327676Y-68488094D01*
X117327676Y-68488094D02*
X117422914Y-68583332D01*
X117422914Y-68583332D02*
X117470533Y-68678570D01*
X118838095Y-92904819D02*
X118838095Y-91904819D01*
X118838095Y-92381009D02*
X119409523Y-92381009D01*
X119409523Y-92904819D02*
X119409523Y-91904819D01*
X120314285Y-91904819D02*
X120123809Y-91904819D01*
X120123809Y-91904819D02*
X120028571Y-91952438D01*
X120028571Y-91952438D02*
X119980952Y-92000057D01*
X119980952Y-92000057D02*
X119885714Y-92142914D01*
X119885714Y-92142914D02*
X119838095Y-92333390D01*
X119838095Y-92333390D02*
X119838095Y-92714342D01*
X119838095Y-92714342D02*
X119885714Y-92809580D01*
X119885714Y-92809580D02*
X119933333Y-92857200D01*
X119933333Y-92857200D02*
X120028571Y-92904819D01*
X120028571Y-92904819D02*
X120219047Y-92904819D01*
X120219047Y-92904819D02*
X120314285Y-92857200D01*
X120314285Y-92857200D02*
X120361904Y-92809580D01*
X120361904Y-92809580D02*
X120409523Y-92714342D01*
X120409523Y-92714342D02*
X120409523Y-92476247D01*
X120409523Y-92476247D02*
X120361904Y-92381009D01*
X120361904Y-92381009D02*
X120314285Y-92333390D01*
X120314285Y-92333390D02*
X120219047Y-92285771D01*
X120219047Y-92285771D02*
X120028571Y-92285771D01*
X120028571Y-92285771D02*
X119933333Y-92333390D01*
X119933333Y-92333390D02*
X119885714Y-92381009D01*
X119885714Y-92381009D02*
X119838095Y-92476247D01*
X149240833Y-59754819D02*
X148907500Y-59278628D01*
X148669405Y-59754819D02*
X148669405Y-58754819D01*
X148669405Y-58754819D02*
X149050357Y-58754819D01*
X149050357Y-58754819D02*
X149145595Y-58802438D01*
X149145595Y-58802438D02*
X149193214Y-58850057D01*
X149193214Y-58850057D02*
X149240833Y-58945295D01*
X149240833Y-58945295D02*
X149240833Y-59088152D01*
X149240833Y-59088152D02*
X149193214Y-59183390D01*
X149193214Y-59183390D02*
X149145595Y-59231009D01*
X149145595Y-59231009D02*
X149050357Y-59278628D01*
X149050357Y-59278628D02*
X148669405Y-59278628D01*
X149812262Y-59183390D02*
X149717024Y-59135771D01*
X149717024Y-59135771D02*
X149669405Y-59088152D01*
X149669405Y-59088152D02*
X149621786Y-58992914D01*
X149621786Y-58992914D02*
X149621786Y-58945295D01*
X149621786Y-58945295D02*
X149669405Y-58850057D01*
X149669405Y-58850057D02*
X149717024Y-58802438D01*
X149717024Y-58802438D02*
X149812262Y-58754819D01*
X149812262Y-58754819D02*
X150002738Y-58754819D01*
X150002738Y-58754819D02*
X150097976Y-58802438D01*
X150097976Y-58802438D02*
X150145595Y-58850057D01*
X150145595Y-58850057D02*
X150193214Y-58945295D01*
X150193214Y-58945295D02*
X150193214Y-58992914D01*
X150193214Y-58992914D02*
X150145595Y-59088152D01*
X150145595Y-59088152D02*
X150097976Y-59135771D01*
X150097976Y-59135771D02*
X150002738Y-59183390D01*
X150002738Y-59183390D02*
X149812262Y-59183390D01*
X149812262Y-59183390D02*
X149717024Y-59231009D01*
X149717024Y-59231009D02*
X149669405Y-59278628D01*
X149669405Y-59278628D02*
X149621786Y-59373866D01*
X149621786Y-59373866D02*
X149621786Y-59564342D01*
X149621786Y-59564342D02*
X149669405Y-59659580D01*
X149669405Y-59659580D02*
X149717024Y-59707200D01*
X149717024Y-59707200D02*
X149812262Y-59754819D01*
X149812262Y-59754819D02*
X150002738Y-59754819D01*
X150002738Y-59754819D02*
X150097976Y-59707200D01*
X150097976Y-59707200D02*
X150145595Y-59659580D01*
X150145595Y-59659580D02*
X150193214Y-59564342D01*
X150193214Y-59564342D02*
X150193214Y-59373866D01*
X150193214Y-59373866D02*
X150145595Y-59278628D01*
X150145595Y-59278628D02*
X150097976Y-59231009D01*
X150097976Y-59231009D02*
X150002738Y-59183390D01*
X132787142Y-76004819D02*
X132453809Y-75528628D01*
X132215714Y-76004819D02*
X132215714Y-75004819D01*
X132215714Y-75004819D02*
X132596666Y-75004819D01*
X132596666Y-75004819D02*
X132691904Y-75052438D01*
X132691904Y-75052438D02*
X132739523Y-75100057D01*
X132739523Y-75100057D02*
X132787142Y-75195295D01*
X132787142Y-75195295D02*
X132787142Y-75338152D01*
X132787142Y-75338152D02*
X132739523Y-75433390D01*
X132739523Y-75433390D02*
X132691904Y-75481009D01*
X132691904Y-75481009D02*
X132596666Y-75528628D01*
X132596666Y-75528628D02*
X132215714Y-75528628D01*
X133739523Y-76004819D02*
X133168095Y-76004819D01*
X133453809Y-76004819D02*
X133453809Y-75004819D01*
X133453809Y-75004819D02*
X133358571Y-75147676D01*
X133358571Y-75147676D02*
X133263333Y-75242914D01*
X133263333Y-75242914D02*
X133168095Y-75290533D01*
X134691904Y-76004819D02*
X134120476Y-76004819D01*
X134406190Y-76004819D02*
X134406190Y-75004819D01*
X134406190Y-75004819D02*
X134310952Y-75147676D01*
X134310952Y-75147676D02*
X134215714Y-75242914D01*
X134215714Y-75242914D02*
X134120476Y-75290533D01*
X114898095Y-37442319D02*
X114898095Y-38251842D01*
X114898095Y-38251842D02*
X114945714Y-38347080D01*
X114945714Y-38347080D02*
X114993333Y-38394700D01*
X114993333Y-38394700D02*
X115088571Y-38442319D01*
X115088571Y-38442319D02*
X115279047Y-38442319D01*
X115279047Y-38442319D02*
X115374285Y-38394700D01*
X115374285Y-38394700D02*
X115421904Y-38347080D01*
X115421904Y-38347080D02*
X115469523Y-38251842D01*
X115469523Y-38251842D02*
X115469523Y-37442319D01*
X116374285Y-37775652D02*
X116374285Y-38442319D01*
X116136190Y-37394700D02*
X115898095Y-38108985D01*
X115898095Y-38108985D02*
X116517142Y-38108985D01*
X89964819Y-58966666D02*
X89488628Y-59299999D01*
X89964819Y-59538094D02*
X88964819Y-59538094D01*
X88964819Y-59538094D02*
X88964819Y-59157142D01*
X88964819Y-59157142D02*
X89012438Y-59061904D01*
X89012438Y-59061904D02*
X89060057Y-59014285D01*
X89060057Y-59014285D02*
X89155295Y-58966666D01*
X89155295Y-58966666D02*
X89298152Y-58966666D01*
X89298152Y-58966666D02*
X89393390Y-59014285D01*
X89393390Y-59014285D02*
X89441009Y-59061904D01*
X89441009Y-59061904D02*
X89488628Y-59157142D01*
X89488628Y-59157142D02*
X89488628Y-59538094D01*
X89298152Y-58109523D02*
X89964819Y-58109523D01*
X88917200Y-58347618D02*
X89631485Y-58585713D01*
X89631485Y-58585713D02*
X89631485Y-57966666D01*
X133636666Y-110754819D02*
X133636666Y-111469104D01*
X133636666Y-111469104D02*
X133589047Y-111611961D01*
X133589047Y-111611961D02*
X133493809Y-111707200D01*
X133493809Y-111707200D02*
X133350952Y-111754819D01*
X133350952Y-111754819D02*
X133255714Y-111754819D01*
X134589047Y-110754819D02*
X134112857Y-110754819D01*
X134112857Y-110754819D02*
X134065238Y-111231009D01*
X134065238Y-111231009D02*
X134112857Y-111183390D01*
X134112857Y-111183390D02*
X134208095Y-111135771D01*
X134208095Y-111135771D02*
X134446190Y-111135771D01*
X134446190Y-111135771D02*
X134541428Y-111183390D01*
X134541428Y-111183390D02*
X134589047Y-111231009D01*
X134589047Y-111231009D02*
X134636666Y-111326247D01*
X134636666Y-111326247D02*
X134636666Y-111564342D01*
X134636666Y-111564342D02*
X134589047Y-111659580D01*
X134589047Y-111659580D02*
X134541428Y-111707200D01*
X134541428Y-111707200D02*
X134446190Y-111754819D01*
X134446190Y-111754819D02*
X134208095Y-111754819D01*
X134208095Y-111754819D02*
X134112857Y-111707200D01*
X134112857Y-111707200D02*
X134065238Y-111659580D01*
X88054761Y-96200057D02*
X87959523Y-96152438D01*
X87959523Y-96152438D02*
X87864285Y-96057200D01*
X87864285Y-96057200D02*
X87721428Y-95914342D01*
X87721428Y-95914342D02*
X87626190Y-95866723D01*
X87626190Y-95866723D02*
X87530952Y-95866723D01*
X87578571Y-96104819D02*
X87483333Y-96057200D01*
X87483333Y-96057200D02*
X87388095Y-95961961D01*
X87388095Y-95961961D02*
X87340476Y-95771485D01*
X87340476Y-95771485D02*
X87340476Y-95438152D01*
X87340476Y-95438152D02*
X87388095Y-95247676D01*
X87388095Y-95247676D02*
X87483333Y-95152438D01*
X87483333Y-95152438D02*
X87578571Y-95104819D01*
X87578571Y-95104819D02*
X87769047Y-95104819D01*
X87769047Y-95104819D02*
X87864285Y-95152438D01*
X87864285Y-95152438D02*
X87959523Y-95247676D01*
X87959523Y-95247676D02*
X88007142Y-95438152D01*
X88007142Y-95438152D02*
X88007142Y-95771485D01*
X88007142Y-95771485D02*
X87959523Y-95961961D01*
X87959523Y-95961961D02*
X87864285Y-96057200D01*
X87864285Y-96057200D02*
X87769047Y-96104819D01*
X87769047Y-96104819D02*
X87578571Y-96104819D01*
X88388095Y-95200057D02*
X88435714Y-95152438D01*
X88435714Y-95152438D02*
X88530952Y-95104819D01*
X88530952Y-95104819D02*
X88769047Y-95104819D01*
X88769047Y-95104819D02*
X88864285Y-95152438D01*
X88864285Y-95152438D02*
X88911904Y-95200057D01*
X88911904Y-95200057D02*
X88959523Y-95295295D01*
X88959523Y-95295295D02*
X88959523Y-95390533D01*
X88959523Y-95390533D02*
X88911904Y-95533390D01*
X88911904Y-95533390D02*
X88340476Y-96104819D01*
X88340476Y-96104819D02*
X88959523Y-96104819D01*
X72027142Y-54204819D02*
X71693809Y-53728628D01*
X71455714Y-54204819D02*
X71455714Y-53204819D01*
X71455714Y-53204819D02*
X71836666Y-53204819D01*
X71836666Y-53204819D02*
X71931904Y-53252438D01*
X71931904Y-53252438D02*
X71979523Y-53300057D01*
X71979523Y-53300057D02*
X72027142Y-53395295D01*
X72027142Y-53395295D02*
X72027142Y-53538152D01*
X72027142Y-53538152D02*
X71979523Y-53633390D01*
X71979523Y-53633390D02*
X71931904Y-53681009D01*
X71931904Y-53681009D02*
X71836666Y-53728628D01*
X71836666Y-53728628D02*
X71455714Y-53728628D01*
X72979523Y-54204819D02*
X72408095Y-54204819D01*
X72693809Y-54204819D02*
X72693809Y-53204819D01*
X72693809Y-53204819D02*
X72598571Y-53347676D01*
X72598571Y-53347676D02*
X72503333Y-53442914D01*
X72503333Y-53442914D02*
X72408095Y-53490533D01*
X73884285Y-53204819D02*
X73408095Y-53204819D01*
X73408095Y-53204819D02*
X73360476Y-53681009D01*
X73360476Y-53681009D02*
X73408095Y-53633390D01*
X73408095Y-53633390D02*
X73503333Y-53585771D01*
X73503333Y-53585771D02*
X73741428Y-53585771D01*
X73741428Y-53585771D02*
X73836666Y-53633390D01*
X73836666Y-53633390D02*
X73884285Y-53681009D01*
X73884285Y-53681009D02*
X73931904Y-53776247D01*
X73931904Y-53776247D02*
X73931904Y-54014342D01*
X73931904Y-54014342D02*
X73884285Y-54109580D01*
X73884285Y-54109580D02*
X73836666Y-54157200D01*
X73836666Y-54157200D02*
X73741428Y-54204819D01*
X73741428Y-54204819D02*
X73503333Y-54204819D01*
X73503333Y-54204819D02*
X73408095Y-54157200D01*
X73408095Y-54157200D02*
X73360476Y-54109580D01*
D13*
%TO.C,R5*%
X103480000Y-41250000D02*
X102530000Y-41250000D01*
X102530000Y-42170000D02*
X102530000Y-40330000D01*
X102530000Y-40330000D02*
X98690000Y-40330000D01*
X98690000Y-42170000D02*
X102530000Y-42170000D01*
X98690000Y-40330000D02*
X98690000Y-42170000D01*
X97740000Y-41250000D02*
X98690000Y-41250000D01*
D14*
%TO.C,S2*%
X64400000Y-98800000D02*
X64400000Y-99300000D01*
X64400000Y-98800000D02*
X64900000Y-98800000D01*
X64400000Y-110700000D02*
X64400000Y-110200000D01*
X64400000Y-110700000D02*
X64900000Y-110700000D01*
X68600000Y-98800000D02*
X68100000Y-98800000D01*
X68600000Y-98800000D02*
X68600000Y-99300000D01*
X68600000Y-110700000D02*
X68100000Y-110700000D01*
X68600000Y-110700000D02*
X68600000Y-110200000D01*
D13*
%TO.C,U1*%
X80270000Y-72670000D02*
X80270000Y-82890000D01*
X80270000Y-72670000D02*
X82930000Y-72670000D01*
X80270000Y-82890000D02*
X82930000Y-82890000D01*
X81600000Y-70070000D02*
X82930000Y-70070000D01*
X82930000Y-70070000D02*
X82930000Y-71400000D01*
X82930000Y-72670000D02*
X82930000Y-82890000D01*
X79000000Y-67400000D02*
X98300000Y-67400000D01*
X98300000Y-85400000D01*
X79000000Y-85400000D01*
X79000000Y-67400000D01*
%TO.C,R19*%
X90180000Y-73840000D02*
X90180000Y-77680000D01*
X90180000Y-77680000D02*
X92020000Y-77680000D01*
X91100000Y-72890000D02*
X91100000Y-73840000D01*
X91100000Y-78630000D02*
X91100000Y-77680000D01*
X92020000Y-73840000D02*
X90180000Y-73840000D01*
X92020000Y-77680000D02*
X92020000Y-73840000D01*
%TO.C,D1*%
X157525000Y-59730000D02*
X160615000Y-59730000D01*
X159069538Y-54180000D02*
G75*
G02*
X160614830Y-59730000I462J-2990000D01*
G01*
X157525170Y-59730000D02*
G75*
G02*
X159070462Y-54180000I1544830J2560000D01*
G01*
X161570000Y-57170000D02*
G75*
G02*
X156570000Y-57170000I-2500000J0D01*
G01*
X156570000Y-57170000D02*
G75*
G02*
X161570000Y-57170000I2500000J0D01*
G01*
%TO.C,SW1*%
X157000000Y-47950000D02*
X157000000Y-49450000D01*
X158250000Y-51950000D02*
X162750000Y-51950000D01*
X162750000Y-45450000D02*
X158250000Y-45450000D01*
X164000000Y-49450000D02*
X164000000Y-47950000D01*
%TO.C,J4*%
X91470000Y-122110000D02*
X91470000Y-122230000D01*
X91470000Y-122230000D02*
X94130000Y-122230000D01*
X92800000Y-119570000D02*
X94130000Y-119570000D01*
X94130000Y-119570000D02*
X94130000Y-120900000D01*
X94130000Y-122110000D02*
X94130000Y-122230000D01*
%TO.C,J2*%
X73950000Y-119460000D02*
X73950000Y-120100000D01*
X73950000Y-120100000D02*
X74350000Y-120100000D01*
X74190000Y-110740000D02*
X74190000Y-119860000D01*
X74190000Y-110740000D02*
X84310000Y-110740000D01*
X74190000Y-118300000D02*
X84310000Y-118300000D01*
X74190000Y-119400000D02*
X84310000Y-119400000D01*
X74190000Y-119860000D02*
X84310000Y-119860000D01*
X75202000Y-116081000D02*
X75096000Y-116188000D01*
X75468000Y-116347000D02*
X75362000Y-116454000D01*
X78138000Y-113146000D02*
X78031000Y-113253000D01*
X78404000Y-113412000D02*
X78297000Y-113519000D01*
X80492000Y-115792000D02*
X80097000Y-116188000D01*
X80743000Y-116074000D02*
X80363000Y-116454000D01*
X83138000Y-113146000D02*
X82758000Y-113526000D01*
X83404000Y-113412000D02*
X83009000Y-113808000D01*
X84310000Y-110740000D02*
X84310000Y-119860000D01*
X78930000Y-114800000D02*
G75*
G02*
X74570000Y-114800000I-2180000J0D01*
G01*
X74570000Y-114800000D02*
G75*
G02*
X78930000Y-114800000I2180000J0D01*
G01*
X83930000Y-114800000D02*
G75*
G02*
X79570000Y-114800000I-2180000J0D01*
G01*
X79570000Y-114800000D02*
G75*
G02*
X83930000Y-114800000I2180000J0D01*
G01*
%TO.C,R14*%
X70494724Y-90372387D02*
X69985276Y-90372387D01*
X70494724Y-91417387D02*
X69985276Y-91417387D01*
D15*
%TO.C,U8*%
X73310000Y-97300000D02*
X84910000Y-97300000D01*
X73310000Y-105800000D02*
X73310000Y-97300000D01*
X84910000Y-97300000D02*
X84910000Y-105800000D01*
X84910000Y-105800000D02*
X73310000Y-105800000D01*
D12*
X72870000Y-103800000D02*
G75*
G02*
X72670000Y-103800000I-100000J0D01*
G01*
X72670000Y-103800000D02*
G75*
G02*
X72870000Y-103800000I100000J0D01*
G01*
D13*
%TO.C,C2*%
X82584888Y-89370000D02*
X82584888Y-90910000D01*
X82544888Y-89370000D02*
X82544888Y-90910000D01*
X82624888Y-89371000D02*
X82624888Y-90910000D01*
X82664888Y-89372000D02*
X82664888Y-90910000D01*
X82704888Y-89374000D02*
X82704888Y-90910000D01*
X82744888Y-89377000D02*
X82744888Y-90910000D01*
X82784888Y-89381000D02*
X82784888Y-90910000D01*
X82824888Y-89385000D02*
X82824888Y-90910000D01*
X82864888Y-89389000D02*
X82864888Y-90910000D01*
X82904888Y-89394000D02*
X82904888Y-90910000D01*
X82944888Y-89400000D02*
X82944888Y-90910000D01*
X82984888Y-89407000D02*
X82984888Y-90910000D01*
X83024888Y-89414000D02*
X83024888Y-90910000D01*
X83064888Y-89422000D02*
X83064888Y-90910000D01*
X83104888Y-89430000D02*
X83104888Y-90910000D01*
X83144888Y-89439000D02*
X83144888Y-90910000D01*
X83184888Y-89449000D02*
X83184888Y-90910000D01*
X83224888Y-89459000D02*
X83224888Y-90910000D01*
X83265888Y-89470000D02*
X83265888Y-90910000D01*
X83305888Y-89482000D02*
X83305888Y-90910000D01*
X83345888Y-89495000D02*
X83345888Y-90910000D01*
X83385888Y-89508000D02*
X83385888Y-90910000D01*
X83425888Y-89522000D02*
X83425888Y-90910000D01*
X83465888Y-89536000D02*
X83465888Y-90910000D01*
X83505888Y-89552000D02*
X83505888Y-90910000D01*
X83545888Y-89568000D02*
X83545888Y-90910000D01*
X83585888Y-89585000D02*
X83585888Y-90910000D01*
X83625888Y-89602000D02*
X83625888Y-90910000D01*
X83665888Y-89621000D02*
X83665888Y-90910000D01*
X83705888Y-89640000D02*
X83705888Y-90910000D01*
X83745888Y-89660000D02*
X83745888Y-90910000D01*
X83785888Y-89682000D02*
X83785888Y-90910000D01*
X83825888Y-89703000D02*
X83825888Y-90910000D01*
X83865888Y-89726000D02*
X83865888Y-90910000D01*
X83905888Y-89750000D02*
X83905888Y-90910000D01*
X83945888Y-89775000D02*
X83945888Y-90910000D01*
X83985888Y-89801000D02*
X83985888Y-90910000D01*
X84025888Y-89828000D02*
X84025888Y-90910000D01*
X84065888Y-89855000D02*
X84065888Y-90910000D01*
X84105888Y-89885000D02*
X84105888Y-90910000D01*
X84145888Y-89915000D02*
X84145888Y-90910000D01*
X84185888Y-89946000D02*
X84185888Y-90910000D01*
X84225888Y-89979000D02*
X84225888Y-90910000D01*
X84265888Y-90013000D02*
X84265888Y-90910000D01*
X84305888Y-90049000D02*
X84305888Y-90910000D01*
X84345888Y-90086000D02*
X84345888Y-90910000D01*
X84385888Y-90124000D02*
X84385888Y-90910000D01*
X84425888Y-90165000D02*
X84425888Y-90910000D01*
X84465888Y-90207000D02*
X84465888Y-90910000D01*
X79990113Y-90225000D02*
X79990113Y-90725000D01*
X84505888Y-90251000D02*
X84505888Y-90910000D01*
X84545888Y-90297000D02*
X84545888Y-90910000D01*
X84585888Y-90345000D02*
X84585888Y-93555000D01*
X84625888Y-90396000D02*
X84625888Y-93504000D01*
X84665888Y-90450000D02*
X84665888Y-93450000D01*
X79740113Y-90475000D02*
X80240113Y-90475000D01*
X84705888Y-90507000D02*
X84705888Y-93393000D01*
X84745888Y-90567000D02*
X84745888Y-93333000D01*
X84785888Y-90631000D02*
X84785888Y-93269000D01*
X84825888Y-90699000D02*
X84825888Y-93201000D01*
X84865888Y-90772000D02*
X84865888Y-93128000D01*
X84905888Y-90852000D02*
X84905888Y-93048000D01*
X84945888Y-90939000D02*
X84945888Y-92961000D01*
X84985888Y-91035000D02*
X84985888Y-92865000D01*
X85025888Y-91145000D02*
X85025888Y-92755000D01*
X85065888Y-91273000D02*
X85065888Y-92627000D01*
X85105888Y-91432000D02*
X85105888Y-92468000D01*
X85145888Y-91666000D02*
X85145888Y-92234000D01*
X84545888Y-92990000D02*
X84545888Y-93603000D01*
X84505888Y-92990000D02*
X84505888Y-93649000D01*
X84465888Y-92990000D02*
X84465888Y-93693000D01*
X84425888Y-92990000D02*
X84425888Y-93735000D01*
X84385888Y-92990000D02*
X84385888Y-93776000D01*
X84345888Y-92990000D02*
X84345888Y-93814000D01*
X84305888Y-92990000D02*
X84305888Y-93851000D01*
X84265888Y-92990000D02*
X84265888Y-93887000D01*
X84225888Y-92990000D02*
X84225888Y-93921000D01*
X84185888Y-92990000D02*
X84185888Y-93954000D01*
X84145888Y-92990000D02*
X84145888Y-93985000D01*
X84105888Y-92990000D02*
X84105888Y-94015000D01*
X84065888Y-92990000D02*
X84065888Y-94045000D01*
X84025888Y-92990000D02*
X84025888Y-94072000D01*
X83985888Y-92990000D02*
X83985888Y-94099000D01*
X83945888Y-92990000D02*
X83945888Y-94125000D01*
X83905888Y-92990000D02*
X83905888Y-94150000D01*
X83865888Y-92990000D02*
X83865888Y-94174000D01*
X83825888Y-92990000D02*
X83825888Y-94197000D01*
X83785888Y-92990000D02*
X83785888Y-94218000D01*
X83745888Y-92990000D02*
X83745888Y-94240000D01*
X83705888Y-92990000D02*
X83705888Y-94260000D01*
X83665888Y-92990000D02*
X83665888Y-94279000D01*
X83625888Y-92990000D02*
X83625888Y-94298000D01*
X83585888Y-92990000D02*
X83585888Y-94315000D01*
X83545888Y-92990000D02*
X83545888Y-94332000D01*
X83505888Y-92990000D02*
X83505888Y-94348000D01*
X83465888Y-92990000D02*
X83465888Y-94364000D01*
X83425888Y-92990000D02*
X83425888Y-94378000D01*
X83385888Y-92990000D02*
X83385888Y-94392000D01*
X83345888Y-92990000D02*
X83345888Y-94405000D01*
X83305888Y-92990000D02*
X83305888Y-94418000D01*
X83265888Y-92990000D02*
X83265888Y-94430000D01*
X83224888Y-92990000D02*
X83224888Y-94441000D01*
X83184888Y-92990000D02*
X83184888Y-94451000D01*
X83144888Y-92990000D02*
X83144888Y-94461000D01*
X83104888Y-92990000D02*
X83104888Y-94470000D01*
X83064888Y-92990000D02*
X83064888Y-94478000D01*
X83024888Y-92990000D02*
X83024888Y-94486000D01*
X82984888Y-92990000D02*
X82984888Y-94493000D01*
X82944888Y-92990000D02*
X82944888Y-94500000D01*
X82904888Y-92990000D02*
X82904888Y-94506000D01*
X82864888Y-92990000D02*
X82864888Y-94511000D01*
X82824888Y-92990000D02*
X82824888Y-94515000D01*
X82784888Y-92990000D02*
X82784888Y-94519000D01*
X82744888Y-92990000D02*
X82744888Y-94523000D01*
X82704888Y-92990000D02*
X82704888Y-94526000D01*
X82664888Y-92990000D02*
X82664888Y-94528000D01*
X82624888Y-92990000D02*
X82624888Y-94529000D01*
X82584888Y-92990000D02*
X82584888Y-94530000D01*
X82544888Y-92990000D02*
X82544888Y-94530000D01*
X85164888Y-91950000D02*
G75*
G02*
X79924888Y-91950000I-2620000J0D01*
G01*
X79924888Y-91950000D02*
G75*
G02*
X85164888Y-91950000I2620000J0D01*
G01*
%TO.C,R20*%
X90577500Y-75974724D02*
X90577500Y-75465276D01*
X91622500Y-75974724D02*
X91622500Y-75465276D01*
%TO.C,J8*%
X129120000Y-85770000D02*
X129120000Y-103610000D01*
X129120000Y-85770000D02*
X131780000Y-85770000D01*
X129120000Y-103610000D02*
X131780000Y-103610000D01*
X130450000Y-83170000D02*
X131780000Y-83170000D01*
X131780000Y-83170000D02*
X131780000Y-84500000D01*
X131780000Y-85770000D02*
X131780000Y-103610000D01*
%TO.C,R17*%
X97840000Y-37100000D02*
X98790000Y-37100000D01*
X98790000Y-36180000D02*
X98790000Y-38020000D01*
X98790000Y-38020000D02*
X102630000Y-38020000D01*
X102630000Y-36180000D02*
X98790000Y-36180000D01*
X102630000Y-38020000D02*
X102630000Y-36180000D01*
X103580000Y-37100000D02*
X102630000Y-37100000D01*
%TO.C,R3*%
X83255276Y-58277500D02*
X83764724Y-58277500D01*
X83255276Y-59322500D02*
X83764724Y-59322500D01*
%TO.C,R13*%
X67370000Y-90844887D02*
X68320000Y-90844887D01*
X68320000Y-89924887D02*
X68320000Y-91764887D01*
X68320000Y-91764887D02*
X72160000Y-91764887D01*
X72160000Y-89924887D02*
X68320000Y-89924887D01*
X72160000Y-91764887D02*
X72160000Y-89924887D01*
X73110000Y-90844887D02*
X72160000Y-90844887D01*
%TO.C,R18*%
X101174724Y-36627500D02*
X100665276Y-36627500D01*
X101174724Y-37672500D02*
X100665276Y-37672500D01*
%TO.C,J6*%
X65270000Y-70930000D02*
X65270000Y-68330000D01*
X65270000Y-73530000D02*
X65270000Y-72200000D01*
X66600000Y-73530000D02*
X65270000Y-73530000D01*
X67930000Y-68330000D02*
X65270000Y-68330000D01*
X67930000Y-70930000D02*
X65270000Y-70930000D01*
X67930000Y-70930000D02*
X67930000Y-68330000D01*
%TO.C,J9*%
X127070000Y-121810000D02*
X127070000Y-121930000D01*
X127070000Y-121930000D02*
X129730000Y-121930000D01*
X128400000Y-119270000D02*
X129730000Y-119270000D01*
X129730000Y-119270000D02*
X129730000Y-120600000D01*
X129730000Y-121810000D02*
X129730000Y-121930000D01*
%TO.C,J3*%
X73820000Y-74270000D02*
X73820000Y-81950000D01*
X73820000Y-74270000D02*
X76480000Y-74270000D01*
X73820000Y-81950000D02*
X76480000Y-81950000D01*
X75150000Y-71670000D02*
X76480000Y-71670000D01*
X76480000Y-71670000D02*
X76480000Y-73000000D01*
X76480000Y-74270000D02*
X76480000Y-81950000D01*
%TO.C,Q1*%
X87080000Y-101920000D02*
X91721000Y-101920000D01*
X87080000Y-105189000D02*
X88590000Y-105189000D01*
X87080000Y-108890000D02*
X88590000Y-108890000D01*
X87080000Y-112160000D02*
X87080000Y-101920000D01*
X87080000Y-112160000D02*
X91721000Y-112160000D01*
X88590000Y-112160000D02*
X88590000Y-101920000D01*
X91721000Y-112160000D02*
X91721000Y-101920000D01*
%TO.C,R7*%
X152330000Y-57000000D02*
X151380000Y-57000000D01*
X151380000Y-57920000D02*
X151380000Y-56080000D01*
X151380000Y-56080000D02*
X147540000Y-56080000D01*
X147540000Y-57920000D02*
X151380000Y-57920000D01*
X147540000Y-56080000D02*
X147540000Y-57920000D01*
X146590000Y-57000000D02*
X147540000Y-57000000D01*
%TO.C,R1*%
X66177500Y-81662224D02*
X66177500Y-81152776D01*
X67222500Y-81662224D02*
X67222500Y-81152776D01*
%TO.C,R12*%
X134760000Y-72430000D02*
X130920000Y-72430000D01*
X130920000Y-72430000D02*
X130920000Y-74270000D01*
X135710000Y-73350000D02*
X134760000Y-73350000D01*
X129970000Y-73350000D02*
X130920000Y-73350000D01*
X134760000Y-74270000D02*
X134760000Y-72430000D01*
X130920000Y-74270000D02*
X134760000Y-74270000D01*
%TO.C,R16*%
X79674724Y-53427500D02*
X79165276Y-53427500D01*
X79674724Y-54472500D02*
X79165276Y-54472500D01*
%TO.C,A2*%
X65390000Y-61905000D02*
X66720000Y-61905000D01*
X65390000Y-63235000D02*
X65390000Y-61905000D01*
X65420000Y-46870000D02*
X66750000Y-46870000D01*
X65420000Y-48200000D02*
X65420000Y-46870000D01*
X67990000Y-61905000D02*
X101070000Y-61905000D01*
X67990000Y-64565000D02*
X67990000Y-61905000D01*
X67990000Y-64565000D02*
X101070000Y-64565000D01*
X68020000Y-46870000D02*
X101100000Y-46870000D01*
X68020000Y-49530000D02*
X68020000Y-46870000D01*
X68020000Y-49530000D02*
X101100000Y-49530000D01*
X101070000Y-64565000D02*
X101070000Y-61905000D01*
X101100000Y-49530000D02*
X101100000Y-46870000D01*
X64810000Y-65135000D02*
X101610000Y-65135000D01*
X101610000Y-46385000D01*
X64810000Y-46385000D01*
X64810000Y-65135000D01*
X65320000Y-58535000D02*
X67620000Y-58535000D01*
X67620000Y-53135000D01*
X65320000Y-53135000D01*
X65320000Y-58535000D01*
%TO.C,R2*%
X65780000Y-79490000D02*
X65780000Y-83330000D01*
X65780000Y-83330000D02*
X67620000Y-83330000D01*
X66700000Y-78540000D02*
X66700000Y-79490000D01*
X66700000Y-84280000D02*
X66700000Y-83330000D01*
X67620000Y-79490000D02*
X65780000Y-79490000D01*
X67620000Y-83330000D02*
X67620000Y-79490000D01*
%TO.C,J7*%
X76930000Y-40470000D02*
X76930000Y-43130000D01*
X89690000Y-40470000D02*
X76930000Y-40470000D01*
X89690000Y-40470000D02*
X89690000Y-43130000D01*
X89690000Y-43130000D02*
X76930000Y-43130000D01*
X90960000Y-40470000D02*
X92290000Y-40470000D01*
X92290000Y-40470000D02*
X92290000Y-41800000D01*
%TO.C,U2*%
X147470000Y-106480000D02*
X147470000Y-105150000D01*
X148800000Y-106480000D02*
X147470000Y-106480000D01*
X150070000Y-103820000D02*
X157750000Y-103820000D01*
X150070000Y-106480000D02*
X150070000Y-103820000D01*
X150070000Y-106480000D02*
X157750000Y-106480000D01*
X157750000Y-106480000D02*
X157750000Y-103820000D01*
D14*
X140200000Y-107050000D02*
X165200000Y-107050000D01*
X165200000Y-62050000D01*
X140200000Y-62050000D01*
X140200000Y-107050000D01*
D13*
%TO.C,R9*%
X134632500Y-67130000D02*
X130792500Y-67130000D01*
X130792500Y-67130000D02*
X130792500Y-68970000D01*
X135582500Y-68050000D02*
X134632500Y-68050000D01*
X129842500Y-68050000D02*
X130792500Y-68050000D01*
X134632500Y-68970000D02*
X134632500Y-67130000D01*
X130792500Y-68970000D02*
X134632500Y-68970000D01*
%TO.C,R21*%
X95180000Y-105180000D02*
X95180000Y-109020000D01*
X95180000Y-109020000D02*
X97020000Y-109020000D01*
X96100000Y-104230000D02*
X96100000Y-105180000D01*
X96100000Y-109970000D02*
X96100000Y-109020000D01*
X97020000Y-105180000D02*
X95180000Y-105180000D01*
X97020000Y-109020000D02*
X97020000Y-105180000D01*
%TO.C,R10*%
X132457776Y-67527500D02*
X132967224Y-67527500D01*
X132457776Y-68572500D02*
X132967224Y-68572500D01*
%TO.C,R22*%
X89820000Y-89700000D02*
X90770000Y-89700000D01*
X90770000Y-88780000D02*
X90770000Y-90620000D01*
X90770000Y-90620000D02*
X94610000Y-90620000D01*
X94610000Y-88780000D02*
X90770000Y-88780000D01*
X94610000Y-90620000D02*
X94610000Y-88780000D01*
X95560000Y-89700000D02*
X94610000Y-89700000D01*
%TO.C,J11*%
X108720000Y-70580000D02*
X108720000Y-69250000D01*
X110050000Y-70580000D02*
X108720000Y-70580000D01*
X111320000Y-67920000D02*
X116460000Y-67920000D01*
X111320000Y-70580000D02*
X111320000Y-67920000D01*
X111320000Y-70580000D02*
X116460000Y-70580000D01*
X116460000Y-70580000D02*
X116460000Y-67920000D01*
%TO.C,R8*%
X149182776Y-57522500D02*
X149692224Y-57522500D01*
X149182776Y-56477500D02*
X149692224Y-56477500D01*
%TO.C,R11*%
X132620276Y-73872500D02*
X133129724Y-73872500D01*
X132620276Y-72827500D02*
X133129724Y-72827500D01*
%TO.C,U4*%
X106275000Y-36032500D02*
X106275000Y-64607500D01*
X106275000Y-64607500D02*
X134215000Y-64607500D01*
X116435000Y-36032500D02*
X106275000Y-36032500D01*
X116435000Y-36032500D02*
X134215000Y-36032500D01*
X117010000Y-36607500D02*
X117010000Y-39267500D01*
X124690000Y-36607500D02*
X117010000Y-36607500D01*
X124690000Y-36607500D02*
X124690000Y-39267500D01*
X124690000Y-39267500D02*
X117010000Y-39267500D01*
X127290000Y-37937500D02*
X127290000Y-39267500D01*
X127290000Y-39267500D02*
X125960000Y-39267500D01*
X127865000Y-36032500D02*
X138025000Y-36032500D01*
X138025000Y-36032500D02*
X138025000Y-64607500D01*
X138025000Y-64607500D02*
X134215000Y-64607500D01*
%TO.C,R4*%
X80640000Y-58800000D02*
X81590000Y-58800000D01*
X81590000Y-57880000D02*
X81590000Y-59720000D01*
X81590000Y-59720000D02*
X85430000Y-59720000D01*
X85430000Y-57880000D02*
X81590000Y-57880000D01*
X85430000Y-59720000D02*
X85430000Y-57880000D01*
X86380000Y-58800000D02*
X85430000Y-58800000D01*
%TO.C,J5*%
X132380000Y-119610000D02*
X132380000Y-120350000D01*
X132380000Y-120350000D02*
X132880000Y-120350000D01*
X132620000Y-110189000D02*
X132620000Y-120110000D01*
X132620000Y-110189000D02*
X158140000Y-110189000D01*
X132620000Y-113149000D02*
X158140000Y-113149000D01*
X132620000Y-118050000D02*
X158140000Y-118050000D01*
X132620000Y-119550000D02*
X158140000Y-119550000D01*
X132620000Y-120110000D02*
X158140000Y-120110000D01*
X139073000Y-116473000D02*
X139026000Y-116519000D01*
X139266000Y-116689000D02*
X139231000Y-116724000D01*
X141370000Y-114175000D02*
X141335000Y-114211000D01*
X141575000Y-114381000D02*
X141528000Y-114427000D01*
X144153000Y-116473000D02*
X144106000Y-116519000D01*
X144346000Y-116689000D02*
X144311000Y-116724000D01*
X146450000Y-114175000D02*
X146415000Y-114211000D01*
X146655000Y-114381000D02*
X146608000Y-114427000D01*
X149233000Y-116473000D02*
X149186000Y-116519000D01*
X149426000Y-116689000D02*
X149391000Y-116724000D01*
X151530000Y-114175000D02*
X151495000Y-114211000D01*
X151735000Y-114381000D02*
X151688000Y-114427000D01*
X154313000Y-116473000D02*
X154266000Y-116519000D01*
X154506000Y-116689000D02*
X154471000Y-116724000D01*
X156610000Y-114175000D02*
X156575000Y-114211000D01*
X156815000Y-114381000D02*
X156768000Y-114427000D01*
X158140000Y-110189000D02*
X158140000Y-120110000D01*
X133684573Y-116133042D02*
G75*
G02*
X133685000Y-114766000I1535420J683041D01*
G01*
X134536958Y-113914573D02*
G75*
G02*
X135904000Y-113915000I683041J-1535420D01*
G01*
X135248805Y-117130253D02*
G75*
G02*
X134536000Y-116985000I-28806J1680254D01*
G01*
X135903318Y-116984756D02*
G75*
G02*
X135220000Y-117130000I-683318J1534756D01*
G01*
X136755427Y-114766958D02*
G75*
G02*
X136755000Y-116134000I-1535427J-683042D01*
G01*
X141980000Y-115450000D02*
G75*
G02*
X138620000Y-115450000I-1680000J0D01*
G01*
X138620000Y-115450000D02*
G75*
G02*
X141980000Y-115450000I1680000J0D01*
G01*
X147060000Y-115450000D02*
G75*
G02*
X143700000Y-115450000I-1680000J0D01*
G01*
X143700000Y-115450000D02*
G75*
G02*
X147060000Y-115450000I1680000J0D01*
G01*
X152140000Y-115450000D02*
G75*
G02*
X148780000Y-115450000I-1680000J0D01*
G01*
X148780000Y-115450000D02*
G75*
G02*
X152140000Y-115450000I1680000J0D01*
G01*
X157220000Y-115450000D02*
G75*
G02*
X153860000Y-115450000I-1680000J0D01*
G01*
X153860000Y-115450000D02*
G75*
G02*
X157220000Y-115450000I1680000J0D01*
G01*
%TO.C,Q2*%
X90730000Y-97750000D02*
X94330000Y-97750000D01*
X90691522Y-97738478D02*
G75*
G02*
X92530000Y-93299999I1838478J1838478D01*
G01*
X92530000Y-93300000D02*
G75*
G02*
X94368478Y-97738478I0J-2600000D01*
G01*
%TO.C,R15*%
X76440000Y-54000000D02*
X77390000Y-54000000D01*
X77390000Y-53080000D02*
X77390000Y-54920000D01*
X77390000Y-54920000D02*
X81230000Y-54920000D01*
X81230000Y-53080000D02*
X77390000Y-53080000D01*
X81230000Y-54920000D02*
X81230000Y-53080000D01*
X82180000Y-54000000D02*
X81230000Y-54000000D01*
%TD*%
M02*
