%TF.GenerationSoftware,KiCad,Pcbnew,8.0.6-8.0.6-0~ubuntu24.04.1*%
%TF.CreationDate,2024-11-15T18:56:02-05:00*%
%TF.ProjectId,sweet-p,73776565-742d-4702-9e6b-696361645f70,rev?*%
%TF.SameCoordinates,Original*%
%TF.FileFunction,Copper,L1,Top*%
%TF.FilePolarity,Positive*%
%FSLAX46Y46*%
G04 Gerber Fmt 4.6, Leading zero omitted, Abs format (unit mm)*
G04 Created by KiCad (PCBNEW 8.0.6-8.0.6-0~ubuntu24.04.1) date 2024-11-15 18:56:02*
%MOMM*%
%LPD*%
G01*
G04 APERTURE LIST*
G04 Aperture macros list*
%AMRoundRect*
0 Rectangle with rounded corners*
0 $1 Rounding radius*
0 $2 $3 $4 $5 $6 $7 $8 $9 X,Y pos of 4 corners*
0 Add a 4 corners polygon primitive as box body*
4,1,4,$2,$3,$4,$5,$6,$7,$8,$9,$2,$3,0*
0 Add four circle primitives for the rounded corners*
1,1,$1+$1,$2,$3*
1,1,$1+$1,$4,$5*
1,1,$1+$1,$6,$7*
1,1,$1+$1,$8,$9*
0 Add four rect primitives between the rounded corners*
20,1,$1+$1,$2,$3,$4,$5,0*
20,1,$1+$1,$4,$5,$6,$7,0*
20,1,$1+$1,$6,$7,$8,$9,0*
20,1,$1+$1,$8,$9,$2,$3,0*%
G04 Aperture macros list end*
%TA.AperFunction,ComponentPad*%
%ADD10C,2.000000*%
%TD*%
%TA.AperFunction,ComponentPad*%
%ADD11C,1.400000*%
%TD*%
%TA.AperFunction,ComponentPad*%
%ADD12O,1.400000X1.400000*%
%TD*%
%TA.AperFunction,SMDPad,CuDef*%
%ADD13RoundRect,0.237500X-0.237500X0.250000X-0.237500X-0.250000X0.237500X-0.250000X0.237500X0.250000X0*%
%TD*%
%TA.AperFunction,ComponentPad*%
%ADD14R,1.900000X1.900000*%
%TD*%
%TA.AperFunction,ComponentPad*%
%ADD15C,1.900000*%
%TD*%
%TA.AperFunction,ComponentPad*%
%ADD16R,1.700000X1.700000*%
%TD*%
%TA.AperFunction,ComponentPad*%
%ADD17O,1.700000X1.700000*%
%TD*%
%TA.AperFunction,ComponentPad*%
%ADD18R,1.800000X1.800000*%
%TD*%
%TA.AperFunction,ComponentPad*%
%ADD19C,1.800000*%
%TD*%
%TA.AperFunction,ComponentPad*%
%ADD20R,2.600000X2.600000*%
%TD*%
%TA.AperFunction,ComponentPad*%
%ADD21C,2.600000*%
%TD*%
%TA.AperFunction,SMDPad,CuDef*%
%ADD22RoundRect,0.237500X0.237500X-0.250000X0.237500X0.250000X-0.237500X0.250000X-0.237500X-0.250000X0*%
%TD*%
%TA.AperFunction,ComponentPad*%
%ADD23R,1.508000X1.508000*%
%TD*%
%TA.AperFunction,ComponentPad*%
%ADD24C,1.508000*%
%TD*%
%TA.AperFunction,ComponentPad*%
%ADD25R,1.600000X1.600000*%
%TD*%
%TA.AperFunction,ComponentPad*%
%ADD26C,1.600000*%
%TD*%
%TA.AperFunction,ComponentPad*%
%ADD27C,1.524000*%
%TD*%
%TA.AperFunction,SMDPad,CuDef*%
%ADD28R,1.750000X0.700000*%
%TD*%
%TA.AperFunction,SMDPad,CuDef*%
%ADD29R,1.500000X1.300000*%
%TD*%
%TA.AperFunction,SMDPad,CuDef*%
%ADD30R,1.500000X0.800000*%
%TD*%
%TA.AperFunction,SMDPad,CuDef*%
%ADD31R,1.400000X0.800000*%
%TD*%
%TA.AperFunction,SMDPad,CuDef*%
%ADD32R,1.500000X1.500000*%
%TD*%
%TA.AperFunction,SMDPad,CuDef*%
%ADD33R,1.550000X1.000000*%
%TD*%
%TA.AperFunction,SMDPad,CuDef*%
%ADD34R,1.000000X1.450000*%
%TD*%
%TA.AperFunction,SMDPad,CuDef*%
%ADD35RoundRect,0.237500X0.250000X0.237500X-0.250000X0.237500X-0.250000X-0.237500X0.250000X-0.237500X0*%
%TD*%
%TA.AperFunction,SMDPad,CuDef*%
%ADD36RoundRect,0.237500X-0.250000X-0.237500X0.250000X-0.237500X0.250000X0.237500X-0.250000X0.237500X0*%
%TD*%
%TA.AperFunction,ViaPad*%
%ADD37C,0.800000*%
%TD*%
%TA.AperFunction,Conductor*%
%ADD38C,0.400000*%
%TD*%
%TA.AperFunction,Conductor*%
%ADD39C,0.700000*%
%TD*%
G04 APERTURE END LIST*
D10*
%TO.P,SW1,1,1*%
%TO.N,A5*%
X106800000Y-78200000D03*
X106800000Y-84700000D03*
%TO.P,SW1,2,2*%
%TO.N,GND*%
X102300000Y-78200000D03*
X102300000Y-84700000D03*
%TD*%
D11*
%TO.P,R4,1*%
%TO.N,+3V3*%
X96400000Y-81790000D03*
D12*
%TO.P,R4,2*%
%TO.N,A5*%
X96400000Y-89410000D03*
%TD*%
D13*
%TO.P,R3,1*%
%TO.N,+3V3*%
X96400000Y-84687500D03*
%TO.P,R3,2*%
%TO.N,A5*%
X96400000Y-86512500D03*
%TD*%
D14*
%TO.P,S2,1*%
%TO.N,Net-(U8-+VIN)*%
X29000000Y-73000000D03*
D15*
%TO.P,S2,2*%
%TO.N,VEXT*%
X29000000Y-75500000D03*
%TO.P,S2,3*%
%TO.N,unconnected-(S2-Pad3)*%
X29000000Y-78000000D03*
%TD*%
D16*
%TO.P,U1,1,VDD*%
%TO.N,5V_DC*%
X61310000Y-63832500D03*
D17*
%TO.P,U1,2,GND*%
%TO.N,GND*%
X61310000Y-66372500D03*
%TO.P,U1,3,DELAY*%
%TO.N,Net-(J3-Pin_2)*%
X61310000Y-68912500D03*
%TO.P,U1,4,DRIVE*%
%TO.N,5V_TIMER*%
X61310000Y-71452500D03*
%TO.P,U1,5,DONE*%
%TO.N,DONE*%
X61310000Y-73992500D03*
%TD*%
D11*
%TO.P,R19,1*%
%TO.N,DONE*%
X70810000Y-72002500D03*
D12*
%TO.P,R19,2*%
%TO.N,GND*%
X70810000Y-64382500D03*
%TD*%
D18*
%TO.P,D1,1,K*%
%TO.N,GND*%
X52040000Y-25500000D03*
D19*
%TO.P,D1,2,A*%
%TO.N,Net-(D1-A)*%
X49500000Y-25500000D03*
%TD*%
D11*
%TO.P,R6,1*%
%TO.N,+3V3*%
X78380000Y-45500000D03*
D12*
%TO.P,R6,2*%
%TO.N,ONEWIRE_11*%
X86000000Y-45500000D03*
%TD*%
D20*
%TO.P,J2,1,Pin_1*%
%TO.N,VEXT*%
X39000000Y-85600000D03*
D21*
%TO.P,J2,2,Pin_2*%
%TO.N,GND*%
X44000000Y-85600000D03*
%TD*%
D22*
%TO.P,R14,1*%
%TO.N,VEXT*%
X35950000Y-74722500D03*
%TO.P,R14,2*%
%TO.N,BATT_A1*%
X35950000Y-72897500D03*
%TD*%
D20*
%TO.P,J1,1,Pin_1*%
%TO.N,+3V3*%
X80000000Y-86200000D03*
D21*
%TO.P,J1,2,Pin_2*%
%TO.N,ONEWIRE_11*%
X85000000Y-86200000D03*
%TO.P,J1,3,Pin_3*%
%TO.N,GND*%
X90000000Y-86200000D03*
%TD*%
D23*
%TO.P,U8,1,+VIN*%
%TO.N,Net-(U8-+VIN)*%
X41420000Y-75500000D03*
D24*
%TO.P,U8,2,GND*%
%TO.N,GND*%
X43960000Y-75500000D03*
%TO.P,U8,3,+VOUT*%
%TO.N,5V_DC*%
X46500000Y-75500000D03*
%TD*%
D25*
%TO.P,C2,1*%
%TO.N,5V_TIMER*%
X47750000Y-64455113D03*
D26*
%TO.P,C2,2*%
%TO.N,GND*%
X47750000Y-62455113D03*
%TD*%
D22*
%TO.P,R20,1*%
%TO.N,DONE*%
X70810000Y-69065000D03*
%TO.P,R20,2*%
%TO.N,GND*%
X70810000Y-67240000D03*
%TD*%
D27*
%TO.P,U7,1,VIN*%
%TO.N,+3V3*%
X82200000Y-56500000D03*
%TO.P,U7,2,GND*%
%TO.N,GND*%
X82200000Y-59000000D03*
%TO.P,U7,3,SCL*%
%TO.N,SCL*%
X82200000Y-61500000D03*
%TO.P,U7,4,SDA*%
%TO.N,SDA*%
X82200000Y-64000000D03*
%TO.P,U7,5,VBAT*%
%TO.N,unconnected-(U7-VBAT-Pad5)*%
X82200000Y-66500000D03*
%TO.P,U7,6,32K*%
%TO.N,unconnected-(U7-32K-Pad6)*%
X82200000Y-69000000D03*
%TO.P,U7,7,SQW*%
%TO.N,unconnected-(U7-SQW-Pad7)*%
X82200000Y-71500000D03*
%TO.P,U7,8,RST*%
%TO.N,unconnected-(U7-RST-Pad8)*%
X82200000Y-74000000D03*
%TD*%
D28*
%TO.P,J10,1,DAT2*%
%TO.N,unconnected-(J10-DAT2-Pad1)*%
X29500000Y-61700000D03*
%TO.P,J10,2,DAT3/CD*%
%TO.N,SD_CS*%
X29500000Y-60600000D03*
%TO.P,J10,3,CMD*%
%TO.N,MOSI*%
X29500000Y-59500000D03*
%TO.P,J10,4,VDD*%
%TO.N,+3V3*%
X29500000Y-58400000D03*
%TO.P,J10,5,CLK*%
%TO.N,SCK*%
X29500000Y-57300000D03*
%TO.P,J10,6,VSS*%
%TO.N,GND*%
X29500000Y-56200000D03*
%TO.P,J10,7,DAT0*%
%TO.N,MISO*%
X29500000Y-55100000D03*
%TO.P,J10,8,DAT1*%
%TO.N,unconnected-(J10-DAT1-Pad8)*%
X29500000Y-54000000D03*
D29*
%TO.P,J10,9,SHIELD*%
%TO.N,GND*%
X29625000Y-52800000D03*
D30*
%TO.P,J10,10*%
%TO.N,N/C*%
X37225000Y-52550000D03*
D31*
%TO.P,J10,11*%
X37875000Y-64500000D03*
D32*
%TO.P,J10,12*%
X29625000Y-64150000D03*
D33*
%TO.P,J10,A*%
X40300000Y-64100000D03*
D34*
%TO.P,J10,B*%
X38725000Y-52875000D03*
%TD*%
D11*
%TO.P,R17,1*%
%TO.N,SAT_EN*%
X94500000Y-42620000D03*
D12*
%TO.P,R17,2*%
%TO.N,GND*%
X94500000Y-35000000D03*
%TD*%
D11*
%TO.P,R13,1*%
%TO.N,VEXT*%
X36000000Y-77620000D03*
D12*
%TO.P,R13,2*%
%TO.N,BATT_A1*%
X36000000Y-70000000D03*
%TD*%
D22*
%TO.P,R18,1*%
%TO.N,SAT_EN*%
X94450000Y-39932500D03*
%TO.P,R18,2*%
%TO.N,GND*%
X94450000Y-38107500D03*
%TD*%
D16*
%TO.P,J6,1,Pin_1*%
%TO.N,Net-(J3-Pin_2)*%
X49040000Y-53500000D03*
D17*
%TO.P,J6,2,Pin_2*%
%TO.N,GND*%
X46500000Y-53500000D03*
%TD*%
D16*
%TO.P,J3,1,Pin_1*%
%TO.N,GND*%
X56000000Y-66500000D03*
D17*
%TO.P,J3,2,Pin_2*%
%TO.N,Net-(J3-Pin_2)*%
X56000000Y-69040000D03*
%TO.P,J3,3,Pin_3*%
%TO.N,+3V3*%
X56000000Y-71580000D03*
%TO.P,J3,4,Pin_4*%
%TO.N,DONE*%
X56000000Y-74120000D03*
%TD*%
D11*
%TO.P,R7,1*%
%TO.N,LED*%
X36800000Y-25600000D03*
D12*
%TO.P,R7,2*%
%TO.N,Net-(D1-A)*%
X44420000Y-25600000D03*
%TD*%
D35*
%TO.P,R1,1*%
%TO.N,Net-(J3-Pin_2)*%
X48642500Y-57500000D03*
%TO.P,R1,2*%
%TO.N,GND*%
X46817500Y-57500000D03*
%TD*%
D11*
%TO.P,R12,1*%
%TO.N,+3V3*%
X78500000Y-38500000D03*
D12*
%TO.P,R12,2*%
%TO.N,SCL*%
X86120000Y-38500000D03*
%TD*%
D36*
%TO.P,R16,1*%
%TO.N,BATT_A1*%
X43287500Y-39050000D03*
%TO.P,R16,2*%
%TO.N,GND*%
X45112500Y-39050000D03*
%TD*%
D16*
%TO.P,A2,1,RESET*%
%TO.N,unconnected-(A2-RESET-Pad1)*%
X28520000Y-47500000D03*
D17*
%TO.P,A2,2,3V*%
%TO.N,+3V3*%
X31060000Y-47500000D03*
%TO.P,A2,3,EN*%
%TO.N,unconnected-(A2-EN-Pad3)*%
X33600000Y-47500000D03*
%TO.P,A2,4,VHI*%
%TO.N,VHI*%
X36140000Y-47500000D03*
%TO.P,A2,5,A0*%
%TO.N,A0*%
X38680000Y-47500000D03*
%TO.P,A2,6,A1*%
%TO.N,BATT_A1*%
X41220000Y-47500000D03*
%TO.P,A2,7,A2*%
%TO.N,A2*%
X43760000Y-47500000D03*
%TO.P,A2,8,A3*%
%TO.N,A3*%
X46300000Y-47500000D03*
%TO.P,A2,9,A4*%
%TO.N,TX_A4*%
X48840000Y-47500000D03*
%TO.P,A2,10,A5*%
%TO.N,A5*%
X51380000Y-47500000D03*
%TO.P,A2,11,SCK*%
%TO.N,SCK*%
X53920000Y-47500000D03*
%TO.P,A2,12,M0*%
%TO.N,MOSI*%
X56460000Y-47500000D03*
%TO.P,A2,13,MI*%
%TO.N,MISO*%
X59000000Y-47500000D03*
%TO.P,A2,14,D2*%
%TO.N,RX_D2*%
X61540000Y-47500000D03*
%TO.P,A2,15,RX*%
%TO.N,RX*%
X61570000Y-32465000D03*
%TO.P,A2,16,TX*%
%TO.N,TX*%
X59030000Y-32465000D03*
%TO.P,A2,17,SDA*%
%TO.N,SDA*%
X56490000Y-32465000D03*
%TO.P,A2,18,SCL*%
%TO.N,SCL*%
X53950000Y-32465000D03*
%TO.P,A2,19,5!*%
%TO.N,unconnected-(A2-5!-Pad19)*%
X51410000Y-32465000D03*
%TO.P,A2,20,7*%
%TO.N,DONE*%
X48870000Y-32465000D03*
%TO.P,A2,21,9*%
%TO.N,SAT_EN*%
X46330000Y-32465000D03*
%TO.P,A2,22,10*%
%TO.N,SD_CS*%
X43790000Y-32465000D03*
%TO.P,A2,23,11*%
%TO.N,ONEWIRE_11*%
X41250000Y-32465000D03*
%TO.P,A2,24,12*%
%TO.N,D12*%
X38710000Y-32465000D03*
%TO.P,A2,25,13*%
%TO.N,LED*%
X36170000Y-32465000D03*
%TO.P,A2,26,USB*%
%TO.N,unconnected-(A2-USB-Pad26)*%
X33630000Y-32465000D03*
%TO.P,A2,27,GND*%
%TO.N,GND*%
X31090000Y-32465000D03*
D16*
%TO.P,A2,28,BAT*%
%TO.N,5V_TIMER*%
X28550000Y-32465000D03*
%TD*%
D11*
%TO.P,R2,1*%
%TO.N,Net-(J3-Pin_2)*%
X51540000Y-57500000D03*
D12*
%TO.P,R2,2*%
%TO.N,GND*%
X43920000Y-57500000D03*
%TD*%
D36*
%TO.P,R5,1*%
%TO.N,+3V3*%
X81175000Y-45500000D03*
%TO.P,R5,2*%
%TO.N,ONEWIRE_11*%
X83000000Y-45500000D03*
%TD*%
D16*
%TO.P,J7,1,Pin_1*%
%TO.N,+3V3*%
X102800000Y-45500000D03*
D17*
%TO.P,J7,2,Pin_2*%
%TO.N,5V_DC*%
X102800000Y-42960000D03*
%TO.P,J7,3,Pin_3*%
%TO.N,SAT_EN*%
X102800000Y-40420000D03*
%TO.P,J7,4,Pin_4*%
%TO.N,TX*%
X102800000Y-37880000D03*
%TO.P,J7,5,Pin_5*%
%TO.N,RX*%
X102800000Y-35340000D03*
%TO.P,J7,6,Pin_6*%
%TO.N,GND*%
X102800000Y-32800000D03*
%TD*%
D11*
%TO.P,R9,1*%
%TO.N,+3V3*%
X78500000Y-32000000D03*
D12*
%TO.P,R9,2*%
%TO.N,SDA*%
X86120000Y-32000000D03*
%TD*%
D36*
%TO.P,R10,1*%
%TO.N,+3V3*%
X81397500Y-32000000D03*
%TO.P,R10,2*%
%TO.N,SDA*%
X83222500Y-32000000D03*
%TD*%
D17*
%TO.P,J8,8,Pin_8*%
%TO.N,A3*%
X102762000Y-51638000D03*
%TO.P,J8,7,Pin_7*%
%TO.N,A2*%
X102762000Y-54178000D03*
%TO.P,J8,6,Pin_6*%
%TO.N,A0*%
X102762000Y-56718000D03*
%TO.P,J8,5,Pin_5*%
%TO.N,SCL*%
X102762000Y-59258000D03*
%TO.P,J8,4,Pin_4*%
%TO.N,SDA*%
X102762000Y-61798000D03*
%TO.P,J8,3,Pin_3*%
%TO.N,5V_TIMER*%
X102762000Y-64338000D03*
%TO.P,J8,2,Pin_2*%
%TO.N,+3V3*%
X102762000Y-66878000D03*
D16*
%TO.P,J8,1,Pin_1*%
%TO.N,GND*%
X102762000Y-69418000D03*
%TD*%
D36*
%TO.P,R8,1*%
%TO.N,LED*%
X39587500Y-25500000D03*
%TO.P,R8,2*%
%TO.N,Net-(D1-A)*%
X41412500Y-25500000D03*
%TD*%
%TO.P,R11,1*%
%TO.N,+3V3*%
X81432500Y-38500000D03*
%TO.P,R11,2*%
%TO.N,SCL*%
X83257500Y-38500000D03*
%TD*%
D17*
%TO.P,U4,1,GND*%
%TO.N,GND*%
X79000000Y-24000000D03*
%TO.P,U4,2,3V3*%
%TO.N,+3V3*%
X81540000Y-24000000D03*
%TO.P,U4,3,SCL*%
%TO.N,SCL*%
X84080000Y-24000000D03*
D16*
%TO.P,U4,4,SDA*%
%TO.N,SDA*%
X86620000Y-24000000D03*
%TD*%
D20*
%TO.P,J5,1,Pin_1*%
%TO.N,GND*%
X52080000Y-86200000D03*
D21*
%TO.P,J5,2,Pin_2*%
%TO.N,+3V3*%
X57160000Y-86200000D03*
%TO.P,J5,3,Pin_3*%
%TO.N,RX_D2*%
X62240000Y-86200000D03*
%TO.P,J5,4,Pin_4*%
%TO.N,TX_A4*%
X67320000Y-86200000D03*
%TO.P,J5,5,Pin_5*%
%TO.N,D12*%
X72400000Y-86200000D03*
%TD*%
D11*
%TO.P,R15,1*%
%TO.N,BATT_A1*%
X40500000Y-39000000D03*
D12*
%TO.P,R15,2*%
%TO.N,GND*%
X48120000Y-39000000D03*
%TD*%
D37*
%TO.N,A2*%
X77200000Y-54178000D03*
%TO.N,A5*%
X99000000Y-85800000D03*
X100600000Y-81600000D03*
%TO.N,TX*%
X98000000Y-34000000D03*
%TO.N,5V_TIMER*%
X87000000Y-66600000D03*
X85600000Y-78000000D03*
%TO.N,A0*%
X98500000Y-69500000D03*
X100000000Y-56718000D03*
%TO.N,SDA*%
X91500000Y-32500000D03*
X93000000Y-63000000D03*
%TO.N,SCL*%
X87500000Y-61500000D03*
%TO.N,A3*%
X74500000Y-52000000D03*
%TO.N,RX*%
X99000000Y-27000000D03*
X100000000Y-35000000D03*
%TO.N,TX*%
X99000000Y-37500000D03*
%TO.N,GND*%
X94500000Y-33000000D03*
%TO.N,+3V3*%
X96000000Y-46000000D03*
%TO.N,5V_DC*%
X99500000Y-43000000D03*
X99500000Y-48500000D03*
%TO.N,A5*%
X79500000Y-76500000D03*
X78000000Y-64000000D03*
%TO.N,5V_TIMER*%
X65000000Y-78000000D03*
%TO.N,+3V3*%
X96000000Y-67000000D03*
%TO.N,GND*%
X91000000Y-80000000D03*
X94500000Y-80000000D03*
%TO.N,+3V3*%
X80000000Y-82500000D03*
X57750000Y-81200000D03*
%TO.N,A2*%
X75000000Y-42500000D03*
X45500000Y-43000000D03*
%TO.N,A5*%
X56000000Y-61500000D03*
X53000000Y-46000000D03*
%TO.N,TX*%
X65500000Y-29000000D03*
X66000000Y-33500000D03*
X59500000Y-29000000D03*
%TO.N,RX*%
X62000000Y-27500000D03*
%TO.N,SAT_EN*%
X74500000Y-41000000D03*
X72500000Y-30000000D03*
%TO.N,GND*%
X70500000Y-59500000D03*
X56000000Y-63500000D03*
X31000000Y-41000000D03*
X94500000Y-59500000D03*
X70500000Y-41000000D03*
X44000000Y-55000000D03*
X70500000Y-25500000D03*
X70500000Y-28500000D03*
X94500000Y-28500000D03*
X79000000Y-28500000D03*
%TO.N,+3V3*%
X96000000Y-50500000D03*
X83000000Y-50500000D03*
X78500000Y-50500000D03*
X31000000Y-50500000D03*
X27000000Y-58500000D03*
X57750000Y-72500000D03*
X27000000Y-50500000D03*
X81500000Y-30500000D03*
%TO.N,SDA*%
X64000000Y-33000000D03*
X63000000Y-38500000D03*
X57500000Y-38500000D03*
%TO.N,SCL*%
X84080000Y-36460000D03*
X55000000Y-36000000D03*
%TO.N,SD_CS*%
X40000000Y-60000000D03*
X44000000Y-42500000D03*
X40500000Y-43000000D03*
%TO.N,MOSI*%
X36000000Y-44000000D03*
X34000000Y-59500000D03*
X55500000Y-44000000D03*
%TO.N,SCK*%
X48500000Y-52000000D03*
X47000000Y-56000000D03*
X54000000Y-51500000D03*
%TO.N,MISO*%
X58500000Y-45000000D03*
X33000000Y-45000000D03*
X32500000Y-54500000D03*
%TO.N,DONE*%
X54500000Y-67000000D03*
X72500000Y-71002500D03*
X72500000Y-69402500D03*
X51250000Y-65250000D03*
%TO.N,Net-(J3-Pin_2)*%
X56750000Y-57250000D03*
X58750000Y-68912500D03*
%TO.N,TX_A4*%
X69000000Y-61000000D03*
X45500000Y-60000000D03*
%TO.N,5V_TIMER*%
X50500000Y-78500000D03*
X65000000Y-37500000D03*
X64500000Y-71500000D03*
X28500000Y-37000000D03*
X59000000Y-78500000D03*
X59000000Y-71500000D03*
%TO.N,ONEWIRE_11*%
X42500000Y-35000000D03*
X89000000Y-45500000D03*
X89500000Y-36000000D03*
%TO.N,BATT_A1*%
X41000000Y-69000000D03*
%TO.N,A3*%
X73500000Y-43000000D03*
X47500000Y-43000000D03*
%TO.N,A0*%
X39000000Y-71000000D03*
%TO.N,5V_DC*%
X67000000Y-64000000D03*
X67000000Y-48500000D03*
X67000000Y-76000000D03*
%TO.N,Net-(U8-+VIN)*%
X43500000Y-66000000D03*
X31500000Y-66000000D03*
%TD*%
D38*
%TO.N,A2*%
X102762000Y-54178000D02*
X77200000Y-54178000D01*
%TO.N,A5*%
X79500000Y-76500000D02*
X105100000Y-76500000D01*
X105100000Y-76500000D02*
X106800000Y-78200000D01*
X106800000Y-80600000D02*
X106800000Y-79600000D01*
X106800000Y-79600000D02*
X106800000Y-78200000D01*
X106800000Y-84700000D02*
X106800000Y-79600000D01*
X105800000Y-81600000D02*
X106800000Y-80600000D01*
X100600000Y-81600000D02*
X105800000Y-81600000D01*
X96400000Y-86512500D02*
X98287500Y-86512500D01*
X98287500Y-86512500D02*
X99000000Y-85800000D01*
%TO.N,SAT_EN*%
X102800000Y-40420000D02*
X94937500Y-40420000D01*
X94937500Y-40420000D02*
X94450000Y-39932500D01*
%TO.N,A5*%
X96400000Y-86512500D02*
X96400000Y-89410000D01*
D39*
%TO.N,5V_TIMER*%
X89262000Y-64338000D02*
X87000000Y-66600000D01*
X85600000Y-78000000D02*
X65000000Y-78000000D01*
X102762000Y-64338000D02*
X89262000Y-64338000D01*
D38*
%TO.N,A0*%
X82669183Y-70202500D02*
X97797500Y-70202500D01*
X97797500Y-70202500D02*
X98500000Y-69500000D01*
X102762000Y-56718000D02*
X100000000Y-56718000D01*
%TO.N,SDA*%
X91000000Y-32000000D02*
X91500000Y-32500000D01*
X86120000Y-32000000D02*
X91000000Y-32000000D01*
X101560000Y-63000000D02*
X93000000Y-63000000D01*
X93000000Y-63000000D02*
X84500000Y-63000000D01*
%TO.N,SCL*%
X82200000Y-61500000D02*
X87500000Y-61500000D01*
X87500000Y-61500000D02*
X100520000Y-61500000D01*
%TO.N,SDA*%
X102762000Y-61798000D02*
X101560000Y-63000000D01*
X84500000Y-63000000D02*
X83500000Y-64000000D01*
X83500000Y-64000000D02*
X82200000Y-64000000D01*
%TO.N,SCL*%
X100520000Y-61500000D02*
X102762000Y-59258000D01*
%TO.N,A3*%
X74500000Y-52000000D02*
X75000000Y-52500000D01*
X75000000Y-52500000D02*
X101900000Y-52500000D01*
X101900000Y-52500000D02*
X102762000Y-51638000D01*
%TO.N,RX*%
X102800000Y-35340000D02*
X100340000Y-35340000D01*
X100340000Y-35340000D02*
X100000000Y-35000000D01*
X99000000Y-27000000D02*
X62500000Y-27000000D01*
X62500000Y-27000000D02*
X62000000Y-27500000D01*
%TO.N,TX*%
X102420000Y-37500000D02*
X102800000Y-37880000D01*
X99000000Y-37500000D02*
X102420000Y-37500000D01*
X66400000Y-33900000D02*
X97900000Y-33900000D01*
X97900000Y-33900000D02*
X98000000Y-34000000D01*
D39*
%TO.N,GND*%
X102800000Y-32800000D02*
X94700000Y-32800000D01*
X94700000Y-32800000D02*
X94500000Y-33000000D01*
%TO.N,+3V3*%
X96500000Y-45500000D02*
X96000000Y-46000000D01*
X102800000Y-45500000D02*
X96500000Y-45500000D01*
%TO.N,5V_DC*%
X99460000Y-48500000D02*
X99500000Y-48500000D01*
X102760000Y-43000000D02*
X102800000Y-42960000D01*
X99500000Y-43000000D02*
X102760000Y-43000000D01*
D38*
%TO.N,A5*%
X76838000Y-62838000D02*
X78000000Y-64000000D01*
X62886000Y-62838000D02*
X76838000Y-62838000D01*
X62862000Y-62862000D02*
X62886000Y-62838000D01*
D39*
%TO.N,+3V3*%
X102762000Y-66878000D02*
X96122000Y-66878000D01*
X96122000Y-66878000D02*
X96000000Y-67000000D01*
%TO.N,GND*%
X94500000Y-80000000D02*
X99300000Y-80000000D01*
X99300000Y-80000000D02*
X101300000Y-78000000D01*
X91000000Y-80000000D02*
X94500000Y-80000000D01*
%TO.N,+3V3*%
X96400000Y-81790000D02*
X96400000Y-84687500D01*
X80000000Y-82500000D02*
X95690000Y-82500000D01*
X95690000Y-82500000D02*
X96400000Y-81790000D01*
X79700000Y-82200000D02*
X80000000Y-82500000D01*
X70400000Y-82200000D02*
X79700000Y-82200000D01*
X63400000Y-82200000D02*
X70400000Y-82200000D01*
X57750000Y-81200000D02*
X62400000Y-81200000D01*
X62400000Y-81200000D02*
X63400000Y-82200000D01*
%TO.N,GND*%
X44000000Y-85600000D02*
X51480000Y-85600000D01*
X51480000Y-85600000D02*
X52080000Y-86200000D01*
D38*
%TO.N,A2*%
X74300000Y-41800000D02*
X46700000Y-41800000D01*
X46700000Y-41800000D02*
X45500000Y-43000000D01*
%TO.N,A0*%
X102762000Y-56718000D02*
X102480000Y-57000000D01*
%TO.N,A2*%
X75000000Y-42500000D02*
X74300000Y-41800000D01*
%TO.N,A5*%
X61500000Y-61500000D02*
X56000000Y-61500000D01*
X53000000Y-46000000D02*
X52880000Y-46000000D01*
X52880000Y-46000000D02*
X51380000Y-47500000D01*
X62862000Y-62862000D02*
X61500000Y-61500000D01*
%TO.N,TX*%
X66400000Y-33900000D02*
X66000000Y-33500000D01*
X65500000Y-29000000D02*
X59500000Y-29000000D01*
%TO.N,SAT_EN*%
X88500000Y-41000000D02*
X74500000Y-41000000D01*
X94450000Y-39932500D02*
X89567500Y-39932500D01*
X89567500Y-39932500D02*
X88500000Y-41000000D01*
X46330000Y-30670000D02*
X46330000Y-32465000D01*
X72500000Y-30000000D02*
X47000000Y-30000000D01*
X94500000Y-42620000D02*
X94500000Y-39982500D01*
X47000000Y-30000000D02*
X46330000Y-30670000D01*
X94500000Y-39982500D02*
X94450000Y-39932500D01*
X102500000Y-40120000D02*
X102800000Y-40420000D01*
D39*
%TO.N,GND*%
X34800000Y-56200000D02*
X36000000Y-55000000D01*
X45112500Y-40387500D02*
X45112500Y-39050000D01*
X79000000Y-28500000D02*
X94500000Y-28500000D01*
X29625000Y-52800000D02*
X34300000Y-52800000D01*
X79000000Y-28500000D02*
X70500000Y-28500000D01*
X62240000Y-67240000D02*
X70810000Y-67240000D01*
X47750000Y-62455113D02*
X54955113Y-62455113D01*
X83310000Y-59200000D02*
X70800000Y-59200000D01*
X36000000Y-55000000D02*
X36500000Y-55000000D01*
X34300000Y-52800000D02*
X36500000Y-55000000D01*
X61182500Y-66500000D02*
X61310000Y-66372500D01*
X52040000Y-25500000D02*
X70500000Y-25500000D01*
X36500000Y-55000000D02*
X44000000Y-55000000D01*
X70810000Y-67240000D02*
X70810000Y-64382500D01*
X45000000Y-40500000D02*
X45112500Y-40387500D01*
X94450000Y-35050000D02*
X94500000Y-35000000D01*
X95000000Y-35000000D02*
X95300000Y-35300000D01*
X45112500Y-39050000D02*
X48070000Y-39050000D01*
X61372500Y-66372500D02*
X62240000Y-67240000D01*
X45000000Y-41000000D02*
X70500000Y-41000000D01*
X94450000Y-38107500D02*
X94450000Y-35050000D01*
X45000000Y-41000000D02*
X45000000Y-40500000D01*
X48070000Y-39050000D02*
X48120000Y-39000000D01*
X94200000Y-59200000D02*
X94500000Y-59500000D01*
X56000000Y-66500000D02*
X61182500Y-66500000D01*
X94500000Y-35000000D02*
X95000000Y-35000000D01*
X31000000Y-41000000D02*
X45000000Y-41000000D01*
X83310000Y-59200000D02*
X94200000Y-59200000D01*
X54955113Y-62455113D02*
X56000000Y-63500000D01*
X45000000Y-55000000D02*
X46500000Y-53500000D01*
X44000000Y-55000000D02*
X45000000Y-55000000D01*
X70800000Y-59200000D02*
X70500000Y-59500000D01*
X29500000Y-56200000D02*
X34800000Y-56200000D01*
X43920000Y-57500000D02*
X46817500Y-57500000D01*
X61310000Y-66372500D02*
X61372500Y-66372500D01*
%TO.N,+3V3*%
X83000000Y-50500000D02*
X96000000Y-50500000D01*
X81397500Y-32000000D02*
X78500000Y-32000000D01*
X56830000Y-71580000D02*
X57750000Y-72500000D01*
X56000000Y-71580000D02*
X56830000Y-71580000D01*
X78380000Y-45500000D02*
X81175000Y-45500000D01*
X81432500Y-38500000D02*
X78500000Y-38500000D01*
X103300000Y-46000000D02*
X102800000Y-45500000D01*
X27000000Y-50500000D02*
X31000000Y-50500000D01*
X81500000Y-31897500D02*
X81397500Y-32000000D01*
X27100000Y-58400000D02*
X27000000Y-58500000D01*
X29500000Y-58400000D02*
X27100000Y-58400000D01*
X78500000Y-50500000D02*
X83000000Y-50500000D01*
X81500000Y-30500000D02*
X81500000Y-31897500D01*
X31000000Y-50500000D02*
X78500000Y-50500000D01*
D38*
%TO.N,5V_TIMER*%
X102562000Y-64138000D02*
X102762000Y-64338000D01*
%TO.N,SDA*%
X81902456Y-33100000D02*
X68100000Y-33100000D01*
X82000799Y-33001657D02*
X81902456Y-33100000D01*
X68100000Y-33100000D02*
X67500000Y-32500000D01*
X67500000Y-32500000D02*
X64500000Y-32500000D01*
X83222500Y-32000000D02*
X86120000Y-32000000D01*
X64500000Y-32500000D02*
X64000000Y-33000000D01*
X83002456Y-32000000D02*
X82000799Y-33001657D01*
X63000000Y-38500000D02*
X57500000Y-38500000D01*
X83222500Y-32000000D02*
X83002456Y-32000000D01*
%TO.N,SCL*%
X83620000Y-36000000D02*
X84080000Y-36460000D01*
X83257500Y-38500000D02*
X86120000Y-38500000D01*
X55000000Y-36000000D02*
X83620000Y-36000000D01*
%TO.N,SD_CS*%
X29500000Y-60600000D02*
X39400000Y-60600000D01*
X39400000Y-60600000D02*
X40000000Y-60000000D01*
X43500000Y-43000000D02*
X44000000Y-42500000D01*
X40500000Y-43000000D02*
X43500000Y-43000000D01*
%TO.N,MOSI*%
X34000000Y-59500000D02*
X29500000Y-59500000D01*
X55500000Y-44000000D02*
X36000000Y-44000000D01*
%TO.N,SCK*%
X41700000Y-57300000D02*
X43000000Y-56000000D01*
X48500000Y-52000000D02*
X53500000Y-52000000D01*
X43000000Y-56000000D02*
X47000000Y-56000000D01*
X53500000Y-52000000D02*
X54000000Y-51500000D01*
X29500000Y-57300000D02*
X41700000Y-57300000D01*
%TO.N,MISO*%
X31900000Y-55100000D02*
X32500000Y-54500000D01*
X33000000Y-45000000D02*
X58500000Y-45000000D01*
X29500000Y-55100000D02*
X31900000Y-55100000D01*
%TO.N,DONE*%
X56000000Y-74120000D02*
X61182500Y-74120000D01*
X70810000Y-72810000D02*
X70810000Y-72002500D01*
X61310000Y-73992500D02*
X70507500Y-73992500D01*
X71000000Y-73000000D02*
X70810000Y-72810000D01*
X71997500Y-72002500D02*
X70810000Y-72002500D01*
X70507500Y-73992500D02*
X71000000Y-73500000D01*
X51250000Y-65250000D02*
X52750000Y-65250000D01*
X61182500Y-74120000D02*
X61310000Y-73992500D01*
X72500000Y-71002500D02*
X72500000Y-71500000D01*
X70810000Y-69065000D02*
X72162500Y-69065000D01*
X52750000Y-65250000D02*
X54500000Y-67000000D01*
X71000000Y-73500000D02*
X71000000Y-73000000D01*
X72162500Y-69065000D02*
X72500000Y-69402500D01*
X72500000Y-71500000D02*
X71997500Y-72002500D01*
D39*
%TO.N,LED*%
X36800000Y-25600000D02*
X39487500Y-25600000D01*
X39487500Y-25600000D02*
X39587500Y-25500000D01*
%TO.N,VEXT*%
X35172500Y-75500000D02*
X36000000Y-76327500D01*
X36000000Y-76327500D02*
X36000000Y-77620000D01*
X29000000Y-75500000D02*
X35172500Y-75500000D01*
X35172500Y-75500000D02*
X35950000Y-74722500D01*
%TO.N,Net-(D1-A)*%
X44320000Y-25500000D02*
X44420000Y-25600000D01*
X44420000Y-25600000D02*
X49400000Y-25600000D01*
X49400000Y-25600000D02*
X49500000Y-25500000D01*
X41412500Y-25500000D02*
X44320000Y-25500000D01*
D38*
%TO.N,Net-(J3-Pin_2)*%
X51540000Y-57500000D02*
X48642500Y-57500000D01*
X61310000Y-68912500D02*
X58750000Y-68912500D01*
X58750000Y-68912500D02*
X56127500Y-68912500D01*
X53250000Y-57250000D02*
X53000000Y-57500000D01*
X49040000Y-53500000D02*
X49040000Y-57102500D01*
X49040000Y-57102500D02*
X48642500Y-57500000D01*
X53000000Y-57500000D02*
X51540000Y-57500000D01*
X56750000Y-57250000D02*
X53250000Y-57250000D01*
X56127500Y-68912500D02*
X56000000Y-69040000D01*
%TO.N,TX_A4*%
X45500000Y-60000000D02*
X68000000Y-60000000D01*
X68000000Y-60000000D02*
X69000000Y-61000000D01*
D39*
%TO.N,5V_TIMER*%
X64500000Y-71500000D02*
X61357500Y-71500000D01*
X50500000Y-78500000D02*
X59000000Y-78500000D01*
X61262500Y-71500000D02*
X61310000Y-71452500D01*
X64500000Y-37000000D02*
X65000000Y-37500000D01*
X59000000Y-71500000D02*
X61262500Y-71500000D01*
X61357500Y-71500000D02*
X61310000Y-71452500D01*
X28500000Y-37000000D02*
X64500000Y-37000000D01*
D38*
%TO.N,ONEWIRE_11*%
X86000000Y-45500000D02*
X83000000Y-45500000D01*
X42500000Y-35000000D02*
X88500000Y-35000000D01*
X88500000Y-35000000D02*
X89500000Y-36000000D01*
X89000000Y-45500000D02*
X86000000Y-45500000D01*
D39*
%TO.N,BATT_A1*%
X43237500Y-39000000D02*
X43287500Y-39050000D01*
X35950000Y-70050000D02*
X36000000Y-70000000D01*
D38*
X36000000Y-70000000D02*
X40000000Y-70000000D01*
D39*
X35950000Y-72897500D02*
X35950000Y-70050000D01*
D38*
X40000000Y-70000000D02*
X41000000Y-69000000D01*
D39*
X40500000Y-39000000D02*
X43237500Y-39000000D01*
D38*
%TO.N,A3*%
X73500000Y-43000000D02*
X47500000Y-43000000D01*
%TO.N,A2*%
X102762000Y-54178000D02*
X102440000Y-54500000D01*
%TO.N,A0*%
X42170000Y-70330000D02*
X41500000Y-71000000D01*
X57297500Y-70202500D02*
X57170000Y-70330000D01*
X41500000Y-71000000D02*
X39000000Y-71000000D01*
X57170000Y-70330000D02*
X42170000Y-70330000D01*
X82669183Y-70202500D02*
X57297500Y-70202500D01*
D39*
%TO.N,5V_DC*%
X48540000Y-75750000D02*
X48290000Y-75500000D01*
X48290000Y-75500000D02*
X46500000Y-75500000D01*
X61477500Y-64000000D02*
X61310000Y-63832500D01*
X48540000Y-75750000D02*
X66750000Y-75750000D01*
X66750000Y-75750000D02*
X67000000Y-76000000D01*
X67000000Y-48500000D02*
X99460000Y-48500000D01*
X67000000Y-64000000D02*
X61477500Y-64000000D01*
%TO.N,Net-(U8-+VIN)*%
X31500000Y-66000000D02*
X43500000Y-66000000D01*
%TD*%
M02*
