M48
; DRILL file {KiCad 8.0.6-8.0.6-0~ubuntu24.04.1} date 2025-10-06T12:03:25-0400
; FORMAT={-:-/ absolute / inch / decimal}
; #@! TF.CreationDate,2025-10-06T12:03:25-04:00
; #@! TF.GenerationSoftware,Kicad,Pcbnew,8.0.6-8.0.6-0~ubuntu24.04.1
; #@! TF.FileFunction,MixedPlating,1,2
FMAT,2
INCH
; #@! TA.AperFunction,Plated,PTH,ViaDrill
T1C0.0157
; #@! TA.AperFunction,Plated,PTH,ComponentDrill
T2C0.0276
; #@! TA.AperFunction,Plated,PTH,ComponentDrill
T3C0.0295
; #@! TA.AperFunction,Plated,PTH,ComponentDrill
T4C0.0315
; #@! TA.AperFunction,Plated,PTH,ComponentDrill
T5C0.0354
; #@! TA.AperFunction,Plated,PTH,ComponentDrill
T6C0.0394
; #@! TA.AperFunction,Plated,PTH,ComponentDrill
T7C0.0433
; #@! TA.AperFunction,Plated,PTH,ComponentDrill
T8C0.0512
; #@! TA.AperFunction,NonPlated,NPTH,ComponentDrill
T9C0.1260
%
G90
G05
T1
X2.5295Y-1.8957
X2.5433Y-3.502
X2.5787Y-2.1457
X2.6181Y-2.9528
X2.6575Y-3.7205
X2.6831Y-3.1673
X2.685Y-3.0551
X2.7274Y-1.6476
X2.7283Y-2.311
X2.7343Y-3.0512
X2.7402Y-2.1181
X2.7559Y-2.75
X2.7598Y-2.874
X2.7795Y-3.0827
X2.8091Y-3.6319
X2.813Y-4.5157
X2.8169Y-4.128
X2.8189Y-3.4547
X2.937Y-2.0295
X3.0217Y-4.4075
X3.0276Y-2.6594
X3.0512Y-3.3268
X3.0709Y-2.974
X3.0709Y-3.6811
X3.1161Y-3.7776
X3.122Y-3.1102
X3.122Y-3.4055
X3.122Y-3.502
X3.128Y-3.622
X3.1339Y-1.4783
X3.1693Y-2.1654
X3.2323Y-1.5177
X3.2323Y-2.4035
X3.248Y-2.2047
X3.2894Y-3.7756
X3.2913Y-1.7539
X3.3307Y-2.7303
X3.3701Y-4.0846
X3.376Y-2.8091
X3.376Y-3.3524
X3.4094Y-2.75
X3.4409Y-3.9626
X3.4449Y-2.627
X3.4488Y-1.3996
X3.4567Y-4.2165
X3.4587Y-4.7638
X3.4646Y-2.1654
X3.4823Y-1.7362
X3.622Y-2.1654
X3.6457Y-3.5374
X3.6614Y-3.1299
X3.6654Y-1.498
X3.6776Y-3.0118
X3.6791Y-4.4055
X3.6831Y-4.1142
X3.685Y-1.6161
X3.685Y-2.0295
X3.7311Y-4.3142
X3.7402Y-2.2047
X3.7638Y-1.813
X3.7874Y-3.6378
X3.8031Y-1.7736
X3.8583Y-2.627
X3.8937Y-4.3041
X3.9331Y-2.5768
X3.9409Y-1.6555
X3.9449Y-2.7146
X3.9488Y-3.8878
X3.9744Y-1.9961
X4.0236Y-2.4941
X4.0807Y-3.3524
X4.0866Y-1.7402
X4.2028Y-2.7283
X4.2028Y-2.8307
X4.3031Y-3.4055
X4.3031Y-3.5256
X4.3248Y-3.3248
X4.3258Y-2.4665
X4.4272Y-1.5433
X4.4311Y-1.7687
X4.4311Y-2.2717
X4.4331Y-3.4528
X4.5315Y-2.4035
X4.6594Y-2.4665
X4.7598Y-1.7726
X4.8465Y-1.9902
X4.8642Y-2.8809
X4.8661Y-3.4268
X4.9449Y-2.7972
X4.9724Y-1.7736
X5.06Y-4.5384
X5.063Y-2.2657
X5.1417Y-1.8327
X5.2953Y-1.4902
X5.3189Y-3.372
X5.3228Y-4.3957
X5.378Y-2.8169
X5.5039Y-3.4281
X5.5256Y-4.2805
X5.5551Y-2.0689
X5.6614Y-2.5925
X5.811Y-2.8839
X5.8307Y-3.8287
X5.8858Y-2.6791
X5.9045Y-4.3484
X5.9252Y-3.7224
X6.0571Y-4.2638
X6.1575Y-4.3888
X6.1634Y-2.2992
X6.2303Y-2.6043
T2
X2.6154Y-3.5766
X2.626Y-3.0551
X2.626Y-3.3551
X2.9154Y-3.5766
X2.9724Y-2.126
X3.1378Y-2.315
X3.2724Y-2.126
X3.4378Y-2.315
X3.4992Y-3.5315
X3.5866Y-2.8327
X3.5866Y-3.1327
X3.7835Y-4.0665
X3.7835Y-4.3665
X3.7992Y-3.5315
X3.811Y-1.624
X3.815Y-1.4606
X4.111Y-1.624
X4.115Y-1.4606
X5.0749Y-2.6791
X5.0799Y-2.8878
X5.3749Y-2.6791
X5.3799Y-2.8878
X5.7343Y-2.2441
X6.0343Y-2.2441
T3
X3.5929Y-3.7756
X3.6429Y-3.7756
X3.6929Y-3.7756
T4
X3.2104Y-3.6201
X3.2892Y-3.6201
T5
X2.6181Y-4.0315
X2.6181Y-4.1299
X2.6181Y-4.2283
X6.2626Y-2.2008
X6.2626Y-2.3008
T6
X2.622Y-2.7425
X2.622Y-2.8425
X2.6268Y-2.4896
X2.628Y-1.8976
X2.7268Y-2.4896
X2.728Y-1.8976
X2.8268Y-2.4896
X2.828Y-1.8976
X2.9268Y-2.4896
X2.928Y-1.8976
X2.9587Y-2.874
X2.9587Y-2.974
X2.9587Y-3.074
X2.9587Y-3.174
X3.0126Y-4.0866
X3.0268Y-2.4896
X3.028Y-1.8976
X3.0811Y-1.6457
X3.1126Y-4.0866
X3.1268Y-2.4896
X3.128Y-1.8976
X3.1811Y-1.6457
X3.2126Y-2.811
X3.2126Y-2.911
X3.2126Y-3.011
X3.2126Y-3.111
X3.2126Y-3.211
X3.2126Y-4.0866
X3.2268Y-2.4896
X3.228Y-1.8976
X3.2811Y-1.6457
X3.3268Y-2.4896
X3.328Y-1.8976
X3.3811Y-1.6457
X3.4268Y-2.4896
X3.428Y-1.8976
X3.4811Y-1.6457
X3.5268Y-2.4896
X3.528Y-1.8976
X3.5811Y-1.6457
X3.6268Y-2.4896
X3.628Y-1.8976
X3.6535Y-4.7598
X3.7268Y-2.4896
X3.728Y-1.8976
X3.8268Y-2.4896
X3.828Y-1.8976
X3.9268Y-2.4896
X3.928Y-1.8976
X4.3327Y-2.7264
X4.4327Y-2.7264
X4.5327Y-2.7264
X4.6591Y-1.4936
X4.7591Y-1.4936
X4.8591Y-1.4936
X4.9591Y-1.4936
X5.0551Y-4.748
X5.1358Y-3.3268
X5.1358Y-3.4268
X5.1358Y-3.5268
X5.1358Y-3.6268
X5.1358Y-3.7268
X5.1358Y-3.8268
X5.1358Y-3.9268
X5.1358Y-4.0268
X5.8583Y-4.1398
X5.9583Y-4.1398
X6.0583Y-4.1398
X6.1583Y-4.1398
T7
X3.5571Y-4.1142
X3.5571Y-4.2142
X3.5571Y-4.3142
X6.1909Y-1.8287
X6.1909Y-2.0059
X6.4469Y-1.8287
X6.4469Y-2.0059
T8
X3.0217Y-4.5197
X3.2185Y-4.5197
X5.3236Y-4.5453
X5.5236Y-4.5453
X5.7236Y-4.5453
X5.9236Y-4.5453
X6.1236Y-4.5453
T9
X2.622Y-1.4783
X2.622Y-4.7067
X4.1181Y-3.8051
X4.7087Y-3.8051
X6.4016Y-1.4783
X6.4016Y-4.7067
M30
