M48
; DRILL file {KiCad 8.0.6-8.0.6-0~ubuntu24.04.1} date 2024-11-15T18:56:33-0500
; FORMAT={-:-/ absolute / inch / decimal}
; #@! TF.CreationDate,2024-11-15T18:56:33-05:00
; #@! TF.GenerationSoftware,Kicad,Pcbnew,8.0.6-8.0.6-0~ubuntu24.04.1
; #@! TF.FileFunction,Plated,1,2,PTH
FMAT,2
INCH
; #@! TA.AperFunction,Plated,PTH,ViaDrill
T1C0.0157
; #@! TA.AperFunction,Plated,PTH,ComponentDrill
T2C0.0276
; #@! TA.AperFunction,Plated,PTH,ComponentDrill
T3C0.0300
; #@! TA.AperFunction,Plated,PTH,ComponentDrill
T4C0.0315
; #@! TA.AperFunction,Plated,PTH,ComponentDrill
T5C0.0354
; #@! TA.AperFunction,Plated,PTH,ComponentDrill
T6C0.0394
; #@! TA.AperFunction,Plated,PTH,ComponentDrill
T7C0.0433
; #@! TA.AperFunction,Plated,PTH,ComponentDrill
T8C0.0512
%
G90
G05
T1
X1.063Y-1.9882
X1.063Y-2.3031
X1.122Y-1.4567
X1.2205Y-1.6142
X1.2205Y-1.9882
X1.2402Y-2.5984
X1.2795Y-2.1457
X1.2992Y-1.7717
X1.3386Y-2.3425
X1.4173Y-1.7323
X1.5354Y-2.7953
X1.5748Y-2.3622
X1.5945Y-1.6929
X1.6142Y-2.7165
X1.6732Y-1.378
X1.7126Y-2.5984
X1.7323Y-1.6732
X1.7323Y-2.1654
X1.7913Y-1.6929
X1.7913Y-2.3622
X1.8504Y-2.2047
X1.8701Y-1.6929
X1.9094Y-2.0472
X1.9882Y-3.0906
X2.0177Y-2.5689
X2.0866Y-1.811
X2.126Y-2.0276
X2.1457Y-2.6378
X2.1654Y-1.4173
X2.185Y-1.7323
X2.2047Y-2.4213
X2.2047Y-2.5
X2.2343Y-2.2539
X2.2638Y-1.5157
X2.2736Y-2.8543
X2.2736Y-3.1969
X2.3031Y-1.7717
X2.313Y-2.7131
X2.3228Y-2.815
X2.3228Y-3.0906
X2.3425Y-1.1417
X2.4409Y-1.0827
X2.4803Y-1.5157
X2.5197Y-1.2992
X2.5394Y-2.815
X2.5591Y-1.4764
X2.5591Y-3.0709
X2.5787Y-1.1417
X2.5984Y-1.3189
X2.6378Y-1.9094
X2.6378Y-2.5197
X2.6378Y-2.9921
X2.7165Y-2.4016
X2.7756Y-1.0039
X2.7756Y-1.122
X2.7756Y-1.6142
X2.7756Y-2.3425
X2.8543Y-1.1811
X2.8543Y-2.7324
X2.8543Y-2.7954
X2.8937Y-1.6929
X2.9331Y-1.6142
X2.9331Y-2.0472
X2.9528Y-1.6732
X3.0394Y-2.133
X3.0709Y-2.5197
X3.0906Y-1.9882
X3.1102Y-1.122
X3.1299Y-3.0118
X3.1496Y-3.248
X3.2087Y-1.2008
X3.2677Y-1.9882
X3.3102Y-1.4354
X3.3701Y-3.0709
X3.4252Y-2.622
X3.4449Y-2.4213
X3.5039Y-1.7913
X3.5236Y-1.4173
X3.5827Y-3.1496
X3.6024Y-1.2795
X3.6614Y-2.4803
X3.7205Y-1.122
X3.7205Y-1.2992
X3.7205Y-2.3425
X3.7205Y-3.1496
X3.7795Y-1.811
X3.7795Y-1.9882
X3.7795Y-2.6378
X3.8583Y-1.3386
X3.878Y-2.7362
X3.8976Y-1.063
X3.8976Y-1.4764
X3.8976Y-3.378
X3.9173Y-1.6929
X3.9173Y-1.9094
X3.937Y-1.378
X3.937Y-2.233
X3.9606Y-3.2126
T2
X1.4173Y-2.7559
X1.4173Y-3.0559
X1.4488Y-1.0079
X1.5945Y-1.5354
X1.7291Y-2.2638
X1.7488Y-1.0079
X1.8945Y-1.5354
X2.0291Y-2.2638
X2.7878Y-2.5347
X2.7878Y-2.8347
X3.0858Y-1.7913
X3.0906Y-1.2598
X3.0906Y-1.5157
X3.3858Y-1.7913
X3.3906Y-1.2598
X3.3906Y-1.5157
X3.7205Y-1.378
X3.7205Y-1.678
X3.7953Y-3.2201
X3.7953Y-3.5201
T3
X3.2362Y-2.2244
X3.2362Y-2.3228
X3.2362Y-2.4213
X3.2362Y-2.5197
X3.2362Y-2.6181
X3.2362Y-2.7165
X3.2362Y-2.815
X3.2362Y-2.9134
T4
X1.8799Y-2.4589
X1.8799Y-2.5376
T5
X1.1417Y-2.874
X1.1417Y-2.9724
X1.1417Y-3.0709
X1.9488Y-1.0039
X2.0488Y-1.0039
T6
X1.1228Y-1.8701
X1.124Y-1.2781
X1.2228Y-1.8701
X1.224Y-1.2781
X1.3228Y-1.8701
X1.324Y-1.2781
X1.4228Y-1.8701
X1.424Y-1.2781
X1.5228Y-1.8701
X1.524Y-1.2781
X1.6228Y-1.8701
X1.624Y-1.2781
X1.6307Y-2.9724
X1.7228Y-1.8701
X1.724Y-1.2781
X1.7307Y-2.9724
X1.8228Y-1.8701
X1.824Y-1.2781
X1.8307Y-2.1063
X1.8307Y-2.9724
X1.9228Y-1.8701
X1.924Y-1.2781
X1.9307Y-2.1063
X2.0228Y-1.8701
X2.024Y-1.2781
X2.1228Y-1.8701
X2.124Y-1.2781
X2.2047Y-2.6181
X2.2047Y-2.7181
X2.2047Y-2.8181
X2.2047Y-2.9181
X2.2228Y-1.8701
X2.224Y-1.2781
X2.3228Y-1.8701
X2.324Y-1.2781
X2.4138Y-2.5131
X2.4138Y-2.6131
X2.4138Y-2.7131
X2.4138Y-2.8131
X2.4138Y-2.9131
X2.4228Y-1.8701
X2.424Y-1.2781
X3.1102Y-0.9449
X3.2102Y-0.9449
X3.3102Y-0.9449
X3.4102Y-0.9449
X4.0457Y-2.033
X4.0457Y-2.133
X4.0457Y-2.233
X4.0457Y-2.333
X4.0457Y-2.433
X4.0457Y-2.533
X4.0457Y-2.633
X4.0457Y-2.733
X4.0472Y-1.2913
X4.0472Y-1.3913
X4.0472Y-1.4913
X4.0472Y-1.5913
X4.0472Y-1.6913
X4.0472Y-1.7913
T7
X4.0276Y-3.0787
X4.0276Y-3.3346
X4.2047Y-3.0787
X4.2047Y-3.3346
T8
X1.5354Y-3.3701
X1.7323Y-3.3701
X2.0504Y-3.3937
X2.2504Y-3.3937
X2.4504Y-3.3937
X2.6504Y-3.3937
X2.8504Y-3.3937
X3.1496Y-3.3937
X3.3465Y-3.3937
X3.5433Y-3.3937
M30
