%TF.GenerationSoftware,KiCad,Pcbnew,8.0.6-8.0.6-0~ubuntu24.04.1*%
%TF.CreationDate,2024-11-15T18:56:12-05:00*%
%TF.ProjectId,sweet-p,73776565-742d-4702-9e6b-696361645f70,rev?*%
%TF.SameCoordinates,Original*%
%TF.FileFunction,Legend,Top*%
%TF.FilePolarity,Positive*%
%FSLAX46Y46*%
G04 Gerber Fmt 4.6, Leading zero omitted, Abs format (unit mm)*
G04 Created by KiCad (PCBNEW 8.0.6-8.0.6-0~ubuntu24.04.1) date 2024-11-15 18:56:12*
%MOMM*%
%LPD*%
G01*
G04 APERTURE LIST*
%ADD10C,0.150000*%
%ADD11C,0.300000*%
%ADD12C,0.120000*%
%ADD13C,0.100000*%
%ADD14C,0.127000*%
%ADD15C,0.200000*%
G04 APERTURE END LIST*
D10*
X103270112Y-74136065D02*
X102936779Y-74136065D01*
X102936779Y-74659875D02*
X102936779Y-73659875D01*
X102936779Y-73659875D02*
X103412969Y-73659875D01*
X103984398Y-73659875D02*
X104174874Y-73659875D01*
X104174874Y-73659875D02*
X104270112Y-73707494D01*
X104270112Y-73707494D02*
X104365350Y-73802732D01*
X104365350Y-73802732D02*
X104412969Y-73993208D01*
X104412969Y-73993208D02*
X104412969Y-74326541D01*
X104412969Y-74326541D02*
X104365350Y-74517017D01*
X104365350Y-74517017D02*
X104270112Y-74612256D01*
X104270112Y-74612256D02*
X104174874Y-74659875D01*
X104174874Y-74659875D02*
X103984398Y-74659875D01*
X103984398Y-74659875D02*
X103889160Y-74612256D01*
X103889160Y-74612256D02*
X103793922Y-74517017D01*
X103793922Y-74517017D02*
X103746303Y-74326541D01*
X103746303Y-74326541D02*
X103746303Y-73993208D01*
X103746303Y-73993208D02*
X103793922Y-73802732D01*
X103793922Y-73802732D02*
X103889160Y-73707494D01*
X103889160Y-73707494D02*
X103984398Y-73659875D01*
X105412969Y-74659875D02*
X105079636Y-74183684D01*
X104841541Y-74659875D02*
X104841541Y-73659875D01*
X104841541Y-73659875D02*
X105222493Y-73659875D01*
X105222493Y-73659875D02*
X105317731Y-73707494D01*
X105317731Y-73707494D02*
X105365350Y-73755113D01*
X105365350Y-73755113D02*
X105412969Y-73850351D01*
X105412969Y-73850351D02*
X105412969Y-73993208D01*
X105412969Y-73993208D02*
X105365350Y-74088446D01*
X105365350Y-74088446D02*
X105317731Y-74136065D01*
X105317731Y-74136065D02*
X105222493Y-74183684D01*
X105222493Y-74183684D02*
X104841541Y-74183684D01*
X106412969Y-74564636D02*
X106365350Y-74612256D01*
X106365350Y-74612256D02*
X106222493Y-74659875D01*
X106222493Y-74659875D02*
X106127255Y-74659875D01*
X106127255Y-74659875D02*
X105984398Y-74612256D01*
X105984398Y-74612256D02*
X105889160Y-74517017D01*
X105889160Y-74517017D02*
X105841541Y-74421779D01*
X105841541Y-74421779D02*
X105793922Y-74231303D01*
X105793922Y-74231303D02*
X105793922Y-74088446D01*
X105793922Y-74088446D02*
X105841541Y-73897970D01*
X105841541Y-73897970D02*
X105889160Y-73802732D01*
X105889160Y-73802732D02*
X105984398Y-73707494D01*
X105984398Y-73707494D02*
X106127255Y-73659875D01*
X106127255Y-73659875D02*
X106222493Y-73659875D01*
X106222493Y-73659875D02*
X106365350Y-73707494D01*
X106365350Y-73707494D02*
X106412969Y-73755113D01*
X106841541Y-74136065D02*
X107174874Y-74136065D01*
X107317731Y-74659875D02*
X106841541Y-74659875D01*
X106841541Y-74659875D02*
X106841541Y-73659875D01*
X106841541Y-73659875D02*
X107317731Y-73659875D01*
X102889160Y-76222200D02*
X103032017Y-76269819D01*
X103032017Y-76269819D02*
X103270112Y-76269819D01*
X103270112Y-76269819D02*
X103365350Y-76222200D01*
X103365350Y-76222200D02*
X103412969Y-76174580D01*
X103412969Y-76174580D02*
X103460588Y-76079342D01*
X103460588Y-76079342D02*
X103460588Y-75984104D01*
X103460588Y-75984104D02*
X103412969Y-75888866D01*
X103412969Y-75888866D02*
X103365350Y-75841247D01*
X103365350Y-75841247D02*
X103270112Y-75793628D01*
X103270112Y-75793628D02*
X103079636Y-75746009D01*
X103079636Y-75746009D02*
X102984398Y-75698390D01*
X102984398Y-75698390D02*
X102936779Y-75650771D01*
X102936779Y-75650771D02*
X102889160Y-75555533D01*
X102889160Y-75555533D02*
X102889160Y-75460295D01*
X102889160Y-75460295D02*
X102936779Y-75365057D01*
X102936779Y-75365057D02*
X102984398Y-75317438D01*
X102984398Y-75317438D02*
X103079636Y-75269819D01*
X103079636Y-75269819D02*
X103317731Y-75269819D01*
X103317731Y-75269819D02*
X103460588Y-75317438D01*
X103889160Y-75746009D02*
X104222493Y-75746009D01*
X104365350Y-76269819D02*
X103889160Y-76269819D01*
X103889160Y-76269819D02*
X103889160Y-75269819D01*
X103889160Y-75269819D02*
X104365350Y-75269819D01*
X104793922Y-76269819D02*
X104793922Y-75269819D01*
X104793922Y-75269819D02*
X105365350Y-76269819D01*
X105365350Y-76269819D02*
X105365350Y-75269819D01*
X105841541Y-76269819D02*
X105841541Y-75269819D01*
X105841541Y-75269819D02*
X106079636Y-75269819D01*
X106079636Y-75269819D02*
X106222493Y-75317438D01*
X106222493Y-75317438D02*
X106317731Y-75412676D01*
X106317731Y-75412676D02*
X106365350Y-75507914D01*
X106365350Y-75507914D02*
X106412969Y-75698390D01*
X106412969Y-75698390D02*
X106412969Y-75841247D01*
X106412969Y-75841247D02*
X106365350Y-76031723D01*
X106365350Y-76031723D02*
X106317731Y-76126961D01*
X106317731Y-76126961D02*
X106222493Y-76222200D01*
X106222493Y-76222200D02*
X106079636Y-76269819D01*
X106079636Y-76269819D02*
X105841541Y-76269819D01*
X84460588Y-63517438D02*
X84365350Y-63469819D01*
X84365350Y-63469819D02*
X84222493Y-63469819D01*
X84222493Y-63469819D02*
X84079636Y-63517438D01*
X84079636Y-63517438D02*
X83984398Y-63612676D01*
X83984398Y-63612676D02*
X83936779Y-63707914D01*
X83936779Y-63707914D02*
X83889160Y-63898390D01*
X83889160Y-63898390D02*
X83889160Y-64041247D01*
X83889160Y-64041247D02*
X83936779Y-64231723D01*
X83936779Y-64231723D02*
X83984398Y-64326961D01*
X83984398Y-64326961D02*
X84079636Y-64422200D01*
X84079636Y-64422200D02*
X84222493Y-64469819D01*
X84222493Y-64469819D02*
X84317731Y-64469819D01*
X84317731Y-64469819D02*
X84460588Y-64422200D01*
X84460588Y-64422200D02*
X84508207Y-64374580D01*
X84508207Y-64374580D02*
X84508207Y-64041247D01*
X84508207Y-64041247D02*
X84317731Y-64041247D01*
X84936779Y-64469819D02*
X84936779Y-63469819D01*
X84936779Y-63469819D02*
X85508207Y-64469819D01*
X85508207Y-64469819D02*
X85508207Y-63469819D01*
X85984398Y-64469819D02*
X85984398Y-63469819D01*
X85984398Y-63469819D02*
X86222493Y-63469819D01*
X86222493Y-63469819D02*
X86365350Y-63517438D01*
X86365350Y-63517438D02*
X86460588Y-63612676D01*
X86460588Y-63612676D02*
X86508207Y-63707914D01*
X86508207Y-63707914D02*
X86555826Y-63898390D01*
X86555826Y-63898390D02*
X86555826Y-64041247D01*
X86555826Y-64041247D02*
X86508207Y-64231723D01*
X86508207Y-64231723D02*
X86460588Y-64326961D01*
X86460588Y-64326961D02*
X86365350Y-64422200D01*
X86365350Y-64422200D02*
X86222493Y-64469819D01*
X86222493Y-64469819D02*
X85984398Y-64469819D01*
X84460588Y-60917438D02*
X84365350Y-60869819D01*
X84365350Y-60869819D02*
X84222493Y-60869819D01*
X84222493Y-60869819D02*
X84079636Y-60917438D01*
X84079636Y-60917438D02*
X83984398Y-61012676D01*
X83984398Y-61012676D02*
X83936779Y-61107914D01*
X83936779Y-61107914D02*
X83889160Y-61298390D01*
X83889160Y-61298390D02*
X83889160Y-61441247D01*
X83889160Y-61441247D02*
X83936779Y-61631723D01*
X83936779Y-61631723D02*
X83984398Y-61726961D01*
X83984398Y-61726961D02*
X84079636Y-61822200D01*
X84079636Y-61822200D02*
X84222493Y-61869819D01*
X84222493Y-61869819D02*
X84317731Y-61869819D01*
X84317731Y-61869819D02*
X84460588Y-61822200D01*
X84460588Y-61822200D02*
X84508207Y-61774580D01*
X84508207Y-61774580D02*
X84508207Y-61441247D01*
X84508207Y-61441247D02*
X84317731Y-61441247D01*
X84936779Y-61869819D02*
X84936779Y-60869819D01*
X84936779Y-60869819D02*
X85508207Y-61869819D01*
X85508207Y-61869819D02*
X85508207Y-60869819D01*
X85984398Y-61869819D02*
X85984398Y-60869819D01*
X85984398Y-60869819D02*
X86222493Y-60869819D01*
X86222493Y-60869819D02*
X86365350Y-60917438D01*
X86365350Y-60917438D02*
X86460588Y-61012676D01*
X86460588Y-61012676D02*
X86508207Y-61107914D01*
X86508207Y-61107914D02*
X86555826Y-61298390D01*
X86555826Y-61298390D02*
X86555826Y-61441247D01*
X86555826Y-61441247D02*
X86508207Y-61631723D01*
X86508207Y-61631723D02*
X86460588Y-61726961D01*
X86460588Y-61726961D02*
X86365350Y-61822200D01*
X86365350Y-61822200D02*
X86222493Y-61869819D01*
X86222493Y-61869819D02*
X85984398Y-61869819D01*
X84460588Y-58517438D02*
X84365350Y-58469819D01*
X84365350Y-58469819D02*
X84222493Y-58469819D01*
X84222493Y-58469819D02*
X84079636Y-58517438D01*
X84079636Y-58517438D02*
X83984398Y-58612676D01*
X83984398Y-58612676D02*
X83936779Y-58707914D01*
X83936779Y-58707914D02*
X83889160Y-58898390D01*
X83889160Y-58898390D02*
X83889160Y-59041247D01*
X83889160Y-59041247D02*
X83936779Y-59231723D01*
X83936779Y-59231723D02*
X83984398Y-59326961D01*
X83984398Y-59326961D02*
X84079636Y-59422200D01*
X84079636Y-59422200D02*
X84222493Y-59469819D01*
X84222493Y-59469819D02*
X84317731Y-59469819D01*
X84317731Y-59469819D02*
X84460588Y-59422200D01*
X84460588Y-59422200D02*
X84508207Y-59374580D01*
X84508207Y-59374580D02*
X84508207Y-59041247D01*
X84508207Y-59041247D02*
X84317731Y-59041247D01*
X84936779Y-59469819D02*
X84936779Y-58469819D01*
X84936779Y-58469819D02*
X85508207Y-59469819D01*
X85508207Y-59469819D02*
X85508207Y-58469819D01*
X85984398Y-59469819D02*
X85984398Y-58469819D01*
X85984398Y-58469819D02*
X86222493Y-58469819D01*
X86222493Y-58469819D02*
X86365350Y-58517438D01*
X86365350Y-58517438D02*
X86460588Y-58612676D01*
X86460588Y-58612676D02*
X86508207Y-58707914D01*
X86508207Y-58707914D02*
X86555826Y-58898390D01*
X86555826Y-58898390D02*
X86555826Y-59041247D01*
X86555826Y-59041247D02*
X86508207Y-59231723D01*
X86508207Y-59231723D02*
X86460588Y-59326961D01*
X86460588Y-59326961D02*
X86365350Y-59422200D01*
X86365350Y-59422200D02*
X86222493Y-59469819D01*
X86222493Y-59469819D02*
X85984398Y-59469819D01*
X83741541Y-56119819D02*
X84360588Y-56119819D01*
X84360588Y-56119819D02*
X84027255Y-56500771D01*
X84027255Y-56500771D02*
X84170112Y-56500771D01*
X84170112Y-56500771D02*
X84265350Y-56548390D01*
X84265350Y-56548390D02*
X84312969Y-56596009D01*
X84312969Y-56596009D02*
X84360588Y-56691247D01*
X84360588Y-56691247D02*
X84360588Y-56929342D01*
X84360588Y-56929342D02*
X84312969Y-57024580D01*
X84312969Y-57024580D02*
X84265350Y-57072200D01*
X84265350Y-57072200D02*
X84170112Y-57119819D01*
X84170112Y-57119819D02*
X83884398Y-57119819D01*
X83884398Y-57119819D02*
X83789160Y-57072200D01*
X83789160Y-57072200D02*
X83741541Y-57024580D01*
X84646303Y-56119819D02*
X84979636Y-57119819D01*
X84979636Y-57119819D02*
X85312969Y-56119819D01*
X105674969Y-63807819D02*
X105198779Y-63807819D01*
X105198779Y-63807819D02*
X105151160Y-64284009D01*
X105151160Y-64284009D02*
X105198779Y-64236390D01*
X105198779Y-64236390D02*
X105294017Y-64188771D01*
X105294017Y-64188771D02*
X105532112Y-64188771D01*
X105532112Y-64188771D02*
X105627350Y-64236390D01*
X105627350Y-64236390D02*
X105674969Y-64284009D01*
X105674969Y-64284009D02*
X105722588Y-64379247D01*
X105722588Y-64379247D02*
X105722588Y-64617342D01*
X105722588Y-64617342D02*
X105674969Y-64712580D01*
X105674969Y-64712580D02*
X105627350Y-64760200D01*
X105627350Y-64760200D02*
X105532112Y-64807819D01*
X105532112Y-64807819D02*
X105294017Y-64807819D01*
X105294017Y-64807819D02*
X105198779Y-64760200D01*
X105198779Y-64760200D02*
X105151160Y-64712580D01*
X106008303Y-63807819D02*
X106341636Y-64807819D01*
X106341636Y-64807819D02*
X106674969Y-63807819D01*
X106865446Y-63807819D02*
X107436874Y-63807819D01*
X107151160Y-64807819D02*
X107151160Y-63807819D01*
X53700000Y-52900000D02*
X75600000Y-52900000D01*
X75600000Y-55900000D01*
X53700000Y-55900000D01*
X53700000Y-52900000D01*
X84260588Y-93469819D02*
X83689160Y-93469819D01*
X83974874Y-93469819D02*
X83974874Y-92469819D01*
X83974874Y-92469819D02*
X83879636Y-92612676D01*
X83879636Y-92612676D02*
X83784398Y-92707914D01*
X83784398Y-92707914D02*
X83689160Y-92755533D01*
X84593922Y-92469819D02*
X84832017Y-93469819D01*
X84832017Y-93469819D02*
X85022493Y-92755533D01*
X85022493Y-92755533D02*
X85212969Y-93469819D01*
X85212969Y-93469819D02*
X85451065Y-92469819D01*
D11*
X54933082Y-54879400D02*
X55075939Y-54950828D01*
X55075939Y-54950828D02*
X55361653Y-54950828D01*
X55361653Y-54950828D02*
X55504510Y-54879400D01*
X55504510Y-54879400D02*
X55575939Y-54736542D01*
X55575939Y-54736542D02*
X55575939Y-54665114D01*
X55575939Y-54665114D02*
X55504510Y-54522257D01*
X55504510Y-54522257D02*
X55361653Y-54450828D01*
X55361653Y-54450828D02*
X55147368Y-54450828D01*
X55147368Y-54450828D02*
X55004510Y-54379400D01*
X55004510Y-54379400D02*
X54933082Y-54236542D01*
X54933082Y-54236542D02*
X54933082Y-54165114D01*
X54933082Y-54165114D02*
X55004510Y-54022257D01*
X55004510Y-54022257D02*
X55147368Y-53950828D01*
X55147368Y-53950828D02*
X55361653Y-53950828D01*
X55361653Y-53950828D02*
X55504510Y-54022257D01*
X56075939Y-53950828D02*
X56361654Y-54950828D01*
X56361654Y-54950828D02*
X56647368Y-54236542D01*
X56647368Y-54236542D02*
X56933082Y-54950828D01*
X56933082Y-54950828D02*
X57218796Y-53950828D01*
X58361654Y-54879400D02*
X58218797Y-54950828D01*
X58218797Y-54950828D02*
X57933083Y-54950828D01*
X57933083Y-54950828D02*
X57790225Y-54879400D01*
X57790225Y-54879400D02*
X57718797Y-54736542D01*
X57718797Y-54736542D02*
X57718797Y-54165114D01*
X57718797Y-54165114D02*
X57790225Y-54022257D01*
X57790225Y-54022257D02*
X57933083Y-53950828D01*
X57933083Y-53950828D02*
X58218797Y-53950828D01*
X58218797Y-53950828D02*
X58361654Y-54022257D01*
X58361654Y-54022257D02*
X58433083Y-54165114D01*
X58433083Y-54165114D02*
X58433083Y-54307971D01*
X58433083Y-54307971D02*
X57718797Y-54450828D01*
X59647368Y-54879400D02*
X59504511Y-54950828D01*
X59504511Y-54950828D02*
X59218797Y-54950828D01*
X59218797Y-54950828D02*
X59075939Y-54879400D01*
X59075939Y-54879400D02*
X59004511Y-54736542D01*
X59004511Y-54736542D02*
X59004511Y-54165114D01*
X59004511Y-54165114D02*
X59075939Y-54022257D01*
X59075939Y-54022257D02*
X59218797Y-53950828D01*
X59218797Y-53950828D02*
X59504511Y-53950828D01*
X59504511Y-53950828D02*
X59647368Y-54022257D01*
X59647368Y-54022257D02*
X59718797Y-54165114D01*
X59718797Y-54165114D02*
X59718797Y-54307971D01*
X59718797Y-54307971D02*
X59004511Y-54450828D01*
X60147368Y-53950828D02*
X60718796Y-53950828D01*
X60361653Y-53450828D02*
X60361653Y-54736542D01*
X60361653Y-54736542D02*
X60433082Y-54879400D01*
X60433082Y-54879400D02*
X60575939Y-54950828D01*
X60575939Y-54950828D02*
X60718796Y-54950828D01*
X61218796Y-54379400D02*
X62361654Y-54379400D01*
X63075939Y-53950828D02*
X63075939Y-55450828D01*
X63075939Y-54022257D02*
X63218797Y-53950828D01*
X63218797Y-53950828D02*
X63504511Y-53950828D01*
X63504511Y-53950828D02*
X63647368Y-54022257D01*
X63647368Y-54022257D02*
X63718797Y-54093685D01*
X63718797Y-54093685D02*
X63790225Y-54236542D01*
X63790225Y-54236542D02*
X63790225Y-54665114D01*
X63790225Y-54665114D02*
X63718797Y-54807971D01*
X63718797Y-54807971D02*
X63647368Y-54879400D01*
X63647368Y-54879400D02*
X63504511Y-54950828D01*
X63504511Y-54950828D02*
X63218797Y-54950828D01*
X63218797Y-54950828D02*
X63075939Y-54879400D01*
X65433082Y-53950828D02*
X65790225Y-54950828D01*
X65790225Y-54950828D02*
X66147368Y-53950828D01*
X67290225Y-54879400D02*
X67147368Y-54950828D01*
X67147368Y-54950828D02*
X66861654Y-54950828D01*
X66861654Y-54950828D02*
X66718796Y-54879400D01*
X66718796Y-54879400D02*
X66647368Y-54736542D01*
X66647368Y-54736542D02*
X66647368Y-54165114D01*
X66647368Y-54165114D02*
X66718796Y-54022257D01*
X66718796Y-54022257D02*
X66861654Y-53950828D01*
X66861654Y-53950828D02*
X67147368Y-53950828D01*
X67147368Y-53950828D02*
X67290225Y-54022257D01*
X67290225Y-54022257D02*
X67361654Y-54165114D01*
X67361654Y-54165114D02*
X67361654Y-54307971D01*
X67361654Y-54307971D02*
X66647368Y-54450828D01*
X68004510Y-54950828D02*
X68004510Y-53950828D01*
X68004510Y-54236542D02*
X68075939Y-54093685D01*
X68075939Y-54093685D02*
X68147368Y-54022257D01*
X68147368Y-54022257D02*
X68290225Y-53950828D01*
X68290225Y-53950828D02*
X68433082Y-53950828D01*
X70361653Y-53450828D02*
X70504510Y-53450828D01*
X70504510Y-53450828D02*
X70647367Y-53522257D01*
X70647367Y-53522257D02*
X70718796Y-53593685D01*
X70718796Y-53593685D02*
X70790224Y-53736542D01*
X70790224Y-53736542D02*
X70861653Y-54022257D01*
X70861653Y-54022257D02*
X70861653Y-54379400D01*
X70861653Y-54379400D02*
X70790224Y-54665114D01*
X70790224Y-54665114D02*
X70718796Y-54807971D01*
X70718796Y-54807971D02*
X70647367Y-54879400D01*
X70647367Y-54879400D02*
X70504510Y-54950828D01*
X70504510Y-54950828D02*
X70361653Y-54950828D01*
X70361653Y-54950828D02*
X70218796Y-54879400D01*
X70218796Y-54879400D02*
X70147367Y-54807971D01*
X70147367Y-54807971D02*
X70075938Y-54665114D01*
X70075938Y-54665114D02*
X70004510Y-54379400D01*
X70004510Y-54379400D02*
X70004510Y-54022257D01*
X70004510Y-54022257D02*
X70075938Y-53736542D01*
X70075938Y-53736542D02*
X70147367Y-53593685D01*
X70147367Y-53593685D02*
X70218796Y-53522257D01*
X70218796Y-53522257D02*
X70361653Y-53450828D01*
X71504509Y-54807971D02*
X71575938Y-54879400D01*
X71575938Y-54879400D02*
X71504509Y-54950828D01*
X71504509Y-54950828D02*
X71433081Y-54879400D01*
X71433081Y-54879400D02*
X71504509Y-54807971D01*
X71504509Y-54807971D02*
X71504509Y-54950828D01*
X72861653Y-53950828D02*
X72861653Y-54950828D01*
X72504510Y-53379400D02*
X72147367Y-54450828D01*
X72147367Y-54450828D02*
X73075938Y-54450828D01*
X74290224Y-54950828D02*
X74290224Y-54165114D01*
X74290224Y-54165114D02*
X74218795Y-54022257D01*
X74218795Y-54022257D02*
X74075938Y-53950828D01*
X74075938Y-53950828D02*
X73790224Y-53950828D01*
X73790224Y-53950828D02*
X73647366Y-54022257D01*
X74290224Y-54879400D02*
X74147366Y-54950828D01*
X74147366Y-54950828D02*
X73790224Y-54950828D01*
X73790224Y-54950828D02*
X73647366Y-54879400D01*
X73647366Y-54879400D02*
X73575938Y-54736542D01*
X73575938Y-54736542D02*
X73575938Y-54593685D01*
X73575938Y-54593685D02*
X73647366Y-54450828D01*
X73647366Y-54450828D02*
X73790224Y-54379400D01*
X73790224Y-54379400D02*
X74147366Y-54379400D01*
X74147366Y-54379400D02*
X74290224Y-54307971D01*
D10*
X105291541Y-44869819D02*
X105910588Y-44869819D01*
X105910588Y-44869819D02*
X105577255Y-45250771D01*
X105577255Y-45250771D02*
X105720112Y-45250771D01*
X105720112Y-45250771D02*
X105815350Y-45298390D01*
X105815350Y-45298390D02*
X105862969Y-45346009D01*
X105862969Y-45346009D02*
X105910588Y-45441247D01*
X105910588Y-45441247D02*
X105910588Y-45679342D01*
X105910588Y-45679342D02*
X105862969Y-45774580D01*
X105862969Y-45774580D02*
X105815350Y-45822200D01*
X105815350Y-45822200D02*
X105720112Y-45869819D01*
X105720112Y-45869819D02*
X105434398Y-45869819D01*
X105434398Y-45869819D02*
X105339160Y-45822200D01*
X105339160Y-45822200D02*
X105291541Y-45774580D01*
X106196303Y-44869819D02*
X106529636Y-45869819D01*
X106529636Y-45869819D02*
X106862969Y-44869819D01*
X39414284Y-78808557D02*
X39414284Y-79708557D01*
X39414284Y-78851414D02*
X39499999Y-78808557D01*
X39499999Y-78808557D02*
X39671427Y-78808557D01*
X39671427Y-78808557D02*
X39757141Y-78851414D01*
X39757141Y-78851414D02*
X39799999Y-78894271D01*
X39799999Y-78894271D02*
X39842856Y-78979985D01*
X39842856Y-78979985D02*
X39842856Y-79237128D01*
X39842856Y-79237128D02*
X39799999Y-79322842D01*
X39799999Y-79322842D02*
X39757141Y-79365700D01*
X39757141Y-79365700D02*
X39671427Y-79408557D01*
X39671427Y-79408557D02*
X39499999Y-79408557D01*
X39499999Y-79408557D02*
X39414284Y-79365700D01*
X40142856Y-78508557D02*
X40742856Y-78508557D01*
X40742856Y-78508557D02*
X40357142Y-79408557D01*
X41214285Y-78894271D02*
X41128570Y-78851414D01*
X41128570Y-78851414D02*
X41085713Y-78808557D01*
X41085713Y-78808557D02*
X41042856Y-78722842D01*
X41042856Y-78722842D02*
X41042856Y-78679985D01*
X41042856Y-78679985D02*
X41085713Y-78594271D01*
X41085713Y-78594271D02*
X41128570Y-78551414D01*
X41128570Y-78551414D02*
X41214285Y-78508557D01*
X41214285Y-78508557D02*
X41385713Y-78508557D01*
X41385713Y-78508557D02*
X41471428Y-78551414D01*
X41471428Y-78551414D02*
X41514285Y-78594271D01*
X41514285Y-78594271D02*
X41557142Y-78679985D01*
X41557142Y-78679985D02*
X41557142Y-78722842D01*
X41557142Y-78722842D02*
X41514285Y-78808557D01*
X41514285Y-78808557D02*
X41471428Y-78851414D01*
X41471428Y-78851414D02*
X41385713Y-78894271D01*
X41385713Y-78894271D02*
X41214285Y-78894271D01*
X41214285Y-78894271D02*
X41128570Y-78937128D01*
X41128570Y-78937128D02*
X41085713Y-78979985D01*
X41085713Y-78979985D02*
X41042856Y-79065700D01*
X41042856Y-79065700D02*
X41042856Y-79237128D01*
X41042856Y-79237128D02*
X41085713Y-79322842D01*
X41085713Y-79322842D02*
X41128570Y-79365700D01*
X41128570Y-79365700D02*
X41214285Y-79408557D01*
X41214285Y-79408557D02*
X41385713Y-79408557D01*
X41385713Y-79408557D02*
X41471428Y-79365700D01*
X41471428Y-79365700D02*
X41514285Y-79322842D01*
X41514285Y-79322842D02*
X41557142Y-79237128D01*
X41557142Y-79237128D02*
X41557142Y-79065700D01*
X41557142Y-79065700D02*
X41514285Y-78979985D01*
X41514285Y-78979985D02*
X41471428Y-78937128D01*
X41471428Y-78937128D02*
X41385713Y-78894271D01*
X42328571Y-79408557D02*
X42328571Y-78937128D01*
X42328571Y-78937128D02*
X42285713Y-78851414D01*
X42285713Y-78851414D02*
X42199999Y-78808557D01*
X42199999Y-78808557D02*
X42028571Y-78808557D01*
X42028571Y-78808557D02*
X41942856Y-78851414D01*
X42328571Y-79365700D02*
X42242856Y-79408557D01*
X42242856Y-79408557D02*
X42028571Y-79408557D01*
X42028571Y-79408557D02*
X41942856Y-79365700D01*
X41942856Y-79365700D02*
X41899999Y-79279985D01*
X41899999Y-79279985D02*
X41899999Y-79194271D01*
X41899999Y-79194271D02*
X41942856Y-79108557D01*
X41942856Y-79108557D02*
X42028571Y-79065700D01*
X42028571Y-79065700D02*
X42242856Y-79065700D01*
X42242856Y-79065700D02*
X42328571Y-79022842D01*
X42928571Y-78508557D02*
X43014285Y-78508557D01*
X43014285Y-78508557D02*
X43099999Y-78551414D01*
X43099999Y-78551414D02*
X43142857Y-78594271D01*
X43142857Y-78594271D02*
X43185714Y-78679985D01*
X43185714Y-78679985D02*
X43228571Y-78851414D01*
X43228571Y-78851414D02*
X43228571Y-79065700D01*
X43228571Y-79065700D02*
X43185714Y-79237128D01*
X43185714Y-79237128D02*
X43142857Y-79322842D01*
X43142857Y-79322842D02*
X43099999Y-79365700D01*
X43099999Y-79365700D02*
X43014285Y-79408557D01*
X43014285Y-79408557D02*
X42928571Y-79408557D01*
X42928571Y-79408557D02*
X42842857Y-79365700D01*
X42842857Y-79365700D02*
X42799999Y-79322842D01*
X42799999Y-79322842D02*
X42757142Y-79237128D01*
X42757142Y-79237128D02*
X42714285Y-79065700D01*
X42714285Y-79065700D02*
X42714285Y-78851414D01*
X42714285Y-78851414D02*
X42757142Y-78679985D01*
X42757142Y-78679985D02*
X42799999Y-78594271D01*
X42799999Y-78594271D02*
X42842857Y-78551414D01*
X42842857Y-78551414D02*
X42928571Y-78508557D01*
X44042857Y-78508557D02*
X43614285Y-78508557D01*
X43614285Y-78508557D02*
X43571428Y-78937128D01*
X43571428Y-78937128D02*
X43614285Y-78894271D01*
X43614285Y-78894271D02*
X43700000Y-78851414D01*
X43700000Y-78851414D02*
X43914285Y-78851414D01*
X43914285Y-78851414D02*
X44000000Y-78894271D01*
X44000000Y-78894271D02*
X44042857Y-78937128D01*
X44042857Y-78937128D02*
X44085714Y-79022842D01*
X44085714Y-79022842D02*
X44085714Y-79237128D01*
X44085714Y-79237128D02*
X44042857Y-79322842D01*
X44042857Y-79322842D02*
X44000000Y-79365700D01*
X44000000Y-79365700D02*
X43914285Y-79408557D01*
X43914285Y-79408557D02*
X43700000Y-79408557D01*
X43700000Y-79408557D02*
X43614285Y-79365700D01*
X43614285Y-79365700D02*
X43571428Y-79322842D01*
X44471428Y-79065700D02*
X45157143Y-79065700D01*
X46057143Y-79408557D02*
X45542857Y-79408557D01*
X45800000Y-79408557D02*
X45800000Y-78508557D01*
X45800000Y-78508557D02*
X45714286Y-78637128D01*
X45714286Y-78637128D02*
X45628571Y-78722842D01*
X45628571Y-78722842D02*
X45542857Y-78765700D01*
X46614286Y-78508557D02*
X46700000Y-78508557D01*
X46700000Y-78508557D02*
X46785714Y-78551414D01*
X46785714Y-78551414D02*
X46828572Y-78594271D01*
X46828572Y-78594271D02*
X46871429Y-78679985D01*
X46871429Y-78679985D02*
X46914286Y-78851414D01*
X46914286Y-78851414D02*
X46914286Y-79065700D01*
X46914286Y-79065700D02*
X46871429Y-79237128D01*
X46871429Y-79237128D02*
X46828572Y-79322842D01*
X46828572Y-79322842D02*
X46785714Y-79365700D01*
X46785714Y-79365700D02*
X46700000Y-79408557D01*
X46700000Y-79408557D02*
X46614286Y-79408557D01*
X46614286Y-79408557D02*
X46528572Y-79365700D01*
X46528572Y-79365700D02*
X46485714Y-79322842D01*
X46485714Y-79322842D02*
X46442857Y-79237128D01*
X46442857Y-79237128D02*
X46400000Y-79065700D01*
X46400000Y-79065700D02*
X46400000Y-78851414D01*
X46400000Y-78851414D02*
X46442857Y-78679985D01*
X46442857Y-78679985D02*
X46485714Y-78594271D01*
X46485714Y-78594271D02*
X46528572Y-78551414D01*
X46528572Y-78551414D02*
X46614286Y-78508557D01*
X47471429Y-78508557D02*
X47557143Y-78508557D01*
X47557143Y-78508557D02*
X47642857Y-78551414D01*
X47642857Y-78551414D02*
X47685715Y-78594271D01*
X47685715Y-78594271D02*
X47728572Y-78679985D01*
X47728572Y-78679985D02*
X47771429Y-78851414D01*
X47771429Y-78851414D02*
X47771429Y-79065700D01*
X47771429Y-79065700D02*
X47728572Y-79237128D01*
X47728572Y-79237128D02*
X47685715Y-79322842D01*
X47685715Y-79322842D02*
X47642857Y-79365700D01*
X47642857Y-79365700D02*
X47557143Y-79408557D01*
X47557143Y-79408557D02*
X47471429Y-79408557D01*
X47471429Y-79408557D02*
X47385715Y-79365700D01*
X47385715Y-79365700D02*
X47342857Y-79322842D01*
X47342857Y-79322842D02*
X47300000Y-79237128D01*
X47300000Y-79237128D02*
X47257143Y-79065700D01*
X47257143Y-79065700D02*
X47257143Y-78851414D01*
X47257143Y-78851414D02*
X47300000Y-78679985D01*
X47300000Y-78679985D02*
X47342857Y-78594271D01*
X47342857Y-78594271D02*
X47385715Y-78551414D01*
X47385715Y-78551414D02*
X47471429Y-78508557D01*
X48328572Y-78508557D02*
X48414286Y-78508557D01*
X48414286Y-78508557D02*
X48500000Y-78551414D01*
X48500000Y-78551414D02*
X48542858Y-78594271D01*
X48542858Y-78594271D02*
X48585715Y-78679985D01*
X48585715Y-78679985D02*
X48628572Y-78851414D01*
X48628572Y-78851414D02*
X48628572Y-79065700D01*
X48628572Y-79065700D02*
X48585715Y-79237128D01*
X48585715Y-79237128D02*
X48542858Y-79322842D01*
X48542858Y-79322842D02*
X48500000Y-79365700D01*
X48500000Y-79365700D02*
X48414286Y-79408557D01*
X48414286Y-79408557D02*
X48328572Y-79408557D01*
X48328572Y-79408557D02*
X48242858Y-79365700D01*
X48242858Y-79365700D02*
X48200000Y-79322842D01*
X48200000Y-79322842D02*
X48157143Y-79237128D01*
X48157143Y-79237128D02*
X48114286Y-79065700D01*
X48114286Y-79065700D02*
X48114286Y-78851414D01*
X48114286Y-78851414D02*
X48157143Y-78679985D01*
X48157143Y-78679985D02*
X48200000Y-78594271D01*
X48200000Y-78594271D02*
X48242858Y-78551414D01*
X48242858Y-78551414D02*
X48328572Y-78508557D01*
X105243922Y-37369819D02*
X105815350Y-37369819D01*
X105529636Y-38369819D02*
X105529636Y-37369819D01*
X106053446Y-37369819D02*
X106720112Y-38369819D01*
X106720112Y-37369819D02*
X106053446Y-38369819D01*
X34166666Y-30204819D02*
X34166666Y-29538152D01*
X34166666Y-29204819D02*
X34119047Y-29252438D01*
X34119047Y-29252438D02*
X34166666Y-29300057D01*
X34166666Y-29300057D02*
X34214285Y-29252438D01*
X34214285Y-29252438D02*
X34166666Y-29204819D01*
X34166666Y-29204819D02*
X34166666Y-29300057D01*
X34499999Y-29538152D02*
X34880951Y-29538152D01*
X34642856Y-29204819D02*
X34642856Y-30061961D01*
X34642856Y-30061961D02*
X34690475Y-30157200D01*
X34690475Y-30157200D02*
X34785713Y-30204819D01*
X34785713Y-30204819D02*
X34880951Y-30204819D01*
X35166666Y-30157200D02*
X35261904Y-30204819D01*
X35261904Y-30204819D02*
X35452380Y-30204819D01*
X35452380Y-30204819D02*
X35547618Y-30157200D01*
X35547618Y-30157200D02*
X35595237Y-30061961D01*
X35595237Y-30061961D02*
X35595237Y-30014342D01*
X35595237Y-30014342D02*
X35547618Y-29919104D01*
X35547618Y-29919104D02*
X35452380Y-29871485D01*
X35452380Y-29871485D02*
X35309523Y-29871485D01*
X35309523Y-29871485D02*
X35214285Y-29823866D01*
X35214285Y-29823866D02*
X35166666Y-29728628D01*
X35166666Y-29728628D02*
X35166666Y-29681009D01*
X35166666Y-29681009D02*
X35214285Y-29585771D01*
X35214285Y-29585771D02*
X35309523Y-29538152D01*
X35309523Y-29538152D02*
X35452380Y-29538152D01*
X35452380Y-29538152D02*
X35547618Y-29585771D01*
X35928571Y-29538152D02*
X36166666Y-30204819D01*
X36404761Y-29538152D02*
X36166666Y-30204819D01*
X36166666Y-30204819D02*
X36071428Y-30442914D01*
X36071428Y-30442914D02*
X36023809Y-30490533D01*
X36023809Y-30490533D02*
X35928571Y-30538152D01*
X36785714Y-30204819D02*
X36785714Y-29204819D01*
X36785714Y-29585771D02*
X36880952Y-29538152D01*
X36880952Y-29538152D02*
X37071428Y-29538152D01*
X37071428Y-29538152D02*
X37166666Y-29585771D01*
X37166666Y-29585771D02*
X37214285Y-29633390D01*
X37214285Y-29633390D02*
X37261904Y-29728628D01*
X37261904Y-29728628D02*
X37261904Y-30014342D01*
X37261904Y-30014342D02*
X37214285Y-30109580D01*
X37214285Y-30109580D02*
X37166666Y-30157200D01*
X37166666Y-30157200D02*
X37071428Y-30204819D01*
X37071428Y-30204819D02*
X36880952Y-30204819D01*
X36880952Y-30204819D02*
X36785714Y-30157200D01*
X37690476Y-30204819D02*
X37690476Y-29538152D01*
X37690476Y-29204819D02*
X37642857Y-29252438D01*
X37642857Y-29252438D02*
X37690476Y-29300057D01*
X37690476Y-29300057D02*
X37738095Y-29252438D01*
X37738095Y-29252438D02*
X37690476Y-29204819D01*
X37690476Y-29204819D02*
X37690476Y-29300057D01*
X38023809Y-29538152D02*
X38404761Y-29538152D01*
X38166666Y-29204819D02*
X38166666Y-30061961D01*
X38166666Y-30061961D02*
X38214285Y-30157200D01*
X38214285Y-30157200D02*
X38309523Y-30204819D01*
X38309523Y-30204819D02*
X38404761Y-30204819D01*
X38690476Y-30157200D02*
X38785714Y-30204819D01*
X38785714Y-30204819D02*
X38976190Y-30204819D01*
X38976190Y-30204819D02*
X39071428Y-30157200D01*
X39071428Y-30157200D02*
X39119047Y-30061961D01*
X39119047Y-30061961D02*
X39119047Y-30014342D01*
X39119047Y-30014342D02*
X39071428Y-29919104D01*
X39071428Y-29919104D02*
X38976190Y-29871485D01*
X38976190Y-29871485D02*
X38833333Y-29871485D01*
X38833333Y-29871485D02*
X38738095Y-29823866D01*
X38738095Y-29823866D02*
X38690476Y-29728628D01*
X38690476Y-29728628D02*
X38690476Y-29681009D01*
X38690476Y-29681009D02*
X38738095Y-29585771D01*
X38738095Y-29585771D02*
X38833333Y-29538152D01*
X38833333Y-29538152D02*
X38976190Y-29538152D01*
X38976190Y-29538152D02*
X39071428Y-29585771D01*
X39452381Y-29538152D02*
X39690476Y-30204819D01*
X39928571Y-29538152D02*
X39690476Y-30204819D01*
X39690476Y-30204819D02*
X39595238Y-30442914D01*
X39595238Y-30442914D02*
X39547619Y-30490533D01*
X39547619Y-30490533D02*
X39452381Y-30538152D01*
X61708207Y-93469819D02*
X61374874Y-92993628D01*
X61136779Y-93469819D02*
X61136779Y-92469819D01*
X61136779Y-92469819D02*
X61517731Y-92469819D01*
X61517731Y-92469819D02*
X61612969Y-92517438D01*
X61612969Y-92517438D02*
X61660588Y-92565057D01*
X61660588Y-92565057D02*
X61708207Y-92660295D01*
X61708207Y-92660295D02*
X61708207Y-92803152D01*
X61708207Y-92803152D02*
X61660588Y-92898390D01*
X61660588Y-92898390D02*
X61612969Y-92946009D01*
X61612969Y-92946009D02*
X61517731Y-92993628D01*
X61517731Y-92993628D02*
X61136779Y-92993628D01*
X62041541Y-92469819D02*
X62708207Y-93469819D01*
X62708207Y-92469819D02*
X62041541Y-93469819D01*
X63041541Y-92565057D02*
X63089160Y-92517438D01*
X63089160Y-92517438D02*
X63184398Y-92469819D01*
X63184398Y-92469819D02*
X63422493Y-92469819D01*
X63422493Y-92469819D02*
X63517731Y-92517438D01*
X63517731Y-92517438D02*
X63565350Y-92565057D01*
X63565350Y-92565057D02*
X63612969Y-92660295D01*
X63612969Y-92660295D02*
X63612969Y-92755533D01*
X63612969Y-92755533D02*
X63565350Y-92898390D01*
X63565350Y-92898390D02*
X62993922Y-93469819D01*
X62993922Y-93469819D02*
X63612969Y-93469819D01*
X105253541Y-66257819D02*
X105872588Y-66257819D01*
X105872588Y-66257819D02*
X105539255Y-66638771D01*
X105539255Y-66638771D02*
X105682112Y-66638771D01*
X105682112Y-66638771D02*
X105777350Y-66686390D01*
X105777350Y-66686390D02*
X105824969Y-66734009D01*
X105824969Y-66734009D02*
X105872588Y-66829247D01*
X105872588Y-66829247D02*
X105872588Y-67067342D01*
X105872588Y-67067342D02*
X105824969Y-67162580D01*
X105824969Y-67162580D02*
X105777350Y-67210200D01*
X105777350Y-67210200D02*
X105682112Y-67257819D01*
X105682112Y-67257819D02*
X105396398Y-67257819D01*
X105396398Y-67257819D02*
X105301160Y-67210200D01*
X105301160Y-67210200D02*
X105253541Y-67162580D01*
X106158303Y-66257819D02*
X106491636Y-67257819D01*
X106491636Y-67257819D02*
X106824969Y-66257819D01*
X89260588Y-92517438D02*
X89165350Y-92469819D01*
X89165350Y-92469819D02*
X89022493Y-92469819D01*
X89022493Y-92469819D02*
X88879636Y-92517438D01*
X88879636Y-92517438D02*
X88784398Y-92612676D01*
X88784398Y-92612676D02*
X88736779Y-92707914D01*
X88736779Y-92707914D02*
X88689160Y-92898390D01*
X88689160Y-92898390D02*
X88689160Y-93041247D01*
X88689160Y-93041247D02*
X88736779Y-93231723D01*
X88736779Y-93231723D02*
X88784398Y-93326961D01*
X88784398Y-93326961D02*
X88879636Y-93422200D01*
X88879636Y-93422200D02*
X89022493Y-93469819D01*
X89022493Y-93469819D02*
X89117731Y-93469819D01*
X89117731Y-93469819D02*
X89260588Y-93422200D01*
X89260588Y-93422200D02*
X89308207Y-93374580D01*
X89308207Y-93374580D02*
X89308207Y-93041247D01*
X89308207Y-93041247D02*
X89117731Y-93041247D01*
X89736779Y-93469819D02*
X89736779Y-92469819D01*
X89736779Y-92469819D02*
X90308207Y-93469819D01*
X90308207Y-93469819D02*
X90308207Y-92469819D01*
X90784398Y-93469819D02*
X90784398Y-92469819D01*
X90784398Y-92469819D02*
X91022493Y-92469819D01*
X91022493Y-92469819D02*
X91165350Y-92517438D01*
X91165350Y-92517438D02*
X91260588Y-92612676D01*
X91260588Y-92612676D02*
X91308207Y-92707914D01*
X91308207Y-92707914D02*
X91355826Y-92898390D01*
X91355826Y-92898390D02*
X91355826Y-93041247D01*
X91355826Y-93041247D02*
X91308207Y-93231723D01*
X91308207Y-93231723D02*
X91260588Y-93326961D01*
X91260588Y-93326961D02*
X91165350Y-93422200D01*
X91165350Y-93422200D02*
X91022493Y-93469819D01*
X91022493Y-93469819D02*
X90784398Y-93469819D01*
D11*
X28071428Y-66678328D02*
X28357142Y-66678328D01*
X28357142Y-66678328D02*
X28499999Y-66749757D01*
X28499999Y-66749757D02*
X28642856Y-66892614D01*
X28642856Y-66892614D02*
X28714285Y-67178328D01*
X28714285Y-67178328D02*
X28714285Y-67678328D01*
X28714285Y-67678328D02*
X28642856Y-67964042D01*
X28642856Y-67964042D02*
X28499999Y-68106900D01*
X28499999Y-68106900D02*
X28357142Y-68178328D01*
X28357142Y-68178328D02*
X28071428Y-68178328D01*
X28071428Y-68178328D02*
X27928571Y-68106900D01*
X27928571Y-68106900D02*
X27785713Y-67964042D01*
X27785713Y-67964042D02*
X27714285Y-67678328D01*
X27714285Y-67678328D02*
X27714285Y-67178328D01*
X27714285Y-67178328D02*
X27785713Y-66892614D01*
X27785713Y-66892614D02*
X27928571Y-66749757D01*
X27928571Y-66749757D02*
X28071428Y-66678328D01*
X29357142Y-68178328D02*
X29357142Y-66678328D01*
X29357142Y-66678328D02*
X30214285Y-68178328D01*
X30214285Y-68178328D02*
X30214285Y-66678328D01*
D10*
X105862969Y-42369819D02*
X105386779Y-42369819D01*
X105386779Y-42369819D02*
X105339160Y-42846009D01*
X105339160Y-42846009D02*
X105386779Y-42798390D01*
X105386779Y-42798390D02*
X105482017Y-42750771D01*
X105482017Y-42750771D02*
X105720112Y-42750771D01*
X105720112Y-42750771D02*
X105815350Y-42798390D01*
X105815350Y-42798390D02*
X105862969Y-42846009D01*
X105862969Y-42846009D02*
X105910588Y-42941247D01*
X105910588Y-42941247D02*
X105910588Y-43179342D01*
X105910588Y-43179342D02*
X105862969Y-43274580D01*
X105862969Y-43274580D02*
X105815350Y-43322200D01*
X105815350Y-43322200D02*
X105720112Y-43369819D01*
X105720112Y-43369819D02*
X105482017Y-43369819D01*
X105482017Y-43369819D02*
X105386779Y-43322200D01*
X105386779Y-43322200D02*
X105339160Y-43274580D01*
X106196303Y-42369819D02*
X106529636Y-43369819D01*
X106529636Y-43369819D02*
X106862969Y-42369819D01*
D11*
X27571429Y-82178328D02*
X27857143Y-82178328D01*
X27857143Y-82178328D02*
X28000000Y-82249757D01*
X28000000Y-82249757D02*
X28142857Y-82392614D01*
X28142857Y-82392614D02*
X28214286Y-82678328D01*
X28214286Y-82678328D02*
X28214286Y-83178328D01*
X28214286Y-83178328D02*
X28142857Y-83464042D01*
X28142857Y-83464042D02*
X28000000Y-83606900D01*
X28000000Y-83606900D02*
X27857143Y-83678328D01*
X27857143Y-83678328D02*
X27571429Y-83678328D01*
X27571429Y-83678328D02*
X27428572Y-83606900D01*
X27428572Y-83606900D02*
X27285714Y-83464042D01*
X27285714Y-83464042D02*
X27214286Y-83178328D01*
X27214286Y-83178328D02*
X27214286Y-82678328D01*
X27214286Y-82678328D02*
X27285714Y-82392614D01*
X27285714Y-82392614D02*
X27428572Y-82249757D01*
X27428572Y-82249757D02*
X27571429Y-82178328D01*
X29357143Y-82892614D02*
X28857143Y-82892614D01*
X28857143Y-83678328D02*
X28857143Y-82178328D01*
X28857143Y-82178328D02*
X29571429Y-82178328D01*
X30642857Y-82892614D02*
X30142857Y-82892614D01*
X30142857Y-83678328D02*
X30142857Y-82178328D01*
X30142857Y-82178328D02*
X30857143Y-82178328D01*
D10*
X37443922Y-92369819D02*
X37777255Y-93369819D01*
X37777255Y-93369819D02*
X38110588Y-92369819D01*
X38443922Y-92846009D02*
X38777255Y-92846009D01*
X38920112Y-93369819D02*
X38443922Y-93369819D01*
X38443922Y-93369819D02*
X38443922Y-92369819D01*
X38443922Y-92369819D02*
X38920112Y-92369819D01*
X39253446Y-92369819D02*
X39920112Y-93369819D01*
X39920112Y-92369819D02*
X39253446Y-93369819D01*
X40158208Y-92369819D02*
X40729636Y-92369819D01*
X40443922Y-93369819D02*
X40443922Y-92369819D01*
X105910588Y-32417438D02*
X105815350Y-32369819D01*
X105815350Y-32369819D02*
X105672493Y-32369819D01*
X105672493Y-32369819D02*
X105529636Y-32417438D01*
X105529636Y-32417438D02*
X105434398Y-32512676D01*
X105434398Y-32512676D02*
X105386779Y-32607914D01*
X105386779Y-32607914D02*
X105339160Y-32798390D01*
X105339160Y-32798390D02*
X105339160Y-32941247D01*
X105339160Y-32941247D02*
X105386779Y-33131723D01*
X105386779Y-33131723D02*
X105434398Y-33226961D01*
X105434398Y-33226961D02*
X105529636Y-33322200D01*
X105529636Y-33322200D02*
X105672493Y-33369819D01*
X105672493Y-33369819D02*
X105767731Y-33369819D01*
X105767731Y-33369819D02*
X105910588Y-33322200D01*
X105910588Y-33322200D02*
X105958207Y-33274580D01*
X105958207Y-33274580D02*
X105958207Y-32941247D01*
X105958207Y-32941247D02*
X105767731Y-32941247D01*
X106386779Y-33369819D02*
X106386779Y-32369819D01*
X106386779Y-32369819D02*
X106958207Y-33369819D01*
X106958207Y-33369819D02*
X106958207Y-32369819D01*
X107434398Y-33369819D02*
X107434398Y-32369819D01*
X107434398Y-32369819D02*
X107672493Y-32369819D01*
X107672493Y-32369819D02*
X107815350Y-32417438D01*
X107815350Y-32417438D02*
X107910588Y-32512676D01*
X107910588Y-32512676D02*
X107958207Y-32607914D01*
X107958207Y-32607914D02*
X108005826Y-32798390D01*
X108005826Y-32798390D02*
X108005826Y-32941247D01*
X108005826Y-32941247D02*
X107958207Y-33131723D01*
X107958207Y-33131723D02*
X107910588Y-33226961D01*
X107910588Y-33226961D02*
X107815350Y-33322200D01*
X107815350Y-33322200D02*
X107672493Y-33369819D01*
X107672493Y-33369819D02*
X107434398Y-33369819D01*
X105151160Y-54322104D02*
X105627350Y-54322104D01*
X105055922Y-54607819D02*
X105389255Y-53607819D01*
X105389255Y-53607819D02*
X105722588Y-54607819D01*
X106008303Y-53703057D02*
X106055922Y-53655438D01*
X106055922Y-53655438D02*
X106151160Y-53607819D01*
X106151160Y-53607819D02*
X106389255Y-53607819D01*
X106389255Y-53607819D02*
X106484493Y-53655438D01*
X106484493Y-53655438D02*
X106532112Y-53703057D01*
X106532112Y-53703057D02*
X106579731Y-53798295D01*
X106579731Y-53798295D02*
X106579731Y-53893533D01*
X106579731Y-53893533D02*
X106532112Y-54036390D01*
X106532112Y-54036390D02*
X105960684Y-54607819D01*
X105960684Y-54607819D02*
X106579731Y-54607819D01*
X43360588Y-92417438D02*
X43265350Y-92369819D01*
X43265350Y-92369819D02*
X43122493Y-92369819D01*
X43122493Y-92369819D02*
X42979636Y-92417438D01*
X42979636Y-92417438D02*
X42884398Y-92512676D01*
X42884398Y-92512676D02*
X42836779Y-92607914D01*
X42836779Y-92607914D02*
X42789160Y-92798390D01*
X42789160Y-92798390D02*
X42789160Y-92941247D01*
X42789160Y-92941247D02*
X42836779Y-93131723D01*
X42836779Y-93131723D02*
X42884398Y-93226961D01*
X42884398Y-93226961D02*
X42979636Y-93322200D01*
X42979636Y-93322200D02*
X43122493Y-93369819D01*
X43122493Y-93369819D02*
X43217731Y-93369819D01*
X43217731Y-93369819D02*
X43360588Y-93322200D01*
X43360588Y-93322200D02*
X43408207Y-93274580D01*
X43408207Y-93274580D02*
X43408207Y-92941247D01*
X43408207Y-92941247D02*
X43217731Y-92941247D01*
X43836779Y-93369819D02*
X43836779Y-92369819D01*
X43836779Y-92369819D02*
X44408207Y-93369819D01*
X44408207Y-93369819D02*
X44408207Y-92369819D01*
X44884398Y-93369819D02*
X44884398Y-92369819D01*
X44884398Y-92369819D02*
X45122493Y-92369819D01*
X45122493Y-92369819D02*
X45265350Y-92417438D01*
X45265350Y-92417438D02*
X45360588Y-92512676D01*
X45360588Y-92512676D02*
X45408207Y-92607914D01*
X45408207Y-92607914D02*
X45455826Y-92798390D01*
X45455826Y-92798390D02*
X45455826Y-92941247D01*
X45455826Y-92941247D02*
X45408207Y-93131723D01*
X45408207Y-93131723D02*
X45360588Y-93226961D01*
X45360588Y-93226961D02*
X45265350Y-93322200D01*
X45265350Y-93322200D02*
X45122493Y-93369819D01*
X45122493Y-93369819D02*
X44884398Y-93369819D01*
X105151160Y-59560200D02*
X105294017Y-59607819D01*
X105294017Y-59607819D02*
X105532112Y-59607819D01*
X105532112Y-59607819D02*
X105627350Y-59560200D01*
X105627350Y-59560200D02*
X105674969Y-59512580D01*
X105674969Y-59512580D02*
X105722588Y-59417342D01*
X105722588Y-59417342D02*
X105722588Y-59322104D01*
X105722588Y-59322104D02*
X105674969Y-59226866D01*
X105674969Y-59226866D02*
X105627350Y-59179247D01*
X105627350Y-59179247D02*
X105532112Y-59131628D01*
X105532112Y-59131628D02*
X105341636Y-59084009D01*
X105341636Y-59084009D02*
X105246398Y-59036390D01*
X105246398Y-59036390D02*
X105198779Y-58988771D01*
X105198779Y-58988771D02*
X105151160Y-58893533D01*
X105151160Y-58893533D02*
X105151160Y-58798295D01*
X105151160Y-58798295D02*
X105198779Y-58703057D01*
X105198779Y-58703057D02*
X105246398Y-58655438D01*
X105246398Y-58655438D02*
X105341636Y-58607819D01*
X105341636Y-58607819D02*
X105579731Y-58607819D01*
X105579731Y-58607819D02*
X105722588Y-58655438D01*
X106722588Y-59512580D02*
X106674969Y-59560200D01*
X106674969Y-59560200D02*
X106532112Y-59607819D01*
X106532112Y-59607819D02*
X106436874Y-59607819D01*
X106436874Y-59607819D02*
X106294017Y-59560200D01*
X106294017Y-59560200D02*
X106198779Y-59464961D01*
X106198779Y-59464961D02*
X106151160Y-59369723D01*
X106151160Y-59369723D02*
X106103541Y-59179247D01*
X106103541Y-59179247D02*
X106103541Y-59036390D01*
X106103541Y-59036390D02*
X106151160Y-58845914D01*
X106151160Y-58845914D02*
X106198779Y-58750676D01*
X106198779Y-58750676D02*
X106294017Y-58655438D01*
X106294017Y-58655438D02*
X106436874Y-58607819D01*
X106436874Y-58607819D02*
X106532112Y-58607819D01*
X106532112Y-58607819D02*
X106674969Y-58655438D01*
X106674969Y-58655438D02*
X106722588Y-58703057D01*
X107627350Y-59607819D02*
X107151160Y-59607819D01*
X107151160Y-59607819D02*
X107151160Y-58607819D01*
X105151160Y-56822104D02*
X105627350Y-56822104D01*
X105055922Y-57107819D02*
X105389255Y-56107819D01*
X105389255Y-56107819D02*
X105722588Y-57107819D01*
X106246398Y-56107819D02*
X106341636Y-56107819D01*
X106341636Y-56107819D02*
X106436874Y-56155438D01*
X106436874Y-56155438D02*
X106484493Y-56203057D01*
X106484493Y-56203057D02*
X106532112Y-56298295D01*
X106532112Y-56298295D02*
X106579731Y-56488771D01*
X106579731Y-56488771D02*
X106579731Y-56726866D01*
X106579731Y-56726866D02*
X106532112Y-56917342D01*
X106532112Y-56917342D02*
X106484493Y-57012580D01*
X106484493Y-57012580D02*
X106436874Y-57060200D01*
X106436874Y-57060200D02*
X106341636Y-57107819D01*
X106341636Y-57107819D02*
X106246398Y-57107819D01*
X106246398Y-57107819D02*
X106151160Y-57060200D01*
X106151160Y-57060200D02*
X106103541Y-57012580D01*
X106103541Y-57012580D02*
X106055922Y-56917342D01*
X106055922Y-56917342D02*
X106008303Y-56726866D01*
X106008303Y-56726866D02*
X106008303Y-56488771D01*
X106008303Y-56488771D02*
X106055922Y-56298295D01*
X106055922Y-56298295D02*
X106103541Y-56203057D01*
X106103541Y-56203057D02*
X106151160Y-56155438D01*
X106151160Y-56155438D02*
X106246398Y-56107819D01*
X105339160Y-40822200D02*
X105482017Y-40869819D01*
X105482017Y-40869819D02*
X105720112Y-40869819D01*
X105720112Y-40869819D02*
X105815350Y-40822200D01*
X105815350Y-40822200D02*
X105862969Y-40774580D01*
X105862969Y-40774580D02*
X105910588Y-40679342D01*
X105910588Y-40679342D02*
X105910588Y-40584104D01*
X105910588Y-40584104D02*
X105862969Y-40488866D01*
X105862969Y-40488866D02*
X105815350Y-40441247D01*
X105815350Y-40441247D02*
X105720112Y-40393628D01*
X105720112Y-40393628D02*
X105529636Y-40346009D01*
X105529636Y-40346009D02*
X105434398Y-40298390D01*
X105434398Y-40298390D02*
X105386779Y-40250771D01*
X105386779Y-40250771D02*
X105339160Y-40155533D01*
X105339160Y-40155533D02*
X105339160Y-40060295D01*
X105339160Y-40060295D02*
X105386779Y-39965057D01*
X105386779Y-39965057D02*
X105434398Y-39917438D01*
X105434398Y-39917438D02*
X105529636Y-39869819D01*
X105529636Y-39869819D02*
X105767731Y-39869819D01*
X105767731Y-39869819D02*
X105910588Y-39917438D01*
X106339160Y-40346009D02*
X106672493Y-40346009D01*
X106815350Y-40869819D02*
X106339160Y-40869819D01*
X106339160Y-40869819D02*
X106339160Y-39869819D01*
X106339160Y-39869819D02*
X106815350Y-39869819D01*
X107243922Y-40869819D02*
X107243922Y-39869819D01*
X107243922Y-39869819D02*
X107815350Y-40869819D01*
X107815350Y-40869819D02*
X107815350Y-39869819D01*
X105872588Y-69055438D02*
X105777350Y-69007819D01*
X105777350Y-69007819D02*
X105634493Y-69007819D01*
X105634493Y-69007819D02*
X105491636Y-69055438D01*
X105491636Y-69055438D02*
X105396398Y-69150676D01*
X105396398Y-69150676D02*
X105348779Y-69245914D01*
X105348779Y-69245914D02*
X105301160Y-69436390D01*
X105301160Y-69436390D02*
X105301160Y-69579247D01*
X105301160Y-69579247D02*
X105348779Y-69769723D01*
X105348779Y-69769723D02*
X105396398Y-69864961D01*
X105396398Y-69864961D02*
X105491636Y-69960200D01*
X105491636Y-69960200D02*
X105634493Y-70007819D01*
X105634493Y-70007819D02*
X105729731Y-70007819D01*
X105729731Y-70007819D02*
X105872588Y-69960200D01*
X105872588Y-69960200D02*
X105920207Y-69912580D01*
X105920207Y-69912580D02*
X105920207Y-69579247D01*
X105920207Y-69579247D02*
X105729731Y-69579247D01*
X106348779Y-70007819D02*
X106348779Y-69007819D01*
X106348779Y-69007819D02*
X106920207Y-70007819D01*
X106920207Y-70007819D02*
X106920207Y-69007819D01*
X107396398Y-70007819D02*
X107396398Y-69007819D01*
X107396398Y-69007819D02*
X107634493Y-69007819D01*
X107634493Y-69007819D02*
X107777350Y-69055438D01*
X107777350Y-69055438D02*
X107872588Y-69150676D01*
X107872588Y-69150676D02*
X107920207Y-69245914D01*
X107920207Y-69245914D02*
X107967826Y-69436390D01*
X107967826Y-69436390D02*
X107967826Y-69579247D01*
X107967826Y-69579247D02*
X107920207Y-69769723D01*
X107920207Y-69769723D02*
X107872588Y-69864961D01*
X107872588Y-69864961D02*
X107777350Y-69960200D01*
X107777350Y-69960200D02*
X107634493Y-70007819D01*
X107634493Y-70007819D02*
X107396398Y-70007819D01*
X50769047Y-72112295D02*
X50769047Y-71312295D01*
X50769047Y-71312295D02*
X50959523Y-71312295D01*
X50959523Y-71312295D02*
X51073809Y-71350390D01*
X51073809Y-71350390D02*
X51149999Y-71426580D01*
X51149999Y-71426580D02*
X51188094Y-71502771D01*
X51188094Y-71502771D02*
X51226190Y-71655152D01*
X51226190Y-71655152D02*
X51226190Y-71769438D01*
X51226190Y-71769438D02*
X51188094Y-71921819D01*
X51188094Y-71921819D02*
X51149999Y-71998009D01*
X51149999Y-71998009D02*
X51073809Y-72074200D01*
X51073809Y-72074200D02*
X50959523Y-72112295D01*
X50959523Y-72112295D02*
X50769047Y-72112295D01*
X52026190Y-72112295D02*
X51759523Y-71731342D01*
X51569047Y-72112295D02*
X51569047Y-71312295D01*
X51569047Y-71312295D02*
X51873809Y-71312295D01*
X51873809Y-71312295D02*
X51949999Y-71350390D01*
X51949999Y-71350390D02*
X51988094Y-71388485D01*
X51988094Y-71388485D02*
X52026190Y-71464676D01*
X52026190Y-71464676D02*
X52026190Y-71578961D01*
X52026190Y-71578961D02*
X51988094Y-71655152D01*
X51988094Y-71655152D02*
X51949999Y-71693247D01*
X51949999Y-71693247D02*
X51873809Y-71731342D01*
X51873809Y-71731342D02*
X51569047Y-71731342D01*
X52369047Y-72112295D02*
X52369047Y-71312295D01*
X52635713Y-71312295D02*
X52902380Y-72112295D01*
X52902380Y-72112295D02*
X53169046Y-71312295D01*
X53435713Y-71693247D02*
X53702379Y-71693247D01*
X53816665Y-72112295D02*
X53435713Y-72112295D01*
X53435713Y-72112295D02*
X53435713Y-71312295D01*
X53435713Y-71312295D02*
X53816665Y-71312295D01*
X56041541Y-92469819D02*
X56660588Y-92469819D01*
X56660588Y-92469819D02*
X56327255Y-92850771D01*
X56327255Y-92850771D02*
X56470112Y-92850771D01*
X56470112Y-92850771D02*
X56565350Y-92898390D01*
X56565350Y-92898390D02*
X56612969Y-92946009D01*
X56612969Y-92946009D02*
X56660588Y-93041247D01*
X56660588Y-93041247D02*
X56660588Y-93279342D01*
X56660588Y-93279342D02*
X56612969Y-93374580D01*
X56612969Y-93374580D02*
X56565350Y-93422200D01*
X56565350Y-93422200D02*
X56470112Y-93469819D01*
X56470112Y-93469819D02*
X56184398Y-93469819D01*
X56184398Y-93469819D02*
X56089160Y-93422200D01*
X56089160Y-93422200D02*
X56041541Y-93374580D01*
X56946303Y-92469819D02*
X57279636Y-93469819D01*
X57279636Y-93469819D02*
X57612969Y-92469819D01*
X66157200Y-28226190D02*
X66204819Y-28130952D01*
X66204819Y-28130952D02*
X66204819Y-27940476D01*
X66204819Y-27940476D02*
X66157200Y-27845238D01*
X66157200Y-27845238D02*
X66061961Y-27797619D01*
X66061961Y-27797619D02*
X66014342Y-27797619D01*
X66014342Y-27797619D02*
X65919104Y-27845238D01*
X65919104Y-27845238D02*
X65871485Y-27940476D01*
X65871485Y-27940476D02*
X65871485Y-28083333D01*
X65871485Y-28083333D02*
X65823866Y-28178571D01*
X65823866Y-28178571D02*
X65728628Y-28226190D01*
X65728628Y-28226190D02*
X65681009Y-28226190D01*
X65681009Y-28226190D02*
X65585771Y-28178571D01*
X65585771Y-28178571D02*
X65538152Y-28083333D01*
X65538152Y-28083333D02*
X65538152Y-27940476D01*
X65538152Y-27940476D02*
X65585771Y-27845238D01*
X66157200Y-27416666D02*
X66204819Y-27321428D01*
X66204819Y-27321428D02*
X66204819Y-27130952D01*
X66204819Y-27130952D02*
X66157200Y-27035714D01*
X66157200Y-27035714D02*
X66061961Y-26988095D01*
X66061961Y-26988095D02*
X66014342Y-26988095D01*
X66014342Y-26988095D02*
X65919104Y-27035714D01*
X65919104Y-27035714D02*
X65871485Y-27130952D01*
X65871485Y-27130952D02*
X65871485Y-27273809D01*
X65871485Y-27273809D02*
X65823866Y-27369047D01*
X65823866Y-27369047D02*
X65728628Y-27416666D01*
X65728628Y-27416666D02*
X65681009Y-27416666D01*
X65681009Y-27416666D02*
X65585771Y-27369047D01*
X65585771Y-27369047D02*
X65538152Y-27273809D01*
X65538152Y-27273809D02*
X65538152Y-27130952D01*
X65538152Y-27130952D02*
X65585771Y-27035714D01*
X66204819Y-26130952D02*
X65204819Y-26130952D01*
X66157200Y-26130952D02*
X66204819Y-26226190D01*
X66204819Y-26226190D02*
X66204819Y-26416666D01*
X66204819Y-26416666D02*
X66157200Y-26511904D01*
X66157200Y-26511904D02*
X66109580Y-26559523D01*
X66109580Y-26559523D02*
X66014342Y-26607142D01*
X66014342Y-26607142D02*
X65728628Y-26607142D01*
X65728628Y-26607142D02*
X65633390Y-26559523D01*
X65633390Y-26559523D02*
X65585771Y-26511904D01*
X65585771Y-26511904D02*
X65538152Y-26416666D01*
X65538152Y-26416666D02*
X65538152Y-26226190D01*
X65538152Y-26226190D02*
X65585771Y-26130952D01*
X66204819Y-25130952D02*
X66204819Y-25702380D01*
X66204819Y-25416666D02*
X65204819Y-25416666D01*
X65204819Y-25416666D02*
X65347676Y-25511904D01*
X65347676Y-25511904D02*
X65442914Y-25607142D01*
X65442914Y-25607142D02*
X65490533Y-25702380D01*
X65204819Y-24797618D02*
X65204819Y-24178571D01*
X65204819Y-24178571D02*
X65585771Y-24511904D01*
X65585771Y-24511904D02*
X65585771Y-24369047D01*
X65585771Y-24369047D02*
X65633390Y-24273809D01*
X65633390Y-24273809D02*
X65681009Y-24226190D01*
X65681009Y-24226190D02*
X65776247Y-24178571D01*
X65776247Y-24178571D02*
X66014342Y-24178571D01*
X66014342Y-24178571D02*
X66109580Y-24226190D01*
X66109580Y-24226190D02*
X66157200Y-24273809D01*
X66157200Y-24273809D02*
X66204819Y-24369047D01*
X66204819Y-24369047D02*
X66204819Y-24654761D01*
X66204819Y-24654761D02*
X66157200Y-24749999D01*
X66157200Y-24749999D02*
X66109580Y-24797618D01*
X65204819Y-23559523D02*
X65204819Y-23464285D01*
X65204819Y-23464285D02*
X65252438Y-23369047D01*
X65252438Y-23369047D02*
X65300057Y-23321428D01*
X65300057Y-23321428D02*
X65395295Y-23273809D01*
X65395295Y-23273809D02*
X65585771Y-23226190D01*
X65585771Y-23226190D02*
X65823866Y-23226190D01*
X65823866Y-23226190D02*
X66014342Y-23273809D01*
X66014342Y-23273809D02*
X66109580Y-23321428D01*
X66109580Y-23321428D02*
X66157200Y-23369047D01*
X66157200Y-23369047D02*
X66204819Y-23464285D01*
X66204819Y-23464285D02*
X66204819Y-23559523D01*
X66204819Y-23559523D02*
X66157200Y-23654761D01*
X66157200Y-23654761D02*
X66109580Y-23702380D01*
X66109580Y-23702380D02*
X66014342Y-23749999D01*
X66014342Y-23749999D02*
X65823866Y-23797618D01*
X65823866Y-23797618D02*
X65585771Y-23797618D01*
X65585771Y-23797618D02*
X65395295Y-23749999D01*
X65395295Y-23749999D02*
X65300057Y-23702380D01*
X65300057Y-23702380D02*
X65252438Y-23654761D01*
X65252438Y-23654761D02*
X65204819Y-23559523D01*
X65204819Y-22369047D02*
X65204819Y-22559523D01*
X65204819Y-22559523D02*
X65252438Y-22654761D01*
X65252438Y-22654761D02*
X65300057Y-22702380D01*
X65300057Y-22702380D02*
X65442914Y-22797618D01*
X65442914Y-22797618D02*
X65633390Y-22845237D01*
X65633390Y-22845237D02*
X66014342Y-22845237D01*
X66014342Y-22845237D02*
X66109580Y-22797618D01*
X66109580Y-22797618D02*
X66157200Y-22749999D01*
X66157200Y-22749999D02*
X66204819Y-22654761D01*
X66204819Y-22654761D02*
X66204819Y-22464285D01*
X66204819Y-22464285D02*
X66157200Y-22369047D01*
X66157200Y-22369047D02*
X66109580Y-22321428D01*
X66109580Y-22321428D02*
X66014342Y-22273809D01*
X66014342Y-22273809D02*
X65776247Y-22273809D01*
X65776247Y-22273809D02*
X65681009Y-22321428D01*
X65681009Y-22321428D02*
X65633390Y-22369047D01*
X65633390Y-22369047D02*
X65585771Y-22464285D01*
X65585771Y-22464285D02*
X65585771Y-22654761D01*
X65585771Y-22654761D02*
X65633390Y-22749999D01*
X65633390Y-22749999D02*
X65681009Y-22797618D01*
X65681009Y-22797618D02*
X65776247Y-22845237D01*
X78891541Y-92469819D02*
X79510588Y-92469819D01*
X79510588Y-92469819D02*
X79177255Y-92850771D01*
X79177255Y-92850771D02*
X79320112Y-92850771D01*
X79320112Y-92850771D02*
X79415350Y-92898390D01*
X79415350Y-92898390D02*
X79462969Y-92946009D01*
X79462969Y-92946009D02*
X79510588Y-93041247D01*
X79510588Y-93041247D02*
X79510588Y-93279342D01*
X79510588Y-93279342D02*
X79462969Y-93374580D01*
X79462969Y-93374580D02*
X79415350Y-93422200D01*
X79415350Y-93422200D02*
X79320112Y-93469819D01*
X79320112Y-93469819D02*
X79034398Y-93469819D01*
X79034398Y-93469819D02*
X78939160Y-93422200D01*
X78939160Y-93422200D02*
X78891541Y-93374580D01*
X79796303Y-92469819D02*
X80129636Y-93469819D01*
X80129636Y-93469819D02*
X80462969Y-92469819D01*
X65993922Y-92469819D02*
X66565350Y-92469819D01*
X66279636Y-93469819D02*
X66279636Y-92469819D01*
X66803446Y-92469819D02*
X67470112Y-93469819D01*
X67470112Y-92469819D02*
X66803446Y-93469819D01*
X67803446Y-92565057D02*
X67851065Y-92517438D01*
X67851065Y-92517438D02*
X67946303Y-92469819D01*
X67946303Y-92469819D02*
X68184398Y-92469819D01*
X68184398Y-92469819D02*
X68279636Y-92517438D01*
X68279636Y-92517438D02*
X68327255Y-92565057D01*
X68327255Y-92565057D02*
X68374874Y-92660295D01*
X68374874Y-92660295D02*
X68374874Y-92755533D01*
X68374874Y-92755533D02*
X68327255Y-92898390D01*
X68327255Y-92898390D02*
X67755827Y-93469819D01*
X67755827Y-93469819D02*
X68374874Y-93469819D01*
X71386779Y-93469819D02*
X71386779Y-92469819D01*
X71386779Y-92469819D02*
X71624874Y-92469819D01*
X71624874Y-92469819D02*
X71767731Y-92517438D01*
X71767731Y-92517438D02*
X71862969Y-92612676D01*
X71862969Y-92612676D02*
X71910588Y-92707914D01*
X71910588Y-92707914D02*
X71958207Y-92898390D01*
X71958207Y-92898390D02*
X71958207Y-93041247D01*
X71958207Y-93041247D02*
X71910588Y-93231723D01*
X71910588Y-93231723D02*
X71862969Y-93326961D01*
X71862969Y-93326961D02*
X71767731Y-93422200D01*
X71767731Y-93422200D02*
X71624874Y-93469819D01*
X71624874Y-93469819D02*
X71386779Y-93469819D01*
X72910588Y-93469819D02*
X72339160Y-93469819D01*
X72624874Y-93469819D02*
X72624874Y-92469819D01*
X72624874Y-92469819D02*
X72529636Y-92612676D01*
X72529636Y-92612676D02*
X72434398Y-92707914D01*
X72434398Y-92707914D02*
X72339160Y-92755533D01*
X73291541Y-92565057D02*
X73339160Y-92517438D01*
X73339160Y-92517438D02*
X73434398Y-92469819D01*
X73434398Y-92469819D02*
X73672493Y-92469819D01*
X73672493Y-92469819D02*
X73767731Y-92517438D01*
X73767731Y-92517438D02*
X73815350Y-92565057D01*
X73815350Y-92565057D02*
X73862969Y-92660295D01*
X73862969Y-92660295D02*
X73862969Y-92755533D01*
X73862969Y-92755533D02*
X73815350Y-92898390D01*
X73815350Y-92898390D02*
X73243922Y-93469819D01*
X73243922Y-93469819D02*
X73862969Y-93469819D01*
X50959523Y-74419795D02*
X50959523Y-73619795D01*
X50959523Y-73619795D02*
X51149999Y-73619795D01*
X51149999Y-73619795D02*
X51264285Y-73657890D01*
X51264285Y-73657890D02*
X51340475Y-73734080D01*
X51340475Y-73734080D02*
X51378570Y-73810271D01*
X51378570Y-73810271D02*
X51416666Y-73962652D01*
X51416666Y-73962652D02*
X51416666Y-74076938D01*
X51416666Y-74076938D02*
X51378570Y-74229319D01*
X51378570Y-74229319D02*
X51340475Y-74305509D01*
X51340475Y-74305509D02*
X51264285Y-74381700D01*
X51264285Y-74381700D02*
X51149999Y-74419795D01*
X51149999Y-74419795D02*
X50959523Y-74419795D01*
X51911904Y-73619795D02*
X52064285Y-73619795D01*
X52064285Y-73619795D02*
X52140475Y-73657890D01*
X52140475Y-73657890D02*
X52216666Y-73734080D01*
X52216666Y-73734080D02*
X52254761Y-73886461D01*
X52254761Y-73886461D02*
X52254761Y-74153128D01*
X52254761Y-74153128D02*
X52216666Y-74305509D01*
X52216666Y-74305509D02*
X52140475Y-74381700D01*
X52140475Y-74381700D02*
X52064285Y-74419795D01*
X52064285Y-74419795D02*
X51911904Y-74419795D01*
X51911904Y-74419795D02*
X51835713Y-74381700D01*
X51835713Y-74381700D02*
X51759523Y-74305509D01*
X51759523Y-74305509D02*
X51721427Y-74153128D01*
X51721427Y-74153128D02*
X51721427Y-73886461D01*
X51721427Y-73886461D02*
X51759523Y-73734080D01*
X51759523Y-73734080D02*
X51835713Y-73657890D01*
X51835713Y-73657890D02*
X51911904Y-73619795D01*
X52597618Y-74419795D02*
X52597618Y-73619795D01*
X52597618Y-73619795D02*
X53054761Y-74419795D01*
X53054761Y-74419795D02*
X53054761Y-73619795D01*
X53435713Y-74000747D02*
X53702379Y-74000747D01*
X53816665Y-74419795D02*
X53435713Y-74419795D01*
X53435713Y-74419795D02*
X53435713Y-73619795D01*
X53435713Y-73619795D02*
X53816665Y-73619795D01*
X105958207Y-35869819D02*
X105624874Y-35393628D01*
X105386779Y-35869819D02*
X105386779Y-34869819D01*
X105386779Y-34869819D02*
X105767731Y-34869819D01*
X105767731Y-34869819D02*
X105862969Y-34917438D01*
X105862969Y-34917438D02*
X105910588Y-34965057D01*
X105910588Y-34965057D02*
X105958207Y-35060295D01*
X105958207Y-35060295D02*
X105958207Y-35203152D01*
X105958207Y-35203152D02*
X105910588Y-35298390D01*
X105910588Y-35298390D02*
X105862969Y-35346009D01*
X105862969Y-35346009D02*
X105767731Y-35393628D01*
X105767731Y-35393628D02*
X105386779Y-35393628D01*
X106291541Y-34869819D02*
X106958207Y-35869819D01*
X106958207Y-34869819D02*
X106291541Y-35869819D01*
X63721428Y-58308557D02*
X64064285Y-58308557D01*
X63849999Y-58008557D02*
X63849999Y-58779985D01*
X63849999Y-58779985D02*
X63892856Y-58865700D01*
X63892856Y-58865700D02*
X63978571Y-58908557D01*
X63978571Y-58908557D02*
X64064285Y-58908557D01*
X64364285Y-58308557D02*
X64364285Y-59208557D01*
X64364285Y-58351414D02*
X64450000Y-58308557D01*
X64450000Y-58308557D02*
X64621428Y-58308557D01*
X64621428Y-58308557D02*
X64707142Y-58351414D01*
X64707142Y-58351414D02*
X64750000Y-58394271D01*
X64750000Y-58394271D02*
X64792857Y-58479985D01*
X64792857Y-58479985D02*
X64792857Y-58737128D01*
X64792857Y-58737128D02*
X64750000Y-58822842D01*
X64750000Y-58822842D02*
X64707142Y-58865700D01*
X64707142Y-58865700D02*
X64621428Y-58908557D01*
X64621428Y-58908557D02*
X64450000Y-58908557D01*
X64450000Y-58908557D02*
X64364285Y-58865700D01*
X65307143Y-58908557D02*
X65221428Y-58865700D01*
X65221428Y-58865700D02*
X65178571Y-58779985D01*
X65178571Y-58779985D02*
X65178571Y-58008557D01*
X66078572Y-58008557D02*
X65650000Y-58008557D01*
X65650000Y-58008557D02*
X65607143Y-58437128D01*
X65607143Y-58437128D02*
X65650000Y-58394271D01*
X65650000Y-58394271D02*
X65735715Y-58351414D01*
X65735715Y-58351414D02*
X65950000Y-58351414D01*
X65950000Y-58351414D02*
X66035715Y-58394271D01*
X66035715Y-58394271D02*
X66078572Y-58437128D01*
X66078572Y-58437128D02*
X66121429Y-58522842D01*
X66121429Y-58522842D02*
X66121429Y-58737128D01*
X66121429Y-58737128D02*
X66078572Y-58822842D01*
X66078572Y-58822842D02*
X66035715Y-58865700D01*
X66035715Y-58865700D02*
X65950000Y-58908557D01*
X65950000Y-58908557D02*
X65735715Y-58908557D01*
X65735715Y-58908557D02*
X65650000Y-58865700D01*
X65650000Y-58865700D02*
X65607143Y-58822842D01*
X66978572Y-58908557D02*
X66464286Y-58908557D01*
X66721429Y-58908557D02*
X66721429Y-58008557D01*
X66721429Y-58008557D02*
X66635715Y-58137128D01*
X66635715Y-58137128D02*
X66550000Y-58222842D01*
X66550000Y-58222842D02*
X66464286Y-58265700D01*
X67835715Y-58908557D02*
X67321429Y-58908557D01*
X67578572Y-58908557D02*
X67578572Y-58008557D01*
X67578572Y-58008557D02*
X67492858Y-58137128D01*
X67492858Y-58137128D02*
X67407143Y-58222842D01*
X67407143Y-58222842D02*
X67321429Y-58265700D01*
X68392858Y-58008557D02*
X68478572Y-58008557D01*
X68478572Y-58008557D02*
X68564286Y-58051414D01*
X68564286Y-58051414D02*
X68607144Y-58094271D01*
X68607144Y-58094271D02*
X68650001Y-58179985D01*
X68650001Y-58179985D02*
X68692858Y-58351414D01*
X68692858Y-58351414D02*
X68692858Y-58565700D01*
X68692858Y-58565700D02*
X68650001Y-58737128D01*
X68650001Y-58737128D02*
X68607144Y-58822842D01*
X68607144Y-58822842D02*
X68564286Y-58865700D01*
X68564286Y-58865700D02*
X68478572Y-58908557D01*
X68478572Y-58908557D02*
X68392858Y-58908557D01*
X68392858Y-58908557D02*
X68307144Y-58865700D01*
X68307144Y-58865700D02*
X68264286Y-58822842D01*
X68264286Y-58822842D02*
X68221429Y-58737128D01*
X68221429Y-58737128D02*
X68178572Y-58565700D01*
X68178572Y-58565700D02*
X68178572Y-58351414D01*
X68178572Y-58351414D02*
X68221429Y-58179985D01*
X68221429Y-58179985D02*
X68264286Y-58094271D01*
X68264286Y-58094271D02*
X68307144Y-58051414D01*
X68307144Y-58051414D02*
X68392858Y-58008557D01*
X52140476Y-66100390D02*
X52064286Y-66062295D01*
X52064286Y-66062295D02*
X51950000Y-66062295D01*
X51950000Y-66062295D02*
X51835714Y-66100390D01*
X51835714Y-66100390D02*
X51759524Y-66176580D01*
X51759524Y-66176580D02*
X51721429Y-66252771D01*
X51721429Y-66252771D02*
X51683333Y-66405152D01*
X51683333Y-66405152D02*
X51683333Y-66519438D01*
X51683333Y-66519438D02*
X51721429Y-66671819D01*
X51721429Y-66671819D02*
X51759524Y-66748009D01*
X51759524Y-66748009D02*
X51835714Y-66824200D01*
X51835714Y-66824200D02*
X51950000Y-66862295D01*
X51950000Y-66862295D02*
X52026191Y-66862295D01*
X52026191Y-66862295D02*
X52140476Y-66824200D01*
X52140476Y-66824200D02*
X52178572Y-66786104D01*
X52178572Y-66786104D02*
X52178572Y-66519438D01*
X52178572Y-66519438D02*
X52026191Y-66519438D01*
X52521429Y-66862295D02*
X52521429Y-66062295D01*
X52521429Y-66062295D02*
X52978572Y-66862295D01*
X52978572Y-66862295D02*
X52978572Y-66062295D01*
X53359524Y-66862295D02*
X53359524Y-66062295D01*
X53359524Y-66062295D02*
X53550000Y-66062295D01*
X53550000Y-66062295D02*
X53664286Y-66100390D01*
X53664286Y-66100390D02*
X53740476Y-66176580D01*
X53740476Y-66176580D02*
X53778571Y-66252771D01*
X53778571Y-66252771D02*
X53816667Y-66405152D01*
X53816667Y-66405152D02*
X53816667Y-66519438D01*
X53816667Y-66519438D02*
X53778571Y-66671819D01*
X53778571Y-66671819D02*
X53740476Y-66748009D01*
X53740476Y-66748009D02*
X53664286Y-66824200D01*
X53664286Y-66824200D02*
X53550000Y-66862295D01*
X53550000Y-66862295D02*
X53359524Y-66862295D01*
X51410588Y-92517438D02*
X51315350Y-92469819D01*
X51315350Y-92469819D02*
X51172493Y-92469819D01*
X51172493Y-92469819D02*
X51029636Y-92517438D01*
X51029636Y-92517438D02*
X50934398Y-92612676D01*
X50934398Y-92612676D02*
X50886779Y-92707914D01*
X50886779Y-92707914D02*
X50839160Y-92898390D01*
X50839160Y-92898390D02*
X50839160Y-93041247D01*
X50839160Y-93041247D02*
X50886779Y-93231723D01*
X50886779Y-93231723D02*
X50934398Y-93326961D01*
X50934398Y-93326961D02*
X51029636Y-93422200D01*
X51029636Y-93422200D02*
X51172493Y-93469819D01*
X51172493Y-93469819D02*
X51267731Y-93469819D01*
X51267731Y-93469819D02*
X51410588Y-93422200D01*
X51410588Y-93422200D02*
X51458207Y-93374580D01*
X51458207Y-93374580D02*
X51458207Y-93041247D01*
X51458207Y-93041247D02*
X51267731Y-93041247D01*
X51886779Y-93469819D02*
X51886779Y-92469819D01*
X51886779Y-92469819D02*
X52458207Y-93469819D01*
X52458207Y-93469819D02*
X52458207Y-92469819D01*
X52934398Y-93469819D02*
X52934398Y-92469819D01*
X52934398Y-92469819D02*
X53172493Y-92469819D01*
X53172493Y-92469819D02*
X53315350Y-92517438D01*
X53315350Y-92517438D02*
X53410588Y-92612676D01*
X53410588Y-92612676D02*
X53458207Y-92707914D01*
X53458207Y-92707914D02*
X53505826Y-92898390D01*
X53505826Y-92898390D02*
X53505826Y-93041247D01*
X53505826Y-93041247D02*
X53458207Y-93231723D01*
X53458207Y-93231723D02*
X53410588Y-93326961D01*
X53410588Y-93326961D02*
X53315350Y-93422200D01*
X53315350Y-93422200D02*
X53172493Y-93469819D01*
X53172493Y-93469819D02*
X52934398Y-93469819D01*
X105151160Y-51822104D02*
X105627350Y-51822104D01*
X105055922Y-52107819D02*
X105389255Y-51107819D01*
X105389255Y-51107819D02*
X105722588Y-52107819D01*
X105960684Y-51107819D02*
X106579731Y-51107819D01*
X106579731Y-51107819D02*
X106246398Y-51488771D01*
X106246398Y-51488771D02*
X106389255Y-51488771D01*
X106389255Y-51488771D02*
X106484493Y-51536390D01*
X106484493Y-51536390D02*
X106532112Y-51584009D01*
X106532112Y-51584009D02*
X106579731Y-51679247D01*
X106579731Y-51679247D02*
X106579731Y-51917342D01*
X106579731Y-51917342D02*
X106532112Y-52012580D01*
X106532112Y-52012580D02*
X106484493Y-52060200D01*
X106484493Y-52060200D02*
X106389255Y-52107819D01*
X106389255Y-52107819D02*
X106103541Y-52107819D01*
X106103541Y-52107819D02*
X106008303Y-52060200D01*
X106008303Y-52060200D02*
X105960684Y-52012580D01*
X50616667Y-69362295D02*
X50616667Y-68562295D01*
X50616667Y-68562295D02*
X50807143Y-68562295D01*
X50807143Y-68562295D02*
X50921429Y-68600390D01*
X50921429Y-68600390D02*
X50997619Y-68676580D01*
X50997619Y-68676580D02*
X51035714Y-68752771D01*
X51035714Y-68752771D02*
X51073810Y-68905152D01*
X51073810Y-68905152D02*
X51073810Y-69019438D01*
X51073810Y-69019438D02*
X51035714Y-69171819D01*
X51035714Y-69171819D02*
X50997619Y-69248009D01*
X50997619Y-69248009D02*
X50921429Y-69324200D01*
X50921429Y-69324200D02*
X50807143Y-69362295D01*
X50807143Y-69362295D02*
X50616667Y-69362295D01*
X51416667Y-68943247D02*
X51683333Y-68943247D01*
X51797619Y-69362295D02*
X51416667Y-69362295D01*
X51416667Y-69362295D02*
X51416667Y-68562295D01*
X51416667Y-68562295D02*
X51797619Y-68562295D01*
X52521429Y-69362295D02*
X52140477Y-69362295D01*
X52140477Y-69362295D02*
X52140477Y-68562295D01*
X52750000Y-69133723D02*
X53130953Y-69133723D01*
X52673810Y-69362295D02*
X52940477Y-68562295D01*
X52940477Y-68562295D02*
X53207143Y-69362295D01*
X53626191Y-68981342D02*
X53626191Y-69362295D01*
X53359524Y-68562295D02*
X53626191Y-68981342D01*
X53626191Y-68981342D02*
X53892857Y-68562295D01*
X105151160Y-62060200D02*
X105294017Y-62107819D01*
X105294017Y-62107819D02*
X105532112Y-62107819D01*
X105532112Y-62107819D02*
X105627350Y-62060200D01*
X105627350Y-62060200D02*
X105674969Y-62012580D01*
X105674969Y-62012580D02*
X105722588Y-61917342D01*
X105722588Y-61917342D02*
X105722588Y-61822104D01*
X105722588Y-61822104D02*
X105674969Y-61726866D01*
X105674969Y-61726866D02*
X105627350Y-61679247D01*
X105627350Y-61679247D02*
X105532112Y-61631628D01*
X105532112Y-61631628D02*
X105341636Y-61584009D01*
X105341636Y-61584009D02*
X105246398Y-61536390D01*
X105246398Y-61536390D02*
X105198779Y-61488771D01*
X105198779Y-61488771D02*
X105151160Y-61393533D01*
X105151160Y-61393533D02*
X105151160Y-61298295D01*
X105151160Y-61298295D02*
X105198779Y-61203057D01*
X105198779Y-61203057D02*
X105246398Y-61155438D01*
X105246398Y-61155438D02*
X105341636Y-61107819D01*
X105341636Y-61107819D02*
X105579731Y-61107819D01*
X105579731Y-61107819D02*
X105722588Y-61155438D01*
X106151160Y-62107819D02*
X106151160Y-61107819D01*
X106151160Y-61107819D02*
X106389255Y-61107819D01*
X106389255Y-61107819D02*
X106532112Y-61155438D01*
X106532112Y-61155438D02*
X106627350Y-61250676D01*
X106627350Y-61250676D02*
X106674969Y-61345914D01*
X106674969Y-61345914D02*
X106722588Y-61536390D01*
X106722588Y-61536390D02*
X106722588Y-61679247D01*
X106722588Y-61679247D02*
X106674969Y-61869723D01*
X106674969Y-61869723D02*
X106627350Y-61964961D01*
X106627350Y-61964961D02*
X106532112Y-62060200D01*
X106532112Y-62060200D02*
X106389255Y-62107819D01*
X106389255Y-62107819D02*
X106151160Y-62107819D01*
X107103541Y-61822104D02*
X107579731Y-61822104D01*
X107008303Y-62107819D02*
X107341636Y-61107819D01*
X107341636Y-61107819D02*
X107674969Y-62107819D01*
X103266667Y-86807200D02*
X103409524Y-86854819D01*
X103409524Y-86854819D02*
X103647619Y-86854819D01*
X103647619Y-86854819D02*
X103742857Y-86807200D01*
X103742857Y-86807200D02*
X103790476Y-86759580D01*
X103790476Y-86759580D02*
X103838095Y-86664342D01*
X103838095Y-86664342D02*
X103838095Y-86569104D01*
X103838095Y-86569104D02*
X103790476Y-86473866D01*
X103790476Y-86473866D02*
X103742857Y-86426247D01*
X103742857Y-86426247D02*
X103647619Y-86378628D01*
X103647619Y-86378628D02*
X103457143Y-86331009D01*
X103457143Y-86331009D02*
X103361905Y-86283390D01*
X103361905Y-86283390D02*
X103314286Y-86235771D01*
X103314286Y-86235771D02*
X103266667Y-86140533D01*
X103266667Y-86140533D02*
X103266667Y-86045295D01*
X103266667Y-86045295D02*
X103314286Y-85950057D01*
X103314286Y-85950057D02*
X103361905Y-85902438D01*
X103361905Y-85902438D02*
X103457143Y-85854819D01*
X103457143Y-85854819D02*
X103695238Y-85854819D01*
X103695238Y-85854819D02*
X103838095Y-85902438D01*
X104171429Y-85854819D02*
X104409524Y-86854819D01*
X104409524Y-86854819D02*
X104600000Y-86140533D01*
X104600000Y-86140533D02*
X104790476Y-86854819D01*
X104790476Y-86854819D02*
X105028572Y-85854819D01*
X105933333Y-86854819D02*
X105361905Y-86854819D01*
X105647619Y-86854819D02*
X105647619Y-85854819D01*
X105647619Y-85854819D02*
X105552381Y-85997676D01*
X105552381Y-85997676D02*
X105457143Y-86092914D01*
X105457143Y-86092914D02*
X105361905Y-86140533D01*
X96233333Y-92054819D02*
X95900000Y-91578628D01*
X95661905Y-92054819D02*
X95661905Y-91054819D01*
X95661905Y-91054819D02*
X96042857Y-91054819D01*
X96042857Y-91054819D02*
X96138095Y-91102438D01*
X96138095Y-91102438D02*
X96185714Y-91150057D01*
X96185714Y-91150057D02*
X96233333Y-91245295D01*
X96233333Y-91245295D02*
X96233333Y-91388152D01*
X96233333Y-91388152D02*
X96185714Y-91483390D01*
X96185714Y-91483390D02*
X96138095Y-91531009D01*
X96138095Y-91531009D02*
X96042857Y-91578628D01*
X96042857Y-91578628D02*
X95661905Y-91578628D01*
X97090476Y-91388152D02*
X97090476Y-92054819D01*
X96852381Y-91007200D02*
X96614286Y-91721485D01*
X96614286Y-91721485D02*
X97233333Y-91721485D01*
X98654819Y-85966666D02*
X98178628Y-86299999D01*
X98654819Y-86538094D02*
X97654819Y-86538094D01*
X97654819Y-86538094D02*
X97654819Y-86157142D01*
X97654819Y-86157142D02*
X97702438Y-86061904D01*
X97702438Y-86061904D02*
X97750057Y-86014285D01*
X97750057Y-86014285D02*
X97845295Y-85966666D01*
X97845295Y-85966666D02*
X97988152Y-85966666D01*
X97988152Y-85966666D02*
X98083390Y-86014285D01*
X98083390Y-86014285D02*
X98131009Y-86061904D01*
X98131009Y-86061904D02*
X98178628Y-86157142D01*
X98178628Y-86157142D02*
X98178628Y-86538094D01*
X97654819Y-85633332D02*
X97654819Y-85014285D01*
X97654819Y-85014285D02*
X98035771Y-85347618D01*
X98035771Y-85347618D02*
X98035771Y-85204761D01*
X98035771Y-85204761D02*
X98083390Y-85109523D01*
X98083390Y-85109523D02*
X98131009Y-85061904D01*
X98131009Y-85061904D02*
X98226247Y-85014285D01*
X98226247Y-85014285D02*
X98464342Y-85014285D01*
X98464342Y-85014285D02*
X98559580Y-85061904D01*
X98559580Y-85061904D02*
X98607200Y-85109523D01*
X98607200Y-85109523D02*
X98654819Y-85204761D01*
X98654819Y-85204761D02*
X98654819Y-85490475D01*
X98654819Y-85490475D02*
X98607200Y-85585713D01*
X98607200Y-85585713D02*
X98559580Y-85633332D01*
X28238095Y-71407200D02*
X28380952Y-71454819D01*
X28380952Y-71454819D02*
X28619047Y-71454819D01*
X28619047Y-71454819D02*
X28714285Y-71407200D01*
X28714285Y-71407200D02*
X28761904Y-71359580D01*
X28761904Y-71359580D02*
X28809523Y-71264342D01*
X28809523Y-71264342D02*
X28809523Y-71169104D01*
X28809523Y-71169104D02*
X28761904Y-71073866D01*
X28761904Y-71073866D02*
X28714285Y-71026247D01*
X28714285Y-71026247D02*
X28619047Y-70978628D01*
X28619047Y-70978628D02*
X28428571Y-70931009D01*
X28428571Y-70931009D02*
X28333333Y-70883390D01*
X28333333Y-70883390D02*
X28285714Y-70835771D01*
X28285714Y-70835771D02*
X28238095Y-70740533D01*
X28238095Y-70740533D02*
X28238095Y-70645295D01*
X28238095Y-70645295D02*
X28285714Y-70550057D01*
X28285714Y-70550057D02*
X28333333Y-70502438D01*
X28333333Y-70502438D02*
X28428571Y-70454819D01*
X28428571Y-70454819D02*
X28666666Y-70454819D01*
X28666666Y-70454819D02*
X28809523Y-70502438D01*
X29190476Y-70550057D02*
X29238095Y-70502438D01*
X29238095Y-70502438D02*
X29333333Y-70454819D01*
X29333333Y-70454819D02*
X29571428Y-70454819D01*
X29571428Y-70454819D02*
X29666666Y-70502438D01*
X29666666Y-70502438D02*
X29714285Y-70550057D01*
X29714285Y-70550057D02*
X29761904Y-70645295D01*
X29761904Y-70645295D02*
X29761904Y-70740533D01*
X29761904Y-70740533D02*
X29714285Y-70883390D01*
X29714285Y-70883390D02*
X29142857Y-71454819D01*
X29142857Y-71454819D02*
X29761904Y-71454819D01*
X60238095Y-58454819D02*
X60238095Y-59264342D01*
X60238095Y-59264342D02*
X60285714Y-59359580D01*
X60285714Y-59359580D02*
X60333333Y-59407200D01*
X60333333Y-59407200D02*
X60428571Y-59454819D01*
X60428571Y-59454819D02*
X60619047Y-59454819D01*
X60619047Y-59454819D02*
X60714285Y-59407200D01*
X60714285Y-59407200D02*
X60761904Y-59359580D01*
X60761904Y-59359580D02*
X60809523Y-59264342D01*
X60809523Y-59264342D02*
X60809523Y-58454819D01*
X61809523Y-59454819D02*
X61238095Y-59454819D01*
X61523809Y-59454819D02*
X61523809Y-58454819D01*
X61523809Y-58454819D02*
X61428571Y-58597676D01*
X61428571Y-58597676D02*
X61333333Y-58692914D01*
X61333333Y-58692914D02*
X61238095Y-58740533D01*
X70357142Y-74704819D02*
X70023809Y-74228628D01*
X69785714Y-74704819D02*
X69785714Y-73704819D01*
X69785714Y-73704819D02*
X70166666Y-73704819D01*
X70166666Y-73704819D02*
X70261904Y-73752438D01*
X70261904Y-73752438D02*
X70309523Y-73800057D01*
X70309523Y-73800057D02*
X70357142Y-73895295D01*
X70357142Y-73895295D02*
X70357142Y-74038152D01*
X70357142Y-74038152D02*
X70309523Y-74133390D01*
X70309523Y-74133390D02*
X70261904Y-74181009D01*
X70261904Y-74181009D02*
X70166666Y-74228628D01*
X70166666Y-74228628D02*
X69785714Y-74228628D01*
X71309523Y-74704819D02*
X70738095Y-74704819D01*
X71023809Y-74704819D02*
X71023809Y-73704819D01*
X71023809Y-73704819D02*
X70928571Y-73847676D01*
X70928571Y-73847676D02*
X70833333Y-73942914D01*
X70833333Y-73942914D02*
X70738095Y-73990533D01*
X71785714Y-74704819D02*
X71976190Y-74704819D01*
X71976190Y-74704819D02*
X72071428Y-74657200D01*
X72071428Y-74657200D02*
X72119047Y-74609580D01*
X72119047Y-74609580D02*
X72214285Y-74466723D01*
X72214285Y-74466723D02*
X72261904Y-74276247D01*
X72261904Y-74276247D02*
X72261904Y-73895295D01*
X72261904Y-73895295D02*
X72214285Y-73800057D01*
X72214285Y-73800057D02*
X72166666Y-73752438D01*
X72166666Y-73752438D02*
X72071428Y-73704819D01*
X72071428Y-73704819D02*
X71880952Y-73704819D01*
X71880952Y-73704819D02*
X71785714Y-73752438D01*
X71785714Y-73752438D02*
X71738095Y-73800057D01*
X71738095Y-73800057D02*
X71690476Y-73895295D01*
X71690476Y-73895295D02*
X71690476Y-74133390D01*
X71690476Y-74133390D02*
X71738095Y-74228628D01*
X71738095Y-74228628D02*
X71785714Y-74276247D01*
X71785714Y-74276247D02*
X71880952Y-74323866D01*
X71880952Y-74323866D02*
X72071428Y-74323866D01*
X72071428Y-74323866D02*
X72166666Y-74276247D01*
X72166666Y-74276247D02*
X72214285Y-74228628D01*
X72214285Y-74228628D02*
X72261904Y-74133390D01*
X54011905Y-25704819D02*
X54011905Y-24704819D01*
X54011905Y-24704819D02*
X54250000Y-24704819D01*
X54250000Y-24704819D02*
X54392857Y-24752438D01*
X54392857Y-24752438D02*
X54488095Y-24847676D01*
X54488095Y-24847676D02*
X54535714Y-24942914D01*
X54535714Y-24942914D02*
X54583333Y-25133390D01*
X54583333Y-25133390D02*
X54583333Y-25276247D01*
X54583333Y-25276247D02*
X54535714Y-25466723D01*
X54535714Y-25466723D02*
X54488095Y-25561961D01*
X54488095Y-25561961D02*
X54392857Y-25657200D01*
X54392857Y-25657200D02*
X54250000Y-25704819D01*
X54250000Y-25704819D02*
X54011905Y-25704819D01*
X55535714Y-25704819D02*
X54964286Y-25704819D01*
X55250000Y-25704819D02*
X55250000Y-24704819D01*
X55250000Y-24704819D02*
X55154762Y-24847676D01*
X55154762Y-24847676D02*
X55059524Y-24942914D01*
X55059524Y-24942914D02*
X54964286Y-24990533D01*
X75833333Y-45704819D02*
X75500000Y-45228628D01*
X75261905Y-45704819D02*
X75261905Y-44704819D01*
X75261905Y-44704819D02*
X75642857Y-44704819D01*
X75642857Y-44704819D02*
X75738095Y-44752438D01*
X75738095Y-44752438D02*
X75785714Y-44800057D01*
X75785714Y-44800057D02*
X75833333Y-44895295D01*
X75833333Y-44895295D02*
X75833333Y-45038152D01*
X75833333Y-45038152D02*
X75785714Y-45133390D01*
X75785714Y-45133390D02*
X75738095Y-45181009D01*
X75738095Y-45181009D02*
X75642857Y-45228628D01*
X75642857Y-45228628D02*
X75261905Y-45228628D01*
X76690476Y-44704819D02*
X76500000Y-44704819D01*
X76500000Y-44704819D02*
X76404762Y-44752438D01*
X76404762Y-44752438D02*
X76357143Y-44800057D01*
X76357143Y-44800057D02*
X76261905Y-44942914D01*
X76261905Y-44942914D02*
X76214286Y-45133390D01*
X76214286Y-45133390D02*
X76214286Y-45514342D01*
X76214286Y-45514342D02*
X76261905Y-45609580D01*
X76261905Y-45609580D02*
X76309524Y-45657200D01*
X76309524Y-45657200D02*
X76404762Y-45704819D01*
X76404762Y-45704819D02*
X76595238Y-45704819D01*
X76595238Y-45704819D02*
X76690476Y-45657200D01*
X76690476Y-45657200D02*
X76738095Y-45609580D01*
X76738095Y-45609580D02*
X76785714Y-45514342D01*
X76785714Y-45514342D02*
X76785714Y-45276247D01*
X76785714Y-45276247D02*
X76738095Y-45181009D01*
X76738095Y-45181009D02*
X76690476Y-45133390D01*
X76690476Y-45133390D02*
X76595238Y-45085771D01*
X76595238Y-45085771D02*
X76404762Y-45085771D01*
X76404762Y-45085771D02*
X76309524Y-45133390D01*
X76309524Y-45133390D02*
X76261905Y-45181009D01*
X76261905Y-45181009D02*
X76214286Y-45276247D01*
X40966666Y-82079819D02*
X40966666Y-82794104D01*
X40966666Y-82794104D02*
X40919047Y-82936961D01*
X40919047Y-82936961D02*
X40823809Y-83032200D01*
X40823809Y-83032200D02*
X40680952Y-83079819D01*
X40680952Y-83079819D02*
X40585714Y-83079819D01*
X41395238Y-82175057D02*
X41442857Y-82127438D01*
X41442857Y-82127438D02*
X41538095Y-82079819D01*
X41538095Y-82079819D02*
X41776190Y-82079819D01*
X41776190Y-82079819D02*
X41871428Y-82127438D01*
X41871428Y-82127438D02*
X41919047Y-82175057D01*
X41919047Y-82175057D02*
X41966666Y-82270295D01*
X41966666Y-82270295D02*
X41966666Y-82365533D01*
X41966666Y-82365533D02*
X41919047Y-82508390D01*
X41919047Y-82508390D02*
X41347619Y-83079819D01*
X41347619Y-83079819D02*
X41966666Y-83079819D01*
X34479819Y-74377857D02*
X34003628Y-74711190D01*
X34479819Y-74949285D02*
X33479819Y-74949285D01*
X33479819Y-74949285D02*
X33479819Y-74568333D01*
X33479819Y-74568333D02*
X33527438Y-74473095D01*
X33527438Y-74473095D02*
X33575057Y-74425476D01*
X33575057Y-74425476D02*
X33670295Y-74377857D01*
X33670295Y-74377857D02*
X33813152Y-74377857D01*
X33813152Y-74377857D02*
X33908390Y-74425476D01*
X33908390Y-74425476D02*
X33956009Y-74473095D01*
X33956009Y-74473095D02*
X34003628Y-74568333D01*
X34003628Y-74568333D02*
X34003628Y-74949285D01*
X34479819Y-73425476D02*
X34479819Y-73996904D01*
X34479819Y-73711190D02*
X33479819Y-73711190D01*
X33479819Y-73711190D02*
X33622676Y-73806428D01*
X33622676Y-73806428D02*
X33717914Y-73901666D01*
X33717914Y-73901666D02*
X33765533Y-73996904D01*
X33813152Y-72568333D02*
X34479819Y-72568333D01*
X33432200Y-72806428D02*
X34146485Y-73044523D01*
X34146485Y-73044523D02*
X34146485Y-72425476D01*
X88571666Y-79394819D02*
X88571666Y-80109104D01*
X88571666Y-80109104D02*
X88524047Y-80251961D01*
X88524047Y-80251961D02*
X88428809Y-80347200D01*
X88428809Y-80347200D02*
X88285952Y-80394819D01*
X88285952Y-80394819D02*
X88190714Y-80394819D01*
X89571666Y-80394819D02*
X89000238Y-80394819D01*
X89285952Y-80394819D02*
X89285952Y-79394819D01*
X89285952Y-79394819D02*
X89190714Y-79537676D01*
X89190714Y-79537676D02*
X89095476Y-79632914D01*
X89095476Y-79632914D02*
X89000238Y-79680533D01*
X40621300Y-67251348D02*
X40621300Y-68062689D01*
X40621300Y-68062689D02*
X40669026Y-68158141D01*
X40669026Y-68158141D02*
X40716752Y-68205867D01*
X40716752Y-68205867D02*
X40812204Y-68253592D01*
X40812204Y-68253592D02*
X41003107Y-68253592D01*
X41003107Y-68253592D02*
X41098559Y-68205867D01*
X41098559Y-68205867D02*
X41146285Y-68158141D01*
X41146285Y-68158141D02*
X41194011Y-68062689D01*
X41194011Y-68062689D02*
X41194011Y-67251348D01*
X41814448Y-67680882D02*
X41718996Y-67633156D01*
X41718996Y-67633156D02*
X41671270Y-67585430D01*
X41671270Y-67585430D02*
X41623544Y-67489978D01*
X41623544Y-67489978D02*
X41623544Y-67442252D01*
X41623544Y-67442252D02*
X41671270Y-67346800D01*
X41671270Y-67346800D02*
X41718996Y-67299074D01*
X41718996Y-67299074D02*
X41814448Y-67251348D01*
X41814448Y-67251348D02*
X42005351Y-67251348D01*
X42005351Y-67251348D02*
X42100803Y-67299074D01*
X42100803Y-67299074D02*
X42148529Y-67346800D01*
X42148529Y-67346800D02*
X42196255Y-67442252D01*
X42196255Y-67442252D02*
X42196255Y-67489978D01*
X42196255Y-67489978D02*
X42148529Y-67585430D01*
X42148529Y-67585430D02*
X42100803Y-67633156D01*
X42100803Y-67633156D02*
X42005351Y-67680882D01*
X42005351Y-67680882D02*
X41814448Y-67680882D01*
X41814448Y-67680882D02*
X41718996Y-67728607D01*
X41718996Y-67728607D02*
X41671270Y-67776333D01*
X41671270Y-67776333D02*
X41623544Y-67871785D01*
X41623544Y-67871785D02*
X41623544Y-68062689D01*
X41623544Y-68062689D02*
X41671270Y-68158141D01*
X41671270Y-68158141D02*
X41718996Y-68205867D01*
X41718996Y-68205867D02*
X41814448Y-68253592D01*
X41814448Y-68253592D02*
X42005351Y-68253592D01*
X42005351Y-68253592D02*
X42100803Y-68205867D01*
X42100803Y-68205867D02*
X42148529Y-68158141D01*
X42148529Y-68158141D02*
X42196255Y-68062689D01*
X42196255Y-68062689D02*
X42196255Y-67871785D01*
X42196255Y-67871785D02*
X42148529Y-67776333D01*
X42148529Y-67776333D02*
X42100803Y-67728607D01*
X42100803Y-67728607D02*
X42005351Y-67680882D01*
X47583333Y-67359580D02*
X47535714Y-67407200D01*
X47535714Y-67407200D02*
X47392857Y-67454819D01*
X47392857Y-67454819D02*
X47297619Y-67454819D01*
X47297619Y-67454819D02*
X47154762Y-67407200D01*
X47154762Y-67407200D02*
X47059524Y-67311961D01*
X47059524Y-67311961D02*
X47011905Y-67216723D01*
X47011905Y-67216723D02*
X46964286Y-67026247D01*
X46964286Y-67026247D02*
X46964286Y-66883390D01*
X46964286Y-66883390D02*
X47011905Y-66692914D01*
X47011905Y-66692914D02*
X47059524Y-66597676D01*
X47059524Y-66597676D02*
X47154762Y-66502438D01*
X47154762Y-66502438D02*
X47297619Y-66454819D01*
X47297619Y-66454819D02*
X47392857Y-66454819D01*
X47392857Y-66454819D02*
X47535714Y-66502438D01*
X47535714Y-66502438D02*
X47583333Y-66550057D01*
X47964286Y-66550057D02*
X48011905Y-66502438D01*
X48011905Y-66502438D02*
X48107143Y-66454819D01*
X48107143Y-66454819D02*
X48345238Y-66454819D01*
X48345238Y-66454819D02*
X48440476Y-66502438D01*
X48440476Y-66502438D02*
X48488095Y-66550057D01*
X48488095Y-66550057D02*
X48535714Y-66645295D01*
X48535714Y-66645295D02*
X48535714Y-66740533D01*
X48535714Y-66740533D02*
X48488095Y-66883390D01*
X48488095Y-66883390D02*
X47916667Y-67454819D01*
X47916667Y-67454819D02*
X48535714Y-67454819D01*
X69254819Y-69042857D02*
X68778628Y-69376190D01*
X69254819Y-69614285D02*
X68254819Y-69614285D01*
X68254819Y-69614285D02*
X68254819Y-69233333D01*
X68254819Y-69233333D02*
X68302438Y-69138095D01*
X68302438Y-69138095D02*
X68350057Y-69090476D01*
X68350057Y-69090476D02*
X68445295Y-69042857D01*
X68445295Y-69042857D02*
X68588152Y-69042857D01*
X68588152Y-69042857D02*
X68683390Y-69090476D01*
X68683390Y-69090476D02*
X68731009Y-69138095D01*
X68731009Y-69138095D02*
X68778628Y-69233333D01*
X68778628Y-69233333D02*
X68778628Y-69614285D01*
X68350057Y-68661904D02*
X68302438Y-68614285D01*
X68302438Y-68614285D02*
X68254819Y-68519047D01*
X68254819Y-68519047D02*
X68254819Y-68280952D01*
X68254819Y-68280952D02*
X68302438Y-68185714D01*
X68302438Y-68185714D02*
X68350057Y-68138095D01*
X68350057Y-68138095D02*
X68445295Y-68090476D01*
X68445295Y-68090476D02*
X68540533Y-68090476D01*
X68540533Y-68090476D02*
X68683390Y-68138095D01*
X68683390Y-68138095D02*
X69254819Y-68709523D01*
X69254819Y-68709523D02*
X69254819Y-68090476D01*
X68254819Y-67471428D02*
X68254819Y-67376190D01*
X68254819Y-67376190D02*
X68302438Y-67280952D01*
X68302438Y-67280952D02*
X68350057Y-67233333D01*
X68350057Y-67233333D02*
X68445295Y-67185714D01*
X68445295Y-67185714D02*
X68635771Y-67138095D01*
X68635771Y-67138095D02*
X68873866Y-67138095D01*
X68873866Y-67138095D02*
X69064342Y-67185714D01*
X69064342Y-67185714D02*
X69159580Y-67233333D01*
X69159580Y-67233333D02*
X69207200Y-67280952D01*
X69207200Y-67280952D02*
X69254819Y-67376190D01*
X69254819Y-67376190D02*
X69254819Y-67471428D01*
X69254819Y-67471428D02*
X69207200Y-67566666D01*
X69207200Y-67566666D02*
X69159580Y-67614285D01*
X69159580Y-67614285D02*
X69064342Y-67661904D01*
X69064342Y-67661904D02*
X68873866Y-67709523D01*
X68873866Y-67709523D02*
X68635771Y-67709523D01*
X68635771Y-67709523D02*
X68445295Y-67661904D01*
X68445295Y-67661904D02*
X68350057Y-67614285D01*
X68350057Y-67614285D02*
X68302438Y-67566666D01*
X68302438Y-67566666D02*
X68254819Y-67471428D01*
X89966904Y-77345180D02*
X89966904Y-76535657D01*
X89966904Y-76535657D02*
X89919285Y-76440419D01*
X89919285Y-76440419D02*
X89871666Y-76392800D01*
X89871666Y-76392800D02*
X89776428Y-76345180D01*
X89776428Y-76345180D02*
X89585952Y-76345180D01*
X89585952Y-76345180D02*
X89490714Y-76392800D01*
X89490714Y-76392800D02*
X89443095Y-76440419D01*
X89443095Y-76440419D02*
X89395476Y-76535657D01*
X89395476Y-76535657D02*
X89395476Y-77345180D01*
X89014523Y-77345180D02*
X88347857Y-77345180D01*
X88347857Y-77345180D02*
X88776428Y-76345180D01*
X79094819Y-57895238D02*
X78094819Y-57895238D01*
X79047200Y-57895238D02*
X79094819Y-57990476D01*
X79094819Y-57990476D02*
X79094819Y-58180952D01*
X79094819Y-58180952D02*
X79047200Y-58276190D01*
X79047200Y-58276190D02*
X78999580Y-58323809D01*
X78999580Y-58323809D02*
X78904342Y-58371428D01*
X78904342Y-58371428D02*
X78618628Y-58371428D01*
X78618628Y-58371428D02*
X78523390Y-58323809D01*
X78523390Y-58323809D02*
X78475771Y-58276190D01*
X78475771Y-58276190D02*
X78428152Y-58180952D01*
X78428152Y-58180952D02*
X78428152Y-57990476D01*
X78428152Y-57990476D02*
X78475771Y-57895238D01*
X79047200Y-57466666D02*
X79094819Y-57371428D01*
X79094819Y-57371428D02*
X79094819Y-57180952D01*
X79094819Y-57180952D02*
X79047200Y-57085714D01*
X79047200Y-57085714D02*
X78951961Y-57038095D01*
X78951961Y-57038095D02*
X78904342Y-57038095D01*
X78904342Y-57038095D02*
X78809104Y-57085714D01*
X78809104Y-57085714D02*
X78761485Y-57180952D01*
X78761485Y-57180952D02*
X78761485Y-57323809D01*
X78761485Y-57323809D02*
X78713866Y-57419047D01*
X78713866Y-57419047D02*
X78618628Y-57466666D01*
X78618628Y-57466666D02*
X78571009Y-57466666D01*
X78571009Y-57466666D02*
X78475771Y-57419047D01*
X78475771Y-57419047D02*
X78428152Y-57323809D01*
X78428152Y-57323809D02*
X78428152Y-57180952D01*
X78428152Y-57180952D02*
X78475771Y-57085714D01*
X78094819Y-56704761D02*
X78094819Y-56085714D01*
X78094819Y-56085714D02*
X78475771Y-56419047D01*
X78475771Y-56419047D02*
X78475771Y-56276190D01*
X78475771Y-56276190D02*
X78523390Y-56180952D01*
X78523390Y-56180952D02*
X78571009Y-56133333D01*
X78571009Y-56133333D02*
X78666247Y-56085714D01*
X78666247Y-56085714D02*
X78904342Y-56085714D01*
X78904342Y-56085714D02*
X78999580Y-56133333D01*
X78999580Y-56133333D02*
X79047200Y-56180952D01*
X79047200Y-56180952D02*
X79094819Y-56276190D01*
X79094819Y-56276190D02*
X79094819Y-56561904D01*
X79094819Y-56561904D02*
X79047200Y-56657142D01*
X79047200Y-56657142D02*
X78999580Y-56704761D01*
X78190057Y-55704761D02*
X78142438Y-55657142D01*
X78142438Y-55657142D02*
X78094819Y-55561904D01*
X78094819Y-55561904D02*
X78094819Y-55323809D01*
X78094819Y-55323809D02*
X78142438Y-55228571D01*
X78142438Y-55228571D02*
X78190057Y-55180952D01*
X78190057Y-55180952D02*
X78285295Y-55133333D01*
X78285295Y-55133333D02*
X78380533Y-55133333D01*
X78380533Y-55133333D02*
X78523390Y-55180952D01*
X78523390Y-55180952D02*
X79094819Y-55752380D01*
X79094819Y-55752380D02*
X79094819Y-55133333D01*
X78094819Y-54799999D02*
X78094819Y-54180952D01*
X78094819Y-54180952D02*
X78475771Y-54514285D01*
X78475771Y-54514285D02*
X78475771Y-54371428D01*
X78475771Y-54371428D02*
X78523390Y-54276190D01*
X78523390Y-54276190D02*
X78571009Y-54228571D01*
X78571009Y-54228571D02*
X78666247Y-54180952D01*
X78666247Y-54180952D02*
X78904342Y-54180952D01*
X78904342Y-54180952D02*
X78999580Y-54228571D01*
X78999580Y-54228571D02*
X79047200Y-54276190D01*
X79047200Y-54276190D02*
X79094819Y-54371428D01*
X79094819Y-54371428D02*
X79094819Y-54657142D01*
X79094819Y-54657142D02*
X79047200Y-54752380D01*
X79047200Y-54752380D02*
X78999580Y-54799999D01*
X79094819Y-53228571D02*
X79094819Y-53799999D01*
X79094819Y-53514285D02*
X78094819Y-53514285D01*
X78094819Y-53514285D02*
X78237676Y-53609523D01*
X78237676Y-53609523D02*
X78332914Y-53704761D01*
X78332914Y-53704761D02*
X78380533Y-53799999D01*
X36165476Y-57854819D02*
X36165476Y-58569104D01*
X36165476Y-58569104D02*
X36117857Y-58711961D01*
X36117857Y-58711961D02*
X36022619Y-58807200D01*
X36022619Y-58807200D02*
X35879762Y-58854819D01*
X35879762Y-58854819D02*
X35784524Y-58854819D01*
X37165476Y-58854819D02*
X36594048Y-58854819D01*
X36879762Y-58854819D02*
X36879762Y-57854819D01*
X36879762Y-57854819D02*
X36784524Y-57997676D01*
X36784524Y-57997676D02*
X36689286Y-58092914D01*
X36689286Y-58092914D02*
X36594048Y-58140533D01*
X37784524Y-57854819D02*
X37879762Y-57854819D01*
X37879762Y-57854819D02*
X37975000Y-57902438D01*
X37975000Y-57902438D02*
X38022619Y-57950057D01*
X38022619Y-57950057D02*
X38070238Y-58045295D01*
X38070238Y-58045295D02*
X38117857Y-58235771D01*
X38117857Y-58235771D02*
X38117857Y-58473866D01*
X38117857Y-58473866D02*
X38070238Y-58664342D01*
X38070238Y-58664342D02*
X38022619Y-58759580D01*
X38022619Y-58759580D02*
X37975000Y-58807200D01*
X37975000Y-58807200D02*
X37879762Y-58854819D01*
X37879762Y-58854819D02*
X37784524Y-58854819D01*
X37784524Y-58854819D02*
X37689286Y-58807200D01*
X37689286Y-58807200D02*
X37641667Y-58759580D01*
X37641667Y-58759580D02*
X37594048Y-58664342D01*
X37594048Y-58664342D02*
X37546429Y-58473866D01*
X37546429Y-58473866D02*
X37546429Y-58235771D01*
X37546429Y-58235771D02*
X37594048Y-58045295D01*
X37594048Y-58045295D02*
X37641667Y-57950057D01*
X37641667Y-57950057D02*
X37689286Y-57902438D01*
X37689286Y-57902438D02*
X37784524Y-57854819D01*
X94057142Y-45074819D02*
X93723809Y-44598628D01*
X93485714Y-45074819D02*
X93485714Y-44074819D01*
X93485714Y-44074819D02*
X93866666Y-44074819D01*
X93866666Y-44074819D02*
X93961904Y-44122438D01*
X93961904Y-44122438D02*
X94009523Y-44170057D01*
X94009523Y-44170057D02*
X94057142Y-44265295D01*
X94057142Y-44265295D02*
X94057142Y-44408152D01*
X94057142Y-44408152D02*
X94009523Y-44503390D01*
X94009523Y-44503390D02*
X93961904Y-44551009D01*
X93961904Y-44551009D02*
X93866666Y-44598628D01*
X93866666Y-44598628D02*
X93485714Y-44598628D01*
X95009523Y-45074819D02*
X94438095Y-45074819D01*
X94723809Y-45074819D02*
X94723809Y-44074819D01*
X94723809Y-44074819D02*
X94628571Y-44217676D01*
X94628571Y-44217676D02*
X94533333Y-44312914D01*
X94533333Y-44312914D02*
X94438095Y-44360533D01*
X95342857Y-44074819D02*
X96009523Y-44074819D01*
X96009523Y-44074819D02*
X95580952Y-45074819D01*
X35307142Y-80204819D02*
X34973809Y-79728628D01*
X34735714Y-80204819D02*
X34735714Y-79204819D01*
X34735714Y-79204819D02*
X35116666Y-79204819D01*
X35116666Y-79204819D02*
X35211904Y-79252438D01*
X35211904Y-79252438D02*
X35259523Y-79300057D01*
X35259523Y-79300057D02*
X35307142Y-79395295D01*
X35307142Y-79395295D02*
X35307142Y-79538152D01*
X35307142Y-79538152D02*
X35259523Y-79633390D01*
X35259523Y-79633390D02*
X35211904Y-79681009D01*
X35211904Y-79681009D02*
X35116666Y-79728628D01*
X35116666Y-79728628D02*
X34735714Y-79728628D01*
X36259523Y-80204819D02*
X35688095Y-80204819D01*
X35973809Y-80204819D02*
X35973809Y-79204819D01*
X35973809Y-79204819D02*
X35878571Y-79347676D01*
X35878571Y-79347676D02*
X35783333Y-79442914D01*
X35783333Y-79442914D02*
X35688095Y-79490533D01*
X36592857Y-79204819D02*
X37211904Y-79204819D01*
X37211904Y-79204819D02*
X36878571Y-79585771D01*
X36878571Y-79585771D02*
X37021428Y-79585771D01*
X37021428Y-79585771D02*
X37116666Y-79633390D01*
X37116666Y-79633390D02*
X37164285Y-79681009D01*
X37164285Y-79681009D02*
X37211904Y-79776247D01*
X37211904Y-79776247D02*
X37211904Y-80014342D01*
X37211904Y-80014342D02*
X37164285Y-80109580D01*
X37164285Y-80109580D02*
X37116666Y-80157200D01*
X37116666Y-80157200D02*
X37021428Y-80204819D01*
X37021428Y-80204819D02*
X36735714Y-80204819D01*
X36735714Y-80204819D02*
X36640476Y-80157200D01*
X36640476Y-80157200D02*
X36592857Y-80109580D01*
X92954819Y-39392857D02*
X92478628Y-39726190D01*
X92954819Y-39964285D02*
X91954819Y-39964285D01*
X91954819Y-39964285D02*
X91954819Y-39583333D01*
X91954819Y-39583333D02*
X92002438Y-39488095D01*
X92002438Y-39488095D02*
X92050057Y-39440476D01*
X92050057Y-39440476D02*
X92145295Y-39392857D01*
X92145295Y-39392857D02*
X92288152Y-39392857D01*
X92288152Y-39392857D02*
X92383390Y-39440476D01*
X92383390Y-39440476D02*
X92431009Y-39488095D01*
X92431009Y-39488095D02*
X92478628Y-39583333D01*
X92478628Y-39583333D02*
X92478628Y-39964285D01*
X92954819Y-38440476D02*
X92954819Y-39011904D01*
X92954819Y-38726190D02*
X91954819Y-38726190D01*
X91954819Y-38726190D02*
X92097676Y-38821428D01*
X92097676Y-38821428D02*
X92192914Y-38916666D01*
X92192914Y-38916666D02*
X92240533Y-39011904D01*
X92383390Y-37869047D02*
X92335771Y-37964285D01*
X92335771Y-37964285D02*
X92288152Y-38011904D01*
X92288152Y-38011904D02*
X92192914Y-38059523D01*
X92192914Y-38059523D02*
X92145295Y-38059523D01*
X92145295Y-38059523D02*
X92050057Y-38011904D01*
X92050057Y-38011904D02*
X92002438Y-37964285D01*
X92002438Y-37964285D02*
X91954819Y-37869047D01*
X91954819Y-37869047D02*
X91954819Y-37678571D01*
X91954819Y-37678571D02*
X92002438Y-37583333D01*
X92002438Y-37583333D02*
X92050057Y-37535714D01*
X92050057Y-37535714D02*
X92145295Y-37488095D01*
X92145295Y-37488095D02*
X92192914Y-37488095D01*
X92192914Y-37488095D02*
X92288152Y-37535714D01*
X92288152Y-37535714D02*
X92335771Y-37583333D01*
X92335771Y-37583333D02*
X92383390Y-37678571D01*
X92383390Y-37678571D02*
X92383390Y-37869047D01*
X92383390Y-37869047D02*
X92431009Y-37964285D01*
X92431009Y-37964285D02*
X92478628Y-38011904D01*
X92478628Y-38011904D02*
X92573866Y-38059523D01*
X92573866Y-38059523D02*
X92764342Y-38059523D01*
X92764342Y-38059523D02*
X92859580Y-38011904D01*
X92859580Y-38011904D02*
X92907200Y-37964285D01*
X92907200Y-37964285D02*
X92954819Y-37869047D01*
X92954819Y-37869047D02*
X92954819Y-37678571D01*
X92954819Y-37678571D02*
X92907200Y-37583333D01*
X92907200Y-37583333D02*
X92859580Y-37535714D01*
X92859580Y-37535714D02*
X92764342Y-37488095D01*
X92764342Y-37488095D02*
X92573866Y-37488095D01*
X92573866Y-37488095D02*
X92478628Y-37535714D01*
X92478628Y-37535714D02*
X92431009Y-37583333D01*
X92431009Y-37583333D02*
X92383390Y-37678571D01*
X51454819Y-54333333D02*
X52169104Y-54333333D01*
X52169104Y-54333333D02*
X52311961Y-54380952D01*
X52311961Y-54380952D02*
X52407200Y-54476190D01*
X52407200Y-54476190D02*
X52454819Y-54619047D01*
X52454819Y-54619047D02*
X52454819Y-54714285D01*
X51454819Y-53428571D02*
X51454819Y-53619047D01*
X51454819Y-53619047D02*
X51502438Y-53714285D01*
X51502438Y-53714285D02*
X51550057Y-53761904D01*
X51550057Y-53761904D02*
X51692914Y-53857142D01*
X51692914Y-53857142D02*
X51883390Y-53904761D01*
X51883390Y-53904761D02*
X52264342Y-53904761D01*
X52264342Y-53904761D02*
X52359580Y-53857142D01*
X52359580Y-53857142D02*
X52407200Y-53809523D01*
X52407200Y-53809523D02*
X52454819Y-53714285D01*
X52454819Y-53714285D02*
X52454819Y-53523809D01*
X52454819Y-53523809D02*
X52407200Y-53428571D01*
X52407200Y-53428571D02*
X52359580Y-53380952D01*
X52359580Y-53380952D02*
X52264342Y-53333333D01*
X52264342Y-53333333D02*
X52026247Y-53333333D01*
X52026247Y-53333333D02*
X51931009Y-53380952D01*
X51931009Y-53380952D02*
X51883390Y-53428571D01*
X51883390Y-53428571D02*
X51835771Y-53523809D01*
X51835771Y-53523809D02*
X51835771Y-53714285D01*
X51835771Y-53714285D02*
X51883390Y-53809523D01*
X51883390Y-53809523D02*
X51931009Y-53857142D01*
X51931009Y-53857142D02*
X52026247Y-53904761D01*
X55666666Y-63184819D02*
X55666666Y-63899104D01*
X55666666Y-63899104D02*
X55619047Y-64041961D01*
X55619047Y-64041961D02*
X55523809Y-64137200D01*
X55523809Y-64137200D02*
X55380952Y-64184819D01*
X55380952Y-64184819D02*
X55285714Y-64184819D01*
X56047619Y-63184819D02*
X56666666Y-63184819D01*
X56666666Y-63184819D02*
X56333333Y-63565771D01*
X56333333Y-63565771D02*
X56476190Y-63565771D01*
X56476190Y-63565771D02*
X56571428Y-63613390D01*
X56571428Y-63613390D02*
X56619047Y-63661009D01*
X56619047Y-63661009D02*
X56666666Y-63756247D01*
X56666666Y-63756247D02*
X56666666Y-63994342D01*
X56666666Y-63994342D02*
X56619047Y-64089580D01*
X56619047Y-64089580D02*
X56571428Y-64137200D01*
X56571428Y-64137200D02*
X56476190Y-64184819D01*
X56476190Y-64184819D02*
X56190476Y-64184819D01*
X56190476Y-64184819D02*
X56095238Y-64137200D01*
X56095238Y-64137200D02*
X56047619Y-64089580D01*
X34143333Y-26054819D02*
X33810000Y-25578628D01*
X33571905Y-26054819D02*
X33571905Y-25054819D01*
X33571905Y-25054819D02*
X33952857Y-25054819D01*
X33952857Y-25054819D02*
X34048095Y-25102438D01*
X34048095Y-25102438D02*
X34095714Y-25150057D01*
X34095714Y-25150057D02*
X34143333Y-25245295D01*
X34143333Y-25245295D02*
X34143333Y-25388152D01*
X34143333Y-25388152D02*
X34095714Y-25483390D01*
X34095714Y-25483390D02*
X34048095Y-25531009D01*
X34048095Y-25531009D02*
X33952857Y-25578628D01*
X33952857Y-25578628D02*
X33571905Y-25578628D01*
X34476667Y-25054819D02*
X35143333Y-25054819D01*
X35143333Y-25054819D02*
X34714762Y-26054819D01*
X47833333Y-59954819D02*
X47500000Y-59478628D01*
X47261905Y-59954819D02*
X47261905Y-58954819D01*
X47261905Y-58954819D02*
X47642857Y-58954819D01*
X47642857Y-58954819D02*
X47738095Y-59002438D01*
X47738095Y-59002438D02*
X47785714Y-59050057D01*
X47785714Y-59050057D02*
X47833333Y-59145295D01*
X47833333Y-59145295D02*
X47833333Y-59288152D01*
X47833333Y-59288152D02*
X47785714Y-59383390D01*
X47785714Y-59383390D02*
X47738095Y-59431009D01*
X47738095Y-59431009D02*
X47642857Y-59478628D01*
X47642857Y-59478628D02*
X47261905Y-59478628D01*
X48785714Y-59954819D02*
X48214286Y-59954819D01*
X48500000Y-59954819D02*
X48500000Y-58954819D01*
X48500000Y-58954819D02*
X48404762Y-59097676D01*
X48404762Y-59097676D02*
X48309524Y-59192914D01*
X48309524Y-59192914D02*
X48214286Y-59240533D01*
X88102142Y-39029819D02*
X87768809Y-38553628D01*
X87530714Y-39029819D02*
X87530714Y-38029819D01*
X87530714Y-38029819D02*
X87911666Y-38029819D01*
X87911666Y-38029819D02*
X88006904Y-38077438D01*
X88006904Y-38077438D02*
X88054523Y-38125057D01*
X88054523Y-38125057D02*
X88102142Y-38220295D01*
X88102142Y-38220295D02*
X88102142Y-38363152D01*
X88102142Y-38363152D02*
X88054523Y-38458390D01*
X88054523Y-38458390D02*
X88006904Y-38506009D01*
X88006904Y-38506009D02*
X87911666Y-38553628D01*
X87911666Y-38553628D02*
X87530714Y-38553628D01*
X89054523Y-39029819D02*
X88483095Y-39029819D01*
X88768809Y-39029819D02*
X88768809Y-38029819D01*
X88768809Y-38029819D02*
X88673571Y-38172676D01*
X88673571Y-38172676D02*
X88578333Y-38267914D01*
X88578333Y-38267914D02*
X88483095Y-38315533D01*
X89435476Y-38125057D02*
X89483095Y-38077438D01*
X89483095Y-38077438D02*
X89578333Y-38029819D01*
X89578333Y-38029819D02*
X89816428Y-38029819D01*
X89816428Y-38029819D02*
X89911666Y-38077438D01*
X89911666Y-38077438D02*
X89959285Y-38125057D01*
X89959285Y-38125057D02*
X90006904Y-38220295D01*
X90006904Y-38220295D02*
X90006904Y-38315533D01*
X90006904Y-38315533D02*
X89959285Y-38458390D01*
X89959285Y-38458390D02*
X89387857Y-39029819D01*
X89387857Y-39029819D02*
X90006904Y-39029819D01*
X43632142Y-41429819D02*
X43298809Y-40953628D01*
X43060714Y-41429819D02*
X43060714Y-40429819D01*
X43060714Y-40429819D02*
X43441666Y-40429819D01*
X43441666Y-40429819D02*
X43536904Y-40477438D01*
X43536904Y-40477438D02*
X43584523Y-40525057D01*
X43584523Y-40525057D02*
X43632142Y-40620295D01*
X43632142Y-40620295D02*
X43632142Y-40763152D01*
X43632142Y-40763152D02*
X43584523Y-40858390D01*
X43584523Y-40858390D02*
X43536904Y-40906009D01*
X43536904Y-40906009D02*
X43441666Y-40953628D01*
X43441666Y-40953628D02*
X43060714Y-40953628D01*
X44584523Y-41429819D02*
X44013095Y-41429819D01*
X44298809Y-41429819D02*
X44298809Y-40429819D01*
X44298809Y-40429819D02*
X44203571Y-40572676D01*
X44203571Y-40572676D02*
X44108333Y-40667914D01*
X44108333Y-40667914D02*
X44013095Y-40715533D01*
X45441666Y-40429819D02*
X45251190Y-40429819D01*
X45251190Y-40429819D02*
X45155952Y-40477438D01*
X45155952Y-40477438D02*
X45108333Y-40525057D01*
X45108333Y-40525057D02*
X45013095Y-40667914D01*
X45013095Y-40667914D02*
X44965476Y-40858390D01*
X44965476Y-40858390D02*
X44965476Y-41239342D01*
X44965476Y-41239342D02*
X45013095Y-41334580D01*
X45013095Y-41334580D02*
X45060714Y-41382200D01*
X45060714Y-41382200D02*
X45155952Y-41429819D01*
X45155952Y-41429819D02*
X45346428Y-41429819D01*
X45346428Y-41429819D02*
X45441666Y-41382200D01*
X45441666Y-41382200D02*
X45489285Y-41334580D01*
X45489285Y-41334580D02*
X45536904Y-41239342D01*
X45536904Y-41239342D02*
X45536904Y-41001247D01*
X45536904Y-41001247D02*
X45489285Y-40906009D01*
X45489285Y-40906009D02*
X45441666Y-40858390D01*
X45441666Y-40858390D02*
X45346428Y-40810771D01*
X45346428Y-40810771D02*
X45155952Y-40810771D01*
X45155952Y-40810771D02*
X45060714Y-40858390D01*
X45060714Y-40858390D02*
X45013095Y-40906009D01*
X45013095Y-40906009D02*
X44965476Y-41001247D01*
X25919104Y-48214285D02*
X25919104Y-47738095D01*
X26204819Y-48309523D02*
X25204819Y-47976190D01*
X25204819Y-47976190D02*
X26204819Y-47642857D01*
X25300057Y-47357142D02*
X25252438Y-47309523D01*
X25252438Y-47309523D02*
X25204819Y-47214285D01*
X25204819Y-47214285D02*
X25204819Y-46976190D01*
X25204819Y-46976190D02*
X25252438Y-46880952D01*
X25252438Y-46880952D02*
X25300057Y-46833333D01*
X25300057Y-46833333D02*
X25395295Y-46785714D01*
X25395295Y-46785714D02*
X25490533Y-46785714D01*
X25490533Y-46785714D02*
X25633390Y-46833333D01*
X25633390Y-46833333D02*
X26204819Y-47404761D01*
X26204819Y-47404761D02*
X26204819Y-46785714D01*
X27689819Y-41263220D02*
X28499342Y-41263220D01*
X28499342Y-41263220D02*
X28594580Y-41215601D01*
X28594580Y-41215601D02*
X28642200Y-41167982D01*
X28642200Y-41167982D02*
X28689819Y-41072744D01*
X28689819Y-41072744D02*
X28689819Y-40882268D01*
X28689819Y-40882268D02*
X28642200Y-40787030D01*
X28642200Y-40787030D02*
X28594580Y-40739411D01*
X28594580Y-40739411D02*
X28499342Y-40691792D01*
X28499342Y-40691792D02*
X27689819Y-40691792D01*
X28642200Y-40263220D02*
X28689819Y-40120363D01*
X28689819Y-40120363D02*
X28689819Y-39882268D01*
X28689819Y-39882268D02*
X28642200Y-39787030D01*
X28642200Y-39787030D02*
X28594580Y-39739411D01*
X28594580Y-39739411D02*
X28499342Y-39691792D01*
X28499342Y-39691792D02*
X28404104Y-39691792D01*
X28404104Y-39691792D02*
X28308866Y-39739411D01*
X28308866Y-39739411D02*
X28261247Y-39787030D01*
X28261247Y-39787030D02*
X28213628Y-39882268D01*
X28213628Y-39882268D02*
X28166009Y-40072744D01*
X28166009Y-40072744D02*
X28118390Y-40167982D01*
X28118390Y-40167982D02*
X28070771Y-40215601D01*
X28070771Y-40215601D02*
X27975533Y-40263220D01*
X27975533Y-40263220D02*
X27880295Y-40263220D01*
X27880295Y-40263220D02*
X27785057Y-40215601D01*
X27785057Y-40215601D02*
X27737438Y-40167982D01*
X27737438Y-40167982D02*
X27689819Y-40072744D01*
X27689819Y-40072744D02*
X27689819Y-39834649D01*
X27689819Y-39834649D02*
X27737438Y-39691792D01*
X28166009Y-38929887D02*
X28213628Y-38787030D01*
X28213628Y-38787030D02*
X28261247Y-38739411D01*
X28261247Y-38739411D02*
X28356485Y-38691792D01*
X28356485Y-38691792D02*
X28499342Y-38691792D01*
X28499342Y-38691792D02*
X28594580Y-38739411D01*
X28594580Y-38739411D02*
X28642200Y-38787030D01*
X28642200Y-38787030D02*
X28689819Y-38882268D01*
X28689819Y-38882268D02*
X28689819Y-39263220D01*
X28689819Y-39263220D02*
X27689819Y-39263220D01*
X27689819Y-39263220D02*
X27689819Y-38929887D01*
X27689819Y-38929887D02*
X27737438Y-38834649D01*
X27737438Y-38834649D02*
X27785057Y-38787030D01*
X27785057Y-38787030D02*
X27880295Y-38739411D01*
X27880295Y-38739411D02*
X27975533Y-38739411D01*
X27975533Y-38739411D02*
X28070771Y-38787030D01*
X28070771Y-38787030D02*
X28118390Y-38834649D01*
X28118390Y-38834649D02*
X28166009Y-38929887D01*
X28166009Y-38929887D02*
X28166009Y-39263220D01*
X54083333Y-58204819D02*
X53750000Y-57728628D01*
X53511905Y-58204819D02*
X53511905Y-57204819D01*
X53511905Y-57204819D02*
X53892857Y-57204819D01*
X53892857Y-57204819D02*
X53988095Y-57252438D01*
X53988095Y-57252438D02*
X54035714Y-57300057D01*
X54035714Y-57300057D02*
X54083333Y-57395295D01*
X54083333Y-57395295D02*
X54083333Y-57538152D01*
X54083333Y-57538152D02*
X54035714Y-57633390D01*
X54035714Y-57633390D02*
X53988095Y-57681009D01*
X53988095Y-57681009D02*
X53892857Y-57728628D01*
X53892857Y-57728628D02*
X53511905Y-57728628D01*
X54464286Y-57300057D02*
X54511905Y-57252438D01*
X54511905Y-57252438D02*
X54607143Y-57204819D01*
X54607143Y-57204819D02*
X54845238Y-57204819D01*
X54845238Y-57204819D02*
X54940476Y-57252438D01*
X54940476Y-57252438D02*
X54988095Y-57300057D01*
X54988095Y-57300057D02*
X55035714Y-57395295D01*
X55035714Y-57395295D02*
X55035714Y-57490533D01*
X55035714Y-57490533D02*
X54988095Y-57633390D01*
X54988095Y-57633390D02*
X54416667Y-58204819D01*
X54416667Y-58204819D02*
X55035714Y-58204819D01*
X81833333Y-43954819D02*
X81500000Y-43478628D01*
X81261905Y-43954819D02*
X81261905Y-42954819D01*
X81261905Y-42954819D02*
X81642857Y-42954819D01*
X81642857Y-42954819D02*
X81738095Y-43002438D01*
X81738095Y-43002438D02*
X81785714Y-43050057D01*
X81785714Y-43050057D02*
X81833333Y-43145295D01*
X81833333Y-43145295D02*
X81833333Y-43288152D01*
X81833333Y-43288152D02*
X81785714Y-43383390D01*
X81785714Y-43383390D02*
X81738095Y-43431009D01*
X81738095Y-43431009D02*
X81642857Y-43478628D01*
X81642857Y-43478628D02*
X81261905Y-43478628D01*
X82738095Y-42954819D02*
X82261905Y-42954819D01*
X82261905Y-42954819D02*
X82214286Y-43431009D01*
X82214286Y-43431009D02*
X82261905Y-43383390D01*
X82261905Y-43383390D02*
X82357143Y-43335771D01*
X82357143Y-43335771D02*
X82595238Y-43335771D01*
X82595238Y-43335771D02*
X82690476Y-43383390D01*
X82690476Y-43383390D02*
X82738095Y-43431009D01*
X82738095Y-43431009D02*
X82785714Y-43526247D01*
X82785714Y-43526247D02*
X82785714Y-43764342D01*
X82785714Y-43764342D02*
X82738095Y-43859580D01*
X82738095Y-43859580D02*
X82690476Y-43907200D01*
X82690476Y-43907200D02*
X82595238Y-43954819D01*
X82595238Y-43954819D02*
X82357143Y-43954819D01*
X82357143Y-43954819D02*
X82261905Y-43907200D01*
X82261905Y-43907200D02*
X82214286Y-43859580D01*
X102466666Y-29854819D02*
X102466666Y-30569104D01*
X102466666Y-30569104D02*
X102419047Y-30711961D01*
X102419047Y-30711961D02*
X102323809Y-30807200D01*
X102323809Y-30807200D02*
X102180952Y-30854819D01*
X102180952Y-30854819D02*
X102085714Y-30854819D01*
X102847619Y-29854819D02*
X103514285Y-29854819D01*
X103514285Y-29854819D02*
X103085714Y-30854819D01*
X88083333Y-32454819D02*
X87750000Y-31978628D01*
X87511905Y-32454819D02*
X87511905Y-31454819D01*
X87511905Y-31454819D02*
X87892857Y-31454819D01*
X87892857Y-31454819D02*
X87988095Y-31502438D01*
X87988095Y-31502438D02*
X88035714Y-31550057D01*
X88035714Y-31550057D02*
X88083333Y-31645295D01*
X88083333Y-31645295D02*
X88083333Y-31788152D01*
X88083333Y-31788152D02*
X88035714Y-31883390D01*
X88035714Y-31883390D02*
X87988095Y-31931009D01*
X87988095Y-31931009D02*
X87892857Y-31978628D01*
X87892857Y-31978628D02*
X87511905Y-31978628D01*
X88559524Y-32454819D02*
X88750000Y-32454819D01*
X88750000Y-32454819D02*
X88845238Y-32407200D01*
X88845238Y-32407200D02*
X88892857Y-32359580D01*
X88892857Y-32359580D02*
X88988095Y-32216723D01*
X88988095Y-32216723D02*
X89035714Y-32026247D01*
X89035714Y-32026247D02*
X89035714Y-31645295D01*
X89035714Y-31645295D02*
X88988095Y-31550057D01*
X88988095Y-31550057D02*
X88940476Y-31502438D01*
X88940476Y-31502438D02*
X88845238Y-31454819D01*
X88845238Y-31454819D02*
X88654762Y-31454819D01*
X88654762Y-31454819D02*
X88559524Y-31502438D01*
X88559524Y-31502438D02*
X88511905Y-31550057D01*
X88511905Y-31550057D02*
X88464286Y-31645295D01*
X88464286Y-31645295D02*
X88464286Y-31883390D01*
X88464286Y-31883390D02*
X88511905Y-31978628D01*
X88511905Y-31978628D02*
X88559524Y-32026247D01*
X88559524Y-32026247D02*
X88654762Y-32073866D01*
X88654762Y-32073866D02*
X88845238Y-32073866D01*
X88845238Y-32073866D02*
X88940476Y-32026247D01*
X88940476Y-32026247D02*
X88988095Y-31978628D01*
X88988095Y-31978628D02*
X89035714Y-31883390D01*
X81357142Y-34704819D02*
X81023809Y-34228628D01*
X80785714Y-34704819D02*
X80785714Y-33704819D01*
X80785714Y-33704819D02*
X81166666Y-33704819D01*
X81166666Y-33704819D02*
X81261904Y-33752438D01*
X81261904Y-33752438D02*
X81309523Y-33800057D01*
X81309523Y-33800057D02*
X81357142Y-33895295D01*
X81357142Y-33895295D02*
X81357142Y-34038152D01*
X81357142Y-34038152D02*
X81309523Y-34133390D01*
X81309523Y-34133390D02*
X81261904Y-34181009D01*
X81261904Y-34181009D02*
X81166666Y-34228628D01*
X81166666Y-34228628D02*
X80785714Y-34228628D01*
X82309523Y-34704819D02*
X81738095Y-34704819D01*
X82023809Y-34704819D02*
X82023809Y-33704819D01*
X82023809Y-33704819D02*
X81928571Y-33847676D01*
X81928571Y-33847676D02*
X81833333Y-33942914D01*
X81833333Y-33942914D02*
X81738095Y-33990533D01*
X82928571Y-33704819D02*
X83023809Y-33704819D01*
X83023809Y-33704819D02*
X83119047Y-33752438D01*
X83119047Y-33752438D02*
X83166666Y-33800057D01*
X83166666Y-33800057D02*
X83214285Y-33895295D01*
X83214285Y-33895295D02*
X83261904Y-34085771D01*
X83261904Y-34085771D02*
X83261904Y-34323866D01*
X83261904Y-34323866D02*
X83214285Y-34514342D01*
X83214285Y-34514342D02*
X83166666Y-34609580D01*
X83166666Y-34609580D02*
X83119047Y-34657200D01*
X83119047Y-34657200D02*
X83023809Y-34704819D01*
X83023809Y-34704819D02*
X82928571Y-34704819D01*
X82928571Y-34704819D02*
X82833333Y-34657200D01*
X82833333Y-34657200D02*
X82785714Y-34609580D01*
X82785714Y-34609580D02*
X82738095Y-34514342D01*
X82738095Y-34514342D02*
X82690476Y-34323866D01*
X82690476Y-34323866D02*
X82690476Y-34085771D01*
X82690476Y-34085771D02*
X82738095Y-33895295D01*
X82738095Y-33895295D02*
X82785714Y-33800057D01*
X82785714Y-33800057D02*
X82833333Y-33752438D01*
X82833333Y-33752438D02*
X82928571Y-33704819D01*
X102266666Y-48854819D02*
X102266666Y-49569104D01*
X102266666Y-49569104D02*
X102219047Y-49711961D01*
X102219047Y-49711961D02*
X102123809Y-49807200D01*
X102123809Y-49807200D02*
X101980952Y-49854819D01*
X101980952Y-49854819D02*
X101885714Y-49854819D01*
X102885714Y-49283390D02*
X102790476Y-49235771D01*
X102790476Y-49235771D02*
X102742857Y-49188152D01*
X102742857Y-49188152D02*
X102695238Y-49092914D01*
X102695238Y-49092914D02*
X102695238Y-49045295D01*
X102695238Y-49045295D02*
X102742857Y-48950057D01*
X102742857Y-48950057D02*
X102790476Y-48902438D01*
X102790476Y-48902438D02*
X102885714Y-48854819D01*
X102885714Y-48854819D02*
X103076190Y-48854819D01*
X103076190Y-48854819D02*
X103171428Y-48902438D01*
X103171428Y-48902438D02*
X103219047Y-48950057D01*
X103219047Y-48950057D02*
X103266666Y-49045295D01*
X103266666Y-49045295D02*
X103266666Y-49092914D01*
X103266666Y-49092914D02*
X103219047Y-49188152D01*
X103219047Y-49188152D02*
X103171428Y-49235771D01*
X103171428Y-49235771D02*
X103076190Y-49283390D01*
X103076190Y-49283390D02*
X102885714Y-49283390D01*
X102885714Y-49283390D02*
X102790476Y-49331009D01*
X102790476Y-49331009D02*
X102742857Y-49378628D01*
X102742857Y-49378628D02*
X102695238Y-49473866D01*
X102695238Y-49473866D02*
X102695238Y-49664342D01*
X102695238Y-49664342D02*
X102742857Y-49759580D01*
X102742857Y-49759580D02*
X102790476Y-49807200D01*
X102790476Y-49807200D02*
X102885714Y-49854819D01*
X102885714Y-49854819D02*
X103076190Y-49854819D01*
X103076190Y-49854819D02*
X103171428Y-49807200D01*
X103171428Y-49807200D02*
X103219047Y-49759580D01*
X103219047Y-49759580D02*
X103266666Y-49664342D01*
X103266666Y-49664342D02*
X103266666Y-49473866D01*
X103266666Y-49473866D02*
X103219047Y-49378628D01*
X103219047Y-49378628D02*
X103171428Y-49331009D01*
X103171428Y-49331009D02*
X103076190Y-49283390D01*
X40543333Y-24104819D02*
X40210000Y-23628628D01*
X39971905Y-24104819D02*
X39971905Y-23104819D01*
X39971905Y-23104819D02*
X40352857Y-23104819D01*
X40352857Y-23104819D02*
X40448095Y-23152438D01*
X40448095Y-23152438D02*
X40495714Y-23200057D01*
X40495714Y-23200057D02*
X40543333Y-23295295D01*
X40543333Y-23295295D02*
X40543333Y-23438152D01*
X40543333Y-23438152D02*
X40495714Y-23533390D01*
X40495714Y-23533390D02*
X40448095Y-23581009D01*
X40448095Y-23581009D02*
X40352857Y-23628628D01*
X40352857Y-23628628D02*
X39971905Y-23628628D01*
X41114762Y-23533390D02*
X41019524Y-23485771D01*
X41019524Y-23485771D02*
X40971905Y-23438152D01*
X40971905Y-23438152D02*
X40924286Y-23342914D01*
X40924286Y-23342914D02*
X40924286Y-23295295D01*
X40924286Y-23295295D02*
X40971905Y-23200057D01*
X40971905Y-23200057D02*
X41019524Y-23152438D01*
X41019524Y-23152438D02*
X41114762Y-23104819D01*
X41114762Y-23104819D02*
X41305238Y-23104819D01*
X41305238Y-23104819D02*
X41400476Y-23152438D01*
X41400476Y-23152438D02*
X41448095Y-23200057D01*
X41448095Y-23200057D02*
X41495714Y-23295295D01*
X41495714Y-23295295D02*
X41495714Y-23342914D01*
X41495714Y-23342914D02*
X41448095Y-23438152D01*
X41448095Y-23438152D02*
X41400476Y-23485771D01*
X41400476Y-23485771D02*
X41305238Y-23533390D01*
X41305238Y-23533390D02*
X41114762Y-23533390D01*
X41114762Y-23533390D02*
X41019524Y-23581009D01*
X41019524Y-23581009D02*
X40971905Y-23628628D01*
X40971905Y-23628628D02*
X40924286Y-23723866D01*
X40924286Y-23723866D02*
X40924286Y-23914342D01*
X40924286Y-23914342D02*
X40971905Y-24009580D01*
X40971905Y-24009580D02*
X41019524Y-24057200D01*
X41019524Y-24057200D02*
X41114762Y-24104819D01*
X41114762Y-24104819D02*
X41305238Y-24104819D01*
X41305238Y-24104819D02*
X41400476Y-24057200D01*
X41400476Y-24057200D02*
X41448095Y-24009580D01*
X41448095Y-24009580D02*
X41495714Y-23914342D01*
X41495714Y-23914342D02*
X41495714Y-23723866D01*
X41495714Y-23723866D02*
X41448095Y-23628628D01*
X41448095Y-23628628D02*
X41400476Y-23581009D01*
X41400476Y-23581009D02*
X41305238Y-23533390D01*
X81857142Y-40954819D02*
X81523809Y-40478628D01*
X81285714Y-40954819D02*
X81285714Y-39954819D01*
X81285714Y-39954819D02*
X81666666Y-39954819D01*
X81666666Y-39954819D02*
X81761904Y-40002438D01*
X81761904Y-40002438D02*
X81809523Y-40050057D01*
X81809523Y-40050057D02*
X81857142Y-40145295D01*
X81857142Y-40145295D02*
X81857142Y-40288152D01*
X81857142Y-40288152D02*
X81809523Y-40383390D01*
X81809523Y-40383390D02*
X81761904Y-40431009D01*
X81761904Y-40431009D02*
X81666666Y-40478628D01*
X81666666Y-40478628D02*
X81285714Y-40478628D01*
X82809523Y-40954819D02*
X82238095Y-40954819D01*
X82523809Y-40954819D02*
X82523809Y-39954819D01*
X82523809Y-39954819D02*
X82428571Y-40097676D01*
X82428571Y-40097676D02*
X82333333Y-40192914D01*
X82333333Y-40192914D02*
X82238095Y-40240533D01*
X83761904Y-40954819D02*
X83190476Y-40954819D01*
X83476190Y-40954819D02*
X83476190Y-39954819D01*
X83476190Y-39954819D02*
X83380952Y-40097676D01*
X83380952Y-40097676D02*
X83285714Y-40192914D01*
X83285714Y-40192914D02*
X83190476Y-40240533D01*
X75558095Y-23504819D02*
X75558095Y-24314342D01*
X75558095Y-24314342D02*
X75605714Y-24409580D01*
X75605714Y-24409580D02*
X75653333Y-24457200D01*
X75653333Y-24457200D02*
X75748571Y-24504819D01*
X75748571Y-24504819D02*
X75939047Y-24504819D01*
X75939047Y-24504819D02*
X76034285Y-24457200D01*
X76034285Y-24457200D02*
X76081904Y-24409580D01*
X76081904Y-24409580D02*
X76129523Y-24314342D01*
X76129523Y-24314342D02*
X76129523Y-23504819D01*
X77034285Y-23838152D02*
X77034285Y-24504819D01*
X76796190Y-23457200D02*
X76558095Y-24171485D01*
X76558095Y-24171485D02*
X77177142Y-24171485D01*
X61656666Y-78894819D02*
X61656666Y-79609104D01*
X61656666Y-79609104D02*
X61609047Y-79751961D01*
X61609047Y-79751961D02*
X61513809Y-79847200D01*
X61513809Y-79847200D02*
X61370952Y-79894819D01*
X61370952Y-79894819D02*
X61275714Y-79894819D01*
X62609047Y-78894819D02*
X62132857Y-78894819D01*
X62132857Y-78894819D02*
X62085238Y-79371009D01*
X62085238Y-79371009D02*
X62132857Y-79323390D01*
X62132857Y-79323390D02*
X62228095Y-79275771D01*
X62228095Y-79275771D02*
X62466190Y-79275771D01*
X62466190Y-79275771D02*
X62561428Y-79323390D01*
X62561428Y-79323390D02*
X62609047Y-79371009D01*
X62609047Y-79371009D02*
X62656666Y-79466247D01*
X62656666Y-79466247D02*
X62656666Y-79704342D01*
X62656666Y-79704342D02*
X62609047Y-79799580D01*
X62609047Y-79799580D02*
X62561428Y-79847200D01*
X62561428Y-79847200D02*
X62466190Y-79894819D01*
X62466190Y-79894819D02*
X62228095Y-79894819D01*
X62228095Y-79894819D02*
X62132857Y-79847200D01*
X62132857Y-79847200D02*
X62085238Y-79799580D01*
X50307142Y-39704819D02*
X49973809Y-39228628D01*
X49735714Y-39704819D02*
X49735714Y-38704819D01*
X49735714Y-38704819D02*
X50116666Y-38704819D01*
X50116666Y-38704819D02*
X50211904Y-38752438D01*
X50211904Y-38752438D02*
X50259523Y-38800057D01*
X50259523Y-38800057D02*
X50307142Y-38895295D01*
X50307142Y-38895295D02*
X50307142Y-39038152D01*
X50307142Y-39038152D02*
X50259523Y-39133390D01*
X50259523Y-39133390D02*
X50211904Y-39181009D01*
X50211904Y-39181009D02*
X50116666Y-39228628D01*
X50116666Y-39228628D02*
X49735714Y-39228628D01*
X51259523Y-39704819D02*
X50688095Y-39704819D01*
X50973809Y-39704819D02*
X50973809Y-38704819D01*
X50973809Y-38704819D02*
X50878571Y-38847676D01*
X50878571Y-38847676D02*
X50783333Y-38942914D01*
X50783333Y-38942914D02*
X50688095Y-38990533D01*
X52164285Y-38704819D02*
X51688095Y-38704819D01*
X51688095Y-38704819D02*
X51640476Y-39181009D01*
X51640476Y-39181009D02*
X51688095Y-39133390D01*
X51688095Y-39133390D02*
X51783333Y-39085771D01*
X51783333Y-39085771D02*
X52021428Y-39085771D01*
X52021428Y-39085771D02*
X52116666Y-39133390D01*
X52116666Y-39133390D02*
X52164285Y-39181009D01*
X52164285Y-39181009D02*
X52211904Y-39276247D01*
X52211904Y-39276247D02*
X52211904Y-39514342D01*
X52211904Y-39514342D02*
X52164285Y-39609580D01*
X52164285Y-39609580D02*
X52116666Y-39657200D01*
X52116666Y-39657200D02*
X52021428Y-39704819D01*
X52021428Y-39704819D02*
X51783333Y-39704819D01*
X51783333Y-39704819D02*
X51688095Y-39657200D01*
X51688095Y-39657200D02*
X51640476Y-39609580D01*
D12*
%TO.C,SW1*%
X105300000Y-77950000D02*
X103800000Y-77950000D01*
X101300000Y-79200000D02*
X101300000Y-83700000D01*
X107800000Y-83700000D02*
X107800000Y-79200000D01*
X103800000Y-84950000D02*
X105300000Y-84950000D01*
%TO.C,R4*%
X96400000Y-82730000D02*
X96400000Y-83680000D01*
X97320000Y-83680000D02*
X95480000Y-83680000D01*
X95480000Y-83680000D02*
X95480000Y-87520000D01*
X97320000Y-87520000D02*
X97320000Y-83680000D01*
X95480000Y-87520000D02*
X97320000Y-87520000D01*
X96400000Y-88470000D02*
X96400000Y-87520000D01*
%TO.C,R3*%
X96922500Y-85345276D02*
X96922500Y-85854724D01*
X95877500Y-85345276D02*
X95877500Y-85854724D01*
D13*
%TO.C,S2*%
X26900000Y-69400000D02*
X26900000Y-69900000D01*
X26900000Y-69400000D02*
X27400000Y-69400000D01*
X26900000Y-81300000D02*
X26900000Y-80800000D01*
X26900000Y-81300000D02*
X27400000Y-81300000D01*
X31100000Y-69400000D02*
X30600000Y-69400000D01*
X31100000Y-69400000D02*
X31100000Y-69900000D01*
X31100000Y-81300000D02*
X30600000Y-81300000D01*
X31100000Y-81300000D02*
X31100000Y-80800000D01*
D12*
%TO.C,U1*%
X59980000Y-65102500D02*
X59980000Y-75322500D01*
X59980000Y-65102500D02*
X62640000Y-65102500D01*
X59980000Y-75322500D02*
X62640000Y-75322500D01*
X61310000Y-62502500D02*
X62640000Y-62502500D01*
X62640000Y-62502500D02*
X62640000Y-63832500D01*
X62640000Y-65102500D02*
X62640000Y-75322500D01*
X58710000Y-59832500D02*
X78010000Y-59832500D01*
X78010000Y-77832500D01*
X58710000Y-77832500D01*
X58710000Y-59832500D01*
%TO.C,R19*%
X69890000Y-66272500D02*
X69890000Y-70112500D01*
X69890000Y-70112500D02*
X71730000Y-70112500D01*
X70810000Y-65322500D02*
X70810000Y-66272500D01*
X70810000Y-71062500D02*
X70810000Y-70112500D01*
X71730000Y-66272500D02*
X69890000Y-66272500D01*
X71730000Y-70112500D02*
X71730000Y-66272500D01*
%TO.C,D1*%
X53330000Y-27045000D02*
X53330000Y-23955000D01*
X47780000Y-25500462D02*
G75*
G02*
X53330000Y-23955170I2990000J462D01*
G01*
X53330000Y-27044830D02*
G75*
G02*
X47780000Y-25499538I-2560000J1544830D01*
G01*
X53270000Y-25500000D02*
G75*
G02*
X48270000Y-25500000I-2500000J0D01*
G01*
X48270000Y-25500000D02*
G75*
G02*
X53270000Y-25500000I2500000J0D01*
G01*
%TO.C,R6*%
X79320000Y-45500000D02*
X80270000Y-45500000D01*
X80270000Y-44580000D02*
X80270000Y-46420000D01*
X80270000Y-46420000D02*
X84110000Y-46420000D01*
X84110000Y-44580000D02*
X80270000Y-44580000D01*
X84110000Y-46420000D02*
X84110000Y-44580000D01*
X85060000Y-45500000D02*
X84110000Y-45500000D01*
%TO.C,J2*%
X36200000Y-90260000D02*
X36200000Y-90900000D01*
X36200000Y-90900000D02*
X36600000Y-90900000D01*
X36440000Y-81540000D02*
X36440000Y-90660000D01*
X36440000Y-81540000D02*
X46560000Y-81540000D01*
X36440000Y-89100000D02*
X46560000Y-89100000D01*
X36440000Y-90200000D02*
X46560000Y-90200000D01*
X36440000Y-90660000D02*
X46560000Y-90660000D01*
X37452000Y-86881000D02*
X37346000Y-86988000D01*
X37718000Y-87147000D02*
X37612000Y-87254000D01*
X40388000Y-83946000D02*
X40281000Y-84053000D01*
X40654000Y-84212000D02*
X40547000Y-84319000D01*
X42742000Y-86592000D02*
X42347000Y-86988000D01*
X42993000Y-86874000D02*
X42613000Y-87254000D01*
X45388000Y-83946000D02*
X45008000Y-84326000D01*
X45654000Y-84212000D02*
X45259000Y-84608000D01*
X46560000Y-81540000D02*
X46560000Y-90660000D01*
X41180000Y-85600000D02*
G75*
G02*
X36820000Y-85600000I-2180000J0D01*
G01*
X36820000Y-85600000D02*
G75*
G02*
X41180000Y-85600000I2180000J0D01*
G01*
X46180000Y-85600000D02*
G75*
G02*
X41820000Y-85600000I-2180000J0D01*
G01*
X41820000Y-85600000D02*
G75*
G02*
X46180000Y-85600000I2180000J0D01*
G01*
%TO.C,R14*%
X35427500Y-74064724D02*
X35427500Y-73555276D01*
X36472500Y-74064724D02*
X36472500Y-73555276D01*
%TO.C,J1*%
X77200000Y-90360000D02*
X77200000Y-91100000D01*
X77200000Y-91100000D02*
X77700000Y-91100000D01*
X77440000Y-80939000D02*
X77440000Y-90860000D01*
X77440000Y-80939000D02*
X92560000Y-80939000D01*
X77440000Y-83899000D02*
X92560000Y-83899000D01*
X77440000Y-88800000D02*
X92560000Y-88800000D01*
X77440000Y-90300000D02*
X92560000Y-90300000D01*
X77440000Y-90860000D02*
X92560000Y-90860000D01*
X83773000Y-87223000D02*
X83726000Y-87269000D01*
X83966000Y-87439000D02*
X83931000Y-87474000D01*
X86070000Y-84925000D02*
X86035000Y-84961000D01*
X86275000Y-85131000D02*
X86228000Y-85177000D01*
X88773000Y-87223000D02*
X88726000Y-87269000D01*
X88966000Y-87439000D02*
X88931000Y-87474000D01*
X91070000Y-84925000D02*
X91035000Y-84961000D01*
X91275000Y-85131000D02*
X91228000Y-85177000D01*
X92560000Y-80939000D02*
X92560000Y-90860000D01*
X78464573Y-86883042D02*
G75*
G02*
X78465000Y-85516000I1535420J683041D01*
G01*
X79316958Y-84664573D02*
G75*
G02*
X80684000Y-84665000I683041J-1535420D01*
G01*
X80028805Y-87880253D02*
G75*
G02*
X79316000Y-87735000I-28806J1680254D01*
G01*
X80683318Y-87734756D02*
G75*
G02*
X80000000Y-87880000I-683318J1534756D01*
G01*
X81535427Y-85516958D02*
G75*
G02*
X81535000Y-86884000I-1535427J-683042D01*
G01*
X86680000Y-86200000D02*
G75*
G02*
X83320000Y-86200000I-1680000J0D01*
G01*
X83320000Y-86200000D02*
G75*
G02*
X86680000Y-86200000I1680000J0D01*
G01*
X91680000Y-86200000D02*
G75*
G02*
X88320000Y-86200000I-1680000J0D01*
G01*
X88320000Y-86200000D02*
G75*
G02*
X91680000Y-86200000I1680000J0D01*
G01*
D14*
%TO.C,U8*%
X38210000Y-69000000D02*
X49810000Y-69000000D01*
X38210000Y-77500000D02*
X38210000Y-69000000D01*
X49810000Y-69000000D02*
X49810000Y-77500000D01*
X49810000Y-77500000D02*
X38210000Y-77500000D01*
D15*
X37770000Y-75500000D02*
G75*
G02*
X37570000Y-75500000I-100000J0D01*
G01*
X37570000Y-75500000D02*
G75*
G02*
X37770000Y-75500000I100000J0D01*
G01*
D12*
%TO.C,C2*%
X45170000Y-63415113D02*
X46710000Y-63415113D01*
X45170000Y-63455113D02*
X46710000Y-63455113D01*
X45171000Y-63375113D02*
X46710000Y-63375113D01*
X45172000Y-63335113D02*
X46710000Y-63335113D01*
X45174000Y-63295113D02*
X46710000Y-63295113D01*
X45177000Y-63255113D02*
X46710000Y-63255113D01*
X45181000Y-63215113D02*
X46710000Y-63215113D01*
X45185000Y-63175113D02*
X46710000Y-63175113D01*
X45189000Y-63135113D02*
X46710000Y-63135113D01*
X45194000Y-63095113D02*
X46710000Y-63095113D01*
X45200000Y-63055113D02*
X46710000Y-63055113D01*
X45207000Y-63015113D02*
X46710000Y-63015113D01*
X45214000Y-62975113D02*
X46710000Y-62975113D01*
X45222000Y-62935113D02*
X46710000Y-62935113D01*
X45230000Y-62895113D02*
X46710000Y-62895113D01*
X45239000Y-62855113D02*
X46710000Y-62855113D01*
X45249000Y-62815113D02*
X46710000Y-62815113D01*
X45259000Y-62775113D02*
X46710000Y-62775113D01*
X45270000Y-62734113D02*
X46710000Y-62734113D01*
X45282000Y-62694113D02*
X46710000Y-62694113D01*
X45295000Y-62654113D02*
X46710000Y-62654113D01*
X45308000Y-62614113D02*
X46710000Y-62614113D01*
X45322000Y-62574113D02*
X46710000Y-62574113D01*
X45336000Y-62534113D02*
X46710000Y-62534113D01*
X45352000Y-62494113D02*
X46710000Y-62494113D01*
X45368000Y-62454113D02*
X46710000Y-62454113D01*
X45385000Y-62414113D02*
X46710000Y-62414113D01*
X45402000Y-62374113D02*
X46710000Y-62374113D01*
X45421000Y-62334113D02*
X46710000Y-62334113D01*
X45440000Y-62294113D02*
X46710000Y-62294113D01*
X45460000Y-62254113D02*
X46710000Y-62254113D01*
X45482000Y-62214113D02*
X46710000Y-62214113D01*
X45503000Y-62174113D02*
X46710000Y-62174113D01*
X45526000Y-62134113D02*
X46710000Y-62134113D01*
X45550000Y-62094113D02*
X46710000Y-62094113D01*
X45575000Y-62054113D02*
X46710000Y-62054113D01*
X45601000Y-62014113D02*
X46710000Y-62014113D01*
X45628000Y-61974113D02*
X46710000Y-61974113D01*
X45655000Y-61934113D02*
X46710000Y-61934113D01*
X45685000Y-61894113D02*
X46710000Y-61894113D01*
X45715000Y-61854113D02*
X46710000Y-61854113D01*
X45746000Y-61814113D02*
X46710000Y-61814113D01*
X45779000Y-61774113D02*
X46710000Y-61774113D01*
X45813000Y-61734113D02*
X46710000Y-61734113D01*
X45849000Y-61694113D02*
X46710000Y-61694113D01*
X45886000Y-61654113D02*
X46710000Y-61654113D01*
X45924000Y-61614113D02*
X46710000Y-61614113D01*
X45965000Y-61574113D02*
X46710000Y-61574113D01*
X46007000Y-61534113D02*
X46710000Y-61534113D01*
X46025000Y-66009888D02*
X46525000Y-66009888D01*
X46051000Y-61494113D02*
X46710000Y-61494113D01*
X46097000Y-61454113D02*
X46710000Y-61454113D01*
X46145000Y-61414113D02*
X49355000Y-61414113D01*
X46196000Y-61374113D02*
X49304000Y-61374113D01*
X46250000Y-61334113D02*
X49250000Y-61334113D01*
X46275000Y-66259888D02*
X46275000Y-65759888D01*
X46307000Y-61294113D02*
X49193000Y-61294113D01*
X46367000Y-61254113D02*
X49133000Y-61254113D01*
X46431000Y-61214113D02*
X49069000Y-61214113D01*
X46499000Y-61174113D02*
X49001000Y-61174113D01*
X46572000Y-61134113D02*
X48928000Y-61134113D01*
X46652000Y-61094113D02*
X48848000Y-61094113D01*
X46739000Y-61054113D02*
X48761000Y-61054113D01*
X46835000Y-61014113D02*
X48665000Y-61014113D01*
X46945000Y-60974113D02*
X48555000Y-60974113D01*
X47073000Y-60934113D02*
X48427000Y-60934113D01*
X47232000Y-60894113D02*
X48268000Y-60894113D01*
X47466000Y-60854113D02*
X48034000Y-60854113D01*
X48790000Y-61454113D02*
X49403000Y-61454113D01*
X48790000Y-61494113D02*
X49449000Y-61494113D01*
X48790000Y-61534113D02*
X49493000Y-61534113D01*
X48790000Y-61574113D02*
X49535000Y-61574113D01*
X48790000Y-61614113D02*
X49576000Y-61614113D01*
X48790000Y-61654113D02*
X49614000Y-61654113D01*
X48790000Y-61694113D02*
X49651000Y-61694113D01*
X48790000Y-61734113D02*
X49687000Y-61734113D01*
X48790000Y-61774113D02*
X49721000Y-61774113D01*
X48790000Y-61814113D02*
X49754000Y-61814113D01*
X48790000Y-61854113D02*
X49785000Y-61854113D01*
X48790000Y-61894113D02*
X49815000Y-61894113D01*
X48790000Y-61934113D02*
X49845000Y-61934113D01*
X48790000Y-61974113D02*
X49872000Y-61974113D01*
X48790000Y-62014113D02*
X49899000Y-62014113D01*
X48790000Y-62054113D02*
X49925000Y-62054113D01*
X48790000Y-62094113D02*
X49950000Y-62094113D01*
X48790000Y-62134113D02*
X49974000Y-62134113D01*
X48790000Y-62174113D02*
X49997000Y-62174113D01*
X48790000Y-62214113D02*
X50018000Y-62214113D01*
X48790000Y-62254113D02*
X50040000Y-62254113D01*
X48790000Y-62294113D02*
X50060000Y-62294113D01*
X48790000Y-62334113D02*
X50079000Y-62334113D01*
X48790000Y-62374113D02*
X50098000Y-62374113D01*
X48790000Y-62414113D02*
X50115000Y-62414113D01*
X48790000Y-62454113D02*
X50132000Y-62454113D01*
X48790000Y-62494113D02*
X50148000Y-62494113D01*
X48790000Y-62534113D02*
X50164000Y-62534113D01*
X48790000Y-62574113D02*
X50178000Y-62574113D01*
X48790000Y-62614113D02*
X50192000Y-62614113D01*
X48790000Y-62654113D02*
X50205000Y-62654113D01*
X48790000Y-62694113D02*
X50218000Y-62694113D01*
X48790000Y-62734113D02*
X50230000Y-62734113D01*
X48790000Y-62775113D02*
X50241000Y-62775113D01*
X48790000Y-62815113D02*
X50251000Y-62815113D01*
X48790000Y-62855113D02*
X50261000Y-62855113D01*
X48790000Y-62895113D02*
X50270000Y-62895113D01*
X48790000Y-62935113D02*
X50278000Y-62935113D01*
X48790000Y-62975113D02*
X50286000Y-62975113D01*
X48790000Y-63015113D02*
X50293000Y-63015113D01*
X48790000Y-63055113D02*
X50300000Y-63055113D01*
X48790000Y-63095113D02*
X50306000Y-63095113D01*
X48790000Y-63135113D02*
X50311000Y-63135113D01*
X48790000Y-63175113D02*
X50315000Y-63175113D01*
X48790000Y-63215113D02*
X50319000Y-63215113D01*
X48790000Y-63255113D02*
X50323000Y-63255113D01*
X48790000Y-63295113D02*
X50326000Y-63295113D01*
X48790000Y-63335113D02*
X50328000Y-63335113D01*
X48790000Y-63375113D02*
X50329000Y-63375113D01*
X48790000Y-63415113D02*
X50330000Y-63415113D01*
X48790000Y-63455113D02*
X50330000Y-63455113D01*
X50370000Y-63455113D02*
G75*
G02*
X45130000Y-63455113I-2620000J0D01*
G01*
X45130000Y-63455113D02*
G75*
G02*
X50370000Y-63455113I2620000J0D01*
G01*
%TO.C,R20*%
X70287500Y-68407224D02*
X70287500Y-67897776D01*
X71332500Y-68407224D02*
X71332500Y-67897776D01*
%TO.C,U7*%
X79800000Y-52600000D02*
X97600000Y-52600000D01*
X97600000Y-78000000D01*
X79800000Y-78000000D01*
X79800000Y-52600000D01*
D10*
%TO.C,J10*%
X26025000Y-53500000D02*
X26025000Y-63500000D01*
X26525000Y-64000000D02*
X29875000Y-64000000D01*
X29875000Y-53000000D02*
X26525000Y-53000000D01*
X30375000Y-52550000D02*
X30375000Y-53000000D01*
X30375000Y-52550000D02*
X41825000Y-52550000D01*
X30375000Y-64000000D02*
X30375000Y-64500000D01*
X30375000Y-64500000D02*
X41825000Y-64500000D01*
X30625000Y-53250000D02*
X31625000Y-53250000D01*
X30625000Y-63750000D02*
X31625000Y-63750000D01*
X32175000Y-53750000D02*
X32175000Y-63250000D01*
X41825000Y-52550000D02*
X41825000Y-64500000D01*
X26025000Y-53500000D02*
G75*
G02*
X26525000Y-53000000I500001J-1D01*
G01*
X26525000Y-64000000D02*
G75*
G02*
X26025000Y-63500000I0J500000D01*
G01*
X30375000Y-64000000D02*
G75*
G02*
X30625000Y-63750000I250000J0D01*
G01*
X30625000Y-53250000D02*
G75*
G02*
X30375000Y-53000000I-1J249999D01*
G01*
X31625000Y-53250000D02*
G75*
G02*
X32125000Y-53750000I-1J-500001D01*
G01*
X32125000Y-63250000D02*
G75*
G02*
X31625000Y-63750000I-500000J0D01*
G01*
D12*
%TO.C,R17*%
X93580000Y-36890000D02*
X93580000Y-40730000D01*
X93580000Y-40730000D02*
X95420000Y-40730000D01*
X94500000Y-35940000D02*
X94500000Y-36890000D01*
X94500000Y-41680000D02*
X94500000Y-40730000D01*
X95420000Y-36890000D02*
X93580000Y-36890000D01*
X95420000Y-40730000D02*
X95420000Y-36890000D01*
%TO.C,R13*%
X35080000Y-71890000D02*
X35080000Y-75730000D01*
X35080000Y-75730000D02*
X36920000Y-75730000D01*
X36000000Y-70940000D02*
X36000000Y-71890000D01*
X36000000Y-76680000D02*
X36000000Y-75730000D01*
X36920000Y-71890000D02*
X35080000Y-71890000D01*
X36920000Y-75730000D02*
X36920000Y-71890000D01*
%TO.C,R18*%
X93927500Y-39274724D02*
X93927500Y-38765276D01*
X94972500Y-39274724D02*
X94972500Y-38765276D01*
%TO.C,J6*%
X45170000Y-52170000D02*
X45170000Y-54830000D01*
X47770000Y-52170000D02*
X45170000Y-52170000D01*
X47770000Y-52170000D02*
X47770000Y-54830000D01*
X47770000Y-54830000D02*
X45170000Y-54830000D01*
X50370000Y-53500000D02*
X50370000Y-54830000D01*
X50370000Y-54830000D02*
X49040000Y-54830000D01*
%TO.C,J3*%
X54670000Y-67770000D02*
X54670000Y-75450000D01*
X54670000Y-67770000D02*
X57330000Y-67770000D01*
X54670000Y-75450000D02*
X57330000Y-75450000D01*
X56000000Y-65170000D02*
X57330000Y-65170000D01*
X57330000Y-65170000D02*
X57330000Y-66500000D01*
X57330000Y-67770000D02*
X57330000Y-75450000D01*
%TO.C,R7*%
X37740000Y-25600000D02*
X38690000Y-25600000D01*
X38690000Y-24680000D02*
X38690000Y-26520000D01*
X38690000Y-26520000D02*
X42530000Y-26520000D01*
X42530000Y-24680000D02*
X38690000Y-24680000D01*
X42530000Y-26520000D02*
X42530000Y-24680000D01*
X43480000Y-25600000D02*
X42530000Y-25600000D01*
%TO.C,R1*%
X47984724Y-56977500D02*
X47475276Y-56977500D01*
X47984724Y-58022500D02*
X47475276Y-58022500D01*
%TO.C,R12*%
X79440000Y-38500000D02*
X80390000Y-38500000D01*
X80390000Y-37580000D02*
X80390000Y-39420000D01*
X80390000Y-39420000D02*
X84230000Y-39420000D01*
X84230000Y-37580000D02*
X80390000Y-37580000D01*
X84230000Y-39420000D02*
X84230000Y-37580000D01*
X85180000Y-38500000D02*
X84230000Y-38500000D01*
%TO.C,R16*%
X43945276Y-38527500D02*
X44454724Y-38527500D01*
X43945276Y-39572500D02*
X44454724Y-39572500D01*
%TO.C,A2*%
X27190000Y-46170000D02*
X28520000Y-46170000D01*
X27190000Y-47500000D02*
X27190000Y-46170000D01*
X27220000Y-31135000D02*
X28550000Y-31135000D01*
X27220000Y-32465000D02*
X27220000Y-31135000D01*
X29790000Y-46170000D02*
X62870000Y-46170000D01*
X29790000Y-48830000D02*
X29790000Y-46170000D01*
X29790000Y-48830000D02*
X62870000Y-48830000D01*
X29820000Y-31135000D02*
X62900000Y-31135000D01*
X29820000Y-33795000D02*
X29820000Y-31135000D01*
X29820000Y-33795000D02*
X62900000Y-33795000D01*
X62870000Y-48830000D02*
X62870000Y-46170000D01*
X62900000Y-33795000D02*
X62900000Y-31135000D01*
X26610000Y-49400000D02*
X63410000Y-49400000D01*
X63410000Y-30650000D01*
X26610000Y-30650000D01*
X26610000Y-49400000D01*
X27120000Y-42800000D02*
X29420000Y-42800000D01*
X29420000Y-37400000D01*
X27120000Y-37400000D01*
X27120000Y-42800000D01*
%TO.C,R2*%
X44860000Y-57500000D02*
X45810000Y-57500000D01*
X45810000Y-56580000D02*
X45810000Y-58420000D01*
X45810000Y-58420000D02*
X49650000Y-58420000D01*
X49650000Y-56580000D02*
X45810000Y-56580000D01*
X49650000Y-58420000D02*
X49650000Y-56580000D01*
X50600000Y-57500000D02*
X49650000Y-57500000D01*
%TO.C,R5*%
X81832776Y-44977500D02*
X82342224Y-44977500D01*
X81832776Y-46022500D02*
X82342224Y-46022500D01*
%TO.C,J7*%
X101470000Y-44230000D02*
X101470000Y-31470000D01*
X104130000Y-31470000D02*
X101470000Y-31470000D01*
X104130000Y-44230000D02*
X101470000Y-44230000D01*
X104130000Y-44230000D02*
X104130000Y-31470000D01*
X104130000Y-45500000D02*
X104130000Y-46830000D01*
X104130000Y-46830000D02*
X102800000Y-46830000D01*
%TO.C,R9*%
X79440000Y-32000000D02*
X80390000Y-32000000D01*
X80390000Y-31080000D02*
X80390000Y-32920000D01*
X80390000Y-32920000D02*
X84230000Y-32920000D01*
X84230000Y-31080000D02*
X80390000Y-31080000D01*
X84230000Y-32920000D02*
X84230000Y-31080000D01*
X85180000Y-32000000D02*
X84230000Y-32000000D01*
%TO.C,R10*%
X82055276Y-31477500D02*
X82564724Y-31477500D01*
X82055276Y-32522500D02*
X82564724Y-32522500D01*
%TO.C,J8*%
X104092000Y-68148000D02*
X104092000Y-50308000D01*
X104092000Y-68148000D02*
X101432000Y-68148000D01*
X104092000Y-50308000D02*
X101432000Y-50308000D01*
X102762000Y-70748000D02*
X101432000Y-70748000D01*
X101432000Y-70748000D02*
X101432000Y-69418000D01*
X101432000Y-68148000D02*
X101432000Y-50308000D01*
%TO.C,R8*%
X40245276Y-24977500D02*
X40754724Y-24977500D01*
X40245276Y-26022500D02*
X40754724Y-26022500D01*
%TO.C,R11*%
X82090276Y-37977500D02*
X82599724Y-37977500D01*
X82090276Y-39022500D02*
X82599724Y-39022500D01*
%TO.C,U4*%
X66935000Y-22095000D02*
X66935000Y-50670000D01*
X66935000Y-50670000D02*
X94875000Y-50670000D01*
X77095000Y-22095000D02*
X66935000Y-22095000D01*
X77095000Y-22095000D02*
X94875000Y-22095000D01*
X77670000Y-22670000D02*
X77670000Y-25330000D01*
X85350000Y-22670000D02*
X77670000Y-22670000D01*
X85350000Y-22670000D02*
X85350000Y-25330000D01*
X85350000Y-25330000D02*
X77670000Y-25330000D01*
X87950000Y-24000000D02*
X87950000Y-25330000D01*
X87950000Y-25330000D02*
X86620000Y-25330000D01*
X88525000Y-22095000D02*
X98685000Y-22095000D01*
X98685000Y-22095000D02*
X98685000Y-50670000D01*
X98685000Y-50670000D02*
X94875000Y-50670000D01*
%TO.C,J5*%
X49240000Y-90360000D02*
X49240000Y-91100000D01*
X49240000Y-91100000D02*
X49740000Y-91100000D01*
X49480000Y-80939000D02*
X49480000Y-90860000D01*
X49480000Y-80939000D02*
X75000000Y-80939000D01*
X49480000Y-83899000D02*
X75000000Y-83899000D01*
X49480000Y-88800000D02*
X75000000Y-88800000D01*
X49480000Y-90300000D02*
X75000000Y-90300000D01*
X49480000Y-90860000D02*
X75000000Y-90860000D01*
X55933000Y-87223000D02*
X55886000Y-87269000D01*
X56126000Y-87439000D02*
X56091000Y-87474000D01*
X58230000Y-84925000D02*
X58195000Y-84961000D01*
X58435000Y-85131000D02*
X58388000Y-85177000D01*
X61013000Y-87223000D02*
X60966000Y-87269000D01*
X61206000Y-87439000D02*
X61171000Y-87474000D01*
X63310000Y-84925000D02*
X63275000Y-84961000D01*
X63515000Y-85131000D02*
X63468000Y-85177000D01*
X66093000Y-87223000D02*
X66046000Y-87269000D01*
X66286000Y-87439000D02*
X66251000Y-87474000D01*
X68390000Y-84925000D02*
X68355000Y-84961000D01*
X68595000Y-85131000D02*
X68548000Y-85177000D01*
X71173000Y-87223000D02*
X71126000Y-87269000D01*
X71366000Y-87439000D02*
X71331000Y-87474000D01*
X73470000Y-84925000D02*
X73435000Y-84961000D01*
X73675000Y-85131000D02*
X73628000Y-85177000D01*
X75000000Y-80939000D02*
X75000000Y-90860000D01*
X50544573Y-86883042D02*
G75*
G02*
X50545000Y-85516000I1535420J683041D01*
G01*
X51396958Y-84664573D02*
G75*
G02*
X52764000Y-84665000I683041J-1535420D01*
G01*
X52108805Y-87880253D02*
G75*
G02*
X51396000Y-87735000I-28806J1680254D01*
G01*
X52763318Y-87734756D02*
G75*
G02*
X52080000Y-87880000I-683318J1534756D01*
G01*
X53615427Y-85516958D02*
G75*
G02*
X53615000Y-86884000I-1535427J-683042D01*
G01*
X58840000Y-86200000D02*
G75*
G02*
X55480000Y-86200000I-1680000J0D01*
G01*
X55480000Y-86200000D02*
G75*
G02*
X58840000Y-86200000I1680000J0D01*
G01*
X63920000Y-86200000D02*
G75*
G02*
X60560000Y-86200000I-1680000J0D01*
G01*
X60560000Y-86200000D02*
G75*
G02*
X63920000Y-86200000I1680000J0D01*
G01*
X69000000Y-86200000D02*
G75*
G02*
X65640000Y-86200000I-1680000J0D01*
G01*
X65640000Y-86200000D02*
G75*
G02*
X69000000Y-86200000I1680000J0D01*
G01*
X74080000Y-86200000D02*
G75*
G02*
X70720000Y-86200000I-1680000J0D01*
G01*
X70720000Y-86200000D02*
G75*
G02*
X74080000Y-86200000I1680000J0D01*
G01*
%TO.C,R15*%
X41440000Y-39000000D02*
X42390000Y-39000000D01*
X42390000Y-38080000D02*
X42390000Y-39920000D01*
X42390000Y-39920000D02*
X46230000Y-39920000D01*
X46230000Y-38080000D02*
X42390000Y-38080000D01*
X46230000Y-39920000D02*
X46230000Y-38080000D01*
X47180000Y-39000000D02*
X46230000Y-39000000D01*
%TD*%
M02*
