%TF.GenerationSoftware,KiCad,Pcbnew,6.0.11-2627ca5db0~126~ubuntu22.04.1*%
%TF.CreationDate,2023-07-24T22:42:18-04:00*%
%TF.ProjectId,sweet-p,73776565-742d-4702-9e6b-696361645f70,rev?*%
%TF.SameCoordinates,Original*%
%TF.FileFunction,Copper,L2,Bot*%
%TF.FilePolarity,Positive*%
%FSLAX46Y46*%
G04 Gerber Fmt 4.6, Leading zero omitted, Abs format (unit mm)*
G04 Created by KiCad (PCBNEW 6.0.11-2627ca5db0~126~ubuntu22.04.1) date 2023-07-24 22:42:18*
%MOMM*%
%LPD*%
G01*
G04 APERTURE LIST*
G04 Aperture macros list*
%AMRoundRect*
0 Rectangle with rounded corners*
0 $1 Rounding radius*
0 $2 $3 $4 $5 $6 $7 $8 $9 X,Y pos of 4 corners*
0 Add a 4 corners polygon primitive as box body*
4,1,4,$2,$3,$4,$5,$6,$7,$8,$9,$2,$3,0*
0 Add four circle primitives for the rounded corners*
1,1,$1+$1,$2,$3*
1,1,$1+$1,$4,$5*
1,1,$1+$1,$6,$7*
1,1,$1+$1,$8,$9*
0 Add four rect primitives between the rounded corners*
20,1,$1+$1,$2,$3,$4,$5,0*
20,1,$1+$1,$4,$5,$6,$7,0*
20,1,$1+$1,$6,$7,$8,$9,0*
20,1,$1+$1,$8,$9,$2,$3,0*%
G04 Aperture macros list end*
%TA.AperFunction,ComponentPad*%
%ADD10R,1.700000X1.700000*%
%TD*%
%TA.AperFunction,ComponentPad*%
%ADD11O,1.700000X1.700000*%
%TD*%
%TA.AperFunction,ComponentPad*%
%ADD12R,2.600000X2.600000*%
%TD*%
%TA.AperFunction,ComponentPad*%
%ADD13C,2.600000*%
%TD*%
%TA.AperFunction,ComponentPad*%
%ADD14RoundRect,0.250000X-0.350000X-0.625000X0.350000X-0.625000X0.350000X0.625000X-0.350000X0.625000X0*%
%TD*%
%TA.AperFunction,ComponentPad*%
%ADD15O,1.200000X1.750000*%
%TD*%
%TA.AperFunction,SMDPad,CuDef*%
%ADD16R,1.500000X1.000000*%
%TD*%
%TA.AperFunction,SMDPad,CuDef*%
%ADD17R,1.000000X1.500000*%
%TD*%
%TA.AperFunction,ComponentPad*%
%ADD18R,1.900000X1.900000*%
%TD*%
%TA.AperFunction,ComponentPad*%
%ADD19C,1.900000*%
%TD*%
%TA.AperFunction,ComponentPad*%
%ADD20C,1.400000*%
%TD*%
%TA.AperFunction,ComponentPad*%
%ADD21O,1.400000X1.400000*%
%TD*%
%TA.AperFunction,ComponentPad*%
%ADD22C,1.800000*%
%TD*%
%TA.AperFunction,ComponentPad*%
%ADD23R,1.800000X1.800000*%
%TD*%
%TA.AperFunction,ComponentPad*%
%ADD24C,1.524000*%
%TD*%
%TA.AperFunction,ComponentPad*%
%ADD25O,1.500000X1.000000*%
%TD*%
%TA.AperFunction,ComponentPad*%
%ADD26R,1.500000X1.000000*%
%TD*%
%TA.AperFunction,ComponentPad*%
%ADD27C,2.500000*%
%TD*%
%TA.AperFunction,ComponentPad*%
%ADD28R,1.600000X1.600000*%
%TD*%
%TA.AperFunction,ComponentPad*%
%ADD29C,1.600000*%
%TD*%
%TA.AperFunction,ComponentPad*%
%ADD30R,1.850000X1.850000*%
%TD*%
%TA.AperFunction,ComponentPad*%
%ADD31C,1.850000*%
%TD*%
%TA.AperFunction,ViaPad*%
%ADD32C,0.800000*%
%TD*%
%TA.AperFunction,Conductor*%
%ADD33C,0.400000*%
%TD*%
%TA.AperFunction,Conductor*%
%ADD34C,0.250000*%
%TD*%
%TA.AperFunction,Conductor*%
%ADD35C,0.700000*%
%TD*%
G04 APERTURE END LIST*
D10*
%TO.P,J3,1,Pin_1*%
%TO.N,GND*%
X95350000Y-76200000D03*
D11*
%TO.P,J3,2,Pin_2*%
%TO.N,Net-(S1-Pad2)*%
X92810000Y-76200000D03*
%TO.P,J3,3,Pin_3*%
%TO.N,+3V3*%
X90270000Y-76200000D03*
%TO.P,J3,4,Pin_4*%
%TO.N,DONE*%
X87730000Y-76200000D03*
%TD*%
D12*
%TO.P,J5,1,Pin_1*%
%TO.N,+3V3*%
X69225000Y-92225000D03*
D13*
%TO.P,J5,2,Pin_2*%
%TO.N,ONEWIRE*%
X74225000Y-92225000D03*
%TO.P,J5,3,Pin_3*%
%TO.N,GND*%
X79225000Y-92225000D03*
%TD*%
D11*
%TO.P,J4,4,Pin_4*%
%TO.N,SDA*%
X54105000Y-76225000D03*
%TO.P,J4,3,Pin_3*%
%TO.N,SCL*%
X56645000Y-76225000D03*
%TO.P,J4,2,Pin_2*%
%TO.N,+3V3*%
X59185000Y-76225000D03*
D10*
%TO.P,J4,1,Pin_1*%
%TO.N,GND*%
X61725000Y-76225000D03*
%TD*%
D14*
%TO.P,J1,1,Pin_1*%
%TO.N,VEXT*%
X39875000Y-81900000D03*
D15*
%TO.P,J1,2,Pin_2*%
%TO.N,GND*%
X41875000Y-81900000D03*
%TD*%
D12*
%TO.P,J2,1,Pin_1*%
%TO.N,VEXT*%
X36075000Y-92225000D03*
D13*
%TO.P,J2,2,Pin_2*%
%TO.N,GND*%
X41075000Y-92225000D03*
%TD*%
D10*
%TO.P,J6,1,Pin_1*%
%TO.N,GND*%
X108725000Y-44550000D03*
D11*
%TO.P,J6,2,Pin_2*%
%TO.N,unconnected-(J6-Pad2)*%
X108725000Y-42010000D03*
%TO.P,J6,3,Pin_3*%
%TO.N,unconnected-(J6-Pad3)*%
X108725000Y-39470000D03*
%TO.P,J6,4,Pin_4*%
%TO.N,unconnected-(J6-Pad4)*%
X108725000Y-36930000D03*
%TO.P,J6,5,Pin_5*%
%TO.N,unconnected-(J6-Pad5)*%
X108725000Y-34390000D03*
%TO.P,J6,6,Pin_6*%
%TO.N,SAT_EN*%
X108725000Y-31850000D03*
%TO.P,J6,7,Pin_7*%
%TO.N,VEXT*%
X108725000Y-29310000D03*
%TO.P,J6,8,Pin_8*%
%TO.N,GND*%
X108725000Y-26770000D03*
%TD*%
D10*
%TO.P,J7,1,Pin_1*%
%TO.N,ADS_1*%
X67737500Y-56900000D03*
D11*
%TO.P,J7,2,Pin_2*%
%TO.N,ADS_2*%
X67737500Y-59440000D03*
%TO.P,J7,3,Pin_3*%
%TO.N,ADS_3*%
X67737500Y-61980000D03*
%TD*%
D10*
%TO.P,J8,1,Pin_1*%
%TO.N,unconnected-(J8-Pad1)*%
X108725000Y-61750000D03*
D11*
%TO.P,J8,2,Pin_2*%
%TO.N,RX2*%
X108725000Y-59210000D03*
%TO.P,J8,3,Pin_3*%
%TO.N,TX2*%
X108725000Y-56670000D03*
%TO.P,J8,4,Pin_4*%
%TO.N,+3V3*%
X108725000Y-54130000D03*
%TO.P,J8,5,Pin_5*%
%TO.N,unconnected-(J8-Pad5)*%
X108725000Y-51590000D03*
%TO.P,J8,6,Pin_6*%
%TO.N,GND*%
X108725000Y-49050000D03*
%TD*%
D12*
%TO.P,J9,1,Pin_1*%
%TO.N,GND*%
X47650000Y-92225000D03*
D13*
%TO.P,J9,2,Pin_2*%
%TO.N,+3V3*%
X52650000Y-92225000D03*
%TO.P,J9,3,Pin_3*%
%TO.N,RX*%
X57650000Y-92225000D03*
%TO.P,J9,4,Pin_4*%
%TO.N,TX*%
X62650000Y-92225000D03*
%TD*%
D16*
%TO.P,JP2,2,B*%
%TO.N,+3V3*%
X96850000Y-87425000D03*
%TO.P,JP2,1,A*%
%TO.N,Net-(U1-Pad4)*%
X96850000Y-88725000D03*
%TD*%
D17*
%TO.P,JP5,2,B*%
%TO.N,Net-(C2-Pad1)*%
X46150000Y-77975000D03*
%TO.P,JP5,1,A*%
%TO.N,Net-(C1-Pad1)*%
X47450000Y-77975000D03*
%TD*%
D16*
%TO.P,JP1,2,B*%
%TO.N,Net-(U1-Pad4)*%
X89550000Y-88700000D03*
%TO.P,JP1,1,A*%
%TO.N,VUSB*%
X89550000Y-87400000D03*
%TD*%
D17*
%TO.P,JP4,2,B*%
%TO.N,+3V3*%
X42875000Y-77975000D03*
%TO.P,JP4,1,A*%
%TO.N,Net-(C2-Pad1)*%
X41575000Y-77975000D03*
%TD*%
D10*
%TO.P,JP3,1,A*%
%TO.N,Net-(C2-Pad1)*%
X104225000Y-81850000D03*
D11*
%TO.P,JP3,2,B*%
%TO.N,+3V3*%
X104225000Y-79310000D03*
%TD*%
D18*
%TO.P,S2,1*%
%TO.N,Net-(C1-Pad1)*%
X27925000Y-80500000D03*
D19*
%TO.P,S2,2*%
%TO.N,VEXT*%
X27925000Y-83000000D03*
%TO.P,S2,3*%
%TO.N,unconnected-(S2-Pad3)*%
X27925000Y-85500000D03*
%TD*%
D20*
%TO.P,R15,1*%
%TO.N,Net-(R13-Pad2)*%
X65150000Y-46950000D03*
D21*
%TO.P,R15,2*%
%TO.N,GND*%
X72770000Y-46950000D03*
%TD*%
D11*
%TO.P,U1,5,DONE*%
%TO.N,DONE*%
X87740000Y-80700000D03*
%TO.P,U1,4,DRIVE*%
%TO.N,Net-(U1-Pad4)*%
X90280000Y-80700000D03*
%TO.P,U1,3,DELAY*%
%TO.N,Net-(S1-Pad2)*%
X92820000Y-80700000D03*
%TO.P,U1,2,GND*%
%TO.N,GND*%
X95360000Y-80700000D03*
D10*
%TO.P,U1,1,VDD*%
%TO.N,Net-(C2-Pad1)*%
X97900000Y-80700000D03*
%TD*%
D21*
%TO.P,R19,2*%
%TO.N,GND*%
X32375000Y-52780000D03*
D20*
%TO.P,R19,1*%
%TO.N,DONE*%
X32375000Y-60400000D03*
%TD*%
D22*
%TO.P,D1,2,A*%
%TO.N,Net-(D1-Pad2)*%
X32560000Y-77950000D03*
D23*
%TO.P,D1,1,K*%
%TO.N,GND*%
X35100000Y-77950000D03*
%TD*%
D24*
%TO.P,U6,1,GND*%
%TO.N,GND*%
X85650000Y-50112500D03*
%TO.P,U6,2,PPS*%
%TO.N,unconnected-(U6-Pad2)*%
X88150000Y-50112500D03*
%TO.P,U6,3,VIN*%
%TO.N,+3V3*%
X90650000Y-50112500D03*
%TO.P,U6,4,RXT*%
%TO.N,unconnected-(U6-Pad4)*%
X93150000Y-50112500D03*
%TO.P,U6,5,TXO*%
%TO.N,unconnected-(U6-Pad5)*%
X95650000Y-50112500D03*
%TO.P,U6,6,WAKE*%
%TO.N,unconnected-(U6-Pad6)*%
X98150000Y-50112500D03*
%TO.P,U6,7,RST*%
%TO.N,GPS_RST*%
X98150000Y-70432500D03*
%TO.P,U6,8,SDA*%
%TO.N,SDA*%
X95650000Y-70432500D03*
%TO.P,U6,9,SCL*%
%TO.N,SCL*%
X93150000Y-70432500D03*
%TO.P,U6,10,GND*%
%TO.N,GND*%
X90650000Y-70432500D03*
%TO.P,U6,11,3V*%
%TO.N,unconnected-(U6-Pad11)*%
X88150000Y-70432500D03*
%TO.P,U6,12,VIN*%
%TO.N,+3V3*%
X85650000Y-70432500D03*
%TD*%
D20*
%TO.P,R4,1*%
%TO.N,Net-(R3-Pad2)*%
X81605000Y-81300000D03*
D21*
%TO.P,R4,2*%
%TO.N,GND*%
X73985000Y-81300000D03*
%TD*%
D25*
%TO.P,U2,3,VOUT*%
%TO.N,Net-(C2-Pad1)*%
X46675000Y-83515000D03*
%TO.P,U2,2,VIN*%
%TO.N,Net-(C1-Pad1)*%
X46675000Y-82245000D03*
D26*
%TO.P,U2,1,GND*%
%TO.N,GND*%
X46675000Y-80975000D03*
%TD*%
D20*
%TO.P,R2,1*%
%TO.N,Net-(R1-Pad1)*%
X74100000Y-76625000D03*
D21*
%TO.P,R2,2*%
%TO.N,GND*%
X81720000Y-76625000D03*
%TD*%
%TO.P,R17,2*%
%TO.N,GND*%
X35225000Y-52745000D03*
D20*
%TO.P,R17,1*%
%TO.N,SAT_EN*%
X35225000Y-60365000D03*
%TD*%
%TO.P,R5,1*%
%TO.N,+3V3*%
X77295000Y-28650000D03*
D21*
%TO.P,R5,2*%
%TO.N,ONEWIRE*%
X69675000Y-28650000D03*
%TD*%
D13*
%TO.P,AE1,1,A*%
%TO.N,GND*%
X40365000Y-71890000D03*
X40365000Y-66810000D03*
X35285000Y-71890000D03*
X35285000Y-66810000D03*
D27*
%TO.P,AE1,2,Shield*%
%TO.N,Net-(AE1-Pad2)*%
X37725000Y-69425000D03*
%TD*%
D24*
%TO.P,U7,1,VIN*%
%TO.N,+3V3*%
X100885000Y-42925000D03*
%TO.P,U7,2,GND*%
%TO.N,GND*%
X100885000Y-40425000D03*
%TO.P,U7,3,SCL*%
%TO.N,SCL*%
X100885000Y-37925000D03*
%TO.P,U7,4,SDA*%
%TO.N,SDA*%
X100885000Y-35425000D03*
%TO.P,U7,5,VBAT*%
%TO.N,unconnected-(U7-Pad5)*%
X100885000Y-32925000D03*
%TO.P,U7,6,32K*%
%TO.N,unconnected-(U7-Pad6)*%
X100885000Y-30425000D03*
%TO.P,U7,7,SQW*%
%TO.N,RTC_INT*%
X100885000Y-27925000D03*
%TO.P,U7,8,RST*%
%TO.N,unconnected-(U7-Pad8)*%
X100885000Y-25425000D03*
%TD*%
D28*
%TO.P,C3,1*%
%TO.N,Net-(C2-Pad1)*%
X52146666Y-83678856D03*
D29*
%TO.P,C3,2*%
%TO.N,GND*%
X52146666Y-81178856D03*
%TD*%
D30*
%TO.P,BZ1,1*%
%TO.N,BUZZER*%
X58175000Y-33225000D03*
D31*
%TO.P,BZ1,2*%
%TO.N,GND*%
X53175000Y-33225000D03*
%TD*%
D20*
%TO.P,R13,1*%
%TO.N,VEXT*%
X65102500Y-69125000D03*
D21*
%TO.P,R13,2*%
%TO.N,Net-(R13-Pad2)*%
X72722500Y-69125000D03*
%TD*%
D11*
%TO.P,U3,12,A-*%
%TO.N,unconnected-(U3-Pad12)*%
X63272500Y-51880000D03*
%TO.P,U3,11,A0*%
%TO.N,Net-(R13-Pad2)*%
X63272500Y-54420000D03*
%TO.P,U3,10,A1*%
%TO.N,ADS_1*%
X63272500Y-56960000D03*
%TO.P,U3,9,A2*%
%TO.N,ADS_2*%
X63272500Y-59500000D03*
%TO.P,U3,8,A3*%
%TO.N,ADS_3*%
X63272500Y-62040000D03*
D10*
%TO.P,U3,7,A+*%
%TO.N,unconnected-(U3-Pad7)*%
X63272500Y-64580000D03*
D11*
%TO.P,U3,6,ALRT*%
%TO.N,unconnected-(U3-Pad6)*%
X76012500Y-51897500D03*
%TO.P,U3,5,ADDR*%
%TO.N,unconnected-(U3-Pad5)*%
X76012500Y-54437500D03*
%TO.P,U3,4,SDA*%
%TO.N,SDA*%
X76012500Y-56977500D03*
%TO.P,U3,3,SCL*%
%TO.N,SCL*%
X76012500Y-59517500D03*
%TO.P,U3,2,GND*%
%TO.N,GND*%
X76012500Y-62057500D03*
D10*
%TO.P,U3,1,VIN*%
%TO.N,+3V3*%
X76012500Y-64597500D03*
%TD*%
D20*
%TO.P,R7,1*%
%TO.N,LED*%
X43660000Y-24625000D03*
D21*
%TO.P,R7,2*%
%TO.N,Net-(D1-Pad2)*%
X36040000Y-24625000D03*
%TD*%
D20*
%TO.P,R12,1*%
%TO.N,+3V3*%
X77350000Y-36825000D03*
D21*
%TO.P,R12,2*%
%TO.N,SCL*%
X69730000Y-36825000D03*
%TD*%
D20*
%TO.P,R22,1*%
%TO.N,+3V3*%
X94875000Y-39535000D03*
D21*
%TO.P,R22,2*%
%TO.N,RTC_INT*%
X94875000Y-31915000D03*
%TD*%
D28*
%TO.P,C2,1*%
%TO.N,Net-(C2-Pad1)*%
X57535833Y-83678856D03*
D29*
%TO.P,C2,2*%
%TO.N,GND*%
X57535833Y-81178856D03*
%TD*%
D20*
%TO.P,R9,1*%
%TO.N,+3V3*%
X77360000Y-32875000D03*
D21*
%TO.P,R9,2*%
%TO.N,SDA*%
X69740000Y-32875000D03*
%TD*%
D18*
%TO.P,S1,1*%
%TO.N,Net-(R1-Pad1)*%
X70450000Y-76870000D03*
D19*
%TO.P,S1,2*%
%TO.N,Net-(S1-Pad2)*%
X70450000Y-79370000D03*
%TO.P,S1,3*%
%TO.N,Net-(R3-Pad2)*%
X70450000Y-81870000D03*
%TD*%
D10*
%TO.P,U4,4,SDA*%
%TO.N,SDA*%
X48275000Y-47375000D03*
D11*
%TO.P,U4,3,SCL*%
%TO.N,SCL*%
X45735000Y-47375000D03*
%TO.P,U4,2,3V3*%
%TO.N,+3V3*%
X43195000Y-47375000D03*
%TO.P,U4,1,GND*%
%TO.N,GND*%
X40655000Y-47375000D03*
%TD*%
D28*
%TO.P,C1,1*%
%TO.N,Net-(C1-Pad1)*%
X62925000Y-83678856D03*
D29*
%TO.P,C1,2*%
%TO.N,GND*%
X62925000Y-81178856D03*
%TD*%
%TO.P,A1,28,VBAT*%
%TO.N,unconnected-(A1-Pad28)*%
X49910000Y-22807500D03*
%TO.P,A1,27,EN*%
%TO.N,unconnected-(A1-Pad27)*%
X52450000Y-22807500D03*
%TO.P,A1,26,USB*%
%TO.N,VUSB*%
X54990000Y-22807500D03*
%TO.P,A1,25,D13*%
%TO.N,LED*%
X57530000Y-22807500D03*
%TO.P,A1,24,D12*%
%TO.N,TX2*%
X60070000Y-22807500D03*
%TO.P,A1,23,D11*%
%TO.N,RX2*%
X62610000Y-22807500D03*
%TO.P,A1,22,D10*%
%TO.N,SD_CS*%
X65150000Y-22807500D03*
%TO.P,A1,21,D9*%
%TO.N,LORA_RST*%
X67690000Y-22807500D03*
%TO.P,A1,20,D6*%
%TO.N,LORA_CS*%
X70230000Y-22807500D03*
%TO.P,A1,19,D5*%
%TO.N,ONEWIRE*%
X72770000Y-22807500D03*
%TO.P,A1,18,SCL/D21*%
%TO.N,SCL*%
X75310000Y-22807500D03*
%TO.P,A1,17,SDA/D20*%
%TO.N,SDA*%
X77850000Y-22807500D03*
%TO.P,A1,16,GND*%
%TO.N,GND*%
X77850000Y-43127500D03*
%TO.P,A1,15,TX/D1*%
%TO.N,TX*%
X75310000Y-43127500D03*
%TO.P,A1,14,RX/D0*%
%TO.N,RX*%
X72770000Y-43127500D03*
%TO.P,A1,13,MISO/D22*%
%TO.N,MISO*%
X70230000Y-43127500D03*
%TO.P,A1,12,MOSI/D23*%
%TO.N,MOSI*%
X67690000Y-43127500D03*
%TO.P,A1,11,SCK/D24*%
%TO.N,SCK*%
X65150000Y-43127500D03*
%TO.P,A1,10,A5*%
%TO.N,BUZZER*%
X62610000Y-43127500D03*
%TO.P,A1,9,A4*%
%TO.N,RTC_INT*%
X60070000Y-43127500D03*
%TO.P,A1,8,A3*%
%TO.N,DONE*%
X57530000Y-43127500D03*
%TO.P,A1,7,A2*%
%TO.N,GPS_RST*%
X54990000Y-43127500D03*
%TO.P,A1,6,A1*%
%TO.N,SAT_EN*%
X52450000Y-43127500D03*
%TO.P,A1,5,DAC0/A0*%
%TO.N,unconnected-(A1-Pad5)*%
X49910000Y-43127500D03*
%TO.P,A1,4,GND*%
%TO.N,GND*%
X47370000Y-43127500D03*
%TO.P,A1,3,AREF*%
%TO.N,unconnected-(A1-Pad3)*%
X44830000Y-43127500D03*
%TO.P,A1,2,3V3*%
%TO.N,+3V3*%
X42290000Y-43127500D03*
D28*
%TO.P,A1,1,~{RESET}*%
%TO.N,unconnected-(A1-Pad1)*%
X39750000Y-43127500D03*
%TD*%
D32*
%TO.N,RTC_INT*%
X91950000Y-36000000D03*
X91725000Y-48350000D03*
%TO.N,GND*%
X80550000Y-71500000D03*
%TO.N,+3V3*%
X43375000Y-69250000D03*
%TO.N,GPS_RST*%
X54900000Y-46825000D03*
X58700000Y-47500000D03*
X77675000Y-69100000D03*
X59750000Y-70575000D03*
X97250000Y-68525000D03*
X77400000Y-70775000D03*
%TO.N,MISO*%
X68800000Y-41475000D03*
%TO.N,MOSI*%
X67250000Y-41600000D03*
X55300000Y-35200000D03*
X56450000Y-41499500D03*
%TO.N,LORA_RST*%
X47150000Y-54550000D03*
X66225000Y-50375000D03*
X47450000Y-51875000D03*
%TO.N,MISO*%
X56375000Y-45100000D03*
X56025000Y-54550000D03*
%TO.N,MOSI*%
X67300000Y-52900000D03*
%TO.N,SD_CS*%
X44800000Y-28800000D03*
X43600000Y-36525000D03*
X65150000Y-27975000D03*
%TO.N,+3V3*%
X42275000Y-34600000D03*
%TO.N,MISO*%
X67125000Y-30200000D03*
%TO.N,SCK*%
X50900000Y-34225000D03*
X53501804Y-40050500D03*
X51175000Y-39925000D03*
X53525000Y-46050000D03*
X51550000Y-46625000D03*
X64975000Y-45475000D03*
X51650500Y-54275000D03*
%TO.N,LORA_CS*%
X68550000Y-24900000D03*
X51175000Y-41400000D03*
X70250000Y-24400000D03*
X68375000Y-40175000D03*
X50175000Y-54375000D03*
%TO.N,+3V3*%
X85672500Y-64597500D03*
%TO.N,RX2*%
X80750000Y-60325000D03*
X64025000Y-49275000D03*
X80300000Y-50075000D03*
%TO.N,SAT_EN*%
X52325000Y-27550000D03*
X99350000Y-27000000D03*
%TO.N,TX2*%
X61225000Y-54825000D03*
%TO.N,SAT_EN*%
X51900000Y-60500000D03*
X99525000Y-31450000D03*
%TO.N,RTC_INT*%
X60675000Y-48350000D03*
X94825000Y-28400000D03*
%TO.N,SCL*%
X96175000Y-30500000D03*
X77850000Y-38300000D03*
X79525000Y-30800000D03*
%TO.N,SDA*%
X97575000Y-30225000D03*
X78675000Y-30075000D03*
%TO.N,SCL*%
X75150000Y-38225000D03*
%TO.N,DONE*%
X57350000Y-50300000D03*
X34300000Y-51375000D03*
X33700000Y-57025000D03*
%TO.N,SCL*%
X46050000Y-37950000D03*
%TO.N,SDA*%
X48725000Y-31850000D03*
%TO.N,SCL*%
X69775000Y-74800000D03*
X57500000Y-74975000D03*
X70250000Y-60450000D03*
%TO.N,SDA*%
X54375000Y-74350000D03*
X68950000Y-73874500D03*
X69325000Y-57925000D03*
%TO.N,Net-(R13-Pad2)*%
X72369500Y-54425000D03*
%TO.N,SDA*%
X95725000Y-58325000D03*
%TO.N,SCL*%
X92150000Y-59475000D03*
%TO.N,DONE*%
X58800000Y-39425000D03*
X85925000Y-39425000D03*
%TO.N,SCL*%
X56550000Y-66150000D03*
X45975000Y-65025000D03*
%TO.N,SDA*%
X52675000Y-68075000D03*
X49225000Y-67800000D03*
%TO.N,TX*%
X84925000Y-74025000D03*
X81225000Y-40425000D03*
X81675000Y-74400000D03*
X75975000Y-40600500D03*
X63500000Y-95200000D03*
X84850000Y-94925000D03*
%TO.N,RX*%
X73900000Y-41300000D03*
X83900000Y-94250000D03*
X84100000Y-41325000D03*
%TO.N,Net-(C2-Pad1)*%
X97875000Y-85425000D03*
%TO.N,VUSB*%
X87925000Y-87300000D03*
X82825000Y-25550000D03*
X83000000Y-87275000D03*
X54925000Y-25950000D03*
%TO.N,RX*%
X57675000Y-94350000D03*
%TO.N,ONEWIRE*%
X72600000Y-27450000D03*
X71150000Y-28700000D03*
%TO.N,Net-(S1-Pad2)*%
X92800000Y-78625000D03*
%TO.N,+3V3*%
X101150000Y-73850000D03*
X69250000Y-88525000D03*
%TO.N,GND*%
X67925000Y-83975000D03*
X73985000Y-84015000D03*
%TO.N,+3V3*%
X90725000Y-36775000D03*
%TO.N,Net-(C1-Pad1)*%
X29950000Y-80525000D03*
X30025000Y-85125000D03*
%TO.N,VEXT*%
X31475000Y-83325000D03*
X31475000Y-81750000D03*
%TO.N,BUZZER*%
X62650000Y-33100000D03*
%TO.N,LED*%
X57550000Y-24575000D03*
%TO.N,GND*%
X40655000Y-52980000D03*
%TO.N,Net-(D1-Pad2)*%
X32550000Y-69225000D03*
X28500000Y-49075000D03*
X27800000Y-68900000D03*
X36075000Y-48875000D03*
%TO.N,Net-(C1-Pad1)*%
X60875000Y-83500000D03*
X60775000Y-79075000D03*
X48600000Y-79125000D03*
X48600000Y-82300000D03*
X48525000Y-85200000D03*
%TO.N,Net-(R13-Pad2)*%
X65205000Y-54420000D03*
%TO.N,VEXT*%
X39875000Y-86550000D03*
X65050000Y-86775000D03*
X104700000Y-29350000D03*
X104725000Y-67200000D03*
%TO.N,+3V3*%
X59575000Y-72925000D03*
%TO.N,GND*%
X67925000Y-81450000D03*
%TO.N,Net-(C2-Pad1)*%
X57375000Y-85450000D03*
X44575000Y-83600000D03*
X44425000Y-76100000D03*
%TO.N,GND*%
X50125000Y-74850000D03*
X50300000Y-80975000D03*
%TO.N,Net-(C2-Pad1)*%
X41525000Y-76100000D03*
X46125000Y-76100000D03*
%TO.N,+3V3*%
X52725000Y-88250000D03*
X60300000Y-88300000D03*
%TO.N,VEXT*%
X36350000Y-81750000D03*
%TO.N,Net-(U1-Pad4)*%
X94725000Y-88800000D03*
X91325000Y-88700000D03*
%TO.N,+3V3*%
X101300000Y-87425000D03*
X98225000Y-87400000D03*
%TO.N,GND*%
X32175000Y-32400000D03*
X32275000Y-45025000D03*
X47425000Y-33125000D03*
X40525000Y-45150000D03*
X47350000Y-45150000D03*
X40727500Y-58327500D03*
X40450000Y-74500000D03*
X40650000Y-88275000D03*
X33900000Y-87850000D03*
X77675000Y-46875000D03*
X103275000Y-40525000D03*
X103575000Y-26650000D03*
X98050000Y-44300000D03*
X98175000Y-40375000D03*
X85575000Y-44500000D03*
X85657500Y-62057500D03*
X91925000Y-62125000D03*
X95225000Y-72450000D03*
X90725000Y-72375000D03*
X78850000Y-77875000D03*
X77750000Y-79875000D03*
%TO.N,+3V3*%
X94825000Y-42925000D03*
X90725000Y-42975000D03*
X90650000Y-54250000D03*
X90350000Y-64350000D03*
X61350000Y-72925000D03*
X61325000Y-69250000D03*
X76075000Y-72925000D03*
X90175000Y-73350000D03*
X101250000Y-78025000D03*
X101250000Y-79425000D03*
%TD*%
D33*
%TO.N,SCL*%
X96175000Y-30500000D02*
X96225000Y-30500000D01*
X96225000Y-30500000D02*
X97600000Y-31875000D01*
X97600000Y-31875000D02*
X97600000Y-36975000D01*
X97600000Y-36975000D02*
X98550000Y-37925000D01*
X98550000Y-37925000D02*
X100885000Y-37925000D01*
%TO.N,SDA*%
X100885000Y-35425000D02*
X99500000Y-35425000D01*
X98600000Y-34525000D02*
X98600000Y-31250000D01*
X99500000Y-35425000D02*
X98600000Y-34525000D01*
X98600000Y-31250000D02*
X97575000Y-30225000D01*
D34*
%TO.N,RTC_INT*%
X91950000Y-48125000D02*
X91725000Y-48350000D01*
X91950000Y-36000000D02*
X91950000Y-48125000D01*
D35*
%TO.N,GND*%
X80550000Y-71500000D02*
X80525000Y-71525000D01*
X80525000Y-71525000D02*
X80525000Y-75625000D01*
X80525000Y-75625000D02*
X80720000Y-75625000D01*
X80720000Y-75625000D02*
X81720000Y-76625000D01*
%TO.N,+3V3*%
X43375000Y-69250000D02*
X42875000Y-69750000D01*
X42875000Y-69750000D02*
X42875000Y-77975000D01*
X43195000Y-47375000D02*
X43195000Y-69070000D01*
X43195000Y-69070000D02*
X43375000Y-69250000D01*
%TO.N,GND*%
X40727500Y-58327500D02*
X40365000Y-58690000D01*
X40365000Y-58690000D02*
X40365000Y-66810000D01*
D34*
%TO.N,GPS_RST*%
X59300000Y-70125000D02*
X59300000Y-66400000D01*
X59750000Y-70575000D02*
X59300000Y-70125000D01*
X98150000Y-69425000D02*
X97250000Y-68525000D01*
X98150000Y-70432500D02*
X98150000Y-69425000D01*
X59300000Y-66400000D02*
X59300000Y-48100000D01*
X59300000Y-48100000D02*
X58700000Y-47500000D01*
X77675000Y-70500000D02*
X77400000Y-70775000D01*
X77675000Y-69100000D02*
X77675000Y-70500000D01*
X54900000Y-46825000D02*
X54990000Y-46735000D01*
X54990000Y-46735000D02*
X54990000Y-43127500D01*
%TO.N,MISO*%
X68350000Y-41475000D02*
X68800000Y-41475000D01*
X67500000Y-40625000D02*
X68350000Y-41475000D01*
%TO.N,MOSI*%
X56450000Y-41499500D02*
X56175000Y-41224500D01*
X56175000Y-36075000D02*
X55300000Y-35200000D01*
X67690000Y-43127500D02*
X67690000Y-42040000D01*
X67690000Y-42040000D02*
X67250000Y-41600000D01*
X56175000Y-40100000D02*
X56175000Y-36075000D01*
X56175000Y-41224500D02*
X56175000Y-40100000D01*
%TO.N,LORA_RST*%
X66225000Y-50375000D02*
X66500000Y-50100000D01*
X66500000Y-50100000D02*
X66500000Y-30875000D01*
X66100000Y-30475000D02*
X66100000Y-24397500D01*
X66500000Y-30875000D02*
X66100000Y-30475000D01*
X66100000Y-24397500D02*
X67690000Y-22807500D01*
X47150000Y-54550000D02*
X47150000Y-52175000D01*
X47150000Y-52175000D02*
X47450000Y-51875000D01*
%TO.N,MISO*%
X56025000Y-52150000D02*
X56000000Y-52125000D01*
X56000000Y-52125000D02*
X56000000Y-45475000D01*
X56025000Y-54550000D02*
X56025000Y-52150000D01*
X56000000Y-45475000D02*
X56375000Y-45100000D01*
%TO.N,MOSI*%
X67690000Y-43127500D02*
X67690000Y-52510000D01*
X67690000Y-52510000D02*
X67300000Y-52900000D01*
%TO.N,SD_CS*%
X44000000Y-36125000D02*
X44000000Y-34175000D01*
X43600000Y-36525000D02*
X44000000Y-36125000D01*
X44000000Y-29600000D02*
X44800000Y-28800000D01*
X44000000Y-34175000D02*
X44000000Y-29600000D01*
X65150000Y-27975000D02*
X65150000Y-22807500D01*
%TO.N,MOSI*%
X67227500Y-43127500D02*
X67690000Y-43127500D01*
D35*
%TO.N,+3V3*%
X42290000Y-36185000D02*
X42290000Y-43127500D01*
X42290000Y-35510000D02*
X42290000Y-36185000D01*
X42275000Y-34600000D02*
X42275000Y-36170000D01*
X42275000Y-36170000D02*
X42290000Y-36185000D01*
D34*
%TO.N,MISO*%
X67125000Y-30200000D02*
X67500000Y-30575000D01*
X67500000Y-36950000D02*
X67500000Y-40625000D01*
X67500000Y-30575000D02*
X67500000Y-36950000D01*
%TO.N,SCK*%
X50925000Y-39300000D02*
X50875000Y-39350000D01*
X50900000Y-37375000D02*
X50925000Y-37400000D01*
X50900000Y-34225000D02*
X50900000Y-37375000D01*
X50875000Y-39350000D02*
X50875000Y-39625000D01*
X50925000Y-37400000D02*
X50925000Y-39300000D01*
X50875000Y-39625000D02*
X51175000Y-39925000D01*
X53700000Y-40248696D02*
X53700000Y-45875000D01*
X53501804Y-40050500D02*
X53700000Y-40248696D01*
X53700000Y-45875000D02*
X53525000Y-46050000D01*
X51550000Y-46625000D02*
X51550000Y-54174500D01*
X51550000Y-54174500D02*
X51650500Y-54275000D01*
X65150000Y-45300000D02*
X64975000Y-45475000D01*
X65150000Y-43127500D02*
X65150000Y-45300000D01*
X51650500Y-54275000D02*
X51625000Y-54249500D01*
%TO.N,LORA_CS*%
X51175000Y-41450000D02*
X51175000Y-41400000D01*
X68375000Y-25075000D02*
X68550000Y-24900000D01*
X68375000Y-40175000D02*
X68375000Y-25075000D01*
X70250000Y-24400000D02*
X70250000Y-22827500D01*
X70250000Y-22827500D02*
X70230000Y-22807500D01*
X50175000Y-44925000D02*
X51175000Y-43925000D01*
X50175000Y-54375000D02*
X50175000Y-44925000D01*
X51175000Y-43925000D02*
X51175000Y-41450000D01*
D35*
%TO.N,+3V3*%
X85650000Y-70432500D02*
X85650000Y-64620000D01*
X85650000Y-64620000D02*
X85672500Y-64597500D01*
D34*
%TO.N,RX2*%
X63475000Y-41700000D02*
X63825000Y-42050000D01*
X80650000Y-51775000D02*
X80650000Y-60225000D01*
X80650000Y-60225000D02*
X80750000Y-60325000D01*
X63875000Y-42100000D02*
X63875000Y-43850000D01*
X63325000Y-32175000D02*
X63475000Y-32325000D01*
X80650000Y-50425000D02*
X80650000Y-51775000D01*
X63825000Y-42050000D02*
X63875000Y-42100000D01*
X63875000Y-49125000D02*
X64025000Y-49275000D01*
X63475000Y-34550000D02*
X63475000Y-41700000D01*
X62610000Y-31460000D02*
X63325000Y-32175000D01*
X63475000Y-32325000D02*
X63475000Y-34550000D01*
X80300000Y-50075000D02*
X80650000Y-50425000D01*
X62610000Y-22807500D02*
X62610000Y-31460000D01*
X63875000Y-43850000D02*
X63875000Y-49125000D01*
%TO.N,SAT_EN*%
X51700000Y-30750000D02*
X51700000Y-28400000D01*
X51700000Y-28400000D02*
X51700000Y-28175000D01*
X51700000Y-28175000D02*
X52325000Y-27550000D01*
D33*
X99350000Y-31300000D02*
X99350000Y-27000000D01*
D34*
X52450000Y-35425000D02*
X51675000Y-34650000D01*
X52450000Y-43127500D02*
X52450000Y-35425000D01*
X51675000Y-34650000D02*
X51675000Y-30775000D01*
X51675000Y-30775000D02*
X51700000Y-30750000D01*
%TO.N,TX2*%
X61400000Y-52425000D02*
X61400000Y-42525000D01*
X60070000Y-22807500D02*
X60070000Y-41195000D01*
X60070000Y-41195000D02*
X61400000Y-42525000D01*
X61225000Y-54825000D02*
X61400000Y-54650000D01*
X61400000Y-54650000D02*
X61400000Y-52425000D01*
D33*
%TO.N,SAT_EN*%
X52450000Y-59950000D02*
X51900000Y-60500000D01*
X52450000Y-43127500D02*
X52450000Y-59950000D01*
X99525000Y-31450000D02*
X99500000Y-31450000D01*
X99500000Y-31450000D02*
X99350000Y-31300000D01*
X99525000Y-31450000D02*
X99400000Y-31325000D01*
%TO.N,RTC_INT*%
X60070000Y-47745000D02*
X60675000Y-48350000D01*
X60070000Y-43127500D02*
X60070000Y-47745000D01*
X94825000Y-28400000D02*
X94825000Y-31865000D01*
X94825000Y-31865000D02*
X94875000Y-31915000D01*
%TO.N,SCL*%
X78875000Y-31450000D02*
X78875000Y-37150000D01*
X78875000Y-37150000D02*
X78875000Y-37275000D01*
X79525000Y-30800000D02*
X78875000Y-31450000D01*
X78875000Y-37275000D02*
X77850000Y-38300000D01*
%TO.N,SDA*%
X78675000Y-28000000D02*
X78675000Y-30075000D01*
X78650000Y-27975000D02*
X78675000Y-28000000D01*
X77850000Y-22807500D02*
X77850000Y-27175000D01*
X77850000Y-27175000D02*
X78650000Y-27975000D01*
%TO.N,SCL*%
X75310000Y-22807500D02*
X75310000Y-38065000D01*
X75310000Y-38065000D02*
X75150000Y-38225000D01*
%TO.N,DONE*%
X33700000Y-51975000D02*
X34300000Y-51375000D01*
X33700000Y-57025000D02*
X33700000Y-51975000D01*
X57530000Y-50120000D02*
X57530000Y-43127500D01*
X57350000Y-50300000D02*
X57530000Y-50120000D01*
%TO.N,SCL*%
X46050000Y-37950000D02*
X46050000Y-47060000D01*
X46050000Y-47060000D02*
X45735000Y-47375000D01*
%TO.N,SDA*%
X48725000Y-31850000D02*
X48570000Y-32005000D01*
X48570000Y-47080000D02*
X48275000Y-47375000D01*
X48570000Y-32005000D02*
X48570000Y-47080000D01*
%TO.N,SCL*%
X70250000Y-60450000D02*
X70250000Y-74325000D01*
X70250000Y-74325000D02*
X69775000Y-74800000D01*
X57500000Y-74975000D02*
X57500000Y-75370000D01*
X57500000Y-75370000D02*
X56645000Y-76225000D01*
%TO.N,SDA*%
X54375000Y-74350000D02*
X54375000Y-75955000D01*
X69325000Y-73499500D02*
X68950000Y-73874500D01*
X69325000Y-57925000D02*
X69325000Y-73499500D01*
X54375000Y-75955000D02*
X54105000Y-76225000D01*
D35*
%TO.N,Net-(R13-Pad2)*%
X72450000Y-54505500D02*
X72450000Y-59100000D01*
X72369500Y-54425000D02*
X72450000Y-54505500D01*
X72722500Y-59372500D02*
X72722500Y-69125000D01*
X72450000Y-59100000D02*
X72722500Y-59372500D01*
D34*
%TO.N,SDA*%
X95650000Y-58400000D02*
X95650000Y-70432500D01*
X95725000Y-58325000D02*
X95650000Y-58400000D01*
%TO.N,SCL*%
X93150000Y-60475000D02*
X92150000Y-59475000D01*
X93150000Y-70432500D02*
X93150000Y-60475000D01*
%TO.N,DONE*%
X57530000Y-43127500D02*
X57530000Y-40695000D01*
X57530000Y-40695000D02*
X58800000Y-39425000D01*
X86800000Y-73975000D02*
X86800000Y-40300000D01*
X86800000Y-40300000D02*
X85925000Y-39425000D01*
X87720000Y-74895000D02*
X86800000Y-73975000D01*
X87720000Y-76150000D02*
X87720000Y-74895000D01*
X87740000Y-80700000D02*
X87740000Y-76170000D01*
X87740000Y-76170000D02*
X87720000Y-76150000D01*
%TO.N,SCL*%
X45735000Y-64785000D02*
X45975000Y-65025000D01*
X45735000Y-47375000D02*
X45735000Y-64785000D01*
X56550000Y-66150000D02*
X56645000Y-66245000D01*
X56645000Y-66245000D02*
X56645000Y-76225000D01*
%TO.N,SDA*%
X48275000Y-47375000D02*
X48275000Y-66850000D01*
X48275000Y-66850000D02*
X49225000Y-67800000D01*
X53075000Y-68475000D02*
X52675000Y-68075000D01*
X53075000Y-75195000D02*
X53075000Y-74225000D01*
X54105000Y-76225000D02*
X53075000Y-75195000D01*
X53075000Y-74225000D02*
X53075000Y-68475000D01*
%TO.N,TX*%
X84550000Y-74400000D02*
X84925000Y-74025000D01*
X84550000Y-75925000D02*
X84550000Y-74400000D01*
X81650000Y-74375000D02*
X81650000Y-70575000D01*
X81650000Y-40850000D02*
X81225000Y-40425000D01*
X81650000Y-70575000D02*
X81650000Y-40850000D01*
X81675000Y-74400000D02*
X81650000Y-74375000D01*
X75975000Y-40600500D02*
X75310000Y-41265500D01*
X75310000Y-41265500D02*
X75310000Y-43127500D01*
X84500000Y-90600000D02*
X84500000Y-84850000D01*
X84850000Y-94925000D02*
X84850000Y-93650000D01*
X84500000Y-84850000D02*
X84550000Y-84800000D01*
X84575000Y-93375000D02*
X84500000Y-93300000D01*
X62650000Y-92225000D02*
X62650000Y-94350000D01*
X62650000Y-94350000D02*
X63500000Y-95200000D01*
X84550000Y-84800000D02*
X84550000Y-75925000D01*
X84500000Y-93300000D02*
X84500000Y-90600000D01*
X84850000Y-93650000D02*
X84575000Y-93375000D01*
%TO.N,RX*%
X72950000Y-42250000D02*
X72900000Y-42250000D01*
X83900000Y-94250000D02*
X83900000Y-82050000D01*
X83900000Y-82050000D02*
X83900000Y-41525000D01*
X83900000Y-41525000D02*
X84100000Y-41325000D01*
X73900000Y-41300000D02*
X72950000Y-42250000D01*
X72900000Y-42250000D02*
X72770000Y-42380000D01*
X72770000Y-42380000D02*
X72770000Y-43127500D01*
D35*
%TO.N,Net-(C2-Pad1)*%
X97875000Y-85425000D02*
X97875000Y-82350000D01*
%TO.N,VUSB*%
X83025000Y-80175000D02*
X83025000Y-25750000D01*
X88025000Y-87400000D02*
X87925000Y-87300000D01*
X83025000Y-25750000D02*
X82825000Y-25550000D01*
X83025000Y-87250000D02*
X83025000Y-80175000D01*
X83000000Y-87275000D02*
X83025000Y-87250000D01*
X89550000Y-87400000D02*
X88025000Y-87400000D01*
X54925000Y-25950000D02*
X54925000Y-22872500D01*
X54925000Y-22872500D02*
X54990000Y-22807500D01*
D33*
%TO.N,RX*%
X57650000Y-92225000D02*
X57650000Y-94325000D01*
X57650000Y-94325000D02*
X57675000Y-94350000D01*
%TO.N,ONEWIRE*%
X72600000Y-27450000D02*
X72770000Y-27280000D01*
X72770000Y-27280000D02*
X72770000Y-22807500D01*
X71570000Y-38220000D02*
X71375000Y-38025000D01*
X71125000Y-30475000D02*
X71125000Y-28725000D01*
X71570000Y-57530000D02*
X71570000Y-38220000D01*
X71175000Y-57925000D02*
X71570000Y-57530000D01*
X71125000Y-28725000D02*
X71150000Y-28700000D01*
X71375000Y-38025000D02*
X71125000Y-37775000D01*
X71125000Y-37775000D02*
X71125000Y-30475000D01*
X71175000Y-70750000D02*
X71175000Y-57925000D01*
X72550000Y-90550000D02*
X72550000Y-89575000D01*
X74225000Y-92225000D02*
X72550000Y-90550000D01*
X72550000Y-89575000D02*
X72550000Y-72125000D01*
X72550000Y-72125000D02*
X71175000Y-70750000D01*
%TO.N,Net-(S1-Pad2)*%
X92800000Y-78625000D02*
X92800000Y-80680000D01*
X92800000Y-76150000D02*
X92800000Y-78625000D01*
X92800000Y-80680000D02*
X92820000Y-80700000D01*
D35*
%TO.N,+3V3*%
X101150000Y-73850000D02*
X101150000Y-77925000D01*
X101150000Y-77925000D02*
X101250000Y-78025000D01*
X69250000Y-88525000D02*
X69250000Y-92200000D01*
X69250000Y-92200000D02*
X69225000Y-92225000D01*
%TO.N,GND*%
X73985000Y-84015000D02*
X73985000Y-81300000D01*
X67925000Y-81450000D02*
X67925000Y-83975000D01*
%TO.N,+3V3*%
X90725000Y-42975000D02*
X90725000Y-36775000D01*
X77360000Y-32875000D02*
X77360000Y-28715000D01*
X77360000Y-28715000D02*
X77295000Y-28650000D01*
X77350000Y-36825000D02*
X77350000Y-32885000D01*
X77350000Y-32885000D02*
X77360000Y-32875000D01*
%TO.N,Net-(C1-Pad1)*%
X30025000Y-85125000D02*
X30025000Y-80600000D01*
X30025000Y-80600000D02*
X29950000Y-80525000D01*
%TO.N,VEXT*%
X31475000Y-81750000D02*
X31475000Y-83325000D01*
%TO.N,BUZZER*%
X62610000Y-33140000D02*
X62650000Y-33100000D01*
X62610000Y-43127500D02*
X62610000Y-33140000D01*
%TO.N,LED*%
X57550000Y-24575000D02*
X57550000Y-22827500D01*
X57550000Y-22827500D02*
X57530000Y-22807500D01*
%TO.N,GND*%
X40655000Y-47375000D02*
X40655000Y-52980000D01*
X40655000Y-52980000D02*
X40655000Y-58255000D01*
%TO.N,Net-(D1-Pad2)*%
X36075000Y-48875000D02*
X36075000Y-24660000D01*
X36075000Y-24660000D02*
X36040000Y-24625000D01*
X27800000Y-68900000D02*
X27800000Y-49775000D01*
X32560000Y-69235000D02*
X32550000Y-69225000D01*
X32560000Y-77950000D02*
X32560000Y-69235000D01*
X27800000Y-49775000D02*
X28500000Y-49075000D01*
%TO.N,GND*%
X35285000Y-71890000D02*
X35285000Y-77765000D01*
X35285000Y-77765000D02*
X35100000Y-77950000D01*
%TO.N,Net-(C1-Pad1)*%
X60775000Y-83400000D02*
X60875000Y-83500000D01*
X60775000Y-79075000D02*
X60775000Y-83400000D01*
X47450000Y-77975000D02*
X48600000Y-79125000D01*
X48600000Y-79125000D02*
X48600000Y-82300000D01*
X48525000Y-82375000D02*
X48600000Y-82300000D01*
X48525000Y-85200000D02*
X48525000Y-82375000D01*
%TO.N,Net-(R13-Pad2)*%
X65205000Y-54420000D02*
X65150000Y-54365000D01*
X65150000Y-54365000D02*
X65150000Y-46950000D01*
%TO.N,VEXT*%
X39875000Y-86550000D02*
X39875000Y-81900000D01*
X65102500Y-86722500D02*
X65050000Y-86775000D01*
X65102500Y-69125000D02*
X65102500Y-86722500D01*
X104700000Y-67175000D02*
X104725000Y-67200000D01*
X104700000Y-29350000D02*
X104700000Y-67175000D01*
%TO.N,+3V3*%
X59575000Y-72925000D02*
X59575000Y-75835000D01*
X59575000Y-75835000D02*
X59185000Y-76225000D01*
%TO.N,Net-(C2-Pad1)*%
X57375000Y-85450000D02*
X57375000Y-83839689D01*
X57375000Y-83839689D02*
X57535833Y-83678856D01*
X97900000Y-82325000D02*
X97875000Y-82350000D01*
X97900000Y-80700000D02*
X97900000Y-82325000D01*
X44425000Y-83450000D02*
X44575000Y-83600000D01*
X44425000Y-76100000D02*
X44425000Y-83450000D01*
%TO.N,GND*%
X50125000Y-74850000D02*
X50125000Y-80800000D01*
X50125000Y-80800000D02*
X50300000Y-80975000D01*
%TO.N,Net-(C2-Pad1)*%
X46150000Y-77975000D02*
X46150000Y-76125000D01*
X41525000Y-77925000D02*
X41575000Y-77975000D01*
X46150000Y-76125000D02*
X46125000Y-76100000D01*
X41525000Y-76100000D02*
X41525000Y-77925000D01*
%TO.N,GND*%
X40650000Y-88275000D02*
X40650000Y-87450000D01*
X40650000Y-87450000D02*
X41875000Y-86225000D01*
X41875000Y-86225000D02*
X41875000Y-81900000D01*
X62925000Y-81178856D02*
X62925000Y-77575000D01*
X62925000Y-77575000D02*
X63000000Y-77500000D01*
%TO.N,+3V3*%
X60300000Y-84475000D02*
X59185000Y-83360000D01*
X52650000Y-88325000D02*
X52725000Y-88250000D01*
X52650000Y-92225000D02*
X52650000Y-88325000D01*
X60300000Y-88300000D02*
X60300000Y-84475000D01*
X59185000Y-83360000D02*
X59185000Y-76225000D01*
%TO.N,GND*%
X73950000Y-81335000D02*
X73985000Y-81300000D01*
X63000000Y-77500000D02*
X61725000Y-76225000D01*
%TO.N,VEXT*%
X36075000Y-82025000D02*
X36350000Y-81750000D01*
X36075000Y-92225000D02*
X36075000Y-82025000D01*
%TO.N,+3V3*%
X52675000Y-92250000D02*
X52650000Y-92225000D01*
%TO.N,GND*%
X79225000Y-82775000D02*
X79875000Y-82125000D01*
X79225000Y-92225000D02*
X79225000Y-82775000D01*
X79875000Y-82125000D02*
X79875000Y-78900000D01*
X79875000Y-78900000D02*
X78850000Y-77875000D01*
%TO.N,Net-(U1-Pad4)*%
X90280000Y-80700000D02*
X90280000Y-85580000D01*
X91325000Y-86625000D02*
X91325000Y-88700000D01*
X90280000Y-85580000D02*
X91325000Y-86625000D01*
X96775000Y-88800000D02*
X96850000Y-88725000D01*
X89550000Y-88700000D02*
X91325000Y-88700000D01*
X94725000Y-88800000D02*
X96775000Y-88800000D01*
%TO.N,+3V3*%
X96850000Y-87425000D02*
X98200000Y-87425000D01*
X98200000Y-87425000D02*
X98225000Y-87400000D01*
X101300000Y-87425000D02*
X101250000Y-87375000D01*
X101250000Y-87375000D02*
X101250000Y-79425000D01*
%TO.N,GND*%
X32275000Y-32500000D02*
X32175000Y-32400000D01*
X32275000Y-45025000D02*
X32275000Y-32500000D01*
X47370000Y-33180000D02*
X47425000Y-33125000D01*
X47370000Y-43127500D02*
X47370000Y-33180000D01*
X40525000Y-45150000D02*
X40525000Y-47245000D01*
X47370000Y-43127500D02*
X47370000Y-45130000D01*
X47370000Y-45130000D02*
X47350000Y-45150000D01*
X40525000Y-47245000D02*
X40655000Y-47375000D01*
X40655000Y-58255000D02*
X40727500Y-58327500D01*
X40450000Y-71975000D02*
X40365000Y-71890000D01*
X40450000Y-74500000D02*
X40450000Y-71975000D01*
X40365000Y-66810000D02*
X40365000Y-71890000D01*
X40650000Y-91800000D02*
X41075000Y-92225000D01*
X33875000Y-87825000D02*
X33900000Y-87850000D01*
X40650000Y-88275000D02*
X40650000Y-91800000D01*
X77675000Y-43302500D02*
X77850000Y-43127500D01*
X77675000Y-46875000D02*
X77675000Y-43302500D01*
X103575000Y-40225000D02*
X103275000Y-40525000D01*
X103575000Y-26650000D02*
X103575000Y-40225000D01*
X108725000Y-44550000D02*
X108725000Y-49050000D01*
X98175000Y-44175000D02*
X98050000Y-44300000D01*
X98175000Y-40375000D02*
X98175000Y-44175000D01*
X85650000Y-44575000D02*
X85575000Y-44500000D01*
X85650000Y-50112500D02*
X85650000Y-44575000D01*
X85650000Y-50112500D02*
X85650000Y-62050000D01*
X85650000Y-62050000D02*
X85657500Y-62057500D01*
X91925000Y-69300000D02*
X91850000Y-69375000D01*
X91925000Y-62125000D02*
X91925000Y-69300000D01*
X91850000Y-69375000D02*
X91707500Y-69375000D01*
X91707500Y-69375000D02*
X90650000Y-70432500D01*
X95360000Y-72585000D02*
X95225000Y-72450000D01*
X95360000Y-80700000D02*
X95360000Y-72585000D01*
X90725000Y-72375000D02*
X90725000Y-70507500D01*
X90725000Y-70507500D02*
X90650000Y-70432500D01*
X77750000Y-78975000D02*
X78850000Y-77875000D01*
X77750000Y-79875000D02*
X77750000Y-78975000D01*
%TO.N,+3V3*%
X94875000Y-39535000D02*
X94875000Y-42875000D01*
X94875000Y-42875000D02*
X94825000Y-42925000D01*
X90650000Y-43050000D02*
X90725000Y-42975000D01*
X90650000Y-50112500D02*
X90650000Y-43050000D01*
X90650000Y-64050000D02*
X90650000Y-54250000D01*
X90650000Y-54250000D02*
X90650000Y-50112500D01*
X90350000Y-64350000D02*
X90650000Y-64050000D01*
X43195000Y-47375000D02*
X43195000Y-44032500D01*
X43195000Y-44032500D02*
X42290000Y-43127500D01*
X61350000Y-72925000D02*
X61350000Y-69275000D01*
X61350000Y-69275000D02*
X61325000Y-69250000D01*
X90260000Y-76150000D02*
X90260000Y-73435000D01*
X90260000Y-73435000D02*
X90175000Y-73350000D01*
X76075000Y-72925000D02*
X76012500Y-72862500D01*
X76012500Y-72862500D02*
X76012500Y-64597500D01*
X101250000Y-79425000D02*
X101250000Y-78025000D01*
X101225000Y-79450000D02*
X101250000Y-79425000D01*
%TD*%
M02*
