%TF.GenerationSoftware,KiCad,Pcbnew,6.0.11-2627ca5db0~126~ubuntu22.04.1*%
%TF.CreationDate,2023-07-24T22:42:18-04:00*%
%TF.ProjectId,sweet-p,73776565-742d-4702-9e6b-696361645f70,rev?*%
%TF.SameCoordinates,Original*%
%TF.FileFunction,Legend,Top*%
%TF.FilePolarity,Positive*%
%FSLAX46Y46*%
G04 Gerber Fmt 4.6, Leading zero omitted, Abs format (unit mm)*
G04 Created by KiCad (PCBNEW 6.0.11-2627ca5db0~126~ubuntu22.04.1) date 2023-07-24 22:42:18*
%MOMM*%
%LPD*%
G01*
G04 APERTURE LIST*
%ADD10C,0.150000*%
%ADD11C,0.300000*%
%ADD12C,0.120000*%
%ADD13C,0.100000*%
G04 APERTURE END LIST*
D10*
X57575000Y-59761904D02*
X57527380Y-59857142D01*
X57527380Y-60000000D01*
X57575000Y-60142857D01*
X57670238Y-60238095D01*
X57765476Y-60285714D01*
X57955952Y-60333333D01*
X58098809Y-60333333D01*
X58289285Y-60285714D01*
X58384523Y-60238095D01*
X58479761Y-60142857D01*
X58527380Y-60000000D01*
X58527380Y-59904761D01*
X58479761Y-59761904D01*
X58432142Y-59714285D01*
X58098809Y-59714285D01*
X58098809Y-59904761D01*
X58527380Y-59285714D02*
X57527380Y-59285714D01*
X58527380Y-58714285D01*
X57527380Y-58714285D01*
X58527380Y-58238095D02*
X57527380Y-58238095D01*
X57527380Y-58000000D01*
X57575000Y-57857142D01*
X57670238Y-57761904D01*
X57765476Y-57714285D01*
X57955952Y-57666666D01*
X58098809Y-57666666D01*
X58289285Y-57714285D01*
X58384523Y-57761904D01*
X58479761Y-57857142D01*
X58527380Y-58000000D01*
X58527380Y-58238095D01*
X55647619Y-63036904D02*
X55600000Y-62989285D01*
X55552380Y-62894047D01*
X55552380Y-62655952D01*
X55600000Y-62560714D01*
X55647619Y-62513095D01*
X55742857Y-62465476D01*
X55838095Y-62465476D01*
X55980952Y-62513095D01*
X56552380Y-63084523D01*
X56552380Y-62465476D01*
X56933333Y-61751190D02*
X56885714Y-61798809D01*
X56742857Y-61894047D01*
X56647619Y-61941666D01*
X56504761Y-61989285D01*
X56266666Y-62036904D01*
X56076190Y-62036904D01*
X55838095Y-61989285D01*
X55695238Y-61941666D01*
X55600000Y-61894047D01*
X55457142Y-61798809D01*
X55409523Y-61751190D01*
X56552380Y-61370238D02*
X55552380Y-61370238D01*
X56266666Y-61036904D01*
X55552380Y-60703571D01*
X56552380Y-60703571D01*
X56552380Y-60227380D02*
X55552380Y-60227380D01*
X56504761Y-59798809D02*
X56552380Y-59655952D01*
X56552380Y-59417857D01*
X56504761Y-59322619D01*
X56457142Y-59275000D01*
X56361904Y-59227380D01*
X56266666Y-59227380D01*
X56171428Y-59275000D01*
X56123809Y-59322619D01*
X56076190Y-59417857D01*
X56028571Y-59608333D01*
X55980952Y-59703571D01*
X55933333Y-59751190D01*
X55838095Y-59798809D01*
X55742857Y-59798809D01*
X55647619Y-59751190D01*
X55600000Y-59703571D01*
X55552380Y-59608333D01*
X55552380Y-59370238D01*
X55600000Y-59227380D01*
X55552380Y-58608333D02*
X55552380Y-58417857D01*
X55600000Y-58322619D01*
X55695238Y-58227380D01*
X55885714Y-58179761D01*
X56219047Y-58179761D01*
X56409523Y-58227380D01*
X56504761Y-58322619D01*
X56552380Y-58417857D01*
X56552380Y-58608333D01*
X56504761Y-58703571D01*
X56409523Y-58798809D01*
X56219047Y-58846428D01*
X55885714Y-58846428D01*
X55695238Y-58798809D01*
X55600000Y-58703571D01*
X55552380Y-58608333D01*
X56933333Y-57846428D02*
X56885714Y-57798809D01*
X56742857Y-57703571D01*
X56647619Y-57655952D01*
X56504761Y-57608333D01*
X56266666Y-57560714D01*
X56076190Y-57560714D01*
X55838095Y-57608333D01*
X55695238Y-57655952D01*
X55600000Y-57703571D01*
X55457142Y-57798809D01*
X55409523Y-57846428D01*
X44577380Y-70165476D02*
X44577380Y-69975000D01*
X44529761Y-69879761D01*
X44482142Y-69832142D01*
X44339285Y-69736904D01*
X44148809Y-69689285D01*
X43767857Y-69689285D01*
X43672619Y-69736904D01*
X43625000Y-69784523D01*
X43577380Y-69879761D01*
X43577380Y-70070238D01*
X43625000Y-70165476D01*
X43672619Y-70213095D01*
X43767857Y-70260714D01*
X44005952Y-70260714D01*
X44101190Y-70213095D01*
X44148809Y-70165476D01*
X44196428Y-70070238D01*
X44196428Y-69879761D01*
X44148809Y-69784523D01*
X44101190Y-69736904D01*
X44005952Y-69689285D01*
X44958333Y-68975000D02*
X44910714Y-69022619D01*
X44767857Y-69117857D01*
X44672619Y-69165476D01*
X44529761Y-69213095D01*
X44291666Y-69260714D01*
X44101190Y-69260714D01*
X43863095Y-69213095D01*
X43720238Y-69165476D01*
X43625000Y-69117857D01*
X43482142Y-69022619D01*
X43434523Y-68975000D01*
X44291666Y-68641666D02*
X44291666Y-68165476D01*
X44577380Y-68736904D02*
X43577380Y-68403571D01*
X44577380Y-68070238D01*
X44577380Y-67736904D02*
X43577380Y-67736904D01*
X44577380Y-67165476D01*
X43577380Y-67165476D01*
X43577380Y-66832142D02*
X43577380Y-66260714D01*
X44577380Y-66546428D02*
X43577380Y-66546428D01*
X44958333Y-66022619D02*
X44910714Y-65975000D01*
X44767857Y-65879761D01*
X44672619Y-65832142D01*
X44529761Y-65784523D01*
X44291666Y-65736904D01*
X44101190Y-65736904D01*
X43863095Y-65784523D01*
X43720238Y-65832142D01*
X43625000Y-65879761D01*
X43482142Y-65975000D01*
X43434523Y-66022619D01*
X96984523Y-38304761D02*
X97127380Y-38352380D01*
X97365476Y-38352380D01*
X97460714Y-38304761D01*
X97508333Y-38257142D01*
X97555952Y-38161904D01*
X97555952Y-38066666D01*
X97508333Y-37971428D01*
X97460714Y-37923809D01*
X97365476Y-37876190D01*
X97175000Y-37828571D01*
X97079761Y-37780952D01*
X97032142Y-37733333D01*
X96984523Y-37638095D01*
X96984523Y-37542857D01*
X97032142Y-37447619D01*
X97079761Y-37400000D01*
X97175000Y-37352380D01*
X97413095Y-37352380D01*
X97555952Y-37400000D01*
X98555952Y-38257142D02*
X98508333Y-38304761D01*
X98365476Y-38352380D01*
X98270238Y-38352380D01*
X98127380Y-38304761D01*
X98032142Y-38209523D01*
X97984523Y-38114285D01*
X97936904Y-37923809D01*
X97936904Y-37780952D01*
X97984523Y-37590476D01*
X98032142Y-37495238D01*
X98127380Y-37400000D01*
X98270238Y-37352380D01*
X98365476Y-37352380D01*
X98508333Y-37400000D01*
X98555952Y-37447619D01*
X99460714Y-38352380D02*
X98984523Y-38352380D01*
X98984523Y-37352380D01*
X97010714Y-35779761D02*
X97153571Y-35827380D01*
X97391666Y-35827380D01*
X97486904Y-35779761D01*
X97534523Y-35732142D01*
X97582142Y-35636904D01*
X97582142Y-35541666D01*
X97534523Y-35446428D01*
X97486904Y-35398809D01*
X97391666Y-35351190D01*
X97201190Y-35303571D01*
X97105952Y-35255952D01*
X97058333Y-35208333D01*
X97010714Y-35113095D01*
X97010714Y-35017857D01*
X97058333Y-34922619D01*
X97105952Y-34875000D01*
X97201190Y-34827380D01*
X97439285Y-34827380D01*
X97582142Y-34875000D01*
X98010714Y-35827380D02*
X98010714Y-34827380D01*
X98248809Y-34827380D01*
X98391666Y-34875000D01*
X98486904Y-34970238D01*
X98534523Y-35065476D01*
X98582142Y-35255952D01*
X98582142Y-35398809D01*
X98534523Y-35589285D01*
X98486904Y-35684523D01*
X98391666Y-35779761D01*
X98248809Y-35827380D01*
X98010714Y-35827380D01*
X98963095Y-35541666D02*
X99439285Y-35541666D01*
X98867857Y-35827380D02*
X99201190Y-34827380D01*
X99534523Y-35827380D01*
X69467857Y-62158333D02*
X69848809Y-62158333D01*
X69391666Y-62386904D02*
X69658333Y-61586904D01*
X69925000Y-62386904D01*
X70191666Y-62386904D02*
X70191666Y-61586904D01*
X70382142Y-61586904D01*
X70496428Y-61625000D01*
X70572619Y-61701190D01*
X70610714Y-61777380D01*
X70648809Y-61929761D01*
X70648809Y-62044047D01*
X70610714Y-62196428D01*
X70572619Y-62272619D01*
X70496428Y-62348809D01*
X70382142Y-62386904D01*
X70191666Y-62386904D01*
X70953571Y-62348809D02*
X71067857Y-62386904D01*
X71258333Y-62386904D01*
X71334523Y-62348809D01*
X71372619Y-62310714D01*
X71410714Y-62234523D01*
X71410714Y-62158333D01*
X71372619Y-62082142D01*
X71334523Y-62044047D01*
X71258333Y-62005952D01*
X71105952Y-61967857D01*
X71029761Y-61929761D01*
X70991666Y-61891666D01*
X70953571Y-61815476D01*
X70953571Y-61739285D01*
X70991666Y-61663095D01*
X71029761Y-61625000D01*
X71105952Y-61586904D01*
X71296428Y-61586904D01*
X71410714Y-61625000D01*
X71563095Y-62463095D02*
X72172619Y-62463095D01*
X72286904Y-61586904D02*
X72782142Y-61586904D01*
X72515476Y-61891666D01*
X72629761Y-61891666D01*
X72705952Y-61929761D01*
X72744047Y-61967857D01*
X72782142Y-62044047D01*
X72782142Y-62234523D01*
X72744047Y-62310714D01*
X72705952Y-62348809D01*
X72629761Y-62386904D01*
X72401190Y-62386904D01*
X72325000Y-62348809D01*
X72286904Y-62310714D01*
X69467857Y-59583333D02*
X69848809Y-59583333D01*
X69391666Y-59811904D02*
X69658333Y-59011904D01*
X69925000Y-59811904D01*
X70191666Y-59811904D02*
X70191666Y-59011904D01*
X70382142Y-59011904D01*
X70496428Y-59050000D01*
X70572619Y-59126190D01*
X70610714Y-59202380D01*
X70648809Y-59354761D01*
X70648809Y-59469047D01*
X70610714Y-59621428D01*
X70572619Y-59697619D01*
X70496428Y-59773809D01*
X70382142Y-59811904D01*
X70191666Y-59811904D01*
X70953571Y-59773809D02*
X71067857Y-59811904D01*
X71258333Y-59811904D01*
X71334523Y-59773809D01*
X71372619Y-59735714D01*
X71410714Y-59659523D01*
X71410714Y-59583333D01*
X71372619Y-59507142D01*
X71334523Y-59469047D01*
X71258333Y-59430952D01*
X71105952Y-59392857D01*
X71029761Y-59354761D01*
X70991666Y-59316666D01*
X70953571Y-59240476D01*
X70953571Y-59164285D01*
X70991666Y-59088095D01*
X71029761Y-59050000D01*
X71105952Y-59011904D01*
X71296428Y-59011904D01*
X71410714Y-59050000D01*
X71563095Y-59888095D02*
X72172619Y-59888095D01*
X72325000Y-59088095D02*
X72363095Y-59050000D01*
X72439285Y-59011904D01*
X72629761Y-59011904D01*
X72705952Y-59050000D01*
X72744047Y-59088095D01*
X72782142Y-59164285D01*
X72782142Y-59240476D01*
X72744047Y-59354761D01*
X72286904Y-59811904D01*
X72782142Y-59811904D01*
X69467857Y-57008333D02*
X69848809Y-57008333D01*
X69391666Y-57236904D02*
X69658333Y-56436904D01*
X69925000Y-57236904D01*
X70191666Y-57236904D02*
X70191666Y-56436904D01*
X70382142Y-56436904D01*
X70496428Y-56475000D01*
X70572619Y-56551190D01*
X70610714Y-56627380D01*
X70648809Y-56779761D01*
X70648809Y-56894047D01*
X70610714Y-57046428D01*
X70572619Y-57122619D01*
X70496428Y-57198809D01*
X70382142Y-57236904D01*
X70191666Y-57236904D01*
X70953571Y-57198809D02*
X71067857Y-57236904D01*
X71258333Y-57236904D01*
X71334523Y-57198809D01*
X71372619Y-57160714D01*
X71410714Y-57084523D01*
X71410714Y-57008333D01*
X71372619Y-56932142D01*
X71334523Y-56894047D01*
X71258333Y-56855952D01*
X71105952Y-56817857D01*
X71029761Y-56779761D01*
X70991666Y-56741666D01*
X70953571Y-56665476D01*
X70953571Y-56589285D01*
X70991666Y-56513095D01*
X71029761Y-56475000D01*
X71105952Y-56436904D01*
X71296428Y-56436904D01*
X71410714Y-56475000D01*
X71563095Y-57313095D02*
X72172619Y-57313095D01*
X72782142Y-57236904D02*
X72325000Y-57236904D01*
X72553571Y-57236904D02*
X72553571Y-56436904D01*
X72477380Y-56551190D01*
X72401190Y-56627380D01*
X72325000Y-56665476D01*
X97461904Y-84891666D02*
X98261904Y-84625000D01*
X97461904Y-84358333D01*
X98261904Y-84091666D02*
X97461904Y-84091666D01*
X97461904Y-83901190D01*
X97500000Y-83786904D01*
X97576190Y-83710714D01*
X97652380Y-83672619D01*
X97804761Y-83634523D01*
X97919047Y-83634523D01*
X98071428Y-83672619D01*
X98147619Y-83710714D01*
X98223809Y-83786904D01*
X98261904Y-83901190D01*
X98261904Y-84091666D01*
X98261904Y-83291666D02*
X97461904Y-83291666D01*
X97461904Y-83101190D01*
X97500000Y-82986904D01*
X97576190Y-82910714D01*
X97652380Y-82872619D01*
X97804761Y-82834523D01*
X97919047Y-82834523D01*
X98071428Y-82872619D01*
X98147619Y-82910714D01*
X98223809Y-82986904D01*
X98261904Y-83101190D01*
X98261904Y-83291666D01*
X95075000Y-84334523D02*
X95036904Y-84410714D01*
X95036904Y-84525000D01*
X95075000Y-84639285D01*
X95151190Y-84715476D01*
X95227380Y-84753571D01*
X95379761Y-84791666D01*
X95494047Y-84791666D01*
X95646428Y-84753571D01*
X95722619Y-84715476D01*
X95798809Y-84639285D01*
X95836904Y-84525000D01*
X95836904Y-84448809D01*
X95798809Y-84334523D01*
X95760714Y-84296428D01*
X95494047Y-84296428D01*
X95494047Y-84448809D01*
X95836904Y-83953571D02*
X95036904Y-83953571D01*
X95836904Y-83496428D01*
X95036904Y-83496428D01*
X95836904Y-83115476D02*
X95036904Y-83115476D01*
X95036904Y-82925000D01*
X95075000Y-82810714D01*
X95151190Y-82734523D01*
X95227380Y-82696428D01*
X95379761Y-82658333D01*
X95494047Y-82658333D01*
X95646428Y-82696428D01*
X95722619Y-82734523D01*
X95798809Y-82810714D01*
X95836904Y-82925000D01*
X95836904Y-83115476D01*
X93336904Y-85430952D02*
X92536904Y-85430952D01*
X92536904Y-85240476D01*
X92575000Y-85126190D01*
X92651190Y-85050000D01*
X92727380Y-85011904D01*
X92879761Y-84973809D01*
X92994047Y-84973809D01*
X93146428Y-85011904D01*
X93222619Y-85050000D01*
X93298809Y-85126190D01*
X93336904Y-85240476D01*
X93336904Y-85430952D01*
X92917857Y-84630952D02*
X92917857Y-84364285D01*
X93336904Y-84250000D02*
X93336904Y-84630952D01*
X92536904Y-84630952D01*
X92536904Y-84250000D01*
X93336904Y-83526190D02*
X93336904Y-83907142D01*
X92536904Y-83907142D01*
X93108333Y-83297619D02*
X93108333Y-82916666D01*
X93336904Y-83373809D02*
X92536904Y-83107142D01*
X93336904Y-82840476D01*
X92955952Y-82421428D02*
X93336904Y-82421428D01*
X92536904Y-82688095D02*
X92955952Y-82421428D01*
X92536904Y-82154761D01*
X90711904Y-85454761D02*
X89911904Y-85454761D01*
X89911904Y-85264285D01*
X89950000Y-85150000D01*
X90026190Y-85073809D01*
X90102380Y-85035714D01*
X90254761Y-84997619D01*
X90369047Y-84997619D01*
X90521428Y-85035714D01*
X90597619Y-85073809D01*
X90673809Y-85150000D01*
X90711904Y-85264285D01*
X90711904Y-85454761D01*
X90711904Y-84197619D02*
X90330952Y-84464285D01*
X90711904Y-84654761D02*
X89911904Y-84654761D01*
X89911904Y-84350000D01*
X89950000Y-84273809D01*
X89988095Y-84235714D01*
X90064285Y-84197619D01*
X90178571Y-84197619D01*
X90254761Y-84235714D01*
X90292857Y-84273809D01*
X90330952Y-84350000D01*
X90330952Y-84654761D01*
X90711904Y-83854761D02*
X89911904Y-83854761D01*
X89911904Y-83588095D02*
X90711904Y-83321428D01*
X89911904Y-83054761D01*
X90292857Y-82788095D02*
X90292857Y-82521428D01*
X90711904Y-82407142D02*
X90711904Y-82788095D01*
X89911904Y-82788095D01*
X89911904Y-82407142D01*
X88036904Y-85334523D02*
X87236904Y-85334523D01*
X87236904Y-85144047D01*
X87275000Y-85029761D01*
X87351190Y-84953571D01*
X87427380Y-84915476D01*
X87579761Y-84877380D01*
X87694047Y-84877380D01*
X87846428Y-84915476D01*
X87922619Y-84953571D01*
X87998809Y-85029761D01*
X88036904Y-85144047D01*
X88036904Y-85334523D01*
X87236904Y-84382142D02*
X87236904Y-84229761D01*
X87275000Y-84153571D01*
X87351190Y-84077380D01*
X87503571Y-84039285D01*
X87770238Y-84039285D01*
X87922619Y-84077380D01*
X87998809Y-84153571D01*
X88036904Y-84229761D01*
X88036904Y-84382142D01*
X87998809Y-84458333D01*
X87922619Y-84534523D01*
X87770238Y-84572619D01*
X87503571Y-84572619D01*
X87351190Y-84534523D01*
X87275000Y-84458333D01*
X87236904Y-84382142D01*
X88036904Y-83696428D02*
X87236904Y-83696428D01*
X88036904Y-83239285D01*
X87236904Y-83239285D01*
X87617857Y-82858333D02*
X87617857Y-82591666D01*
X88036904Y-82477380D02*
X88036904Y-82858333D01*
X87236904Y-82858333D01*
X87236904Y-82477380D01*
D11*
X109086904Y-83705952D02*
X109205952Y-83467857D01*
X109205952Y-82991666D01*
X109086904Y-82753571D01*
X108848809Y-82634523D01*
X108729761Y-82634523D01*
X108491666Y-82753571D01*
X108372619Y-82991666D01*
X108372619Y-83348809D01*
X108253571Y-83586904D01*
X108015476Y-83705952D01*
X107896428Y-83705952D01*
X107658333Y-83586904D01*
X107539285Y-83348809D01*
X107539285Y-82991666D01*
X107658333Y-82753571D01*
X107539285Y-81801190D02*
X109205952Y-81325000D01*
X108015476Y-80848809D01*
X109205952Y-80372619D01*
X107539285Y-79896428D01*
X109086904Y-77991666D02*
X109205952Y-78229761D01*
X109205952Y-78705952D01*
X109086904Y-78944047D01*
X108848809Y-79063095D01*
X107896428Y-79063095D01*
X107658333Y-78944047D01*
X107539285Y-78705952D01*
X107539285Y-78229761D01*
X107658333Y-77991666D01*
X107896428Y-77872619D01*
X108134523Y-77872619D01*
X108372619Y-79063095D01*
X109086904Y-75848809D02*
X109205952Y-76086904D01*
X109205952Y-76563095D01*
X109086904Y-76801190D01*
X108848809Y-76920238D01*
X107896428Y-76920238D01*
X107658333Y-76801190D01*
X107539285Y-76563095D01*
X107539285Y-76086904D01*
X107658333Y-75848809D01*
X107896428Y-75729761D01*
X108134523Y-75729761D01*
X108372619Y-76920238D01*
X107539285Y-75015476D02*
X107539285Y-74063095D01*
X106705952Y-74658333D02*
X108848809Y-74658333D01*
X109086904Y-74539285D01*
X109205952Y-74301190D01*
X109205952Y-74063095D01*
X108253571Y-73229761D02*
X108253571Y-71325000D01*
X107539285Y-70134523D02*
X110039285Y-70134523D01*
X107658333Y-70134523D02*
X107539285Y-69896428D01*
X107539285Y-69420238D01*
X107658333Y-69182142D01*
X107777380Y-69063095D01*
X108015476Y-68944047D01*
X108729761Y-68944047D01*
X108967857Y-69063095D01*
X109086904Y-69182142D01*
X109205952Y-69420238D01*
X109205952Y-69896428D01*
X109086904Y-70134523D01*
D10*
X61264285Y-78425000D02*
X61178571Y-78382142D01*
X61050000Y-78382142D01*
X60921428Y-78425000D01*
X60835714Y-78510714D01*
X60792857Y-78596428D01*
X60750000Y-78767857D01*
X60750000Y-78896428D01*
X60792857Y-79067857D01*
X60835714Y-79153571D01*
X60921428Y-79239285D01*
X61050000Y-79282142D01*
X61135714Y-79282142D01*
X61264285Y-79239285D01*
X61307142Y-79196428D01*
X61307142Y-78896428D01*
X61135714Y-78896428D01*
X61692857Y-79282142D02*
X61692857Y-78382142D01*
X62207142Y-79282142D01*
X62207142Y-78382142D01*
X62635714Y-79282142D02*
X62635714Y-78382142D01*
X62850000Y-78382142D01*
X62978571Y-78425000D01*
X63064285Y-78510714D01*
X63107142Y-78596428D01*
X63150000Y-78767857D01*
X63150000Y-78896428D01*
X63107142Y-79067857D01*
X63064285Y-79153571D01*
X62978571Y-79239285D01*
X62850000Y-79282142D01*
X62635714Y-79282142D01*
X58689285Y-78332142D02*
X59246428Y-78332142D01*
X58946428Y-78675000D01*
X59075000Y-78675000D01*
X59160714Y-78717857D01*
X59203571Y-78760714D01*
X59246428Y-78846428D01*
X59246428Y-79060714D01*
X59203571Y-79146428D01*
X59160714Y-79189285D01*
X59075000Y-79232142D01*
X58817857Y-79232142D01*
X58732142Y-79189285D01*
X58689285Y-79146428D01*
X59503571Y-78332142D02*
X59803571Y-79232142D01*
X60103571Y-78332142D01*
X52432142Y-79189285D02*
X52560714Y-79232142D01*
X52775000Y-79232142D01*
X52860714Y-79189285D01*
X52903571Y-79146428D01*
X52946428Y-79060714D01*
X52946428Y-78975000D01*
X52903571Y-78889285D01*
X52860714Y-78846428D01*
X52775000Y-78803571D01*
X52603571Y-78760714D01*
X52517857Y-78717857D01*
X52475000Y-78675000D01*
X52432142Y-78589285D01*
X52432142Y-78503571D01*
X52475000Y-78417857D01*
X52517857Y-78375000D01*
X52603571Y-78332142D01*
X52817857Y-78332142D01*
X52946428Y-78375000D01*
X53332142Y-79232142D02*
X53332142Y-78332142D01*
X53546428Y-78332142D01*
X53675000Y-78375000D01*
X53760714Y-78460714D01*
X53803571Y-78546428D01*
X53846428Y-78717857D01*
X53846428Y-78846428D01*
X53803571Y-79017857D01*
X53760714Y-79103571D01*
X53675000Y-79189285D01*
X53546428Y-79232142D01*
X53332142Y-79232142D01*
X54189285Y-78975000D02*
X54617857Y-78975000D01*
X54103571Y-79232142D02*
X54403571Y-78332142D01*
X54703571Y-79232142D01*
X55703571Y-79164285D02*
X55832142Y-79207142D01*
X56046428Y-79207142D01*
X56132142Y-79164285D01*
X56175000Y-79121428D01*
X56217857Y-79035714D01*
X56217857Y-78950000D01*
X56175000Y-78864285D01*
X56132142Y-78821428D01*
X56046428Y-78778571D01*
X55875000Y-78735714D01*
X55789285Y-78692857D01*
X55746428Y-78650000D01*
X55703571Y-78564285D01*
X55703571Y-78478571D01*
X55746428Y-78392857D01*
X55789285Y-78350000D01*
X55875000Y-78307142D01*
X56089285Y-78307142D01*
X56217857Y-78350000D01*
X57117857Y-79121428D02*
X57075000Y-79164285D01*
X56946428Y-79207142D01*
X56860714Y-79207142D01*
X56732142Y-79164285D01*
X56646428Y-79078571D01*
X56603571Y-78992857D01*
X56560714Y-78821428D01*
X56560714Y-78692857D01*
X56603571Y-78521428D01*
X56646428Y-78435714D01*
X56732142Y-78350000D01*
X56860714Y-78307142D01*
X56946428Y-78307142D01*
X57075000Y-78350000D01*
X57117857Y-78392857D01*
X57932142Y-79207142D02*
X57503571Y-79207142D01*
X57503571Y-78307142D01*
X41925000Y-78486904D02*
X41877380Y-78582142D01*
X41877380Y-78725000D01*
X41925000Y-78867857D01*
X42020238Y-78963095D01*
X42115476Y-79010714D01*
X42305952Y-79058333D01*
X42448809Y-79058333D01*
X42639285Y-79010714D01*
X42734523Y-78963095D01*
X42829761Y-78867857D01*
X42877380Y-78725000D01*
X42877380Y-78629761D01*
X42829761Y-78486904D01*
X42782142Y-78439285D01*
X42448809Y-78439285D01*
X42448809Y-78629761D01*
X42877380Y-78010714D02*
X41877380Y-78010714D01*
X42877380Y-77439285D01*
X41877380Y-77439285D01*
X42877380Y-76963095D02*
X41877380Y-76963095D01*
X41877380Y-76725000D01*
X41925000Y-76582142D01*
X42020238Y-76486904D01*
X42115476Y-76439285D01*
X42305952Y-76391666D01*
X42448809Y-76391666D01*
X42639285Y-76439285D01*
X42734523Y-76486904D01*
X42829761Y-76582142D01*
X42877380Y-76725000D01*
X42877380Y-76963095D01*
X38477380Y-79167857D02*
X39477380Y-78834523D01*
X38477380Y-78501190D01*
X38953571Y-78167857D02*
X38953571Y-77834523D01*
X39477380Y-77691666D02*
X39477380Y-78167857D01*
X38477380Y-78167857D01*
X38477380Y-77691666D01*
X38477380Y-77358333D02*
X39477380Y-76691666D01*
X38477380Y-76691666D02*
X39477380Y-77358333D01*
X38477380Y-76453571D02*
X38477380Y-75882142D01*
X39477380Y-76167857D02*
X38477380Y-76167857D01*
X103625000Y-85025000D02*
X110125000Y-85025000D01*
X110125000Y-85025000D02*
X110125000Y-89675000D01*
X110125000Y-89675000D02*
X103625000Y-89675000D01*
X103625000Y-89675000D02*
X103625000Y-85025000D01*
D11*
X27466666Y-69716666D02*
X27533333Y-69850000D01*
X27533333Y-70116666D01*
X27466666Y-70250000D01*
X27333333Y-70316666D01*
X26800000Y-70316666D01*
X26666666Y-70250000D01*
X26600000Y-70116666D01*
X26600000Y-69850000D01*
X26666666Y-69716666D01*
X26800000Y-69650000D01*
X26933333Y-69650000D01*
X27066666Y-70316666D01*
X27533333Y-68450000D02*
X26133333Y-68450000D01*
X27466666Y-68450000D02*
X27533333Y-68583333D01*
X27533333Y-68850000D01*
X27466666Y-68983333D01*
X27400000Y-69050000D01*
X27266666Y-69116666D01*
X26866666Y-69116666D01*
X26733333Y-69050000D01*
X26666666Y-68983333D01*
X26600000Y-68850000D01*
X26600000Y-68583333D01*
X26666666Y-68450000D01*
X26600000Y-67183333D02*
X27733333Y-67183333D01*
X27866666Y-67250000D01*
X27933333Y-67316666D01*
X28000000Y-67450000D01*
X28000000Y-67650000D01*
X27933333Y-67783333D01*
X27466666Y-67183333D02*
X27533333Y-67316666D01*
X27533333Y-67583333D01*
X27466666Y-67716666D01*
X27400000Y-67783333D01*
X27266666Y-67850000D01*
X26866666Y-67850000D01*
X26733333Y-67783333D01*
X26666666Y-67716666D01*
X26600000Y-67583333D01*
X26600000Y-67316666D01*
X26666666Y-67183333D01*
X27466666Y-65983333D02*
X27533333Y-66116666D01*
X27533333Y-66383333D01*
X27466666Y-66516666D01*
X27333333Y-66583333D01*
X26800000Y-66583333D01*
X26666666Y-66516666D01*
X26600000Y-66383333D01*
X26600000Y-66116666D01*
X26666666Y-65983333D01*
X26800000Y-65916666D01*
X26933333Y-65916666D01*
X27066666Y-66583333D01*
X27466666Y-64716666D02*
X27533333Y-64850000D01*
X27533333Y-65116666D01*
X27466666Y-65250000D01*
X27400000Y-65316666D01*
X27266666Y-65383333D01*
X26866666Y-65383333D01*
X26733333Y-65316666D01*
X26666666Y-65250000D01*
X26600000Y-65116666D01*
X26600000Y-64850000D01*
X26666666Y-64716666D01*
X27533333Y-63916666D02*
X27466666Y-64050000D01*
X27400000Y-64116666D01*
X27266666Y-64183333D01*
X26866666Y-64183333D01*
X26733333Y-64116666D01*
X26666666Y-64050000D01*
X26600000Y-63916666D01*
X26600000Y-63716666D01*
X26666666Y-63583333D01*
X26733333Y-63516666D01*
X26866666Y-63450000D01*
X27266666Y-63450000D01*
X27400000Y-63516666D01*
X27466666Y-63583333D01*
X27533333Y-63716666D01*
X27533333Y-63916666D01*
X27533333Y-62650000D02*
X27466666Y-62783333D01*
X27333333Y-62850000D01*
X26133333Y-62850000D01*
X27533333Y-61916666D02*
X27466666Y-62050000D01*
X27333333Y-62116666D01*
X26133333Y-62116666D01*
X27466666Y-60850000D02*
X27533333Y-60983333D01*
X27533333Y-61250000D01*
X27466666Y-61383333D01*
X27333333Y-61450000D01*
X26800000Y-61450000D01*
X26666666Y-61383333D01*
X26600000Y-61250000D01*
X26600000Y-60983333D01*
X26666666Y-60850000D01*
X26800000Y-60783333D01*
X26933333Y-60783333D01*
X27066666Y-61450000D01*
X27466666Y-59583333D02*
X27533333Y-59716666D01*
X27533333Y-59983333D01*
X27466666Y-60116666D01*
X27400000Y-60183333D01*
X27266666Y-60250000D01*
X26866666Y-60250000D01*
X26733333Y-60183333D01*
X26666666Y-60116666D01*
X26600000Y-59983333D01*
X26600000Y-59716666D01*
X26666666Y-59583333D01*
X26600000Y-59183333D02*
X26600000Y-58650000D01*
X26133333Y-58983333D02*
X27333333Y-58983333D01*
X27466666Y-58916666D01*
X27533333Y-58783333D01*
X27533333Y-58650000D01*
X27533333Y-58183333D02*
X26600000Y-58183333D01*
X26133333Y-58183333D02*
X26200000Y-58250000D01*
X26266666Y-58183333D01*
X26200000Y-58116666D01*
X26133333Y-58183333D01*
X26266666Y-58183333D01*
X26600000Y-57650000D02*
X27533333Y-57316666D01*
X26600000Y-56983333D01*
X27466666Y-55916666D02*
X27533333Y-56050000D01*
X27533333Y-56316666D01*
X27466666Y-56450000D01*
X27333333Y-56516666D01*
X26800000Y-56516666D01*
X26666666Y-56450000D01*
X26600000Y-56316666D01*
X26600000Y-56050000D01*
X26666666Y-55916666D01*
X26800000Y-55850000D01*
X26933333Y-55850000D01*
X27066666Y-56516666D01*
X27400000Y-55250000D02*
X27466666Y-55183333D01*
X27533333Y-55250000D01*
X27466666Y-55316666D01*
X27400000Y-55250000D01*
X27533333Y-55250000D01*
X27533333Y-54583333D02*
X26600000Y-54583333D01*
X26133333Y-54583333D02*
X26200000Y-54650000D01*
X26266666Y-54583333D01*
X26200000Y-54516666D01*
X26133333Y-54583333D01*
X26266666Y-54583333D01*
X27533333Y-53716666D02*
X27466666Y-53850000D01*
X27400000Y-53916666D01*
X27266666Y-53983333D01*
X26866666Y-53983333D01*
X26733333Y-53916666D01*
X26666666Y-53850000D01*
X26600000Y-53716666D01*
X26600000Y-53516666D01*
X26666666Y-53383333D01*
X26733333Y-53316666D01*
X26866666Y-53250000D01*
X27266666Y-53250000D01*
X27400000Y-53316666D01*
X27466666Y-53383333D01*
X27533333Y-53516666D01*
X27533333Y-53716666D01*
X26066666Y-51650000D02*
X27866666Y-52850000D01*
X27466666Y-51250000D02*
X27533333Y-51116666D01*
X27533333Y-50850000D01*
X27466666Y-50716666D01*
X27333333Y-50650000D01*
X27266666Y-50650000D01*
X27133333Y-50716666D01*
X27066666Y-50850000D01*
X27066666Y-51050000D01*
X27000000Y-51183333D01*
X26866666Y-51250000D01*
X26800000Y-51250000D01*
X26666666Y-51183333D01*
X26600000Y-51050000D01*
X26600000Y-50850000D01*
X26666666Y-50716666D01*
X26600000Y-50183333D02*
X27533333Y-49916666D01*
X26866666Y-49650000D01*
X27533333Y-49383333D01*
X26600000Y-49116666D01*
X27466666Y-48050000D02*
X27533333Y-48183333D01*
X27533333Y-48450000D01*
X27466666Y-48583333D01*
X27333333Y-48650000D01*
X26800000Y-48650000D01*
X26666666Y-48583333D01*
X26600000Y-48450000D01*
X26600000Y-48183333D01*
X26666666Y-48050000D01*
X26800000Y-47983333D01*
X26933333Y-47983333D01*
X27066666Y-48650000D01*
X27466666Y-46850000D02*
X27533333Y-46983333D01*
X27533333Y-47250000D01*
X27466666Y-47383333D01*
X27333333Y-47450000D01*
X26800000Y-47450000D01*
X26666666Y-47383333D01*
X26600000Y-47250000D01*
X26600000Y-46983333D01*
X26666666Y-46850000D01*
X26800000Y-46783333D01*
X26933333Y-46783333D01*
X27066666Y-47450000D01*
X26600000Y-46383333D02*
X26600000Y-45850000D01*
X26133333Y-46183333D02*
X27333333Y-46183333D01*
X27466666Y-46116666D01*
X27533333Y-45983333D01*
X27533333Y-45850000D01*
X27000000Y-45383333D02*
X27000000Y-44316666D01*
X26600000Y-43650000D02*
X28000000Y-43650000D01*
X26666666Y-43650000D02*
X26600000Y-43516666D01*
X26600000Y-43250000D01*
X26666666Y-43116666D01*
X26733333Y-43050000D01*
X26866666Y-42983333D01*
X27266666Y-42983333D01*
X27400000Y-43050000D01*
X27466666Y-43116666D01*
X27533333Y-43250000D01*
X27533333Y-43516666D01*
X27466666Y-43650000D01*
X65732142Y-80753571D02*
X66589285Y-80753571D01*
X66160714Y-82253571D02*
X66160714Y-80753571D01*
X67017857Y-80896428D02*
X67089285Y-80825000D01*
X67232142Y-80753571D01*
X67589285Y-80753571D01*
X67732142Y-80825000D01*
X67803571Y-80896428D01*
X67875000Y-81039285D01*
X67875000Y-81182142D01*
X67803571Y-81396428D01*
X66946428Y-82253571D01*
X67875000Y-82253571D01*
X65657142Y-76703571D02*
X66514285Y-76703571D01*
X66085714Y-78203571D02*
X66085714Y-76703571D01*
X67800000Y-78203571D02*
X66942857Y-78203571D01*
X67371428Y-78203571D02*
X67371428Y-76703571D01*
X67228571Y-76917857D01*
X67085714Y-77060714D01*
X66942857Y-77132142D01*
D10*
X93579761Y-68865476D02*
X93627380Y-68722619D01*
X93627380Y-68484523D01*
X93579761Y-68389285D01*
X93532142Y-68341666D01*
X93436904Y-68294047D01*
X93341666Y-68294047D01*
X93246428Y-68341666D01*
X93198809Y-68389285D01*
X93151190Y-68484523D01*
X93103571Y-68675000D01*
X93055952Y-68770238D01*
X93008333Y-68817857D01*
X92913095Y-68865476D01*
X92817857Y-68865476D01*
X92722619Y-68817857D01*
X92675000Y-68770238D01*
X92627380Y-68675000D01*
X92627380Y-68436904D01*
X92675000Y-68294047D01*
X93532142Y-67294047D02*
X93579761Y-67341666D01*
X93627380Y-67484523D01*
X93627380Y-67579761D01*
X93579761Y-67722619D01*
X93484523Y-67817857D01*
X93389285Y-67865476D01*
X93198809Y-67913095D01*
X93055952Y-67913095D01*
X92865476Y-67865476D01*
X92770238Y-67817857D01*
X92675000Y-67722619D01*
X92627380Y-67579761D01*
X92627380Y-67484523D01*
X92675000Y-67341666D01*
X92722619Y-67294047D01*
X93627380Y-66389285D02*
X93627380Y-66865476D01*
X92627380Y-66865476D01*
X104563095Y-44400000D02*
X104467857Y-44352380D01*
X104325000Y-44352380D01*
X104182142Y-44400000D01*
X104086904Y-44495238D01*
X104039285Y-44590476D01*
X103991666Y-44780952D01*
X103991666Y-44923809D01*
X104039285Y-45114285D01*
X104086904Y-45209523D01*
X104182142Y-45304761D01*
X104325000Y-45352380D01*
X104420238Y-45352380D01*
X104563095Y-45304761D01*
X104610714Y-45257142D01*
X104610714Y-44923809D01*
X104420238Y-44923809D01*
X105039285Y-45352380D02*
X105039285Y-44352380D01*
X105610714Y-45352380D01*
X105610714Y-44352380D01*
X106086904Y-45352380D02*
X106086904Y-44352380D01*
X106325000Y-44352380D01*
X106467857Y-44400000D01*
X106563095Y-44495238D01*
X106610714Y-44590476D01*
X106658333Y-44780952D01*
X106658333Y-44923809D01*
X106610714Y-45114285D01*
X106563095Y-45209523D01*
X106467857Y-45304761D01*
X106325000Y-45352380D01*
X106086904Y-45352380D01*
X41013095Y-86375000D02*
X40917857Y-86327380D01*
X40775000Y-86327380D01*
X40632142Y-86375000D01*
X40536904Y-86470238D01*
X40489285Y-86565476D01*
X40441666Y-86755952D01*
X40441666Y-86898809D01*
X40489285Y-87089285D01*
X40536904Y-87184523D01*
X40632142Y-87279761D01*
X40775000Y-87327380D01*
X40870238Y-87327380D01*
X41013095Y-87279761D01*
X41060714Y-87232142D01*
X41060714Y-86898809D01*
X40870238Y-86898809D01*
X41489285Y-87327380D02*
X41489285Y-86327380D01*
X42060714Y-87327380D01*
X42060714Y-86327380D01*
X42536904Y-87327380D02*
X42536904Y-86327380D01*
X42775000Y-86327380D01*
X42917857Y-86375000D01*
X43013095Y-86470238D01*
X43060714Y-86565476D01*
X43108333Y-86755952D01*
X43108333Y-86898809D01*
X43060714Y-87089285D01*
X43013095Y-87184523D01*
X42917857Y-87279761D01*
X42775000Y-87327380D01*
X42536904Y-87327380D01*
D11*
X26896428Y-74803571D02*
X27182142Y-74803571D01*
X27325000Y-74875000D01*
X27467857Y-75017857D01*
X27539285Y-75303571D01*
X27539285Y-75803571D01*
X27467857Y-76089285D01*
X27325000Y-76232142D01*
X27182142Y-76303571D01*
X26896428Y-76303571D01*
X26753571Y-76232142D01*
X26610714Y-76089285D01*
X26539285Y-75803571D01*
X26539285Y-75303571D01*
X26610714Y-75017857D01*
X26753571Y-74875000D01*
X26896428Y-74803571D01*
X28182142Y-76303571D02*
X28182142Y-74803571D01*
X29039285Y-76303571D01*
X29039285Y-74803571D01*
D10*
X42802380Y-51086904D02*
X42802380Y-50467857D01*
X43183333Y-50801190D01*
X43183333Y-50658333D01*
X43230952Y-50563095D01*
X43278571Y-50515476D01*
X43373809Y-50467857D01*
X43611904Y-50467857D01*
X43707142Y-50515476D01*
X43754761Y-50563095D01*
X43802380Y-50658333D01*
X43802380Y-50944047D01*
X43754761Y-51039285D01*
X43707142Y-51086904D01*
X42802380Y-50182142D02*
X43802380Y-49848809D01*
X42802380Y-49515476D01*
X96179761Y-68889285D02*
X96227380Y-68746428D01*
X96227380Y-68508333D01*
X96179761Y-68413095D01*
X96132142Y-68365476D01*
X96036904Y-68317857D01*
X95941666Y-68317857D01*
X95846428Y-68365476D01*
X95798809Y-68413095D01*
X95751190Y-68508333D01*
X95703571Y-68698809D01*
X95655952Y-68794047D01*
X95608333Y-68841666D01*
X95513095Y-68889285D01*
X95417857Y-68889285D01*
X95322619Y-68841666D01*
X95275000Y-68794047D01*
X95227380Y-68698809D01*
X95227380Y-68460714D01*
X95275000Y-68317857D01*
X96227380Y-67889285D02*
X95227380Y-67889285D01*
X95227380Y-67651190D01*
X95275000Y-67508333D01*
X95370238Y-67413095D01*
X95465476Y-67365476D01*
X95655952Y-67317857D01*
X95798809Y-67317857D01*
X95989285Y-67365476D01*
X96084523Y-67413095D01*
X96179761Y-67508333D01*
X96227380Y-67651190D01*
X96227380Y-67889285D01*
X95941666Y-66936904D02*
X95941666Y-66460714D01*
X96227380Y-67032142D02*
X95227380Y-66698809D01*
X96227380Y-66365476D01*
D11*
X26571428Y-89353571D02*
X26857142Y-89353571D01*
X27000000Y-89425000D01*
X27142857Y-89567857D01*
X27214285Y-89853571D01*
X27214285Y-90353571D01*
X27142857Y-90639285D01*
X27000000Y-90782142D01*
X26857142Y-90853571D01*
X26571428Y-90853571D01*
X26428571Y-90782142D01*
X26285714Y-90639285D01*
X26214285Y-90353571D01*
X26214285Y-89853571D01*
X26285714Y-89567857D01*
X26428571Y-89425000D01*
X26571428Y-89353571D01*
X28357142Y-90067857D02*
X27857142Y-90067857D01*
X27857142Y-90853571D02*
X27857142Y-89353571D01*
X28571428Y-89353571D01*
X29642857Y-90067857D02*
X29142857Y-90067857D01*
X29142857Y-90853571D02*
X29142857Y-89353571D01*
X29857142Y-89353571D01*
D10*
X105475000Y-49736904D02*
X105427380Y-49832142D01*
X105427380Y-49975000D01*
X105475000Y-50117857D01*
X105570238Y-50213095D01*
X105665476Y-50260714D01*
X105855952Y-50308333D01*
X105998809Y-50308333D01*
X106189285Y-50260714D01*
X106284523Y-50213095D01*
X106379761Y-50117857D01*
X106427380Y-49975000D01*
X106427380Y-49879761D01*
X106379761Y-49736904D01*
X106332142Y-49689285D01*
X105998809Y-49689285D01*
X105998809Y-49879761D01*
X106427380Y-49260714D02*
X105427380Y-49260714D01*
X106427380Y-48689285D01*
X105427380Y-48689285D01*
X106427380Y-48213095D02*
X105427380Y-48213095D01*
X105427380Y-47975000D01*
X105475000Y-47832142D01*
X105570238Y-47736904D01*
X105665476Y-47689285D01*
X105855952Y-47641666D01*
X105998809Y-47641666D01*
X106189285Y-47689285D01*
X106284523Y-47736904D01*
X106379761Y-47832142D01*
X106427380Y-47975000D01*
X106427380Y-48213095D01*
X46613095Y-86375000D02*
X46517857Y-86327380D01*
X46375000Y-86327380D01*
X46232142Y-86375000D01*
X46136904Y-86470238D01*
X46089285Y-86565476D01*
X46041666Y-86755952D01*
X46041666Y-86898809D01*
X46089285Y-87089285D01*
X46136904Y-87184523D01*
X46232142Y-87279761D01*
X46375000Y-87327380D01*
X46470238Y-87327380D01*
X46613095Y-87279761D01*
X46660714Y-87232142D01*
X46660714Y-86898809D01*
X46470238Y-86898809D01*
X47089285Y-87327380D02*
X47089285Y-86327380D01*
X47660714Y-87327380D01*
X47660714Y-86327380D01*
X48136904Y-87327380D02*
X48136904Y-86327380D01*
X48375000Y-86327380D01*
X48517857Y-86375000D01*
X48613095Y-86470238D01*
X48660714Y-86565476D01*
X48708333Y-86755952D01*
X48708333Y-86898809D01*
X48660714Y-87089285D01*
X48613095Y-87184523D01*
X48517857Y-87279761D01*
X48375000Y-87327380D01*
X48136904Y-87327380D01*
X40150000Y-51705952D02*
X40102380Y-51801190D01*
X40102380Y-51944048D01*
X40150000Y-52086905D01*
X40245238Y-52182143D01*
X40340476Y-52229762D01*
X40530952Y-52277381D01*
X40673809Y-52277381D01*
X40864285Y-52229762D01*
X40959523Y-52182143D01*
X41054761Y-52086905D01*
X41102380Y-51944048D01*
X41102380Y-51848809D01*
X41054761Y-51705952D01*
X41007142Y-51658333D01*
X40673809Y-51658333D01*
X40673809Y-51848809D01*
X41102380Y-51229762D02*
X40102380Y-51229762D01*
X41102380Y-50658333D01*
X40102380Y-50658333D01*
X41102380Y-50182143D02*
X40102380Y-50182143D01*
X40102380Y-49944048D01*
X40150000Y-49801190D01*
X40245238Y-49705952D01*
X40340476Y-49658333D01*
X40530952Y-49610714D01*
X40673809Y-49610714D01*
X40864285Y-49658333D01*
X40959523Y-49705952D01*
X41054761Y-49801190D01*
X41102380Y-49944048D01*
X41102380Y-50182143D01*
X105705952Y-57252380D02*
X105134524Y-57252380D01*
X105420238Y-57252380D02*
X105420238Y-56252380D01*
X105325000Y-56395238D01*
X105229762Y-56490476D01*
X105134524Y-56538095D01*
X106086905Y-56347619D02*
X106134524Y-56300000D01*
X106229762Y-56252380D01*
X106467857Y-56252380D01*
X106563095Y-56300000D01*
X106610714Y-56347619D01*
X106658333Y-56442857D01*
X106658333Y-56538095D01*
X106610714Y-56680952D01*
X106039286Y-57252380D01*
X106658333Y-57252380D01*
X48804761Y-52039285D02*
X48852380Y-51896428D01*
X48852380Y-51658333D01*
X48804761Y-51563095D01*
X48757142Y-51515476D01*
X48661904Y-51467857D01*
X48566666Y-51467857D01*
X48471428Y-51515476D01*
X48423809Y-51563095D01*
X48376190Y-51658333D01*
X48328571Y-51848809D01*
X48280952Y-51944047D01*
X48233333Y-51991666D01*
X48138095Y-52039285D01*
X48042857Y-52039285D01*
X47947619Y-51991666D01*
X47900000Y-51944047D01*
X47852380Y-51848809D01*
X47852380Y-51610714D01*
X47900000Y-51467857D01*
X48852380Y-51039285D02*
X47852380Y-51039285D01*
X47852380Y-50801190D01*
X47900000Y-50658333D01*
X47995238Y-50563095D01*
X48090476Y-50515476D01*
X48280952Y-50467857D01*
X48423809Y-50467857D01*
X48614285Y-50515476D01*
X48709523Y-50563095D01*
X48804761Y-50658333D01*
X48852380Y-50801190D01*
X48852380Y-51039285D01*
X48566666Y-50086904D02*
X48566666Y-49610714D01*
X48852380Y-50182142D02*
X47852380Y-49848809D01*
X48852380Y-49515476D01*
X46304761Y-51991667D02*
X46352380Y-51848810D01*
X46352380Y-51610714D01*
X46304761Y-51515476D01*
X46257142Y-51467857D01*
X46161904Y-51420238D01*
X46066666Y-51420238D01*
X45971428Y-51467857D01*
X45923809Y-51515476D01*
X45876190Y-51610714D01*
X45828571Y-51801191D01*
X45780952Y-51896429D01*
X45733333Y-51944048D01*
X45638095Y-51991667D01*
X45542857Y-51991667D01*
X45447619Y-51944048D01*
X45400000Y-51896429D01*
X45352380Y-51801191D01*
X45352380Y-51563095D01*
X45400000Y-51420238D01*
X46257142Y-50420238D02*
X46304761Y-50467857D01*
X46352380Y-50610714D01*
X46352380Y-50705952D01*
X46304761Y-50848810D01*
X46209523Y-50944048D01*
X46114285Y-50991667D01*
X45923809Y-51039286D01*
X45780952Y-51039286D01*
X45590476Y-50991667D01*
X45495238Y-50944048D01*
X45400000Y-50848810D01*
X45352380Y-50705952D01*
X45352380Y-50610714D01*
X45400000Y-50467857D01*
X45447619Y-50420238D01*
X46352380Y-49515476D02*
X46352380Y-49991667D01*
X45352380Y-49991667D01*
X52027381Y-86327380D02*
X52646428Y-86327380D01*
X52313095Y-86708333D01*
X52455952Y-86708333D01*
X52551190Y-86755952D01*
X52598809Y-86803571D01*
X52646428Y-86898809D01*
X52646428Y-87136904D01*
X52598809Y-87232142D01*
X52551190Y-87279761D01*
X52455952Y-87327380D01*
X52170238Y-87327380D01*
X52075000Y-87279761D01*
X52027381Y-87232142D01*
X52932143Y-86327380D02*
X53265476Y-87327380D01*
X53598809Y-86327380D01*
X104563095Y-26375000D02*
X104467857Y-26327380D01*
X104325000Y-26327380D01*
X104182142Y-26375000D01*
X104086904Y-26470238D01*
X104039285Y-26565476D01*
X103991666Y-26755952D01*
X103991666Y-26898809D01*
X104039285Y-27089285D01*
X104086904Y-27184523D01*
X104182142Y-27279761D01*
X104325000Y-27327380D01*
X104420238Y-27327380D01*
X104563095Y-27279761D01*
X104610714Y-27232142D01*
X104610714Y-26898809D01*
X104420238Y-26898809D01*
X105039285Y-27327380D02*
X105039285Y-26327380D01*
X105610714Y-27327380D01*
X105610714Y-26327380D01*
X106086904Y-27327380D02*
X106086904Y-26327380D01*
X106325000Y-26327380D01*
X106467857Y-26375000D01*
X106563095Y-26470238D01*
X106610714Y-26565476D01*
X106658333Y-26755952D01*
X106658333Y-26898809D01*
X106610714Y-27089285D01*
X106563095Y-27184523D01*
X106467857Y-27279761D01*
X106325000Y-27327380D01*
X106086904Y-27327380D01*
X57489285Y-87327380D02*
X57155952Y-86851190D01*
X56917856Y-87327380D02*
X56917856Y-86327380D01*
X57298809Y-86327380D01*
X57394047Y-86375000D01*
X57441666Y-86422619D01*
X57489285Y-86517857D01*
X57489285Y-86660714D01*
X57441666Y-86755952D01*
X57394047Y-86803571D01*
X57298809Y-86851190D01*
X56917856Y-86851190D01*
X57822618Y-86327380D02*
X58489285Y-87327380D01*
X58489285Y-86327380D02*
X57822618Y-87327380D01*
X34632142Y-86327380D02*
X34965476Y-87327380D01*
X35298809Y-86327380D01*
X35632142Y-86803571D02*
X35965476Y-86803571D01*
X36108333Y-87327380D02*
X35632142Y-87327380D01*
X35632142Y-86327380D01*
X36108333Y-86327380D01*
X36441666Y-86327380D02*
X37108333Y-87327380D01*
X37108333Y-86327380D02*
X36441666Y-87327380D01*
X37346428Y-86327380D02*
X37917857Y-86327380D01*
X37632142Y-87327380D02*
X37632142Y-86327380D01*
X68513095Y-86327380D02*
X69132142Y-86327380D01*
X68798809Y-86708333D01*
X68941666Y-86708333D01*
X69036904Y-86755952D01*
X69084523Y-86803571D01*
X69132142Y-86898809D01*
X69132142Y-87136904D01*
X69084523Y-87232142D01*
X69036904Y-87279761D01*
X68941666Y-87327380D01*
X68655952Y-87327380D01*
X68560714Y-87279761D01*
X68513095Y-87232142D01*
X69417857Y-86327380D02*
X69751190Y-87327380D01*
X70084523Y-86327380D01*
X90321428Y-95132142D02*
X90664285Y-95132142D01*
X90450000Y-94832142D02*
X90450000Y-95603571D01*
X90492857Y-95689285D01*
X90578571Y-95732142D01*
X90664285Y-95732142D01*
X90964285Y-95132142D02*
X90964285Y-96032142D01*
X90964285Y-95175000D02*
X91050000Y-95132142D01*
X91221428Y-95132142D01*
X91307142Y-95175000D01*
X91350000Y-95217857D01*
X91392857Y-95303571D01*
X91392857Y-95560714D01*
X91350000Y-95646428D01*
X91307142Y-95689285D01*
X91221428Y-95732142D01*
X91050000Y-95732142D01*
X90964285Y-95689285D01*
X91907142Y-95732142D02*
X91821428Y-95689285D01*
X91778571Y-95603571D01*
X91778571Y-94832142D01*
X92678571Y-94832142D02*
X92250000Y-94832142D01*
X92207142Y-95260714D01*
X92250000Y-95217857D01*
X92335714Y-95175000D01*
X92550000Y-95175000D01*
X92635714Y-95217857D01*
X92678571Y-95260714D01*
X92721428Y-95346428D01*
X92721428Y-95560714D01*
X92678571Y-95646428D01*
X92635714Y-95689285D01*
X92550000Y-95732142D01*
X92335714Y-95732142D01*
X92250000Y-95689285D01*
X92207142Y-95646428D01*
X93578571Y-95732142D02*
X93064285Y-95732142D01*
X93321428Y-95732142D02*
X93321428Y-94832142D01*
X93235714Y-94960714D01*
X93150000Y-95046428D01*
X93064285Y-95089285D01*
X94435714Y-95732142D02*
X93921428Y-95732142D01*
X94178571Y-95732142D02*
X94178571Y-94832142D01*
X94092857Y-94960714D01*
X94007142Y-95046428D01*
X93921428Y-95089285D01*
X94992857Y-94832142D02*
X95078571Y-94832142D01*
X95164285Y-94875000D01*
X95207142Y-94917857D01*
X95250000Y-95003571D01*
X95292857Y-95175000D01*
X95292857Y-95389285D01*
X95250000Y-95560714D01*
X95207142Y-95646428D01*
X95164285Y-95689285D01*
X95078571Y-95732142D01*
X94992857Y-95732142D01*
X94907142Y-95689285D01*
X94864285Y-95646428D01*
X94821428Y-95560714D01*
X94778571Y-95389285D01*
X94778571Y-95175000D01*
X94821428Y-95003571D01*
X94864285Y-94917857D01*
X94907142Y-94875000D01*
X94992857Y-94832142D01*
X61713095Y-86327380D02*
X62284523Y-86327380D01*
X61998809Y-87327380D02*
X61998809Y-86327380D01*
X62522619Y-86327380D02*
X63189285Y-87327380D01*
X63189285Y-86327380D02*
X62522619Y-87327380D01*
X105705952Y-59702380D02*
X105134524Y-59702380D01*
X105420238Y-59702380D02*
X105420238Y-58702380D01*
X105325000Y-58845238D01*
X105229762Y-58940476D01*
X105134524Y-58988095D01*
X106658333Y-59702380D02*
X106086905Y-59702380D01*
X106372619Y-59702380D02*
X106372619Y-58702380D01*
X106277381Y-58845238D01*
X106182143Y-58940476D01*
X106086905Y-58988095D01*
X105229762Y-32066666D02*
X105705952Y-32066666D01*
X105134524Y-32352380D02*
X105467857Y-31352380D01*
X105801190Y-32352380D01*
X106658333Y-32352380D02*
X106086905Y-32352380D01*
X106372619Y-32352380D02*
X106372619Y-31352380D01*
X106277381Y-31495238D01*
X106182143Y-31590476D01*
X106086905Y-31638095D01*
D11*
X104557142Y-87253571D02*
X104914285Y-88253571D01*
X105271428Y-87253571D01*
X106128571Y-86753571D02*
X106271428Y-86753571D01*
X106414285Y-86825000D01*
X106485714Y-86896428D01*
X106557142Y-87039285D01*
X106628571Y-87325000D01*
X106628571Y-87682142D01*
X106557142Y-87967857D01*
X106485714Y-88110714D01*
X106414285Y-88182142D01*
X106271428Y-88253571D01*
X106128571Y-88253571D01*
X105985714Y-88182142D01*
X105914285Y-88110714D01*
X105842857Y-87967857D01*
X105771428Y-87682142D01*
X105771428Y-87325000D01*
X105842857Y-87039285D01*
X105914285Y-86896428D01*
X105985714Y-86825000D01*
X106128571Y-86753571D01*
X107271428Y-88110714D02*
X107342857Y-88182142D01*
X107271428Y-88253571D01*
X107200000Y-88182142D01*
X107271428Y-88110714D01*
X107271428Y-88253571D01*
X107842857Y-86753571D02*
X108771428Y-86753571D01*
X108271428Y-87325000D01*
X108485714Y-87325000D01*
X108628571Y-87396428D01*
X108700000Y-87467857D01*
X108771428Y-87610714D01*
X108771428Y-87967857D01*
X108700000Y-88110714D01*
X108628571Y-88182142D01*
X108485714Y-88253571D01*
X108057142Y-88253571D01*
X107914285Y-88182142D01*
X107842857Y-88110714D01*
D10*
X104229762Y-28852380D02*
X104563095Y-29852380D01*
X104896428Y-28852380D01*
X105229762Y-29328571D02*
X105563095Y-29328571D01*
X105705952Y-29852380D02*
X105229762Y-29852380D01*
X105229762Y-28852380D01*
X105705952Y-28852380D01*
X106039286Y-28852380D02*
X106705952Y-29852380D01*
X106705952Y-28852380D02*
X106039286Y-29852380D01*
X73336904Y-87327380D02*
X73336904Y-86327380D01*
X73575000Y-86327380D01*
X73717857Y-86375000D01*
X73813095Y-86470238D01*
X73860714Y-86565476D01*
X73908333Y-86755952D01*
X73908333Y-86898809D01*
X73860714Y-87089285D01*
X73813095Y-87184523D01*
X73717857Y-87279761D01*
X73575000Y-87327380D01*
X73336904Y-87327380D01*
X74813095Y-86327380D02*
X74336904Y-86327380D01*
X74289285Y-86803571D01*
X74336904Y-86755952D01*
X74432142Y-86708333D01*
X74670238Y-86708333D01*
X74765476Y-86755952D01*
X74813095Y-86803571D01*
X74860714Y-86898809D01*
X74860714Y-87136904D01*
X74813095Y-87232142D01*
X74765476Y-87279761D01*
X74670238Y-87327380D01*
X74432142Y-87327380D01*
X74336904Y-87279761D01*
X74289285Y-87232142D01*
X78713095Y-86375000D02*
X78617857Y-86327380D01*
X78475000Y-86327380D01*
X78332142Y-86375000D01*
X78236904Y-86470238D01*
X78189285Y-86565476D01*
X78141666Y-86755952D01*
X78141666Y-86898809D01*
X78189285Y-87089285D01*
X78236904Y-87184523D01*
X78332142Y-87279761D01*
X78475000Y-87327380D01*
X78570238Y-87327380D01*
X78713095Y-87279761D01*
X78760714Y-87232142D01*
X78760714Y-86898809D01*
X78570238Y-86898809D01*
X79189285Y-87327380D02*
X79189285Y-86327380D01*
X79760714Y-87327380D01*
X79760714Y-86327380D01*
X80236904Y-87327380D02*
X80236904Y-86327380D01*
X80475000Y-86327380D01*
X80617857Y-86375000D01*
X80713095Y-86470238D01*
X80760714Y-86565476D01*
X80808333Y-86755952D01*
X80808333Y-86898809D01*
X80760714Y-87089285D01*
X80713095Y-87184523D01*
X80617857Y-87279761D01*
X80475000Y-87327380D01*
X80236904Y-87327380D01*
X67332142Y-52232142D02*
X67332142Y-51760714D01*
X67289285Y-51675000D01*
X67203571Y-51632142D01*
X67032142Y-51632142D01*
X66946428Y-51675000D01*
X67332142Y-52189285D02*
X67246428Y-52232142D01*
X67032142Y-52232142D01*
X66946428Y-52189285D01*
X66903571Y-52103571D01*
X66903571Y-52017857D01*
X66946428Y-51932142D01*
X67032142Y-51889285D01*
X67246428Y-51889285D01*
X67332142Y-51846428D01*
X68146428Y-52232142D02*
X68146428Y-51332142D01*
X68146428Y-52189285D02*
X68060714Y-52232142D01*
X67889285Y-52232142D01*
X67803571Y-52189285D01*
X67760714Y-52146428D01*
X67717857Y-52060714D01*
X67717857Y-51803571D01*
X67760714Y-51717857D01*
X67803571Y-51675000D01*
X67889285Y-51632142D01*
X68060714Y-51632142D01*
X68146428Y-51675000D01*
X68532142Y-52189285D02*
X68617857Y-52232142D01*
X68789285Y-52232142D01*
X68875000Y-52189285D01*
X68917857Y-52103571D01*
X68917857Y-52060714D01*
X68875000Y-51975000D01*
X68789285Y-51932142D01*
X68660714Y-51932142D01*
X68575000Y-51889285D01*
X68532142Y-51803571D01*
X68532142Y-51760714D01*
X68575000Y-51675000D01*
X68660714Y-51632142D01*
X68789285Y-51632142D01*
X68875000Y-51675000D01*
X69775000Y-52232142D02*
X69260714Y-52232142D01*
X69517857Y-52232142D02*
X69517857Y-51332142D01*
X69432142Y-51460714D01*
X69346428Y-51546428D01*
X69260714Y-51589285D01*
X70632142Y-52232142D02*
X70117857Y-52232142D01*
X70375000Y-52232142D02*
X70375000Y-51332142D01*
X70289285Y-51460714D01*
X70203571Y-51546428D01*
X70117857Y-51589285D01*
X71489285Y-52232142D02*
X70975000Y-52232142D01*
X71232142Y-52232142D02*
X71232142Y-51332142D01*
X71146428Y-51460714D01*
X71060714Y-51546428D01*
X70975000Y-51589285D01*
X72303571Y-51332142D02*
X71875000Y-51332142D01*
X71832142Y-51760714D01*
X71875000Y-51717857D01*
X71960714Y-51675000D01*
X72175000Y-51675000D01*
X72260714Y-51717857D01*
X72303571Y-51760714D01*
X72346428Y-51846428D01*
X72346428Y-52060714D01*
X72303571Y-52146428D01*
X72260714Y-52189285D01*
X72175000Y-52232142D01*
X71960714Y-52232142D01*
X71875000Y-52189285D01*
X71832142Y-52146428D01*
X105182143Y-53727380D02*
X105801190Y-53727380D01*
X105467857Y-54108333D01*
X105610714Y-54108333D01*
X105705952Y-54155952D01*
X105753571Y-54203571D01*
X105801190Y-54298809D01*
X105801190Y-54536904D01*
X105753571Y-54632142D01*
X105705952Y-54679761D01*
X105610714Y-54727380D01*
X105325000Y-54727380D01*
X105229762Y-54679761D01*
X105182143Y-54632142D01*
X106086905Y-53727380D02*
X106420238Y-54727380D01*
X106753571Y-53727380D01*
X72363095Y-64227380D02*
X72982142Y-64227380D01*
X72648809Y-64608333D01*
X72791666Y-64608333D01*
X72886904Y-64655952D01*
X72934523Y-64703571D01*
X72982142Y-64798809D01*
X72982142Y-65036904D01*
X72934523Y-65132142D01*
X72886904Y-65179761D01*
X72791666Y-65227380D01*
X72505952Y-65227380D01*
X72410714Y-65179761D01*
X72363095Y-65132142D01*
X73267857Y-64227380D02*
X73601190Y-65227380D01*
X73934523Y-64227380D01*
X89838095Y-51702380D02*
X90457142Y-51702380D01*
X90123809Y-52083333D01*
X90266666Y-52083333D01*
X90361904Y-52130952D01*
X90409523Y-52178571D01*
X90457142Y-52273809D01*
X90457142Y-52511904D01*
X90409523Y-52607142D01*
X90361904Y-52654761D01*
X90266666Y-52702380D01*
X89980952Y-52702380D01*
X89885714Y-52654761D01*
X89838095Y-52607142D01*
X90742857Y-51702380D02*
X91076190Y-52702380D01*
X91409523Y-51702380D01*
%TO.C,J3*%
X97572380Y-76533333D02*
X98286666Y-76533333D01*
X98429523Y-76580952D01*
X98524761Y-76676190D01*
X98572380Y-76819047D01*
X98572380Y-76914285D01*
X97572380Y-76152380D02*
X97572380Y-75533333D01*
X97953333Y-75866666D01*
X97953333Y-75723809D01*
X98000952Y-75628571D01*
X98048571Y-75580952D01*
X98143809Y-75533333D01*
X98381904Y-75533333D01*
X98477142Y-75580952D01*
X98524761Y-75628571D01*
X98572380Y-75723809D01*
X98572380Y-76009523D01*
X98524761Y-76104761D01*
X98477142Y-76152380D01*
%TO.C,J5*%
X71291666Y-88677380D02*
X71291666Y-89391666D01*
X71244047Y-89534523D01*
X71148809Y-89629761D01*
X71005952Y-89677380D01*
X70910714Y-89677380D01*
X72244047Y-88677380D02*
X71767857Y-88677380D01*
X71720238Y-89153571D01*
X71767857Y-89105952D01*
X71863095Y-89058333D01*
X72101190Y-89058333D01*
X72196428Y-89105952D01*
X72244047Y-89153571D01*
X72291666Y-89248809D01*
X72291666Y-89486904D01*
X72244047Y-89582142D01*
X72196428Y-89629761D01*
X72101190Y-89677380D01*
X71863095Y-89677380D01*
X71767857Y-89629761D01*
X71720238Y-89582142D01*
%TO.C,J4*%
X51027380Y-76408333D02*
X51741666Y-76408333D01*
X51884523Y-76455952D01*
X51979761Y-76551190D01*
X52027380Y-76694047D01*
X52027380Y-76789285D01*
X51360714Y-75503571D02*
X52027380Y-75503571D01*
X50979761Y-75741666D02*
X51694047Y-75979761D01*
X51694047Y-75360714D01*
%TO.C,J1*%
X35952380Y-83383333D02*
X36666666Y-83383333D01*
X36809523Y-83430952D01*
X36904761Y-83526190D01*
X36952380Y-83669047D01*
X36952380Y-83764285D01*
X36952380Y-82383333D02*
X36952380Y-82954761D01*
X36952380Y-82669047D02*
X35952380Y-82669047D01*
X36095238Y-82764285D01*
X36190476Y-82859523D01*
X36238095Y-82954761D01*
%TO.C,J2*%
X38041666Y-88702380D02*
X38041666Y-89416666D01*
X37994047Y-89559523D01*
X37898809Y-89654761D01*
X37755952Y-89702380D01*
X37660714Y-89702380D01*
X38470238Y-88797619D02*
X38517857Y-88750000D01*
X38613095Y-88702380D01*
X38851190Y-88702380D01*
X38946428Y-88750000D01*
X38994047Y-88797619D01*
X39041666Y-88892857D01*
X39041666Y-88988095D01*
X38994047Y-89130952D01*
X38422619Y-89702380D01*
X39041666Y-89702380D01*
%TO.C,J6*%
X108416666Y-23552380D02*
X108416666Y-24266666D01*
X108369047Y-24409523D01*
X108273809Y-24504761D01*
X108130952Y-24552380D01*
X108035714Y-24552380D01*
X109321428Y-23552380D02*
X109130952Y-23552380D01*
X109035714Y-23600000D01*
X108988095Y-23647619D01*
X108892857Y-23790476D01*
X108845238Y-23980952D01*
X108845238Y-24361904D01*
X108892857Y-24457142D01*
X108940476Y-24504761D01*
X109035714Y-24552380D01*
X109226190Y-24552380D01*
X109321428Y-24504761D01*
X109369047Y-24457142D01*
X109416666Y-24361904D01*
X109416666Y-24123809D01*
X109369047Y-24028571D01*
X109321428Y-23980952D01*
X109226190Y-23933333D01*
X109035714Y-23933333D01*
X108940476Y-23980952D01*
X108892857Y-24028571D01*
X108845238Y-24123809D01*
%TO.C,J7*%
X67204166Y-53527380D02*
X67204166Y-54241666D01*
X67156547Y-54384523D01*
X67061309Y-54479761D01*
X66918452Y-54527380D01*
X66823214Y-54527380D01*
X67585119Y-53527380D02*
X68251785Y-53527380D01*
X67823214Y-54527380D01*
%TO.C,J8*%
X108166666Y-63977380D02*
X108166666Y-64691666D01*
X108119047Y-64834523D01*
X108023809Y-64929761D01*
X107880952Y-64977380D01*
X107785714Y-64977380D01*
X108785714Y-64405952D02*
X108690476Y-64358333D01*
X108642857Y-64310714D01*
X108595238Y-64215476D01*
X108595238Y-64167857D01*
X108642857Y-64072619D01*
X108690476Y-64025000D01*
X108785714Y-63977380D01*
X108976190Y-63977380D01*
X109071428Y-64025000D01*
X109119047Y-64072619D01*
X109166666Y-64167857D01*
X109166666Y-64215476D01*
X109119047Y-64310714D01*
X109071428Y-64358333D01*
X108976190Y-64405952D01*
X108785714Y-64405952D01*
X108690476Y-64453571D01*
X108642857Y-64501190D01*
X108595238Y-64596428D01*
X108595238Y-64786904D01*
X108642857Y-64882142D01*
X108690476Y-64929761D01*
X108785714Y-64977380D01*
X108976190Y-64977380D01*
X109071428Y-64929761D01*
X109119047Y-64882142D01*
X109166666Y-64786904D01*
X109166666Y-64596428D01*
X109119047Y-64501190D01*
X109071428Y-64453571D01*
X108976190Y-64405952D01*
%TO.C,J9*%
X54791666Y-88552380D02*
X54791666Y-89266666D01*
X54744047Y-89409523D01*
X54648809Y-89504761D01*
X54505952Y-89552380D01*
X54410714Y-89552380D01*
X55315476Y-89552380D02*
X55505952Y-89552380D01*
X55601190Y-89504761D01*
X55648809Y-89457142D01*
X55744047Y-89314285D01*
X55791666Y-89123809D01*
X55791666Y-88742857D01*
X55744047Y-88647619D01*
X55696428Y-88600000D01*
X55601190Y-88552380D01*
X55410714Y-88552380D01*
X55315476Y-88600000D01*
X55267857Y-88647619D01*
X55220238Y-88742857D01*
X55220238Y-88980952D01*
X55267857Y-89076190D01*
X55315476Y-89123809D01*
X55410714Y-89171428D01*
X55601190Y-89171428D01*
X55696428Y-89123809D01*
X55744047Y-89076190D01*
X55791666Y-88980952D01*
%TO.C,J10*%
X36940476Y-34052380D02*
X36940476Y-34766666D01*
X36892857Y-34909523D01*
X36797619Y-35004761D01*
X36654761Y-35052380D01*
X36559523Y-35052380D01*
X37940476Y-35052380D02*
X37369047Y-35052380D01*
X37654761Y-35052380D02*
X37654761Y-34052380D01*
X37559523Y-34195238D01*
X37464285Y-34290476D01*
X37369047Y-34338095D01*
X38559523Y-34052380D02*
X38654761Y-34052380D01*
X38750000Y-34100000D01*
X38797619Y-34147619D01*
X38845238Y-34242857D01*
X38892857Y-34433333D01*
X38892857Y-34671428D01*
X38845238Y-34861904D01*
X38797619Y-34957142D01*
X38750000Y-35004761D01*
X38654761Y-35052380D01*
X38559523Y-35052380D01*
X38464285Y-35004761D01*
X38416666Y-34957142D01*
X38369047Y-34861904D01*
X38321428Y-34671428D01*
X38321428Y-34433333D01*
X38369047Y-34242857D01*
X38416666Y-34147619D01*
X38464285Y-34100000D01*
X38559523Y-34052380D01*
%TO.C,JP3*%
X103266666Y-75877380D02*
X103266666Y-76591666D01*
X103219047Y-76734523D01*
X103123809Y-76829761D01*
X102980952Y-76877380D01*
X102885714Y-76877380D01*
X103742857Y-76877380D02*
X103742857Y-75877380D01*
X104123809Y-75877380D01*
X104219047Y-75925000D01*
X104266666Y-75972619D01*
X104314285Y-76067857D01*
X104314285Y-76210714D01*
X104266666Y-76305952D01*
X104219047Y-76353571D01*
X104123809Y-76401190D01*
X103742857Y-76401190D01*
X104647619Y-75877380D02*
X105266666Y-75877380D01*
X104933333Y-76258333D01*
X105076190Y-76258333D01*
X105171428Y-76305952D01*
X105219047Y-76353571D01*
X105266666Y-76448809D01*
X105266666Y-76686904D01*
X105219047Y-76782142D01*
X105171428Y-76829761D01*
X105076190Y-76877380D01*
X104790476Y-76877380D01*
X104695238Y-76829761D01*
X104647619Y-76782142D01*
%TO.C,S2*%
X27213095Y-88134761D02*
X27355952Y-88182380D01*
X27594047Y-88182380D01*
X27689285Y-88134761D01*
X27736904Y-88087142D01*
X27784523Y-87991904D01*
X27784523Y-87896666D01*
X27736904Y-87801428D01*
X27689285Y-87753809D01*
X27594047Y-87706190D01*
X27403571Y-87658571D01*
X27308333Y-87610952D01*
X27260714Y-87563333D01*
X27213095Y-87468095D01*
X27213095Y-87372857D01*
X27260714Y-87277619D01*
X27308333Y-87230000D01*
X27403571Y-87182380D01*
X27641666Y-87182380D01*
X27784523Y-87230000D01*
X28165476Y-87277619D02*
X28213095Y-87230000D01*
X28308333Y-87182380D01*
X28546428Y-87182380D01*
X28641666Y-87230000D01*
X28689285Y-87277619D01*
X28736904Y-87372857D01*
X28736904Y-87468095D01*
X28689285Y-87610952D01*
X28117857Y-88182380D01*
X28736904Y-88182380D01*
%TO.C,R15*%
X74957142Y-47652380D02*
X74623809Y-47176190D01*
X74385714Y-47652380D02*
X74385714Y-46652380D01*
X74766666Y-46652380D01*
X74861904Y-46700000D01*
X74909523Y-46747619D01*
X74957142Y-46842857D01*
X74957142Y-46985714D01*
X74909523Y-47080952D01*
X74861904Y-47128571D01*
X74766666Y-47176190D01*
X74385714Y-47176190D01*
X75909523Y-47652380D02*
X75338095Y-47652380D01*
X75623809Y-47652380D02*
X75623809Y-46652380D01*
X75528571Y-46795238D01*
X75433333Y-46890476D01*
X75338095Y-46938095D01*
X76814285Y-46652380D02*
X76338095Y-46652380D01*
X76290476Y-47128571D01*
X76338095Y-47080952D01*
X76433333Y-47033333D01*
X76671428Y-47033333D01*
X76766666Y-47080952D01*
X76814285Y-47128571D01*
X76861904Y-47223809D01*
X76861904Y-47461904D01*
X76814285Y-47557142D01*
X76766666Y-47604761D01*
X76671428Y-47652380D01*
X76433333Y-47652380D01*
X76338095Y-47604761D01*
X76290476Y-47557142D01*
%TO.C,U1*%
X91863095Y-93227380D02*
X91863095Y-94036904D01*
X91910714Y-94132142D01*
X91958333Y-94179761D01*
X92053571Y-94227380D01*
X92244047Y-94227380D01*
X92339285Y-94179761D01*
X92386904Y-94132142D01*
X92434523Y-94036904D01*
X92434523Y-93227380D01*
X93434523Y-94227380D02*
X92863095Y-94227380D01*
X93148809Y-94227380D02*
X93148809Y-93227380D01*
X93053571Y-93370238D01*
X92958333Y-93465476D01*
X92863095Y-93513095D01*
%TO.C,R19*%
X31332142Y-62892380D02*
X30998809Y-62416190D01*
X30760714Y-62892380D02*
X30760714Y-61892380D01*
X31141666Y-61892380D01*
X31236904Y-61940000D01*
X31284523Y-61987619D01*
X31332142Y-62082857D01*
X31332142Y-62225714D01*
X31284523Y-62320952D01*
X31236904Y-62368571D01*
X31141666Y-62416190D01*
X30760714Y-62416190D01*
X32284523Y-62892380D02*
X31713095Y-62892380D01*
X31998809Y-62892380D02*
X31998809Y-61892380D01*
X31903571Y-62035238D01*
X31808333Y-62130476D01*
X31713095Y-62178095D01*
X32760714Y-62892380D02*
X32951190Y-62892380D01*
X33046428Y-62844761D01*
X33094047Y-62797142D01*
X33189285Y-62654285D01*
X33236904Y-62463809D01*
X33236904Y-62082857D01*
X33189285Y-61987619D01*
X33141666Y-61940000D01*
X33046428Y-61892380D01*
X32855952Y-61892380D01*
X32760714Y-61940000D01*
X32713095Y-61987619D01*
X32665476Y-62082857D01*
X32665476Y-62320952D01*
X32713095Y-62416190D01*
X32760714Y-62463809D01*
X32855952Y-62511428D01*
X33046428Y-62511428D01*
X33141666Y-62463809D01*
X33189285Y-62416190D01*
X33236904Y-62320952D01*
%TO.C,D1*%
X33091904Y-82362380D02*
X33091904Y-81362380D01*
X33330000Y-81362380D01*
X33472857Y-81410000D01*
X33568095Y-81505238D01*
X33615714Y-81600476D01*
X33663333Y-81790952D01*
X33663333Y-81933809D01*
X33615714Y-82124285D01*
X33568095Y-82219523D01*
X33472857Y-82314761D01*
X33330000Y-82362380D01*
X33091904Y-82362380D01*
X34615714Y-82362380D02*
X34044285Y-82362380D01*
X34330000Y-82362380D02*
X34330000Y-81362380D01*
X34234761Y-81505238D01*
X34139523Y-81600476D01*
X34044285Y-81648095D01*
%TO.C,U6*%
X90788095Y-57377380D02*
X90788095Y-58186904D01*
X90835714Y-58282142D01*
X90883333Y-58329761D01*
X90978571Y-58377380D01*
X91169047Y-58377380D01*
X91264285Y-58329761D01*
X91311904Y-58282142D01*
X91359523Y-58186904D01*
X91359523Y-57377380D01*
X92264285Y-57377380D02*
X92073809Y-57377380D01*
X91978571Y-57425000D01*
X91930952Y-57472619D01*
X91835714Y-57615476D01*
X91788095Y-57805952D01*
X91788095Y-58186904D01*
X91835714Y-58282142D01*
X91883333Y-58329761D01*
X91978571Y-58377380D01*
X92169047Y-58377380D01*
X92264285Y-58329761D01*
X92311904Y-58282142D01*
X92359523Y-58186904D01*
X92359523Y-57948809D01*
X92311904Y-57853571D01*
X92264285Y-57805952D01*
X92169047Y-57758333D01*
X91978571Y-57758333D01*
X91883333Y-57805952D01*
X91835714Y-57853571D01*
X91788095Y-57948809D01*
X86196428Y-60277380D02*
X86196428Y-59753571D01*
X86148809Y-59658333D01*
X86053571Y-59610714D01*
X85863095Y-59610714D01*
X85767857Y-59658333D01*
X86196428Y-60229761D02*
X86101190Y-60277380D01*
X85863095Y-60277380D01*
X85767857Y-60229761D01*
X85720238Y-60134523D01*
X85720238Y-60039285D01*
X85767857Y-59944047D01*
X85863095Y-59896428D01*
X86101190Y-59896428D01*
X86196428Y-59848809D01*
X87101190Y-60277380D02*
X87101190Y-59277380D01*
X87101190Y-60229761D02*
X87005952Y-60277380D01*
X86815476Y-60277380D01*
X86720238Y-60229761D01*
X86672619Y-60182142D01*
X86625000Y-60086904D01*
X86625000Y-59801190D01*
X86672619Y-59705952D01*
X86720238Y-59658333D01*
X86815476Y-59610714D01*
X87005952Y-59610714D01*
X87101190Y-59658333D01*
X88005952Y-60277380D02*
X88005952Y-59753571D01*
X87958333Y-59658333D01*
X87863095Y-59610714D01*
X87672619Y-59610714D01*
X87577380Y-59658333D01*
X88005952Y-60229761D02*
X87910714Y-60277380D01*
X87672619Y-60277380D01*
X87577380Y-60229761D01*
X87529761Y-60134523D01*
X87529761Y-60039285D01*
X87577380Y-59944047D01*
X87672619Y-59896428D01*
X87910714Y-59896428D01*
X88005952Y-59848809D01*
X88339285Y-59610714D02*
X88720238Y-59610714D01*
X88482142Y-60277380D02*
X88482142Y-59420238D01*
X88529761Y-59325000D01*
X88625000Y-59277380D01*
X88720238Y-59277380D01*
X89053571Y-60277380D02*
X89053571Y-59610714D01*
X89053571Y-59801190D02*
X89101190Y-59705952D01*
X89148809Y-59658333D01*
X89244047Y-59610714D01*
X89339285Y-59610714D01*
X90101190Y-59610714D02*
X90101190Y-60277380D01*
X89672619Y-59610714D02*
X89672619Y-60134523D01*
X89720238Y-60229761D01*
X89815476Y-60277380D01*
X89958333Y-60277380D01*
X90053571Y-60229761D01*
X90101190Y-60182142D01*
X90577380Y-60277380D02*
X90577380Y-59610714D01*
X90577380Y-59277380D02*
X90529761Y-59325000D01*
X90577380Y-59372619D01*
X90625000Y-59325000D01*
X90577380Y-59277380D01*
X90577380Y-59372619D01*
X90910714Y-59610714D02*
X91291666Y-59610714D01*
X91053571Y-59277380D02*
X91053571Y-60134523D01*
X91101190Y-60229761D01*
X91196428Y-60277380D01*
X91291666Y-60277380D01*
X92386904Y-60277380D02*
X92386904Y-59610714D01*
X92386904Y-59705952D02*
X92434523Y-59658333D01*
X92529761Y-59610714D01*
X92672619Y-59610714D01*
X92767857Y-59658333D01*
X92815476Y-59753571D01*
X92815476Y-60277380D01*
X92815476Y-59753571D02*
X92863095Y-59658333D01*
X92958333Y-59610714D01*
X93101190Y-59610714D01*
X93196428Y-59658333D01*
X93244047Y-59753571D01*
X93244047Y-60277380D01*
X93720238Y-60277380D02*
X93720238Y-59610714D01*
X93720238Y-59277380D02*
X93672619Y-59325000D01*
X93720238Y-59372619D01*
X93767857Y-59325000D01*
X93720238Y-59277380D01*
X93720238Y-59372619D01*
X94196428Y-59610714D02*
X94196428Y-60277380D01*
X94196428Y-59705952D02*
X94244047Y-59658333D01*
X94339285Y-59610714D01*
X94482142Y-59610714D01*
X94577380Y-59658333D01*
X94625000Y-59753571D01*
X94625000Y-60277380D01*
X95101190Y-60277380D02*
X95101190Y-59610714D01*
X95101190Y-59277380D02*
X95053571Y-59325000D01*
X95101190Y-59372619D01*
X95148809Y-59325000D01*
X95101190Y-59277380D01*
X95101190Y-59372619D01*
X96767857Y-59610714D02*
X96767857Y-60420238D01*
X96720238Y-60515476D01*
X96672619Y-60563095D01*
X96577380Y-60610714D01*
X96434523Y-60610714D01*
X96339285Y-60563095D01*
X96767857Y-60229761D02*
X96672619Y-60277380D01*
X96482142Y-60277380D01*
X96386904Y-60229761D01*
X96339285Y-60182142D01*
X96291666Y-60086904D01*
X96291666Y-59801190D01*
X96339285Y-59705952D01*
X96386904Y-59658333D01*
X96482142Y-59610714D01*
X96672619Y-59610714D01*
X96767857Y-59658333D01*
X97244047Y-59610714D02*
X97244047Y-60610714D01*
X97244047Y-59658333D02*
X97339285Y-59610714D01*
X97529761Y-59610714D01*
X97625000Y-59658333D01*
X97672619Y-59705952D01*
X97720238Y-59801190D01*
X97720238Y-60086904D01*
X97672619Y-60182142D01*
X97625000Y-60229761D01*
X97529761Y-60277380D01*
X97339285Y-60277380D01*
X97244047Y-60229761D01*
X98101190Y-60229761D02*
X98196428Y-60277380D01*
X98386904Y-60277380D01*
X98482142Y-60229761D01*
X98529761Y-60134523D01*
X98529761Y-60086904D01*
X98482142Y-59991666D01*
X98386904Y-59944047D01*
X98244047Y-59944047D01*
X98148809Y-59896428D01*
X98101190Y-59801190D01*
X98101190Y-59753571D01*
X98148809Y-59658333D01*
X98244047Y-59610714D01*
X98386904Y-59610714D01*
X98482142Y-59658333D01*
%TO.C,R4*%
X81508333Y-79927380D02*
X81175000Y-79451190D01*
X80936904Y-79927380D02*
X80936904Y-78927380D01*
X81317857Y-78927380D01*
X81413095Y-78975000D01*
X81460714Y-79022619D01*
X81508333Y-79117857D01*
X81508333Y-79260714D01*
X81460714Y-79355952D01*
X81413095Y-79403571D01*
X81317857Y-79451190D01*
X80936904Y-79451190D01*
X82365476Y-79260714D02*
X82365476Y-79927380D01*
X82127380Y-78879761D02*
X81889285Y-79594047D01*
X82508333Y-79594047D01*
%TO.C,R16*%
X68282142Y-49377380D02*
X67948809Y-48901190D01*
X67710714Y-49377380D02*
X67710714Y-48377380D01*
X68091666Y-48377380D01*
X68186904Y-48425000D01*
X68234523Y-48472619D01*
X68282142Y-48567857D01*
X68282142Y-48710714D01*
X68234523Y-48805952D01*
X68186904Y-48853571D01*
X68091666Y-48901190D01*
X67710714Y-48901190D01*
X69234523Y-49377380D02*
X68663095Y-49377380D01*
X68948809Y-49377380D02*
X68948809Y-48377380D01*
X68853571Y-48520238D01*
X68758333Y-48615476D01*
X68663095Y-48663095D01*
X70091666Y-48377380D02*
X69901190Y-48377380D01*
X69805952Y-48425000D01*
X69758333Y-48472619D01*
X69663095Y-48615476D01*
X69615476Y-48805952D01*
X69615476Y-49186904D01*
X69663095Y-49282142D01*
X69710714Y-49329761D01*
X69805952Y-49377380D01*
X69996428Y-49377380D01*
X70091666Y-49329761D01*
X70139285Y-49282142D01*
X70186904Y-49186904D01*
X70186904Y-48948809D01*
X70139285Y-48853571D01*
X70091666Y-48805952D01*
X69996428Y-48758333D01*
X69805952Y-48758333D01*
X69710714Y-48805952D01*
X69663095Y-48853571D01*
X69615476Y-48948809D01*
%TO.C,U2*%
X45963095Y-78500092D02*
X45963095Y-79309616D01*
X46010714Y-79404854D01*
X46058333Y-79452473D01*
X46153571Y-79500092D01*
X46344047Y-79500092D01*
X46439285Y-79452473D01*
X46486904Y-79404854D01*
X46534523Y-79309616D01*
X46534523Y-78500092D01*
X46963095Y-78595331D02*
X47010714Y-78547712D01*
X47105952Y-78500092D01*
X47344047Y-78500092D01*
X47439285Y-78547712D01*
X47486904Y-78595331D01*
X47534523Y-78690569D01*
X47534523Y-78785807D01*
X47486904Y-78928664D01*
X46915476Y-79500092D01*
X47534523Y-79500092D01*
%TO.C,R2*%
X81408333Y-75052380D02*
X81075000Y-74576190D01*
X80836904Y-75052380D02*
X80836904Y-74052380D01*
X81217857Y-74052380D01*
X81313095Y-74100000D01*
X81360714Y-74147619D01*
X81408333Y-74242857D01*
X81408333Y-74385714D01*
X81360714Y-74480952D01*
X81313095Y-74528571D01*
X81217857Y-74576190D01*
X80836904Y-74576190D01*
X81789285Y-74147619D02*
X81836904Y-74100000D01*
X81932142Y-74052380D01*
X82170238Y-74052380D01*
X82265476Y-74100000D01*
X82313095Y-74147619D01*
X82360714Y-74242857D01*
X82360714Y-74338095D01*
X82313095Y-74480952D01*
X81741666Y-75052380D01*
X82360714Y-75052380D01*
%TO.C,R17*%
X34782142Y-62817380D02*
X34448809Y-62341190D01*
X34210714Y-62817380D02*
X34210714Y-61817380D01*
X34591666Y-61817380D01*
X34686904Y-61865000D01*
X34734523Y-61912619D01*
X34782142Y-62007857D01*
X34782142Y-62150714D01*
X34734523Y-62245952D01*
X34686904Y-62293571D01*
X34591666Y-62341190D01*
X34210714Y-62341190D01*
X35734523Y-62817380D02*
X35163095Y-62817380D01*
X35448809Y-62817380D02*
X35448809Y-61817380D01*
X35353571Y-61960238D01*
X35258333Y-62055476D01*
X35163095Y-62103095D01*
X36067857Y-61817380D02*
X36734523Y-61817380D01*
X36305952Y-62817380D01*
%TO.C,R21*%
X93527380Y-36517857D02*
X93051190Y-36851190D01*
X93527380Y-37089285D02*
X92527380Y-37089285D01*
X92527380Y-36708333D01*
X92575000Y-36613095D01*
X92622619Y-36565476D01*
X92717857Y-36517857D01*
X92860714Y-36517857D01*
X92955952Y-36565476D01*
X93003571Y-36613095D01*
X93051190Y-36708333D01*
X93051190Y-37089285D01*
X92622619Y-36136904D02*
X92575000Y-36089285D01*
X92527380Y-35994047D01*
X92527380Y-35755952D01*
X92575000Y-35660714D01*
X92622619Y-35613095D01*
X92717857Y-35565476D01*
X92813095Y-35565476D01*
X92955952Y-35613095D01*
X93527380Y-36184523D01*
X93527380Y-35565476D01*
X93527380Y-34613095D02*
X93527380Y-35184523D01*
X93527380Y-34898809D02*
X92527380Y-34898809D01*
X92670238Y-34994047D01*
X92765476Y-35089285D01*
X92813095Y-35184523D01*
%TO.C,R14*%
X68344642Y-67602380D02*
X68011309Y-67126190D01*
X67773214Y-67602380D02*
X67773214Y-66602380D01*
X68154166Y-66602380D01*
X68249404Y-66650000D01*
X68297023Y-66697619D01*
X68344642Y-66792857D01*
X68344642Y-66935714D01*
X68297023Y-67030952D01*
X68249404Y-67078571D01*
X68154166Y-67126190D01*
X67773214Y-67126190D01*
X69297023Y-67602380D02*
X68725595Y-67602380D01*
X69011309Y-67602380D02*
X69011309Y-66602380D01*
X68916071Y-66745238D01*
X68820833Y-66840476D01*
X68725595Y-66888095D01*
X70154166Y-66935714D02*
X70154166Y-67602380D01*
X69916071Y-66554761D02*
X69677976Y-67269047D01*
X70297023Y-67269047D01*
%TO.C,R18*%
X37752380Y-57057857D02*
X37276190Y-57391190D01*
X37752380Y-57629285D02*
X36752380Y-57629285D01*
X36752380Y-57248333D01*
X36800000Y-57153095D01*
X36847619Y-57105476D01*
X36942857Y-57057857D01*
X37085714Y-57057857D01*
X37180952Y-57105476D01*
X37228571Y-57153095D01*
X37276190Y-57248333D01*
X37276190Y-57629285D01*
X37752380Y-56105476D02*
X37752380Y-56676904D01*
X37752380Y-56391190D02*
X36752380Y-56391190D01*
X36895238Y-56486428D01*
X36990476Y-56581666D01*
X37038095Y-56676904D01*
X37180952Y-55534047D02*
X37133333Y-55629285D01*
X37085714Y-55676904D01*
X36990476Y-55724523D01*
X36942857Y-55724523D01*
X36847619Y-55676904D01*
X36800000Y-55629285D01*
X36752380Y-55534047D01*
X36752380Y-55343571D01*
X36800000Y-55248333D01*
X36847619Y-55200714D01*
X36942857Y-55153095D01*
X36990476Y-55153095D01*
X37085714Y-55200714D01*
X37133333Y-55248333D01*
X37180952Y-55343571D01*
X37180952Y-55534047D01*
X37228571Y-55629285D01*
X37276190Y-55676904D01*
X37371428Y-55724523D01*
X37561904Y-55724523D01*
X37657142Y-55676904D01*
X37704761Y-55629285D01*
X37752380Y-55534047D01*
X37752380Y-55343571D01*
X37704761Y-55248333D01*
X37657142Y-55200714D01*
X37561904Y-55153095D01*
X37371428Y-55153095D01*
X37276190Y-55200714D01*
X37228571Y-55248333D01*
X37180952Y-55343571D01*
%TO.C,R5*%
X67133333Y-28952380D02*
X66800000Y-28476190D01*
X66561904Y-28952380D02*
X66561904Y-27952380D01*
X66942857Y-27952380D01*
X67038095Y-28000000D01*
X67085714Y-28047619D01*
X67133333Y-28142857D01*
X67133333Y-28285714D01*
X67085714Y-28380952D01*
X67038095Y-28428571D01*
X66942857Y-28476190D01*
X66561904Y-28476190D01*
X68038095Y-27952380D02*
X67561904Y-27952380D01*
X67514285Y-28428571D01*
X67561904Y-28380952D01*
X67657142Y-28333333D01*
X67895238Y-28333333D01*
X67990476Y-28380952D01*
X68038095Y-28428571D01*
X68085714Y-28523809D01*
X68085714Y-28761904D01*
X68038095Y-28857142D01*
X67990476Y-28904761D01*
X67895238Y-28952380D01*
X67657142Y-28952380D01*
X67561904Y-28904761D01*
X67514285Y-28857142D01*
%TO.C,AE1*%
X36683333Y-64591666D02*
X37159523Y-64591666D01*
X36588095Y-64877380D02*
X36921428Y-63877380D01*
X37254761Y-64877380D01*
X37588095Y-64353571D02*
X37921428Y-64353571D01*
X38064285Y-64877380D02*
X37588095Y-64877380D01*
X37588095Y-63877380D01*
X38064285Y-63877380D01*
X39016666Y-64877380D02*
X38445238Y-64877380D01*
X38730952Y-64877380D02*
X38730952Y-63877380D01*
X38635714Y-64020238D01*
X38540476Y-64115476D01*
X38445238Y-64163095D01*
%TO.C,R20*%
X30902380Y-57392857D02*
X30426190Y-57726190D01*
X30902380Y-57964285D02*
X29902380Y-57964285D01*
X29902380Y-57583333D01*
X29950000Y-57488095D01*
X29997619Y-57440476D01*
X30092857Y-57392857D01*
X30235714Y-57392857D01*
X30330952Y-57440476D01*
X30378571Y-57488095D01*
X30426190Y-57583333D01*
X30426190Y-57964285D01*
X29997619Y-57011904D02*
X29950000Y-56964285D01*
X29902380Y-56869047D01*
X29902380Y-56630952D01*
X29950000Y-56535714D01*
X29997619Y-56488095D01*
X30092857Y-56440476D01*
X30188095Y-56440476D01*
X30330952Y-56488095D01*
X30902380Y-57059523D01*
X30902380Y-56440476D01*
X29902380Y-55821428D02*
X29902380Y-55726190D01*
X29950000Y-55630952D01*
X29997619Y-55583333D01*
X30092857Y-55535714D01*
X30283333Y-55488095D01*
X30521428Y-55488095D01*
X30711904Y-55535714D01*
X30807142Y-55583333D01*
X30854761Y-55630952D01*
X30902380Y-55726190D01*
X30902380Y-55821428D01*
X30854761Y-55916666D01*
X30807142Y-55964285D01*
X30711904Y-56011904D01*
X30521428Y-56059523D01*
X30283333Y-56059523D01*
X30092857Y-56011904D01*
X29997619Y-55964285D01*
X29950000Y-55916666D01*
X29902380Y-55821428D01*
%TO.C,U7*%
X93118095Y-22077380D02*
X93118095Y-22886904D01*
X93165714Y-22982142D01*
X93213333Y-23029761D01*
X93308571Y-23077380D01*
X93499047Y-23077380D01*
X93594285Y-23029761D01*
X93641904Y-22982142D01*
X93689523Y-22886904D01*
X93689523Y-22077380D01*
X94070476Y-22077380D02*
X94737142Y-22077380D01*
X94308571Y-23077380D01*
X91884761Y-24952380D02*
X91884761Y-23952380D01*
X91884761Y-24904761D02*
X91789523Y-24952380D01*
X91599047Y-24952380D01*
X91503809Y-24904761D01*
X91456190Y-24857142D01*
X91408571Y-24761904D01*
X91408571Y-24476190D01*
X91456190Y-24380952D01*
X91503809Y-24333333D01*
X91599047Y-24285714D01*
X91789523Y-24285714D01*
X91884761Y-24333333D01*
X92313333Y-24904761D02*
X92408571Y-24952380D01*
X92599047Y-24952380D01*
X92694285Y-24904761D01*
X92741904Y-24809523D01*
X92741904Y-24761904D01*
X92694285Y-24666666D01*
X92599047Y-24619047D01*
X92456190Y-24619047D01*
X92360952Y-24571428D01*
X92313333Y-24476190D01*
X92313333Y-24428571D01*
X92360952Y-24333333D01*
X92456190Y-24285714D01*
X92599047Y-24285714D01*
X92694285Y-24333333D01*
X93075238Y-23952380D02*
X93694285Y-23952380D01*
X93360952Y-24333333D01*
X93503809Y-24333333D01*
X93599047Y-24380952D01*
X93646666Y-24428571D01*
X93694285Y-24523809D01*
X93694285Y-24761904D01*
X93646666Y-24857142D01*
X93599047Y-24904761D01*
X93503809Y-24952380D01*
X93218095Y-24952380D01*
X93122857Y-24904761D01*
X93075238Y-24857142D01*
X94075238Y-24047619D02*
X94122857Y-24000000D01*
X94218095Y-23952380D01*
X94456190Y-23952380D01*
X94551428Y-24000000D01*
X94599047Y-24047619D01*
X94646666Y-24142857D01*
X94646666Y-24238095D01*
X94599047Y-24380952D01*
X94027619Y-24952380D01*
X94646666Y-24952380D01*
X94980000Y-23952380D02*
X95599047Y-23952380D01*
X95265714Y-24333333D01*
X95408571Y-24333333D01*
X95503809Y-24380952D01*
X95551428Y-24428571D01*
X95599047Y-24523809D01*
X95599047Y-24761904D01*
X95551428Y-24857142D01*
X95503809Y-24904761D01*
X95408571Y-24952380D01*
X95122857Y-24952380D01*
X95027619Y-24904761D01*
X94980000Y-24857142D01*
X96551428Y-24952380D02*
X95980000Y-24952380D01*
X96265714Y-24952380D02*
X96265714Y-23952380D01*
X96170476Y-24095238D01*
X96075238Y-24190476D01*
X95980000Y-24238095D01*
%TO.C,C3*%
X54183333Y-84910998D02*
X54135714Y-84958617D01*
X53992857Y-85006236D01*
X53897619Y-85006236D01*
X53754761Y-84958617D01*
X53659523Y-84863379D01*
X53611904Y-84768141D01*
X53564285Y-84577665D01*
X53564285Y-84434808D01*
X53611904Y-84244332D01*
X53659523Y-84149094D01*
X53754761Y-84053856D01*
X53897619Y-84006236D01*
X53992857Y-84006236D01*
X54135714Y-84053856D01*
X54183333Y-84101475D01*
X54516666Y-84006236D02*
X55135714Y-84006236D01*
X54802380Y-84387189D01*
X54945238Y-84387189D01*
X55040476Y-84434808D01*
X55088095Y-84482427D01*
X55135714Y-84577665D01*
X55135714Y-84815760D01*
X55088095Y-84910998D01*
X55040476Y-84958617D01*
X54945238Y-85006236D01*
X54659523Y-85006236D01*
X54564285Y-84958617D01*
X54516666Y-84910998D01*
%TO.C,U5*%
X50477380Y-64836904D02*
X51286904Y-64836904D01*
X51382142Y-64789285D01*
X51429761Y-64741666D01*
X51477380Y-64646428D01*
X51477380Y-64455952D01*
X51429761Y-64360714D01*
X51382142Y-64313095D01*
X51286904Y-64265476D01*
X50477380Y-64265476D01*
X50477380Y-63313095D02*
X50477380Y-63789285D01*
X50953571Y-63836904D01*
X50905952Y-63789285D01*
X50858333Y-63694047D01*
X50858333Y-63455952D01*
X50905952Y-63360714D01*
X50953571Y-63313095D01*
X51048809Y-63265476D01*
X51286904Y-63265476D01*
X51382142Y-63313095D01*
X51429761Y-63360714D01*
X51477380Y-63455952D01*
X51477380Y-63694047D01*
X51429761Y-63789285D01*
X51382142Y-63836904D01*
%TO.C,BZ1*%
X54744047Y-37053571D02*
X54886904Y-37101190D01*
X54934523Y-37148809D01*
X54982142Y-37244047D01*
X54982142Y-37386904D01*
X54934523Y-37482142D01*
X54886904Y-37529761D01*
X54791666Y-37577380D01*
X54410714Y-37577380D01*
X54410714Y-36577380D01*
X54744047Y-36577380D01*
X54839285Y-36625000D01*
X54886904Y-36672619D01*
X54934523Y-36767857D01*
X54934523Y-36863095D01*
X54886904Y-36958333D01*
X54839285Y-37005952D01*
X54744047Y-37053571D01*
X54410714Y-37053571D01*
X55315476Y-36577380D02*
X55982142Y-36577380D01*
X55315476Y-37577380D01*
X55982142Y-37577380D01*
X56886904Y-37577380D02*
X56315476Y-37577380D01*
X56601190Y-37577380D02*
X56601190Y-36577380D01*
X56505952Y-36720238D01*
X56410714Y-36815476D01*
X56315476Y-36863095D01*
%TO.C,R13*%
X74794642Y-69527380D02*
X74461309Y-69051190D01*
X74223214Y-69527380D02*
X74223214Y-68527380D01*
X74604166Y-68527380D01*
X74699404Y-68575000D01*
X74747023Y-68622619D01*
X74794642Y-68717857D01*
X74794642Y-68860714D01*
X74747023Y-68955952D01*
X74699404Y-69003571D01*
X74604166Y-69051190D01*
X74223214Y-69051190D01*
X75747023Y-69527380D02*
X75175595Y-69527380D01*
X75461309Y-69527380D02*
X75461309Y-68527380D01*
X75366071Y-68670238D01*
X75270833Y-68765476D01*
X75175595Y-68813095D01*
X76080357Y-68527380D02*
X76699404Y-68527380D01*
X76366071Y-68908333D01*
X76508928Y-68908333D01*
X76604166Y-68955952D01*
X76651785Y-69003571D01*
X76699404Y-69098809D01*
X76699404Y-69336904D01*
X76651785Y-69432142D01*
X76604166Y-69479761D01*
X76508928Y-69527380D01*
X76223214Y-69527380D01*
X76127976Y-69479761D01*
X76080357Y-69432142D01*
%TO.C,R1*%
X77703333Y-79077380D02*
X77370000Y-78601190D01*
X77131904Y-79077380D02*
X77131904Y-78077380D01*
X77512857Y-78077380D01*
X77608095Y-78125000D01*
X77655714Y-78172619D01*
X77703333Y-78267857D01*
X77703333Y-78410714D01*
X77655714Y-78505952D01*
X77608095Y-78553571D01*
X77512857Y-78601190D01*
X77131904Y-78601190D01*
X78655714Y-79077380D02*
X78084285Y-79077380D01*
X78370000Y-79077380D02*
X78370000Y-78077380D01*
X78274761Y-78220238D01*
X78179523Y-78315476D01*
X78084285Y-78363095D01*
%TO.C,U3*%
X70513095Y-52952380D02*
X70513095Y-53761904D01*
X70560714Y-53857142D01*
X70608333Y-53904761D01*
X70703571Y-53952380D01*
X70894047Y-53952380D01*
X70989285Y-53904761D01*
X71036904Y-53857142D01*
X71084523Y-53761904D01*
X71084523Y-52952380D01*
X71465476Y-52952380D02*
X72084523Y-52952380D01*
X71751190Y-53333333D01*
X71894047Y-53333333D01*
X71989285Y-53380952D01*
X72036904Y-53428571D01*
X72084523Y-53523809D01*
X72084523Y-53761904D01*
X72036904Y-53857142D01*
X71989285Y-53904761D01*
X71894047Y-53952380D01*
X71608333Y-53952380D01*
X71513095Y-53904761D01*
X71465476Y-53857142D01*
%TO.C,R7*%
X45983333Y-25077380D02*
X45650000Y-24601190D01*
X45411904Y-25077380D02*
X45411904Y-24077380D01*
X45792857Y-24077380D01*
X45888095Y-24125000D01*
X45935714Y-24172619D01*
X45983333Y-24267857D01*
X45983333Y-24410714D01*
X45935714Y-24505952D01*
X45888095Y-24553571D01*
X45792857Y-24601190D01*
X45411904Y-24601190D01*
X46316666Y-24077380D02*
X46983333Y-24077380D01*
X46554761Y-25077380D01*
%TO.C,R12*%
X66462142Y-37202380D02*
X66128809Y-36726190D01*
X65890714Y-37202380D02*
X65890714Y-36202380D01*
X66271666Y-36202380D01*
X66366904Y-36250000D01*
X66414523Y-36297619D01*
X66462142Y-36392857D01*
X66462142Y-36535714D01*
X66414523Y-36630952D01*
X66366904Y-36678571D01*
X66271666Y-36726190D01*
X65890714Y-36726190D01*
X67414523Y-37202380D02*
X66843095Y-37202380D01*
X67128809Y-37202380D02*
X67128809Y-36202380D01*
X67033571Y-36345238D01*
X66938333Y-36440476D01*
X66843095Y-36488095D01*
X67795476Y-36297619D02*
X67843095Y-36250000D01*
X67938333Y-36202380D01*
X68176428Y-36202380D01*
X68271666Y-36250000D01*
X68319285Y-36297619D01*
X68366904Y-36392857D01*
X68366904Y-36488095D01*
X68319285Y-36630952D01*
X67747857Y-37202380D01*
X68366904Y-37202380D01*
%TO.C,R22*%
X95227380Y-29677857D02*
X94751190Y-30011190D01*
X95227380Y-30249285D02*
X94227380Y-30249285D01*
X94227380Y-29868333D01*
X94275000Y-29773095D01*
X94322619Y-29725476D01*
X94417857Y-29677857D01*
X94560714Y-29677857D01*
X94655952Y-29725476D01*
X94703571Y-29773095D01*
X94751190Y-29868333D01*
X94751190Y-30249285D01*
X94322619Y-29296904D02*
X94275000Y-29249285D01*
X94227380Y-29154047D01*
X94227380Y-28915952D01*
X94275000Y-28820714D01*
X94322619Y-28773095D01*
X94417857Y-28725476D01*
X94513095Y-28725476D01*
X94655952Y-28773095D01*
X95227380Y-29344523D01*
X95227380Y-28725476D01*
X94322619Y-28344523D02*
X94275000Y-28296904D01*
X94227380Y-28201666D01*
X94227380Y-27963571D01*
X94275000Y-27868333D01*
X94322619Y-27820714D01*
X94417857Y-27773095D01*
X94513095Y-27773095D01*
X94655952Y-27820714D01*
X95227380Y-28392142D01*
X95227380Y-27773095D01*
%TO.C,R6*%
X73408333Y-31077380D02*
X73075000Y-30601190D01*
X72836904Y-31077380D02*
X72836904Y-30077380D01*
X73217857Y-30077380D01*
X73313095Y-30125000D01*
X73360714Y-30172619D01*
X73408333Y-30267857D01*
X73408333Y-30410714D01*
X73360714Y-30505952D01*
X73313095Y-30553571D01*
X73217857Y-30601190D01*
X72836904Y-30601190D01*
X74265476Y-30077380D02*
X74075000Y-30077380D01*
X73979761Y-30125000D01*
X73932142Y-30172619D01*
X73836904Y-30315476D01*
X73789285Y-30505952D01*
X73789285Y-30886904D01*
X73836904Y-30982142D01*
X73884523Y-31029761D01*
X73979761Y-31077380D01*
X74170238Y-31077380D01*
X74265476Y-31029761D01*
X74313095Y-30982142D01*
X74360714Y-30886904D01*
X74360714Y-30648809D01*
X74313095Y-30553571D01*
X74265476Y-30505952D01*
X74170238Y-30458333D01*
X73979761Y-30458333D01*
X73884523Y-30505952D01*
X73836904Y-30553571D01*
X73789285Y-30648809D01*
%TO.C,C2*%
X59944166Y-84910998D02*
X59896547Y-84958617D01*
X59753690Y-85006236D01*
X59658452Y-85006236D01*
X59515594Y-84958617D01*
X59420356Y-84863379D01*
X59372737Y-84768141D01*
X59325118Y-84577665D01*
X59325118Y-84434808D01*
X59372737Y-84244332D01*
X59420356Y-84149094D01*
X59515594Y-84053856D01*
X59658452Y-84006236D01*
X59753690Y-84006236D01*
X59896547Y-84053856D01*
X59944166Y-84101475D01*
X60325118Y-84101475D02*
X60372737Y-84053856D01*
X60467975Y-84006236D01*
X60706071Y-84006236D01*
X60801309Y-84053856D01*
X60848928Y-84101475D01*
X60896547Y-84196713D01*
X60896547Y-84291951D01*
X60848928Y-84434808D01*
X60277499Y-85006236D01*
X60896547Y-85006236D01*
%TO.C,R9*%
X66998333Y-33327380D02*
X66665000Y-32851190D01*
X66426904Y-33327380D02*
X66426904Y-32327380D01*
X66807857Y-32327380D01*
X66903095Y-32375000D01*
X66950714Y-32422619D01*
X66998333Y-32517857D01*
X66998333Y-32660714D01*
X66950714Y-32755952D01*
X66903095Y-32803571D01*
X66807857Y-32851190D01*
X66426904Y-32851190D01*
X67474523Y-33327380D02*
X67665000Y-33327380D01*
X67760238Y-33279761D01*
X67807857Y-33232142D01*
X67903095Y-33089285D01*
X67950714Y-32898809D01*
X67950714Y-32517857D01*
X67903095Y-32422619D01*
X67855476Y-32375000D01*
X67760238Y-32327380D01*
X67569761Y-32327380D01*
X67474523Y-32375000D01*
X67426904Y-32422619D01*
X67379285Y-32517857D01*
X67379285Y-32755952D01*
X67426904Y-32851190D01*
X67474523Y-32898809D01*
X67569761Y-32946428D01*
X67760238Y-32946428D01*
X67855476Y-32898809D01*
X67903095Y-32851190D01*
X67950714Y-32755952D01*
%TO.C,R10*%
X72937142Y-35252380D02*
X72603809Y-34776190D01*
X72365714Y-35252380D02*
X72365714Y-34252380D01*
X72746666Y-34252380D01*
X72841904Y-34300000D01*
X72889523Y-34347619D01*
X72937142Y-34442857D01*
X72937142Y-34585714D01*
X72889523Y-34680952D01*
X72841904Y-34728571D01*
X72746666Y-34776190D01*
X72365714Y-34776190D01*
X73889523Y-35252380D02*
X73318095Y-35252380D01*
X73603809Y-35252380D02*
X73603809Y-34252380D01*
X73508571Y-34395238D01*
X73413333Y-34490476D01*
X73318095Y-34538095D01*
X74508571Y-34252380D02*
X74603809Y-34252380D01*
X74699047Y-34300000D01*
X74746666Y-34347619D01*
X74794285Y-34442857D01*
X74841904Y-34633333D01*
X74841904Y-34871428D01*
X74794285Y-35061904D01*
X74746666Y-35157142D01*
X74699047Y-35204761D01*
X74603809Y-35252380D01*
X74508571Y-35252380D01*
X74413333Y-35204761D01*
X74365714Y-35157142D01*
X74318095Y-35061904D01*
X74270476Y-34871428D01*
X74270476Y-34633333D01*
X74318095Y-34442857D01*
X74365714Y-34347619D01*
X74413333Y-34300000D01*
X74508571Y-34252380D01*
%TO.C,R3*%
X77588333Y-83552380D02*
X77255000Y-83076190D01*
X77016904Y-83552380D02*
X77016904Y-82552380D01*
X77397857Y-82552380D01*
X77493095Y-82600000D01*
X77540714Y-82647619D01*
X77588333Y-82742857D01*
X77588333Y-82885714D01*
X77540714Y-82980952D01*
X77493095Y-83028571D01*
X77397857Y-83076190D01*
X77016904Y-83076190D01*
X77921666Y-82552380D02*
X78540714Y-82552380D01*
X78207380Y-82933333D01*
X78350238Y-82933333D01*
X78445476Y-82980952D01*
X78493095Y-83028571D01*
X78540714Y-83123809D01*
X78540714Y-83361904D01*
X78493095Y-83457142D01*
X78445476Y-83504761D01*
X78350238Y-83552380D01*
X78064523Y-83552380D01*
X77969285Y-83504761D01*
X77921666Y-83457142D01*
%TO.C,S1*%
X69613095Y-74829761D02*
X69755952Y-74877380D01*
X69994047Y-74877380D01*
X70089285Y-74829761D01*
X70136904Y-74782142D01*
X70184523Y-74686904D01*
X70184523Y-74591666D01*
X70136904Y-74496428D01*
X70089285Y-74448809D01*
X69994047Y-74401190D01*
X69803571Y-74353571D01*
X69708333Y-74305952D01*
X69660714Y-74258333D01*
X69613095Y-74163095D01*
X69613095Y-74067857D01*
X69660714Y-73972619D01*
X69708333Y-73925000D01*
X69803571Y-73877380D01*
X70041666Y-73877380D01*
X70184523Y-73925000D01*
X71136904Y-74877380D02*
X70565476Y-74877380D01*
X70851190Y-74877380D02*
X70851190Y-73877380D01*
X70755952Y-74020238D01*
X70660714Y-74115476D01*
X70565476Y-74163095D01*
%TO.C,R8*%
X39583333Y-27027380D02*
X39250000Y-26551190D01*
X39011904Y-27027380D02*
X39011904Y-26027380D01*
X39392857Y-26027380D01*
X39488095Y-26075000D01*
X39535714Y-26122619D01*
X39583333Y-26217857D01*
X39583333Y-26360714D01*
X39535714Y-26455952D01*
X39488095Y-26503571D01*
X39392857Y-26551190D01*
X39011904Y-26551190D01*
X40154761Y-26455952D02*
X40059523Y-26408333D01*
X40011904Y-26360714D01*
X39964285Y-26265476D01*
X39964285Y-26217857D01*
X40011904Y-26122619D01*
X40059523Y-26075000D01*
X40154761Y-26027380D01*
X40345238Y-26027380D01*
X40440476Y-26075000D01*
X40488095Y-26122619D01*
X40535714Y-26217857D01*
X40535714Y-26265476D01*
X40488095Y-26360714D01*
X40440476Y-26408333D01*
X40345238Y-26455952D01*
X40154761Y-26455952D01*
X40059523Y-26503571D01*
X40011904Y-26551190D01*
X39964285Y-26646428D01*
X39964285Y-26836904D01*
X40011904Y-26932142D01*
X40059523Y-26979761D01*
X40154761Y-27027380D01*
X40345238Y-27027380D01*
X40440476Y-26979761D01*
X40488095Y-26932142D01*
X40535714Y-26836904D01*
X40535714Y-26646428D01*
X40488095Y-26551190D01*
X40440476Y-26503571D01*
X40345238Y-26455952D01*
%TO.C,R11*%
X72982142Y-39327380D02*
X72648809Y-38851190D01*
X72410714Y-39327380D02*
X72410714Y-38327380D01*
X72791666Y-38327380D01*
X72886904Y-38375000D01*
X72934523Y-38422619D01*
X72982142Y-38517857D01*
X72982142Y-38660714D01*
X72934523Y-38755952D01*
X72886904Y-38803571D01*
X72791666Y-38851190D01*
X72410714Y-38851190D01*
X73934523Y-39327380D02*
X73363095Y-39327380D01*
X73648809Y-39327380D02*
X73648809Y-38327380D01*
X73553571Y-38470238D01*
X73458333Y-38565476D01*
X73363095Y-38613095D01*
X74886904Y-39327380D02*
X74315476Y-39327380D01*
X74601190Y-39327380D02*
X74601190Y-38327380D01*
X74505952Y-38470238D01*
X74410714Y-38565476D01*
X74315476Y-38613095D01*
%TO.C,U4*%
X37213095Y-46877380D02*
X37213095Y-47686904D01*
X37260714Y-47782142D01*
X37308333Y-47829761D01*
X37403571Y-47877380D01*
X37594047Y-47877380D01*
X37689285Y-47829761D01*
X37736904Y-47782142D01*
X37784523Y-47686904D01*
X37784523Y-46877380D01*
X38689285Y-47210714D02*
X38689285Y-47877380D01*
X38451190Y-46829761D02*
X38213095Y-47544047D01*
X38832142Y-47544047D01*
%TO.C,C1*%
X65160001Y-84910998D02*
X65112382Y-84958617D01*
X64969525Y-85006236D01*
X64874287Y-85006236D01*
X64731429Y-84958617D01*
X64636191Y-84863379D01*
X64588572Y-84768141D01*
X64540953Y-84577665D01*
X64540953Y-84434808D01*
X64588572Y-84244332D01*
X64636191Y-84149094D01*
X64731429Y-84053856D01*
X64874287Y-84006236D01*
X64969525Y-84006236D01*
X65112382Y-84053856D01*
X65160001Y-84101475D01*
X66112382Y-85006236D02*
X65540953Y-85006236D01*
X65826668Y-85006236D02*
X65826668Y-84006236D01*
X65731429Y-84149094D01*
X65636191Y-84244332D01*
X65540953Y-84291951D01*
%TO.C,A1*%
X36885714Y-43216666D02*
X37361904Y-43216666D01*
X36790476Y-43502380D02*
X37123809Y-42502380D01*
X37457142Y-43502380D01*
X38314285Y-43502380D02*
X37742857Y-43502380D01*
X38028571Y-43502380D02*
X38028571Y-42502380D01*
X37933333Y-42645238D01*
X37838095Y-42740476D01*
X37742857Y-42788095D01*
D12*
%TO.C,J3*%
X96680000Y-76200000D02*
X96680000Y-77530000D01*
X96680000Y-77530000D02*
X95350000Y-77530000D01*
X94080000Y-74870000D02*
X86400000Y-74870000D01*
X94080000Y-74870000D02*
X94080000Y-77530000D01*
X94080000Y-77530000D02*
X86400000Y-77530000D01*
X86400000Y-74870000D02*
X86400000Y-77530000D01*
%TO.C,J5*%
X67677000Y-93506000D02*
X67571000Y-93613000D01*
X70879000Y-90837000D02*
X70772000Y-90944000D01*
X70613000Y-90571000D02*
X70506000Y-90678000D01*
X75879000Y-90837000D02*
X75484000Y-91233000D01*
X66425000Y-97525000D02*
X66825000Y-97525000D01*
X66665000Y-95725000D02*
X81785000Y-95725000D01*
X66425000Y-96885000D02*
X66425000Y-97525000D01*
X67943000Y-93772000D02*
X67837000Y-93879000D01*
X80613000Y-90571000D02*
X80233000Y-90951000D01*
X66665000Y-88165000D02*
X66665000Y-97285000D01*
X66665000Y-96825000D02*
X81785000Y-96825000D01*
X66665000Y-97285000D02*
X81785000Y-97285000D01*
X72967000Y-93217000D02*
X72572000Y-93613000D01*
X73218000Y-93499000D02*
X72838000Y-93879000D01*
X66665000Y-88165000D02*
X81785000Y-88165000D01*
X81785000Y-88165000D02*
X81785000Y-97285000D01*
X77967000Y-93217000D02*
X77572000Y-93613000D01*
X75613000Y-90571000D02*
X75233000Y-90951000D01*
X80879000Y-90837000D02*
X80484000Y-91233000D01*
X78218000Y-93499000D02*
X77838000Y-93879000D01*
X71405000Y-92225000D02*
G75*
G03*
X71405000Y-92225000I-2180000J0D01*
G01*
X81405000Y-92225000D02*
G75*
G03*
X81405000Y-92225000I-2180000J0D01*
G01*
X76405000Y-92225000D02*
G75*
G03*
X76405000Y-92225000I-2180000J0D01*
G01*
%TO.C,J4*%
X52775000Y-74895000D02*
X52775000Y-77555000D01*
X60455000Y-77555000D02*
X52775000Y-77555000D01*
X60455000Y-74895000D02*
X60455000Y-77555000D01*
X60455000Y-74895000D02*
X52775000Y-74895000D01*
X63055000Y-77555000D02*
X61725000Y-77555000D01*
X63055000Y-76225000D02*
X63055000Y-77555000D01*
%TO.C,J1*%
X39275000Y-79890000D02*
X39275000Y-80090000D01*
X38425000Y-84200000D02*
X43325000Y-84200000D01*
X43325000Y-84200000D02*
X43325000Y-80700000D01*
X37815000Y-82700000D02*
X38425000Y-82700000D01*
X40975000Y-83700000D02*
X40975000Y-84200000D01*
X40375000Y-80090000D02*
X40375000Y-80700000D01*
X38425000Y-80700000D02*
X38425000Y-84200000D01*
X39575000Y-80090000D02*
X39575000Y-79890000D01*
X37815000Y-80090000D02*
X37815000Y-84810000D01*
X43935000Y-80090000D02*
X37815000Y-80090000D01*
X40375000Y-80700000D02*
X38425000Y-80700000D01*
X43935000Y-82700000D02*
X43325000Y-82700000D01*
X43325000Y-80700000D02*
X41375000Y-80700000D01*
X37815000Y-81400000D02*
X38425000Y-81400000D01*
X40875000Y-84200000D02*
X40875000Y-83700000D01*
X40775000Y-83700000D02*
X40975000Y-83700000D01*
X43935000Y-84810000D02*
X43935000Y-80090000D01*
X39575000Y-79990000D02*
X39275000Y-79990000D01*
X41375000Y-80700000D02*
X41375000Y-80090000D01*
X37515000Y-79790000D02*
X37515000Y-81040000D01*
X38765000Y-79790000D02*
X37515000Y-79790000D01*
X37815000Y-84810000D02*
X43935000Y-84810000D01*
X43935000Y-81400000D02*
X43325000Y-81400000D01*
X39575000Y-79890000D02*
X39275000Y-79890000D01*
X40775000Y-84200000D02*
X40775000Y-83700000D01*
%TO.C,J2*%
X39817000Y-93217000D02*
X39422000Y-93613000D01*
X42729000Y-90837000D02*
X42334000Y-91233000D01*
X37729000Y-90837000D02*
X37622000Y-90944000D01*
X33275000Y-96885000D02*
X33275000Y-97525000D01*
X34527000Y-93506000D02*
X34421000Y-93613000D01*
X33515000Y-96825000D02*
X43635000Y-96825000D01*
X33515000Y-88165000D02*
X33515000Y-97285000D01*
X40068000Y-93499000D02*
X39688000Y-93879000D01*
X37463000Y-90571000D02*
X37356000Y-90678000D01*
X42463000Y-90571000D02*
X42083000Y-90951000D01*
X43635000Y-88165000D02*
X43635000Y-97285000D01*
X34793000Y-93772000D02*
X34687000Y-93879000D01*
X33515000Y-88165000D02*
X43635000Y-88165000D01*
X33275000Y-97525000D02*
X33675000Y-97525000D01*
X33515000Y-97285000D02*
X43635000Y-97285000D01*
X33515000Y-95725000D02*
X43635000Y-95725000D01*
X38255000Y-92225000D02*
G75*
G03*
X38255000Y-92225000I-2180000J0D01*
G01*
X43255000Y-92225000D02*
G75*
G03*
X43255000Y-92225000I-2180000J0D01*
G01*
%TO.C,J6*%
X107395000Y-45880000D02*
X107395000Y-44550000D01*
X108725000Y-45880000D02*
X107395000Y-45880000D01*
X110055000Y-43280000D02*
X110055000Y-25440000D01*
X110055000Y-43280000D02*
X107395000Y-43280000D01*
X110055000Y-25440000D02*
X107395000Y-25440000D01*
X107395000Y-43280000D02*
X107395000Y-25440000D01*
%TO.C,J7*%
X69067500Y-58170000D02*
X69067500Y-63310000D01*
X69067500Y-55570000D02*
X69067500Y-56900000D01*
X66407500Y-63310000D02*
X69067500Y-63310000D01*
X66407500Y-58170000D02*
X66407500Y-63310000D01*
X67737500Y-55570000D02*
X69067500Y-55570000D01*
X66407500Y-58170000D02*
X69067500Y-58170000D01*
%TO.C,J8*%
X110055000Y-47720000D02*
X107395000Y-47720000D01*
X107395000Y-60480000D02*
X107395000Y-47720000D01*
X108725000Y-63080000D02*
X107395000Y-63080000D01*
X110055000Y-60480000D02*
X110055000Y-47720000D01*
X110055000Y-60480000D02*
X107395000Y-60480000D01*
X107395000Y-63080000D02*
X107395000Y-61750000D01*
%TO.C,J9*%
X49038000Y-90571000D02*
X48931000Y-90678000D01*
X56392000Y-93217000D02*
X55997000Y-93613000D01*
X54038000Y-90571000D02*
X53658000Y-90951000D01*
X45090000Y-88165000D02*
X65211000Y-88165000D01*
X44850000Y-97525000D02*
X45250000Y-97525000D01*
X64304000Y-90837000D02*
X63909000Y-91233000D01*
X45090000Y-95725000D02*
X65211000Y-95725000D01*
X64038000Y-90571000D02*
X63658000Y-90951000D01*
X59304000Y-90837000D02*
X58909000Y-91233000D01*
X45090000Y-96825000D02*
X65211000Y-96825000D01*
X44850000Y-96885000D02*
X44850000Y-97525000D01*
X54304000Y-90837000D02*
X53909000Y-91233000D01*
X45090000Y-88165000D02*
X45090000Y-97285000D01*
X59038000Y-90571000D02*
X58658000Y-90951000D01*
X65211000Y-88165000D02*
X65211000Y-97285000D01*
X46102000Y-93506000D02*
X45996000Y-93613000D01*
X61643000Y-93499000D02*
X61263000Y-93879000D01*
X51392000Y-93217000D02*
X50997000Y-93613000D01*
X46368000Y-93772000D02*
X46262000Y-93879000D01*
X61392000Y-93217000D02*
X60997000Y-93613000D01*
X45090000Y-97285000D02*
X65211000Y-97285000D01*
X51643000Y-93499000D02*
X51263000Y-93879000D01*
X56643000Y-93499000D02*
X56263000Y-93879000D01*
X49304000Y-90837000D02*
X49197000Y-90944000D01*
X54830000Y-92225000D02*
G75*
G03*
X54830000Y-92225000I-2180000J0D01*
G01*
X64830000Y-92225000D02*
G75*
G03*
X64830000Y-92225000I-2180000J0D01*
G01*
X49830000Y-92225000D02*
G75*
G03*
X49830000Y-92225000I-2180000J0D01*
G01*
X59830000Y-92225000D02*
G75*
G03*
X59830000Y-92225000I-2180000J0D01*
G01*
D10*
%TO.C,J10*%
X31150000Y-28750000D02*
X31150000Y-29200000D01*
X31150000Y-28750000D02*
X42600000Y-28750000D01*
X31400000Y-29450000D02*
X32400000Y-29450000D01*
X26800000Y-29700000D02*
X26800000Y-39700000D01*
X31150000Y-40200000D02*
X31150000Y-40700000D01*
X27300000Y-40200000D02*
X30650000Y-40200000D01*
X32950000Y-29950000D02*
X32950000Y-39450000D01*
X30650000Y-29200000D02*
X27300000Y-29200000D01*
X42600000Y-28750000D02*
X42600000Y-40700000D01*
X31150000Y-40700000D02*
X42600000Y-40700000D01*
X31400000Y-39950000D02*
X32400000Y-39950000D01*
X32400000Y-39950000D02*
G75*
G03*
X32900000Y-39450000I0J500000D01*
G01*
X31400000Y-39950000D02*
G75*
G03*
X31150000Y-40200000I0J-250000D01*
G01*
X27300000Y-29200000D02*
G75*
G03*
X26800000Y-29700000I1J-500001D01*
G01*
X26800000Y-39700000D02*
G75*
G03*
X27300000Y-40200000I500000J0D01*
G01*
X31150000Y-29200000D02*
G75*
G03*
X31400000Y-29450000I249999J-1D01*
G01*
X32900000Y-29950000D02*
G75*
G03*
X32400000Y-29450000I-500001J-1D01*
G01*
D12*
%TO.C,JP3*%
X105555000Y-81850000D02*
X105555000Y-83180000D01*
X105555000Y-77980000D02*
X102895000Y-77980000D01*
X105555000Y-80580000D02*
X105555000Y-77980000D01*
X105555000Y-80580000D02*
X102895000Y-80580000D01*
X105555000Y-83180000D02*
X104225000Y-83180000D01*
X102895000Y-80580000D02*
X102895000Y-77980000D01*
D13*
%TO.C,S2*%
X25825000Y-76900000D02*
X26325000Y-76900000D01*
X25825000Y-76900000D02*
X25825000Y-77400000D01*
X30025000Y-88800000D02*
X29525000Y-88800000D01*
X30025000Y-76900000D02*
X30025000Y-77400000D01*
X30025000Y-88800000D02*
X30025000Y-88300000D01*
X25825000Y-88800000D02*
X26325000Y-88800000D01*
X25825000Y-88800000D02*
X25825000Y-88300000D01*
X30025000Y-76900000D02*
X29525000Y-76900000D01*
D12*
%TO.C,R15*%
X70880000Y-47870000D02*
X70880000Y-46030000D01*
X67040000Y-47870000D02*
X70880000Y-47870000D01*
X67040000Y-46030000D02*
X67040000Y-47870000D01*
X66090000Y-46950000D02*
X67040000Y-46950000D01*
X70880000Y-46030000D02*
X67040000Y-46030000D01*
X71830000Y-46950000D02*
X70880000Y-46950000D01*
%TO.C,U1*%
X101900000Y-78100000D02*
X83900000Y-78100000D01*
X83900000Y-78100000D02*
X83900000Y-97400000D01*
X83900000Y-97400000D02*
X101900000Y-97400000D01*
X101900000Y-97400000D02*
X101900000Y-78100000D01*
X96630000Y-82030000D02*
X86410000Y-82030000D01*
X96630000Y-79370000D02*
X96630000Y-82030000D01*
X96630000Y-79370000D02*
X86410000Y-79370000D01*
X99230000Y-82030000D02*
X97900000Y-82030000D01*
X86410000Y-79370000D02*
X86410000Y-82030000D01*
X99230000Y-80700000D02*
X99230000Y-82030000D01*
%TO.C,R19*%
X32375000Y-53720000D02*
X32375000Y-54670000D01*
X31455000Y-58510000D02*
X33295000Y-58510000D01*
X32375000Y-59460000D02*
X32375000Y-58510000D01*
X33295000Y-58510000D02*
X33295000Y-54670000D01*
X31455000Y-54670000D02*
X31455000Y-58510000D01*
X33295000Y-54670000D02*
X31455000Y-54670000D01*
%TO.C,D1*%
X36330000Y-77950000D02*
G75*
G03*
X36330000Y-77950000I-2500000J0D01*
G01*
X36390000Y-76405170D02*
G75*
G03*
X30840000Y-77950462I-2560000J-1544830D01*
G01*
X30840000Y-77949538D02*
G75*
G03*
X36390000Y-79494830I2990000J-462D01*
G01*
X36390000Y-79495000D02*
X36390000Y-76405000D01*
%TO.C,U6*%
X104650000Y-73012500D02*
X79200000Y-73012500D01*
X104650000Y-70462500D02*
X104650000Y-73012500D01*
X79200000Y-73012500D02*
X79200000Y-47687500D01*
X104650000Y-47687500D02*
X104575000Y-47687500D01*
X79200000Y-47687500D02*
X104600000Y-47687500D01*
X104650000Y-73012500D02*
X104650000Y-47687500D01*
%TO.C,R4*%
X74925000Y-81300000D02*
X75875000Y-81300000D01*
X75875000Y-82220000D02*
X79715000Y-82220000D01*
X75875000Y-80380000D02*
X75875000Y-82220000D01*
X79715000Y-80380000D02*
X75875000Y-80380000D01*
X80665000Y-81300000D02*
X79715000Y-81300000D01*
X79715000Y-82220000D02*
X79715000Y-80380000D01*
%TO.C,R16*%
X68595276Y-47522500D02*
X69104724Y-47522500D01*
X68595276Y-46477500D02*
X69104724Y-46477500D01*
D10*
%TO.C,U2*%
X48225000Y-84195000D02*
G75*
G03*
X48275000Y-80345000I-1900000J1950000D01*
G01*
D13*
X45075000Y-84595000D02*
X45375000Y-84745000D01*
X45075000Y-79895000D02*
X45375000Y-79745000D01*
X45075000Y-80195000D02*
X45075000Y-79895000D01*
X45075000Y-84595000D02*
X45075000Y-84295000D01*
D12*
%TO.C,R2*%
X75990000Y-77545000D02*
X79830000Y-77545000D01*
X80780000Y-76625000D02*
X79830000Y-76625000D01*
X75990000Y-75705000D02*
X75990000Y-77545000D01*
X79830000Y-77545000D02*
X79830000Y-75705000D01*
X75040000Y-76625000D02*
X75990000Y-76625000D01*
X79830000Y-75705000D02*
X75990000Y-75705000D01*
%TO.C,R17*%
X36145000Y-58475000D02*
X36145000Y-54635000D01*
X35225000Y-53685000D02*
X35225000Y-54635000D01*
X36145000Y-54635000D02*
X34305000Y-54635000D01*
X35225000Y-59425000D02*
X35225000Y-58475000D01*
X34305000Y-54635000D02*
X34305000Y-58475000D01*
X34305000Y-58475000D02*
X36145000Y-58475000D01*
%TO.C,R21*%
X95447500Y-36089724D02*
X95447500Y-35580276D01*
X94402500Y-36089724D02*
X94402500Y-35580276D01*
%TO.C,R14*%
X68657776Y-68552500D02*
X69167224Y-68552500D01*
X68657776Y-69597500D02*
X69167224Y-69597500D01*
%TO.C,R18*%
X35697500Y-57019724D02*
X35697500Y-56510276D01*
X34652500Y-57019724D02*
X34652500Y-56510276D01*
%TO.C,R5*%
X71565000Y-27730000D02*
X71565000Y-29570000D01*
X70615000Y-28650000D02*
X71565000Y-28650000D01*
X71565000Y-29570000D02*
X75405000Y-29570000D01*
X75405000Y-29570000D02*
X75405000Y-27730000D01*
X76355000Y-28650000D02*
X75405000Y-28650000D01*
X75405000Y-27730000D02*
X71565000Y-27730000D01*
D13*
%TO.C,AE1*%
X34425000Y-70500000D02*
X34425000Y-68325000D01*
X38975000Y-72700000D02*
X36650000Y-72700000D01*
X39125000Y-66025000D02*
X36575000Y-66025000D01*
X41150000Y-68125000D02*
X41150000Y-70575000D01*
D12*
%TO.C,R20*%
X31852500Y-56804724D02*
X31852500Y-56295276D01*
X32897500Y-56804724D02*
X32897500Y-56295276D01*
%TO.C,U7*%
X103285000Y-46825000D02*
X85485000Y-46825000D01*
X85485000Y-46825000D02*
X85485000Y-21425000D01*
X85485000Y-21425000D02*
X103285000Y-21425000D01*
X103285000Y-21425000D02*
X103285000Y-46825000D01*
%TO.C,C3*%
X50811666Y-84966144D02*
X50811666Y-84516144D01*
X50586666Y-84741144D02*
X51036666Y-84741144D01*
X53206666Y-84548597D02*
G75*
G03*
X51086666Y-84548597I-1060000J2119741D01*
G01*
%TO.C,U5*%
X43000000Y-72225000D02*
X43400000Y-72225000D01*
X43000000Y-56025000D02*
X43000000Y-72225000D01*
X59200000Y-56025000D02*
X58850000Y-56025000D01*
X59200000Y-56025000D02*
X59200000Y-72225000D01*
X58850000Y-56025000D02*
X58850000Y-55125000D01*
X43400000Y-56025000D02*
X43000000Y-56025000D01*
X59200000Y-72225000D02*
X58800000Y-72225000D01*
D13*
%TO.C,BZ1*%
X62075000Y-33225000D02*
G75*
G03*
X62075000Y-33225000I-6400000J0D01*
G01*
D12*
%TO.C,R13*%
X70832500Y-68205000D02*
X66992500Y-68205000D01*
X66042500Y-69125000D02*
X66992500Y-69125000D01*
X71782500Y-69125000D02*
X70832500Y-69125000D01*
X70832500Y-70045000D02*
X70832500Y-68205000D01*
X66992500Y-68205000D02*
X66992500Y-70045000D01*
X66992500Y-70045000D02*
X70832500Y-70045000D01*
%TO.C,R1*%
X77655276Y-76102500D02*
X78164724Y-76102500D01*
X77655276Y-77147500D02*
X78164724Y-77147500D01*
%TO.C,U3*%
X60842500Y-70930000D02*
X78622500Y-70930000D01*
X78622500Y-70930000D02*
X78622500Y-45530000D01*
X78622500Y-45530000D02*
X60842500Y-45530000D01*
X60842500Y-45530000D02*
X60842500Y-70930000D01*
X76012500Y-65927500D02*
X74682500Y-65927500D01*
X64602500Y-63310000D02*
X64602500Y-50550000D01*
X61942500Y-63310000D02*
X61942500Y-50550000D01*
X74682500Y-65927500D02*
X74682500Y-64597500D01*
X64602500Y-50550000D02*
X61942500Y-50550000D01*
X77342500Y-63327500D02*
X74682500Y-63327500D01*
X63272500Y-65910000D02*
X61942500Y-65910000D01*
X61942500Y-65910000D02*
X61942500Y-64580000D01*
X77342500Y-63327500D02*
X77342500Y-50567500D01*
X77342500Y-50567500D02*
X74682500Y-50567500D01*
X74682500Y-63327500D02*
X74682500Y-50567500D01*
X64602500Y-63310000D02*
X61942500Y-63310000D01*
%TO.C,R7*%
X37930000Y-23705000D02*
X37930000Y-25545000D01*
X41770000Y-25545000D02*
X41770000Y-23705000D01*
X36980000Y-24625000D02*
X37930000Y-24625000D01*
X42720000Y-24625000D02*
X41770000Y-24625000D01*
X41770000Y-23705000D02*
X37930000Y-23705000D01*
X37930000Y-25545000D02*
X41770000Y-25545000D01*
%TO.C,R12*%
X70670000Y-36825000D02*
X71620000Y-36825000D01*
X76410000Y-36825000D02*
X75460000Y-36825000D01*
X71620000Y-35905000D02*
X71620000Y-37745000D01*
X75460000Y-35905000D02*
X71620000Y-35905000D01*
X75460000Y-37745000D02*
X75460000Y-35905000D01*
X71620000Y-37745000D02*
X75460000Y-37745000D01*
%TO.C,R22*%
X93955000Y-37645000D02*
X95795000Y-37645000D01*
X94875000Y-38595000D02*
X94875000Y-37645000D01*
X94875000Y-32855000D02*
X94875000Y-33805000D01*
X95795000Y-33805000D02*
X93955000Y-33805000D01*
X95795000Y-37645000D02*
X95795000Y-33805000D01*
X93955000Y-33805000D02*
X93955000Y-37645000D01*
%TO.C,R6*%
X73739724Y-29172500D02*
X73230276Y-29172500D01*
X73739724Y-28127500D02*
X73230276Y-28127500D01*
%TO.C,C2*%
X55975833Y-84741144D02*
X56425833Y-84741144D01*
X56200833Y-84966144D02*
X56200833Y-84516144D01*
X58595833Y-84548597D02*
G75*
G03*
X56475833Y-84548597I-1060000J2119741D01*
G01*
%TO.C,R9*%
X75470000Y-31955000D02*
X71630000Y-31955000D01*
X70680000Y-32875000D02*
X71630000Y-32875000D01*
X71630000Y-31955000D02*
X71630000Y-33795000D01*
X76420000Y-32875000D02*
X75470000Y-32875000D01*
X71630000Y-33795000D02*
X75470000Y-33795000D01*
X75470000Y-33795000D02*
X75470000Y-31955000D01*
%TO.C,R10*%
X73804724Y-32352500D02*
X73295276Y-32352500D01*
X73804724Y-33397500D02*
X73295276Y-33397500D01*
%TO.C,R3*%
X77552776Y-81822500D02*
X78062224Y-81822500D01*
X77552776Y-80777500D02*
X78062224Y-80777500D01*
D13*
%TO.C,S1*%
X68350000Y-85170000D02*
X68850000Y-85170000D01*
X68350000Y-73270000D02*
X68350000Y-73770000D01*
X72550000Y-85170000D02*
X72550000Y-84670000D01*
X72550000Y-73270000D02*
X72050000Y-73270000D01*
X68350000Y-73270000D02*
X68850000Y-73270000D01*
X72550000Y-85170000D02*
X72050000Y-85170000D01*
X72550000Y-73270000D02*
X72550000Y-73770000D01*
X68350000Y-85170000D02*
X68350000Y-84670000D01*
D12*
%TO.C,R8*%
X40214724Y-25247500D02*
X39705276Y-25247500D01*
X40214724Y-24202500D02*
X39705276Y-24202500D01*
%TO.C,R11*%
X73759724Y-36302500D02*
X73250276Y-36302500D01*
X73759724Y-37347500D02*
X73250276Y-37347500D01*
%TO.C,U4*%
X39325000Y-46045000D02*
X39325000Y-48705000D01*
X47005000Y-46045000D02*
X39325000Y-46045000D01*
X49605000Y-47375000D02*
X49605000Y-48705000D01*
X47005000Y-46045000D02*
X47005000Y-48705000D01*
X60340000Y-45470000D02*
X60340000Y-74045000D01*
X50180000Y-45470000D02*
X60340000Y-45470000D01*
X28590000Y-45470000D02*
X28590000Y-74045000D01*
X38750000Y-45470000D02*
X56530000Y-45470000D01*
X47005000Y-48705000D02*
X39325000Y-48705000D01*
X49605000Y-48705000D02*
X48275000Y-48705000D01*
X28590000Y-74045000D02*
X56530000Y-74045000D01*
X60340000Y-74045000D02*
X56530000Y-74045000D01*
X38750000Y-45470000D02*
X28590000Y-45470000D01*
%TO.C,C1*%
X61590000Y-84966144D02*
X61590000Y-84516144D01*
X61365000Y-84741144D02*
X61815000Y-84741144D01*
X63985000Y-84548597D02*
G75*
G03*
X61865000Y-84548597I-1060000J2119741D01*
G01*
%TO.C,A1*%
X84310000Y-24077500D02*
G75*
G03*
X81660000Y-21427500I-2650000J0D01*
G01*
X33290000Y-41857500D02*
G75*
G03*
X35940000Y-44507500I2650000J0D01*
G01*
X35940000Y-21427500D02*
G75*
G03*
X33290000Y-24077500I0J-2650000D01*
G01*
X81660000Y-44507500D02*
G75*
G03*
X84310000Y-41857500I0J2650000D01*
G01*
X35940000Y-21427500D02*
X81660000Y-21427500D01*
X84310000Y-24077500D02*
X84310000Y-41857500D01*
X40750000Y-44827500D02*
X38750000Y-44827500D01*
X33290000Y-24077500D02*
X33290000Y-41857500D01*
X35940000Y-44507500D02*
X81660000Y-44507500D01*
%TD*%
M02*
