%TF.GenerationSoftware,KiCad,Pcbnew,6.0.11-2627ca5db0~126~ubuntu22.04.1*%
%TF.CreationDate,2023-07-24T22:42:18-04:00*%
%TF.ProjectId,sweet-p,73776565-742d-4702-9e6b-696361645f70,rev?*%
%TF.SameCoordinates,Original*%
%TF.FileFunction,Soldermask,Top*%
%TF.FilePolarity,Negative*%
%FSLAX46Y46*%
G04 Gerber Fmt 4.6, Leading zero omitted, Abs format (unit mm)*
G04 Created by KiCad (PCBNEW 6.0.11-2627ca5db0~126~ubuntu22.04.1) date 2023-07-24 22:42:18*
%MOMM*%
%LPD*%
G01*
G04 APERTURE LIST*
G04 Aperture macros list*
%AMRoundRect*
0 Rectangle with rounded corners*
0 $1 Rounding radius*
0 $2 $3 $4 $5 $6 $7 $8 $9 X,Y pos of 4 corners*
0 Add a 4 corners polygon primitive as box body*
4,1,4,$2,$3,$4,$5,$6,$7,$8,$9,$2,$3,0*
0 Add four circle primitives for the rounded corners*
1,1,$1+$1,$2,$3*
1,1,$1+$1,$4,$5*
1,1,$1+$1,$6,$7*
1,1,$1+$1,$8,$9*
0 Add four rect primitives between the rounded corners*
20,1,$1+$1,$2,$3,$4,$5,0*
20,1,$1+$1,$4,$5,$6,$7,0*
20,1,$1+$1,$6,$7,$8,$9,0*
20,1,$1+$1,$8,$9,$2,$3,0*%
G04 Aperture macros list end*
%ADD10R,1.700000X1.700000*%
%ADD11O,1.700000X1.700000*%
%ADD12R,2.600000X2.600000*%
%ADD13C,2.600000*%
%ADD14RoundRect,0.250000X-0.350000X-0.625000X0.350000X-0.625000X0.350000X0.625000X-0.350000X0.625000X0*%
%ADD15O,1.200000X1.750000*%
%ADD16R,1.750000X0.700000*%
%ADD17R,1.500000X1.300000*%
%ADD18R,1.500000X0.800000*%
%ADD19R,1.400000X0.800000*%
%ADD20R,1.500000X1.500000*%
%ADD21R,1.550000X1.000000*%
%ADD22R,1.000000X1.450000*%
%ADD23C,3.200000*%
%ADD24R,1.900000X1.900000*%
%ADD25C,1.900000*%
%ADD26C,1.400000*%
%ADD27O,1.400000X1.400000*%
%ADD28C,1.800000*%
%ADD29R,1.800000X1.800000*%
%ADD30C,1.524000*%
%ADD31RoundRect,0.237500X-0.250000X-0.237500X0.250000X-0.237500X0.250000X0.237500X-0.250000X0.237500X0*%
%ADD32O,1.500000X1.000000*%
%ADD33R,1.500000X1.000000*%
%ADD34RoundRect,0.237500X0.237500X-0.250000X0.237500X0.250000X-0.237500X0.250000X-0.237500X-0.250000X0*%
%ADD35C,2.500000*%
%ADD36R,1.600000X1.600000*%
%ADD37C,1.600000*%
%ADD38R,1.000000X2.000000*%
%ADD39R,1.850000X1.850000*%
%ADD40C,1.850000*%
%ADD41RoundRect,0.237500X0.250000X0.237500X-0.250000X0.237500X-0.250000X-0.237500X0.250000X-0.237500X0*%
G04 APERTURE END LIST*
D10*
%TO.C,J3*%
X95350000Y-76200000D03*
D11*
X92810000Y-76200000D03*
X90270000Y-76200000D03*
X87730000Y-76200000D03*
%TD*%
D12*
%TO.C,J5*%
X69225000Y-92225000D03*
D13*
X74225000Y-92225000D03*
X79225000Y-92225000D03*
%TD*%
D11*
%TO.C,J4*%
X54105000Y-76225000D03*
X56645000Y-76225000D03*
X59185000Y-76225000D03*
D10*
X61725000Y-76225000D03*
%TD*%
D14*
%TO.C,J1*%
X39875000Y-81900000D03*
D15*
X41875000Y-81900000D03*
%TD*%
D12*
%TO.C,J2*%
X36075000Y-92225000D03*
D13*
X41075000Y-92225000D03*
%TD*%
D10*
%TO.C,J6*%
X108725000Y-44550000D03*
D11*
X108725000Y-42010000D03*
X108725000Y-39470000D03*
X108725000Y-36930000D03*
X108725000Y-34390000D03*
X108725000Y-31850000D03*
X108725000Y-29310000D03*
X108725000Y-26770000D03*
%TD*%
D10*
%TO.C,J7*%
X67737500Y-56900000D03*
D11*
X67737500Y-59440000D03*
X67737500Y-61980000D03*
%TD*%
D10*
%TO.C,J8*%
X108725000Y-61750000D03*
D11*
X108725000Y-59210000D03*
X108725000Y-56670000D03*
X108725000Y-54130000D03*
X108725000Y-51590000D03*
X108725000Y-49050000D03*
%TD*%
D12*
%TO.C,J9*%
X47650000Y-92225000D03*
D13*
X52650000Y-92225000D03*
X57650000Y-92225000D03*
X62650000Y-92225000D03*
%TD*%
D16*
%TO.C,J10*%
X30275000Y-37900000D03*
X30275000Y-36800000D03*
X30275000Y-35700000D03*
X30275000Y-34600000D03*
X30275000Y-33500000D03*
X30275000Y-32400000D03*
X30275000Y-31300000D03*
X30275000Y-30200000D03*
D17*
X30400000Y-29000000D03*
D18*
X38000000Y-28750000D03*
D19*
X38650000Y-40700000D03*
D20*
X30400000Y-40350000D03*
D21*
X41075000Y-40300000D03*
D22*
X39500000Y-29075000D03*
%TD*%
D10*
%TO.C,JP3*%
X104225000Y-81850000D03*
D11*
X104225000Y-79310000D03*
%TD*%
D23*
%TO.C,H2*%
X29100000Y-94475000D03*
%TD*%
D24*
%TO.C,S2*%
X27925000Y-80500000D03*
D25*
X27925000Y-83000000D03*
X27925000Y-85500000D03*
%TD*%
D26*
%TO.C,R15*%
X65150000Y-46950000D03*
D27*
X72770000Y-46950000D03*
%TD*%
D11*
%TO.C,U1*%
X87740000Y-80700000D03*
X90280000Y-80700000D03*
X92820000Y-80700000D03*
X95360000Y-80700000D03*
D10*
X97900000Y-80700000D03*
%TD*%
D27*
%TO.C,R19*%
X32375000Y-52780000D03*
D26*
X32375000Y-60400000D03*
%TD*%
D28*
%TO.C,D1*%
X32560000Y-77950000D03*
D29*
X35100000Y-77950000D03*
%TD*%
D30*
%TO.C,U6*%
X85650000Y-50112500D03*
X88150000Y-50112500D03*
X90650000Y-50112500D03*
X93150000Y-50112500D03*
X95650000Y-50112500D03*
X98150000Y-50112500D03*
X98150000Y-70432500D03*
X95650000Y-70432500D03*
X93150000Y-70432500D03*
X90650000Y-70432500D03*
X88150000Y-70432500D03*
X85650000Y-70432500D03*
%TD*%
D26*
%TO.C,R4*%
X81605000Y-81300000D03*
D27*
X73985000Y-81300000D03*
%TD*%
D31*
%TO.C,R16*%
X67937500Y-47000000D03*
X69762500Y-47000000D03*
%TD*%
D32*
%TO.C,U2*%
X46675000Y-83515000D03*
X46675000Y-82245000D03*
D33*
X46675000Y-80975000D03*
%TD*%
D26*
%TO.C,R2*%
X74100000Y-76625000D03*
D27*
X81720000Y-76625000D03*
%TD*%
%TO.C,R17*%
X35225000Y-52745000D03*
D26*
X35225000Y-60365000D03*
%TD*%
D34*
%TO.C,R21*%
X94925000Y-36747500D03*
X94925000Y-34922500D03*
%TD*%
D31*
%TO.C,R14*%
X69825000Y-69075000D03*
X68000000Y-69075000D03*
%TD*%
D34*
%TO.C,R18*%
X35175000Y-57677500D03*
X35175000Y-55852500D03*
%TD*%
D26*
%TO.C,R5*%
X77295000Y-28650000D03*
D27*
X69675000Y-28650000D03*
%TD*%
D23*
%TO.C,H1*%
X107100000Y-94475000D03*
%TD*%
D13*
%TO.C,AE1*%
X40365000Y-71890000D03*
X40365000Y-66810000D03*
X35285000Y-71890000D03*
X35285000Y-66810000D03*
D35*
X37725000Y-69425000D03*
%TD*%
D34*
%TO.C,R20*%
X32375000Y-57462500D03*
X32375000Y-55637500D03*
%TD*%
D23*
%TO.C,H3*%
X29100000Y-24475000D03*
%TD*%
D30*
%TO.C,U7*%
X100885000Y-42925000D03*
X100885000Y-40425000D03*
X100885000Y-37925000D03*
X100885000Y-35425000D03*
X100885000Y-32925000D03*
X100885000Y-30425000D03*
X100885000Y-27925000D03*
X100885000Y-25425000D03*
%TD*%
D36*
%TO.C,C3*%
X52146666Y-83678856D03*
D37*
X52146666Y-81178856D03*
%TD*%
D38*
%TO.C,U5*%
X58100000Y-56125000D03*
X56100000Y-56125000D03*
X54100000Y-56125000D03*
X52100000Y-56125000D03*
X50100000Y-56125000D03*
X48100000Y-56125000D03*
X46100000Y-56125000D03*
X44100000Y-56125000D03*
X44100000Y-72125000D03*
X46100000Y-72125000D03*
X48100000Y-72125000D03*
X50100000Y-72125000D03*
X52100000Y-72125000D03*
X54100000Y-72125000D03*
X56100000Y-72125000D03*
X58100000Y-72125000D03*
%TD*%
D39*
%TO.C,BZ1*%
X58175000Y-33225000D03*
D40*
X53175000Y-33225000D03*
%TD*%
D26*
%TO.C,R13*%
X65102500Y-69125000D03*
D27*
X72722500Y-69125000D03*
%TD*%
D31*
%TO.C,R1*%
X76997500Y-76625000D03*
X78822500Y-76625000D03*
%TD*%
D11*
%TO.C,U3*%
X63272500Y-51880000D03*
X63272500Y-54420000D03*
X63272500Y-56960000D03*
X63272500Y-59500000D03*
X63272500Y-62040000D03*
D10*
X63272500Y-64580000D03*
D11*
X76012500Y-51897500D03*
X76012500Y-54437500D03*
X76012500Y-56977500D03*
X76012500Y-59517500D03*
X76012500Y-62057500D03*
D10*
X76012500Y-64597500D03*
%TD*%
D26*
%TO.C,R7*%
X43660000Y-24625000D03*
D27*
X36040000Y-24625000D03*
%TD*%
D26*
%TO.C,R12*%
X77350000Y-36825000D03*
D27*
X69730000Y-36825000D03*
%TD*%
D26*
%TO.C,R22*%
X94875000Y-39535000D03*
D27*
X94875000Y-31915000D03*
%TD*%
D41*
%TO.C,R6*%
X74397500Y-28650000D03*
X72572500Y-28650000D03*
%TD*%
D36*
%TO.C,C2*%
X57535833Y-83678856D03*
D37*
X57535833Y-81178856D03*
%TD*%
D26*
%TO.C,R9*%
X77360000Y-32875000D03*
D27*
X69740000Y-32875000D03*
%TD*%
D41*
%TO.C,R10*%
X74462500Y-32875000D03*
X72637500Y-32875000D03*
%TD*%
D31*
%TO.C,R3*%
X76895000Y-81300000D03*
X78720000Y-81300000D03*
%TD*%
D24*
%TO.C,S1*%
X70450000Y-76870000D03*
D25*
X70450000Y-79370000D03*
X70450000Y-81870000D03*
%TD*%
D41*
%TO.C,R8*%
X40872500Y-24725000D03*
X39047500Y-24725000D03*
%TD*%
%TO.C,R11*%
X74417500Y-36825000D03*
X72592500Y-36825000D03*
%TD*%
D10*
%TO.C,U4*%
X48275000Y-47375000D03*
D11*
X45735000Y-47375000D03*
X43195000Y-47375000D03*
X40655000Y-47375000D03*
%TD*%
D36*
%TO.C,C1*%
X62925000Y-83678856D03*
D37*
X62925000Y-81178856D03*
%TD*%
%TO.C,A1*%
X49910000Y-22807500D03*
X52450000Y-22807500D03*
X54990000Y-22807500D03*
X57530000Y-22807500D03*
X60070000Y-22807500D03*
X62610000Y-22807500D03*
X65150000Y-22807500D03*
X67690000Y-22807500D03*
X70230000Y-22807500D03*
X72770000Y-22807500D03*
X75310000Y-22807500D03*
X77850000Y-22807500D03*
X77850000Y-43127500D03*
X75310000Y-43127500D03*
X72770000Y-43127500D03*
X70230000Y-43127500D03*
X67690000Y-43127500D03*
X65150000Y-43127500D03*
X62610000Y-43127500D03*
X60070000Y-43127500D03*
X57530000Y-43127500D03*
X54990000Y-43127500D03*
X52450000Y-43127500D03*
X49910000Y-43127500D03*
X47370000Y-43127500D03*
X44830000Y-43127500D03*
X42290000Y-43127500D03*
D36*
X39750000Y-43127500D03*
%TD*%
M02*
