%TF.GenerationSoftware,KiCad,Pcbnew,6.0.11-2627ca5db0~126~ubuntu22.04.1*%
%TF.CreationDate,2023-07-24T22:42:18-04:00*%
%TF.ProjectId,sweet-p,73776565-742d-4702-9e6b-696361645f70,rev?*%
%TF.SameCoordinates,Original*%
%TF.FileFunction,Paste,Top*%
%TF.FilePolarity,Positive*%
%FSLAX46Y46*%
G04 Gerber Fmt 4.6, Leading zero omitted, Abs format (unit mm)*
G04 Created by KiCad (PCBNEW 6.0.11-2627ca5db0~126~ubuntu22.04.1) date 2023-07-24 22:42:18*
%MOMM*%
%LPD*%
G01*
G04 APERTURE LIST*
G04 Aperture macros list*
%AMRoundRect*
0 Rectangle with rounded corners*
0 $1 Rounding radius*
0 $2 $3 $4 $5 $6 $7 $8 $9 X,Y pos of 4 corners*
0 Add a 4 corners polygon primitive as box body*
4,1,4,$2,$3,$4,$5,$6,$7,$8,$9,$2,$3,0*
0 Add four circle primitives for the rounded corners*
1,1,$1+$1,$2,$3*
1,1,$1+$1,$4,$5*
1,1,$1+$1,$6,$7*
1,1,$1+$1,$8,$9*
0 Add four rect primitives between the rounded corners*
20,1,$1+$1,$2,$3,$4,$5,0*
20,1,$1+$1,$4,$5,$6,$7,0*
20,1,$1+$1,$6,$7,$8,$9,0*
20,1,$1+$1,$8,$9,$2,$3,0*%
G04 Aperture macros list end*
%ADD10R,1.750000X0.700000*%
%ADD11R,1.500000X1.300000*%
%ADD12R,1.500000X0.800000*%
%ADD13R,1.400000X0.800000*%
%ADD14R,1.500000X1.500000*%
%ADD15R,1.550000X1.000000*%
%ADD16R,1.000000X1.450000*%
%ADD17RoundRect,0.237500X-0.250000X-0.237500X0.250000X-0.237500X0.250000X0.237500X-0.250000X0.237500X0*%
%ADD18RoundRect,0.237500X0.237500X-0.250000X0.237500X0.250000X-0.237500X0.250000X-0.237500X-0.250000X0*%
%ADD19R,1.000000X2.000000*%
%ADD20RoundRect,0.237500X0.250000X0.237500X-0.250000X0.237500X-0.250000X-0.237500X0.250000X-0.237500X0*%
G04 APERTURE END LIST*
D10*
%TO.C,J10*%
X30275000Y-37900000D03*
X30275000Y-36800000D03*
X30275000Y-35700000D03*
X30275000Y-34600000D03*
X30275000Y-33500000D03*
X30275000Y-32400000D03*
X30275000Y-31300000D03*
X30275000Y-30200000D03*
D11*
X30400000Y-29000000D03*
D12*
X38000000Y-28750000D03*
D13*
X38650000Y-40700000D03*
D14*
X30400000Y-40350000D03*
D15*
X41075000Y-40300000D03*
D16*
X39500000Y-29075000D03*
%TD*%
D17*
%TO.C,R16*%
X67937500Y-47000000D03*
X69762500Y-47000000D03*
%TD*%
D18*
%TO.C,R21*%
X94925000Y-36747500D03*
X94925000Y-34922500D03*
%TD*%
D17*
%TO.C,R14*%
X69825000Y-69075000D03*
X68000000Y-69075000D03*
%TD*%
D18*
%TO.C,R18*%
X35175000Y-57677500D03*
X35175000Y-55852500D03*
%TD*%
%TO.C,R20*%
X32375000Y-57462500D03*
X32375000Y-55637500D03*
%TD*%
D19*
%TO.C,U5*%
X58100000Y-56125000D03*
X56100000Y-56125000D03*
X54100000Y-56125000D03*
X52100000Y-56125000D03*
X50100000Y-56125000D03*
X48100000Y-56125000D03*
X46100000Y-56125000D03*
X44100000Y-56125000D03*
X44100000Y-72125000D03*
X46100000Y-72125000D03*
X48100000Y-72125000D03*
X50100000Y-72125000D03*
X52100000Y-72125000D03*
X54100000Y-72125000D03*
X56100000Y-72125000D03*
X58100000Y-72125000D03*
%TD*%
D17*
%TO.C,R1*%
X76997500Y-76625000D03*
X78822500Y-76625000D03*
%TD*%
D20*
%TO.C,R6*%
X74397500Y-28650000D03*
X72572500Y-28650000D03*
%TD*%
%TO.C,R10*%
X74462500Y-32875000D03*
X72637500Y-32875000D03*
%TD*%
D17*
%TO.C,R3*%
X76895000Y-81300000D03*
X78720000Y-81300000D03*
%TD*%
D20*
%TO.C,R8*%
X40872500Y-24725000D03*
X39047500Y-24725000D03*
%TD*%
%TO.C,R11*%
X74417500Y-36825000D03*
X72592500Y-36825000D03*
%TD*%
M02*
