%TF.GenerationSoftware,KiCad,Pcbnew,6.0.11-2627ca5db0~126~ubuntu22.04.1*%
%TF.CreationDate,2023-07-23T23:03:52-04:00*%
%TF.ProjectId,sweet-p,73776565-742d-4702-9e6b-696361645f70,rev?*%
%TF.SameCoordinates,Original*%
%TF.FileFunction,Copper,L1,Top*%
%TF.FilePolarity,Positive*%
%FSLAX46Y46*%
G04 Gerber Fmt 4.6, Leading zero omitted, Abs format (unit mm)*
G04 Created by KiCad (PCBNEW 6.0.11-2627ca5db0~126~ubuntu22.04.1) date 2023-07-23 23:03:52*
%MOMM*%
%LPD*%
G01*
G04 APERTURE LIST*
G04 Aperture macros list*
%AMRoundRect*
0 Rectangle with rounded corners*
0 $1 Rounding radius*
0 $2 $3 $4 $5 $6 $7 $8 $9 X,Y pos of 4 corners*
0 Add a 4 corners polygon primitive as box body*
4,1,4,$2,$3,$4,$5,$6,$7,$8,$9,$2,$3,0*
0 Add four circle primitives for the rounded corners*
1,1,$1+$1,$2,$3*
1,1,$1+$1,$4,$5*
1,1,$1+$1,$6,$7*
1,1,$1+$1,$8,$9*
0 Add four rect primitives between the rounded corners*
20,1,$1+$1,$2,$3,$4,$5,0*
20,1,$1+$1,$4,$5,$6,$7,0*
20,1,$1+$1,$6,$7,$8,$9,0*
20,1,$1+$1,$8,$9,$2,$3,0*%
G04 Aperture macros list end*
%TA.AperFunction,ComponentPad*%
%ADD10R,1.900000X1.900000*%
%TD*%
%TA.AperFunction,ComponentPad*%
%ADD11C,1.900000*%
%TD*%
%TA.AperFunction,ComponentPad*%
%ADD12C,1.400000*%
%TD*%
%TA.AperFunction,ComponentPad*%
%ADD13O,1.400000X1.400000*%
%TD*%
%TA.AperFunction,ComponentPad*%
%ADD14O,1.700000X1.700000*%
%TD*%
%TA.AperFunction,ComponentPad*%
%ADD15R,1.700000X1.700000*%
%TD*%
%TA.AperFunction,ComponentPad*%
%ADD16R,1.800000X1.800000*%
%TD*%
%TA.AperFunction,ComponentPad*%
%ADD17C,1.800000*%
%TD*%
%TA.AperFunction,ComponentPad*%
%ADD18C,1.524000*%
%TD*%
%TA.AperFunction,SMDPad,CuDef*%
%ADD19RoundRect,0.237500X-0.250000X-0.237500X0.250000X-0.237500X0.250000X0.237500X-0.250000X0.237500X0*%
%TD*%
%TA.AperFunction,ComponentPad*%
%ADD20R,1.500000X1.000000*%
%TD*%
%TA.AperFunction,ComponentPad*%
%ADD21O,1.500000X1.000000*%
%TD*%
%TA.AperFunction,SMDPad,CuDef*%
%ADD22RoundRect,0.237500X0.237500X-0.250000X0.237500X0.250000X-0.237500X0.250000X-0.237500X-0.250000X0*%
%TD*%
%TA.AperFunction,ComponentPad*%
%ADD23R,2.600000X2.600000*%
%TD*%
%TA.AperFunction,ComponentPad*%
%ADD24C,2.600000*%
%TD*%
%TA.AperFunction,ComponentPad*%
%ADD25C,2.500000*%
%TD*%
%TA.AperFunction,SMDPad,CuDef*%
%ADD26R,1.000000X1.500000*%
%TD*%
%TA.AperFunction,SMDPad,CuDef*%
%ADD27RoundRect,0.237500X-0.237500X0.250000X-0.237500X-0.250000X0.237500X-0.250000X0.237500X0.250000X0*%
%TD*%
%TA.AperFunction,ComponentPad*%
%ADD28R,1.600000X1.600000*%
%TD*%
%TA.AperFunction,ComponentPad*%
%ADD29C,1.600000*%
%TD*%
%TA.AperFunction,SMDPad,CuDef*%
%ADD30R,1.750000X0.700000*%
%TD*%
%TA.AperFunction,SMDPad,CuDef*%
%ADD31R,1.500000X1.300000*%
%TD*%
%TA.AperFunction,SMDPad,CuDef*%
%ADD32R,1.500000X0.800000*%
%TD*%
%TA.AperFunction,SMDPad,CuDef*%
%ADD33R,1.400000X0.800000*%
%TD*%
%TA.AperFunction,SMDPad,CuDef*%
%ADD34R,1.500000X1.500000*%
%TD*%
%TA.AperFunction,SMDPad,CuDef*%
%ADD35R,1.550000X1.000000*%
%TD*%
%TA.AperFunction,SMDPad,CuDef*%
%ADD36R,1.000000X1.450000*%
%TD*%
%TA.AperFunction,SMDPad,CuDef*%
%ADD37R,1.000000X2.000000*%
%TD*%
%TA.AperFunction,ComponentPad*%
%ADD38R,1.850000X1.850000*%
%TD*%
%TA.AperFunction,ComponentPad*%
%ADD39C,1.850000*%
%TD*%
%TA.AperFunction,SMDPad,CuDef*%
%ADD40RoundRect,0.237500X0.250000X0.237500X-0.250000X0.237500X-0.250000X-0.237500X0.250000X-0.237500X0*%
%TD*%
G04 APERTURE END LIST*
D10*
%TO.P,S2,1*%
%TO.N,Net-(C1-Pad1)*%
X28200000Y-85455000D03*
D11*
%TO.P,S2,2*%
%TO.N,VEXT*%
X28200000Y-82955000D03*
%TO.P,S2,3*%
%TO.N,unconnected-(S2-Pad3)*%
X28200000Y-80455000D03*
%TD*%
D12*
%TO.P,R15,1*%
%TO.N,Net-(R13-Pad2)*%
X65500000Y-47900000D03*
D13*
%TO.P,R15,2*%
%TO.N,GND*%
X73120000Y-47900000D03*
%TD*%
D14*
%TO.P,U1,5,DONE*%
%TO.N,DONE*%
X87740000Y-80700000D03*
%TO.P,U1,4,DRIVE*%
%TO.N,+3V3*%
X90280000Y-80700000D03*
%TO.P,U1,3,DELAY*%
%TO.N,Net-(J2-Pad1)*%
X92820000Y-80700000D03*
%TO.P,U1,2,GND*%
%TO.N,GND*%
X95360000Y-80700000D03*
D15*
%TO.P,U1,1,VDD*%
%TO.N,Net-(C2-Pad1)*%
X97900000Y-80700000D03*
%TD*%
D13*
%TO.P,R19,2*%
%TO.N,GND*%
X36575000Y-61185000D03*
D12*
%TO.P,R19,1*%
%TO.N,DONE*%
X36575000Y-53565000D03*
%TD*%
D16*
%TO.P,D1,1,K*%
%TO.N,GND*%
X33950000Y-80475000D03*
D17*
%TO.P,D1,2,A*%
%TO.N,Net-(D1-Pad2)*%
X36490000Y-80475000D03*
%TD*%
D18*
%TO.P,U6,1,GND*%
%TO.N,GND*%
X85650000Y-50112500D03*
%TO.P,U6,2,PPS*%
%TO.N,unconnected-(U6-Pad2)*%
X88150000Y-50112500D03*
%TO.P,U6,3,VIN*%
%TO.N,+3V3*%
X90650000Y-50112500D03*
%TO.P,U6,4,RXT*%
%TO.N,unconnected-(U6-Pad4)*%
X93150000Y-50112500D03*
%TO.P,U6,5,TXO*%
%TO.N,unconnected-(U6-Pad5)*%
X95650000Y-50112500D03*
%TO.P,U6,6,WAKE*%
%TO.N,unconnected-(U6-Pad6)*%
X98150000Y-50112500D03*
%TO.P,U6,7,RST*%
%TO.N,GPS_RST*%
X98150000Y-70432500D03*
%TO.P,U6,8,SDA*%
%TO.N,SDA*%
X95650000Y-70432500D03*
%TO.P,U6,9,SCL*%
%TO.N,SCL*%
X93150000Y-70432500D03*
%TO.P,U6,10,GND*%
%TO.N,GND*%
X90650000Y-70432500D03*
%TO.P,U6,11,3V*%
%TO.N,unconnected-(U6-Pad11)*%
X88150000Y-70432500D03*
%TO.P,U6,12,VIN*%
%TO.N,unconnected-(U6-Pad12)*%
X85650000Y-70432500D03*
%TD*%
D12*
%TO.P,R4,1*%
%TO.N,Net-(R3-Pad2)*%
X80455000Y-81550000D03*
D13*
%TO.P,R4,2*%
%TO.N,GND*%
X72835000Y-81550000D03*
%TD*%
D19*
%TO.P,R16,1*%
%TO.N,Net-(R13-Pad2)*%
X68287500Y-47950000D03*
%TO.P,R16,2*%
%TO.N,GND*%
X70112500Y-47950000D03*
%TD*%
D20*
%TO.P,U2,1,GND*%
%TO.N,GND*%
X41875000Y-79105000D03*
D21*
%TO.P,U2,2,VIN*%
%TO.N,Net-(C1-Pad1)*%
X41875000Y-80375000D03*
%TO.P,U2,3,VOUT*%
%TO.N,Net-(C2-Pad1)*%
X41875000Y-81645000D03*
%TD*%
D12*
%TO.P,R2,1*%
%TO.N,Net-(R1-Pad1)*%
X72950000Y-76875000D03*
D13*
%TO.P,R2,2*%
%TO.N,GND*%
X80570000Y-76875000D03*
%TD*%
%TO.P,R17,2*%
%TO.N,GND*%
X32950000Y-53565000D03*
D12*
%TO.P,R17,1*%
%TO.N,SAT_EN*%
X32950000Y-61185000D03*
%TD*%
D22*
%TO.P,R21,1*%
%TO.N,+3V3*%
X94925000Y-36747500D03*
%TO.P,R21,2*%
%TO.N,RTC_INT*%
X94925000Y-34922500D03*
%TD*%
D23*
%TO.P,J1,1,Pin_1*%
%TO.N,VEXT*%
X36075000Y-92225000D03*
D24*
%TO.P,J1,2,Pin_2*%
%TO.N,GND*%
X41075000Y-92225000D03*
%TD*%
D19*
%TO.P,R14,1*%
%TO.N,VEXT*%
X68000000Y-69075000D03*
%TO.P,R14,2*%
%TO.N,Net-(R13-Pad2)*%
X69825000Y-69075000D03*
%TD*%
D22*
%TO.P,R18,1*%
%TO.N,SAT_EN*%
X32900000Y-58497500D03*
%TO.P,R18,2*%
%TO.N,GND*%
X32900000Y-56672500D03*
%TD*%
D12*
%TO.P,R5,1*%
%TO.N,+3V3*%
X68550000Y-28400000D03*
D13*
%TO.P,R5,2*%
%TO.N,ONEWIRE*%
X76170000Y-28400000D03*
%TD*%
D24*
%TO.P,AE1,1,A*%
%TO.N,GND*%
X40365000Y-71890000D03*
X40365000Y-66810000D03*
X35285000Y-71890000D03*
X35285000Y-66810000D03*
D25*
%TO.P,AE1,2,Shield*%
%TO.N,Net-(AE1-Pad2)*%
X37725000Y-69425000D03*
%TD*%
D26*
%TO.P,JP2,1,A*%
%TO.N,Net-(C2-Pad1)*%
X93575000Y-84025000D03*
%TO.P,JP2,2,B*%
%TO.N,+3V3*%
X92275000Y-84025000D03*
%TD*%
D15*
%TO.P,J2,1,Pin_1*%
%TO.N,Net-(J2-Pad1)*%
X92800000Y-76150000D03*
D14*
%TO.P,J2,2,Pin_2*%
%TO.N,+3V3*%
X90260000Y-76150000D03*
%TO.P,J2,3,Pin_3*%
%TO.N,DONE*%
X87720000Y-76150000D03*
%TD*%
D27*
%TO.P,R20,1*%
%TO.N,DONE*%
X36575000Y-56502500D03*
%TO.P,R20,2*%
%TO.N,GND*%
X36575000Y-58327500D03*
%TD*%
D18*
%TO.P,U7,1,VIN*%
%TO.N,+3V3*%
X100885000Y-42925000D03*
%TO.P,U7,2,GND*%
%TO.N,GND*%
X100885000Y-40425000D03*
%TO.P,U7,3,SCL*%
%TO.N,SCL*%
X100885000Y-37925000D03*
%TO.P,U7,4,SDA*%
%TO.N,SDA*%
X100885000Y-35425000D03*
%TO.P,U7,5,VBAT*%
%TO.N,unconnected-(U7-Pad5)*%
X100885000Y-32925000D03*
%TO.P,U7,6,32K*%
%TO.N,unconnected-(U7-Pad6)*%
X100885000Y-30425000D03*
%TO.P,U7,7,SQW*%
%TO.N,RTC_INT*%
X100885000Y-27925000D03*
%TO.P,U7,8,RST*%
%TO.N,unconnected-(U7-Pad8)*%
X100885000Y-25425000D03*
%TD*%
D28*
%TO.P,C3,1*%
%TO.N,Net-(C2-Pad1)*%
X47698750Y-81603856D03*
D29*
%TO.P,C3,2*%
%TO.N,GND*%
X47698750Y-79103856D03*
%TD*%
D30*
%TO.P,J8,1,DAT2*%
%TO.N,unconnected-(J8-Pad1)*%
X30275000Y-37900000D03*
%TO.P,J8,2,DAT3/CD*%
%TO.N,SD_CS*%
X30275000Y-36800000D03*
%TO.P,J8,3,CMD*%
%TO.N,MOSI*%
X30275000Y-35700000D03*
%TO.P,J8,4,VDD*%
%TO.N,+3V3*%
X30275000Y-34600000D03*
%TO.P,J8,5,CLK*%
%TO.N,SCK*%
X30275000Y-33500000D03*
%TO.P,J8,6,VSS*%
%TO.N,GND*%
X30275000Y-32400000D03*
%TO.P,J8,7,DAT0*%
%TO.N,MISO*%
X30275000Y-31300000D03*
%TO.P,J8,8,DAT1*%
%TO.N,unconnected-(J8-Pad8)*%
X30275000Y-30200000D03*
D31*
%TO.P,J8,9,SHIELD*%
%TO.N,unconnected-(J8-Pad9)*%
X30400000Y-29000000D03*
D32*
%TO.P,J8,10*%
%TO.N,N/C*%
X38000000Y-28750000D03*
D33*
%TO.P,J8,11*%
X38650000Y-40700000D03*
D34*
%TO.P,J8,12*%
X30400000Y-40350000D03*
D35*
%TO.P,J8,A*%
X41075000Y-40300000D03*
D36*
%TO.P,J8,B*%
X39500000Y-29075000D03*
%TD*%
D37*
%TO.P,U5,1,GND*%
%TO.N,GND*%
X58100000Y-56125000D03*
%TO.P,U5,2,MISO*%
%TO.N,MISO*%
X56100000Y-56125000D03*
%TO.P,U5,3,MOSI*%
%TO.N,MOSI*%
X54100000Y-56125000D03*
%TO.P,U5,4,SCK*%
%TO.N,SCK*%
X52100000Y-56125000D03*
%TO.P,U5,5,NSS*%
%TO.N,LORA_CS*%
X50100000Y-56125000D03*
%TO.P,U5,6,RESET*%
%TO.N,LORA_RST*%
X48100000Y-56125000D03*
%TO.P,U5,7,DIO5*%
%TO.N,unconnected-(U5-Pad7)*%
X46100000Y-56125000D03*
%TO.P,U5,8,GND*%
%TO.N,GND*%
X44100000Y-56125000D03*
%TO.P,U5,9,ANT*%
%TO.N,Net-(AE1-Pad2)*%
X44100000Y-72125000D03*
%TO.P,U5,10,GND*%
%TO.N,GND*%
X46100000Y-72125000D03*
%TO.P,U5,11,DIO3*%
%TO.N,unconnected-(U5-Pad11)*%
X48100000Y-72125000D03*
%TO.P,U5,12,DIO4*%
%TO.N,unconnected-(U5-Pad12)*%
X50100000Y-72125000D03*
%TO.P,U5,13,3.3V*%
%TO.N,+3V3*%
X52100000Y-72125000D03*
%TO.P,U5,14,DIO0*%
%TO.N,unconnected-(U5-Pad14)*%
X54100000Y-72125000D03*
%TO.P,U5,15,DIO1*%
%TO.N,unconnected-(U5-Pad15)*%
X56100000Y-72125000D03*
%TO.P,U5,16,DIO2*%
%TO.N,unconnected-(U5-Pad16)*%
X58100000Y-72125000D03*
%TD*%
D38*
%TO.P,BZ1,1*%
%TO.N,BUZZER*%
X58175000Y-33225000D03*
D39*
%TO.P,BZ1,2*%
%TO.N,GND*%
X53175000Y-33225000D03*
%TD*%
D12*
%TO.P,R13,1*%
%TO.N,VEXT*%
X65102500Y-69125000D03*
D13*
%TO.P,R13,2*%
%TO.N,Net-(R13-Pad2)*%
X72722500Y-69125000D03*
%TD*%
D19*
%TO.P,R1,1*%
%TO.N,Net-(R1-Pad1)*%
X75847500Y-76875000D03*
%TO.P,R1,2*%
%TO.N,GND*%
X77672500Y-76875000D03*
%TD*%
D15*
%TO.P,U3,1,VIN*%
%TO.N,+3V3*%
X76012500Y-64597500D03*
D14*
%TO.P,U3,2,GND*%
%TO.N,GND*%
X76012500Y-62057500D03*
%TO.P,U3,3,SCL*%
%TO.N,SCL*%
X76012500Y-59517500D03*
%TO.P,U3,4,SDA*%
%TO.N,SDA*%
X76012500Y-56977500D03*
%TO.P,U3,5,ADDR*%
%TO.N,unconnected-(U3-Pad5)*%
X76012500Y-54437500D03*
%TO.P,U3,6,ALRT*%
%TO.N,unconnected-(U3-Pad6)*%
X76012500Y-51897500D03*
D15*
%TO.P,U3,7,A+*%
%TO.N,unconnected-(U3-Pad7)*%
X63272500Y-64580000D03*
D14*
%TO.P,U3,8,A3*%
%TO.N,ADS_3*%
X63272500Y-62040000D03*
%TO.P,U3,9,A2*%
%TO.N,ADS_2*%
X63272500Y-59500000D03*
%TO.P,U3,10,A1*%
%TO.N,ADS_1*%
X63272500Y-56960000D03*
%TO.P,U3,11,A0*%
%TO.N,Net-(R13-Pad2)*%
X63272500Y-54420000D03*
%TO.P,U3,12,A-*%
%TO.N,unconnected-(U3-Pad12)*%
X63272500Y-51880000D03*
%TD*%
D15*
%TO.P,JP1,1,A*%
%TO.N,Net-(C2-Pad1)*%
X94175000Y-89550000D03*
D14*
%TO.P,JP1,2,B*%
%TO.N,+3V3*%
X91635000Y-89550000D03*
%TD*%
D12*
%TO.P,R7,1*%
%TO.N,LED*%
X91075000Y-39535000D03*
D13*
%TO.P,R7,2*%
%TO.N,Net-(D1-Pad2)*%
X91075000Y-31915000D03*
%TD*%
D12*
%TO.P,R12,1*%
%TO.N,+3V3*%
X68550000Y-37100000D03*
D13*
%TO.P,R12,2*%
%TO.N,SCL*%
X76170000Y-37100000D03*
%TD*%
D23*
%TO.P,J3,1,Pin_1*%
%TO.N,+3V3*%
X69225000Y-92225000D03*
D24*
%TO.P,J3,2,Pin_2*%
%TO.N,ONEWIRE*%
X74225000Y-92225000D03*
%TO.P,J3,3,Pin_3*%
%TO.N,GND*%
X79225000Y-92225000D03*
%TD*%
D12*
%TO.P,R22,1*%
%TO.N,+3V3*%
X94875000Y-39535000D03*
D13*
%TO.P,R22,2*%
%TO.N,RTC_INT*%
X94875000Y-31915000D03*
%TD*%
D19*
%TO.P,R6,1*%
%TO.N,+3V3*%
X71457500Y-28375000D03*
%TO.P,R6,2*%
%TO.N,ONEWIRE*%
X73282500Y-28375000D03*
%TD*%
D28*
%TO.P,C2,1*%
%TO.N,Net-(C2-Pad1)*%
X59406250Y-81603856D03*
D29*
%TO.P,C2,2*%
%TO.N,GND*%
X59406250Y-79103856D03*
%TD*%
D23*
%TO.P,J7,1,Pin_1*%
%TO.N,GND*%
X47650000Y-92225000D03*
D24*
%TO.P,J7,2,Pin_2*%
%TO.N,+3V3*%
X52650000Y-92225000D03*
%TO.P,J7,3,Pin_3*%
%TO.N,RX*%
X57650000Y-92225000D03*
%TO.P,J7,4,Pin_4*%
%TO.N,TX*%
X62650000Y-92225000D03*
%TD*%
D12*
%TO.P,R9,1*%
%TO.N,+3V3*%
X76170000Y-32500000D03*
D13*
%TO.P,R9,2*%
%TO.N,SDA*%
X68550000Y-32500000D03*
%TD*%
D19*
%TO.P,R10,1*%
%TO.N,+3V3*%
X71382500Y-32475000D03*
%TO.P,R10,2*%
%TO.N,SDA*%
X73207500Y-32475000D03*
%TD*%
D15*
%TO.P,J4,1,Pin_1*%
%TO.N,GND*%
X108725000Y-44550000D03*
D14*
%TO.P,J4,2,Pin_2*%
%TO.N,unconnected-(J4-Pad2)*%
X108725000Y-42010000D03*
%TO.P,J4,3,Pin_3*%
%TO.N,unconnected-(J4-Pad3)*%
X108725000Y-39470000D03*
%TO.P,J4,4,Pin_4*%
%TO.N,unconnected-(J4-Pad4)*%
X108725000Y-36930000D03*
%TO.P,J4,5,Pin_5*%
%TO.N,unconnected-(J4-Pad5)*%
X108725000Y-34390000D03*
%TO.P,J4,6,Pin_6*%
%TO.N,SAT_EN*%
X108725000Y-31850000D03*
%TO.P,J4,7,Pin_7*%
%TO.N,VEXT*%
X108725000Y-29310000D03*
%TO.P,J4,8,Pin_8*%
%TO.N,GND*%
X108725000Y-26770000D03*
%TD*%
D19*
%TO.P,R3,1*%
%TO.N,GND*%
X75745000Y-81550000D03*
%TO.P,R3,2*%
%TO.N,Net-(R3-Pad2)*%
X77570000Y-81550000D03*
%TD*%
D10*
%TO.P,S1,1*%
%TO.N,Net-(R1-Pad1)*%
X69025000Y-76945000D03*
D11*
%TO.P,S1,2*%
%TO.N,Net-(J2-Pad1)*%
X69025000Y-79445000D03*
%TO.P,S1,3*%
%TO.N,Net-(R3-Pad2)*%
X69025000Y-81945000D03*
%TD*%
D22*
%TO.P,R8,1*%
%TO.N,LED*%
X90975000Y-36747500D03*
%TO.P,R8,2*%
%TO.N,Net-(D1-Pad2)*%
X90975000Y-34922500D03*
%TD*%
D40*
%TO.P,R11,1*%
%TO.N,+3V3*%
X73357500Y-37125000D03*
%TO.P,R11,2*%
%TO.N,SCL*%
X71532500Y-37125000D03*
%TD*%
D14*
%TO.P,U4,1,GND*%
%TO.N,GND*%
X40655000Y-47375000D03*
%TO.P,U4,2,3V3*%
%TO.N,+3V3*%
X43195000Y-47375000D03*
%TO.P,U4,3,SCL*%
%TO.N,SCL*%
X45735000Y-47375000D03*
D15*
%TO.P,U4,4,SDA*%
%TO.N,SDA*%
X48275000Y-47375000D03*
%TD*%
D28*
%TO.P,C1,1*%
%TO.N,Net-(C1-Pad1)*%
X53552500Y-81603856D03*
D29*
%TO.P,C1,2*%
%TO.N,GND*%
X53552500Y-79103856D03*
%TD*%
D15*
%TO.P,J5,1,Pin_1*%
%TO.N,ADS_1*%
X67737500Y-56900000D03*
D14*
%TO.P,J5,2,Pin_2*%
%TO.N,ADS_2*%
X67737500Y-59440000D03*
%TO.P,J5,3,Pin_3*%
%TO.N,ADS_3*%
X67737500Y-61980000D03*
%TD*%
D15*
%TO.P,J6,1,Pin_1*%
%TO.N,unconnected-(J6-Pad1)*%
X108725000Y-61750000D03*
D14*
%TO.P,J6,2,Pin_2*%
%TO.N,RX2*%
X108725000Y-59210000D03*
%TO.P,J6,3,Pin_3*%
%TO.N,TX2*%
X108725000Y-56670000D03*
%TO.P,J6,4,Pin_4*%
%TO.N,+3V3*%
X108725000Y-54130000D03*
%TO.P,J6,5,Pin_5*%
%TO.N,unconnected-(J6-Pad5)*%
X108725000Y-51590000D03*
%TO.P,J6,6,Pin_6*%
%TO.N,GND*%
X108725000Y-49050000D03*
%TD*%
D28*
%TO.P,A1,1,~{RESET}*%
%TO.N,unconnected-(A1-Pad1)*%
X39750000Y-43127500D03*
D29*
%TO.P,A1,2,3V3*%
%TO.N,+3V3*%
X42290000Y-43127500D03*
%TO.P,A1,3,AREF*%
%TO.N,unconnected-(A1-Pad3)*%
X44830000Y-43127500D03*
%TO.P,A1,4,GND*%
%TO.N,GND*%
X47370000Y-43127500D03*
%TO.P,A1,5,DAC0/A0*%
%TO.N,A0*%
X49910000Y-43127500D03*
%TO.P,A1,6,A1*%
%TO.N,SAT_EN*%
X52450000Y-43127500D03*
%TO.P,A1,7,A2*%
%TO.N,GPS_RST*%
X54990000Y-43127500D03*
%TO.P,A1,8,A3*%
%TO.N,DONE*%
X57530000Y-43127500D03*
%TO.P,A1,9,A4*%
%TO.N,RTC_INT*%
X60070000Y-43127500D03*
%TO.P,A1,10,A5*%
%TO.N,BUZZER*%
X62610000Y-43127500D03*
%TO.P,A1,11,SCK/D24*%
%TO.N,SCK*%
X65150000Y-43127500D03*
%TO.P,A1,12,MOSI/D23*%
%TO.N,MOSI*%
X67690000Y-43127500D03*
%TO.P,A1,13,MISO/D22*%
%TO.N,MISO*%
X70230000Y-43127500D03*
%TO.P,A1,14,RX/D0*%
%TO.N,RX*%
X72770000Y-43127500D03*
%TO.P,A1,15,TX/D1*%
%TO.N,TX*%
X75310000Y-43127500D03*
%TO.P,A1,16,GND*%
%TO.N,GND*%
X77850000Y-43127500D03*
%TO.P,A1,17,SDA/D20*%
%TO.N,SDA*%
X77850000Y-22807500D03*
%TO.P,A1,18,SCL/D21*%
%TO.N,SCL*%
X75310000Y-22807500D03*
%TO.P,A1,19,D5*%
%TO.N,ONEWIRE*%
X72770000Y-22807500D03*
%TO.P,A1,20,D6*%
%TO.N,LORA_CS*%
X70230000Y-22807500D03*
%TO.P,A1,21,D9*%
%TO.N,LORA_RST*%
X67690000Y-22807500D03*
%TO.P,A1,22,D10*%
%TO.N,SD_CS*%
X65150000Y-22807500D03*
%TO.P,A1,23,D11*%
%TO.N,RX2*%
X62610000Y-22807500D03*
%TO.P,A1,24,D12*%
%TO.N,TX2*%
X60070000Y-22807500D03*
%TO.P,A1,25,D13*%
%TO.N,LED*%
X57530000Y-22807500D03*
%TO.P,A1,26,USB*%
%TO.N,unconnected-(A1-Pad26)*%
X54990000Y-22807500D03*
%TO.P,A1,27,EN*%
%TO.N,EN*%
X52450000Y-22807500D03*
%TO.P,A1,28,VBAT*%
%TO.N,unconnected-(A1-Pad28)*%
X49910000Y-22807500D03*
%TD*%
M02*
