M48
; DRILL file {KiCad 6.0.11-2627ca5db0~126~ubuntu22.04.1} date Mon 24 Jul 2023 10:42:22 PM EDT
; FORMAT={-:-/ absolute / inch / decimal}
; #@! TF.CreationDate,2023-07-24T22:42:22-04:00
; #@! TF.GenerationSoftware,Kicad,Pcbnew,6.0.11-2627ca5db0~126~ubuntu22.04.1
; #@! TF.FileFunction,Plated,1,2,PTH
FMAT,2
INCH
; #@! TA.AperFunction,Plated,PTH,ViaDrill
T1C0.0157
; #@! TA.AperFunction,Plated,PTH,ComponentDrill
T2C0.0217
; #@! TA.AperFunction,Plated,PTH,ComponentDrill
T3C0.0276
; #@! TA.AperFunction,Plated,PTH,ComponentDrill
T4C0.0295
; #@! TA.AperFunction,Plated,PTH,ComponentDrill
T5C0.0300
; #@! TA.AperFunction,Plated,PTH,ComponentDrill
T6C0.0315
; #@! TA.AperFunction,Plated,PTH,ComponentDrill
T7C0.0335
; #@! TA.AperFunction,Plated,PTH,ComponentDrill
T8C0.0354
; #@! TA.AperFunction,Plated,PTH,ComponentDrill
T9C0.0394
; #@! TA.AperFunction,Plated,PTH,ComponentDrill
T10C0.0512
; #@! TA.AperFunction,Plated,PTH,ComponentDrill
T11C0.0591
; #@! TA.AperFunction,Plated,PTH,ComponentDrill
T12C0.0630
%
G90
G05
T1
X1.0945Y-2.7126
X1.122Y-1.9321
X1.1791Y-3.1703
X1.1821Y-3.3514
X1.2392Y-3.2185
X1.2392Y-3.2805
X1.2667Y-1.2756
X1.2707Y-1.7726
X1.2815Y-2.7254
X1.3268Y-2.2451
X1.3346Y-3.4587
X1.3504Y-2.0226
X1.4203Y-1.9242
X1.4311Y-3.2185
X1.5699Y-3.4075
X1.5925Y-2.9331
X1.5955Y-1.7776
X1.6004Y-3.4754
X1.6006Y-2.0858
X1.6034Y-2.2964
X1.6348Y-2.9961
X1.6644Y-1.3622
X1.7077Y-2.7264
X1.7165Y-1.438
X1.749Y-2.9961
X1.7549Y-3.2913
X1.7638Y-1.1339
X1.81Y-2.56
X1.813Y-1.4941
X1.8159Y-2.9961
X1.8563Y-2.1476
X1.8642Y-1.7776
X1.8671Y-1.3041
X1.8681Y-2.0423
X1.9104Y-3.3543
X1.9134Y-3.1152
X1.9134Y-3.2402
X1.9183Y-1.2539
X1.938Y-2.6693
X1.9734Y-2.9469
X1.9754Y-2.1407
X1.9803Y-3.188
X2.0039Y-1.3474
X2.0148Y-1.5719
X2.0148Y-1.6299
X2.0295Y-1.8356
X2.0335Y-2.1368
X2.0433Y-2.3819
X2.06Y-1.0846
X2.0738Y-2.6801
X2.0758Y-3.4744
X2.1064Y-1.5768
X2.1073Y-1.813
X2.1407Y-2.9272
X2.1614Y-1.8435
X2.1624Y-1.0217
X2.1772Y-1.3858
X2.2057Y-2.1476
X2.2195Y-1.7756
X2.2224Y-1.6338
X2.2264Y-2.6043
X2.2579Y-1.9803
X2.2589Y-3.3642
X2.2638Y-2.9518
X2.2657Y-0.9675
X2.2707Y-3.7146
X2.311Y-1.8701
X2.315Y-1.5522
X2.3455Y-2.8711
X2.3524Y-2.7785
X2.374Y-3.4764
X2.3888Y-1.9035
X2.3927Y-3.1132
X2.3967Y-3.2874
X2.4104Y-2.1585
X2.4144Y-2.7264
X2.4154Y-2.8711
X2.4665Y-1.3031
X2.5Y-3.748
X2.5207Y-1.94
X2.5581Y-1.7904
X2.561Y-3.4163
X2.565Y-1.1014
X2.5671Y-2.1425
X2.6073Y-1.9833
X2.6427Y-1.189
X2.6476Y-1.6378
X2.6496Y-2.0827
X2.6742Y-3.2067
X2.6742Y-3.3061
X2.6919Y-1.5817
X2.6988Y-0.9803
X2.7087Y-1.6329
X2.7146Y-2.9084
X2.7264Y-3.4852
X2.7293Y-2.2805
X2.747Y-2.9449
X2.7657Y-0.9606
X2.7657Y-2.3799
X2.8012Y-1.1299
X2.8492Y-2.1427
X2.8583Y-1.0807
X2.9094Y-1.626
X2.9128Y-3.3077
X2.9587Y-1.5049
X2.9911Y-1.5984
X2.9951Y-2.8711
X3.0472Y-2.7864
X3.0581Y-1.8455
X3.0581Y-2.7205
X3.061Y-3.1447
X3.065Y-1.5079
X3.0974Y-1.1841
X3.1043Y-3.0659
X3.1309Y-1.2126
X3.1614Y-1.9715
X3.1713Y-2.815
X3.1791Y-2.375
X3.1978Y-1.5915
X3.2156Y-2.9291
X3.2608Y-1.0059
X3.2677Y-3.436
X3.3031Y-3.7106
X3.311Y-1.627
X3.3406Y-3.7372
X3.3435Y-2.9144
X3.3691Y-1.752
X3.3723Y-2.4432
X3.3729Y-2.5432
X3.3829Y-1.5522
X3.4616Y-3.437
X3.5502Y-2.8878
X3.5571Y-2.5335
X3.5689Y-2.1358
X3.5719Y-1.4478
X3.5719Y-1.6919
X3.5719Y-2.8494
X3.5955Y-3.4921
X3.6112Y-1.9035
X3.6191Y-2.4459
X3.6201Y-1.4173
X3.628Y-2.3415
X3.6535Y-3.0955
X3.7293Y-3.4961
X3.7333Y-1.1181
X3.7333Y-1.69
X3.749Y-2.8524
X3.7687Y-2.2963
X3.7864Y-1.2008
X3.8287Y-2.6978
X3.8415Y-1.19
X3.8533Y-3.3632
X3.8602Y-1.7441
X3.8652Y-1.5896
X3.8671Y-3.4409
X3.9114Y-1.063
X3.9183Y-1.2382
X3.9823Y-2.9075
X3.9862Y-3.0719
X3.9862Y-3.127
X3.9882Y-3.4419
X4.0659Y-1.5955
X4.0778Y-1.0492
X4.122Y-1.1555
X4.123Y-2.6457
T2
X1.8376Y-3.188
X1.8376Y-3.238
X1.8376Y-3.288
T3
X1.2746Y-2.078
X1.2746Y-2.378
X1.3868Y-2.0766
X1.3868Y-2.3766
X1.4189Y-0.9695
X1.7189Y-0.9695
X2.5631Y-2.7215
X2.565Y-1.8484
X2.7431Y-1.128
X2.7453Y-1.4498
X2.7457Y-1.2943
X2.8631Y-2.7215
X2.865Y-1.8484
X2.9128Y-3.2008
X2.9173Y-3.0167
X3.0431Y-1.128
X3.0453Y-1.4498
X3.0457Y-1.2943
X3.2128Y-3.2008
X3.2173Y-3.0167
X3.7352Y-1.2565
X3.7352Y-1.5565
T4
X1.5699Y-3.2244
X1.6486Y-3.2244
T5
X3.372Y-1.9729
X3.372Y-2.7729
X3.4705Y-1.9729
X3.4705Y-2.7729
X3.5689Y-1.9729
X3.5689Y-2.7729
X3.6673Y-1.9729
X3.6673Y-2.7729
X3.7657Y-1.9729
X3.7657Y-2.7729
X3.8642Y-1.9729
X3.8642Y-2.7729
X3.9719Y-1.001
X3.9719Y-1.0994
X3.9719Y-1.1978
X3.9719Y-1.2963
X3.9719Y-1.3947
X3.9719Y-1.4931
X3.9719Y-1.5915
X3.9719Y-1.69
T6
X1.565Y-1.6979
X1.665Y-1.6979
X1.765Y-1.6979
X1.865Y-1.6979
X1.965Y-0.8979
X1.965Y-1.6979
X2.053Y-3.196
X2.053Y-3.2944
X2.065Y-0.8979
X2.065Y-1.6979
X2.165Y-0.8979
X2.165Y-1.6979
X2.265Y-0.8979
X2.265Y-1.6979
X2.2652Y-3.196
X2.2652Y-3.2944
X2.365Y-0.8979
X2.365Y-1.6979
X2.465Y-0.8979
X2.465Y-1.6979
X2.4774Y-3.196
X2.4774Y-3.2944
X2.565Y-0.8979
X2.565Y-1.6979
X2.665Y-0.8979
X2.665Y-1.6979
X2.765Y-0.8979
X2.765Y-1.6979
X2.865Y-0.8979
X2.865Y-1.6979
X2.965Y-0.8979
X2.965Y-1.6979
X3.065Y-0.8979
X3.065Y-1.6979
T7
X2.0935Y-1.3081
X2.2904Y-1.3081
T8
X1.0994Y-3.1693
X1.0994Y-3.2677
X1.0994Y-3.3661
X1.2819Y-3.0689
X1.3819Y-3.0689
X2.7736Y-3.0264
X2.7736Y-3.1248
X2.7736Y-3.2232
T9
X1.6006Y-1.8652
X1.7006Y-1.8652
X1.8006Y-1.8652
X1.9006Y-1.8652
X2.1301Y-3.001
X2.2301Y-3.001
X2.3301Y-3.001
X2.4301Y-3.001
X2.491Y-2.0425
X2.491Y-2.1425
X2.491Y-2.2425
X2.491Y-2.3425
X2.491Y-2.4425
X2.491Y-2.5425
X2.6668Y-2.2402
X2.6668Y-2.3402
X2.6668Y-2.4402
X2.9926Y-2.0432
X2.9926Y-2.1432
X2.9926Y-2.2432
X2.9926Y-2.3432
X2.9926Y-2.4432
X2.9926Y-2.5432
X3.4539Y-3.0
X3.4543Y-3.1772
X3.5539Y-3.0
X3.5543Y-3.1772
X3.6539Y-3.0
X3.6543Y-3.1772
X3.7539Y-3.0
X3.7543Y-3.1772
X3.8543Y-3.1772
X4.1033Y-3.1224
X4.1033Y-3.2224
X4.2805Y-1.0539
X4.2805Y-1.1539
X4.2805Y-1.2539
X4.2805Y-1.3539
X4.2805Y-1.4539
X4.2805Y-1.5539
X4.2805Y-1.6539
X4.2805Y-1.7539
X4.2805Y-1.9311
X4.2805Y-2.0311
X4.2805Y-2.1311
X4.2805Y-2.2311
X4.2805Y-2.3311
X4.2805Y-2.4311
T10
X1.4203Y-3.6309
X1.6171Y-3.6309
X1.876Y-3.6309
X2.0728Y-3.6309
X2.2697Y-3.6309
X2.4665Y-3.6309
X2.7254Y-3.6309
X2.9222Y-3.6309
X3.1191Y-3.6309
T11
X1.4852Y-2.7333
T12
X1.3892Y-2.6303
X1.3892Y-2.8303
X1.5892Y-2.6303
X1.5892Y-2.8303
T0
M30
