M48
; DRILL file {KiCad 6.0.11-2627ca5db0~126~ubuntu22.04.1} date Sun 23 Jul 2023 11:03:47 PM EDT
; FORMAT={-:-/ absolute / inch / decimal}
; #@! TF.CreationDate,2023-07-23T23:03:47-04:00
; #@! TF.GenerationSoftware,Kicad,Pcbnew,6.0.11-2627ca5db0~126~ubuntu22.04.1
; #@! TF.FileFunction,Plated,1,2,PTH
FMAT,2
INCH
; #@! TA.AperFunction,Plated,PTH,ComponentDrill
T1C0.0217
; #@! TA.AperFunction,Plated,PTH,ComponentDrill
T2C0.0276
; #@! TA.AperFunction,Plated,PTH,ComponentDrill
T3C0.0300
; #@! TA.AperFunction,Plated,PTH,ComponentDrill
T4C0.0315
; #@! TA.AperFunction,Plated,PTH,ComponentDrill
T5C0.0335
; #@! TA.AperFunction,Plated,PTH,ComponentDrill
T6C0.0354
; #@! TA.AperFunction,Plated,PTH,ComponentDrill
T7C0.0394
; #@! TA.AperFunction,Plated,PTH,ComponentDrill
T8C0.0512
; #@! TA.AperFunction,Plated,PTH,ComponentDrill
T9C0.0591
; #@! TA.AperFunction,Plated,PTH,ComponentDrill
T10C0.0630
%
G90
G05
T1
X1.6486Y-3.1144
X1.6486Y-3.1644
X1.6486Y-3.2144
T2
X1.2972Y-2.1089
X1.2972Y-2.4089
X1.44Y-2.1089
X1.44Y-2.4089
X2.5631Y-2.7215
X2.5787Y-1.8858
X2.6988Y-1.1181
X2.6988Y-1.2795
X2.6988Y-1.4606
X2.8631Y-2.7215
X2.8675Y-3.2106
X2.872Y-3.0266
X2.8787Y-1.8858
X2.9988Y-1.1181
X2.9988Y-1.2795
X2.9988Y-1.4606
X3.1675Y-3.2106
X3.172Y-3.0266
X3.5856Y-1.2565
X3.5856Y-1.5565
X3.7352Y-1.2565
X3.7352Y-1.5565
T3
X3.372Y-1.9729
X3.372Y-2.7729
X3.4705Y-1.9729
X3.4705Y-2.7729
X3.5689Y-1.9729
X3.5689Y-2.7729
X3.6673Y-1.9729
X3.6673Y-2.7729
X3.7657Y-1.9729
X3.7657Y-2.7729
X3.8642Y-1.9729
X3.8642Y-2.7729
X3.9719Y-1.001
X3.9719Y-1.0994
X3.9719Y-1.1978
X3.9719Y-1.2963
X3.9719Y-1.3947
X3.9719Y-1.4931
X3.9719Y-1.5915
X3.9719Y-1.69
T4
X1.565Y-1.6979
X1.665Y-1.6979
X1.765Y-1.6979
X1.865Y-1.6979
X1.8779Y-3.1143
X1.8779Y-3.2128
X1.965Y-0.8979
X1.965Y-1.6979
X2.065Y-0.8979
X2.065Y-1.6979
X2.1084Y-3.1143
X2.1084Y-3.2128
X2.165Y-0.8979
X2.165Y-1.6979
X2.265Y-0.8979
X2.265Y-1.6979
X2.3388Y-3.1143
X2.3388Y-3.2128
X2.365Y-0.8979
X2.365Y-1.6979
X2.465Y-0.8979
X2.465Y-1.6979
X2.565Y-0.8979
X2.565Y-1.6979
X2.665Y-0.8979
X2.665Y-1.6979
X2.765Y-0.8979
X2.765Y-1.6979
X2.865Y-0.8979
X2.865Y-1.6979
X2.965Y-0.8979
X2.965Y-1.6979
X3.065Y-0.8979
X3.065Y-1.6979
T5
X2.0935Y-1.3081
X2.2904Y-1.3081
T6
X1.1102Y-3.1675
X1.1102Y-3.2659
X1.1102Y-3.3644
X1.3366Y-3.1683
X1.4366Y-3.1683
X2.7175Y-3.0293
X2.7175Y-3.1278
X2.7175Y-3.2262
T7
X1.6006Y-1.8652
X1.7006Y-1.8652
X1.8006Y-1.8652
X1.9006Y-1.8652
X2.491Y-2.0425
X2.491Y-2.1425
X2.491Y-2.2425
X2.491Y-2.3425
X2.491Y-2.4425
X2.491Y-2.5425
X2.6668Y-2.2402
X2.6668Y-2.3402
X2.6668Y-2.4402
X2.9926Y-2.0432
X2.9926Y-2.1432
X2.9926Y-2.2432
X2.9926Y-2.3432
X2.9926Y-2.4432
X2.9926Y-2.5432
X3.4535Y-2.998
X3.4543Y-3.1772
X3.5535Y-2.998
X3.5543Y-3.1772
X3.6077Y-3.5256
X3.6535Y-2.998
X3.6543Y-3.1772
X3.7077Y-3.5256
X3.7543Y-3.1772
X3.8543Y-3.1772
X4.2805Y-1.0539
X4.2805Y-1.1539
X4.2805Y-1.2539
X4.2805Y-1.3539
X4.2805Y-1.4539
X4.2805Y-1.5539
X4.2805Y-1.6539
X4.2805Y-1.7539
X4.2805Y-1.9311
X4.2805Y-2.0311
X4.2805Y-2.1311
X4.2805Y-2.2311
X4.2805Y-2.3311
X4.2805Y-2.4311
T8
X1.4203Y-3.6309
X1.6171Y-3.6309
X1.876Y-3.6309
X2.0728Y-3.6309
X2.2697Y-3.6309
X2.4665Y-3.6309
X2.7254Y-3.6309
X2.9222Y-3.6309
X3.1191Y-3.6309
T9
X1.4852Y-2.7333
T10
X1.3892Y-2.6303
X1.3892Y-2.8303
X1.5892Y-2.6303
X1.5892Y-2.8303
T0
M30
