%TF.GenerationSoftware,KiCad,Pcbnew,6.0.10-86aedd382b~118~ubuntu22.04.1*%
%TF.CreationDate,2023-05-06T01:17:00-04:00*%
%TF.ProjectId,sweet-p,73776565-742d-4702-9e6b-696361645f70,rev?*%
%TF.SameCoordinates,Original*%
%TF.FileFunction,Soldermask,Top*%
%TF.FilePolarity,Negative*%
%FSLAX46Y46*%
G04 Gerber Fmt 4.6, Leading zero omitted, Abs format (unit mm)*
G04 Created by KiCad (PCBNEW 6.0.10-86aedd382b~118~ubuntu22.04.1) date 2023-05-06 01:17:00*
%MOMM*%
%LPD*%
G01*
G04 APERTURE LIST*
G04 Aperture macros list*
%AMRoundRect*
0 Rectangle with rounded corners*
0 $1 Rounding radius*
0 $2 $3 $4 $5 $6 $7 $8 $9 X,Y pos of 4 corners*
0 Add a 4 corners polygon primitive as box body*
4,1,4,$2,$3,$4,$5,$6,$7,$8,$9,$2,$3,0*
0 Add four circle primitives for the rounded corners*
1,1,$1+$1,$2,$3*
1,1,$1+$1,$4,$5*
1,1,$1+$1,$6,$7*
1,1,$1+$1,$8,$9*
0 Add four rect primitives between the rounded corners*
20,1,$1+$1,$2,$3,$4,$5,0*
20,1,$1+$1,$4,$5,$6,$7,0*
20,1,$1+$1,$6,$7,$8,$9,0*
20,1,$1+$1,$8,$9,$2,$3,0*%
G04 Aperture macros list end*
%ADD10C,3.200000*%
%ADD11C,1.524000*%
%ADD12RoundRect,0.237500X0.237500X-0.250000X0.237500X0.250000X-0.237500X0.250000X-0.237500X-0.250000X0*%
%ADD13C,2.100000*%
%ADD14C,1.750000*%
%ADD15RoundRect,0.237500X-0.237500X0.250000X-0.237500X-0.250000X0.237500X-0.250000X0.237500X0.250000X0*%
%ADD16RoundRect,0.150000X-0.587500X-0.150000X0.587500X-0.150000X0.587500X0.150000X-0.587500X0.150000X0*%
%ADD17R,2.600000X2.600000*%
%ADD18C,2.600000*%
%ADD19C,1.400000*%
%ADD20O,1.400000X1.400000*%
%ADD21C,2.500000*%
%ADD22R,1.750000X0.700000*%
%ADD23R,1.500000X1.300000*%
%ADD24R,1.500000X0.800000*%
%ADD25R,1.400000X0.800000*%
%ADD26R,1.500000X1.500000*%
%ADD27R,1.550000X1.000000*%
%ADD28R,1.000000X1.450000*%
%ADD29RoundRect,0.150000X0.587500X0.150000X-0.587500X0.150000X-0.587500X-0.150000X0.587500X-0.150000X0*%
%ADD30RoundRect,0.237500X-0.250000X-0.237500X0.250000X-0.237500X0.250000X0.237500X-0.250000X0.237500X0*%
%ADD31R,1.700000X1.700000*%
%ADD32O,1.700000X1.700000*%
%ADD33R,1.000000X2.000000*%
%ADD34R,1.000000X1.500000*%
%ADD35R,1.600000X1.600000*%
%ADD36C,1.600000*%
G04 APERTURE END LIST*
D10*
%TO.C,H4*%
X66575000Y-3400000D03*
%TD*%
D11*
%TO.C,U3*%
X42625000Y-33162500D03*
X45125000Y-33162500D03*
X47625000Y-33162500D03*
X50125000Y-33162500D03*
X52625000Y-33162500D03*
X55125000Y-33162500D03*
X55125000Y-53482500D03*
X52625000Y-53482500D03*
X50125000Y-53482500D03*
X47625000Y-53482500D03*
X45125000Y-53482500D03*
X42625000Y-53482500D03*
%TD*%
D12*
%TO.C,R4*%
X56700000Y-18512500D03*
X56700000Y-16687500D03*
%TD*%
D10*
%TO.C,H2*%
X3475000Y-66550000D03*
%TD*%
D13*
%TO.C,SW1*%
X8152500Y-32615000D03*
X8152500Y-39625000D03*
D14*
X5662500Y-38375000D03*
X5662500Y-33875000D03*
%TD*%
D15*
%TO.C,R13*%
X43600000Y-41797500D03*
X43600000Y-43622500D03*
%TD*%
D16*
%TO.C,Q2*%
X39562500Y-21450000D03*
X39562500Y-23350000D03*
X41437500Y-22400000D03*
%TD*%
D17*
%TO.C,J6*%
X12200000Y-62875000D03*
D18*
X17200000Y-62875000D03*
%TD*%
D12*
%TO.C,R12*%
X29400000Y-23312500D03*
X29400000Y-21487500D03*
%TD*%
D19*
%TO.C,R1*%
X40390000Y-12400000D03*
D20*
X48010000Y-12400000D03*
%TD*%
D10*
%TO.C,H1*%
X66550000Y-66550000D03*
%TD*%
D18*
%TO.C,AE1*%
X13140000Y-54790000D03*
X13140000Y-49710000D03*
X8060000Y-54790000D03*
X8060000Y-49710000D03*
D21*
X10500000Y-52325000D03*
%TD*%
D10*
%TO.C,H3*%
X3450000Y-3450000D03*
%TD*%
D22*
%TO.C,J5*%
X4200000Y-19600000D03*
X4200000Y-18500000D03*
X4200000Y-17400000D03*
X4200000Y-16300000D03*
X4200000Y-15200000D03*
X4200000Y-14100000D03*
X4200000Y-13000000D03*
X4200000Y-11900000D03*
D23*
X4325000Y-10700000D03*
D24*
X11925000Y-10450000D03*
D25*
X12575000Y-22400000D03*
D26*
X4325000Y-22050000D03*
D27*
X15000000Y-22000000D03*
D28*
X13425000Y-10775000D03*
%TD*%
D29*
%TO.C,Q1*%
X26437500Y-23350000D03*
X26437500Y-21450000D03*
X24562500Y-22400000D03*
%TD*%
D30*
%TO.C,R10*%
X26587500Y-12400000D03*
X28412500Y-12400000D03*
%TD*%
D31*
%TO.C,J8*%
X17075000Y-2375000D03*
D32*
X19615000Y-2375000D03*
X22155000Y-2375000D03*
%TD*%
D33*
%TO.C,U1*%
X31325000Y-39275000D03*
X29325000Y-39275000D03*
X27325000Y-39275000D03*
X25325000Y-39275000D03*
X23325000Y-39275000D03*
X21325000Y-39275000D03*
X19325000Y-39275000D03*
X17325000Y-39275000D03*
X17325000Y-55275000D03*
X19325000Y-55275000D03*
X21325000Y-55275000D03*
X23325000Y-55275000D03*
X25325000Y-55275000D03*
X27325000Y-55275000D03*
X29325000Y-55275000D03*
X31325000Y-55275000D03*
%TD*%
D19*
%TO.C,R3*%
X56700000Y-21410000D03*
D20*
X56700000Y-13790000D03*
%TD*%
D15*
%TO.C,R11*%
X44300000Y-21487500D03*
X44300000Y-23312500D03*
%TD*%
D34*
%TO.C,JP1*%
X25050000Y-18600000D03*
X26350000Y-18600000D03*
%TD*%
%TO.C,JP2*%
X41150000Y-18500000D03*
X39850000Y-18500000D03*
%TD*%
D19*
%TO.C,R9*%
X23690000Y-12400000D03*
D20*
X31310000Y-12400000D03*
%TD*%
D17*
%TO.C,J1*%
X47000000Y-62875000D03*
D18*
X52000000Y-62875000D03*
X57000000Y-62875000D03*
%TD*%
D30*
%TO.C,R2*%
X43287500Y-12400000D03*
X45112500Y-12400000D03*
%TD*%
D17*
%TO.C,J7*%
X24725000Y-62875000D03*
D18*
X29725000Y-62875000D03*
X34725000Y-62875000D03*
X39725000Y-62875000D03*
%TD*%
D19*
%TO.C,R6*%
X53400000Y-21310000D03*
D20*
X53400000Y-13690000D03*
%TD*%
D30*
%TO.C,R7*%
X8987500Y-44700000D03*
X10812500Y-44700000D03*
%TD*%
D31*
%TO.C,J4*%
X68100000Y-29600000D03*
D32*
X68100000Y-27060000D03*
X68100000Y-24520000D03*
X68100000Y-21980000D03*
X68100000Y-19440000D03*
X68100000Y-16900000D03*
X68100000Y-14360000D03*
X68100000Y-11820000D03*
%TD*%
D19*
%TO.C,R14*%
X43600000Y-39000000D03*
D20*
X43600000Y-46620000D03*
%TD*%
D12*
%TO.C,R5*%
X53400000Y-18410000D03*
X53400000Y-16585000D03*
%TD*%
D31*
%TO.C,J2*%
X50600000Y-2300000D03*
D32*
X48060000Y-2300000D03*
X45520000Y-2300000D03*
%TD*%
D19*
%TO.C,R8*%
X13710000Y-44700000D03*
D20*
X6090000Y-44700000D03*
%TD*%
D32*
%TO.C,U2*%
X13880000Y-31300000D03*
X16420000Y-31300000D03*
X18960000Y-31300000D03*
D31*
X21500000Y-31300000D03*
%TD*%
%TO.C,J3*%
X68100000Y-46800000D03*
D32*
X68100000Y-44260000D03*
X68100000Y-41720000D03*
X68100000Y-39180000D03*
X68100000Y-36640000D03*
X68100000Y-34100000D03*
%TD*%
D35*
%TO.C,A1*%
X15250000Y-27052500D03*
D36*
X17790000Y-27052500D03*
X20330000Y-27052500D03*
X22870000Y-27052500D03*
X25410000Y-27052500D03*
X27950000Y-27052500D03*
X30490000Y-27052500D03*
X33030000Y-27052500D03*
X35570000Y-27052500D03*
X38110000Y-27052500D03*
X40650000Y-27052500D03*
X43190000Y-27052500D03*
X45730000Y-27052500D03*
X48270000Y-27052500D03*
X50810000Y-27052500D03*
X53350000Y-27052500D03*
X53350000Y-6732500D03*
X50810000Y-6732500D03*
X48270000Y-6732500D03*
X45730000Y-6732500D03*
X43190000Y-6732500D03*
X40650000Y-6732500D03*
X38110000Y-6732500D03*
X35570000Y-6732500D03*
X33030000Y-6732500D03*
X30490000Y-6732500D03*
X27950000Y-6732500D03*
X25410000Y-6732500D03*
%TD*%
D11*
%TO.C,U4*%
X38105000Y-35100000D03*
X38105000Y-37600000D03*
X38105000Y-40100000D03*
X38105000Y-42600000D03*
X38105000Y-45100000D03*
X38105000Y-47600000D03*
X38105000Y-50100000D03*
X38105000Y-52600000D03*
%TD*%
M02*
