%TF.GenerationSoftware,KiCad,Pcbnew,6.0.10-86aedd382b~118~ubuntu22.04.1*%
%TF.CreationDate,2023-05-06T01:16:59-04:00*%
%TF.ProjectId,sweet-p,73776565-742d-4702-9e6b-696361645f70,rev?*%
%TF.SameCoordinates,Original*%
%TF.FileFunction,Paste,Top*%
%TF.FilePolarity,Positive*%
%FSLAX46Y46*%
G04 Gerber Fmt 4.6, Leading zero omitted, Abs format (unit mm)*
G04 Created by KiCad (PCBNEW 6.0.10-86aedd382b~118~ubuntu22.04.1) date 2023-05-06 01:16:59*
%MOMM*%
%LPD*%
G01*
G04 APERTURE LIST*
G04 Aperture macros list*
%AMRoundRect*
0 Rectangle with rounded corners*
0 $1 Rounding radius*
0 $2 $3 $4 $5 $6 $7 $8 $9 X,Y pos of 4 corners*
0 Add a 4 corners polygon primitive as box body*
4,1,4,$2,$3,$4,$5,$6,$7,$8,$9,$2,$3,0*
0 Add four circle primitives for the rounded corners*
1,1,$1+$1,$2,$3*
1,1,$1+$1,$4,$5*
1,1,$1+$1,$6,$7*
1,1,$1+$1,$8,$9*
0 Add four rect primitives between the rounded corners*
20,1,$1+$1,$2,$3,$4,$5,0*
20,1,$1+$1,$4,$5,$6,$7,0*
20,1,$1+$1,$6,$7,$8,$9,0*
20,1,$1+$1,$8,$9,$2,$3,0*%
G04 Aperture macros list end*
%ADD10RoundRect,0.237500X0.237500X-0.250000X0.237500X0.250000X-0.237500X0.250000X-0.237500X-0.250000X0*%
%ADD11RoundRect,0.237500X-0.237500X0.250000X-0.237500X-0.250000X0.237500X-0.250000X0.237500X0.250000X0*%
%ADD12RoundRect,0.150000X-0.587500X-0.150000X0.587500X-0.150000X0.587500X0.150000X-0.587500X0.150000X0*%
%ADD13R,1.750000X0.700000*%
%ADD14R,1.500000X1.300000*%
%ADD15R,1.500000X0.800000*%
%ADD16R,1.400000X0.800000*%
%ADD17R,1.500000X1.500000*%
%ADD18R,1.550000X1.000000*%
%ADD19R,1.000000X1.450000*%
%ADD20RoundRect,0.150000X0.587500X0.150000X-0.587500X0.150000X-0.587500X-0.150000X0.587500X-0.150000X0*%
%ADD21RoundRect,0.237500X-0.250000X-0.237500X0.250000X-0.237500X0.250000X0.237500X-0.250000X0.237500X0*%
%ADD22R,1.000000X2.000000*%
G04 APERTURE END LIST*
D10*
%TO.C,R4*%
X56700000Y-18512500D03*
X56700000Y-16687500D03*
%TD*%
D11*
%TO.C,R13*%
X43600000Y-41797500D03*
X43600000Y-43622500D03*
%TD*%
D12*
%TO.C,Q2*%
X39562500Y-21450000D03*
X39562500Y-23350000D03*
X41437500Y-22400000D03*
%TD*%
D10*
%TO.C,R12*%
X29400000Y-23312500D03*
X29400000Y-21487500D03*
%TD*%
D13*
%TO.C,J5*%
X4200000Y-19600000D03*
X4200000Y-18500000D03*
X4200000Y-17400000D03*
X4200000Y-16300000D03*
X4200000Y-15200000D03*
X4200000Y-14100000D03*
X4200000Y-13000000D03*
X4200000Y-11900000D03*
D14*
X4325000Y-10700000D03*
D15*
X11925000Y-10450000D03*
D16*
X12575000Y-22400000D03*
D17*
X4325000Y-22050000D03*
D18*
X15000000Y-22000000D03*
D19*
X13425000Y-10775000D03*
%TD*%
D20*
%TO.C,Q1*%
X26437500Y-23350000D03*
X26437500Y-21450000D03*
X24562500Y-22400000D03*
%TD*%
D21*
%TO.C,R10*%
X26587500Y-12400000D03*
X28412500Y-12400000D03*
%TD*%
D22*
%TO.C,U1*%
X31325000Y-39275000D03*
X29325000Y-39275000D03*
X27325000Y-39275000D03*
X25325000Y-39275000D03*
X23325000Y-39275000D03*
X21325000Y-39275000D03*
X19325000Y-39275000D03*
X17325000Y-39275000D03*
X17325000Y-55275000D03*
X19325000Y-55275000D03*
X21325000Y-55275000D03*
X23325000Y-55275000D03*
X25325000Y-55275000D03*
X27325000Y-55275000D03*
X29325000Y-55275000D03*
X31325000Y-55275000D03*
%TD*%
D11*
%TO.C,R11*%
X44300000Y-21487500D03*
X44300000Y-23312500D03*
%TD*%
D21*
%TO.C,R2*%
X43287500Y-12400000D03*
X45112500Y-12400000D03*
%TD*%
%TO.C,R7*%
X8987500Y-44700000D03*
X10812500Y-44700000D03*
%TD*%
D10*
%TO.C,R5*%
X53400000Y-18410000D03*
X53400000Y-16585000D03*
%TD*%
M02*
