%TF.GenerationSoftware,KiCad,Pcbnew,6.0.11-2627ca5db0~126~ubuntu22.04.1*%
%TF.CreationDate,2023-07-23T23:03:52-04:00*%
%TF.ProjectId,sweet-p,73776565-742d-4702-9e6b-696361645f70,rev?*%
%TF.SameCoordinates,Original*%
%TF.FileFunction,Soldermask,Top*%
%TF.FilePolarity,Negative*%
%FSLAX46Y46*%
G04 Gerber Fmt 4.6, Leading zero omitted, Abs format (unit mm)*
G04 Created by KiCad (PCBNEW 6.0.11-2627ca5db0~126~ubuntu22.04.1) date 2023-07-23 23:03:52*
%MOMM*%
%LPD*%
G01*
G04 APERTURE LIST*
G04 Aperture macros list*
%AMRoundRect*
0 Rectangle with rounded corners*
0 $1 Rounding radius*
0 $2 $3 $4 $5 $6 $7 $8 $9 X,Y pos of 4 corners*
0 Add a 4 corners polygon primitive as box body*
4,1,4,$2,$3,$4,$5,$6,$7,$8,$9,$2,$3,0*
0 Add four circle primitives for the rounded corners*
1,1,$1+$1,$2,$3*
1,1,$1+$1,$4,$5*
1,1,$1+$1,$6,$7*
1,1,$1+$1,$8,$9*
0 Add four rect primitives between the rounded corners*
20,1,$1+$1,$2,$3,$4,$5,0*
20,1,$1+$1,$4,$5,$6,$7,0*
20,1,$1+$1,$6,$7,$8,$9,0*
20,1,$1+$1,$8,$9,$2,$3,0*%
G04 Aperture macros list end*
%ADD10R,1.900000X1.900000*%
%ADD11C,1.900000*%
%ADD12C,1.400000*%
%ADD13O,1.400000X1.400000*%
%ADD14O,1.700000X1.700000*%
%ADD15R,1.700000X1.700000*%
%ADD16R,1.800000X1.800000*%
%ADD17C,1.800000*%
%ADD18C,1.524000*%
%ADD19RoundRect,0.237500X-0.250000X-0.237500X0.250000X-0.237500X0.250000X0.237500X-0.250000X0.237500X0*%
%ADD20R,1.500000X1.000000*%
%ADD21O,1.500000X1.000000*%
%ADD22RoundRect,0.237500X0.237500X-0.250000X0.237500X0.250000X-0.237500X0.250000X-0.237500X-0.250000X0*%
%ADD23R,2.600000X2.600000*%
%ADD24C,2.600000*%
%ADD25C,3.200000*%
%ADD26C,2.500000*%
%ADD27R,1.000000X1.500000*%
%ADD28RoundRect,0.237500X-0.237500X0.250000X-0.237500X-0.250000X0.237500X-0.250000X0.237500X0.250000X0*%
%ADD29R,1.600000X1.600000*%
%ADD30C,1.600000*%
%ADD31R,1.750000X0.700000*%
%ADD32R,1.500000X1.300000*%
%ADD33R,1.500000X0.800000*%
%ADD34R,1.400000X0.800000*%
%ADD35R,1.500000X1.500000*%
%ADD36R,1.550000X1.000000*%
%ADD37R,1.000000X1.450000*%
%ADD38R,1.000000X2.000000*%
%ADD39R,1.850000X1.850000*%
%ADD40C,1.850000*%
%ADD41RoundRect,0.237500X0.250000X0.237500X-0.250000X0.237500X-0.250000X-0.237500X0.250000X-0.237500X0*%
G04 APERTURE END LIST*
D10*
%TO.C,S2*%
X28200000Y-85455000D03*
D11*
X28200000Y-82955000D03*
X28200000Y-80455000D03*
%TD*%
D12*
%TO.C,R15*%
X65500000Y-47900000D03*
D13*
X73120000Y-47900000D03*
%TD*%
D14*
%TO.C,U1*%
X87740000Y-80700000D03*
X90280000Y-80700000D03*
X92820000Y-80700000D03*
X95360000Y-80700000D03*
D15*
X97900000Y-80700000D03*
%TD*%
D13*
%TO.C,R19*%
X36575000Y-61185000D03*
D12*
X36575000Y-53565000D03*
%TD*%
D16*
%TO.C,D1*%
X33950000Y-80475000D03*
D17*
X36490000Y-80475000D03*
%TD*%
D18*
%TO.C,U6*%
X85650000Y-50112500D03*
X88150000Y-50112500D03*
X90650000Y-50112500D03*
X93150000Y-50112500D03*
X95650000Y-50112500D03*
X98150000Y-50112500D03*
X98150000Y-70432500D03*
X95650000Y-70432500D03*
X93150000Y-70432500D03*
X90650000Y-70432500D03*
X88150000Y-70432500D03*
X85650000Y-70432500D03*
%TD*%
D12*
%TO.C,R4*%
X80455000Y-81550000D03*
D13*
X72835000Y-81550000D03*
%TD*%
D19*
%TO.C,R16*%
X68287500Y-47950000D03*
X70112500Y-47950000D03*
%TD*%
D20*
%TO.C,U2*%
X41875000Y-79105000D03*
D21*
X41875000Y-80375000D03*
X41875000Y-81645000D03*
%TD*%
D12*
%TO.C,R2*%
X72950000Y-76875000D03*
D13*
X80570000Y-76875000D03*
%TD*%
%TO.C,R17*%
X32950000Y-53565000D03*
D12*
X32950000Y-61185000D03*
%TD*%
D22*
%TO.C,R21*%
X94925000Y-36747500D03*
X94925000Y-34922500D03*
%TD*%
D23*
%TO.C,J1*%
X36075000Y-92225000D03*
D24*
X41075000Y-92225000D03*
%TD*%
D19*
%TO.C,R14*%
X68000000Y-69075000D03*
X69825000Y-69075000D03*
%TD*%
D22*
%TO.C,R18*%
X32900000Y-58497500D03*
X32900000Y-56672500D03*
%TD*%
D12*
%TO.C,R5*%
X68550000Y-28400000D03*
D13*
X76170000Y-28400000D03*
%TD*%
D25*
%TO.C,H1*%
X107100000Y-94475000D03*
%TD*%
D24*
%TO.C,AE1*%
X40365000Y-71890000D03*
X40365000Y-66810000D03*
X35285000Y-71890000D03*
X35285000Y-66810000D03*
D26*
X37725000Y-69425000D03*
%TD*%
D27*
%TO.C,JP2*%
X93575000Y-84025000D03*
X92275000Y-84025000D03*
%TD*%
D15*
%TO.C,J2*%
X92800000Y-76150000D03*
D14*
X90260000Y-76150000D03*
X87720000Y-76150000D03*
%TD*%
D28*
%TO.C,R20*%
X36575000Y-56502500D03*
X36575000Y-58327500D03*
%TD*%
D25*
%TO.C,H3*%
X29100000Y-24475000D03*
%TD*%
D18*
%TO.C,U7*%
X100885000Y-42925000D03*
X100885000Y-40425000D03*
X100885000Y-37925000D03*
X100885000Y-35425000D03*
X100885000Y-32925000D03*
X100885000Y-30425000D03*
X100885000Y-27925000D03*
X100885000Y-25425000D03*
%TD*%
D29*
%TO.C,C3*%
X47698750Y-81603856D03*
D30*
X47698750Y-79103856D03*
%TD*%
D31*
%TO.C,J8*%
X30275000Y-37900000D03*
X30275000Y-36800000D03*
X30275000Y-35700000D03*
X30275000Y-34600000D03*
X30275000Y-33500000D03*
X30275000Y-32400000D03*
X30275000Y-31300000D03*
X30275000Y-30200000D03*
D32*
X30400000Y-29000000D03*
D33*
X38000000Y-28750000D03*
D34*
X38650000Y-40700000D03*
D35*
X30400000Y-40350000D03*
D36*
X41075000Y-40300000D03*
D37*
X39500000Y-29075000D03*
%TD*%
D38*
%TO.C,U5*%
X58100000Y-56125000D03*
X56100000Y-56125000D03*
X54100000Y-56125000D03*
X52100000Y-56125000D03*
X50100000Y-56125000D03*
X48100000Y-56125000D03*
X46100000Y-56125000D03*
X44100000Y-56125000D03*
X44100000Y-72125000D03*
X46100000Y-72125000D03*
X48100000Y-72125000D03*
X50100000Y-72125000D03*
X52100000Y-72125000D03*
X54100000Y-72125000D03*
X56100000Y-72125000D03*
X58100000Y-72125000D03*
%TD*%
D39*
%TO.C,BZ1*%
X58175000Y-33225000D03*
D40*
X53175000Y-33225000D03*
%TD*%
D12*
%TO.C,R13*%
X65102500Y-69125000D03*
D13*
X72722500Y-69125000D03*
%TD*%
D19*
%TO.C,R1*%
X75847500Y-76875000D03*
X77672500Y-76875000D03*
%TD*%
D15*
%TO.C,U3*%
X76012500Y-64597500D03*
D14*
X76012500Y-62057500D03*
X76012500Y-59517500D03*
X76012500Y-56977500D03*
X76012500Y-54437500D03*
X76012500Y-51897500D03*
D15*
X63272500Y-64580000D03*
D14*
X63272500Y-62040000D03*
X63272500Y-59500000D03*
X63272500Y-56960000D03*
X63272500Y-54420000D03*
X63272500Y-51880000D03*
%TD*%
D15*
%TO.C,JP1*%
X94175000Y-89550000D03*
D14*
X91635000Y-89550000D03*
%TD*%
D12*
%TO.C,R7*%
X91075000Y-39535000D03*
D13*
X91075000Y-31915000D03*
%TD*%
D12*
%TO.C,R12*%
X68550000Y-37100000D03*
D13*
X76170000Y-37100000D03*
%TD*%
D23*
%TO.C,J3*%
X69225000Y-92225000D03*
D24*
X74225000Y-92225000D03*
X79225000Y-92225000D03*
%TD*%
D12*
%TO.C,R22*%
X94875000Y-39535000D03*
D13*
X94875000Y-31915000D03*
%TD*%
D19*
%TO.C,R6*%
X71457500Y-28375000D03*
X73282500Y-28375000D03*
%TD*%
D29*
%TO.C,C2*%
X59406250Y-81603856D03*
D30*
X59406250Y-79103856D03*
%TD*%
D23*
%TO.C,J7*%
X47650000Y-92225000D03*
D24*
X52650000Y-92225000D03*
X57650000Y-92225000D03*
X62650000Y-92225000D03*
%TD*%
D12*
%TO.C,R9*%
X76170000Y-32500000D03*
D13*
X68550000Y-32500000D03*
%TD*%
D19*
%TO.C,R10*%
X71382500Y-32475000D03*
X73207500Y-32475000D03*
%TD*%
D15*
%TO.C,J4*%
X108725000Y-44550000D03*
D14*
X108725000Y-42010000D03*
X108725000Y-39470000D03*
X108725000Y-36930000D03*
X108725000Y-34390000D03*
X108725000Y-31850000D03*
X108725000Y-29310000D03*
X108725000Y-26770000D03*
%TD*%
D19*
%TO.C,R3*%
X75745000Y-81550000D03*
X77570000Y-81550000D03*
%TD*%
D10*
%TO.C,S1*%
X69025000Y-76945000D03*
D11*
X69025000Y-79445000D03*
X69025000Y-81945000D03*
%TD*%
D22*
%TO.C,R8*%
X90975000Y-36747500D03*
X90975000Y-34922500D03*
%TD*%
D41*
%TO.C,R11*%
X73357500Y-37125000D03*
X71532500Y-37125000D03*
%TD*%
D14*
%TO.C,U4*%
X40655000Y-47375000D03*
X43195000Y-47375000D03*
X45735000Y-47375000D03*
D15*
X48275000Y-47375000D03*
%TD*%
D29*
%TO.C,C1*%
X53552500Y-81603856D03*
D30*
X53552500Y-79103856D03*
%TD*%
D15*
%TO.C,J5*%
X67737500Y-56900000D03*
D14*
X67737500Y-59440000D03*
X67737500Y-61980000D03*
%TD*%
D15*
%TO.C,J6*%
X108725000Y-61750000D03*
D14*
X108725000Y-59210000D03*
X108725000Y-56670000D03*
X108725000Y-54130000D03*
X108725000Y-51590000D03*
X108725000Y-49050000D03*
%TD*%
D29*
%TO.C,A1*%
X39750000Y-43127500D03*
D30*
X42290000Y-43127500D03*
X44830000Y-43127500D03*
X47370000Y-43127500D03*
X49910000Y-43127500D03*
X52450000Y-43127500D03*
X54990000Y-43127500D03*
X57530000Y-43127500D03*
X60070000Y-43127500D03*
X62610000Y-43127500D03*
X65150000Y-43127500D03*
X67690000Y-43127500D03*
X70230000Y-43127500D03*
X72770000Y-43127500D03*
X75310000Y-43127500D03*
X77850000Y-43127500D03*
X77850000Y-22807500D03*
X75310000Y-22807500D03*
X72770000Y-22807500D03*
X70230000Y-22807500D03*
X67690000Y-22807500D03*
X65150000Y-22807500D03*
X62610000Y-22807500D03*
X60070000Y-22807500D03*
X57530000Y-22807500D03*
X54990000Y-22807500D03*
X52450000Y-22807500D03*
X49910000Y-22807500D03*
%TD*%
M02*
