%TF.GenerationSoftware,KiCad,Pcbnew,6.0.11-2627ca5db0~126~ubuntu22.04.1*%
%TF.CreationDate,2023-07-23T23:03:52-04:00*%
%TF.ProjectId,sweet-p,73776565-742d-4702-9e6b-696361645f70,rev?*%
%TF.SameCoordinates,Original*%
%TF.FileFunction,Legend,Top*%
%TF.FilePolarity,Positive*%
%FSLAX46Y46*%
G04 Gerber Fmt 4.6, Leading zero omitted, Abs format (unit mm)*
G04 Created by KiCad (PCBNEW 6.0.11-2627ca5db0~126~ubuntu22.04.1) date 2023-07-23 23:03:52*
%MOMM*%
%LPD*%
G01*
G04 APERTURE LIST*
%ADD10C,0.150000*%
%ADD11C,0.300000*%
%ADD12C,0.100000*%
%ADD13C,0.120000*%
G04 APERTURE END LIST*
D10*
X93579761Y-68865476D02*
X93627380Y-68722619D01*
X93627380Y-68484523D01*
X93579761Y-68389285D01*
X93532142Y-68341666D01*
X93436904Y-68294047D01*
X93341666Y-68294047D01*
X93246428Y-68341666D01*
X93198809Y-68389285D01*
X93151190Y-68484523D01*
X93103571Y-68675000D01*
X93055952Y-68770238D01*
X93008333Y-68817857D01*
X92913095Y-68865476D01*
X92817857Y-68865476D01*
X92722619Y-68817857D01*
X92675000Y-68770238D01*
X92627380Y-68675000D01*
X92627380Y-68436904D01*
X92675000Y-68294047D01*
X93532142Y-67294047D02*
X93579761Y-67341666D01*
X93627380Y-67484523D01*
X93627380Y-67579761D01*
X93579761Y-67722619D01*
X93484523Y-67817857D01*
X93389285Y-67865476D01*
X93198809Y-67913095D01*
X93055952Y-67913095D01*
X92865476Y-67865476D01*
X92770238Y-67817857D01*
X92675000Y-67722619D01*
X92627380Y-67579761D01*
X92627380Y-67484523D01*
X92675000Y-67341666D01*
X92722619Y-67294047D01*
X93627380Y-66389285D02*
X93627380Y-66865476D01*
X92627380Y-66865476D01*
D11*
X106057142Y-85803571D02*
X106128571Y-85660714D01*
X106128571Y-85375000D01*
X106057142Y-85232142D01*
X105914285Y-85160714D01*
X105842857Y-85160714D01*
X105700000Y-85232142D01*
X105628571Y-85375000D01*
X105628571Y-85589285D01*
X105557142Y-85732142D01*
X105414285Y-85803571D01*
X105342857Y-85803571D01*
X105200000Y-85732142D01*
X105128571Y-85589285D01*
X105128571Y-85375000D01*
X105200000Y-85232142D01*
X105128571Y-84660714D02*
X106128571Y-84375000D01*
X105414285Y-84089285D01*
X106128571Y-83803571D01*
X105128571Y-83517857D01*
X106057142Y-82375000D02*
X106128571Y-82517857D01*
X106128571Y-82803571D01*
X106057142Y-82946428D01*
X105914285Y-83017857D01*
X105342857Y-83017857D01*
X105200000Y-82946428D01*
X105128571Y-82803571D01*
X105128571Y-82517857D01*
X105200000Y-82375000D01*
X105342857Y-82303571D01*
X105485714Y-82303571D01*
X105628571Y-83017857D01*
X106057142Y-81089285D02*
X106128571Y-81232142D01*
X106128571Y-81517857D01*
X106057142Y-81660714D01*
X105914285Y-81732142D01*
X105342857Y-81732142D01*
X105200000Y-81660714D01*
X105128571Y-81517857D01*
X105128571Y-81232142D01*
X105200000Y-81089285D01*
X105342857Y-81017857D01*
X105485714Y-81017857D01*
X105628571Y-81732142D01*
X105128571Y-80589285D02*
X105128571Y-80017857D01*
X104628571Y-80375000D02*
X105914285Y-80375000D01*
X106057142Y-80303571D01*
X106128571Y-80160714D01*
X106128571Y-80017857D01*
X105557142Y-79517857D02*
X105557142Y-78375000D01*
X105128571Y-77660714D02*
X106628571Y-77660714D01*
X105200000Y-77660714D02*
X105128571Y-77517857D01*
X105128571Y-77232142D01*
X105200000Y-77089285D01*
X105271428Y-77017857D01*
X105414285Y-76946428D01*
X105842857Y-76946428D01*
X105985714Y-77017857D01*
X106057142Y-77089285D01*
X106128571Y-77232142D01*
X106128571Y-77517857D01*
X106057142Y-77660714D01*
D10*
X104563095Y-44400000D02*
X104467857Y-44352380D01*
X104325000Y-44352380D01*
X104182142Y-44400000D01*
X104086904Y-44495238D01*
X104039285Y-44590476D01*
X103991666Y-44780952D01*
X103991666Y-44923809D01*
X104039285Y-45114285D01*
X104086904Y-45209523D01*
X104182142Y-45304761D01*
X104325000Y-45352380D01*
X104420238Y-45352380D01*
X104563095Y-45304761D01*
X104610714Y-45257142D01*
X104610714Y-44923809D01*
X104420238Y-44923809D01*
X105039285Y-45352380D02*
X105039285Y-44352380D01*
X105610714Y-45352380D01*
X105610714Y-44352380D01*
X106086904Y-45352380D02*
X106086904Y-44352380D01*
X106325000Y-44352380D01*
X106467857Y-44400000D01*
X106563095Y-44495238D01*
X106610714Y-44590476D01*
X106658333Y-44780952D01*
X106658333Y-44923809D01*
X106610714Y-45114285D01*
X106563095Y-45209523D01*
X106467857Y-45304761D01*
X106325000Y-45352380D01*
X106086904Y-45352380D01*
X41013095Y-86375000D02*
X40917857Y-86327380D01*
X40775000Y-86327380D01*
X40632142Y-86375000D01*
X40536904Y-86470238D01*
X40489285Y-86565476D01*
X40441666Y-86755952D01*
X40441666Y-86898809D01*
X40489285Y-87089285D01*
X40536904Y-87184523D01*
X40632142Y-87279761D01*
X40775000Y-87327380D01*
X40870238Y-87327380D01*
X41013095Y-87279761D01*
X41060714Y-87232142D01*
X41060714Y-86898809D01*
X40870238Y-86898809D01*
X41489285Y-87327380D02*
X41489285Y-86327380D01*
X42060714Y-87327380D01*
X42060714Y-86327380D01*
X42536904Y-87327380D02*
X42536904Y-86327380D01*
X42775000Y-86327380D01*
X42917857Y-86375000D01*
X43013095Y-86470238D01*
X43060714Y-86565476D01*
X43108333Y-86755952D01*
X43108333Y-86898809D01*
X43060714Y-87089285D01*
X43013095Y-87184523D01*
X42917857Y-87279761D01*
X42775000Y-87327380D01*
X42536904Y-87327380D01*
D11*
X27196428Y-75053571D02*
X27482142Y-75053571D01*
X27625000Y-75125000D01*
X27767857Y-75267857D01*
X27839285Y-75553571D01*
X27839285Y-76053571D01*
X27767857Y-76339285D01*
X27625000Y-76482142D01*
X27482142Y-76553571D01*
X27196428Y-76553571D01*
X27053571Y-76482142D01*
X26910714Y-76339285D01*
X26839285Y-76053571D01*
X26839285Y-75553571D01*
X26910714Y-75267857D01*
X27053571Y-75125000D01*
X27196428Y-75053571D01*
X28482142Y-76553571D02*
X28482142Y-75053571D01*
X29339285Y-76553571D01*
X29339285Y-75053571D01*
D10*
X42802380Y-51086904D02*
X42802380Y-50467857D01*
X43183333Y-50801190D01*
X43183333Y-50658333D01*
X43230952Y-50563095D01*
X43278571Y-50515476D01*
X43373809Y-50467857D01*
X43611904Y-50467857D01*
X43707142Y-50515476D01*
X43754761Y-50563095D01*
X43802380Y-50658333D01*
X43802380Y-50944047D01*
X43754761Y-51039285D01*
X43707142Y-51086904D01*
X42802380Y-50182142D02*
X43802380Y-49848809D01*
X42802380Y-49515476D01*
X96179761Y-68889285D02*
X96227380Y-68746428D01*
X96227380Y-68508333D01*
X96179761Y-68413095D01*
X96132142Y-68365476D01*
X96036904Y-68317857D01*
X95941666Y-68317857D01*
X95846428Y-68365476D01*
X95798809Y-68413095D01*
X95751190Y-68508333D01*
X95703571Y-68698809D01*
X95655952Y-68794047D01*
X95608333Y-68841666D01*
X95513095Y-68889285D01*
X95417857Y-68889285D01*
X95322619Y-68841666D01*
X95275000Y-68794047D01*
X95227380Y-68698809D01*
X95227380Y-68460714D01*
X95275000Y-68317857D01*
X96227380Y-67889285D02*
X95227380Y-67889285D01*
X95227380Y-67651190D01*
X95275000Y-67508333D01*
X95370238Y-67413095D01*
X95465476Y-67365476D01*
X95655952Y-67317857D01*
X95798809Y-67317857D01*
X95989285Y-67365476D01*
X96084523Y-67413095D01*
X96179761Y-67508333D01*
X96227380Y-67651190D01*
X96227380Y-67889285D01*
X95941666Y-66936904D02*
X95941666Y-66460714D01*
X96227380Y-67032142D02*
X95227380Y-66698809D01*
X96227380Y-66365476D01*
D11*
X26821428Y-89503571D02*
X27107142Y-89503571D01*
X27250000Y-89575000D01*
X27392857Y-89717857D01*
X27464285Y-90003571D01*
X27464285Y-90503571D01*
X27392857Y-90789285D01*
X27250000Y-90932142D01*
X27107142Y-91003571D01*
X26821428Y-91003571D01*
X26678571Y-90932142D01*
X26535714Y-90789285D01*
X26464285Y-90503571D01*
X26464285Y-90003571D01*
X26535714Y-89717857D01*
X26678571Y-89575000D01*
X26821428Y-89503571D01*
X28607142Y-90217857D02*
X28107142Y-90217857D01*
X28107142Y-91003571D02*
X28107142Y-89503571D01*
X28821428Y-89503571D01*
X29892857Y-90217857D02*
X29392857Y-90217857D01*
X29392857Y-91003571D02*
X29392857Y-89503571D01*
X30107142Y-89503571D01*
D10*
X105475000Y-49736904D02*
X105427380Y-49832142D01*
X105427380Y-49975000D01*
X105475000Y-50117857D01*
X105570238Y-50213095D01*
X105665476Y-50260714D01*
X105855952Y-50308333D01*
X105998809Y-50308333D01*
X106189285Y-50260714D01*
X106284523Y-50213095D01*
X106379761Y-50117857D01*
X106427380Y-49975000D01*
X106427380Y-49879761D01*
X106379761Y-49736904D01*
X106332142Y-49689285D01*
X105998809Y-49689285D01*
X105998809Y-49879761D01*
X106427380Y-49260714D02*
X105427380Y-49260714D01*
X106427380Y-48689285D01*
X105427380Y-48689285D01*
X106427380Y-48213095D02*
X105427380Y-48213095D01*
X105427380Y-47975000D01*
X105475000Y-47832142D01*
X105570238Y-47736904D01*
X105665476Y-47689285D01*
X105855952Y-47641666D01*
X105998809Y-47641666D01*
X106189285Y-47689285D01*
X106284523Y-47736904D01*
X106379761Y-47832142D01*
X106427380Y-47975000D01*
X106427380Y-48213095D01*
X46613095Y-86375000D02*
X46517857Y-86327380D01*
X46375000Y-86327380D01*
X46232142Y-86375000D01*
X46136904Y-86470238D01*
X46089285Y-86565476D01*
X46041666Y-86755952D01*
X46041666Y-86898809D01*
X46089285Y-87089285D01*
X46136904Y-87184523D01*
X46232142Y-87279761D01*
X46375000Y-87327380D01*
X46470238Y-87327380D01*
X46613095Y-87279761D01*
X46660714Y-87232142D01*
X46660714Y-86898809D01*
X46470238Y-86898809D01*
X47089285Y-87327380D02*
X47089285Y-86327380D01*
X47660714Y-87327380D01*
X47660714Y-86327380D01*
X48136904Y-87327380D02*
X48136904Y-86327380D01*
X48375000Y-86327380D01*
X48517857Y-86375000D01*
X48613095Y-86470238D01*
X48660714Y-86565476D01*
X48708333Y-86755952D01*
X48708333Y-86898809D01*
X48660714Y-87089285D01*
X48613095Y-87184523D01*
X48517857Y-87279761D01*
X48375000Y-87327380D01*
X48136904Y-87327380D01*
X40150000Y-51705952D02*
X40102380Y-51801190D01*
X40102380Y-51944048D01*
X40150000Y-52086905D01*
X40245238Y-52182143D01*
X40340476Y-52229762D01*
X40530952Y-52277381D01*
X40673809Y-52277381D01*
X40864285Y-52229762D01*
X40959523Y-52182143D01*
X41054761Y-52086905D01*
X41102380Y-51944048D01*
X41102380Y-51848809D01*
X41054761Y-51705952D01*
X41007142Y-51658333D01*
X40673809Y-51658333D01*
X40673809Y-51848809D01*
X41102380Y-51229762D02*
X40102380Y-51229762D01*
X41102380Y-50658333D01*
X40102380Y-50658333D01*
X41102380Y-50182143D02*
X40102380Y-50182143D01*
X40102380Y-49944048D01*
X40150000Y-49801190D01*
X40245238Y-49705952D01*
X40340476Y-49658333D01*
X40530952Y-49610714D01*
X40673809Y-49610714D01*
X40864285Y-49658333D01*
X40959523Y-49705952D01*
X41054761Y-49801190D01*
X41102380Y-49944048D01*
X41102380Y-50182143D01*
X105705952Y-57252380D02*
X105134524Y-57252380D01*
X105420238Y-57252380D02*
X105420238Y-56252380D01*
X105325000Y-56395238D01*
X105229762Y-56490476D01*
X105134524Y-56538095D01*
X106086905Y-56347619D02*
X106134524Y-56300000D01*
X106229762Y-56252380D01*
X106467857Y-56252380D01*
X106563095Y-56300000D01*
X106610714Y-56347619D01*
X106658333Y-56442857D01*
X106658333Y-56538095D01*
X106610714Y-56680952D01*
X106039286Y-57252380D01*
X106658333Y-57252380D01*
X48804761Y-52039285D02*
X48852380Y-51896428D01*
X48852380Y-51658333D01*
X48804761Y-51563095D01*
X48757142Y-51515476D01*
X48661904Y-51467857D01*
X48566666Y-51467857D01*
X48471428Y-51515476D01*
X48423809Y-51563095D01*
X48376190Y-51658333D01*
X48328571Y-51848809D01*
X48280952Y-51944047D01*
X48233333Y-51991666D01*
X48138095Y-52039285D01*
X48042857Y-52039285D01*
X47947619Y-51991666D01*
X47900000Y-51944047D01*
X47852380Y-51848809D01*
X47852380Y-51610714D01*
X47900000Y-51467857D01*
X48852380Y-51039285D02*
X47852380Y-51039285D01*
X47852380Y-50801190D01*
X47900000Y-50658333D01*
X47995238Y-50563095D01*
X48090476Y-50515476D01*
X48280952Y-50467857D01*
X48423809Y-50467857D01*
X48614285Y-50515476D01*
X48709523Y-50563095D01*
X48804761Y-50658333D01*
X48852380Y-50801190D01*
X48852380Y-51039285D01*
X48566666Y-50086904D02*
X48566666Y-49610714D01*
X48852380Y-50182142D02*
X47852380Y-49848809D01*
X48852380Y-49515476D01*
X46304761Y-51991667D02*
X46352380Y-51848810D01*
X46352380Y-51610714D01*
X46304761Y-51515476D01*
X46257142Y-51467857D01*
X46161904Y-51420238D01*
X46066666Y-51420238D01*
X45971428Y-51467857D01*
X45923809Y-51515476D01*
X45876190Y-51610714D01*
X45828571Y-51801191D01*
X45780952Y-51896429D01*
X45733333Y-51944048D01*
X45638095Y-51991667D01*
X45542857Y-51991667D01*
X45447619Y-51944048D01*
X45400000Y-51896429D01*
X45352380Y-51801191D01*
X45352380Y-51563095D01*
X45400000Y-51420238D01*
X46257142Y-50420238D02*
X46304761Y-50467857D01*
X46352380Y-50610714D01*
X46352380Y-50705952D01*
X46304761Y-50848810D01*
X46209523Y-50944048D01*
X46114285Y-50991667D01*
X45923809Y-51039286D01*
X45780952Y-51039286D01*
X45590476Y-50991667D01*
X45495238Y-50944048D01*
X45400000Y-50848810D01*
X45352380Y-50705952D01*
X45352380Y-50610714D01*
X45400000Y-50467857D01*
X45447619Y-50420238D01*
X46352380Y-49515476D02*
X46352380Y-49991667D01*
X45352380Y-49991667D01*
X52027381Y-86327380D02*
X52646428Y-86327380D01*
X52313095Y-86708333D01*
X52455952Y-86708333D01*
X52551190Y-86755952D01*
X52598809Y-86803571D01*
X52646428Y-86898809D01*
X52646428Y-87136904D01*
X52598809Y-87232142D01*
X52551190Y-87279761D01*
X52455952Y-87327380D01*
X52170238Y-87327380D01*
X52075000Y-87279761D01*
X52027381Y-87232142D01*
X52932143Y-86327380D02*
X53265476Y-87327380D01*
X53598809Y-86327380D01*
X104563095Y-26375000D02*
X104467857Y-26327380D01*
X104325000Y-26327380D01*
X104182142Y-26375000D01*
X104086904Y-26470238D01*
X104039285Y-26565476D01*
X103991666Y-26755952D01*
X103991666Y-26898809D01*
X104039285Y-27089285D01*
X104086904Y-27184523D01*
X104182142Y-27279761D01*
X104325000Y-27327380D01*
X104420238Y-27327380D01*
X104563095Y-27279761D01*
X104610714Y-27232142D01*
X104610714Y-26898809D01*
X104420238Y-26898809D01*
X105039285Y-27327380D02*
X105039285Y-26327380D01*
X105610714Y-27327380D01*
X105610714Y-26327380D01*
X106086904Y-27327380D02*
X106086904Y-26327380D01*
X106325000Y-26327380D01*
X106467857Y-26375000D01*
X106563095Y-26470238D01*
X106610714Y-26565476D01*
X106658333Y-26755952D01*
X106658333Y-26898809D01*
X106610714Y-27089285D01*
X106563095Y-27184523D01*
X106467857Y-27279761D01*
X106325000Y-27327380D01*
X106086904Y-27327380D01*
X57489285Y-87327380D02*
X57155952Y-86851190D01*
X56917856Y-87327380D02*
X56917856Y-86327380D01*
X57298809Y-86327380D01*
X57394047Y-86375000D01*
X57441666Y-86422619D01*
X57489285Y-86517857D01*
X57489285Y-86660714D01*
X57441666Y-86755952D01*
X57394047Y-86803571D01*
X57298809Y-86851190D01*
X56917856Y-86851190D01*
X57822618Y-86327380D02*
X58489285Y-87327380D01*
X58489285Y-86327380D02*
X57822618Y-87327380D01*
X34441666Y-86327380D02*
X34775000Y-87327380D01*
X35108333Y-86327380D01*
X35775000Y-86803571D02*
X35917857Y-86851190D01*
X35965476Y-86898809D01*
X36013095Y-86994047D01*
X36013095Y-87136904D01*
X35965476Y-87232142D01*
X35917857Y-87279761D01*
X35822619Y-87327380D01*
X35441666Y-87327380D01*
X35441666Y-86327380D01*
X35775000Y-86327380D01*
X35870238Y-86375000D01*
X35917857Y-86422619D01*
X35965476Y-86517857D01*
X35965476Y-86613095D01*
X35917857Y-86708333D01*
X35870238Y-86755952D01*
X35775000Y-86803571D01*
X35441666Y-86803571D01*
X36441666Y-86327380D02*
X36441666Y-87136904D01*
X36489285Y-87232142D01*
X36536904Y-87279761D01*
X36632142Y-87327380D01*
X36822619Y-87327380D01*
X36917857Y-87279761D01*
X36965476Y-87232142D01*
X37013095Y-87136904D01*
X37013095Y-86327380D01*
X37441666Y-87279761D02*
X37584523Y-87327380D01*
X37822619Y-87327380D01*
X37917857Y-87279761D01*
X37965476Y-87232142D01*
X38013095Y-87136904D01*
X38013095Y-87041666D01*
X37965476Y-86946428D01*
X37917857Y-86898809D01*
X37822619Y-86851190D01*
X37632142Y-86803571D01*
X37536904Y-86755952D01*
X37489285Y-86708333D01*
X37441666Y-86613095D01*
X37441666Y-86517857D01*
X37489285Y-86422619D01*
X37536904Y-86375000D01*
X37632142Y-86327380D01*
X37870238Y-86327380D01*
X38013095Y-86375000D01*
X68513095Y-86327380D02*
X69132142Y-86327380D01*
X68798809Y-86708333D01*
X68941666Y-86708333D01*
X69036904Y-86755952D01*
X69084523Y-86803571D01*
X69132142Y-86898809D01*
X69132142Y-87136904D01*
X69084523Y-87232142D01*
X69036904Y-87279761D01*
X68941666Y-87327380D01*
X68655952Y-87327380D01*
X68560714Y-87279761D01*
X68513095Y-87232142D01*
X69417857Y-86327380D02*
X69751190Y-87327380D01*
X70084523Y-86327380D01*
X90321428Y-95132142D02*
X90664285Y-95132142D01*
X90450000Y-94832142D02*
X90450000Y-95603571D01*
X90492857Y-95689285D01*
X90578571Y-95732142D01*
X90664285Y-95732142D01*
X90964285Y-95132142D02*
X90964285Y-96032142D01*
X90964285Y-95175000D02*
X91050000Y-95132142D01*
X91221428Y-95132142D01*
X91307142Y-95175000D01*
X91350000Y-95217857D01*
X91392857Y-95303571D01*
X91392857Y-95560714D01*
X91350000Y-95646428D01*
X91307142Y-95689285D01*
X91221428Y-95732142D01*
X91050000Y-95732142D01*
X90964285Y-95689285D01*
X91907142Y-95732142D02*
X91821428Y-95689285D01*
X91778571Y-95603571D01*
X91778571Y-94832142D01*
X92678571Y-94832142D02*
X92250000Y-94832142D01*
X92207142Y-95260714D01*
X92250000Y-95217857D01*
X92335714Y-95175000D01*
X92550000Y-95175000D01*
X92635714Y-95217857D01*
X92678571Y-95260714D01*
X92721428Y-95346428D01*
X92721428Y-95560714D01*
X92678571Y-95646428D01*
X92635714Y-95689285D01*
X92550000Y-95732142D01*
X92335714Y-95732142D01*
X92250000Y-95689285D01*
X92207142Y-95646428D01*
X93578571Y-95732142D02*
X93064285Y-95732142D01*
X93321428Y-95732142D02*
X93321428Y-94832142D01*
X93235714Y-94960714D01*
X93150000Y-95046428D01*
X93064285Y-95089285D01*
X94435714Y-95732142D02*
X93921428Y-95732142D01*
X94178571Y-95732142D02*
X94178571Y-94832142D01*
X94092857Y-94960714D01*
X94007142Y-95046428D01*
X93921428Y-95089285D01*
X94992857Y-94832142D02*
X95078571Y-94832142D01*
X95164285Y-94875000D01*
X95207142Y-94917857D01*
X95250000Y-95003571D01*
X95292857Y-95175000D01*
X95292857Y-95389285D01*
X95250000Y-95560714D01*
X95207142Y-95646428D01*
X95164285Y-95689285D01*
X95078571Y-95732142D01*
X94992857Y-95732142D01*
X94907142Y-95689285D01*
X94864285Y-95646428D01*
X94821428Y-95560714D01*
X94778571Y-95389285D01*
X94778571Y-95175000D01*
X94821428Y-95003571D01*
X94864285Y-94917857D01*
X94907142Y-94875000D01*
X94992857Y-94832142D01*
X61713095Y-86327380D02*
X62284523Y-86327380D01*
X61998809Y-87327380D02*
X61998809Y-86327380D01*
X62522619Y-86327380D02*
X63189285Y-87327380D01*
X63189285Y-86327380D02*
X62522619Y-87327380D01*
X105705952Y-59702380D02*
X105134524Y-59702380D01*
X105420238Y-59702380D02*
X105420238Y-58702380D01*
X105325000Y-58845238D01*
X105229762Y-58940476D01*
X105134524Y-58988095D01*
X106658333Y-59702380D02*
X106086905Y-59702380D01*
X106372619Y-59702380D02*
X106372619Y-58702380D01*
X106277381Y-58845238D01*
X106182143Y-58940476D01*
X106086905Y-58988095D01*
X105229762Y-32066666D02*
X105705952Y-32066666D01*
X105134524Y-32352380D02*
X105467857Y-31352380D01*
X105801190Y-32352380D01*
X106658333Y-32352380D02*
X106086905Y-32352380D01*
X106372619Y-32352380D02*
X106372619Y-31352380D01*
X106277381Y-31495238D01*
X106182143Y-31590476D01*
X106086905Y-31638095D01*
D11*
X107528571Y-85817857D02*
X108528571Y-85460714D01*
X107528571Y-85103571D01*
X107028571Y-84246428D02*
X107028571Y-84103571D01*
X107100000Y-83960714D01*
X107171428Y-83889285D01*
X107314285Y-83817857D01*
X107600000Y-83746428D01*
X107957142Y-83746428D01*
X108242857Y-83817857D01*
X108385714Y-83889285D01*
X108457142Y-83960714D01*
X108528571Y-84103571D01*
X108528571Y-84246428D01*
X108457142Y-84389285D01*
X108385714Y-84460714D01*
X108242857Y-84532142D01*
X107957142Y-84603571D01*
X107600000Y-84603571D01*
X107314285Y-84532142D01*
X107171428Y-84460714D01*
X107100000Y-84389285D01*
X107028571Y-84246428D01*
X108385714Y-83103571D02*
X108457142Y-83032142D01*
X108528571Y-83103571D01*
X108457142Y-83175000D01*
X108385714Y-83103571D01*
X108528571Y-83103571D01*
X107028571Y-82532142D02*
X107028571Y-81603571D01*
X107600000Y-82103571D01*
X107600000Y-81889285D01*
X107671428Y-81746428D01*
X107742857Y-81675000D01*
X107885714Y-81603571D01*
X108242857Y-81603571D01*
X108385714Y-81675000D01*
X108457142Y-81746428D01*
X108528571Y-81889285D01*
X108528571Y-82317857D01*
X108457142Y-82460714D01*
X108385714Y-82532142D01*
D10*
X104229762Y-28852380D02*
X104563095Y-29852380D01*
X104896428Y-28852380D01*
X105229762Y-29328571D02*
X105563095Y-29328571D01*
X105705952Y-29852380D02*
X105229762Y-29852380D01*
X105229762Y-28852380D01*
X105705952Y-28852380D01*
X106039286Y-28852380D02*
X106705952Y-29852380D01*
X106705952Y-28852380D02*
X106039286Y-29852380D01*
X73336904Y-87327380D02*
X73336904Y-86327380D01*
X73575000Y-86327380D01*
X73717857Y-86375000D01*
X73813095Y-86470238D01*
X73860714Y-86565476D01*
X73908333Y-86755952D01*
X73908333Y-86898809D01*
X73860714Y-87089285D01*
X73813095Y-87184523D01*
X73717857Y-87279761D01*
X73575000Y-87327380D01*
X73336904Y-87327380D01*
X74813095Y-86327380D02*
X74336904Y-86327380D01*
X74289285Y-86803571D01*
X74336904Y-86755952D01*
X74432142Y-86708333D01*
X74670238Y-86708333D01*
X74765476Y-86755952D01*
X74813095Y-86803571D01*
X74860714Y-86898809D01*
X74860714Y-87136904D01*
X74813095Y-87232142D01*
X74765476Y-87279761D01*
X74670238Y-87327380D01*
X74432142Y-87327380D01*
X74336904Y-87279761D01*
X74289285Y-87232142D01*
X78713095Y-86375000D02*
X78617857Y-86327380D01*
X78475000Y-86327380D01*
X78332142Y-86375000D01*
X78236904Y-86470238D01*
X78189285Y-86565476D01*
X78141666Y-86755952D01*
X78141666Y-86898809D01*
X78189285Y-87089285D01*
X78236904Y-87184523D01*
X78332142Y-87279761D01*
X78475000Y-87327380D01*
X78570238Y-87327380D01*
X78713095Y-87279761D01*
X78760714Y-87232142D01*
X78760714Y-86898809D01*
X78570238Y-86898809D01*
X79189285Y-87327380D02*
X79189285Y-86327380D01*
X79760714Y-87327380D01*
X79760714Y-86327380D01*
X80236904Y-87327380D02*
X80236904Y-86327380D01*
X80475000Y-86327380D01*
X80617857Y-86375000D01*
X80713095Y-86470238D01*
X80760714Y-86565476D01*
X80808333Y-86755952D01*
X80808333Y-86898809D01*
X80760714Y-87089285D01*
X80713095Y-87184523D01*
X80617857Y-87279761D01*
X80475000Y-87327380D01*
X80236904Y-87327380D01*
X67344642Y-51207142D02*
X67344642Y-50735714D01*
X67301785Y-50650000D01*
X67216071Y-50607142D01*
X67044642Y-50607142D01*
X66958928Y-50650000D01*
X67344642Y-51164285D02*
X67258928Y-51207142D01*
X67044642Y-51207142D01*
X66958928Y-51164285D01*
X66916071Y-51078571D01*
X66916071Y-50992857D01*
X66958928Y-50907142D01*
X67044642Y-50864285D01*
X67258928Y-50864285D01*
X67344642Y-50821428D01*
X68158928Y-51207142D02*
X68158928Y-50307142D01*
X68158928Y-51164285D02*
X68073214Y-51207142D01*
X67901785Y-51207142D01*
X67816071Y-51164285D01*
X67773214Y-51121428D01*
X67730357Y-51035714D01*
X67730357Y-50778571D01*
X67773214Y-50692857D01*
X67816071Y-50650000D01*
X67901785Y-50607142D01*
X68073214Y-50607142D01*
X68158928Y-50650000D01*
X68544642Y-51164285D02*
X68630357Y-51207142D01*
X68801785Y-51207142D01*
X68887500Y-51164285D01*
X68930357Y-51078571D01*
X68930357Y-51035714D01*
X68887500Y-50950000D01*
X68801785Y-50907142D01*
X68673214Y-50907142D01*
X68587500Y-50864285D01*
X68544642Y-50778571D01*
X68544642Y-50735714D01*
X68587500Y-50650000D01*
X68673214Y-50607142D01*
X68801785Y-50607142D01*
X68887500Y-50650000D01*
X69787500Y-51207142D02*
X69273214Y-51207142D01*
X69530357Y-51207142D02*
X69530357Y-50307142D01*
X69444642Y-50435714D01*
X69358928Y-50521428D01*
X69273214Y-50564285D01*
X70644642Y-51207142D02*
X70130357Y-51207142D01*
X70387500Y-51207142D02*
X70387500Y-50307142D01*
X70301785Y-50435714D01*
X70216071Y-50521428D01*
X70130357Y-50564285D01*
X71501785Y-51207142D02*
X70987500Y-51207142D01*
X71244642Y-51207142D02*
X71244642Y-50307142D01*
X71158928Y-50435714D01*
X71073214Y-50521428D01*
X70987500Y-50564285D01*
X72316071Y-50307142D02*
X71887500Y-50307142D01*
X71844642Y-50735714D01*
X71887500Y-50692857D01*
X71973214Y-50650000D01*
X72187500Y-50650000D01*
X72273214Y-50692857D01*
X72316071Y-50735714D01*
X72358928Y-50821428D01*
X72358928Y-51035714D01*
X72316071Y-51121428D01*
X72273214Y-51164285D01*
X72187500Y-51207142D01*
X71973214Y-51207142D01*
X71887500Y-51164285D01*
X71844642Y-51121428D01*
X105182143Y-53727380D02*
X105801190Y-53727380D01*
X105467857Y-54108333D01*
X105610714Y-54108333D01*
X105705952Y-54155952D01*
X105753571Y-54203571D01*
X105801190Y-54298809D01*
X105801190Y-54536904D01*
X105753571Y-54632142D01*
X105705952Y-54679761D01*
X105610714Y-54727380D01*
X105325000Y-54727380D01*
X105229762Y-54679761D01*
X105182143Y-54632142D01*
X106086905Y-53727380D02*
X106420238Y-54727380D01*
X106753571Y-53727380D01*
X72363095Y-64227380D02*
X72982142Y-64227380D01*
X72648809Y-64608333D01*
X72791666Y-64608333D01*
X72886904Y-64655952D01*
X72934523Y-64703571D01*
X72982142Y-64798809D01*
X72982142Y-65036904D01*
X72934523Y-65132142D01*
X72886904Y-65179761D01*
X72791666Y-65227380D01*
X72505952Y-65227380D01*
X72410714Y-65179761D01*
X72363095Y-65132142D01*
X73267857Y-64227380D02*
X73601190Y-65227380D01*
X73934523Y-64227380D01*
X89838095Y-51702380D02*
X90457142Y-51702380D01*
X90123809Y-52083333D01*
X90266666Y-52083333D01*
X90361904Y-52130952D01*
X90409523Y-52178571D01*
X90457142Y-52273809D01*
X90457142Y-52511904D01*
X90409523Y-52607142D01*
X90361904Y-52654761D01*
X90266666Y-52702380D01*
X89980952Y-52702380D01*
X89885714Y-52654761D01*
X89838095Y-52607142D01*
X90742857Y-51702380D02*
X91076190Y-52702380D01*
X91409523Y-51702380D01*
%TO.C,S2*%
X27388095Y-78629761D02*
X27530952Y-78677380D01*
X27769047Y-78677380D01*
X27864285Y-78629761D01*
X27911904Y-78582142D01*
X27959523Y-78486904D01*
X27959523Y-78391666D01*
X27911904Y-78296428D01*
X27864285Y-78248809D01*
X27769047Y-78201190D01*
X27578571Y-78153571D01*
X27483333Y-78105952D01*
X27435714Y-78058333D01*
X27388095Y-77963095D01*
X27388095Y-77867857D01*
X27435714Y-77772619D01*
X27483333Y-77725000D01*
X27578571Y-77677380D01*
X27816666Y-77677380D01*
X27959523Y-77725000D01*
X28340476Y-77772619D02*
X28388095Y-77725000D01*
X28483333Y-77677380D01*
X28721428Y-77677380D01*
X28816666Y-77725000D01*
X28864285Y-77772619D01*
X28911904Y-77867857D01*
X28911904Y-77963095D01*
X28864285Y-78105952D01*
X28292857Y-78677380D01*
X28911904Y-78677380D01*
%TO.C,R15*%
X75307142Y-48602380D02*
X74973809Y-48126190D01*
X74735714Y-48602380D02*
X74735714Y-47602380D01*
X75116666Y-47602380D01*
X75211904Y-47650000D01*
X75259523Y-47697619D01*
X75307142Y-47792857D01*
X75307142Y-47935714D01*
X75259523Y-48030952D01*
X75211904Y-48078571D01*
X75116666Y-48126190D01*
X74735714Y-48126190D01*
X76259523Y-48602380D02*
X75688095Y-48602380D01*
X75973809Y-48602380D02*
X75973809Y-47602380D01*
X75878571Y-47745238D01*
X75783333Y-47840476D01*
X75688095Y-47888095D01*
X77164285Y-47602380D02*
X76688095Y-47602380D01*
X76640476Y-48078571D01*
X76688095Y-48030952D01*
X76783333Y-47983333D01*
X77021428Y-47983333D01*
X77116666Y-48030952D01*
X77164285Y-48078571D01*
X77211904Y-48173809D01*
X77211904Y-48411904D01*
X77164285Y-48507142D01*
X77116666Y-48554761D01*
X77021428Y-48602380D01*
X76783333Y-48602380D01*
X76688095Y-48554761D01*
X76640476Y-48507142D01*
%TO.C,U1*%
X100122380Y-81461904D02*
X100931904Y-81461904D01*
X101027142Y-81414285D01*
X101074761Y-81366666D01*
X101122380Y-81271428D01*
X101122380Y-81080952D01*
X101074761Y-80985714D01*
X101027142Y-80938095D01*
X100931904Y-80890476D01*
X100122380Y-80890476D01*
X101122380Y-79890476D02*
X101122380Y-80461904D01*
X101122380Y-80176190D02*
X100122380Y-80176190D01*
X100265238Y-80271428D01*
X100360476Y-80366666D01*
X100408095Y-80461904D01*
%TO.C,R19*%
X35932142Y-51977380D02*
X35598809Y-51501190D01*
X35360714Y-51977380D02*
X35360714Y-50977380D01*
X35741666Y-50977380D01*
X35836904Y-51025000D01*
X35884523Y-51072619D01*
X35932142Y-51167857D01*
X35932142Y-51310714D01*
X35884523Y-51405952D01*
X35836904Y-51453571D01*
X35741666Y-51501190D01*
X35360714Y-51501190D01*
X36884523Y-51977380D02*
X36313095Y-51977380D01*
X36598809Y-51977380D02*
X36598809Y-50977380D01*
X36503571Y-51120238D01*
X36408333Y-51215476D01*
X36313095Y-51263095D01*
X37360714Y-51977380D02*
X37551190Y-51977380D01*
X37646428Y-51929761D01*
X37694047Y-51882142D01*
X37789285Y-51739285D01*
X37836904Y-51548809D01*
X37836904Y-51167857D01*
X37789285Y-51072619D01*
X37741666Y-51025000D01*
X37646428Y-50977380D01*
X37455952Y-50977380D01*
X37360714Y-51025000D01*
X37313095Y-51072619D01*
X37265476Y-51167857D01*
X37265476Y-51405952D01*
X37313095Y-51501190D01*
X37360714Y-51548809D01*
X37455952Y-51596428D01*
X37646428Y-51596428D01*
X37741666Y-51548809D01*
X37789285Y-51501190D01*
X37836904Y-51405952D01*
%TO.C,D1*%
X34481904Y-76967380D02*
X34481904Y-75967380D01*
X34720000Y-75967380D01*
X34862857Y-76015000D01*
X34958095Y-76110238D01*
X35005714Y-76205476D01*
X35053333Y-76395952D01*
X35053333Y-76538809D01*
X35005714Y-76729285D01*
X34958095Y-76824523D01*
X34862857Y-76919761D01*
X34720000Y-76967380D01*
X34481904Y-76967380D01*
X36005714Y-76967380D02*
X35434285Y-76967380D01*
X35720000Y-76967380D02*
X35720000Y-75967380D01*
X35624761Y-76110238D01*
X35529523Y-76205476D01*
X35434285Y-76253095D01*
%TO.C,U6*%
X90788095Y-57377380D02*
X90788095Y-58186904D01*
X90835714Y-58282142D01*
X90883333Y-58329761D01*
X90978571Y-58377380D01*
X91169047Y-58377380D01*
X91264285Y-58329761D01*
X91311904Y-58282142D01*
X91359523Y-58186904D01*
X91359523Y-57377380D01*
X92264285Y-57377380D02*
X92073809Y-57377380D01*
X91978571Y-57425000D01*
X91930952Y-57472619D01*
X91835714Y-57615476D01*
X91788095Y-57805952D01*
X91788095Y-58186904D01*
X91835714Y-58282142D01*
X91883333Y-58329761D01*
X91978571Y-58377380D01*
X92169047Y-58377380D01*
X92264285Y-58329761D01*
X92311904Y-58282142D01*
X92359523Y-58186904D01*
X92359523Y-57948809D01*
X92311904Y-57853571D01*
X92264285Y-57805952D01*
X92169047Y-57758333D01*
X91978571Y-57758333D01*
X91883333Y-57805952D01*
X91835714Y-57853571D01*
X91788095Y-57948809D01*
X86196428Y-60277380D02*
X86196428Y-59753571D01*
X86148809Y-59658333D01*
X86053571Y-59610714D01*
X85863095Y-59610714D01*
X85767857Y-59658333D01*
X86196428Y-60229761D02*
X86101190Y-60277380D01*
X85863095Y-60277380D01*
X85767857Y-60229761D01*
X85720238Y-60134523D01*
X85720238Y-60039285D01*
X85767857Y-59944047D01*
X85863095Y-59896428D01*
X86101190Y-59896428D01*
X86196428Y-59848809D01*
X87101190Y-60277380D02*
X87101190Y-59277380D01*
X87101190Y-60229761D02*
X87005952Y-60277380D01*
X86815476Y-60277380D01*
X86720238Y-60229761D01*
X86672619Y-60182142D01*
X86625000Y-60086904D01*
X86625000Y-59801190D01*
X86672619Y-59705952D01*
X86720238Y-59658333D01*
X86815476Y-59610714D01*
X87005952Y-59610714D01*
X87101190Y-59658333D01*
X88005952Y-60277380D02*
X88005952Y-59753571D01*
X87958333Y-59658333D01*
X87863095Y-59610714D01*
X87672619Y-59610714D01*
X87577380Y-59658333D01*
X88005952Y-60229761D02*
X87910714Y-60277380D01*
X87672619Y-60277380D01*
X87577380Y-60229761D01*
X87529761Y-60134523D01*
X87529761Y-60039285D01*
X87577380Y-59944047D01*
X87672619Y-59896428D01*
X87910714Y-59896428D01*
X88005952Y-59848809D01*
X88339285Y-59610714D02*
X88720238Y-59610714D01*
X88482142Y-60277380D02*
X88482142Y-59420238D01*
X88529761Y-59325000D01*
X88625000Y-59277380D01*
X88720238Y-59277380D01*
X89053571Y-60277380D02*
X89053571Y-59610714D01*
X89053571Y-59801190D02*
X89101190Y-59705952D01*
X89148809Y-59658333D01*
X89244047Y-59610714D01*
X89339285Y-59610714D01*
X90101190Y-59610714D02*
X90101190Y-60277380D01*
X89672619Y-59610714D02*
X89672619Y-60134523D01*
X89720238Y-60229761D01*
X89815476Y-60277380D01*
X89958333Y-60277380D01*
X90053571Y-60229761D01*
X90101190Y-60182142D01*
X90577380Y-60277380D02*
X90577380Y-59610714D01*
X90577380Y-59277380D02*
X90529761Y-59325000D01*
X90577380Y-59372619D01*
X90625000Y-59325000D01*
X90577380Y-59277380D01*
X90577380Y-59372619D01*
X90910714Y-59610714D02*
X91291666Y-59610714D01*
X91053571Y-59277380D02*
X91053571Y-60134523D01*
X91101190Y-60229761D01*
X91196428Y-60277380D01*
X91291666Y-60277380D01*
X92386904Y-60277380D02*
X92386904Y-59610714D01*
X92386904Y-59705952D02*
X92434523Y-59658333D01*
X92529761Y-59610714D01*
X92672619Y-59610714D01*
X92767857Y-59658333D01*
X92815476Y-59753571D01*
X92815476Y-60277380D01*
X92815476Y-59753571D02*
X92863095Y-59658333D01*
X92958333Y-59610714D01*
X93101190Y-59610714D01*
X93196428Y-59658333D01*
X93244047Y-59753571D01*
X93244047Y-60277380D01*
X93720238Y-60277380D02*
X93720238Y-59610714D01*
X93720238Y-59277380D02*
X93672619Y-59325000D01*
X93720238Y-59372619D01*
X93767857Y-59325000D01*
X93720238Y-59277380D01*
X93720238Y-59372619D01*
X94196428Y-59610714D02*
X94196428Y-60277380D01*
X94196428Y-59705952D02*
X94244047Y-59658333D01*
X94339285Y-59610714D01*
X94482142Y-59610714D01*
X94577380Y-59658333D01*
X94625000Y-59753571D01*
X94625000Y-60277380D01*
X95101190Y-60277380D02*
X95101190Y-59610714D01*
X95101190Y-59277380D02*
X95053571Y-59325000D01*
X95101190Y-59372619D01*
X95148809Y-59325000D01*
X95101190Y-59277380D01*
X95101190Y-59372619D01*
X96767857Y-59610714D02*
X96767857Y-60420238D01*
X96720238Y-60515476D01*
X96672619Y-60563095D01*
X96577380Y-60610714D01*
X96434523Y-60610714D01*
X96339285Y-60563095D01*
X96767857Y-60229761D02*
X96672619Y-60277380D01*
X96482142Y-60277380D01*
X96386904Y-60229761D01*
X96339285Y-60182142D01*
X96291666Y-60086904D01*
X96291666Y-59801190D01*
X96339285Y-59705952D01*
X96386904Y-59658333D01*
X96482142Y-59610714D01*
X96672619Y-59610714D01*
X96767857Y-59658333D01*
X97244047Y-59610714D02*
X97244047Y-60610714D01*
X97244047Y-59658333D02*
X97339285Y-59610714D01*
X97529761Y-59610714D01*
X97625000Y-59658333D01*
X97672619Y-59705952D01*
X97720238Y-59801190D01*
X97720238Y-60086904D01*
X97672619Y-60182142D01*
X97625000Y-60229761D01*
X97529761Y-60277380D01*
X97339285Y-60277380D01*
X97244047Y-60229761D01*
X98101190Y-60229761D02*
X98196428Y-60277380D01*
X98386904Y-60277380D01*
X98482142Y-60229761D01*
X98529761Y-60134523D01*
X98529761Y-60086904D01*
X98482142Y-59991666D01*
X98386904Y-59944047D01*
X98244047Y-59944047D01*
X98148809Y-59896428D01*
X98101190Y-59801190D01*
X98101190Y-59753571D01*
X98148809Y-59658333D01*
X98244047Y-59610714D01*
X98386904Y-59610714D01*
X98482142Y-59658333D01*
%TO.C,R4*%
X82757380Y-81916666D02*
X82281190Y-82250000D01*
X82757380Y-82488095D02*
X81757380Y-82488095D01*
X81757380Y-82107142D01*
X81805000Y-82011904D01*
X81852619Y-81964285D01*
X81947857Y-81916666D01*
X82090714Y-81916666D01*
X82185952Y-81964285D01*
X82233571Y-82011904D01*
X82281190Y-82107142D01*
X82281190Y-82488095D01*
X82090714Y-81059523D02*
X82757380Y-81059523D01*
X81709761Y-81297619D02*
X82424047Y-81535714D01*
X82424047Y-80916666D01*
%TO.C,R16*%
X68457142Y-46352380D02*
X68123809Y-45876190D01*
X67885714Y-46352380D02*
X67885714Y-45352380D01*
X68266666Y-45352380D01*
X68361904Y-45400000D01*
X68409523Y-45447619D01*
X68457142Y-45542857D01*
X68457142Y-45685714D01*
X68409523Y-45780952D01*
X68361904Y-45828571D01*
X68266666Y-45876190D01*
X67885714Y-45876190D01*
X69409523Y-46352380D02*
X68838095Y-46352380D01*
X69123809Y-46352380D02*
X69123809Y-45352380D01*
X69028571Y-45495238D01*
X68933333Y-45590476D01*
X68838095Y-45638095D01*
X70266666Y-45352380D02*
X70076190Y-45352380D01*
X69980952Y-45400000D01*
X69933333Y-45447619D01*
X69838095Y-45590476D01*
X69790476Y-45780952D01*
X69790476Y-46161904D01*
X69838095Y-46257142D01*
X69885714Y-46304761D01*
X69980952Y-46352380D01*
X70171428Y-46352380D01*
X70266666Y-46304761D01*
X70314285Y-46257142D01*
X70361904Y-46161904D01*
X70361904Y-45923809D01*
X70314285Y-45828571D01*
X70266666Y-45780952D01*
X70171428Y-45733333D01*
X69980952Y-45733333D01*
X69885714Y-45780952D01*
X69838095Y-45828571D01*
X69790476Y-45923809D01*
%TO.C,U2*%
X41644345Y-75631236D02*
X41644345Y-76440760D01*
X41691964Y-76535998D01*
X41739583Y-76583617D01*
X41834821Y-76631236D01*
X42025297Y-76631236D01*
X42120535Y-76583617D01*
X42168154Y-76535998D01*
X42215773Y-76440760D01*
X42215773Y-75631236D01*
X42644345Y-75726475D02*
X42691964Y-75678856D01*
X42787202Y-75631236D01*
X43025297Y-75631236D01*
X43120535Y-75678856D01*
X43168154Y-75726475D01*
X43215773Y-75821713D01*
X43215773Y-75916951D01*
X43168154Y-76059808D01*
X42596726Y-76631236D01*
X43215773Y-76631236D01*
%TO.C,R2*%
X82872380Y-76941666D02*
X82396190Y-77275000D01*
X82872380Y-77513095D02*
X81872380Y-77513095D01*
X81872380Y-77132142D01*
X81920000Y-77036904D01*
X81967619Y-76989285D01*
X82062857Y-76941666D01*
X82205714Y-76941666D01*
X82300952Y-76989285D01*
X82348571Y-77036904D01*
X82396190Y-77132142D01*
X82396190Y-77513095D01*
X81967619Y-76560714D02*
X81920000Y-76513095D01*
X81872380Y-76417857D01*
X81872380Y-76179761D01*
X81920000Y-76084523D01*
X81967619Y-76036904D01*
X82062857Y-75989285D01*
X82158095Y-75989285D01*
X82300952Y-76036904D01*
X82872380Y-76608333D01*
X82872380Y-75989285D01*
%TO.C,R17*%
X32432142Y-51977380D02*
X32098809Y-51501190D01*
X31860714Y-51977380D02*
X31860714Y-50977380D01*
X32241666Y-50977380D01*
X32336904Y-51025000D01*
X32384523Y-51072619D01*
X32432142Y-51167857D01*
X32432142Y-51310714D01*
X32384523Y-51405952D01*
X32336904Y-51453571D01*
X32241666Y-51501190D01*
X31860714Y-51501190D01*
X33384523Y-51977380D02*
X32813095Y-51977380D01*
X33098809Y-51977380D02*
X33098809Y-50977380D01*
X33003571Y-51120238D01*
X32908333Y-51215476D01*
X32813095Y-51263095D01*
X33717857Y-50977380D02*
X34384523Y-50977380D01*
X33955952Y-51977380D01*
%TO.C,R21*%
X97327380Y-36377857D02*
X96851190Y-36711190D01*
X97327380Y-36949285D02*
X96327380Y-36949285D01*
X96327380Y-36568333D01*
X96375000Y-36473095D01*
X96422619Y-36425476D01*
X96517857Y-36377857D01*
X96660714Y-36377857D01*
X96755952Y-36425476D01*
X96803571Y-36473095D01*
X96851190Y-36568333D01*
X96851190Y-36949285D01*
X96422619Y-35996904D02*
X96375000Y-35949285D01*
X96327380Y-35854047D01*
X96327380Y-35615952D01*
X96375000Y-35520714D01*
X96422619Y-35473095D01*
X96517857Y-35425476D01*
X96613095Y-35425476D01*
X96755952Y-35473095D01*
X97327380Y-36044523D01*
X97327380Y-35425476D01*
X97327380Y-34473095D02*
X97327380Y-35044523D01*
X97327380Y-34758809D02*
X96327380Y-34758809D01*
X96470238Y-34854047D01*
X96565476Y-34949285D01*
X96613095Y-35044523D01*
%TO.C,J1*%
X38041666Y-88702380D02*
X38041666Y-89416666D01*
X37994047Y-89559523D01*
X37898809Y-89654761D01*
X37755952Y-89702380D01*
X37660714Y-89702380D01*
X39041666Y-89702380D02*
X38470238Y-89702380D01*
X38755952Y-89702380D02*
X38755952Y-88702380D01*
X38660714Y-88845238D01*
X38565476Y-88940476D01*
X38470238Y-88988095D01*
%TO.C,R14*%
X68344642Y-67602380D02*
X68011309Y-67126190D01*
X67773214Y-67602380D02*
X67773214Y-66602380D01*
X68154166Y-66602380D01*
X68249404Y-66650000D01*
X68297023Y-66697619D01*
X68344642Y-66792857D01*
X68344642Y-66935714D01*
X68297023Y-67030952D01*
X68249404Y-67078571D01*
X68154166Y-67126190D01*
X67773214Y-67126190D01*
X69297023Y-67602380D02*
X68725595Y-67602380D01*
X69011309Y-67602380D02*
X69011309Y-66602380D01*
X68916071Y-66745238D01*
X68820833Y-66840476D01*
X68725595Y-66888095D01*
X70154166Y-66935714D02*
X70154166Y-67602380D01*
X69916071Y-66554761D02*
X69677976Y-67269047D01*
X70297023Y-67269047D01*
%TO.C,R18*%
X31352380Y-58057857D02*
X30876190Y-58391190D01*
X31352380Y-58629285D02*
X30352380Y-58629285D01*
X30352380Y-58248333D01*
X30400000Y-58153095D01*
X30447619Y-58105476D01*
X30542857Y-58057857D01*
X30685714Y-58057857D01*
X30780952Y-58105476D01*
X30828571Y-58153095D01*
X30876190Y-58248333D01*
X30876190Y-58629285D01*
X31352380Y-57105476D02*
X31352380Y-57676904D01*
X31352380Y-57391190D02*
X30352380Y-57391190D01*
X30495238Y-57486428D01*
X30590476Y-57581666D01*
X30638095Y-57676904D01*
X30780952Y-56534047D02*
X30733333Y-56629285D01*
X30685714Y-56676904D01*
X30590476Y-56724523D01*
X30542857Y-56724523D01*
X30447619Y-56676904D01*
X30400000Y-56629285D01*
X30352380Y-56534047D01*
X30352380Y-56343571D01*
X30400000Y-56248333D01*
X30447619Y-56200714D01*
X30542857Y-56153095D01*
X30590476Y-56153095D01*
X30685714Y-56200714D01*
X30733333Y-56248333D01*
X30780952Y-56343571D01*
X30780952Y-56534047D01*
X30828571Y-56629285D01*
X30876190Y-56676904D01*
X30971428Y-56724523D01*
X31161904Y-56724523D01*
X31257142Y-56676904D01*
X31304761Y-56629285D01*
X31352380Y-56534047D01*
X31352380Y-56343571D01*
X31304761Y-56248333D01*
X31257142Y-56200714D01*
X31161904Y-56153095D01*
X30971428Y-56153095D01*
X30876190Y-56200714D01*
X30828571Y-56248333D01*
X30780952Y-56343571D01*
%TO.C,R5*%
X78378333Y-29002380D02*
X78045000Y-28526190D01*
X77806904Y-29002380D02*
X77806904Y-28002380D01*
X78187857Y-28002380D01*
X78283095Y-28050000D01*
X78330714Y-28097619D01*
X78378333Y-28192857D01*
X78378333Y-28335714D01*
X78330714Y-28430952D01*
X78283095Y-28478571D01*
X78187857Y-28526190D01*
X77806904Y-28526190D01*
X79283095Y-28002380D02*
X78806904Y-28002380D01*
X78759285Y-28478571D01*
X78806904Y-28430952D01*
X78902142Y-28383333D01*
X79140238Y-28383333D01*
X79235476Y-28430952D01*
X79283095Y-28478571D01*
X79330714Y-28573809D01*
X79330714Y-28811904D01*
X79283095Y-28907142D01*
X79235476Y-28954761D01*
X79140238Y-29002380D01*
X78902142Y-29002380D01*
X78806904Y-28954761D01*
X78759285Y-28907142D01*
%TO.C,AE1*%
X36683333Y-64591666D02*
X37159523Y-64591666D01*
X36588095Y-64877380D02*
X36921428Y-63877380D01*
X37254761Y-64877380D01*
X37588095Y-64353571D02*
X37921428Y-64353571D01*
X38064285Y-64877380D02*
X37588095Y-64877380D01*
X37588095Y-63877380D01*
X38064285Y-63877380D01*
X39016666Y-64877380D02*
X38445238Y-64877380D01*
X38730952Y-64877380D02*
X38730952Y-63877380D01*
X38635714Y-64020238D01*
X38540476Y-64115476D01*
X38445238Y-64163095D01*
%TO.C,JP2*%
X88641666Y-83677380D02*
X88641666Y-84391666D01*
X88594047Y-84534523D01*
X88498809Y-84629761D01*
X88355952Y-84677380D01*
X88260714Y-84677380D01*
X89117857Y-84677380D02*
X89117857Y-83677380D01*
X89498809Y-83677380D01*
X89594047Y-83725000D01*
X89641666Y-83772619D01*
X89689285Y-83867857D01*
X89689285Y-84010714D01*
X89641666Y-84105952D01*
X89594047Y-84153571D01*
X89498809Y-84201190D01*
X89117857Y-84201190D01*
X90070238Y-83772619D02*
X90117857Y-83725000D01*
X90213095Y-83677380D01*
X90451190Y-83677380D01*
X90546428Y-83725000D01*
X90594047Y-83772619D01*
X90641666Y-83867857D01*
X90641666Y-83963095D01*
X90594047Y-84105952D01*
X90022619Y-84677380D01*
X90641666Y-84677380D01*
%TO.C,J2*%
X95022380Y-76483333D02*
X95736666Y-76483333D01*
X95879523Y-76530952D01*
X95974761Y-76626190D01*
X96022380Y-76769047D01*
X96022380Y-76864285D01*
X95117619Y-76054761D02*
X95070000Y-76007142D01*
X95022380Y-75911904D01*
X95022380Y-75673809D01*
X95070000Y-75578571D01*
X95117619Y-75530952D01*
X95212857Y-75483333D01*
X95308095Y-75483333D01*
X95450952Y-75530952D01*
X96022380Y-76102380D01*
X96022380Y-75483333D01*
%TO.C,R20*%
X39177380Y-58057857D02*
X38701190Y-58391190D01*
X39177380Y-58629285D02*
X38177380Y-58629285D01*
X38177380Y-58248333D01*
X38225000Y-58153095D01*
X38272619Y-58105476D01*
X38367857Y-58057857D01*
X38510714Y-58057857D01*
X38605952Y-58105476D01*
X38653571Y-58153095D01*
X38701190Y-58248333D01*
X38701190Y-58629285D01*
X38272619Y-57676904D02*
X38225000Y-57629285D01*
X38177380Y-57534047D01*
X38177380Y-57295952D01*
X38225000Y-57200714D01*
X38272619Y-57153095D01*
X38367857Y-57105476D01*
X38463095Y-57105476D01*
X38605952Y-57153095D01*
X39177380Y-57724523D01*
X39177380Y-57105476D01*
X38177380Y-56486428D02*
X38177380Y-56391190D01*
X38225000Y-56295952D01*
X38272619Y-56248333D01*
X38367857Y-56200714D01*
X38558333Y-56153095D01*
X38796428Y-56153095D01*
X38986904Y-56200714D01*
X39082142Y-56248333D01*
X39129761Y-56295952D01*
X39177380Y-56391190D01*
X39177380Y-56486428D01*
X39129761Y-56581666D01*
X39082142Y-56629285D01*
X38986904Y-56676904D01*
X38796428Y-56724523D01*
X38558333Y-56724523D01*
X38367857Y-56676904D01*
X38272619Y-56629285D01*
X38225000Y-56581666D01*
X38177380Y-56486428D01*
%TO.C,U7*%
X93118095Y-22077380D02*
X93118095Y-22886904D01*
X93165714Y-22982142D01*
X93213333Y-23029761D01*
X93308571Y-23077380D01*
X93499047Y-23077380D01*
X93594285Y-23029761D01*
X93641904Y-22982142D01*
X93689523Y-22886904D01*
X93689523Y-22077380D01*
X94070476Y-22077380D02*
X94737142Y-22077380D01*
X94308571Y-23077380D01*
X91884761Y-24952380D02*
X91884761Y-23952380D01*
X91884761Y-24904761D02*
X91789523Y-24952380D01*
X91599047Y-24952380D01*
X91503809Y-24904761D01*
X91456190Y-24857142D01*
X91408571Y-24761904D01*
X91408571Y-24476190D01*
X91456190Y-24380952D01*
X91503809Y-24333333D01*
X91599047Y-24285714D01*
X91789523Y-24285714D01*
X91884761Y-24333333D01*
X92313333Y-24904761D02*
X92408571Y-24952380D01*
X92599047Y-24952380D01*
X92694285Y-24904761D01*
X92741904Y-24809523D01*
X92741904Y-24761904D01*
X92694285Y-24666666D01*
X92599047Y-24619047D01*
X92456190Y-24619047D01*
X92360952Y-24571428D01*
X92313333Y-24476190D01*
X92313333Y-24428571D01*
X92360952Y-24333333D01*
X92456190Y-24285714D01*
X92599047Y-24285714D01*
X92694285Y-24333333D01*
X93075238Y-23952380D02*
X93694285Y-23952380D01*
X93360952Y-24333333D01*
X93503809Y-24333333D01*
X93599047Y-24380952D01*
X93646666Y-24428571D01*
X93694285Y-24523809D01*
X93694285Y-24761904D01*
X93646666Y-24857142D01*
X93599047Y-24904761D01*
X93503809Y-24952380D01*
X93218095Y-24952380D01*
X93122857Y-24904761D01*
X93075238Y-24857142D01*
X94075238Y-24047619D02*
X94122857Y-24000000D01*
X94218095Y-23952380D01*
X94456190Y-23952380D01*
X94551428Y-24000000D01*
X94599047Y-24047619D01*
X94646666Y-24142857D01*
X94646666Y-24238095D01*
X94599047Y-24380952D01*
X94027619Y-24952380D01*
X94646666Y-24952380D01*
X94980000Y-23952380D02*
X95599047Y-23952380D01*
X95265714Y-24333333D01*
X95408571Y-24333333D01*
X95503809Y-24380952D01*
X95551428Y-24428571D01*
X95599047Y-24523809D01*
X95599047Y-24761904D01*
X95551428Y-24857142D01*
X95503809Y-24904761D01*
X95408571Y-24952380D01*
X95122857Y-24952380D01*
X95027619Y-24904761D01*
X94980000Y-24857142D01*
X96551428Y-24952380D02*
X95980000Y-24952380D01*
X96265714Y-24952380D02*
X96265714Y-23952380D01*
X96170476Y-24095238D01*
X96075238Y-24190476D01*
X95980000Y-24238095D01*
%TO.C,C3*%
X47182083Y-76982142D02*
X47134464Y-77029761D01*
X46991607Y-77077380D01*
X46896369Y-77077380D01*
X46753511Y-77029761D01*
X46658273Y-76934523D01*
X46610654Y-76839285D01*
X46563035Y-76648809D01*
X46563035Y-76505952D01*
X46610654Y-76315476D01*
X46658273Y-76220238D01*
X46753511Y-76125000D01*
X46896369Y-76077380D01*
X46991607Y-76077380D01*
X47134464Y-76125000D01*
X47182083Y-76172619D01*
X47515416Y-76077380D02*
X48134464Y-76077380D01*
X47801130Y-76458333D01*
X47943988Y-76458333D01*
X48039226Y-76505952D01*
X48086845Y-76553571D01*
X48134464Y-76648809D01*
X48134464Y-76886904D01*
X48086845Y-76982142D01*
X48039226Y-77029761D01*
X47943988Y-77077380D01*
X47658273Y-77077380D01*
X47563035Y-77029761D01*
X47515416Y-76982142D01*
%TO.C,J8*%
X27274980Y-34880933D02*
X27989266Y-34880933D01*
X28132123Y-34928552D01*
X28227361Y-35023790D01*
X28274980Y-35166647D01*
X28274980Y-35261885D01*
X27703552Y-34261885D02*
X27655933Y-34357123D01*
X27608314Y-34404742D01*
X27513076Y-34452361D01*
X27465457Y-34452361D01*
X27370219Y-34404742D01*
X27322600Y-34357123D01*
X27274980Y-34261885D01*
X27274980Y-34071409D01*
X27322600Y-33976171D01*
X27370219Y-33928552D01*
X27465457Y-33880933D01*
X27513076Y-33880933D01*
X27608314Y-33928552D01*
X27655933Y-33976171D01*
X27703552Y-34071409D01*
X27703552Y-34261885D01*
X27751171Y-34357123D01*
X27798790Y-34404742D01*
X27894028Y-34452361D01*
X28084504Y-34452361D01*
X28179742Y-34404742D01*
X28227361Y-34357123D01*
X28274980Y-34261885D01*
X28274980Y-34071409D01*
X28227361Y-33976171D01*
X28179742Y-33928552D01*
X28084504Y-33880933D01*
X27894028Y-33880933D01*
X27798790Y-33928552D01*
X27751171Y-33976171D01*
X27703552Y-34071409D01*
%TO.C,U5*%
X43587380Y-56861904D02*
X44396904Y-56861904D01*
X44492142Y-56814285D01*
X44539761Y-56766666D01*
X44587380Y-56671428D01*
X44587380Y-56480952D01*
X44539761Y-56385714D01*
X44492142Y-56338095D01*
X44396904Y-56290476D01*
X43587380Y-56290476D01*
X43587380Y-55338095D02*
X43587380Y-55814285D01*
X44063571Y-55861904D01*
X44015952Y-55814285D01*
X43968333Y-55719047D01*
X43968333Y-55480952D01*
X44015952Y-55385714D01*
X44063571Y-55338095D01*
X44158809Y-55290476D01*
X44396904Y-55290476D01*
X44492142Y-55338095D01*
X44539761Y-55385714D01*
X44587380Y-55480952D01*
X44587380Y-55719047D01*
X44539761Y-55814285D01*
X44492142Y-55861904D01*
%TO.C,BZ1*%
X62853571Y-34180952D02*
X62901190Y-34038095D01*
X62948809Y-33990476D01*
X63044047Y-33942857D01*
X63186904Y-33942857D01*
X63282142Y-33990476D01*
X63329761Y-34038095D01*
X63377380Y-34133333D01*
X63377380Y-34514285D01*
X62377380Y-34514285D01*
X62377380Y-34180952D01*
X62425000Y-34085714D01*
X62472619Y-34038095D01*
X62567857Y-33990476D01*
X62663095Y-33990476D01*
X62758333Y-34038095D01*
X62805952Y-34085714D01*
X62853571Y-34180952D01*
X62853571Y-34514285D01*
X62377380Y-33609523D02*
X62377380Y-32942857D01*
X63377380Y-33609523D01*
X63377380Y-32942857D01*
X63377380Y-32038095D02*
X63377380Y-32609523D01*
X63377380Y-32323809D02*
X62377380Y-32323809D01*
X62520238Y-32419047D01*
X62615476Y-32514285D01*
X62663095Y-32609523D01*
%TO.C,R13*%
X74794642Y-69527380D02*
X74461309Y-69051190D01*
X74223214Y-69527380D02*
X74223214Y-68527380D01*
X74604166Y-68527380D01*
X74699404Y-68575000D01*
X74747023Y-68622619D01*
X74794642Y-68717857D01*
X74794642Y-68860714D01*
X74747023Y-68955952D01*
X74699404Y-69003571D01*
X74604166Y-69051190D01*
X74223214Y-69051190D01*
X75747023Y-69527380D02*
X75175595Y-69527380D01*
X75461309Y-69527380D02*
X75461309Y-68527380D01*
X75366071Y-68670238D01*
X75270833Y-68765476D01*
X75175595Y-68813095D01*
X76080357Y-68527380D02*
X76699404Y-68527380D01*
X76366071Y-68908333D01*
X76508928Y-68908333D01*
X76604166Y-68955952D01*
X76651785Y-69003571D01*
X76699404Y-69098809D01*
X76699404Y-69336904D01*
X76651785Y-69432142D01*
X76604166Y-69479761D01*
X76508928Y-69527380D01*
X76223214Y-69527380D01*
X76127976Y-69479761D01*
X76080357Y-69432142D01*
%TO.C,R1*%
X76553333Y-79327380D02*
X76220000Y-78851190D01*
X75981904Y-79327380D02*
X75981904Y-78327380D01*
X76362857Y-78327380D01*
X76458095Y-78375000D01*
X76505714Y-78422619D01*
X76553333Y-78517857D01*
X76553333Y-78660714D01*
X76505714Y-78755952D01*
X76458095Y-78803571D01*
X76362857Y-78851190D01*
X75981904Y-78851190D01*
X77505714Y-79327380D02*
X76934285Y-79327380D01*
X77220000Y-79327380D02*
X77220000Y-78327380D01*
X77124761Y-78470238D01*
X77029523Y-78565476D01*
X76934285Y-78613095D01*
%TO.C,U3*%
X58544880Y-67841904D02*
X59354404Y-67841904D01*
X59449642Y-67794285D01*
X59497261Y-67746666D01*
X59544880Y-67651428D01*
X59544880Y-67460952D01*
X59497261Y-67365714D01*
X59449642Y-67318095D01*
X59354404Y-67270476D01*
X58544880Y-67270476D01*
X58544880Y-66889523D02*
X58544880Y-66270476D01*
X58925833Y-66603809D01*
X58925833Y-66460952D01*
X58973452Y-66365714D01*
X59021071Y-66318095D01*
X59116309Y-66270476D01*
X59354404Y-66270476D01*
X59449642Y-66318095D01*
X59497261Y-66365714D01*
X59544880Y-66460952D01*
X59544880Y-66746666D01*
X59497261Y-66841904D01*
X59449642Y-66889523D01*
%TO.C,JP1*%
X87416666Y-88827380D02*
X87416666Y-89541666D01*
X87369047Y-89684523D01*
X87273809Y-89779761D01*
X87130952Y-89827380D01*
X87035714Y-89827380D01*
X87892857Y-89827380D02*
X87892857Y-88827380D01*
X88273809Y-88827380D01*
X88369047Y-88875000D01*
X88416666Y-88922619D01*
X88464285Y-89017857D01*
X88464285Y-89160714D01*
X88416666Y-89255952D01*
X88369047Y-89303571D01*
X88273809Y-89351190D01*
X87892857Y-89351190D01*
X89416666Y-89827380D02*
X88845238Y-89827380D01*
X89130952Y-89827380D02*
X89130952Y-88827380D01*
X89035714Y-88970238D01*
X88940476Y-89065476D01*
X88845238Y-89113095D01*
%TO.C,R7*%
X91627380Y-29801666D02*
X91151190Y-30135000D01*
X91627380Y-30373095D02*
X90627380Y-30373095D01*
X90627380Y-29992142D01*
X90675000Y-29896904D01*
X90722619Y-29849285D01*
X90817857Y-29801666D01*
X90960714Y-29801666D01*
X91055952Y-29849285D01*
X91103571Y-29896904D01*
X91151190Y-29992142D01*
X91151190Y-30373095D01*
X90627380Y-29468333D02*
X90627380Y-28801666D01*
X91627380Y-29230238D01*
%TO.C,R12*%
X78152142Y-37627380D02*
X77818809Y-37151190D01*
X77580714Y-37627380D02*
X77580714Y-36627380D01*
X77961666Y-36627380D01*
X78056904Y-36675000D01*
X78104523Y-36722619D01*
X78152142Y-36817857D01*
X78152142Y-36960714D01*
X78104523Y-37055952D01*
X78056904Y-37103571D01*
X77961666Y-37151190D01*
X77580714Y-37151190D01*
X79104523Y-37627380D02*
X78533095Y-37627380D01*
X78818809Y-37627380D02*
X78818809Y-36627380D01*
X78723571Y-36770238D01*
X78628333Y-36865476D01*
X78533095Y-36913095D01*
X79485476Y-36722619D02*
X79533095Y-36675000D01*
X79628333Y-36627380D01*
X79866428Y-36627380D01*
X79961666Y-36675000D01*
X80009285Y-36722619D01*
X80056904Y-36817857D01*
X80056904Y-36913095D01*
X80009285Y-37055952D01*
X79437857Y-37627380D01*
X80056904Y-37627380D01*
%TO.C,J3*%
X71291666Y-88677380D02*
X71291666Y-89391666D01*
X71244047Y-89534523D01*
X71148809Y-89629761D01*
X71005952Y-89677380D01*
X70910714Y-89677380D01*
X71672619Y-88677380D02*
X72291666Y-88677380D01*
X71958333Y-89058333D01*
X72101190Y-89058333D01*
X72196428Y-89105952D01*
X72244047Y-89153571D01*
X72291666Y-89248809D01*
X72291666Y-89486904D01*
X72244047Y-89582142D01*
X72196428Y-89629761D01*
X72101190Y-89677380D01*
X71815476Y-89677380D01*
X71720238Y-89629761D01*
X71672619Y-89582142D01*
%TO.C,R22*%
X95227380Y-29677857D02*
X94751190Y-30011190D01*
X95227380Y-30249285D02*
X94227380Y-30249285D01*
X94227380Y-29868333D01*
X94275000Y-29773095D01*
X94322619Y-29725476D01*
X94417857Y-29677857D01*
X94560714Y-29677857D01*
X94655952Y-29725476D01*
X94703571Y-29773095D01*
X94751190Y-29868333D01*
X94751190Y-30249285D01*
X94322619Y-29296904D02*
X94275000Y-29249285D01*
X94227380Y-29154047D01*
X94227380Y-28915952D01*
X94275000Y-28820714D01*
X94322619Y-28773095D01*
X94417857Y-28725476D01*
X94513095Y-28725476D01*
X94655952Y-28773095D01*
X95227380Y-29344523D01*
X95227380Y-28725476D01*
X94322619Y-28344523D02*
X94275000Y-28296904D01*
X94227380Y-28201666D01*
X94227380Y-27963571D01*
X94275000Y-27868333D01*
X94322619Y-27820714D01*
X94417857Y-27773095D01*
X94513095Y-27773095D01*
X94655952Y-27820714D01*
X95227380Y-28392142D01*
X95227380Y-27773095D01*
%TO.C,R6*%
X72203333Y-30802380D02*
X71870000Y-30326190D01*
X71631904Y-30802380D02*
X71631904Y-29802380D01*
X72012857Y-29802380D01*
X72108095Y-29850000D01*
X72155714Y-29897619D01*
X72203333Y-29992857D01*
X72203333Y-30135714D01*
X72155714Y-30230952D01*
X72108095Y-30278571D01*
X72012857Y-30326190D01*
X71631904Y-30326190D01*
X73060476Y-29802380D02*
X72870000Y-29802380D01*
X72774761Y-29850000D01*
X72727142Y-29897619D01*
X72631904Y-30040476D01*
X72584285Y-30230952D01*
X72584285Y-30611904D01*
X72631904Y-30707142D01*
X72679523Y-30754761D01*
X72774761Y-30802380D01*
X72965238Y-30802380D01*
X73060476Y-30754761D01*
X73108095Y-30707142D01*
X73155714Y-30611904D01*
X73155714Y-30373809D01*
X73108095Y-30278571D01*
X73060476Y-30230952D01*
X72965238Y-30183333D01*
X72774761Y-30183333D01*
X72679523Y-30230952D01*
X72631904Y-30278571D01*
X72584285Y-30373809D01*
%TO.C,C2*%
X59089583Y-77185998D02*
X59041964Y-77233617D01*
X58899107Y-77281236D01*
X58803869Y-77281236D01*
X58661011Y-77233617D01*
X58565773Y-77138379D01*
X58518154Y-77043141D01*
X58470535Y-76852665D01*
X58470535Y-76709808D01*
X58518154Y-76519332D01*
X58565773Y-76424094D01*
X58661011Y-76328856D01*
X58803869Y-76281236D01*
X58899107Y-76281236D01*
X59041964Y-76328856D01*
X59089583Y-76376475D01*
X59470535Y-76376475D02*
X59518154Y-76328856D01*
X59613392Y-76281236D01*
X59851488Y-76281236D01*
X59946726Y-76328856D01*
X59994345Y-76376475D01*
X60041964Y-76471713D01*
X60041964Y-76566951D01*
X59994345Y-76709808D01*
X59422916Y-77281236D01*
X60041964Y-77281236D01*
%TO.C,J7*%
X54791666Y-88552380D02*
X54791666Y-89266666D01*
X54744047Y-89409523D01*
X54648809Y-89504761D01*
X54505952Y-89552380D01*
X54410714Y-89552380D01*
X55172619Y-88552380D02*
X55839285Y-88552380D01*
X55410714Y-89552380D01*
%TO.C,R9*%
X78253333Y-32977380D02*
X77920000Y-32501190D01*
X77681904Y-32977380D02*
X77681904Y-31977380D01*
X78062857Y-31977380D01*
X78158095Y-32025000D01*
X78205714Y-32072619D01*
X78253333Y-32167857D01*
X78253333Y-32310714D01*
X78205714Y-32405952D01*
X78158095Y-32453571D01*
X78062857Y-32501190D01*
X77681904Y-32501190D01*
X78729523Y-32977380D02*
X78920000Y-32977380D01*
X79015238Y-32929761D01*
X79062857Y-32882142D01*
X79158095Y-32739285D01*
X79205714Y-32548809D01*
X79205714Y-32167857D01*
X79158095Y-32072619D01*
X79110476Y-32025000D01*
X79015238Y-31977380D01*
X78824761Y-31977380D01*
X78729523Y-32025000D01*
X78681904Y-32072619D01*
X78634285Y-32167857D01*
X78634285Y-32405952D01*
X78681904Y-32501190D01*
X78729523Y-32548809D01*
X78824761Y-32596428D01*
X79015238Y-32596428D01*
X79110476Y-32548809D01*
X79158095Y-32501190D01*
X79205714Y-32405952D01*
%TO.C,R10*%
X71652142Y-35227380D02*
X71318809Y-34751190D01*
X71080714Y-35227380D02*
X71080714Y-34227380D01*
X71461666Y-34227380D01*
X71556904Y-34275000D01*
X71604523Y-34322619D01*
X71652142Y-34417857D01*
X71652142Y-34560714D01*
X71604523Y-34655952D01*
X71556904Y-34703571D01*
X71461666Y-34751190D01*
X71080714Y-34751190D01*
X72604523Y-35227380D02*
X72033095Y-35227380D01*
X72318809Y-35227380D02*
X72318809Y-34227380D01*
X72223571Y-34370238D01*
X72128333Y-34465476D01*
X72033095Y-34513095D01*
X73223571Y-34227380D02*
X73318809Y-34227380D01*
X73414047Y-34275000D01*
X73461666Y-34322619D01*
X73509285Y-34417857D01*
X73556904Y-34608333D01*
X73556904Y-34846428D01*
X73509285Y-35036904D01*
X73461666Y-35132142D01*
X73414047Y-35179761D01*
X73318809Y-35227380D01*
X73223571Y-35227380D01*
X73128333Y-35179761D01*
X73080714Y-35132142D01*
X73033095Y-35036904D01*
X72985476Y-34846428D01*
X72985476Y-34608333D01*
X73033095Y-34417857D01*
X73080714Y-34322619D01*
X73128333Y-34275000D01*
X73223571Y-34227380D01*
%TO.C,J4*%
X108391666Y-63902380D02*
X108391666Y-64616666D01*
X108344047Y-64759523D01*
X108248809Y-64854761D01*
X108105952Y-64902380D01*
X108010714Y-64902380D01*
X109296428Y-64235714D02*
X109296428Y-64902380D01*
X109058333Y-63854761D02*
X108820238Y-64569047D01*
X109439285Y-64569047D01*
%TO.C,R3*%
X76438333Y-83802380D02*
X76105000Y-83326190D01*
X75866904Y-83802380D02*
X75866904Y-82802380D01*
X76247857Y-82802380D01*
X76343095Y-82850000D01*
X76390714Y-82897619D01*
X76438333Y-82992857D01*
X76438333Y-83135714D01*
X76390714Y-83230952D01*
X76343095Y-83278571D01*
X76247857Y-83326190D01*
X75866904Y-83326190D01*
X76771666Y-82802380D02*
X77390714Y-82802380D01*
X77057380Y-83183333D01*
X77200238Y-83183333D01*
X77295476Y-83230952D01*
X77343095Y-83278571D01*
X77390714Y-83373809D01*
X77390714Y-83611904D01*
X77343095Y-83707142D01*
X77295476Y-83754761D01*
X77200238Y-83802380D01*
X76914523Y-83802380D01*
X76819285Y-83754761D01*
X76771666Y-83707142D01*
%TO.C,S1*%
X68188095Y-74904761D02*
X68330952Y-74952380D01*
X68569047Y-74952380D01*
X68664285Y-74904761D01*
X68711904Y-74857142D01*
X68759523Y-74761904D01*
X68759523Y-74666666D01*
X68711904Y-74571428D01*
X68664285Y-74523809D01*
X68569047Y-74476190D01*
X68378571Y-74428571D01*
X68283333Y-74380952D01*
X68235714Y-74333333D01*
X68188095Y-74238095D01*
X68188095Y-74142857D01*
X68235714Y-74047619D01*
X68283333Y-74000000D01*
X68378571Y-73952380D01*
X68616666Y-73952380D01*
X68759523Y-74000000D01*
X69711904Y-74952380D02*
X69140476Y-74952380D01*
X69426190Y-74952380D02*
X69426190Y-73952380D01*
X69330952Y-74095238D01*
X69235714Y-74190476D01*
X69140476Y-74238095D01*
%TO.C,R8*%
X89577380Y-35791666D02*
X89101190Y-36125000D01*
X89577380Y-36363095D02*
X88577380Y-36363095D01*
X88577380Y-35982142D01*
X88625000Y-35886904D01*
X88672619Y-35839285D01*
X88767857Y-35791666D01*
X88910714Y-35791666D01*
X89005952Y-35839285D01*
X89053571Y-35886904D01*
X89101190Y-35982142D01*
X89101190Y-36363095D01*
X89005952Y-35220238D02*
X88958333Y-35315476D01*
X88910714Y-35363095D01*
X88815476Y-35410714D01*
X88767857Y-35410714D01*
X88672619Y-35363095D01*
X88625000Y-35315476D01*
X88577380Y-35220238D01*
X88577380Y-35029761D01*
X88625000Y-34934523D01*
X88672619Y-34886904D01*
X88767857Y-34839285D01*
X88815476Y-34839285D01*
X88910714Y-34886904D01*
X88958333Y-34934523D01*
X89005952Y-35029761D01*
X89005952Y-35220238D01*
X89053571Y-35315476D01*
X89101190Y-35363095D01*
X89196428Y-35410714D01*
X89386904Y-35410714D01*
X89482142Y-35363095D01*
X89529761Y-35315476D01*
X89577380Y-35220238D01*
X89577380Y-35029761D01*
X89529761Y-34934523D01*
X89482142Y-34886904D01*
X89386904Y-34839285D01*
X89196428Y-34839285D01*
X89101190Y-34886904D01*
X89053571Y-34934523D01*
X89005952Y-35029761D01*
%TO.C,R11*%
X71802142Y-39677380D02*
X71468809Y-39201190D01*
X71230714Y-39677380D02*
X71230714Y-38677380D01*
X71611666Y-38677380D01*
X71706904Y-38725000D01*
X71754523Y-38772619D01*
X71802142Y-38867857D01*
X71802142Y-39010714D01*
X71754523Y-39105952D01*
X71706904Y-39153571D01*
X71611666Y-39201190D01*
X71230714Y-39201190D01*
X72754523Y-39677380D02*
X72183095Y-39677380D01*
X72468809Y-39677380D02*
X72468809Y-38677380D01*
X72373571Y-38820238D01*
X72278333Y-38915476D01*
X72183095Y-38963095D01*
X73706904Y-39677380D02*
X73135476Y-39677380D01*
X73421190Y-39677380D02*
X73421190Y-38677380D01*
X73325952Y-38820238D01*
X73230714Y-38915476D01*
X73135476Y-38963095D01*
%TO.C,U4*%
X36913095Y-46852380D02*
X36913095Y-47661904D01*
X36960714Y-47757142D01*
X37008333Y-47804761D01*
X37103571Y-47852380D01*
X37294047Y-47852380D01*
X37389285Y-47804761D01*
X37436904Y-47757142D01*
X37484523Y-47661904D01*
X37484523Y-46852380D01*
X38389285Y-47185714D02*
X38389285Y-47852380D01*
X38151190Y-46804761D02*
X37913095Y-47519047D01*
X38532142Y-47519047D01*
%TO.C,C1*%
X53235833Y-76982142D02*
X53188214Y-77029761D01*
X53045357Y-77077380D01*
X52950119Y-77077380D01*
X52807261Y-77029761D01*
X52712023Y-76934523D01*
X52664404Y-76839285D01*
X52616785Y-76648809D01*
X52616785Y-76505952D01*
X52664404Y-76315476D01*
X52712023Y-76220238D01*
X52807261Y-76125000D01*
X52950119Y-76077380D01*
X53045357Y-76077380D01*
X53188214Y-76125000D01*
X53235833Y-76172619D01*
X54188214Y-77077380D02*
X53616785Y-77077380D01*
X53902500Y-77077380D02*
X53902500Y-76077380D01*
X53807261Y-76220238D01*
X53712023Y-76315476D01*
X53616785Y-76363095D01*
%TO.C,J5*%
X67204166Y-53527380D02*
X67204166Y-54241666D01*
X67156547Y-54384523D01*
X67061309Y-54479761D01*
X66918452Y-54527380D01*
X66823214Y-54527380D01*
X68156547Y-53527380D02*
X67680357Y-53527380D01*
X67632738Y-54003571D01*
X67680357Y-53955952D01*
X67775595Y-53908333D01*
X68013690Y-53908333D01*
X68108928Y-53955952D01*
X68156547Y-54003571D01*
X68204166Y-54098809D01*
X68204166Y-54336904D01*
X68156547Y-54432142D01*
X68108928Y-54479761D01*
X68013690Y-54527380D01*
X67775595Y-54527380D01*
X67680357Y-54479761D01*
X67632738Y-54432142D01*
%TO.C,J6*%
X108366666Y-91902380D02*
X108366666Y-92616666D01*
X108319047Y-92759523D01*
X108223809Y-92854761D01*
X108080952Y-92902380D01*
X107985714Y-92902380D01*
X109271428Y-91902380D02*
X109080952Y-91902380D01*
X108985714Y-91950000D01*
X108938095Y-91997619D01*
X108842857Y-92140476D01*
X108795238Y-92330952D01*
X108795238Y-92711904D01*
X108842857Y-92807142D01*
X108890476Y-92854761D01*
X108985714Y-92902380D01*
X109176190Y-92902380D01*
X109271428Y-92854761D01*
X109319047Y-92807142D01*
X109366666Y-92711904D01*
X109366666Y-92473809D01*
X109319047Y-92378571D01*
X109271428Y-92330952D01*
X109176190Y-92283333D01*
X108985714Y-92283333D01*
X108890476Y-92330952D01*
X108842857Y-92378571D01*
X108795238Y-92473809D01*
%TO.C,A1*%
X32296666Y-33681785D02*
X32296666Y-33205595D01*
X32582380Y-33777023D02*
X31582380Y-33443690D01*
X32582380Y-33110357D01*
X32582380Y-32253214D02*
X32582380Y-32824642D01*
X32582380Y-32538928D02*
X31582380Y-32538928D01*
X31725238Y-32634166D01*
X31820476Y-32729404D01*
X31868095Y-32824642D01*
D12*
%TO.C,S2*%
X30300000Y-89055000D02*
X29800000Y-89055000D01*
X30300000Y-89055000D02*
X30300000Y-88555000D01*
X26100000Y-77155000D02*
X26600000Y-77155000D01*
X26100000Y-89055000D02*
X26100000Y-88555000D01*
X26100000Y-77155000D02*
X26100000Y-77655000D01*
X30300000Y-77155000D02*
X29800000Y-77155000D01*
X30300000Y-77155000D02*
X30300000Y-77655000D01*
X26100000Y-89055000D02*
X26600000Y-89055000D01*
D13*
%TO.C,R15*%
X71230000Y-48820000D02*
X71230000Y-46980000D01*
X67390000Y-48820000D02*
X71230000Y-48820000D01*
X67390000Y-46980000D02*
X67390000Y-48820000D01*
X66440000Y-47900000D02*
X67390000Y-47900000D01*
X71230000Y-46980000D02*
X67390000Y-46980000D01*
X72180000Y-47900000D02*
X71230000Y-47900000D01*
%TO.C,U1*%
X101900000Y-78100000D02*
X83900000Y-78100000D01*
X83900000Y-78100000D02*
X83900000Y-97400000D01*
X83900000Y-97400000D02*
X101900000Y-97400000D01*
X101900000Y-97400000D02*
X101900000Y-78100000D01*
X96630000Y-82030000D02*
X86410000Y-82030000D01*
X96630000Y-79370000D02*
X96630000Y-82030000D01*
X96630000Y-79370000D02*
X86410000Y-79370000D01*
X99230000Y-82030000D02*
X97900000Y-82030000D01*
X86410000Y-79370000D02*
X86410000Y-82030000D01*
X99230000Y-80700000D02*
X99230000Y-82030000D01*
%TO.C,R19*%
X36575000Y-60245000D02*
X36575000Y-59295000D01*
X37495000Y-55455000D02*
X35655000Y-55455000D01*
X36575000Y-54505000D02*
X36575000Y-55455000D01*
X35655000Y-55455000D02*
X35655000Y-59295000D01*
X37495000Y-59295000D02*
X37495000Y-55455000D01*
X35655000Y-59295000D02*
X37495000Y-59295000D01*
%TO.C,D1*%
X32660000Y-78930000D02*
X32660000Y-82020000D01*
X38210000Y-80475462D02*
G75*
G03*
X32660000Y-78930170I-2990000J462D01*
G01*
X32660000Y-82019830D02*
G75*
G03*
X38210000Y-80474538I2560000J1544830D01*
G01*
X37720000Y-80475000D02*
G75*
G03*
X37720000Y-80475000I-2500000J0D01*
G01*
%TO.C,U6*%
X104650000Y-73012500D02*
X79200000Y-73012500D01*
X104650000Y-70462500D02*
X104650000Y-73012500D01*
X79200000Y-73012500D02*
X79200000Y-47687500D01*
X104650000Y-47687500D02*
X104575000Y-47687500D01*
X79200000Y-47687500D02*
X104600000Y-47687500D01*
X104650000Y-73012500D02*
X104650000Y-47687500D01*
%TO.C,R4*%
X73775000Y-81550000D02*
X74725000Y-81550000D01*
X74725000Y-82470000D02*
X78565000Y-82470000D01*
X74725000Y-80630000D02*
X74725000Y-82470000D01*
X78565000Y-80630000D02*
X74725000Y-80630000D01*
X79515000Y-81550000D02*
X78565000Y-81550000D01*
X78565000Y-82470000D02*
X78565000Y-80630000D01*
%TO.C,R16*%
X68945276Y-48472500D02*
X69454724Y-48472500D01*
X68945276Y-47427500D02*
X69454724Y-47427500D01*
D12*
%TO.C,U2*%
X40275000Y-82725000D02*
X40275000Y-82425000D01*
X40275000Y-78325000D02*
X40275000Y-78025000D01*
X40275000Y-78025000D02*
X40575000Y-77875000D01*
X40275000Y-82725000D02*
X40575000Y-82875000D01*
D10*
X43425000Y-82325000D02*
G75*
G03*
X43475000Y-78475000I-1900000J1950000D01*
G01*
D13*
%TO.C,R2*%
X74840000Y-77795000D02*
X78680000Y-77795000D01*
X79630000Y-76875000D02*
X78680000Y-76875000D01*
X74840000Y-75955000D02*
X74840000Y-77795000D01*
X78680000Y-77795000D02*
X78680000Y-75955000D01*
X73890000Y-76875000D02*
X74840000Y-76875000D01*
X78680000Y-75955000D02*
X74840000Y-75955000D01*
%TO.C,R17*%
X33870000Y-59295000D02*
X33870000Y-55455000D01*
X32950000Y-54505000D02*
X32950000Y-55455000D01*
X33870000Y-55455000D02*
X32030000Y-55455000D01*
X32950000Y-60245000D02*
X32950000Y-59295000D01*
X32030000Y-55455000D02*
X32030000Y-59295000D01*
X32030000Y-59295000D02*
X33870000Y-59295000D01*
%TO.C,R21*%
X95447500Y-36089724D02*
X95447500Y-35580276D01*
X94402500Y-36089724D02*
X94402500Y-35580276D01*
%TO.C,J1*%
X39817000Y-93217000D02*
X39422000Y-93613000D01*
X42729000Y-90837000D02*
X42334000Y-91233000D01*
X37729000Y-90837000D02*
X37622000Y-90944000D01*
X33275000Y-96885000D02*
X33275000Y-97525000D01*
X34527000Y-93506000D02*
X34421000Y-93613000D01*
X33515000Y-96825000D02*
X43635000Y-96825000D01*
X33515000Y-88165000D02*
X33515000Y-97285000D01*
X40068000Y-93499000D02*
X39688000Y-93879000D01*
X37463000Y-90571000D02*
X37356000Y-90678000D01*
X42463000Y-90571000D02*
X42083000Y-90951000D01*
X43635000Y-88165000D02*
X43635000Y-97285000D01*
X34793000Y-93772000D02*
X34687000Y-93879000D01*
X33515000Y-88165000D02*
X43635000Y-88165000D01*
X33275000Y-97525000D02*
X33675000Y-97525000D01*
X33515000Y-97285000D02*
X43635000Y-97285000D01*
X33515000Y-95725000D02*
X43635000Y-95725000D01*
X38255000Y-92225000D02*
G75*
G03*
X38255000Y-92225000I-2180000J0D01*
G01*
X43255000Y-92225000D02*
G75*
G03*
X43255000Y-92225000I-2180000J0D01*
G01*
%TO.C,R14*%
X68657776Y-69597500D02*
X69167224Y-69597500D01*
X68657776Y-68552500D02*
X69167224Y-68552500D01*
%TO.C,R18*%
X33422500Y-57839724D02*
X33422500Y-57330276D01*
X32377500Y-57839724D02*
X32377500Y-57330276D01*
%TO.C,R5*%
X74280000Y-29320000D02*
X74280000Y-27480000D01*
X75230000Y-28400000D02*
X74280000Y-28400000D01*
X74280000Y-27480000D02*
X70440000Y-27480000D01*
X70440000Y-27480000D02*
X70440000Y-29320000D01*
X69490000Y-28400000D02*
X70440000Y-28400000D01*
X70440000Y-29320000D02*
X74280000Y-29320000D01*
D12*
%TO.C,AE1*%
X34425000Y-70500000D02*
X34425000Y-68325000D01*
X38975000Y-72700000D02*
X36650000Y-72700000D01*
X39125000Y-66025000D02*
X36575000Y-66025000D01*
X41150000Y-68125000D02*
X41150000Y-70575000D01*
D13*
%TO.C,JP2*%
X94325000Y-83025000D02*
X94325000Y-85025000D01*
X91525000Y-85025000D02*
X91525000Y-83025000D01*
X94325000Y-85025000D02*
X91525000Y-85025000D01*
X91525000Y-83025000D02*
X94325000Y-83025000D01*
%TO.C,J2*%
X94130000Y-77480000D02*
X92800000Y-77480000D01*
X86390000Y-74820000D02*
X86390000Y-77480000D01*
X94130000Y-76150000D02*
X94130000Y-77480000D01*
X91530000Y-74820000D02*
X91530000Y-77480000D01*
X91530000Y-74820000D02*
X86390000Y-74820000D01*
X91530000Y-77480000D02*
X86390000Y-77480000D01*
%TO.C,R20*%
X37097500Y-57160276D02*
X37097500Y-57669724D01*
X36052500Y-57160276D02*
X36052500Y-57669724D01*
%TO.C,U7*%
X103285000Y-46825000D02*
X85485000Y-46825000D01*
X85485000Y-46825000D02*
X85485000Y-21425000D01*
X85485000Y-21425000D02*
X103285000Y-21425000D01*
X103285000Y-21425000D02*
X103285000Y-46825000D01*
%TO.C,C3*%
X46363750Y-82891144D02*
X46363750Y-82441144D01*
X46138750Y-82666144D02*
X46588750Y-82666144D01*
X48758750Y-82473597D02*
G75*
G03*
X46638750Y-82473597I-1060000J2119741D01*
G01*
D10*
%TO.C,J8*%
X31150000Y-28750000D02*
X31150000Y-29200000D01*
X31150000Y-28750000D02*
X42600000Y-28750000D01*
X31400000Y-29450000D02*
X32400000Y-29450000D01*
X26800000Y-29700000D02*
X26800000Y-39700000D01*
X31150000Y-40200000D02*
X31150000Y-40700000D01*
X27300000Y-40200000D02*
X30650000Y-40200000D01*
X32950000Y-29950000D02*
X32950000Y-39450000D01*
X30650000Y-29200000D02*
X27300000Y-29200000D01*
X42600000Y-28750000D02*
X42600000Y-40700000D01*
X31150000Y-40700000D02*
X42600000Y-40700000D01*
X31400000Y-39950000D02*
X32400000Y-39950000D01*
X32400000Y-39950000D02*
G75*
G03*
X32900000Y-39450000I0J500000D01*
G01*
X31400000Y-39950000D02*
G75*
G03*
X31150000Y-40200000I0J-250000D01*
G01*
X27300000Y-29200000D02*
G75*
G03*
X26800000Y-29700000I1J-500001D01*
G01*
X26800000Y-39700000D02*
G75*
G03*
X27300000Y-40200000I500000J0D01*
G01*
X31150000Y-29200000D02*
G75*
G03*
X31400000Y-29450000I249999J-1D01*
G01*
X32900000Y-29950000D02*
G75*
G03*
X32400000Y-29450000I-500001J-1D01*
G01*
D13*
%TO.C,U5*%
X43000000Y-72225000D02*
X43400000Y-72225000D01*
X43000000Y-56025000D02*
X43000000Y-72225000D01*
X59200000Y-56025000D02*
X58850000Y-56025000D01*
X59200000Y-56025000D02*
X59200000Y-72225000D01*
X58850000Y-56025000D02*
X58850000Y-55125000D01*
X43400000Y-56025000D02*
X43000000Y-56025000D01*
X59200000Y-72225000D02*
X58800000Y-72225000D01*
D12*
%TO.C,BZ1*%
X62075000Y-33225000D02*
G75*
G03*
X62075000Y-33225000I-6400000J0D01*
G01*
D13*
%TO.C,R13*%
X70832500Y-68205000D02*
X66992500Y-68205000D01*
X66042500Y-69125000D02*
X66992500Y-69125000D01*
X71782500Y-69125000D02*
X70832500Y-69125000D01*
X70832500Y-70045000D02*
X70832500Y-68205000D01*
X66992500Y-68205000D02*
X66992500Y-70045000D01*
X66992500Y-70045000D02*
X70832500Y-70045000D01*
%TO.C,R1*%
X76505276Y-76352500D02*
X77014724Y-76352500D01*
X76505276Y-77397500D02*
X77014724Y-77397500D01*
%TO.C,U3*%
X64602500Y-63310000D02*
X61942500Y-63310000D01*
X74682500Y-63327500D02*
X74682500Y-50567500D01*
X77342500Y-50567500D02*
X74682500Y-50567500D01*
X77342500Y-63327500D02*
X77342500Y-50567500D01*
X61942500Y-65910000D02*
X61942500Y-64580000D01*
X63272500Y-65910000D02*
X61942500Y-65910000D01*
X77342500Y-63327500D02*
X74682500Y-63327500D01*
X64602500Y-50550000D02*
X61942500Y-50550000D01*
X74682500Y-65927500D02*
X74682500Y-64597500D01*
X61942500Y-63310000D02*
X61942500Y-50550000D01*
X64602500Y-63310000D02*
X64602500Y-50550000D01*
X76012500Y-65927500D02*
X74682500Y-65927500D01*
X60842500Y-70930000D02*
X78622500Y-70930000D01*
X78622500Y-70930000D02*
X78622500Y-45530000D01*
X78622500Y-45530000D02*
X60842500Y-45530000D01*
X60842500Y-45530000D02*
X60842500Y-70930000D01*
%TO.C,JP1*%
X92905000Y-90880000D02*
X90305000Y-90880000D01*
X95505000Y-88220000D02*
X95505000Y-89550000D01*
X90305000Y-88220000D02*
X90305000Y-90880000D01*
X92905000Y-88220000D02*
X92905000Y-90880000D01*
X94175000Y-88220000D02*
X95505000Y-88220000D01*
X92905000Y-88220000D02*
X90305000Y-88220000D01*
%TO.C,R7*%
X91995000Y-33805000D02*
X90155000Y-33805000D01*
X90155000Y-37645000D02*
X91995000Y-37645000D01*
X91075000Y-32855000D02*
X91075000Y-33805000D01*
X91075000Y-38595000D02*
X91075000Y-37645000D01*
X91995000Y-37645000D02*
X91995000Y-33805000D01*
X90155000Y-33805000D02*
X90155000Y-37645000D01*
%TO.C,R12*%
X75230000Y-37100000D02*
X74280000Y-37100000D01*
X69490000Y-37100000D02*
X70440000Y-37100000D01*
X74280000Y-38020000D02*
X74280000Y-36180000D01*
X70440000Y-38020000D02*
X74280000Y-38020000D01*
X70440000Y-36180000D02*
X70440000Y-38020000D01*
X74280000Y-36180000D02*
X70440000Y-36180000D01*
%TO.C,J3*%
X67677000Y-93506000D02*
X67571000Y-93613000D01*
X70879000Y-90837000D02*
X70772000Y-90944000D01*
X70613000Y-90571000D02*
X70506000Y-90678000D01*
X75879000Y-90837000D02*
X75484000Y-91233000D01*
X66425000Y-97525000D02*
X66825000Y-97525000D01*
X66665000Y-95725000D02*
X81785000Y-95725000D01*
X66425000Y-96885000D02*
X66425000Y-97525000D01*
X67943000Y-93772000D02*
X67837000Y-93879000D01*
X80613000Y-90571000D02*
X80233000Y-90951000D01*
X66665000Y-88165000D02*
X66665000Y-97285000D01*
X66665000Y-96825000D02*
X81785000Y-96825000D01*
X66665000Y-97285000D02*
X81785000Y-97285000D01*
X72967000Y-93217000D02*
X72572000Y-93613000D01*
X73218000Y-93499000D02*
X72838000Y-93879000D01*
X66665000Y-88165000D02*
X81785000Y-88165000D01*
X81785000Y-88165000D02*
X81785000Y-97285000D01*
X77967000Y-93217000D02*
X77572000Y-93613000D01*
X75613000Y-90571000D02*
X75233000Y-90951000D01*
X80879000Y-90837000D02*
X80484000Y-91233000D01*
X78218000Y-93499000D02*
X77838000Y-93879000D01*
X71405000Y-92225000D02*
G75*
G03*
X71405000Y-92225000I-2180000J0D01*
G01*
X81405000Y-92225000D02*
G75*
G03*
X81405000Y-92225000I-2180000J0D01*
G01*
X76405000Y-92225000D02*
G75*
G03*
X76405000Y-92225000I-2180000J0D01*
G01*
%TO.C,R22*%
X93955000Y-37645000D02*
X95795000Y-37645000D01*
X94875000Y-38595000D02*
X94875000Y-37645000D01*
X94875000Y-32855000D02*
X94875000Y-33805000D01*
X95795000Y-33805000D02*
X93955000Y-33805000D01*
X95795000Y-37645000D02*
X95795000Y-33805000D01*
X93955000Y-33805000D02*
X93955000Y-37645000D01*
%TO.C,R6*%
X72115276Y-27852500D02*
X72624724Y-27852500D01*
X72115276Y-28897500D02*
X72624724Y-28897500D01*
%TO.C,C2*%
X57846250Y-82666144D02*
X58296250Y-82666144D01*
X58071250Y-82891144D02*
X58071250Y-82441144D01*
X60466250Y-82473597D02*
G75*
G03*
X58346250Y-82473597I-1060000J2119741D01*
G01*
%TO.C,J7*%
X49038000Y-90571000D02*
X48931000Y-90678000D01*
X56392000Y-93217000D02*
X55997000Y-93613000D01*
X54038000Y-90571000D02*
X53658000Y-90951000D01*
X45090000Y-88165000D02*
X65211000Y-88165000D01*
X44850000Y-97525000D02*
X45250000Y-97525000D01*
X64304000Y-90837000D02*
X63909000Y-91233000D01*
X45090000Y-95725000D02*
X65211000Y-95725000D01*
X64038000Y-90571000D02*
X63658000Y-90951000D01*
X59304000Y-90837000D02*
X58909000Y-91233000D01*
X45090000Y-96825000D02*
X65211000Y-96825000D01*
X44850000Y-96885000D02*
X44850000Y-97525000D01*
X54304000Y-90837000D02*
X53909000Y-91233000D01*
X45090000Y-88165000D02*
X45090000Y-97285000D01*
X59038000Y-90571000D02*
X58658000Y-90951000D01*
X65211000Y-88165000D02*
X65211000Y-97285000D01*
X46102000Y-93506000D02*
X45996000Y-93613000D01*
X61643000Y-93499000D02*
X61263000Y-93879000D01*
X51392000Y-93217000D02*
X50997000Y-93613000D01*
X46368000Y-93772000D02*
X46262000Y-93879000D01*
X61392000Y-93217000D02*
X60997000Y-93613000D01*
X45090000Y-97285000D02*
X65211000Y-97285000D01*
X51643000Y-93499000D02*
X51263000Y-93879000D01*
X56643000Y-93499000D02*
X56263000Y-93879000D01*
X49304000Y-90837000D02*
X49197000Y-90944000D01*
X54830000Y-92225000D02*
G75*
G03*
X54830000Y-92225000I-2180000J0D01*
G01*
X64830000Y-92225000D02*
G75*
G03*
X64830000Y-92225000I-2180000J0D01*
G01*
X49830000Y-92225000D02*
G75*
G03*
X49830000Y-92225000I-2180000J0D01*
G01*
X59830000Y-92225000D02*
G75*
G03*
X59830000Y-92225000I-2180000J0D01*
G01*
%TO.C,R9*%
X74280000Y-31580000D02*
X70440000Y-31580000D01*
X69490000Y-32500000D02*
X70440000Y-32500000D01*
X70440000Y-31580000D02*
X70440000Y-33420000D01*
X75230000Y-32500000D02*
X74280000Y-32500000D01*
X70440000Y-33420000D02*
X74280000Y-33420000D01*
X74280000Y-33420000D02*
X74280000Y-31580000D01*
%TO.C,R10*%
X72040276Y-32997500D02*
X72549724Y-32997500D01*
X72040276Y-31952500D02*
X72549724Y-31952500D01*
%TO.C,J4*%
X107395000Y-45880000D02*
X107395000Y-44550000D01*
X108725000Y-45880000D02*
X107395000Y-45880000D01*
X110055000Y-43280000D02*
X110055000Y-25440000D01*
X110055000Y-43280000D02*
X107395000Y-43280000D01*
X110055000Y-25440000D02*
X107395000Y-25440000D01*
X107395000Y-43280000D02*
X107395000Y-25440000D01*
%TO.C,R3*%
X76402776Y-82072500D02*
X76912224Y-82072500D01*
X76402776Y-81027500D02*
X76912224Y-81027500D01*
D12*
%TO.C,S1*%
X66925000Y-85245000D02*
X67425000Y-85245000D01*
X66925000Y-73345000D02*
X66925000Y-73845000D01*
X71125000Y-85245000D02*
X71125000Y-84745000D01*
X71125000Y-73345000D02*
X70625000Y-73345000D01*
X66925000Y-73345000D02*
X67425000Y-73345000D01*
X71125000Y-85245000D02*
X70625000Y-85245000D01*
X71125000Y-73345000D02*
X71125000Y-73845000D01*
X66925000Y-85245000D02*
X66925000Y-84745000D01*
D13*
%TO.C,R8*%
X90452500Y-36089724D02*
X90452500Y-35580276D01*
X91497500Y-36089724D02*
X91497500Y-35580276D01*
%TO.C,R11*%
X72699724Y-36602500D02*
X72190276Y-36602500D01*
X72699724Y-37647500D02*
X72190276Y-37647500D01*
%TO.C,U4*%
X38750000Y-45470000D02*
X28590000Y-45470000D01*
X60340000Y-74045000D02*
X56530000Y-74045000D01*
X28590000Y-74045000D02*
X56530000Y-74045000D01*
X49605000Y-48705000D02*
X48275000Y-48705000D01*
X47005000Y-48705000D02*
X39325000Y-48705000D01*
X38750000Y-45470000D02*
X56530000Y-45470000D01*
X28590000Y-45470000D02*
X28590000Y-74045000D01*
X50180000Y-45470000D02*
X60340000Y-45470000D01*
X60340000Y-45470000D02*
X60340000Y-74045000D01*
X47005000Y-46045000D02*
X47005000Y-48705000D01*
X49605000Y-47375000D02*
X49605000Y-48705000D01*
X47005000Y-46045000D02*
X39325000Y-46045000D01*
X39325000Y-46045000D02*
X39325000Y-48705000D01*
%TO.C,C1*%
X52217500Y-82891144D02*
X52217500Y-82441144D01*
X51992500Y-82666144D02*
X52442500Y-82666144D01*
X54612500Y-82473597D02*
G75*
G03*
X52492500Y-82473597I-1060000J2119741D01*
G01*
%TO.C,J5*%
X69067500Y-58170000D02*
X69067500Y-63310000D01*
X69067500Y-55570000D02*
X69067500Y-56900000D01*
X66407500Y-63310000D02*
X69067500Y-63310000D01*
X66407500Y-58170000D02*
X66407500Y-63310000D01*
X67737500Y-55570000D02*
X69067500Y-55570000D01*
X66407500Y-58170000D02*
X69067500Y-58170000D01*
%TO.C,J6*%
X110055000Y-47720000D02*
X107395000Y-47720000D01*
X107395000Y-60480000D02*
X107395000Y-47720000D01*
X108725000Y-63080000D02*
X107395000Y-63080000D01*
X110055000Y-60480000D02*
X110055000Y-47720000D01*
X110055000Y-60480000D02*
X107395000Y-60480000D01*
X107395000Y-63080000D02*
X107395000Y-61750000D01*
%TO.C,A1*%
X35940000Y-44507500D02*
X81660000Y-44507500D01*
X33290000Y-24077500D02*
X33290000Y-41857500D01*
X40750000Y-44827500D02*
X38750000Y-44827500D01*
X84310000Y-24077500D02*
X84310000Y-41857500D01*
X35940000Y-21427500D02*
X81660000Y-21427500D01*
X81660000Y-44507500D02*
G75*
G03*
X84310000Y-41857500I0J2650000D01*
G01*
X35940000Y-21427500D02*
G75*
G03*
X33290000Y-24077500I0J-2650000D01*
G01*
X33290000Y-41857500D02*
G75*
G03*
X35940000Y-44507500I2650000J0D01*
G01*
X84310000Y-24077500D02*
G75*
G03*
X81660000Y-21427500I-2650000J0D01*
G01*
%TD*%
M02*
