<?xml version="1.0" encoding="UTF-8" standalone="no"?>
<!-- Created with Inkscape (http://www.inkscape.org/) -->

<svg
   width="29.926794mm"
   height="29.985472mm"
   viewBox="0 0 29.926794 29.985472"
   version="1.1"
   id="svg1"
   xml:space="preserve"
   inkscape:version="1.3.2 (091e20e, 2023-11-25)"
   sodipodi:docname="ec_logo_simple.svg"
   xmlns:inkscape="http://www.inkscape.org/namespaces/inkscape"
   xmlns:sodipodi="http://sodipodi.sourceforge.net/DTD/sodipodi-0.dtd"
   xmlns="http://www.w3.org/2000/svg"
   xmlns:svg="http://www.w3.org/2000/svg"><sodipodi:namedview
     id="namedview1"
     pagecolor="#ffffff"
     bordercolor="#000000"
     borderopacity="0"
     inkscape:showpageshadow="2"
     inkscape:pageopacity="0.0"
     inkscape:pagecheckerboard="0"
     inkscape:deskcolor="#d1d1d1"
     inkscape:document-units="mm"
     showguides="false"
     inkscape:zoom="2.8284271"
     inkscape:cx="65.407377"
     inkscape:cy="30.935922"
     inkscape:window-width="1688"
     inkscape:window-height="928"
     inkscape:window-x="0"
     inkscape:window-y="38"
     inkscape:window-maximized="0"
     inkscape:current-layer="layer1" /><defs
     id="defs1"><clipPath
       clipPathUnits="userSpaceOnUse"
       id="clipPath3"><rect
         style="fill:none;stroke:#ff0000;stroke-width:0.1;stroke-dasharray:none"
         id="rect3"
         width="30.542223"
         height="30.308363"
         x="-7.5975432"
         y="-0.71733516" /></clipPath></defs><g
     inkscape:label="Layer 1"
     inkscape:groupmode="layer"
     id="layer1"
     transform="translate(-0.03660295,-0.00726411)"><path
       style="fill:#000000"
       d="m 13.942308,29.666176 c -0.03148,-0.08279 -0.05723,-0.178745 -0.05723,-0.213242 0,-0.581317 -0.537795,-0.730259 -0.805338,-0.223038 -0.312086,0.591669 -0.370895,0.626843 -0.62432,0.373418 -0.12058,-0.120581 -0.154701,-0.212029 -0.154701,-0.414617 0,-0.676305 -0.34084,-0.664735 -0.781549,0.02653 -0.08745,0.137165 -0.167884,0.24939 -0.178747,0.24939 -0.321137,0 -0.445992,-0.200682 -0.447223,-0.71883 -0.0011,-0.449543 -0.138948,-0.458114 -0.567129,-0.03525 -0.453262,0.447632 -0.665952,0.361493 -0.665952,-0.269708 0,-0.366026 -0.018223,-0.439872 -0.1358119,-0.550341 C 9.3432471,27.720386 9.3336416,27.72289 9.0115598,28.02416 8.7555163,28.263659 8.7134576,28.282521 8.5066945,28.250574 8.2103168,28.204782 8.2219344,28.22667 8.243719,27.755117 8.2751514,27.074725 8.1265368,26.991508 7.4951106,27.335931 7.0366009,27.586034 6.7348163,27.559282 6.8062011,27.274863 7.0403345,26.342001 6.7583631,26.01673 5.9840767,26.326493 5.4066657,26.557494 5.317528,26.434188 5.4647151,25.608046 5.5614752,25.064944 5.1004884,24.84398 4.4546523,25.123895 4.0114087,25.316003 3.749491,24.96936 4.0595065,24.600928 4.5611416,24.004769 4.1640078,23.486424 3.2917016,23.598779 2.6374705,23.683045 2.5155698,23.461235 2.9119224,22.907735 3.1692735,22.548349 3.1905475,22.443413 3.058015,22.187123 2.923774,21.92753 2.7974934,21.887014 2.2618615,21.931684 1.7429371,21.97496 1.6822801,21.946375 1.6805412,21.657726 1.6799349,21.557086 1.7670171,21.423485 1.948279,21.246966 2.3950171,20.811917 2.2667863,20.257614 1.7164676,20.244916 0.8721114,20.225433 0.62010842,19.876001 1.190431,19.515503 1.4844294,19.329668 1.6380006,19.140326 1.5978549,19.013177 1.5836814,18.968287 1.5574266,18.863936 1.5395109,18.781286 1.5107428,18.64857 1.4604638,18.6219 1.1091799,18.553024 0.49252925,18.432117 0.44736287,18.406687 0.44736287,18.1804 c 0,-0.216399 0.13341012,-0.371969 0.46114426,-0.53774 C 1.0838239,17.553983 1.1016469,17.52325 1.0698771,17.364401 1.0502342,17.266187 1.0341339,17.14292 1.0340987,17.090474 1.0340571,17.028546 0.87978136,16.925765 0.59399877,16.797275 -0.05009651,16.507682 -0.01086675,16.235088 0.72152839,15.911115 1.244252,15.67989 1.0602816,15.176955 0.36674433,14.941215 -0.19438538,14.750481 -0.1340505,14.475875 0.52143498,14.23716 1.2269533,13.980225 1.2525798,13.535593 0.58062062,13.21026 -0.06463029,12.897858 -0.00620665,12.656308 0.7701028,12.426853 1.4302391,12.231736 1.5054469,11.805688 0.93094685,11.515681 0.18671751,11.139995 0.28157255,10.79927 1.1515227,10.72336 1.636269,10.681061 1.7109328,10.628634 1.7753362,10.285335 1.8121419,10.089143 1.7960483,10.064028 1.4109548,9.7166941 0.81459505,9.178809 0.94156296,8.9853016 1.8908507,8.9853016 c 0.6287374,0 0.7223717,-0.3776168 0.2295506,-0.9257524 C 1.6607424,7.548298 1.7555218,7.3731467 2.4823097,7.3907466 3.0313935,7.4040433 3.0900092,7.3871374 3.1965377,7.1847498 3.3040936,6.9804103 3.280173,6.895734 2.9928112,6.463582 2.6099567,5.8878221 2.7997391,5.7336807 3.6454222,5.9335308 4.2120906,6.0674448 4.396967,5.7388625 4.096552,5.1317345 3.7827249,4.497501 3.8801716,4.4046355 4.6439432,4.6100778 5.4342608,4.8226606 5.6230773,4.6524888 5.3511284,3.9727235 5.0551521,3.2328995 5.2322456,3.1139303 6.0462582,3.5057438 6.7112911,3.8258481 6.8671377,3.6805294 6.6515162,2.9413729 6.4427853,2.2258375 6.6828792,2.144342 7.4781933,2.6607728 8.0135094,3.008376 8.2042462,2.8283268 8.1089401,2.0653689 8.0307667,1.4395636 8.3473174,1.3391492 8.8624537,1.8263436 9.3714862,2.3077653 9.5705556,2.21675 9.6130212,1.4831811 9.6444622,0.94005671 9.6871498,0.87701333 10.006893,0.90148885 c 0.168932,0.0129313 0.233812,0.0644368 0.416842,0.33091595 0.443194,0.6452604 0.701773,0.53208 0.704284,-0.30826594 0.0019,-0.64914634 0.48993,-0.66101498 0.820622,-0.0199587 0.310177,0.60129004 0.573391,0.57658624 0.680825,-0.0638985 0.09761,-0.58192552 0.106721,-0.59843894 0.329563,-0.59739903 0.269278,0.001257 0.309502,0.0392156 0.506264,0.47776138 0.09577,0.21346384 0.209603,0.40004172 0.252952,0.41461742 0.149784,0.050364 0.28559,-0.027664 0.315824,-0.18145933 0.193654,-0.9850875 0.57741,-1.10882616 0.888187,-0.28638814 0.256659,0.67922087 0.405771,0.68461407 0.642071,0.0232233 0.246756,-0.690655409224 0.625325,-0.64381628 0.823851,0.1019324 0.179503,0.67428828 0.375452,0.67960298 0.694962,0.0188494 0.319048,-0.65980044 0.792179,-0.52325877 0.792179,0.22861634 0,0.3931522 0.04898,0.4714288 0.328333,0.5247376 0.156768,0.029916 0.188886,0.00364 0.400196,-0.3273935 0.490038,-0.76768412 0.855831,-0.6893931 0.855831,0.1831742 0,0.2915419 0.0217,0.5166661 0.04822,0.5002761 0.02652,-0.01639 0.121959,0.00846 0.212088,0.055217 0.225257,0.1168648 0.216359,0.1208678 0.469661,-0.2112842 0.530881,-0.6961369 0.93952,-0.5913444 0.879146,0.2254507 -0.04668,0.6314753 0.271491,0.952452 0.592504,0.5977363 0.623944,-0.6894499 1.197639,-0.5900858 1.002005,0.1735474 -0.126767,0.4948206 -0.126164,0.4977319 0.144232,0.6965838 0.237814,0.1748903 0.237814,0.1748903 0.647031,-0.024264 0.744286,-0.3622217 0.9267,-0.2690286 0.754825,0.3856296 -0.142312,0.5420574 -0.147326,0.4880853 0.06813,0.7334743 0.165567,0.1885709 0.346001,0.2737874 0.346001,0.1634118 0,-0.024205 0.05941,-0.046533 0.13203,-0.049617 0.07262,-0.00308 0.288681,-0.049104 0.480143,-0.1022665 0.508512,-0.1411971 0.627807,-0.017665 0.44773,0.463633 -0.302976,0.8097751 0.271982,1.2618987 1.121559,0.8819483 0.159654,-0.071401 0.329757,0.2298632 0.223829,0.3964181 -0.550493,0.8655626 -0.431092,1.1915479 0.429002,1.1712482 0.663166,-0.015652 0.812057,0.1704892 0.465016,0.5813532 -0.294765,0.3489741 -0.32286,0.3986001 -0.346352,0.6117796 -0.0466,0.4228892 0.08681,0.5126558 0.693797,0.4668342 0.750029,-0.05662 0.93335,0.2729202 0.374919,0.6739556 -0.566847,0.4070776 -0.503525,0.9261876 0.130519,1.0699976 0.826078,0.187365 0.972685,0.407431 0.468857,0.703784 -0.756733,0.445112 -0.714387,0.871387 0.11443,1.151899 0.582101,0.197012 0.666638,0.40909 0.255236,0.640311 -0.835435,0.469541 -0.841624,0.956709 -0.01498,1.179102 0.509379,0.137039 0.481867,0.457065 -0.0602,0.700283 -0.68617,0.307874 -0.729138,0.701441 -0.119292,1.092644 0.564375,0.362033 0.539238,0.544654 -0.100409,0.729483 -0.530059,0.153163 -0.560106,0.177853 -0.613901,0.504457 -0.04357,0.264538 0.01308,0.340494 0.480435,0.644102 0.476939,0.309836 0.354926,0.509267 -0.399287,0.652634 -0.644258,0.122467 -0.736608,0.524864 -0.225845,0.984084 0.447766,0.402579 0.374333,0.636822 -0.214572,0.684465 -0.791579,0.06404 -1.103354,0.546758 -0.641966,0.993953 0.130212,0.126206 0.205052,0.25391 0.204482,0.348921 -0.0016,0.269461 -0.05948,0.298172 -0.568787,0.282232 -0.75418,-0.0236 -1.0314,0.35571 -0.637243,0.871922 0.389099,0.509588 0.283738,0.664282 -0.424918,0.623876 -0.740309,-0.04221 -1.029634,0.314175 -0.723821,0.891593 0.268947,0.507809 0.105111,0.769586 -0.351874,0.562224 -0.74458,-0.337862 -1.265026,0.09982 -1.009708,0.849136 0.138518,0.406528 -0.07996,0.629667 -0.437541,0.446881 -0.69708,-0.356328 -0.984817,-0.235336 -0.934388,0.392903 0.05409,0.673891 -0.09155,0.850988 -0.465371,0.565862 -0.578703,-0.441398 -0.978074,-0.295509 -0.95124,0.347484 0.0174,0.416932 -0.04563,0.623844 -0.190033,0.623844 -0.07743,0 -0.6593,-0.359121 -0.738407,-0.455733 -0.06071,-0.07415 -0.09924,-0.07102 -0.2934,0.02382 -0.243164,0.118776 -0.292038,0.237297 -0.304586,0.738632 -0.01396,0.557624 -0.299392,0.573545 -0.794427,0.04431 -0.464788,-0.496896 -0.944548,-0.291343 -1.012253,0.433701 -0.05569,0.596398 -0.38448,0.640253 -0.709911,0.09469 -0.253632,-0.425195 -0.945206,-0.580387 -0.956353,-0.214609 -0.02919,0.957886 -0.999251,1.010599 -0.994075,0.05402 0.002,-0.377664 -0.722925,0.03811 -0.876187,0.502492 -0.103028,0.312179 -0.48595,0.373743 -0.591868,0.09516 z m 0.262368,-1.21379 c -0.0874,-0.28568 -0.129437,-0.315239 -0.206812,-0.145421 -0.04012,0.08805 -0.101711,0.161947 -0.136873,0.164216 -0.09558,0.0062 0.154038,0.104339 0.277433,0.109111 0.08398,0.0032 0.09806,-0.02394 0.06625,-0.127906 z m 0.535038,-0.02934 c 0.01944,-0.08875 0.07276,-0.278299 0.118478,-0.421213 0.118437,-0.370213 0.110842,-0.379848 -0.166262,-0.210877 -0.137164,0.08364 -0.286386,0.174237 -0.331604,0.201329 -0.06914,0.04142 -0.06447,0.0924 0.02934,0.320474 0.129283,0.314321 0.293985,0.366212 0.350048,0.110287 z m 0.470965,0.116462 c 0.03519,-0.02371 0.24304,-0.293969 0.461892,-0.600572 0.218852,-0.306603 0.502222,-0.666009 0.629711,-0.798681 0.261026,-0.271636 0.264539,-0.242652 -0.112239,-0.926091 -0.136294,-0.247224 -0.166774,-0.273047 -0.219394,-0.185871 -0.03361,0.05568 -0.149989,0.237695 -0.25862,0.404472 -0.327434,0.5027 -0.770709,1.679704 -0.770709,2.046424 0,0.107402 0.149727,0.140931 0.269359,0.06032 z m -1.361214,-0.28269 c 0.260694,-0.412631 0.130798,-0.673343 -0.243115,-0.48795 -0.2708,0.134268 -0.302938,0.233666 -0.184969,0.572072 0.09029,0.258996 0.228463,0.231844 0.428084,-0.08412 z m 1.983192,0.06354 c 0.02928,-0.250777 -0.0091,-0.257683 -0.176142,-0.03172 -0.161318,0.218194 -0.16037,0.237096 0.01188,0.237096 0.116633,0 0.144322,-0.03462 0.164257,-0.20538 z m -2.616119,0.05388 c -0.01959,-0.05105 -0.03562,-0.133502 -0.03562,-0.183225 0,-0.109798 -0.145845,-0.0074 -0.239988,0.168528 -0.05011,0.09363 -0.03373,0.107516 0.126842,0.107516 0.144024,0 0.176586,-0.02032 0.148764,-0.09282 z m 3.023517,-0.112561 c 0.06665,-0.112959 0.138373,-0.206219 0.159391,-0.207246 0.211593,-0.01033 0.493967,-0.743592 0.336637,-0.874165 -0.168638,-0.139956 -0.662637,0.51238 -0.696726,0.920041 -0.03487,0.417004 0.02261,0.463216 0.200698,0.16137 z m 0.344305,0.05149 c 0,-0.130133 -0.01359,-0.14261 -0.08802,-0.08084 -0.04841,0.04018 -0.08802,0.109426 -0.08802,0.153885 0,0.04446 0.03961,0.08084 0.08802,0.08084 0.05586,0 0.08802,-0.05622 0.08802,-0.153885 z m 0.623064,0.06301 c 0.08449,-0.01771 0.139718,-0.0461 0.122723,-0.0631 -0.017,-0.01699 -0.0088,-0.108131 0.01832,-0.202524 0.02707,-0.09439 0.02992,-0.171623 0.0063,-0.171623 -0.02359,0 -0.117992,-0.118827 -0.209793,-0.26406 -0.206549,-0.326768 -0.183784,-0.338125 -0.26466,0.13203 -0.03747,0.21785 -0.08298,0.456807 -0.101132,0.531017 -0.02934,0.119983 -0.01596,0.131357 0.120791,0.10269 0.08458,-0.01773 0.222919,-0.04672 0.307413,-0.06443 z m -4.266166,-0.314967 c 0.159504,-0.158666 0.410709,-0.359221 0.558234,-0.445676 0.310342,-0.181872 0.301742,-0.143949 0.153751,-0.677993 -0.229461,-0.828035 -0.348372,-0.999569 -0.477245,-0.688443 -0.04281,0.103358 -0.242978,0.348258 -0.444812,0.544221 -0.408642,0.396756 -0.425298,0.478485 -0.254408,1.248304 0.08392,0.378021 0.103331,0.37884 0.46448,0.01959 z m -0.640537,0.15256 c 0,-0.47975 -0.16389,-0.884373 -0.31347,-0.773918 -0.171495,0.126637 0.05645,0.845914 0.26946,0.850263 0.02421,4.94e-4 0.04401,-0.03386 0.04401,-0.07634 z m 5.339878,0.0479 c 0,-0.01614 -0.0132,-0.02934 -0.02934,-0.02934 -0.01614,0 -0.02934,0.0132 -0.02934,0.02934 0,0.01614 0.0132,0.02934 0.02934,0.02934 0.01614,0 0.02934,-0.0132 0.02934,-0.02934 z M 11.8226,27.988061 c -0.08026,-0.35721 -0.103397,-0.370207 -0.300382,-0.168726 -0.198536,0.203068 -0.177832,0.256677 0.133023,0.344435 0.112959,0.03189 0.209174,0.06036 0.213812,0.06327 0.0046,0.0029 -0.01627,-0.104632 -0.04645,-0.238983 z m 6.375459,0.140687 c 0.03227,-0.02371 0.05989,-0.06952 0.06136,-0.101792 0.0015,-0.03227 0.04925,-0.209467 0.106178,-0.393763 0.196279,-0.635468 0.109406,-0.907546 -0.152867,-0.47876 -0.298495,0.488004 -0.309074,1.19061 -0.01467,0.974315 z m -0.382318,-0.145802 c -7.27e-4,-0.106764 -0.01178,-0.115186 -0.05778,-0.04401 -0.07352,0.113767 -0.07352,0.17604 0,0.17604 0.03227,0 0.05828,-0.05941 0.05778,-0.13203 z m -6.640323,-0.251751 c 0.02152,-0.258846 -0.09242,-1.14076 -0.161912,-1.253199 -0.08094,-0.130963 -0.24357,0.396086 -0.279553,0.905974 -0.03395,0.481054 -0.03395,0.481054 0.135599,0.54246 0.242536,0.08784 0.284561,0.06102 0.305866,-0.195235 z m 7.73773,0.103747 c 0.07056,-0.05576 0.226735,-0.246619 0.347058,-0.424125 0.120324,-0.177507 0.302262,-0.421156 0.404307,-0.541442 0.419925,-0.494989 0.375465,-0.813127 -0.197001,-1.409668 -0.492092,-0.512786 -0.576726,-0.395475 -0.655597,0.908718 -0.107811,1.782739 -0.117696,1.639534 0.101233,1.466517 z m -4.245452,-0.178868 c 0.301716,-0.190198 0.361968,-0.261351 0.50582,-0.597337 0.08982,-0.209781 0.259023,-0.525844 0.376012,-0.702363 0.317128,-0.478497 0.362552,-0.658882 0.241202,-0.95784 -0.426627,-1.051042 -0.610438,-1.869331 -0.615661,-2.740796 -0.0019,-0.32274 -0.0019,-0.32274 -0.572612,0.26406 -0.785382,0.80757 -1.227943,2.085318 -1.001121,2.890398 0.05222,0.185351 0.177776,0.64067 0.279013,1.011821 0.328882,1.205742 0.278695,1.152705 0.787347,0.832057 z m 3.082803,-0.304595 c 0.161923,-0.241693 0.416401,-0.595867 0.565506,-0.787053 0.310355,-0.397941 0.369998,-0.864813 0.115179,-0.901596 -0.369357,-0.05332 -1.505099,1.38287 -1.344595,1.700288 0.0951,0.188066 0.323638,0.473671 0.354409,0.4429 0.0083,-0.0083 0.147579,-0.212846 0.309501,-0.454539 z m 1.958828,0.06509 c 0.09288,-0.358435 0.01871,-0.372297 -0.205638,-0.03843 -0.26698,0.397315 -0.267737,0.404552 -0.03227,0.30847 0.135496,-0.05529 0.20174,-0.13048 0.237903,-0.270039 z m -9.403726,0.111607 c 0,-0.203414 -0.0068,-0.205887 -0.237634,-0.08651 -0.2078627,0.10749 -0.2130377,0.132933 -0.0411,0.202045 0.226432,0.09101 0.27873,0.06934 0.27873,-0.115531 z m 1.257614,-0.04214 c 0.06455,-0.03689 0.04688,-0.11485 -0.09021,-0.397959 -0.169387,-0.349814 -0.170298,-0.350569 -0.14147,-0.11736 0.01596,0.129096 0.03011,0.353547 0.03144,0.49878 0.0019,0.204995 0.01558,0.241508 0.0612,0.163239 0.03232,-0.05545 0.09489,-0.121466 0.13904,-0.1467 z M 9.9874815,27.350184 c 0.1829315,-0.0066 0.3290645,-0.23571 0.2800465,-0.439051 -0.04995,-0.207197 -0.04995,-0.207197 -0.299337,0.161238 -0.2640712,0.390125 -0.3196651,0.537593 -0.1420795,0.37688 0.059021,-0.05341 0.1316373,-0.09799 0.16137,-0.09907 z m 10.4237925,-0.06824 c 0.465186,-0.247942 0.47174,-0.291596 0.100254,-0.667754 -0.348851,-0.35324 -0.360342,-0.349415 -0.454104,0.151146 -0.155368,0.829451 -0.176158,0.799099 0.35385,0.516608 z m -9.830868,5.09e-4 c -0.01873,-0.04681 -0.03264,-0.03291 -0.03545,0.03545 -0.0025,0.06186 0.01132,0.09652 0.03082,0.07702 0.0195,-0.0195 0.02158,-0.07011 0.0046,-0.11247 z M 9.5301867,26.969967 c 0.016765,-0.35133 0.016765,-0.35133 -0.1023034,-0.17529 -0.1536539,0.227173 -0.164563,0.574654 -0.017152,0.546343 0.081798,-0.01571 0.1061009,-0.0912 0.1194556,-0.371053 z m 2.5567653,0.05639 c 0.124483,-0.114325 0.291085,-0.25029 0.370227,-0.302146 0.418337,-0.274105 0.734865,-0.91725 0.870816,-1.769383 0.05331,-0.334166 0.133484,-0.729024 0.178157,-0.877462 0.04467,-0.148439 0.07474,-0.276374 0.06681,-0.284301 -0.04883,-0.04883 -0.750175,0.566374 -1.202342,1.054659 -0.293511,0.316956 -0.628774,0.651874 -0.745029,0.744261 -0.476351,0.378557 -0.476916,0.382227 -0.161384,1.047886 0.316901,0.668549 0.316136,0.668074 0.622743,0.386486 z m -1.337861,-0.600538 c 0.03846,-0.12662 0.0321,-0.130205 -0.113354,-0.06393 -0.165096,0.07522 -0.191125,0.210425 -0.11298,0.586828 0.04112,0.198045 0.04112,0.198045 0.113354,-0.09536 0.03973,-0.16137 0.09057,-0.353764 0.11298,-0.427542 z m -0.8260915,0.315327 c 0.1683835,-0.229575 0.1683835,-0.229575 0.026103,-0.191511 -0.078255,0.02093 -0.1752886,0.03842 -0.2156311,0.03886 -0.04691,5.12e-4 -0.07335,0.08964 -0.07335,0.247257 0,0.13555 0.021261,0.22137 0.047247,0.19071 0.025986,-0.03066 0.1230201,-0.159055 0.2156311,-0.285321 z m 6.9771495,0.226527 c 0.02004,-0.05222 0.0102,-0.07578 -0.02306,-0.05522 -0.0319,0.01972 -0.05801,0.0607 -0.05801,0.09107 0,0.08441 0.04206,0.06581 0.08107,-0.03585 z M 9.0962183,26.760442 c 0.1068809,-0.180935 0.1068809,-0.180935 -0.031358,-0.16137 -0.1010865,0.01431 -0.1432292,0.06293 -0.1568067,0.180935 -0.024509,0.21301 0.055706,0.204669 0.1881648,-0.01957 z m -0.2913115,0.02442 c 0.020648,-0.05381 0.012045,-0.123329 -0.019118,-0.154491 -0.086409,-0.08641 -0.2405879,-0.0011 -0.2405879,0.133122 0,0.147183 0.2049549,0.164047 0.2597055,0.02137 z m 8.2083952,-0.303963 c 0.167507,-0.15644 0.540591,-0.475948 0.829075,-0.710018 0.720975,-0.584983 1.147862,-1.163907 1.147862,-1.556674 0,-0.08203 0.06815,-0.551617 0.151446,-1.043521 0.08329,-0.491903 0.200328,-1.211242 0.260074,-1.59853 0.05975,-0.387288 0.162883,-0.994626 0.229194,-1.349639 0.179417,-0.960559 0.201903,-0.898569 -0.302348,-0.833502 -0.284414,0.0367 -0.617072,0.03287 -1.008169,-0.0116 -0.323269,-0.03676 -0.598597,-0.04379 -0.617096,-0.01576 -0.176644,0.267681 -1.04061,1.324387 -1.750024,2.140434 -0.495708,0.570218 -0.499449,0.582212 -0.470308,1.507725 0.02909,0.923913 0.0038,0.84288 1.120279,3.594149 0.08219,0.202549 0.0515,0.211761 0.410015,-0.123066 z m 4.460691,0.165683 c 0.558804,-0.262669 0.682271,-0.436956 0.450246,-0.635573 -0.463124,-0.396442 -2.236569,-1.155825 -2.375298,-1.017095 -0.01773,0.01774 0.23879,0.311334 0.570056,0.652443 0.331266,0.341109 0.692821,0.732423 0.803455,0.869588 0.232917,0.288771 0.221086,0.285969 0.551541,0.130637 z m -13.1341717,0.0014 c 0.019946,-0.03227 0.0083,-0.05868 -0.025877,-0.05868 -0.034179,0 -0.062143,0.02641 -0.062143,0.05868 0,0.03227 0.011645,0.05868 0.025877,0.05868 0.014232,0 0.042197,-0.02641 0.062143,-0.05868 z m 0.02934,-0.32274 c 0,-0.08069 -0.0086,-0.1467 -0.019111,-0.1467 -0.010511,0 -0.081129,0.06602 -0.1569287,0.1467 -0.1378174,0.1467 -0.1378174,0.1467 0.019111,0.1467 0.1282706,0 0.1569287,-0.02679 0.1569287,-0.1467 z m 1.0916486,-0.267223 c 0.7132661,-1.476495 0.8675231,-2.447795 0.2417989,-1.522517 -0.098215,0.145233 -0.3679455,0.501728 -0.5994022,0.79221 -0.6067284,0.761454 -0.6635138,1.160083 -0.1613862,1.132917 0.3332051,-0.01803 0.3332051,-0.01803 0.5189895,-0.40261 z m 0.6276921,0.301163 c 0.161912,-0.0617 0.16378,-0.068 0.127427,-0.4297 -0.0657,-0.653698 -0.115765,-0.669817 -0.3655415,-0.11769 -0.3278536,0.724714 -0.313542,0.757615 0.2381145,0.54739 z M 8.313461,25.846698 C 8.5248809,25.625784 8.7747089,25.339413 8.8686345,25.210317 8.96256,25.081221 9.2148151,24.764349 9.4292013,24.506157 10.56812,23.134522 10.509743,23.071974 8.8679412,23.9048 8.2275001,24.229672 6.954936,25.729864 7.1523439,25.927272 c 0.486806,0.486806 0.627461,0.477045 1.1611171,-0.08057 z m 2.5446,0.05464 c -0.0027,-0.0896 -0.06206,-0.49298 -0.131793,-0.896405 -0.06974,-0.403425 -0.126901,-0.845725 -0.127031,-0.98289 -3.87e-4,-0.408787 -0.09793,-0.283585 -0.177484,0.227814 -0.0711,0.457062 -0.05039,1.49049 0.03779,1.885943 0.05197,0.233065 0.406468,0.02451 0.39852,-0.234462 z m 11.709958,-0.131273 c 0.138534,-0.08761 0.03581,-0.128098 -0.270723,-0.106696 -0.266813,0.01863 -0.275658,0.02424 -0.138337,0.08777 0.181932,0.08417 0.297437,0.08952 0.40906,0.01892 z M 11.58107,25.371687 c 0.219723,-0.217849 0.636569,-0.647115 0.926324,-0.953923 0.289754,-0.306808 0.902382,-0.886955 1.361395,-1.289216 0.459013,-0.402261 0.931532,-0.847381 1.050041,-0.989156 0.118509,-0.141775 0.443164,-0.499041 0.721456,-0.793923 0.278292,-0.294883 0.622004,-0.70779 0.763805,-0.917571 0.141801,-0.20978 0.41201,-0.570652 0.600465,-0.801936 0.411542,-0.505072 0.409172,-0.483271 0.07197,-0.662158 -0.863135,-0.457892 -1.328205,-1.311843 -1.337585,-2.456042 -0.0059,-0.721659 -0.05921,-0.739449 -0.385767,-0.128782 -0.332509,0.62179 -1.097354,1.500695 -1.705268,1.959571 -0.643983,0.486103 -0.716917,0.572948 -1.304593,1.553424 -0.226909,0.378574 -0.522341,0.768114 -0.782211,1.031378 -0.860271,0.871507 -1.035743,2.216685 -0.57261,4.389654 0.117283,0.550279 0.09862,0.548431 0.59258,0.05868 z M 7.6657186,24.710781 c 0.8357575,-0.880955 0.8357575,-0.880955 1.6119457,-1.255061 0.8719177,-0.420246 1.1758297,-0.670003 1.2377137,-1.017167 0.02166,-0.121503 0.117685,-0.426642 0.213393,-0.678087 0.229057,-0.601785 0.207179,-0.629001 -0.503705,-0.626596 -1.5683109,0.0053 -2.3560293,0.353875 -2.4884726,1.101162 -0.061519,0.347108 -0.2052758,0.707867 -0.4724216,1.185546 -0.063173,0.112959 -0.1598162,0.46153 -0.2147618,0.774603 -0.056324,0.32093 -0.1742179,0.726367 -0.2702748,0.929479 -0.357277,0.755462 -0.1158347,0.642751 0.8865834,-0.413879 z M 23.148437,25.33628 c 0.245375,-0.261191 -0.668689,-0.776681 -1.198662,-0.67599 -0.159278,0.03026 -0.552204,0.08045 -0.873168,0.11152 -0.758529,0.07344 -0.778258,0.111572 -0.19623,0.379295 0.727473,0.334624 2.027914,0.440798 2.26806,0.185175 z M 6.5742851,25.048947 c 0.2178724,-0.446884 0.3545876,-1.244481 0.1467065,-0.855885 -0.040325,0.07538 -0.2185825,0.289371 -0.3961273,0.475536 -0.3228088,0.33848 -0.3228088,0.33848 -0.1551772,0.513449 0.2200024,0.229633 0.229233,0.226597 0.404598,-0.1331 z m 17.2923199,-0.26406 c 0.407994,-0.436275 0.40814,-0.43747 0.04804,-0.391624 -0.402008,0.05118 -0.464729,0.103026 -0.464729,0.384139 0,0.300949 0.139897,0.303462 0.416687,0.0075 z m -0.620381,-0.235593 c -0.06803,-0.07615 -0.441786,-0.0399 -0.441786,0.04285 0,0.02309 0.09902,0.112634 0.22005,0.198997 0.229119,0.163496 0.408781,-0.03246 0.221736,-0.241843 z M 6.0219618,24.652857 c 0.1466999,-0.11475 0.1466999,-0.11475 -0.16137,-0.116055 -0.3118579,-0.0013 -0.3653117,0.03534 -0.237654,0.162999 0.1004466,0.100447 0.2300956,0.08519 0.399024,-0.04694 z M 20.985359,24.512424 c 0.338877,-0.05382 0.866997,-0.141663 1.1736,-0.195211 0.306602,-0.05355 0.686398,-0.103079 0.843989,-0.110066 0.494776,-0.02194 0.531501,-1.650937 0.07263,-3.221789 -0.04714,-0.16137 -0.116044,-0.451836 -0.153123,-0.64548 -0.130142,-0.679658 -0.482289,-1.845424 -0.626941,-2.07546 -0.0075,-0.01191 -0.152769,0.100063 -0.322839,0.248836 -0.383379,0.335371 -1.052792,0.671744 -1.509596,0.758556 -0.345512,0.06566 -0.345512,0.06566 -0.417366,0.508185 -0.03952,0.243388 -0.135612,0.812207 -0.21354,1.264043 -0.19436,1.126929 -0.351977,2.249988 -0.399422,2.84598 -0.02184,0.274328 -0.05448,0.560153 -0.07253,0.635166 -0.03973,0.165113 0.533445,0.160612 1.62513,-0.01276 z M 6.3550429,24.272272 c 0.2296863,-0.160878 0.9669282,-1.354238 1.0798282,-1.747897 0.054892,-0.191397 -0.1137782,-0.05788 -1.1930647,0.944428 -0.3144094,0.291984 -0.6641354,0.564322 -0.7771689,0.605195 -0.1943402,0.07027 -0.2540554,0.15868 -0.1663956,0.246339 0.079918,0.07992 0.9292291,0.04129 1.056801,-0.04806 z M 24.313604,24.087166 c 0.62382,-0.110576 0.812573,-0.934423 0.38298,-1.671587 -0.08026,-0.137724 -0.904798,-0.550021 -1.099966,-0.550021 -0.03715,0 -0.05868,0.427282 -0.05868,1.164487 0,1.282952 -0.05736,1.204781 0.775666,1.057121 z M 5.6698818,23.612249 c 0.078568,-0.0794 0.057208,-0.08502 -0.1989,-0.05229 -0.157806,0.02016 -0.3756554,0.03666 -0.4841099,0.03666 -0.2140429,0 -0.272631,0.127989 -0.1022383,0.223346 0.1159036,0.06486 0.6572269,-0.07833 0.7852482,-0.207715 z m 0.1510916,-0.283226 c 0.099593,-0.01505 0.2573346,-0.108624 0.3520799,-0.208856 0.094407,-0.09987 0.3646193,-0.340144 0.6004725,-0.533932 0.3806696,-0.312777 0.7154357,-0.713731 0.7154357,-0.856889 0,-0.06645 -1.7212069,-0.193526 -2.0271047,-0.14966 -0.237365,0.03404 -0.237365,0.03404 -0.3031686,0.451943 -0.044066,0.279854 -0.1449601,0.570173 -0.3054249,0.87885 -0.1317917,0.25352 -0.2396213,0.469083 -0.2396213,0.479029 0,0.0236 0.9737074,-0.02518 1.2073314,-0.06048 z M 25.628791,22.818131 c 0.04736,-0.08745 0.01214,-0.122753 -0.225176,-0.22569 -0.570141,-0.247303 -0.564453,-0.246237 -0.519342,-0.09735 0.02221,0.07332 0.08079,0.27854 0.130173,0.456047 0.04938,0.177507 0.104997,0.347379 0.123591,0.377494 0.03327,0.05388 0.381019,-0.307869 0.490754,-0.510501 z M 4.587122,22.945685 c 0.119853,-0.231771 0.082059,-0.264484 -0.2058889,-0.178212 -0.2331656,0.06986 -0.2331656,0.06986 -0.1071562,0.214781 0.1626261,0.187037 0.1996505,0.182712 0.3130451,-0.03657 z m -0.090134,-0.41094 c 0.3454591,-0.07409 0.4100541,-0.175484 0.4100541,-0.643667 0,-0.365797 -0.043368,-0.367599 -0.6072891,-0.02523 -0.7586254,0.460572 -0.6439994,0.849314 0.197235,0.668902 z M 25.914478,22.423018 c 0.05852,-0.109341 0.04462,-0.11736 -0.203316,-0.11736 -0.309016,0 -0.325658,0.02263 -0.104754,0.142476 0.212045,0.115037 0.234021,0.113245 0.30807,-0.02512 z m 0.1419,-0.270338 c 0.214839,-0.08244 -0.09197,-0.680289 -0.699969,-1.363945 -0.133443,-0.150049 -0.356714,-0.431253 -0.496156,-0.624896 -0.41441,-0.575491 -0.532934,-0.676104 -1.116935,-0.94815 -0.306603,-0.142826 -0.616833,-0.289429 -0.689401,-0.325785 -0.219663,-0.11005 -0.197556,0.06935 0.164221,1.332615 0.09243,0.322739 0.185719,0.718829 0.207317,0.880199 0.08913,0.66596 1.825645,1.358976 2.630923,1.049962 z M 3.8520603,21.7404 c 0.3019486,-0.19982 0.3039767,-0.197582 -0.1790548,-0.197582 -0.4125166,0 -0.4125166,0 -0.2823647,0.17604 0.1583626,0.214197 0.1695122,0.214717 0.4614195,0.02154 z M 26.524923,21.402635 c 0.17903,-0.331914 -0.140478,-1.072861 -0.510135,-1.183012 -0.07131,-0.02125 -0.330016,-0.154718 -0.574907,-0.296599 -0.826638,-0.478923 -0.810162,-0.282846 0.06461,0.768934 0.214741,0.258192 0.475322,0.594869 0.579069,0.74817 0.234419,0.346387 0.234294,0.346397 0.441359,-0.03749 z M 4.6768142,21.276482 c 0.3962194,-0.20078 1.2864676,-1.262676 1.2864676,-1.534511 0,-0.09988 -2.4693889,1.1463 -2.686977,1.35599 -0.3926366,0.378385 0.7249664,0.520844 1.4005094,0.178521 z m 3.2522472,0.06325 C 8.3291423,21.234361 8.9685122,20.938383 8.8896419,20.89506 8.8454325,20.870776 8.5821059,20.771051 8.3044716,20.67345 8.0268373,20.575848 7.5060098,20.321672 7.1470771,20.108613 6.2670772,19.586254 6.3544445,19.590714 6.1188507,20.056124 c -0.1116756,0.220613 -0.2881854,0.480332 -0.3922441,0.577154 -0.2655311,0.247065 -0.5243271,0.61133 -0.4927636,0.693584 0.03077,0.08019 2.3967386,0.09148 2.6952184,0.01287 z m 3.4666446,-0.691785 c 0.204262,-0.217381 0.459635,-0.569258 0.944351,-1.301222 0.144788,-0.218642 0.202214,-0.218457 -0.743496,-0.0024 -1.6627196,0.379875 -3.597017,-0.226162 -4.0449092,-1.267315 -0.154876,-0.360019 -0.2224352,-0.293646 -0.7925377,0.77862 -0.334021,0.628237 -0.334021,0.628237 0.1539032,0.872865 0.2683583,0.134545 0.6727661,0.34377 0.8986841,0.464943 0.9018542,0.48372 1.5112963,0.618384 3.1418316,0.694227 0.174625,0.0081 0.245275,-0.03018 0.442173,-0.239723 z m 15.516332,0.111879 c 0,-0.07147 -0.340003,-0.304886 -0.382382,-0.262506 -0.0122,0.0122 0.04455,0.107444 0.126115,0.211659 0.141868,0.181274 0.256267,0.203972 0.256267,0.05085 z M 3.4735991,20.563871 c 0.2891831,-0.09875 0.2891831,-0.09875 -0.1215768,-0.20404 -0.6742277,-0.172828 -0.7828216,-0.143741 -0.5532009,0.148174 0.1418007,0.18027 0.2775461,0.191509 0.6747777,0.05587 z m 23.6614199,-0.31667 c 0.02,-0.171953 -0.138792,-0.299864 -0.950898,-0.765985 -0.587741,-0.337344 -0.59158,-0.333265 -0.171496,0.182203 0.549767,0.674597 1.079775,0.950265 1.122394,0.583782 z M 4.8354709,19.948428 c 0.4858887,-0.265841 0.4858887,-0.265841 -0.05868,-0.33553 -0.2995128,-0.03833 -0.7232463,-0.09541 -0.9416299,-0.126841 -0.3257906,-0.04689 -0.4214222,-0.04119 -0.5327806,0.03178 -0.074646,0.04891 -0.2722535,0.129473 -0.4391286,0.179029 -0.5244963,0.155759 -0.4383354,0.262645 0.3544556,0.439716 0.7362223,0.164437 1.0373349,0.129417 1.6177635,-0.18815 z M 25.798796,19.709069 c -0.193511,-0.204671 -0.56507,-0.746797 -0.882986,-1.288328 -0.541618,-0.922578 -1.047119,-1.08953 -1.951236,-0.644435 -0.626229,0.308292 -0.504469,0.511625 0.602704,1.006481 0.371151,0.165888 1.044504,0.483159 1.49634,0.705047 0.952575,0.467792 0.974539,0.474401 0.735178,0.221235 z m 1.582711,0.11736 c 1.6e-5,-0.0081 0.05134,-0.149674 0.114058,-0.314679 0.221844,-0.583674 -0.951309,-1.647683 -2.059997,-1.868345 -0.786662,-0.156569 -0.831888,-0.153693 -0.651657,0.04144 0.06695,0.07249 0.205881,0.277031 0.308726,0.454538 0.329279,0.568323 0.824966,0.984656 1.650909,1.386619 0.215584,0.104918 0.409262,0.218737 0.430395,0.252931 0.03237,0.05237 0.207475,0.09244 0.207566,0.0475 z M 2.8385724,19.492703 c 0.2491254,-0.06682 0.3408079,-0.17938 0.1467,-0.180111 -0.05648,-2.13e-4 -0.181908,-0.05285 -0.27873,-0.116973 -0.2621614,-0.173623 -0.393113,-0.156922 -0.3450805,0.04401 0.052395,0.21918 0.1368841,0.375344 0.1866547,0.344999 0.022586,-0.01377 0.1532913,-0.05514 0.2904558,-0.09192 z m 3.1833894,-0.110239 c 0,-0.02633 -0.1122255,-0.109934 -0.24939,-0.185785 -0.1371645,-0.07585 -0.4474349,-0.261914 -0.6894899,-0.413472 -0.8744138,-0.5475 -1.9090291,-0.853406 -2.1651076,-0.640161 -0.1378853,0.114821 -0.00871,0.407093 0.1799213,0.407093 0.026486,0 0.2127556,0.132636 0.4139332,0.294747 0.2011776,0.162111 0.4659093,0.32171 0.5882927,0.354664 0.6202092,0.167005 1.9218403,0.29089 1.9218403,0.182914 z M 6.4885302,18.731901 C 6.6489093,18.412308 6.8603981,18.024252 6.9585051,17.869553 7.20109,17.487036 6.9316893,16.779495 6.5794216,16.873946 c -0.2553823,0.06847 -1.316738,0.260956 -1.7603996,0.319257 -0.258192,0.03393 -0.5882669,0.07747 -0.7334999,0.09676 -0.5604257,0.07444 -0.9626903,0.588409 -0.5498451,0.702527 0.7984705,0.22071 1.183509,0.403182 2.2222248,1.053124 0.225918,0.141361 0.4171207,0.259346 0.4248949,0.26219 0.00777,0.0028 0.1453543,-0.256315 0.3057335,-0.575908 z M 3.4351523,19.05597 C 3.0373127,18.693303 2.5848994,18.429261 2.4593535,18.486463 c -0.1929677,0.08792 -0.195223,0.08643 -0.1784643,-0.118007 0.010957,-0.133665 -0.020322,-0.205558 -0.1183509,-0.272023 -0.1062367,-0.07203 -0.1279741,-0.07386 -0.1072436,-0.009 0.0143,0.04472 0.069196,0.218184 0.1219907,0.385471 0.083732,0.265317 0.1199073,0.309186 0.2832836,0.343532 0.1030114,0.02165 0.3325264,0.08855 0.5100334,0.148646 0.2967419,0.100471 0.5237719,0.144902 0.4645499,0.09091 z m 6.9373907,-0.09378 c 0.255798,-0.116072 0.255798,-0.116072 -0.06694,-0.1177 -0.7192026,-0.0036 -1.5907581,-0.232291 -2.1586398,-0.566342 -0.3352598,-0.197213 -0.3352598,-0.197213 -0.1005398,0.0063 0.7230991,0.626862 1.7676075,0.931206 2.3261216,0.677774 z m 9.150248,0.02531 c 0.04295,-0.02655 -0.251979,-0.128223 -0.71379,-0.246081 -1.31876,-0.336561 -2.310466,-1.028489 -2.62904,-1.83432 -0.127591,-0.322739 -0.127591,-0.322739 -0.09276,-0.0031 0.154837,1.420977 2.351819,2.75335 3.435595,2.08354 z m 8.261797,-0.286204 c 0.124411,-0.421357 0.100573,-0.45051 -0.489704,-0.59888 -0.64905,-0.163143 -0.639347,-0.195815 -0.112036,0.377246 0.517358,0.562245 0.502757,0.556867 0.60174,0.221634 z m -7.073066,-0.214118 c 0.325732,-0.08268 0.733821,-0.259294 1.274153,-0.551427 0.775363,-0.419204 1.246384,-0.595898 1.963023,-0.736391 0.203913,-0.03998 0.579531,-0.191239 0.892558,-0.359437 0.297263,-0.159727 0.821978,-0.390745 1.166034,-0.513372 0.725224,-0.258482 0.958909,-0.424168 1.19949,-0.850453 0.09574,-0.169639 0.385459,-0.514148 0.643824,-0.765574 0.641376,-0.624153 0.64163,-0.622977 -0.243204,-1.125054 -0.9285,-0.526854 -1.428487,-0.993651 -2.303502,-2.150589 -0.397816,-0.52599 -2.82894,-0.926909 -3.499919,-0.577175 -0.13462,0.07017 -0.380483,0.164206 -0.546362,0.208974 -1.772872,0.478464 -2.739322,1.008247 -3.287822,1.802296 -0.118514,0.171569 -0.348948,0.493454 -0.512076,0.715299 -1.154065,1.569462 0.07438,4.494388 2.071223,4.93157 0.515311,0.112821 0.636776,0.109876 1.18258,-0.02867 z M 9.836161,18.243508 C 9.4352669,18.01162 8.9733069,17.547979 8.780022,17.183524 8.6049433,16.853399 8.6293804,16.857295 8.3489991,17.1148 c -0.2649113,0.243296 -0.2609557,0.25237 0.2766891,0.634734 0.4448993,0.316404 0.6793961,0.43928 1.0931128,0.572786 0.460424,0.148578 0.483586,0.133024 0.11736,-0.07881 z m 3.110039,-0.06959 c 0.684051,-0.239544 1.090836,-0.552582 1.646199,-1.266817 0.188214,-0.242054 0.489683,-0.598535 0.669932,-0.792179 0.412194,-0.442825 0.58057,-0.78355 0.766342,-1.550764 0.177696,-0.733864 0.189367,-0.717059 -0.251998,-0.362841 -1.369667,1.099231 -2.429216,1.46894 -4.301764,1.501018 -1.226856,0.02102 -1.278412,0.03558 -2.0601908,0.582085 -0.6360366,0.444621 -0.6364488,0.445622 -0.3411881,0.828335 0.9044197,1.172296 2.3916119,1.579806 3.8726679,1.061163 z M 2.6783793,17.932581 c 0.040825,-0.04919 0.063863,-0.09723 0.051195,-0.10675 -0.154498,-0.116127 -0.9465496,-0.248668 -0.8103218,-0.135598 0.3607374,0.299415 0.6382406,0.388007 0.7591267,0.242348 z m 5.5169586,-0.08899 C 8.0835981,17.748084 7.9660914,17.669939 7.934212,17.669939 c -0.065033,0 -0.03359,0.03171 0.2228128,0.224676 0.2479016,0.186573 0.2746328,0.150975 0.038313,-0.05102 z m 9.5812431,0.0464 c -0.718948,-0.796356 -1.115143,-1.925582 -1.040506,-2.965626 0.03878,-0.540434 -0.06228,-0.49154 -0.265028,0.128222 -0.365458,1.11713 -0.08523,1.973348 0.884417,2.702242 0.387827,0.291535 0.633467,0.370376 0.421117,0.135162 z m 10.228478,-0.10269 c 0.159894,-0.350107 0.158849,-0.591343 -0.0023,-0.530075 -0.271654,0.103282 -1.175284,0.236285 -1.618843,0.238272 -0.559083,0.0025 -0.465327,0.06664 0.431709,0.295303 0.802833,0.204651 1.094761,0.203792 1.189432,-0.0035 z M 3.171089,17.520797 c 0.2298266,-0.202938 0.2298266,-0.202938 -0.3667499,-0.21394 -0.3281171,-0.0061 -0.6669926,-0.01265 -0.7530566,-0.01467 -0.4268756,-0.01 0.1020638,0.295411 0.6845999,0.395296 0.080685,0.01384 0.159903,0.02765 0.17604,0.0307 0.016137,0.0031 0.132762,-0.08577 0.2591666,-0.197388 z m 24.086719,-0.292188 c 0.616861,-0.109085 0.952121,-0.208272 0.97556,-0.288618 0.268104,-0.919059 -1.19614,-0.927632 -2.872744,-0.01682 -0.608133,0.330367 -0.533899,0.374965 0.641874,0.385615 0.446449,0.004 0.967093,-0.02921 1.25531,-0.08018 z M 1.1329279,17.072137 c -0.018732,-0.04681 -0.032637,-0.03291 -0.035453,0.03545 -0.00255,0.06186 0.011321,0.09652 0.03082,0.07702 0.019499,-0.0195 0.021584,-0.07011 0.00463,-0.11247 z m 1.7111522,-0.277733 c -0.6176408,-0.360512 -1.1057575,-0.400677 -1.1057575,-0.09099 0,0.231366 0.2385046,0.30644 0.9975598,0.314001 0.4987799,0.005 0.4987799,0.005 0.1081977,-0.223011 z m 1.7018145,0.179691 c 0.1376326,-0.03867 0.1376326,-0.03867 0.017823,-0.147092 -0.1105317,-0.100029 -0.4781957,0.0323 -0.4781957,0.172112 0,0.03657 0.2989607,0.02033 0.4603725,-0.02502 z m 3.3122789,-0.284112 c 0.1511182,-0.305137 0.1511182,-0.305137 0.0066,-0.250192 -0.079484,0.03022 -0.2229644,0.06092 -0.3188451,0.06823 -0.095881,0.0073 -0.1743285,0.04525 -0.1743285,0.08432 0,0.0694 0.2945618,0.453871 0.3217286,0.419929 0.00755,-0.0094 0.081728,-0.15446 0.1648434,-0.322285 z M 3.90521,16.74703 C 4.1415588,16.460298 4.1636505,16.499997 3.5427323,16.095649 3.2441978,15.901241 2.7886944,15.595548 2.5305025,15.416331 1.8559461,14.948106 1.5598016,14.962375 1.6633623,15.458113 c 0.058409,0.279598 0.6053417,0.737524 1.48328,1.241891 0.5454835,0.313375 0.5393341,0.312994 0.7585677,0.04703 z m 4.3865692,0.08672 C 8.5051014,16.688525 8.521692,16.635652 8.4030313,16.479201 8.3297104,16.38253 8.3109186,16.396149 8.1701776,16.647962 7.957518,17.028452 7.9723939,17.05118 8.2917792,16.833749 Z M 5.8770465,16.671973 c 0.7427378,-0.169202 0.7418783,-0.168336 0.6878851,-0.693314 -0.055576,-0.540365 -0.5071358,-0.803831 -0.8258422,-0.481843 -0.086475,0.08737 -0.3288665,0.292577 -0.5386475,0.456025 -0.9416525,0.733678 -0.6672922,1.025283 0.6766046,0.719132 z m 3.0246759,-0.32858 c 0.078242,-0.08412 0.2742887,-0.229106 0.4356587,-0.322189 0.3364191,-0.194058 0.2452352,-0.220155 -0.2858722,-0.08182 -0.5417643,0.141112 -0.5835668,0.174776 -0.4758048,0.383164 0.1100014,0.21272 0.1454442,0.214986 0.3260183,0.02084 z M 1.9730426,16.28091 c 0,-0.05918 -0.1870109,-0.25401 -0.2438147,-0.25401 -0.027272,0 -0.049585,0.06602 -0.049585,0.1467 0,0.11736 0.02934,0.1467 0.1467,0.1467 0.080685,0 0.1467,-0.01773 0.1467,-0.03939 z m 3.2464299,-0.768017 c 0.4717229,-0.429734 0.2579241,-0.542908 -0.7944877,-0.420558 -0.3191155,0.0371 -0.8558302,0.05725 -1.1926993,0.04478 -0.7265021,-0.02689 -0.7469033,-0.06786 0.3227884,0.648161 0.7898515,0.528703 0.7898515,0.528703 1.0899404,0.253133 0.1650489,-0.151563 0.4235551,-0.388045 0.5744582,-0.525516 z m 23.0773665,0.353568 c -0.01749,-0.01749 -0.152138,0.0019 -0.299222,0.04308 -0.301024,0.08428 -0.296436,0.107075 0.04888,0.242823 0.230043,0.09043 0.415208,-0.121035 0.250341,-0.285902 z m -20.5731576,0.04546 c 0.2909808,-0.119471 0.2883517,-0.1078 0.1456641,-0.646683 -0.1388026,-0.52421 -0.093031,-1.293232 0.1099592,-1.84745 0.1820098,-0.496935 0.1706049,-0.51794 -0.1062419,-0.195666 -1.1972174,1.393664 -1.29533,3.160305 -0.1493814,2.689799 z M 28.245139,15.488155 c 0.04693,-0.03895 0.07522,-0.204636 0.07522,-0.440589 0,-0.507956 -0.46819,-0.140708 -1.073339,0.841927 -0.04454,0.07233 0.870924,-0.295774 0.998121,-0.401338 z M 9.6008598,15.349129 c 1.3466442,-0.172543 3.5665172,-2.020229 3.6668282,-3.052043 0.105036,-1.080415 -0.472537,-1.705024 -1.468398,-1.58798 -0.606942,0.07133 -0.853453,0.306924 -1.204901,1.151515 -0.100723,0.242055 -0.534974,1.144064 -0.9650036,2.004466 -0.829469,1.659599 -0.8256151,1.648314 -0.537437,1.573684 0.102714,-0.0266 0.3317241,-0.06694 0.5089114,-0.08964 z M 6.6524466,14.824822 c 0.1672322,-0.511064 0.1605916,-0.513356 -0.2475748,-0.08544 -0.335471,0.351706 -0.3539332,0.426653 -0.1188501,0.482466 0.2018513,0.04792 0.2312483,0.01607 0.3664249,-0.39703 z M 8.7975512,14.58924 C 9.1231586,13.64992 9.6340563,12.379296 9.8940636,11.862167 10.13436,11.384241 10.13436,11.384241 9.737671,11.688287 c -0.5700701,0.436935 -0.9334756,1.32594 -1.1621084,2.842887 -0.1450789,0.962578 -0.096003,0.975415 0.2219886,0.05807 z m 4.5696468,0.550102 c 0.577823,-0.131692 1.048866,-0.31669 0.635242,-0.249486 -0.27247,0.04427 -1.306308,0.311312 -1.34151,0.346514 -0.05602,0.05602 0.172472,0.02463 0.706268,-0.09703 z M 8.2858875,14.23716 c 0.095545,-0.573499 0.2360462,-1.067671 0.432951,-1.522785 0.1245474,-0.287871 0.1245938,-0.289516 0.00512,-0.181398 -0.3380704,0.30595 -0.5922055,1.207379 -0.579711,2.056263 0.00428,0.290466 0.018096,0.448902 0.030712,0.35208 0.012616,-0.09682 0.062532,-0.413694 0.1109235,-0.70416 z m -2.1704149,0.393099 c 0.403553,-0.396348 0.7416412,-1.001624 1.0226039,-1.830758 0.1038963,-0.306603 0.2401042,-0.658474 0.3026841,-0.781936 0.2921739,-0.576419 -0.4551966,-0.546143 -1.9046632,0.07716 -0.379556,0.163217 -0.9734338,0.397935 -1.3197285,0.521595 -0.6194471,0.221201 -1.3274013,0.547345 -1.3828453,0.637055 -0.015547,0.02516 0.2003784,0.180461 0.4798352,0.345121 1.6045481,0.945423 1.9385343,1.138484 2.1511431,1.24347 0.1290959,0.06375 0.2503938,0.118783 0.2695507,0.122301 0.019157,0.0035 0.190796,-0.146786 0.38142,-0.334006 z m 6.3660594,0.161553 c 0.08529,-0.04541 0.464668,-0.690726 0.464668,-0.790389 0,-0.0238 -0.116201,0.06384 -0.258226,0.194755 -0.142025,0.130914 -0.367992,0.294023 -0.502149,0.362465 -0.633635,0.323256 -0.661666,0.366761 -0.207844,0.322571 0.225918,-0.022 0.452516,-0.06223 0.503551,-0.0894 z m -9.9216896,0.0041 c 0,-0.06678 -0.7731032,-0.588047 -0.8721506,-0.588047 -0.1725374,0 -0.042806,0.234829 0.2385376,0.431781 0.288126,0.2017 0.633613,0.286906 0.633613,0.156266 z m 1.4874862,-0.0392 c 0.5866422,-0.04959 0.4525432,-0.198194 -0.6953063,-0.770519 -0.2119795,-0.105694 -1.1425927,-0.102435 -1.5155899,0.0053 -0.026725,0.0077 0.1517465,0.140944 0.3966024,0.296054 0.244856,0.15511 0.4722971,0.332664 0.5054247,0.394563 0.067193,0.125551 0.4487844,0.147298 1.3088691,0.0746 z m 9.3246704,-0.164172 c 1.510171,-0.568427 2.812284,-1.325668 3.008758,-1.749737 0.148993,-0.321587 0.148217,-0.326263 -0.124068,-0.74742 C 15.94058,11.606399 15.824198,10.55529 15.967562,9.4840815 16.095444,8.5285468 16.081105,8.0929542 15.905747,7.606322 15.465257,6.3839275 15.356495,5.8486754 15.088973,3.5867431 14.868744,1.7246858 14.801679,1.6724686 14.41068,3.0586233 c -0.273114,0.968235 -0.495995,1.5815468 -0.771724,2.1235896 -0.159072,0.3127136 -0.299615,0.6730345 -0.312317,0.8007131 -0.05091,0.5117842 -0.976999,2.3167364 -1.372153,2.6743459 -0.226505,0.2049844 0.192646,0.7575528 0.628866,0.8290355 1.982511,0.3248711 2.566848,2.7142676 0.982062,4.0157186 -0.112547,0.09242 -0.680733,1.233914 -0.614192,1.233914 0.02183,0 0.211177,-0.06455 0.420777,-0.143442 z M 16.81908,14.4132 c 0,-0.01614 -0.0132,-0.02934 -0.02934,-0.02934 -0.01614,0 -0.02934,0.0132 -0.02934,0.02934 0,0.01614 0.0132,0.02934 0.02934,0.02934 0.01614,0 0.02934,-0.0132 0.02934,-0.02934 z M 16.467,14.29584 c 0,-0.01614 -0.0132,-0.02934 -0.02934,-0.02934 -0.01614,0 -0.02934,0.0132 -0.02934,0.02934 0,0.01614 0.0132,0.02934 0.02934,0.02934 0.01614,0 0.02934,-0.0132 0.02934,-0.02934 z m 0.586651,-0.990958 c 2.3e-4,-0.08064 -0.350245,0.378081 -0.475127,0.621871 -0.193179,0.377115 -0.121715,0.326155 0.181876,-0.129693 0.161206,-0.242055 0.293169,-0.463535 0.293251,-0.492178 z M 2.6005802,13.589826 c -0.1921488,-0.169045 -0.4858724,-0.190773 -0.7478117,-0.05532 -0.2951474,0.152627 -0.2011987,0.203969 0.369664,0.202019 0.5427899,-0.0019 0.5427899,-0.0019 0.3781477,-0.1467 z m 25.7197768,0.03119 c 0,-0.09934 -0.0383,-0.116982 -0.24939,-0.1149 -0.24939,0.0025 -0.24939,0.0025 -0.04401,0.1149 0.261566,0.143202 0.2934,0.143202 0.2934,0 z M 7.7519845,12.923863 C 7.9139248,12.750207 8.2488272,12.453659 8.4962121,12.264866 8.8605189,11.986845 9.0318184,11.795925 9.3975395,11.260304 9.6458847,10.896588 9.9171256,10.526385 10.000297,10.437631 10.472782,9.9334359 9.2924893,10.751244 8.6078364,11.402447 8.3519762,11.645807 8.1036815,11.859868 8.0560706,11.878138 7.9265713,11.927832 7.6565818,12.357284 7.4089017,12.907543 7.0547465,13.694351 7.0414199,13.746835 7.264987,13.47432 7.3708954,13.345224 7.5900443,13.097519 7.7519845,12.923863 Z M 9.4840811,13.533 c 0,-0.01614 -0.013203,-0.02934 -0.02934,-0.02934 -0.016137,0 -0.02934,0.0132 -0.02934,0.02934 0,0.01614 0.013203,0.02934 0.02934,0.02934 0.016137,0 0.02934,-0.0132 0.02934,-0.02934 z M 13.06356,13.44498 c 0.03454,-0.06455 0.05277,-0.11736 0.0405,-0.11736 -0.01227,0 -0.0701,0.05281 -0.12852,0.11736 -0.05842,0.06455 -0.07664,0.11736 -0.0405,0.11736 0.03614,0 0.09397,-0.05281 0.128519,-0.11736 z m -2.600686,-1.936439 c 0.109965,-0.253951 0.116863,-0.293855 0.03236,-0.187219 -0.102764,0.129685 -0.9187273,1.824788 -0.9850372,2.04634 -0.044237,0.147805 0.7809072,-1.462446 0.9526732,-1.859121 z m 17.798803,1.6679 c 0,-0.174935 -0.592155,-0.784388 -1.045106,-1.075635 -0.151356,-0.09732 -0.354411,-0.23289 -0.451233,-0.301261 -0.201078,-0.141993 -1.32989,-0.530965 -1.274934,-0.439323 0.04243,0.07076 0.504776,0.631564 0.888325,1.077508 0.642258,0.74674 1.882948,1.233482 1.882948,0.738711 z m -14.591079,-0.36227 c 0.628852,-1.255819 0.427133,-2.297524 -0.541938,-2.79865 -0.272408,-0.1408678 -0.275491,-0.1123904 -0.01806,0.166887 0.535142,0.58056 0.721798,1.944641 0.385882,2.820023 -0.07806,0.203413 0.04415,0.07127 0.174118,-0.18826 z M 2.5891824,12.92213 C 2.8348637,12.808027 2.6687584,12.665841 2.1352946,12.533603 1.975896,12.494091 1.7511483,12.793996 1.90238,12.844406 c 0.029711,0.0099 0.1039749,0.05582 0.1650311,0.102045 0.1463895,0.110819 0.2402121,0.106446 0.5217713,-0.02432 z m 1.271728,-0.537023 c 0.3655914,-0.131094 0.7971206,-0.302733 0.9589538,-0.38142 0.1618332,-0.07869 0.3416321,-0.143066 0.3995531,-0.143066 0.1932405,0 0.045675,-0.101406 -0.2061683,-0.141677 -0.1366606,-0.02185 -0.4038761,-0.09075 -0.5938122,-0.153102 -0.9954134,-0.326777 -1.0514893,-0.328292 -1.5244049,-0.04118 -0.2358525,0.14319 -0.5237977,0.291689 -0.6398781,0.329999 -0.1852317,0.06113 -0.2772527,0.180578 -0.28131,0.365148 -4.407e-4,0.02005 0.1246272,0.05414 0.2779287,0.07577 0.1533015,0.02163 0.4239629,0.103185 0.6014699,0.181243 0.177507,0.07806 0.3272886,0.142985 0.3328482,0.144281 0.00556,0.0013 0.3092284,-0.104902 0.6748198,-0.235997 z m 13.2699076,0.11971 c 0.110598,-0.06525 0.327117,-0.27906 0.481153,-0.475125 0.154037,-0.196064 0.424383,-0.512358 0.600768,-0.702875 0.176386,-0.190518 0.306331,-0.346396 0.288767,-0.346396 -0.151137,0 -1.383869,1.209378 -1.570095,1.54035 -0.07389,0.131316 -0.04648,0.129123 0.199407,-0.01595 z m 10.925755,-0.605224 c -0.09439,-0.324689 -0.09439,-0.324689 -0.399413,-0.354627 -0.374585,-0.03677 -0.811684,-0.01995 -0.756494,0.0291 0.02239,0.0199 0.283021,0.197514 0.579176,0.394695 0.296156,0.197182 0.560183,0.392147 0.586728,0.433256 0.09292,0.143909 0.08668,-0.169871 -0.01,-0.502423 z M 17.143571,11.435454 c 0.287756,-0.430702 0.802047,-1.412599 1.007571,-1.9236802 0.07102,-0.1766007 0.266225,-0.6511671 0.433794,-1.054592 0.349314,-0.8409777 0.466837,-2.9484522 0.21068,-3.7780116 -0.129967,-0.4208949 -0.15413,-0.3984048 -0.387075,0.3602767 -0.289447,0.9427024 -0.749584,1.9011728 -1.299147,2.7061373 -0.272632,0.3993341 -0.55376,0.8124917 -0.62473,0.918128 -0.371714,0.5532876 -0.303827,2.5286438 0.114735,3.3385188 0.06842,0.132378 0.09684,0.102774 0.544172,-0.566777 z M 2.7019465,11.403302 c 0.2928951,-0.17608 0.329769,-0.215839 0.23472,-0.253085 -0.3374804,-0.132244 -0.6561937,7e-6 -0.7655388,0.317661 -0.094526,0.274605 -0.01787,0.265279 0.5308188,-0.06458 z m 2.6158554,0.132812 c 0,-0.02875 -0.2749276,-0.366054 -0.9135748,-1.120863 C 3.9512849,9.8799251 2.7151656,9.714494 2.534879,10.165075 c -0.1805638,0.451273 -0.1787529,0.452683 1.1398832,0.887617 1.562476,0.515361 1.6430397,0.539065 1.6430397,0.483422 z m 1.1735998,-0.09247 C 7.0064022,11.361359 7.1075397,11.302259 6.8346113,11.243095 6.0978596,11.083385 4.3300649,9.5282939 3.6532205,8.4444939 3.5649171,8.3030978 3.4265933,8.3125997 3.330374,8.4666713 3.2562372,8.5853832 3.2826236,8.6244552 3.7416886,9.0757299 4.0822624,9.4105242 4.352783,9.752947 4.626589,10.19583 c 0.6151453,0.995002 1.005343,1.394824 1.3073528,1.3396 0.064548,-0.0118 0.3154049,-0.05311 0.5574599,-0.09178 z m 12.4988373,0.03555 c 0,-0.01614 -0.0132,-0.02934 -0.02934,-0.02934 -0.01614,0 -0.02934,0.0132 -0.02934,0.02934 0,0.01614 0.0132,0.02934 0.02934,0.02934 0.01614,0 0.02934,-0.0132 0.02934,-0.02934 z m 1.336375,-0.616859 c 0.202485,-0.07337 0.358778,-0.142768 0.347316,-0.154229 -0.03496,-0.03496 -0.814374,0.245931 -1.126231,0.405872 -0.503251,0.2581 -0.553232,0.352736 -0.05868,0.111107 0.258192,-0.126147 0.63511,-0.289385 0.837595,-0.36275 z m -1.571095,-0.32215 c 0.151902,-0.07723 0.455128,-0.34249 0.713904,-0.6245211 0.79316,-0.8644386 1.302377,-1.3724383 1.633296,-1.6293903 0.690304,-0.5360087 0.969131,-0.8471616 1.114566,-1.2437873 0.07564,-0.2062781 0.295968,-0.7310604 0.489622,-1.1661831 0.557015,-1.2515663 0.440711,-1.9707759 -0.220183,-1.3615844 -0.138684,0.1278339 -0.3144,0.2657396 -0.390482,0.306457 -1.674293,0.8960545 -3.079787,2.7461834 -4.051538,5.3332602 -0.127558,0.339595 -0.283867,0.705483 -0.347354,0.813086 -0.213119,0.361211 -0.128865,0.3695 0.339339,0.03338 0.250124,-0.179559 0.573597,-0.386884 0.71883,-0.460722 z m 8.631872,0.725922 c 0.32422,-0.107909 0.372689,-0.182276 0.308219,-0.472904 -0.03289,-0.148272 -0.08604,-0.246537 -0.128487,-0.237535 -0.03981,0.0084 -0.355331,0.02905 -0.701148,0.04578 -0.715837,0.03464 -1.647102,0.141063 -1.762983,0.201468 -0.171597,0.08945 1.278708,0.515257 1.785619,0.52426 0.164623,0.0029 0.389074,-0.02456 0.49878,-0.06107 z M 8.2693854,11.118676 C 8.3726731,11.06562 8.6684292,10.852444 8.9266212,10.644951 9.1848131,10.437459 9.5605927,10.170597 9.761687,10.051927 9.9627812,9.9332557 10.127819,9.8212742 10.128437,9.8030787 10.134364,9.6286287 8.241662,9.1553796 7.1048381,9.0470614 6.103192,8.9516232 6.1212743,8.9491129 6.1759635,9.1760116 6.2012452,9.2809021 6.2231478,9.6422018 6.224636,9.9789 c 0.0033,0.74571 1.3502453,1.496521 2.0447494,1.139776 z m 2.9899496,-0.847455 c 0.313978,-0.339036 0.265738,-0.3525225 -0.324901,-0.09083 -0.299123,0.13253 -0.930303,0.654504 -1.0405627,0.860526 -0.1176393,0.219811 1.0680567,-0.448549 1.3654637,-0.769692 z m 2.044518,0.518477 c -0.245219,-0.644976 -0.932781,-0.9485218 -1.431744,-0.632089 -0.333979,0.211803 -0.345551,0.258155 -0.05207,0.208571 0.389833,-0.06586 1.034455,0.119111 1.289237,0.369943 0.253029,0.249106 0.270774,0.253992 0.194576,0.05358 z m 6.214506,-0.01466 c 0,-0.01614 -0.0132,-0.02934 -0.02934,-0.02934 -0.01614,0 -0.02934,0.0132 -0.02934,0.02934 0,0.01614 0.0132,0.02934 0.02934,0.02934 0.01614,0 0.02934,-0.0132 0.02934,-0.02934 z m 0.11736,-0.05868 c 0,-0.01614 -0.0132,-0.02934 -0.02934,-0.02934 -0.01614,0 -0.02934,0.0132 -0.02934,0.02934 0,0.01614 0.0132,0.02934 0.02934,0.02934 0.01614,0 0.02934,-0.0132 0.02934,-0.02934 z m 0.23472,-0.08802 c 0.04841,-0.03129 0.06161,-0.05688 0.02934,-0.05688 -0.03227,0 -0.09829,0.0256 -0.1467,0.05688 -0.04841,0.03129 -0.06161,0.05688 -0.02934,0.05688 0.03227,0 0.09829,-0.0256 0.1467,-0.05688 z m 0.99756,0.02934 c 0,-0.01614 -0.0132,-0.02934 -0.02934,-0.02934 -0.01614,0 -0.02934,0.0132 -0.02934,0.02934 0,0.01614 0.0132,0.02934 0.02934,0.02934 0.01614,0 0.02934,-0.0132 0.02934,-0.02934 z m -0.82152,-0.11736 c 0,-0.01614 -0.0132,-0.02934 -0.02934,-0.02934 -0.01614,0 -0.02934,0.0132 -0.02934,0.02934 0,0.01614 0.0132,0.02934 0.02934,0.02934 0.01614,0 0.02934,-0.0132 0.02934,-0.02934 z m 0.15648,-0.06846 c -0.02152,-0.02152 -0.05672,-0.02152 -0.07824,0 -0.02152,0.02152 -0.0039,0.03912 0.03912,0.03912 0.04303,0 0.06064,-0.0176 0.03912,-0.03912 z m 4.660763,-0.07462 c 1.128487,-0.4045808 2.106996,-0.8827036 2.106996,-1.0295289 0,-0.1435552 -0.07659,-0.1399867 -0.594351,0.027692 -0.278482,0.090188 -0.62176,0.1816623 -0.76284,0.203277 -1.921087,0.2943267 -2.862176,0.6624713 -2.060919,0.8062103 0.70345,0.126193 0.941664,0.124803 1.311114,-0.0076 z m 1.760503,-0.04124 c 0.747331,-0.10929 0.782082,-0.126501 0.730413,-0.3617497 -0.07503,-0.341616 -0.153945,-0.3474083 -0.781293,-0.057347 -0.313966,0.1451658 -0.735885,0.3237368 -0.937597,0.3968238 -0.604331,0.218972 -0.389643,0.223809 0.988477,0.02227 z m -6.186546,0.05719 c -0.02152,-0.02152 -0.05672,-0.02152 -0.07824,0 -0.02152,0.02152 -0.0039,0.03912 0.03912,0.03912 0.04303,0 0.06064,-0.0176 0.03912,-0.03912 z M 5.9910132,9.8508314 C 5.977233,9.1852482 5.9272356,8.9428641 5.7883968,8.8685598 5.6649908,8.8025149 4.1992207,8.5586432 4.1602,8.5976638 c -0.075747,0.075747 1.6268312,1.7959572 1.7775486,1.7959572 0.043044,0 0.060764,-0.180569 0.053265,-0.5427896 z M 20.514946,10.041726 c 0.318933,-0.060485 1.155588,0.02027 1.259659,0.121586 0.260996,0.254083 0.818892,-0.03181 1.4411,-0.7384862 0.293422,-0.3332563 0.596808,-0.6474047 0.67419,-0.6981076 0.07738,-0.050703 0.183998,-0.1834404 0.236923,-0.2949722 0.05293,-0.1115319 0.385598,-0.5241344 0.739273,-0.9168946 1.07156,-1.1899818 0.705362,-1.3108497 -1.137049,-0.3752961 -0.612794,0.3111691 -1.256645,0.6147802 -1.43078,0.6746914 -0.510344,0.1755842 -1.276901,0.8289331 -2.246666,1.9148714 -0.631851,0.7075439 -0.624694,0.6878019 -0.184954,0.5101829 0.191556,-0.07737 0.483293,-0.166281 0.648304,-0.197575 z m 0.27848,0.316443 c -0.0195,-0.0195 -0.07011,-0.02158 -0.11247,-0.0046 -0.04681,0.01873 -0.03291,0.03264 0.03545,0.03545 0.06186,0.0025 0.09652,-0.01132 0.07702,-0.03082 z M 3.9054419,9.7405921 C 3.7954007,9.5349782 3.2350577,8.9853016 3.1354951,8.9853016 c -0.3620007,0 -0.00636,0.7014088 0.405346,0.7994397 0.4285036,0.1020305 0.4419617,0.1004009 0.3646008,-0.044149 z M 11.52786,9.6268531 C 11.805537,9.5636171 11.804994,9.5578079 11.495071,9.2764664 11.341109,9.1367033 10.934553,8.756557 10.591613,8.4316968 10.083791,7.9506464 9.8615767,7.7868233 9.3941101,7.5488595 8.5538097,7.1211047 8.2347473,6.8733125 8.0132991,6.4764856 7.7951029,6.085486 6.5362239,4.8190228 6.3657621,4.8190228 c -0.306543,0 0.046892,1.0262888 0.7578113,2.2004994 0.3690632,0.6095739 0.6010603,1.0064596 0.7448155,1.2741827 0.1924981,0.3584993 0.2220145,0.3719097 1.9090921,0.8673711 0.242055,0.071087 0.636401,0.2324951 0.876325,0.3586852 0.296699,0.156052 0.475001,0.2169857 0.557459,0.1905089 0.06668,-0.02141 0.209147,-0.058948 0.316595,-0.083417 z m 12.483658,0.00758 c 1.898091,-0.4119132 1.701572,-0.346074 1.832675,-0.6139977 0.275885,-0.5638008 0.239215,-0.7392906 -0.154478,-0.7392906 -0.193841,0 -0.390377,-0.014558 -0.436747,-0.032352 -0.04642,-0.017813 -0.20021,0.061149 -0.342209,0.1757047 -0.141846,0.1144313 -0.42954,0.3227134 -0.639321,0.4628491 -0.393936,0.2631531 -0.951251,0.8607979 -0.80271,0.8607979 0.01035,0 0.254601,-0.05117 0.54279,-0.1137113 z M 2.9594314,9.5867715 c -0.02382,-0.1236882 -0.1279624,-0.1158891 -0.1545017,0.01157 -0.011069,0.053163 0.021277,0.09112 0.077653,0.09112 0.060438,0 0.089219,-0.038459 0.076849,-0.1026899 z M 26.475157,9.042515 c 0.265237,-0.1208292 0.399734,-0.3997851 0.158151,-0.3280142 -0.05648,0.016779 -0.173363,0.04734 -0.259742,0.067912 -0.186268,0.044363 -0.369177,0.2283628 -0.314673,0.3165514 0.05421,0.087719 0.119117,0.078917 0.416264,-0.056449 z M 7.468298,8.3660827 C 7.4480929,8.2186706 7.3562159,7.9885515 7.2632987,7.8526328 7.1706876,7.7171619 7.0393719,7.4798641 6.9714859,7.3253044 6.8715654,7.0978099 6.7995874,7.0228465 6.5935724,6.9317163 6.453606,6.8698025 6.2768972,6.7652079 6.2008862,6.699284 6.0529294,6.5709617 5.6039291,6.5466397 4.9077448,6.6292356 c -0.3220371,0.038207 -0.3220371,0.038207 0,0.2376997 0.1771204,0.1097212 0.4220162,0.2625634 0.5442128,0.3396493 0.2109395,0.133068 0.3677739,0.398852 0.6749627,1.1438455 0.053636,0.1300784 0.1136502,0.1638891 0.3467027,0.1953254 0.1550112,0.020909 0.3082446,0.047058 0.3405186,0.058109 0.3843372,0.1315967 0.6895776,0.020644 0.6541564,-0.2377818 z m 18.964694,0.2030147 c 0.156859,-0.054682 0.175127,-0.080605 0.124052,-0.17604 -0.102891,-0.1922526 -0.349166,-0.1470241 -0.349166,0.064124 0,0.096822 0.0093,0.1760399 0.02058,0.1760399 0.01132,0 0.10336,-0.028856 0.204531,-0.064124 z M 12.216066,7.7194399 c 0.534967,-0.8011028 0.853455,-1.7096885 0.75555,-2.155443 -0.04788,-0.2180167 -0.501563,-0.6787021 -1.565789,-1.5899695 -0.44378,-0.3799971 -0.892682,-0.8108242 -0.99756,-0.9573935 -0.228751,-0.3196862 -0.277324,-0.1516881 -0.16516,0.5712296 0.03437,0.2215291 0.06295,0.542955 0.0635,0.7142797 0.0011,0.3419705 0.147935,0.9562321 0.34698,1.4515716 0.218508,0.5437763 0.308424,1.0519053 0.303723,1.716381 -0.0089,1.2621028 0.51336,1.3655616 1.258756,0.2493441 z M 5.9046018,8.4365982 c 0,-0.5190665 -0.985381,-1.505096 -1.504106,-1.505096 -0.2195197,0 0.062761,0.9253898 0.3490452,1.1442597 0.042215,0.032274 0.093384,0.1030418 0.1137094,0.1572619 0.024324,0.064887 0.133393,0.1115919 0.3191035,0.1366453 0.1551814,0.020935 0.308554,0.047105 0.340828,0.058155 0.079997,0.027391 0.3814199,0.034325 0.3814199,0.00877 z M 25.136968,7.8435653 C 25.73452,7.3414254 25.867125,7.1353212 25.670735,7.013946 25.600007,6.9702332 24.842617,7.7473109 24.50078,8.2143148 24.251959,8.5542436 24.380162,8.479531 25.136968,7.8435653 Z M 4.6033793,8.2958118 C 4.1947733,7.3985939 4.0485679,7.2743674 3.8128614,7.6241321 3.7029377,7.787248 3.7027147,8.1537999 3.8125326,8.1646654 c 0.00491,4.859e-4 0.1145536,0.038936 0.2436495,0.085444 0.2515761,0.090634 0.5801576,0.1180767 0.5471972,0.045702 z M 17.016592,7.503632 c 0.635504,-0.9666581 1.016384,-1.9032133 1.234966,-3.0366891 0.04668,-0.242055 0.1224,-0.5457239 0.16827,-0.6748198 0.140599,-0.3956979 0.02621,-0.619623 -0.204768,-0.4008601 -0.461581,0.4371646 -0.638554,0.8656212 -1.12296,2.7187194 -0.14764,0.5647949 -0.347011,1.2579522 -0.443047,1.5403496 -0.230566,0.6779851 -0.15473,0.6477156 0.367539,-0.1467 z m 9.105343,0.4188867 c 0.104536,-0.3293642 -0.206382,-0.3276676 -0.618217,0.00337 -0.1467,0.1179202 -0.1467,0.1179202 0.216096,0.119225 0.318246,0.00114 0.367624,-0.01391 0.402121,-0.1225984 z M 10.305601,7.7262643 c 0,-0.036113 -0.3245813,-0.5844805 -0.4903633,-0.8284507 C 9.7417847,6.7897178 9.458985,6.4464485 9.186794,6.1349929 8.914603,5.8235373 8.5928787,5.436988 8.4718513,5.2759943 8.2136495,4.9325281 8.2024207,4.9824496 8.3992504,5.598768 c 0.080273,0.2513529 0.1459509,0.5960524 0.1459509,0.7659987 0,0.4028336 0.1680516,0.5707629 1.0338111,1.0330585 0.6325836,0.337785 0.7265886,0.380278 0.7265886,0.3284391 z m 0.36014,-0.420673 C 10.633063,7.1159793 10.576342,6.7720166 10.539694,6.5412299 10.455873,6.0133696 10.201378,5.4697878 9.8432805,5.0537427 9.6904971,4.8762358 9.5216902,4.667029 9.468154,4.5888389 9.3578596,4.427753 9.3608683,4.4230331 9.2225103,4.9741929 9.0980543,5.4699726 9.1020187,5.4931122 9.3595152,5.7738836 9.6371128,6.0765731 10.182051,6.8899261 10.438221,7.383916 c 0.223235,0.4304812 0.310056,0.4005928 0.22752,-0.078325 z M 16.49528,7.1584649 C 16.699476,6.5120702 16.711414,5.1674428 16.514401,5.0046931 16.080128,4.645945 15.915245,4.0399049 15.782932,2.3161254 c -0.03633,-0.473325 -0.03859,-0.4788122 -0.211783,-0.5134499 -0.429504,-0.085901 -0.544694,-0.018291 -0.440229,0.258388 0.03046,0.080685 0.106338,0.4074044 0.168609,0.7260432 0.06227,0.3186387 0.126122,0.6002185 0.141891,0.6257328 0.01577,0.025514 0.05494,0.4361535 0.08704,0.9125316 0.08694,1.2900278 0.314528,2.3253121 0.67934,3.0903313 0.133322,0.2795793 0.111816,0.2988234 0.287475,-0.2572375 z m 6.398531,0.011408 c 0.420128,-0.1904952 0.484128,-0.285053 0.508125,-0.7507476 0.03713,-0.7206025 -0.04653,-1.1865818 -0.152877,-0.8515052 -0.018,0.056715 -0.154333,0.3141731 -0.30296,0.5721298 -0.3068,0.5324786 -0.58091,1.202512 -0.491948,1.202512 0.0327,0 0.230552,-0.077575 0.43966,-0.172389 z M 19.605276,6.6674423 c 0.744865,-0.9601291 1.205242,-3.5875198 0.658992,-3.7608928 -0.567992,-0.1802735 -1.247872,1.1524373 -1.133751,2.2223934 0.05239,0.4911608 0.09507,1.1262725 0.09485,1.4113594 -4.65e-4,0.5967409 0.01229,0.6010086 0.379913,0.12714 z M 24.184064,6.541779 C 24.699101,6.2608007 24.803245,6.0595866 24.591661,5.7542701 24.34392,5.3967803 24.009374,5.6177356 23.750407,6.3098866 23.537691,6.8784206 23.552489,6.8863338 24.184064,6.541779 Z M 6.6897805,6.6821123 C 6.6659835,6.6417698 6.5341671,6.4432426 6.3968553,6.2409408 6.2402191,6.0101685 6.1223161,5.7532668 6.0804193,5.551451 6.0010011,5.1688955 5.9121914,5.1425296 5.6286654,5.4173337 5.3042246,5.7317941 5.4036712,5.89457 6.2741708,6.4739075 6.7356869,6.781057 6.7533715,6.7899163 6.6897805,6.6821123 Z M 8.1956104,5.5012956 C 8.0974194,5.1826549 8.0161457,4.85258 8.015002,4.7677958 8.0122594,4.564469 7.9163636,4.407601 7.6572548,4.1825861 7.4196062,3.9762076 7.2272671,3.9344877 7.2774026,4.100193 c 0.057001,0.1883964 0.1519867,0.8627593 0.1524356,1.0822349 3.672e-4,0.179514 0.053906,0.2751859 0.3119581,0.5574599 0.1713332,0.187415 0.3759796,0.4331756 0.4547699,0.5461346 0.2223145,0.3187247 0.2218511,-0.061693 -9.558e-4,-0.7847268 z M 5.6046006,6.3452124 C 5.734334,6.3447401 5.7283101,6.3316778 5.5231819,6.1686624 5.2526195,5.9536465 5.1578486,5.9493885 4.9491839,6.1428734 4.7273006,6.3486151 4.7969408,6.4259356 5.1643659,6.3817863 5.3294407,6.3619512 5.5275463,6.3454929 5.6046006,6.3452124 Z M 23.969188,5.5250026 c 0.250227,-0.256148 -0.07575,-0.6695727 -0.360017,-0.4565899 -0.08253,0.061832 -0.09201,0.1419891 -0.0604,0.5104705 0.03639,0.4242959 0.04019,0.432904 0.129531,0.2934 0.05062,-0.079046 0.181521,-0.2353226 0.290891,-0.3472806 z M 21.113904,5.1919085 C 22.329427,4.3660764 22.439437,4.2078153 22.018753,3.8901953 21.70494,3.6532647 21.70494,3.6532647 21.513769,3.8505032 c -0.105144,0.1084812 -0.346268,0.2799042 -0.53583,0.3809402 -0.34466,0.1837016 -0.34466,0.1837016 -0.345306,0.5176705 -3.55e-4,0.1836828 -0.01701,0.4329913 -0.03702,0.5540187 -0.04606,0.2786803 -0.06001,0.2816723 0.518289,-0.1112241 z M 17.173312,4.6731664 C 17.301,4.2544675 17.29417,4.2337992 17.110245,4.4823346 17.001382,4.6294394 16.966344,4.7584154 16.955016,5.0537427 16.938877,5.4744738 16.917663,5.5114574 17.173312,4.6731664 Z M 13.647716,4.570432 c 0.180038,-0.4501122 0.425036,-1.2770888 0.378346,-1.2770888 -0.05724,0 -0.429717,0.8772746 -0.575751,1.3560452 -0.257564,0.8444204 -0.155623,0.8036469 0.197405,-0.078956 z M 9.133884,4.5955271 C 9.2850372,4.0294804 9.2484443,3.8780684 8.8489287,3.4164533 8.4994495,3.0126522 8.4208715,3.102555 8.3388322,4.0000658 8.3037333,4.3840485 8.3037333,4.3840485 8.6095846,4.7802342 8.9632352,5.2383369 8.9621283,5.2387269 9.133884,4.5955271 Z M 7.1378229,4.4117589 C 7.0636413,4.1362696 7.0112102,4.1172706 6.8795704,4.3181784 6.746905,4.5206513 6.7586727,4.5899995 6.9755116,4.8835685 7.1917868,5.1763744 7.2770078,4.9286522 7.1378229,4.4117589 Z M 13.089465,4.8031618 C 13.331226,4.4341877 13.431378,3.6225527 13.27211,3.3230096 13.140621,3.0757137 13.12224,2.9702466 13.12224,2.4630837 c 0,-0.6462715 -0.06823,-0.737007 -0.287471,-0.3822728 -0.153527,0.2484112 -0.690317,0.7581895 -0.927533,0.8808589 -0.539114,0.2787868 -0.504881,0.6698858 0.10624,1.2137494 0.899505,0.8005088 0.945287,0.8272183 1.075989,0.6277426 z M 10.005207,4.0854849 C 9.8976079,2.7225702 9.7741317,2.1598045 9.7348419,2.8532433 c -0.00731,0.129096 -0.042432,0.4483678 -0.078039,0.7094929 -0.07015,0.5144506 -0.026852,0.7082427 0.2428672,1.087029 0.1689876,0.2373206 0.1688706,0.237942 0.1055366,-0.5642803 z m 6.725853,0.3952294 c 0.128179,-0.094172 0.60994,-0.7153318 0.921126,-1.1876566 0.180842,-0.274486 0.384245,-0.54924 0.452008,-0.6105645 0.257579,-0.2331057 0.150232,-0.4581554 -0.269286,-0.5645527 -0.367041,-0.093088 -0.405272,-0.070129 -0.674003,0.4047687 -0.102872,0.1817938 -0.357418,0.4965475 -0.565657,0.6994528 -0.378617,0.3689186 -0.378617,0.3689186 -0.339404,0.7025584 0.05096,0.433557 0.278888,0.7002333 0.475216,0.5559939 z M 8.2095098,3.5011633 C 8.1737238,3.4375392 8.1433107,3.4348638 8.0696302,3.4888581 7.9017819,3.6118602 7.8870999,3.7895904 8.0298008,3.9710053 8.168614,4.1474776 8.3323125,3.7194945 8.2095098,3.5011633 Z M 21.10295,3.8361331 c 0.406638,-0.2852656 0.407641,-0.3033269 0.02913,-0.5245873 -0.371785,-0.2173299 -0.354411,-0.2309645 -0.406754,0.3192073 -0.04698,0.4937791 -0.03938,0.4979133 0.377622,0.20538 z M 19.444395,3.346066 C 20.007449,2.7582674 19.99641,2.8024543 19.610524,2.6810785 19.211372,2.5555295 19.210812,2.5558981 19.062003,3.0419823 18.775208,3.9788024 18.811017,4.0072783 19.444395,3.346066 Z M 9.5050974,3.4840532 C 9.5995003,2.9129177 9.5593127,2.7068784 9.3666132,2.7740538 9.1178192,2.8607839 9.1119765,2.8912314 9.2617671,3.3204274 9.4160633,3.7625333 9.4547658,3.7885585 9.5050974,3.4840532 Z M 11.521561,2.8777511 c 0.220613,-0.5763841 0.226875,-0.778309 0.02502,-0.8068809 -0.307297,-0.043497 -0.389055,0.02619 -0.524647,0.4471888 -0.161162,0.5003929 -0.162211,0.477223 0.03184,0.7033142 0.216663,0.2524426 0.248632,0.2289592 0.46779,-0.3436221 z m 2.62051,-0.3101279 c 0.584927,-0.8730965 0.580427,-0.8586396 0.267271,-0.8586396 -0.368552,0 -0.993702,0.7531318 -0.993702,1.1971359 0,0.1034427 0.171066,0.4720925 0.202638,0.4366868 0.0099,-0.011068 0.245576,-0.3599001 0.523793,-0.7751831 z m 4.613448,0.4253939 c 0,-0.064548 -0.02641,-0.1010402 -0.05868,-0.081094 -0.03227,0.019946 -0.05868,0.089078 -0.05868,0.1536262 0,0.064548 0.02641,0.1010402 0.05868,0.081094 0.03227,-0.019946 0.05868,-0.089078 0.05868,-0.1536261 z m -2.15982,-0.1544438 c 0.615815,-0.572704 0.629828,-0.8649359 0.04532,-0.9450427 -0.559509,-0.076681 -0.614926,0.0312 -0.488781,0.9515227 0.04637,0.3382854 0.07317,0.3378938 0.443463,-0.00648 z M 10.778725,2.5158334 c 0.03679,-0.1371644 0.07837,-0.268219 0.09241,-0.2912322 0.01403,-0.023013 -0.100866,-0.00349 -0.255336,0.043375 -0.154469,0.046869 -0.287455,0.085503 -0.295523,0.085852 -0.110164,0.00477 0.196308,0.411395 0.310067,0.411395 0.04627,0 0.110413,-0.1078047 0.148387,-0.2493899 z M 12.481957,2.168714 c 0.09529,-0.1780596 0.05776,-0.2250104 -0.179884,-0.2250104 -0.280648,0 -0.380561,0.1257072 -0.433702,0.545669 -0.03531,0.2790539 0.419963,0.041129 0.613586,-0.3206586 z m 6.144374,0.2324839 c 0.01015,-0.052307 -0.03657,-0.1043829 -0.111143,-0.1238843 -0.09107,-0.023816 -0.110384,-0.015373 -0.06611,0.028904 0.0344,0.034401 0.0472,0.1025416 0.02844,0.1514237 -0.0226,0.058882 -0.0062,0.079582 0.0486,0.061337 0.04548,-0.015147 0.09058,-0.068148 0.100212,-0.1177798 z M 13.521524,2.2224335 c 0.190282,-0.3143109 0.214945,-0.4547699 0.07985,-0.4547699 -0.122935,0 -0.244415,0.2522572 -0.244415,0.5075363 0,0.1829913 0.0271,0.174303 0.164564,-0.052766 z"
       id="path3" /></g></svg>
