M48
; DRILL file {KiCad 6.0.10-86aedd382b~118~ubuntu22.04.1} date Sat 06 May 2023 01:17:02 AM EDT
; FORMAT={-:-/ absolute / inch / decimal}
; #@! TF.CreationDate,2023-05-06T01:17:02-04:00
; #@! TF.GenerationSoftware,Kicad,Pcbnew,6.0.10-86aedd382b~118~ubuntu22.04.1
; #@! TF.FileFunction,MixedPlating,1,2
FMAT,2
INCH
; #@! TA.AperFunction,Plated,PTH,ViaDrill
T1C0.0157
; #@! TA.AperFunction,Plated,PTH,ComponentDrill
T2C0.0276
; #@! TA.AperFunction,Plated,PTH,ComponentDrill
T3C0.0300
; #@! TA.AperFunction,Plated,PTH,ComponentDrill
T4C0.0315
; #@! TA.AperFunction,Plated,PTH,ComponentDrill
T5C0.0390
; #@! TA.AperFunction,Plated,PTH,ComponentDrill
T6C0.0394
; #@! TA.AperFunction,Plated,PTH,ComponentDrill
T7C0.0512
; #@! TA.AperFunction,Plated,PTH,ComponentDrill
T8C0.0591
; #@! TA.AperFunction,Plated,PTH,ComponentDrill
T9C0.0630
; #@! TA.AperFunction,NonPlated,NPTH,ComponentDrill
T10C0.1260
%
G90
G05
T1
X0.0669Y-1.0591
X0.0709Y-0.3307
X0.1043Y-0.5118
X0.1063Y-0.5551
X0.1063Y-0.5984
X0.1063Y-0.685
X0.1063Y-0.7283
X0.1102Y-0.6378
X0.1102Y-1.1811
X0.1102Y-1.4409
X0.1417Y-1.6732
X0.1417Y-2.2638
X0.1496Y-1.0709
X0.1929Y-2.4646
X0.2205Y-1.2165
X0.2283Y-0.7244
X0.2323Y-0.3898
X0.2402Y-1.8346
X0.3071Y-0.748
X0.311Y-1.1732
X0.3504Y-1.8386
X0.3543Y-0.5157
X0.3701Y-1.0551
X0.3976Y-0.9055
X0.4134Y-1.6654
X0.4173Y-0.9803
X0.4213Y-1.8386
X0.4882Y-1.1457
X0.4882Y-1.2323
X0.4882Y-1.6575
X0.5157Y-2.3465
X0.5394Y-1.374
X0.5394Y-1.8425
X0.5517Y-0.9154
X0.6024Y-2.063
X0.6102Y-2.1732
X0.6142Y-1.7165
X0.6496Y-1.3701
X0.6772Y-1.9528
X0.6772Y-2.3504
X0.6821Y-1.6604
X0.7008Y-0.6378
X0.7559Y-0.9606
X0.7638Y-2.3465
X0.7717Y-0.5551
X0.7756Y-0.2323
X0.7953Y-0.8268
X0.8031Y-1.6339
X0.8307Y-0.2717
X0.8307Y-0.878
X0.8465Y-1.6732
X0.8819Y-0.6575
X0.8858Y-0.748
X0.9016Y-0.9331
X0.9016Y-1.1417
X0.9173Y-1.8268
X0.9213Y-0.2913
X0.9331Y-0.2047
X0.9449Y-1.3386
X0.9646Y-0.9291
X0.9646Y-2.2756
X0.967Y-0.7968
X0.9685Y-0.0906
X0.9724Y-1.0
X0.9803Y-0.5551
X0.9882Y-1.7638
X0.9961Y-0.4134
X0.9961Y-1.2362
X0.997Y-2.0817
X1.0394Y-0.6575
X1.0394Y-0.9803
X1.0866Y-1.252
X1.0984Y-0.1929
X1.0984Y-0.7323
X1.1142Y-0.5591
X1.122Y-1.1535
X1.1457Y-1.4409
X1.1496Y-1.2953
X1.1496Y-1.7126
X1.1535Y-1.1102
X1.1575Y-0.9764
X1.1614Y-0.7992
X1.1654Y-2.3425
X1.2008Y-0.3346
X1.2047Y-0.8425
X1.2126Y-0.9921
X1.2244Y-0.752
X1.2323Y-0.5551
X1.2362Y-1.4449
X1.2441Y-0.3622
X1.252Y-0.0512
X1.2559Y-0.8189
X1.2717Y-1.343
X1.2913Y-0.8819
X1.311Y-2.0866
X1.315Y-2.3346
X1.3268Y-0.6929
X1.3346Y-1.8268
X1.3543Y-1.6496
X1.3583Y-1.7087
X1.3622Y-0.1535
X1.3661Y-0.9567
X1.374Y-2.1969
X1.4016Y-0.3268
X1.4055Y-0.6417
X1.4055Y-0.748
X1.4134Y-0.9724
X1.4488Y-1.0197
X1.4606Y-0.8937
X1.4843Y-2.2165
X1.5551Y-0.9764
X1.563Y-0.6378
X1.563Y-0.8819
X1.563Y-1.622
X1.5669Y-1.9724
X1.5669Y-2.2756
X1.5709Y-1.5827
X1.5787Y-1.7441
X1.5866Y-1.8504
X1.5906Y-0.0472
X1.5906Y-1.1929
X1.5945Y-0.5591
X1.6299Y-0.9803
X1.6457Y-1.937
X1.6693Y-0.6063
X1.6969Y-1.2402
X1.7008Y-0.1614
X1.7047Y-0.5591
X1.7165Y-1.3819
X1.748Y-1.122
X1.752Y-0.9843
X1.7756Y-1.6457
X1.7795Y-0.4449
X1.7835Y-0.7441
X1.7874Y-0.874
X1.7913Y-0.1575
X1.8307Y-1.8346
X1.8425Y-2.3346
X1.8543Y-0.7205
X1.874Y-1.9449
X1.878Y-1.2205
X1.8819Y-1.6417
X1.8858Y-1.374
X1.8898Y-0.1949
X1.8902Y-0.4445
X1.9094Y-2.1772
X1.9449Y-0.8346
X1.9488Y-0.5591
X1.9685Y-1.7756
X2.0Y-2.2598
X2.0039Y-0.5394
X2.0669Y-1.7047
X2.0984Y-0.9882
X2.1024Y-0.6063
X2.1496Y-0.4803
X2.1693Y-2.2008
X2.2323Y-0.2638
X2.2402Y-1.2205
X2.2441Y-1.8268
X2.2677Y-1.7008
X2.2795Y-0.5591
X2.2953Y-0.4055
X2.3228Y-0.5669
X2.3228Y-1.1417
X2.3346Y-0.6693
X2.3858Y-1.063
X2.3858Y-1.1614
X2.3858Y-1.4488
X2.3858Y-1.8268
X2.3898Y-0.1575
X2.3976Y-0.4724
X2.4291Y-0.626
X2.4409Y-1.4685
X2.4803Y-1.5827
X2.4921Y-1.7283
X2.5283Y-1.6425
X2.5394Y-1.5394
X2.5906Y-0.3228
X2.5945Y-1.6417
T2
X0.2398Y-1.7598
X0.5398Y-1.7598
X0.9327Y-0.4882
X1.2327Y-0.4882
X1.5902Y-0.4882
X1.7165Y-1.5354
X1.7165Y-1.8354
X1.8902Y-0.4882
X2.1024Y-0.539
X2.1024Y-0.839
X2.2323Y-0.5429
X2.2323Y-0.8429
T3
X1.5002Y-1.3819
X1.5002Y-1.4803
X1.5002Y-1.5787
X1.5002Y-1.6772
X1.5002Y-1.7756
X1.5002Y-1.874
X1.5002Y-1.9724
X1.5002Y-2.0709
X1.6781Y-1.3056
X1.6781Y-2.1056
X1.7766Y-1.3056
X1.7766Y-2.1056
X1.875Y-1.3056
X1.875Y-2.1056
X1.9734Y-1.3056
X1.9734Y-2.1056
X2.0719Y-1.3056
X2.0719Y-2.1056
X2.1703Y-1.3056
X2.1703Y-2.1056
T4
X0.6004Y-1.0651
X0.7004Y-1.0651
X0.8004Y-1.0651
X0.9004Y-1.0651
X1.0004Y-0.2651
X1.0004Y-1.0651
X1.1004Y-0.2651
X1.1004Y-1.0651
X1.2004Y-0.2651
X1.2004Y-1.0651
X1.3004Y-0.2651
X1.3004Y-1.0651
X1.4004Y-0.2651
X1.4004Y-1.0651
X1.5004Y-0.2651
X1.5004Y-1.0651
X1.6004Y-0.2651
X1.6004Y-1.0651
X1.7004Y-0.2651
X1.7004Y-1.0651
X1.8004Y-0.2651
X1.8004Y-1.0651
X1.9004Y-0.2651
X1.9004Y-1.0651
X2.0004Y-0.2651
X2.0004Y-1.0651
X2.1004Y-0.2651
X2.1004Y-1.0651
T5
X0.2229Y-1.3337
X0.2229Y-1.5108
T6
X0.5465Y-1.2323
X0.6465Y-1.2323
X0.6722Y-0.0935
X0.7465Y-1.2323
X0.7722Y-0.0935
X0.8465Y-1.2323
X0.8722Y-0.0935
X1.7921Y-0.0906
X1.8921Y-0.0906
X1.9921Y-0.0906
X2.6811Y-0.4654
X2.6811Y-0.5654
X2.6811Y-0.6654
X2.6811Y-0.7654
X2.6811Y-0.8654
X2.6811Y-0.9654
X2.6811Y-1.0654
X2.6811Y-1.1654
X2.6811Y-1.3425
X2.6811Y-1.4425
X2.6811Y-1.5425
X2.6811Y-1.6425
X2.6811Y-1.7425
X2.6811Y-1.8425
T7
X0.321Y-1.2841
X0.321Y-1.56
X0.4803Y-2.4754
X0.6772Y-2.4754
X0.9734Y-2.4754
X1.1703Y-2.4754
X1.3671Y-2.4754
X1.564Y-2.4754
X1.8504Y-2.4754
X2.0472Y-2.4754
X2.2441Y-2.4754
T8
X0.4134Y-2.06
T9
X0.3173Y-1.9571
X0.3173Y-2.1571
X0.5173Y-1.9571
X0.5173Y-2.1571
T10
X0.1358Y-0.1358
X0.1368Y-2.6201
X2.6201Y-2.6201
X2.6211Y-0.1339
T0
M30
