%TF.GenerationSoftware,KiCad,Pcbnew,6.0.10-86aedd382b~118~ubuntu22.04.1*%
%TF.CreationDate,2023-05-06T01:16:59-04:00*%
%TF.ProjectId,sweet-p,73776565-742d-4702-9e6b-696361645f70,rev?*%
%TF.SameCoordinates,Original*%
%TF.FileFunction,Copper,L1,Top*%
%TF.FilePolarity,Positive*%
%FSLAX46Y46*%
G04 Gerber Fmt 4.6, Leading zero omitted, Abs format (unit mm)*
G04 Created by KiCad (PCBNEW 6.0.10-86aedd382b~118~ubuntu22.04.1) date 2023-05-06 01:16:59*
%MOMM*%
%LPD*%
G01*
G04 APERTURE LIST*
G04 Aperture macros list*
%AMRoundRect*
0 Rectangle with rounded corners*
0 $1 Rounding radius*
0 $2 $3 $4 $5 $6 $7 $8 $9 X,Y pos of 4 corners*
0 Add a 4 corners polygon primitive as box body*
4,1,4,$2,$3,$4,$5,$6,$7,$8,$9,$2,$3,0*
0 Add four circle primitives for the rounded corners*
1,1,$1+$1,$2,$3*
1,1,$1+$1,$4,$5*
1,1,$1+$1,$6,$7*
1,1,$1+$1,$8,$9*
0 Add four rect primitives between the rounded corners*
20,1,$1+$1,$2,$3,$4,$5,0*
20,1,$1+$1,$4,$5,$6,$7,0*
20,1,$1+$1,$6,$7,$8,$9,0*
20,1,$1+$1,$8,$9,$2,$3,0*%
G04 Aperture macros list end*
%TA.AperFunction,ComponentPad*%
%ADD10C,1.524000*%
%TD*%
%TA.AperFunction,SMDPad,CuDef*%
%ADD11RoundRect,0.237500X0.237500X-0.250000X0.237500X0.250000X-0.237500X0.250000X-0.237500X-0.250000X0*%
%TD*%
%TA.AperFunction,ComponentPad*%
%ADD12C,2.100000*%
%TD*%
%TA.AperFunction,ComponentPad*%
%ADD13C,1.750000*%
%TD*%
%TA.AperFunction,SMDPad,CuDef*%
%ADD14RoundRect,0.237500X-0.237500X0.250000X-0.237500X-0.250000X0.237500X-0.250000X0.237500X0.250000X0*%
%TD*%
%TA.AperFunction,SMDPad,CuDef*%
%ADD15RoundRect,0.150000X-0.587500X-0.150000X0.587500X-0.150000X0.587500X0.150000X-0.587500X0.150000X0*%
%TD*%
%TA.AperFunction,ComponentPad*%
%ADD16R,2.600000X2.600000*%
%TD*%
%TA.AperFunction,ComponentPad*%
%ADD17C,2.600000*%
%TD*%
%TA.AperFunction,ComponentPad*%
%ADD18C,1.400000*%
%TD*%
%TA.AperFunction,ComponentPad*%
%ADD19O,1.400000X1.400000*%
%TD*%
%TA.AperFunction,ComponentPad*%
%ADD20C,2.500000*%
%TD*%
%TA.AperFunction,SMDPad,CuDef*%
%ADD21R,1.750000X0.700000*%
%TD*%
%TA.AperFunction,SMDPad,CuDef*%
%ADD22R,1.500000X1.300000*%
%TD*%
%TA.AperFunction,SMDPad,CuDef*%
%ADD23R,1.500000X0.800000*%
%TD*%
%TA.AperFunction,SMDPad,CuDef*%
%ADD24R,1.400000X0.800000*%
%TD*%
%TA.AperFunction,SMDPad,CuDef*%
%ADD25R,1.500000X1.500000*%
%TD*%
%TA.AperFunction,SMDPad,CuDef*%
%ADD26R,1.550000X1.000000*%
%TD*%
%TA.AperFunction,SMDPad,CuDef*%
%ADD27R,1.000000X1.450000*%
%TD*%
%TA.AperFunction,SMDPad,CuDef*%
%ADD28RoundRect,0.150000X0.587500X0.150000X-0.587500X0.150000X-0.587500X-0.150000X0.587500X-0.150000X0*%
%TD*%
%TA.AperFunction,SMDPad,CuDef*%
%ADD29RoundRect,0.237500X-0.250000X-0.237500X0.250000X-0.237500X0.250000X0.237500X-0.250000X0.237500X0*%
%TD*%
%TA.AperFunction,ComponentPad*%
%ADD30R,1.700000X1.700000*%
%TD*%
%TA.AperFunction,ComponentPad*%
%ADD31O,1.700000X1.700000*%
%TD*%
%TA.AperFunction,SMDPad,CuDef*%
%ADD32R,1.000000X2.000000*%
%TD*%
%TA.AperFunction,SMDPad,CuDef*%
%ADD33R,1.000000X1.500000*%
%TD*%
%TA.AperFunction,ComponentPad*%
%ADD34R,1.600000X1.600000*%
%TD*%
%TA.AperFunction,ComponentPad*%
%ADD35C,1.600000*%
%TD*%
%TA.AperFunction,ViaPad*%
%ADD36C,0.800000*%
%TD*%
%TA.AperFunction,Conductor*%
%ADD37C,0.400000*%
%TD*%
%TA.AperFunction,Conductor*%
%ADD38C,0.700000*%
%TD*%
G04 APERTURE END LIST*
D10*
%TO.P,U3,1,GND*%
%TO.N,GND_1*%
X42625000Y-33162500D03*
%TO.P,U3,2,PPS*%
%TO.N,unconnected-(U3-Pad2)*%
X45125000Y-33162500D03*
%TO.P,U3,3,VIN*%
%TO.N,+3V3*%
X47625000Y-33162500D03*
%TO.P,U3,4,RXT*%
%TO.N,unconnected-(U3-Pad4)*%
X50125000Y-33162500D03*
%TO.P,U3,5,TXO*%
%TO.N,unconnected-(U3-Pad5)*%
X52625000Y-33162500D03*
%TO.P,U3,6,WAKE*%
%TO.N,unconnected-(U3-Pad6)*%
X55125000Y-33162500D03*
%TO.P,U3,7,RST*%
%TO.N,GPS_RST*%
X55125000Y-53482500D03*
%TO.P,U3,8,SDA*%
%TO.N,SDA*%
X52625000Y-53482500D03*
%TO.P,U3,9,SCL*%
%TO.N,SCL*%
X50125000Y-53482500D03*
%TO.P,U3,10,GND*%
%TO.N,GND_1*%
X47625000Y-53482500D03*
%TO.P,U3,11,3V*%
%TO.N,unconnected-(U3-Pad11)*%
X45125000Y-53482500D03*
%TO.P,U3,12,VIN*%
%TO.N,unconnected-(U3-Pad12)*%
X42625000Y-53482500D03*
%TD*%
D11*
%TO.P,R4,1*%
%TO.N,+3V3*%
X56700000Y-18512500D03*
%TO.P,R4,2*%
%TO.N,SDA*%
X56700000Y-16687500D03*
%TD*%
D12*
%TO.P,SW1,*%
%TO.N,*%
X8152500Y-32615000D03*
X8152500Y-39625000D03*
D13*
%TO.P,SW1,1,1*%
%TO.N,BUT_A*%
X5662500Y-38375000D03*
%TO.P,SW1,2,2*%
%TO.N,GND*%
X5662500Y-33875000D03*
%TD*%
D14*
%TO.P,R13,1*%
%TO.N,+3V3*%
X43600000Y-41797500D03*
%TO.P,R13,2*%
%TO.N,RTC_INT*%
X43600000Y-43622500D03*
%TD*%
D15*
%TO.P,Q2,1,G*%
%TO.N,GND_2_EN*%
X39562500Y-21450000D03*
%TO.P,Q2,2,D*%
%TO.N,GND_2*%
X39562500Y-23350000D03*
%TO.P,Q2,3,S*%
%TO.N,GND*%
X41437500Y-22400000D03*
%TD*%
D16*
%TO.P,J6,1,Pin_1*%
%TO.N,VBUS*%
X12200000Y-62875000D03*
D17*
%TO.P,J6,2,Pin_2*%
%TO.N,GND*%
X17200000Y-62875000D03*
%TD*%
D11*
%TO.P,R12,1*%
%TO.N,GND_1_EN*%
X29400000Y-23312500D03*
%TO.P,R12,2*%
%TO.N,GND*%
X29400000Y-21487500D03*
%TD*%
D18*
%TO.P,R1,1*%
%TO.N,+3V3*%
X40390000Y-12400000D03*
D19*
%TO.P,R1,2*%
%TO.N,ONEWIRE*%
X48010000Y-12400000D03*
%TD*%
D17*
%TO.P,AE1,1,A*%
%TO.N,GND*%
X13140000Y-54790000D03*
X13140000Y-49710000D03*
X8060000Y-54790000D03*
X8060000Y-49710000D03*
D20*
%TO.P,AE1,2,Shield*%
%TO.N,Net-(U1-Pad9)*%
X10500000Y-52325000D03*
%TD*%
D21*
%TO.P,J5,1,DAT2*%
%TO.N,unconnected-(J5-Pad1)*%
X4200000Y-19600000D03*
%TO.P,J5,2,DAT3/CD*%
%TO.N,SD_CS*%
X4200000Y-18500000D03*
%TO.P,J5,3,CMD*%
%TO.N,MOSI*%
X4200000Y-17400000D03*
%TO.P,J5,4,VDD*%
%TO.N,+3V3*%
X4200000Y-16300000D03*
%TO.P,J5,5,CLK*%
%TO.N,SCK*%
X4200000Y-15200000D03*
%TO.P,J5,6,VSS*%
%TO.N,GND*%
X4200000Y-14100000D03*
%TO.P,J5,7,DAT0*%
%TO.N,MISO*%
X4200000Y-13000000D03*
%TO.P,J5,8,DAT1*%
%TO.N,unconnected-(J5-Pad8)*%
X4200000Y-11900000D03*
D22*
%TO.P,J5,9,SHIELD*%
%TO.N,unconnected-(J5-Pad9)*%
X4325000Y-10700000D03*
D23*
%TO.P,J5,10*%
%TO.N,N/C*%
X11925000Y-10450000D03*
D24*
%TO.P,J5,11*%
X12575000Y-22400000D03*
D25*
%TO.P,J5,12*%
X4325000Y-22050000D03*
D26*
%TO.P,J5,A*%
X15000000Y-22000000D03*
D27*
%TO.P,J5,B*%
X13425000Y-10775000D03*
%TD*%
D28*
%TO.P,Q1,1,G*%
%TO.N,GND_1_EN*%
X26437500Y-23350000D03*
%TO.P,Q1,2,D*%
%TO.N,GND_1*%
X26437500Y-21450000D03*
%TO.P,Q1,3,S*%
%TO.N,GND*%
X24562500Y-22400000D03*
%TD*%
D29*
%TO.P,R10,1*%
%TO.N,Net-(J8-Pad2)*%
X26587500Y-12400000D03*
%TO.P,R10,2*%
%TO.N,GND*%
X28412500Y-12400000D03*
%TD*%
D30*
%TO.P,J8,1,Pin_1*%
%TO.N,unconnected-(J8-Pad1)*%
X17075000Y-2375000D03*
D31*
%TO.P,J8,2,Pin_2*%
%TO.N,Net-(J8-Pad2)*%
X19615000Y-2375000D03*
%TO.P,J8,3,Pin_3*%
%TO.N,WRITE_EN*%
X22155000Y-2375000D03*
%TD*%
D32*
%TO.P,U1,1,GND*%
%TO.N,GND*%
X31325000Y-39275000D03*
%TO.P,U1,2,MISO*%
%TO.N,MISO*%
X29325000Y-39275000D03*
%TO.P,U1,3,MOSI*%
%TO.N,MOSI*%
X27325000Y-39275000D03*
%TO.P,U1,4,SCK*%
%TO.N,SCK*%
X25325000Y-39275000D03*
%TO.P,U1,5,NSS*%
%TO.N,LORA_CS*%
X23325000Y-39275000D03*
%TO.P,U1,6,RESET*%
%TO.N,LORA_RST*%
X21325000Y-39275000D03*
%TO.P,U1,7,DIO5*%
%TO.N,unconnected-(U1-Pad7)*%
X19325000Y-39275000D03*
%TO.P,U1,8,GND*%
%TO.N,GND*%
X17325000Y-39275000D03*
%TO.P,U1,9,ANT*%
%TO.N,Net-(U1-Pad9)*%
X17325000Y-55275000D03*
%TO.P,U1,10,GND*%
%TO.N,GND*%
X19325000Y-55275000D03*
%TO.P,U1,11,DIO3*%
%TO.N,unconnected-(U1-Pad11)*%
X21325000Y-55275000D03*
%TO.P,U1,12,DIO4*%
%TO.N,unconnected-(U1-Pad12)*%
X23325000Y-55275000D03*
%TO.P,U1,13,3.3V*%
%TO.N,+3V3*%
X25325000Y-55275000D03*
%TO.P,U1,14,DIO0*%
%TO.N,unconnected-(U1-Pad14)*%
X27325000Y-55275000D03*
%TO.P,U1,15,DIO1*%
%TO.N,unconnected-(U1-Pad15)*%
X29325000Y-55275000D03*
%TO.P,U1,16,DIO2*%
%TO.N,unconnected-(U1-Pad16)*%
X31325000Y-55275000D03*
%TD*%
D18*
%TO.P,R3,1*%
%TO.N,+3V3*%
X56700000Y-21410000D03*
D19*
%TO.P,R3,2*%
%TO.N,SDA*%
X56700000Y-13790000D03*
%TD*%
D14*
%TO.P,R11,1*%
%TO.N,GND_2_EN*%
X44300000Y-21487500D03*
%TO.P,R11,2*%
%TO.N,GND*%
X44300000Y-23312500D03*
%TD*%
D33*
%TO.P,JP1,1,A*%
%TO.N,GND*%
X25050000Y-18600000D03*
%TO.P,JP1,2,B*%
%TO.N,GND_1*%
X26350000Y-18600000D03*
%TD*%
%TO.P,JP2,1,A*%
%TO.N,GND*%
X41150000Y-18500000D03*
%TO.P,JP2,2,B*%
%TO.N,GND_2*%
X39850000Y-18500000D03*
%TD*%
D18*
%TO.P,R9,1*%
%TO.N,Net-(J8-Pad2)*%
X23690000Y-12400000D03*
D19*
%TO.P,R9,2*%
%TO.N,GND*%
X31310000Y-12400000D03*
%TD*%
D16*
%TO.P,J1,1,Pin_1*%
%TO.N,+3V3*%
X47000000Y-62875000D03*
D17*
%TO.P,J1,2,Pin_2*%
%TO.N,ONEWIRE*%
X52000000Y-62875000D03*
%TO.P,J1,3,Pin_3*%
%TO.N,GND*%
X57000000Y-62875000D03*
%TD*%
D29*
%TO.P,R2,1*%
%TO.N,+3V3*%
X43287500Y-12400000D03*
%TO.P,R2,2*%
%TO.N,ONEWIRE*%
X45112500Y-12400000D03*
%TD*%
D16*
%TO.P,J7,1,Pin_1*%
%TO.N,GND_2*%
X24725000Y-62875000D03*
D17*
%TO.P,J7,2,Pin_2*%
%TO.N,+3V3*%
X29725000Y-62875000D03*
%TO.P,J7,3,Pin_3*%
%TO.N,RX*%
X34725000Y-62875000D03*
%TO.P,J7,4,Pin_4*%
%TO.N,TX*%
X39725000Y-62875000D03*
%TD*%
D18*
%TO.P,R6,1*%
%TO.N,+3V3*%
X53400000Y-21310000D03*
D19*
%TO.P,R6,2*%
%TO.N,SCL*%
X53400000Y-13690000D03*
%TD*%
D29*
%TO.P,R7,1*%
%TO.N,BUT_A*%
X8987500Y-44700000D03*
%TO.P,R7,2*%
%TO.N,+3V3*%
X10812500Y-44700000D03*
%TD*%
D30*
%TO.P,J4,1,Pin_1*%
%TO.N,GND*%
X68100000Y-29600000D03*
D31*
%TO.P,J4,2,Pin_2*%
%TO.N,unconnected-(J4-Pad2)*%
X68100000Y-27060000D03*
%TO.P,J4,3,Pin_3*%
%TO.N,unconnected-(J4-Pad3)*%
X68100000Y-24520000D03*
%TO.P,J4,4,Pin_4*%
%TO.N,unconnected-(J4-Pad4)*%
X68100000Y-21980000D03*
%TO.P,J4,5,Pin_5*%
%TO.N,unconnected-(J4-Pad5)*%
X68100000Y-19440000D03*
%TO.P,J4,6,Pin_6*%
%TO.N,SAT_EN*%
X68100000Y-16900000D03*
%TO.P,J4,7,Pin_7*%
%TO.N,VBAT*%
X68100000Y-14360000D03*
%TO.P,J4,8,Pin_8*%
%TO.N,GND*%
X68100000Y-11820000D03*
%TD*%
D18*
%TO.P,R14,1*%
%TO.N,+3V3*%
X43600000Y-39000000D03*
D19*
%TO.P,R14,2*%
%TO.N,RTC_INT*%
X43600000Y-46620000D03*
%TD*%
D11*
%TO.P,R5,1*%
%TO.N,+3V3*%
X53400000Y-18410000D03*
%TO.P,R5,2*%
%TO.N,SCL*%
X53400000Y-16585000D03*
%TD*%
D30*
%TO.P,J2,1,Pin_1*%
%TO.N,unconnected-(J2-Pad1)*%
X50600000Y-2300000D03*
D31*
%TO.P,J2,2,Pin_2*%
%TO.N,EN*%
X48060000Y-2300000D03*
%TO.P,J2,3,Pin_3*%
%TO.N,GND*%
X45520000Y-2300000D03*
%TD*%
D18*
%TO.P,R8,1*%
%TO.N,+3V3*%
X13710000Y-44700000D03*
D19*
%TO.P,R8,2*%
%TO.N,BUT_A*%
X6090000Y-44700000D03*
%TD*%
D31*
%TO.P,U2,1,GND*%
%TO.N,GND*%
X13880000Y-31300000D03*
%TO.P,U2,2,3V3*%
%TO.N,+3V3*%
X16420000Y-31300000D03*
%TO.P,U2,3,SCL*%
%TO.N,SCL*%
X18960000Y-31300000D03*
D30*
%TO.P,U2,4,SDA*%
%TO.N,SDA*%
X21500000Y-31300000D03*
%TD*%
%TO.P,J3,1,Pin_1*%
%TO.N,unconnected-(J3-Pad1)*%
X68100000Y-46800000D03*
D31*
%TO.P,J3,2,Pin_2*%
%TO.N,RX2*%
X68100000Y-44260000D03*
%TO.P,J3,3,Pin_3*%
%TO.N,TX2*%
X68100000Y-41720000D03*
%TO.P,J3,4,Pin_4*%
%TO.N,+3V3*%
X68100000Y-39180000D03*
%TO.P,J3,5,Pin_5*%
%TO.N,unconnected-(J3-Pad5)*%
X68100000Y-36640000D03*
%TO.P,J3,6,Pin_6*%
%TO.N,GND*%
X68100000Y-34100000D03*
%TD*%
D34*
%TO.P,A1,1,~{RESET}*%
%TO.N,unconnected-(A1-Pad1)*%
X15250000Y-27052500D03*
D35*
%TO.P,A1,2,3V3*%
%TO.N,+3V3*%
X17790000Y-27052500D03*
%TO.P,A1,3,AREF*%
%TO.N,unconnected-(A1-Pad3)*%
X20330000Y-27052500D03*
%TO.P,A1,4,GND*%
%TO.N,GND*%
X22870000Y-27052500D03*
%TO.P,A1,5,DAC0/A0*%
%TO.N,BUT_A*%
X25410000Y-27052500D03*
%TO.P,A1,6,A1*%
%TO.N,SAT_EN*%
X27950000Y-27052500D03*
%TO.P,A1,7,A2*%
%TO.N,GPS_RST*%
X30490000Y-27052500D03*
%TO.P,A1,8,A3*%
%TO.N,WRITE_EN*%
X33030000Y-27052500D03*
%TO.P,A1,9,A4*%
%TO.N,GND_1_EN*%
X35570000Y-27052500D03*
%TO.P,A1,10,A5*%
%TO.N,GND_2_EN*%
X38110000Y-27052500D03*
%TO.P,A1,11,SCK/D24*%
%TO.N,SCK*%
X40650000Y-27052500D03*
%TO.P,A1,12,MOSI/D23*%
%TO.N,MOSI*%
X43190000Y-27052500D03*
%TO.P,A1,13,MISO/D22*%
%TO.N,MISO*%
X45730000Y-27052500D03*
%TO.P,A1,14,RX/D0*%
%TO.N,RX*%
X48270000Y-27052500D03*
%TO.P,A1,15,TX/D1*%
%TO.N,TX*%
X50810000Y-27052500D03*
%TO.P,A1,16,GND*%
%TO.N,GND*%
X53350000Y-27052500D03*
%TO.P,A1,17,SDA/D20*%
%TO.N,SDA*%
X53350000Y-6732500D03*
%TO.P,A1,18,SCL/D21*%
%TO.N,SCL*%
X50810000Y-6732500D03*
%TO.P,A1,19,D5*%
%TO.N,ONEWIRE*%
X48270000Y-6732500D03*
%TO.P,A1,20,D6*%
%TO.N,LORA_CS*%
X45730000Y-6732500D03*
%TO.P,A1,21,D9*%
%TO.N,LORA_RST*%
X43190000Y-6732500D03*
%TO.P,A1,22,D10*%
%TO.N,SD_CS*%
X40650000Y-6732500D03*
%TO.P,A1,23,D11*%
%TO.N,RX2*%
X38110000Y-6732500D03*
%TO.P,A1,24,D12*%
%TO.N,TX2*%
X35570000Y-6732500D03*
%TO.P,A1,25,D13*%
%TO.N,RTC_INT*%
X33030000Y-6732500D03*
%TO.P,A1,26,USB*%
%TO.N,VBUS*%
X30490000Y-6732500D03*
%TO.P,A1,27,EN*%
%TO.N,EN*%
X27950000Y-6732500D03*
%TO.P,A1,28,VBAT*%
%TO.N,VBAT*%
X25410000Y-6732500D03*
%TD*%
D10*
%TO.P,U4,1,VIN*%
%TO.N,+3V3*%
X38105000Y-35100000D03*
%TO.P,U4,2,GND*%
%TO.N,GND*%
X38105000Y-37600000D03*
%TO.P,U4,3,SCL*%
%TO.N,SCL*%
X38105000Y-40100000D03*
%TO.P,U4,4,SDA*%
%TO.N,SDA*%
X38105000Y-42600000D03*
%TO.P,U4,5,VBAT*%
%TO.N,unconnected-(U4-Pad5)*%
X38105000Y-45100000D03*
%TO.P,U4,6,32K*%
%TO.N,unconnected-(U4-Pad6)*%
X38105000Y-47600000D03*
%TO.P,U4,7,SQW*%
%TO.N,RTC_INT*%
X38105000Y-50100000D03*
%TO.P,U4,8,RST*%
%TO.N,unconnected-(U4-Pad8)*%
X38105000Y-52600000D03*
%TD*%
D36*
%TO.N,RX2*%
X63300000Y-43900000D03*
X63000000Y-40200000D03*
%TO.N,TX2*%
X65900000Y-41700000D03*
%TO.N,+3V3*%
X64500000Y-39100000D03*
X64220000Y-41720000D03*
%TO.N,GND_2*%
X30600000Y-21400000D03*
X20200000Y-21000000D03*
X31100000Y-19100000D03*
X35700000Y-19000000D03*
X19200000Y-24400000D03*
%TO.N,MISO*%
X29300000Y-28200000D03*
%TO.N,GND_1_EN*%
X34700000Y-24300000D03*
X29400000Y-24800000D03*
X26400000Y-24900000D03*
%TO.N,BUT_A*%
X8900000Y-46700000D03*
X6100000Y-46600000D03*
%TO.N,Net-(J8-Pad2)*%
X23400000Y-7400000D03*
X21100000Y-6900000D03*
%TO.N,GND_2_EN*%
X37100000Y-22700000D03*
%TO.N,GND_2*%
X35900000Y-24700000D03*
X35700000Y-16300000D03*
%TO.N,GND_2_EN*%
X45400000Y-22200000D03*
X39700000Y-22400000D03*
%TO.N,GPS_RST*%
X55100000Y-55900000D03*
X37700000Y-56300000D03*
%TO.N,SDA*%
X34500000Y-43400000D03*
X33900000Y-46400000D03*
%TO.N,GPS_RST*%
X30800000Y-25200000D03*
X36800000Y-25900000D03*
%TO.N,LORA_CS*%
X32300000Y-34112000D03*
%TO.N,BUT_A*%
X9400000Y-26800000D03*
X24700000Y-25400000D03*
%TO.N,SCL*%
X53400000Y-15400000D03*
X62000000Y-37300000D03*
X61700000Y-15900000D03*
%TO.N,SAT_EN*%
X59000000Y-29000000D03*
%TO.N,SDA*%
X57600000Y-43200000D03*
X57900000Y-14200000D03*
X52500000Y-43300000D03*
%TO.N,SCL*%
X50000000Y-45100000D03*
X39700000Y-41200000D03*
X40100000Y-44300000D03*
%TO.N,SDA*%
X23300000Y-46400000D03*
%TO.N,SCL*%
X20400000Y-41500000D03*
%TO.N,ONEWIRE*%
X54600000Y-12200000D03*
%TO.N,LORA_CS*%
X45300000Y-18900000D03*
X31900000Y-20800000D03*
X24000000Y-34000000D03*
%TO.N,ONEWIRE*%
X45200000Y-11300000D03*
X48010000Y-11290000D03*
%TO.N,MOSI*%
X2700000Y-17400000D03*
X27900000Y-18600000D03*
%TO.N,MISO*%
X44400000Y-28500000D03*
%TO.N,MOSI*%
X43100000Y-31500000D03*
X27600000Y-31800000D03*
%TO.N,MISO*%
X10100000Y-23000000D03*
X29200000Y-43500000D03*
X9000000Y-13100000D03*
X15600000Y-43600000D03*
X14012707Y-23250500D03*
X2649500Y-13000000D03*
%TO.N,SCK*%
X25300000Y-31400000D03*
X40400000Y-30300000D03*
X42400000Y-15400000D03*
X2700000Y-15200000D03*
%TO.N,SD_CS*%
X2700000Y-18500000D03*
X5800000Y-18400000D03*
%TO.N,GND*%
X2700000Y-14100000D03*
%TO.N,+3V3*%
X2800000Y-16200000D03*
%TO.N,SD_CS*%
X31600000Y-9200000D03*
X5900000Y-9900000D03*
X31800000Y-1300000D03*
X40400000Y-1200000D03*
%TO.N,Net-(U1-Pad9)*%
X15500000Y-55200000D03*
X15300000Y-52400000D03*
%TO.N,LORA_RST*%
X43200000Y-4100000D03*
X21500000Y-42500000D03*
X34600000Y-3900000D03*
X34400000Y-41900000D03*
%TO.N,RTC_INT*%
X39800000Y-50100000D03*
X40300000Y-47000000D03*
%TO.N,RX*%
X34900000Y-55800000D03*
X48500000Y-55300000D03*
%TO.N,TX*%
X39800000Y-57800000D03*
X50800000Y-57400000D03*
%TO.N,SAT_EN*%
X59300000Y-17000000D03*
X28500000Y-29300000D03*
%TO.N,RX2*%
X39900000Y-40200000D03*
%TO.N,TX2*%
X65800000Y-8200000D03*
X35600000Y-8300000D03*
%TO.N,RTC_INT*%
X46500000Y-46600000D03*
X47100000Y-18300000D03*
X33700000Y-17600000D03*
%TO.N,WRITE_EN*%
X32800000Y-22400000D03*
X21100000Y-22300000D03*
%TO.N,SDA*%
X56700000Y-6700000D03*
%TO.N,SCL*%
X50900000Y-13700000D03*
%TO.N,EN*%
X27900000Y-4900000D03*
X48000000Y-4949500D03*
%TO.N,GND*%
X60700000Y-4000000D03*
X45500000Y-4000000D03*
%TO.N,GND_1*%
X22500000Y-19000000D03*
X26400000Y-16700000D03*
X22400000Y-16700000D03*
X7800000Y-19000000D03*
%TO.N,+3V3*%
X49500000Y-14200000D03*
X49400000Y-21200000D03*
X40500000Y-14200000D03*
X43300000Y-14200000D03*
%TO.N,VBUS*%
X1700000Y-26900000D03*
X1800000Y-8400000D03*
X30500000Y-8500000D03*
X4900000Y-62600000D03*
X3800000Y-27200000D03*
%TO.N,GND*%
X22900000Y-23700000D03*
X24500000Y-23600000D03*
X22900000Y-29000000D03*
X12400000Y-29100000D03*
X5600000Y-30900000D03*
X12400000Y-31300000D03*
X12400000Y-42100000D03*
X17325000Y-42175000D03*
%TO.N,GND_1*%
X47600000Y-49400000D03*
X41800000Y-49200000D03*
X29200000Y-32900000D03*
X29100000Y-36600000D03*
X2800000Y-36600000D03*
X7900000Y-29800000D03*
X2800000Y-30000000D03*
%TO.N,+3V3*%
X56900000Y-31000000D03*
X47700000Y-31000000D03*
X45100000Y-41800000D03*
X47800000Y-41700000D03*
X47900000Y-34900000D03*
X43600000Y-35100000D03*
X46800000Y-59300000D03*
X29600000Y-59500000D03*
X33300000Y-53000000D03*
X33400000Y-59300000D03*
X25325000Y-52875000D03*
%TO.N,GND*%
X17200000Y-49600000D03*
X13100000Y-59600000D03*
%TO.N,+3V3*%
X10700000Y-46700000D03*
X13700000Y-46800000D03*
X25100000Y-44800000D03*
%TO.N,GND_2*%
X24500000Y-57800000D03*
X3600000Y-57500000D03*
X10600000Y-24900000D03*
X10500000Y-42300000D03*
X3600000Y-42500000D03*
%TO.N,GND*%
X19400000Y-59600000D03*
X17200000Y-59700000D03*
X41400000Y-24900000D03*
%TO.N,GND_2*%
X39700000Y-16200000D03*
X39500000Y-24800000D03*
%TO.N,GND*%
X29500000Y-20300000D03*
X24562500Y-20237500D03*
%TO.N,+3V3*%
X13700000Y-34900000D03*
X16500000Y-34800000D03*
%TO.N,GND*%
X31400000Y-36700000D03*
X60600000Y-36800000D03*
X57000000Y-46400000D03*
X60600000Y-46400000D03*
X44500000Y-25000000D03*
X53300000Y-25100000D03*
X60600000Y-27000000D03*
X60600000Y-29500000D03*
%TO.N,VBAT*%
X59000000Y-14400000D03*
X25300000Y-10500000D03*
X58300000Y-10300000D03*
%TO.N,GND*%
X60900000Y-12000000D03*
X19700000Y-5900000D03*
X23700000Y-5200000D03*
X19600000Y-14100000D03*
X24600000Y-2300000D03*
X31300000Y-14100000D03*
X28300000Y-14200000D03*
X24900000Y-14100000D03*
%TO.N,+3V3*%
X17800000Y-16200000D03*
%TD*%
D37*
%TO.N,RX2*%
X63300000Y-43900000D02*
X63300000Y-40500000D01*
X63300000Y-40500000D02*
X63000000Y-40200000D01*
%TO.N,TX2*%
X65800000Y-41600000D02*
X65900000Y-41700000D01*
X65800000Y-39100000D02*
X65800000Y-41600000D01*
D38*
%TO.N,+3V3*%
X64220000Y-39380000D02*
X64500000Y-39100000D01*
X64220000Y-41720000D02*
X64220000Y-39380000D01*
%TO.N,GND*%
X68100000Y-29600000D02*
X68100000Y-34100000D01*
%TO.N,GND_2*%
X35700000Y-19000000D02*
X35700000Y-24500000D01*
X30600000Y-19600000D02*
X31100000Y-19100000D01*
X35700000Y-16300000D02*
X35700000Y-19000000D01*
X19200000Y-22000000D02*
X20200000Y-21000000D01*
X19200000Y-24400000D02*
X19200000Y-22000000D01*
X30600000Y-21400000D02*
X30600000Y-19600000D01*
X39562500Y-23350000D02*
X39562500Y-24737500D01*
X39562500Y-24737500D02*
X39500000Y-24800000D01*
X35700000Y-24500000D02*
X35900000Y-24700000D01*
X39850000Y-18500000D02*
X39850000Y-16350000D01*
X39850000Y-16350000D02*
X39700000Y-16200000D01*
%TO.N,+3V3*%
X43600000Y-39000000D02*
X43600000Y-41797500D01*
D37*
%TO.N,Net-(J8-Pad2)*%
X26587500Y-12400000D02*
X23690000Y-12400000D01*
%TO.N,MISO*%
X30200000Y-36800000D02*
X29325000Y-37675000D01*
X29300000Y-28200000D02*
X30200000Y-29100000D01*
X29325000Y-37675000D02*
X29325000Y-39275000D01*
X30200000Y-29100000D02*
X30200000Y-36800000D01*
D38*
%TO.N,GND_1_EN*%
X35570000Y-26109340D02*
X35570000Y-27052500D01*
X34700000Y-24300000D02*
X34700000Y-25239340D01*
X34700000Y-25239340D02*
X35570000Y-26109340D01*
D37*
%TO.N,LORA_RST*%
X34230000Y-19970000D02*
X34350000Y-19850000D01*
X34350000Y-19850000D02*
X34250000Y-19850000D01*
X34350000Y-19850000D02*
X34600000Y-19600000D01*
X34250000Y-19850000D02*
X33800000Y-20300000D01*
X33800000Y-20300000D02*
X33800000Y-25400000D01*
X34370000Y-41870000D02*
X34400000Y-41900000D01*
X33800000Y-25400000D02*
X34370000Y-25970000D01*
X34370000Y-25970000D02*
X34370000Y-41870000D01*
D38*
%TO.N,GND_1_EN*%
X26437500Y-23350000D02*
X26437500Y-24862500D01*
X26437500Y-24862500D02*
X26400000Y-24900000D01*
X29400000Y-24800000D02*
X29400000Y-23312500D01*
D37*
%TO.N,GND_2_EN*%
X37100000Y-25000000D02*
X37100000Y-22700000D01*
X38110000Y-27052500D02*
X38110000Y-26010000D01*
X38110000Y-26010000D02*
X37100000Y-25000000D01*
X37100000Y-22700000D02*
X37100000Y-23100000D01*
X37100000Y-23100000D02*
X37100000Y-24000000D01*
X37100000Y-25000000D02*
X37100000Y-23100000D01*
%TO.N,BUT_A*%
X8900000Y-46700000D02*
X8900000Y-44787500D01*
X6090000Y-44700000D02*
X6090000Y-46590000D01*
X6090000Y-46590000D02*
X6100000Y-46600000D01*
X8900000Y-44787500D02*
X8987500Y-44700000D01*
%TO.N,Net-(J8-Pad2)*%
X21100000Y-5700000D02*
X21100000Y-6900000D01*
X21000000Y-5600000D02*
X21100000Y-5700000D01*
X19615000Y-2375000D02*
X19615000Y-4215000D01*
X19615000Y-4215000D02*
X21000000Y-5600000D01*
X23400000Y-7400000D02*
X23690000Y-7690000D01*
X23690000Y-7690000D02*
X23690000Y-12400000D01*
%TO.N,GND_2_EN*%
X37100000Y-24000000D02*
X37100000Y-24400000D01*
X37100000Y-25000000D02*
X37100000Y-24000000D01*
%TO.N,RX2*%
X39900000Y-40200000D02*
X39400000Y-39700000D01*
X39400000Y-39700000D02*
X39400000Y-26200000D01*
X38110000Y-23990000D02*
X38110000Y-6732500D01*
X39400000Y-26200000D02*
X38100000Y-24900000D01*
X38100000Y-24900000D02*
X38100000Y-24000000D01*
X38100000Y-24000000D02*
X38110000Y-23990000D01*
%TO.N,GND_2_EN*%
X45012500Y-22200000D02*
X44300000Y-21487500D01*
X39562500Y-22262500D02*
X39700000Y-22400000D01*
X39562500Y-21450000D02*
X39562500Y-22262500D01*
X45400000Y-22200000D02*
X45012500Y-22200000D01*
%TO.N,GPS_RST*%
X36700000Y-44400000D02*
X36300000Y-44800000D01*
X55100000Y-53507500D02*
X55125000Y-53482500D01*
X36700000Y-41300000D02*
X36700000Y-44400000D01*
X36300000Y-44800000D02*
X36300000Y-54900000D01*
X36300000Y-54900000D02*
X37700000Y-56300000D01*
X55100000Y-55900000D02*
X55100000Y-53507500D01*
%TO.N,SDA*%
X34500000Y-43400000D02*
X34500000Y-45800000D01*
X34500000Y-45800000D02*
X33900000Y-46400000D01*
%TO.N,GPS_RST*%
X36770000Y-25930000D02*
X36770000Y-41230000D01*
X36770000Y-41230000D02*
X36700000Y-41300000D01*
X30490000Y-25510000D02*
X30800000Y-25200000D01*
X36800000Y-25900000D02*
X36770000Y-25930000D01*
X30490000Y-27052500D02*
X30490000Y-25510000D01*
%TO.N,LORA_CS*%
X32600000Y-33812000D02*
X32300000Y-34112000D01*
X32600000Y-30900000D02*
X32600000Y-33812000D01*
X31830000Y-20870000D02*
X31830000Y-30130000D01*
X31830000Y-30130000D02*
X32600000Y-30900000D01*
%TO.N,BUT_A*%
X6090000Y-44700000D02*
X6090000Y-38802500D01*
X6090000Y-38802500D02*
X5662500Y-38375000D01*
X5662500Y-38375000D02*
X9602500Y-34435000D01*
X9602500Y-34435000D02*
X9602500Y-27002500D01*
X9602500Y-27002500D02*
X9400000Y-26800000D01*
X25410000Y-27052500D02*
X25410000Y-26110000D01*
X25410000Y-26110000D02*
X24700000Y-25400000D01*
%TO.N,SCL*%
X62000000Y-37300000D02*
X62000000Y-16200000D01*
X62000000Y-16200000D02*
X61700000Y-15900000D01*
X53400000Y-13690000D02*
X53400000Y-15400000D01*
X53400000Y-15400000D02*
X53400000Y-16585000D01*
%TO.N,SAT_EN*%
X59000000Y-29000000D02*
X59000000Y-17300000D01*
X59000000Y-17300000D02*
X59300000Y-17000000D01*
%TO.N,SDA*%
X57900000Y-42900000D02*
X57600000Y-43200000D01*
X57900000Y-14200000D02*
X57900000Y-27700000D01*
X57900000Y-27700000D02*
X57600000Y-28000000D01*
X57600000Y-30200000D02*
X57900000Y-30500000D01*
X57900000Y-30500000D02*
X57900000Y-42900000D01*
X57600000Y-28000000D02*
X57600000Y-30200000D01*
X52625000Y-43425000D02*
X52625000Y-53482500D01*
X52500000Y-43300000D02*
X52625000Y-43425000D01*
%TO.N,SCL*%
X40100000Y-41600000D02*
X39700000Y-41200000D01*
X40100000Y-44300000D02*
X40100000Y-41600000D01*
X50125000Y-53482500D02*
X50125000Y-45225000D01*
X50125000Y-45225000D02*
X50000000Y-45100000D01*
%TO.N,SDA*%
X22425000Y-40325000D02*
X22425000Y-45525000D01*
X22425000Y-45525000D02*
X23300000Y-46400000D01*
X21500000Y-31300000D02*
X22425000Y-32225000D01*
X22425000Y-32225000D02*
X22425000Y-40325000D01*
%TO.N,SCL*%
X18960000Y-31300000D02*
X20400000Y-32740000D01*
X20400000Y-32740000D02*
X20400000Y-41500000D01*
%TO.N,ONEWIRE*%
X55000000Y-27400000D02*
X55000000Y-17800000D01*
X54500000Y-27900000D02*
X55000000Y-27400000D01*
X52000000Y-62875000D02*
X53787000Y-61088000D01*
X53787000Y-61088000D02*
X53787000Y-28613000D01*
X55000000Y-17800000D02*
X55000000Y-12600000D01*
X53787000Y-28613000D02*
X54500000Y-27900000D01*
X55000000Y-12600000D02*
X54600000Y-12200000D01*
%TO.N,LORA_CS*%
X45300000Y-17700000D02*
X45300000Y-18900000D01*
X45800000Y-17200000D02*
X45300000Y-17700000D01*
X23325000Y-34675000D02*
X23325000Y-39275000D01*
X31900000Y-20800000D02*
X31830000Y-20870000D01*
X24000000Y-34000000D02*
X23325000Y-34675000D01*
X45730000Y-6732500D02*
X46500000Y-7502500D01*
X46500000Y-7502500D02*
X46500000Y-16500000D01*
X46500000Y-16500000D02*
X45800000Y-17200000D01*
%TO.N,ONEWIRE*%
X45112500Y-11387500D02*
X45200000Y-11300000D01*
X45112500Y-12400000D02*
X45112500Y-11387500D01*
X48010000Y-12400000D02*
X48010000Y-11290000D01*
X48010000Y-11290000D02*
X48010000Y-6992500D01*
X48010000Y-6992500D02*
X48270000Y-6732500D01*
%TO.N,MOSI*%
X27900000Y-18600000D02*
X27900000Y-25300000D01*
X4200000Y-17400000D02*
X2700000Y-17400000D01*
X26700000Y-30900000D02*
X27600000Y-31800000D01*
X27900000Y-25300000D02*
X26700000Y-26500000D01*
X26700000Y-26500000D02*
X26700000Y-30900000D01*
%TO.N,MISO*%
X45730000Y-27170000D02*
X44400000Y-28500000D01*
X45730000Y-27052500D02*
X45730000Y-27170000D01*
%TO.N,MOSI*%
X27325000Y-39275000D02*
X27325000Y-32075000D01*
X43100000Y-31500000D02*
X43190000Y-31410000D01*
X27325000Y-32075000D02*
X27600000Y-31800000D01*
X43190000Y-31410000D02*
X43190000Y-27052500D01*
%TO.N,MISO*%
X13300000Y-28912233D02*
X15170000Y-30782233D01*
X9300000Y-13400000D02*
X9300000Y-13600000D01*
X9000000Y-13100000D02*
X9300000Y-13400000D01*
X14012707Y-23250500D02*
X13300000Y-23963207D01*
X9602500Y-22502500D02*
X10100000Y-23000000D01*
X15170000Y-30782233D02*
X15170000Y-43170000D01*
X13300000Y-23963207D02*
X13300000Y-26000000D01*
X9602500Y-13902500D02*
X9602500Y-22502500D01*
X9300000Y-13600000D02*
X9602500Y-13902500D01*
X13300000Y-26000000D02*
X13300000Y-28912233D01*
X15170000Y-43170000D02*
X15600000Y-43600000D01*
X29200000Y-43500000D02*
X29325000Y-43375000D01*
X29325000Y-43375000D02*
X29325000Y-39275000D01*
X4200000Y-13000000D02*
X2649500Y-13000000D01*
%TO.N,SCK*%
X40650000Y-30050000D02*
X40400000Y-30300000D01*
X40650000Y-27052500D02*
X40650000Y-30050000D01*
X25325000Y-31425000D02*
X25325000Y-39275000D01*
X25300000Y-31400000D02*
X25325000Y-31425000D01*
X42800000Y-21200000D02*
X42800000Y-25000000D01*
X42400000Y-15400000D02*
X42400000Y-20800000D01*
X42400000Y-20800000D02*
X42800000Y-21200000D01*
X4200000Y-15200000D02*
X2700000Y-15200000D01*
X42800000Y-25000000D02*
X42702500Y-25000000D01*
X42702500Y-25000000D02*
X40650000Y-27052500D01*
%TO.N,SD_CS*%
X5900000Y-11100000D02*
X5900000Y-18300000D01*
X5900000Y-18300000D02*
X5800000Y-18400000D01*
X2700000Y-18500000D02*
X4200000Y-18500000D01*
D38*
%TO.N,GND*%
X2700000Y-14100000D02*
X4200000Y-14100000D01*
%TO.N,+3V3*%
X2800000Y-16200000D02*
X4100000Y-16200000D01*
X4100000Y-16200000D02*
X4200000Y-16300000D01*
D37*
%TO.N,SD_CS*%
X31800000Y-1300000D02*
X31690000Y-1410000D01*
X31690000Y-1410000D02*
X31690000Y-9110000D01*
X40650000Y-6732500D02*
X40650000Y-1450000D01*
X31690000Y-9110000D02*
X31600000Y-9200000D01*
X5900000Y-9900000D02*
X5900000Y-11100000D01*
X40650000Y-1450000D02*
X40400000Y-1200000D01*
D38*
%TO.N,Net-(U1-Pad9)*%
X10500000Y-52325000D02*
X15225000Y-52325000D01*
X15500000Y-55200000D02*
X17250000Y-55200000D01*
X15225000Y-52325000D02*
X15300000Y-52400000D01*
X17250000Y-55200000D02*
X17325000Y-55275000D01*
D37*
%TO.N,LORA_RST*%
X34400000Y-41900000D02*
X34230000Y-41730000D01*
X43200000Y-4100000D02*
X43200000Y-6722500D01*
X21325000Y-42325000D02*
X21500000Y-42500000D01*
X34300000Y-9100000D02*
X34300000Y-4200000D01*
X34300000Y-4200000D02*
X34600000Y-3900000D01*
X34600000Y-19600000D02*
X34700000Y-19500000D01*
X34700000Y-19500000D02*
X34700000Y-17100000D01*
X21325000Y-39275000D02*
X21325000Y-42325000D01*
X34700000Y-9500000D02*
X34300000Y-9100000D01*
X34700000Y-17100000D02*
X34700000Y-9500000D01*
X43200000Y-6722500D02*
X43190000Y-6732500D01*
%TO.N,RTC_INT*%
X40300000Y-49600000D02*
X39800000Y-50100000D01*
X40300000Y-47000000D02*
X40300000Y-49600000D01*
%TO.N,RX*%
X34725000Y-55975000D02*
X34725000Y-62875000D01*
X48270000Y-28570000D02*
X48900000Y-29200000D01*
X48270000Y-27052500D02*
X48270000Y-28570000D01*
X48900000Y-29200000D02*
X48963000Y-29263000D01*
X48963000Y-29263000D02*
X48963000Y-54837000D01*
X48963000Y-54837000D02*
X48500000Y-55300000D01*
X34900000Y-55800000D02*
X34725000Y-55975000D01*
%TO.N,TX*%
X50810000Y-27052500D02*
X51287000Y-27529500D01*
X51287000Y-27529500D02*
X51287000Y-56913000D01*
X51287000Y-56913000D02*
X50800000Y-57400000D01*
X39800000Y-57800000D02*
X39725000Y-57875000D01*
X39725000Y-57875000D02*
X39725000Y-62875000D01*
%TO.N,SDA*%
X56700000Y-13790000D02*
X56700000Y-16687500D01*
%TO.N,SAT_EN*%
X27950000Y-27052500D02*
X27950000Y-28750000D01*
X27950000Y-28750000D02*
X28500000Y-29300000D01*
%TO.N,TX2*%
X65800000Y-8200000D02*
X65800000Y-39100000D01*
X35570000Y-8270000D02*
X35600000Y-8300000D01*
X35570000Y-6732500D02*
X35570000Y-8270000D01*
%TO.N,RTC_INT*%
X43600000Y-43622500D02*
X43600000Y-46620000D01*
X46400000Y-29800000D02*
X46400000Y-43000000D01*
X46400000Y-43000000D02*
X46400000Y-43300000D01*
X46500000Y-46600000D02*
X46500000Y-43100000D01*
X46500000Y-43100000D02*
X46400000Y-43000000D01*
X33030000Y-6732500D02*
X33030000Y-16930000D01*
X33030000Y-16930000D02*
X33700000Y-17600000D01*
X47100000Y-18300000D02*
X46930000Y-18470000D01*
X46930000Y-29270000D02*
X46400000Y-29800000D01*
X46930000Y-18470000D02*
X46930000Y-29270000D01*
%TO.N,WRITE_EN*%
X22155000Y-11745000D02*
X21100000Y-12800000D01*
X22155000Y-2375000D02*
X22155000Y-11745000D01*
X21100000Y-12800000D02*
X21100000Y-22300000D01*
X32800000Y-22400000D02*
X33030000Y-22630000D01*
X33030000Y-22630000D02*
X33030000Y-27052500D01*
%TO.N,SDA*%
X56700000Y-13790000D02*
X56700000Y-6700000D01*
%TO.N,SCL*%
X50810000Y-13610000D02*
X50900000Y-13700000D01*
X50810000Y-6732500D02*
X50810000Y-13610000D01*
%TO.N,EN*%
X27900000Y-4900000D02*
X27900000Y-6682500D01*
X48060000Y-2300000D02*
X48060000Y-4889500D01*
X48060000Y-4889500D02*
X48000000Y-4949500D01*
X27900000Y-6682500D02*
X27950000Y-6732500D01*
D38*
%TO.N,GND*%
X60700000Y-4400000D02*
X60700000Y-4000000D01*
X45520000Y-3980000D02*
X45500000Y-4000000D01*
X45520000Y-2300000D02*
X45520000Y-3980000D01*
%TO.N,GND_1*%
X22400000Y-18900000D02*
X22500000Y-19000000D01*
X22400000Y-16700000D02*
X22400000Y-18900000D01*
X7800000Y-19000000D02*
X7800000Y-29700000D01*
X26350000Y-16750000D02*
X26400000Y-16700000D01*
X26350000Y-18600000D02*
X26350000Y-16750000D01*
%TO.N,+3V3*%
X56700000Y-18512500D02*
X56700000Y-21410000D01*
X49400000Y-14300000D02*
X49500000Y-14200000D01*
X49400000Y-21200000D02*
X49400000Y-14300000D01*
X53400000Y-18410000D02*
X53400000Y-21310000D01*
X43287500Y-12400000D02*
X43287500Y-14187500D01*
X40500000Y-12510000D02*
X40390000Y-12400000D01*
X43287500Y-14187500D02*
X43300000Y-14200000D01*
X40500000Y-14200000D02*
X40500000Y-12510000D01*
%TO.N,VBUS*%
X3900000Y-27300000D02*
X3800000Y-27200000D01*
X30500000Y-8500000D02*
X30500000Y-6742500D01*
X1700000Y-8500000D02*
X1800000Y-8400000D01*
X4840000Y-57440000D02*
X4840000Y-40960000D01*
X3900000Y-40020000D02*
X3900000Y-32900000D01*
X4900000Y-62600000D02*
X4900000Y-57500000D01*
X4900000Y-57500000D02*
X4840000Y-57440000D01*
X1700000Y-26900000D02*
X1700000Y-8500000D01*
X4840000Y-40960000D02*
X3900000Y-40020000D01*
X3900000Y-32900000D02*
X3900000Y-27300000D01*
X30500000Y-6742500D02*
X30490000Y-6732500D01*
%TO.N,GND*%
X24562500Y-22400000D02*
X24562500Y-23537500D01*
X24562500Y-23537500D02*
X24500000Y-23600000D01*
X22900000Y-23700000D02*
X22900000Y-27022500D01*
X22900000Y-27022500D02*
X22870000Y-27052500D01*
X22900000Y-27082500D02*
X22870000Y-27052500D01*
X12400000Y-31300000D02*
X12400000Y-29100000D01*
X22900000Y-29000000D02*
X22900000Y-27082500D01*
X5600000Y-30900000D02*
X5600000Y-33812500D01*
X5600000Y-33812500D02*
X5662500Y-33875000D01*
X12400000Y-42100000D02*
X12400000Y-31300000D01*
X17200000Y-49600000D02*
X17325000Y-49475000D01*
X17325000Y-49475000D02*
X17325000Y-39275000D01*
%TO.N,GND_1*%
X47600000Y-53457500D02*
X47625000Y-53482500D01*
X41600000Y-34100000D02*
X41600000Y-46100000D01*
X41900000Y-33800000D02*
X41600000Y-34100000D01*
X41600000Y-49000000D02*
X41800000Y-49200000D01*
X42625000Y-33162500D02*
X42537500Y-33162500D01*
X42537500Y-33162500D02*
X41900000Y-33800000D01*
X41600000Y-46100000D02*
X41600000Y-49000000D01*
X47600000Y-49400000D02*
X47600000Y-53457500D01*
X29100000Y-36600000D02*
X29100000Y-33000000D01*
X29100000Y-33000000D02*
X29200000Y-32900000D01*
X2800000Y-36200000D02*
X2800000Y-36600000D01*
X2800000Y-30000000D02*
X2800000Y-36200000D01*
X7800000Y-29700000D02*
X7900000Y-29800000D01*
%TO.N,+3V3*%
X47625000Y-33162500D02*
X47625000Y-31075000D01*
X56700000Y-30800000D02*
X56700000Y-21410000D01*
X47625000Y-31075000D02*
X47700000Y-31000000D01*
X56900000Y-31000000D02*
X56700000Y-30800000D01*
X45097500Y-41797500D02*
X45100000Y-41800000D01*
X43600000Y-41797500D02*
X45097500Y-41797500D01*
X47900000Y-41600000D02*
X47800000Y-41700000D01*
X47900000Y-34900000D02*
X47900000Y-41600000D01*
X47900000Y-34900000D02*
X47900000Y-33437500D01*
X47900000Y-33437500D02*
X47625000Y-33162500D01*
X43600000Y-35100000D02*
X43600000Y-39000000D01*
X46800000Y-62675000D02*
X47000000Y-62875000D01*
X46800000Y-59300000D02*
X46800000Y-62675000D01*
X33300000Y-53000000D02*
X33300000Y-59200000D01*
X33300000Y-59200000D02*
X33400000Y-59300000D01*
X29600000Y-59500000D02*
X29600000Y-62750000D01*
X29600000Y-62750000D02*
X29725000Y-62875000D01*
X25325000Y-45025000D02*
X25325000Y-52875000D01*
X25325000Y-55275000D02*
X25325000Y-52875000D01*
%TO.N,GND*%
X13100000Y-59600000D02*
X13100000Y-54830000D01*
X13100000Y-54830000D02*
X13140000Y-54790000D01*
X8060000Y-54790000D02*
X8060000Y-49710000D01*
%TO.N,+3V3*%
X10700000Y-44812500D02*
X10812500Y-44700000D01*
X13710000Y-44700000D02*
X13710000Y-46790000D01*
X13710000Y-46790000D02*
X13700000Y-46800000D01*
X10700000Y-46700000D02*
X10700000Y-44812500D01*
X25100000Y-44800000D02*
X25325000Y-45025000D01*
%TO.N,GND_2*%
X3600000Y-51000000D02*
X3600000Y-57500000D01*
X24500000Y-57800000D02*
X24500000Y-62650000D01*
X24500000Y-62650000D02*
X24725000Y-62875000D01*
X3600000Y-42500000D02*
X3600000Y-51000000D01*
X10600000Y-24900000D02*
X10600000Y-42200000D01*
X10600000Y-42200000D02*
X10500000Y-42300000D01*
%TO.N,GND*%
X17200000Y-62875000D02*
X17200000Y-59700000D01*
X19400000Y-59600000D02*
X19400000Y-55350000D01*
X19400000Y-55350000D02*
X19325000Y-55275000D01*
X41400000Y-24900000D02*
X41400000Y-22437500D01*
X41400000Y-22437500D02*
X41437500Y-22400000D01*
X44300000Y-23312500D02*
X44300000Y-24800000D01*
X44300000Y-24800000D02*
X44500000Y-25000000D01*
%TO.N,GND_1*%
X26350000Y-18600000D02*
X26350000Y-21362500D01*
X26350000Y-21362500D02*
X26437500Y-21450000D01*
%TO.N,GND*%
X29500000Y-21387500D02*
X29400000Y-21487500D01*
X29500000Y-20300000D02*
X29500000Y-21387500D01*
X25050000Y-18600000D02*
X25050000Y-19050000D01*
X25050000Y-19050000D02*
X24562500Y-19537500D01*
X24562500Y-19537500D02*
X24562500Y-22400000D01*
%TO.N,+3V3*%
X13710000Y-34910000D02*
X13700000Y-34900000D01*
X13710000Y-44700000D02*
X13710000Y-34910000D01*
X16500000Y-34800000D02*
X16500000Y-31380000D01*
X16500000Y-31380000D02*
X16420000Y-31300000D01*
%TO.N,GND*%
X31400000Y-39200000D02*
X31325000Y-39275000D01*
X31400000Y-36700000D02*
X31400000Y-39200000D01*
X60600000Y-46400000D02*
X60600000Y-36800000D01*
X60600000Y-36800000D02*
X60600000Y-29500000D01*
X57000000Y-62875000D02*
X57000000Y-46400000D01*
X53350000Y-27052500D02*
X53350000Y-25150000D01*
X53350000Y-25150000D02*
X53300000Y-25100000D01*
X60600000Y-29500000D02*
X60600000Y-27000000D01*
X60600000Y-27000000D02*
X60600000Y-12300000D01*
X60600000Y-12300000D02*
X60900000Y-12000000D01*
%TO.N,VBAT*%
X59000000Y-14400000D02*
X59000000Y-11000000D01*
X25300000Y-6842500D02*
X25410000Y-6732500D01*
X59000000Y-11000000D02*
X58300000Y-10300000D01*
X25300000Y-10500000D02*
X25300000Y-6842500D01*
%TO.N,GND*%
X60700000Y-11800000D02*
X60900000Y-12000000D01*
X60700000Y-4400000D02*
X60700000Y-11800000D01*
X19700000Y-14000000D02*
X19600000Y-14100000D01*
X23700000Y-5100000D02*
X23700000Y-5200000D01*
X19700000Y-5900000D02*
X19700000Y-14000000D01*
X24600000Y-4200000D02*
X23700000Y-5100000D01*
X24600000Y-2300000D02*
X24600000Y-4200000D01*
X41150000Y-18500000D02*
X41150000Y-22112500D01*
X41150000Y-22112500D02*
X41437500Y-22400000D01*
X31310000Y-14090000D02*
X31300000Y-14100000D01*
X31310000Y-12400000D02*
X31310000Y-14090000D01*
X28300000Y-14200000D02*
X28300000Y-12512500D01*
X28300000Y-12512500D02*
X28412500Y-12400000D01*
X24900000Y-14100000D02*
X24900000Y-18450000D01*
X24900000Y-18450000D02*
X25050000Y-18600000D01*
%TO.N,+3V3*%
X17790000Y-27052500D02*
X17790000Y-16210000D01*
X17790000Y-16210000D02*
X17800000Y-16200000D01*
X17790000Y-27052500D02*
X17790000Y-29930000D01*
X17790000Y-29930000D02*
X16420000Y-31300000D01*
%TD*%
M02*
